G04 #@! TF.GenerationSoftware,KiCad,Pcbnew,7.0.10*
G04 #@! TF.CreationDate,2024-06-20T08:21:38-05:00*
G04 #@! TF.ProjectId,g0dzilla_vs_middle,6730647a-696c-46c6-915f-76735f6d6964,1*
G04 #@! TF.SameCoordinates,Original*
G04 #@! TF.FileFunction,Soldermask,Bot*
G04 #@! TF.FilePolarity,Negative*
%FSLAX46Y46*%
G04 Gerber Fmt 4.6, Leading zero omitted, Abs format (unit mm)*
G04 Created by KiCad (PCBNEW 7.0.10) date 2024-06-20 08:21:38*
%MOMM*%
%LPD*%
G01*
G04 APERTURE LIST*
G04 Aperture macros list*
%AMHorizOval*
0 Thick line with rounded ends*
0 $1 width*
0 $2 $3 position (X,Y) of the first rounded end (center of the circle)*
0 $4 $5 position (X,Y) of the second rounded end (center of the circle)*
0 Add line between two ends*
20,1,$1,$2,$3,$4,$5,0*
0 Add two circle primitives to create the rounded ends*
1,1,$1,$2,$3*
1,1,$1,$4,$5*%
%AMRotRect*
0 Rectangle, with rotation*
0 The origin of the aperture is its center*
0 $1 length*
0 $2 width*
0 $3 Rotation angle, in degrees counterclockwise*
0 Add horizontal line*
21,1,$1,$2,0,0,$3*%
G04 Aperture macros list end*
%ADD10C,1.400000*%
%ADD11RotRect,1.700000X1.700000X315.000000*%
%ADD12HorizOval,1.700000X0.000000X0.000000X0.000000X0.000000X0*%
%ADD13C,3.200000*%
%ADD14C,2.200000*%
%ADD15R,1.800000X1.800000*%
%ADD16C,1.800000*%
%ADD17C,1.600000*%
%ADD18RotRect,1.700000X1.700000X225.000000*%
%ADD19HorizOval,1.700000X0.000000X0.000000X0.000000X0.000000X0*%
%ADD20R,1.150000X1.800000*%
%ADD21O,1.150000X1.800000*%
%ADD22RotRect,1.700000X1.700000X135.000000*%
%ADD23HorizOval,1.700000X0.000000X0.000000X0.000000X0.000000X0*%
%ADD24RotRect,1.700000X1.700000X45.000000*%
%ADD25HorizOval,1.700000X0.000000X0.000000X0.000000X0.000000X0*%
%ADD26R,1.727200X1.727200*%
%ADD27C,1.727200*%
%ADD28O,1.727200X1.727200*%
%ADD29O,1.600000X2.700000*%
G04 APERTURE END LIST*
G36*
X48592367Y-83482315D02*
G01*
X48596820Y-83605854D01*
X48600707Y-83798658D01*
X48604037Y-84052918D01*
X48606819Y-84360820D01*
X48609061Y-84714554D01*
X48610772Y-85106309D01*
X48611960Y-85528271D01*
X48612635Y-85972631D01*
X48612806Y-86431576D01*
X48612480Y-86897295D01*
X48611667Y-87361977D01*
X48610375Y-87817809D01*
X48608613Y-88256981D01*
X48606391Y-88671680D01*
X48603715Y-89054096D01*
X48600596Y-89396416D01*
X48597043Y-89690830D01*
X48593062Y-89929525D01*
X48588665Y-90104690D01*
X48583858Y-90208514D01*
X48579742Y-90234958D01*
X48538434Y-90207796D01*
X48445115Y-90132582D01*
X48310924Y-90018723D01*
X48146998Y-89875628D01*
X48011159Y-89754706D01*
X47670005Y-89448973D01*
X47330317Y-89145277D01*
X46998147Y-88848977D01*
X46679547Y-88565429D01*
X46380571Y-88299989D01*
X46107270Y-88058014D01*
X45865698Y-87844861D01*
X45661907Y-87665887D01*
X45501949Y-87526447D01*
X45391878Y-87431900D01*
X45337744Y-87387600D01*
X45333578Y-87384974D01*
X45293580Y-87409449D01*
X45197085Y-87485786D01*
X45050653Y-87608287D01*
X44860844Y-87771253D01*
X44634216Y-87968985D01*
X44377330Y-88195785D01*
X44096746Y-88445952D01*
X43799022Y-88713790D01*
X43679451Y-88822014D01*
X43493108Y-88990032D01*
X43286640Y-89174626D01*
X43069769Y-89367269D01*
X42852216Y-89559440D01*
X42643702Y-89742612D01*
X42453949Y-89908261D01*
X42292679Y-90047864D01*
X42169611Y-90152895D01*
X42094468Y-90214830D01*
X42076226Y-90227844D01*
X42070228Y-90188479D01*
X42064565Y-90069596D01*
X42059302Y-89877053D01*
X42054503Y-89616707D01*
X42050231Y-89294419D01*
X42046550Y-88916047D01*
X42043525Y-88487449D01*
X42041476Y-88067207D01*
X43020841Y-88067207D01*
X43454284Y-87667637D01*
X43643645Y-87492458D01*
X43839156Y-87310548D01*
X44017822Y-87143359D01*
X44156650Y-87012344D01*
X44157083Y-87011933D01*
X44342190Y-86835911D01*
X46225739Y-86835911D01*
X46469592Y-87054671D01*
X46601025Y-87172993D01*
X46772169Y-87327648D01*
X46959622Y-87497466D01*
X47118992Y-87642183D01*
X47273808Y-87780961D01*
X47406553Y-87896217D01*
X47504297Y-87976993D01*
X47554113Y-88012332D01*
X47556555Y-88013031D01*
X47564907Y-87972720D01*
X47572447Y-87857893D01*
X47578878Y-87679412D01*
X47583905Y-87448138D01*
X47587231Y-87174932D01*
X47588560Y-86870656D01*
X47588572Y-86838756D01*
X47588353Y-86491898D01*
X47587284Y-86221520D01*
X47584743Y-86018725D01*
X47580109Y-85874615D01*
X47572762Y-85780293D01*
X47562080Y-85726861D01*
X47547443Y-85705421D01*
X47528230Y-85707076D01*
X47510378Y-85718168D01*
X47454413Y-85763298D01*
X47346145Y-85855006D01*
X47197201Y-85983280D01*
X47019209Y-86138108D01*
X46828961Y-86304930D01*
X46225739Y-86835911D01*
X44342190Y-86835911D01*
X44426437Y-86755799D01*
X43755656Y-86153404D01*
X43084874Y-85551009D01*
X43058507Y-86196093D01*
X43047860Y-86493810D01*
X43038287Y-86829380D01*
X43030828Y-87161951D01*
X43026523Y-87450670D01*
X43026491Y-87454192D01*
X43020841Y-88067207D01*
X42041476Y-88067207D01*
X42041219Y-88014484D01*
X42039696Y-87503011D01*
X42039021Y-86958889D01*
X42038992Y-86818163D01*
X42039063Y-86197173D01*
X42039356Y-85656181D01*
X42039990Y-85189806D01*
X42041084Y-84792667D01*
X42042759Y-84459384D01*
X42045133Y-84184577D01*
X42048325Y-83962863D01*
X42052456Y-83788864D01*
X42057644Y-83657198D01*
X42064009Y-83562486D01*
X42071671Y-83499345D01*
X42080748Y-83462396D01*
X42091361Y-83446258D01*
X42103628Y-83445551D01*
X42113698Y-83451688D01*
X42173981Y-83501950D01*
X42282126Y-83595740D01*
X42422563Y-83719439D01*
X42572605Y-83853058D01*
X42745653Y-84007539D01*
X42917055Y-84159814D01*
X43064773Y-84290342D01*
X43151666Y-84366480D01*
X43233167Y-84438074D01*
X43368415Y-84557704D01*
X43547472Y-84716544D01*
X43760398Y-84905766D01*
X43997253Y-85116542D01*
X44248100Y-85340045D01*
X44315809Y-85400421D01*
X44558663Y-85615994D01*
X44781591Y-85811937D01*
X44976518Y-85981304D01*
X45135367Y-86117152D01*
X45250065Y-86212536D01*
X45312536Y-86260513D01*
X45321037Y-86264874D01*
X45359022Y-86237297D01*
X45454435Y-86158154D01*
X45601099Y-86032830D01*
X45792832Y-85866709D01*
X46023455Y-85665177D01*
X46286789Y-85433616D01*
X46576653Y-85177413D01*
X46886868Y-84901950D01*
X46959275Y-84837479D01*
X47272650Y-84559249D01*
X47566764Y-84299935D01*
X47835497Y-84064803D01*
X48072733Y-83859121D01*
X48272354Y-83688154D01*
X48428242Y-83557171D01*
X48534278Y-83471437D01*
X48584346Y-83436221D01*
X48587339Y-83435855D01*
X48592367Y-83482315D01*
G37*
G36*
X162972369Y-136139887D02*
G01*
X163117143Y-136161625D01*
X163118860Y-136161919D01*
X163443973Y-136250762D01*
X163710093Y-136394070D01*
X163912444Y-136588620D01*
X164021829Y-136771389D01*
X164079010Y-136905966D01*
X164118136Y-137012097D01*
X164129748Y-137059540D01*
X164169562Y-137089591D01*
X164278801Y-137105739D01*
X164345952Y-137107563D01*
X164631034Y-137144143D01*
X164872670Y-137252389D01*
X165066505Y-137430064D01*
X165120782Y-137505947D01*
X165188244Y-137616830D01*
X165229713Y-137710366D01*
X165251470Y-137813598D01*
X165259797Y-137953567D01*
X165261009Y-138109649D01*
X165257317Y-138299487D01*
X165247478Y-138471309D01*
X165233345Y-138596556D01*
X165227595Y-138624617D01*
X165212844Y-138713520D01*
X165242108Y-138763492D01*
X165334065Y-138804851D01*
X165339936Y-138806981D01*
X165494177Y-138906816D01*
X165629529Y-139088294D01*
X165746406Y-139352096D01*
X165822015Y-139603719D01*
X165889047Y-139908246D01*
X165914085Y-140155168D01*
X165894514Y-140362633D01*
X165827716Y-140548793D01*
X165711074Y-140731798D01*
X165648033Y-140810374D01*
X165601177Y-140868857D01*
X165571886Y-140923009D01*
X165558138Y-140991656D01*
X165557908Y-141093625D01*
X165569174Y-141247745D01*
X165583841Y-141407704D01*
X165604930Y-141761822D01*
X165601692Y-142092389D01*
X165575487Y-142384706D01*
X165527675Y-142624074D01*
X165459616Y-142795796D01*
X165454616Y-142804117D01*
X165350599Y-142927122D01*
X165218524Y-143029444D01*
X165196417Y-143041630D01*
X165030350Y-143119165D01*
X164842184Y-143195992D01*
X164655258Y-143263785D01*
X164492914Y-143314219D01*
X164378490Y-143338968D01*
X164359456Y-143340169D01*
X164297986Y-143348315D01*
X164267993Y-143387536D01*
X164258414Y-143480007D01*
X164257815Y-143543887D01*
X164244025Y-143697969D01*
X164190720Y-143820668D01*
X164126474Y-143906947D01*
X163875705Y-144148445D01*
X163579316Y-144318980D01*
X163235671Y-144419256D01*
X162866208Y-144450084D01*
X162514347Y-144450084D01*
X162484883Y-144584235D01*
X162402151Y-144767781D01*
X162235223Y-144947458D01*
X161983706Y-145123606D01*
X161688236Y-145277762D01*
X161505823Y-145363243D01*
X161348107Y-145438503D01*
X161233638Y-145494604D01*
X161184202Y-145520551D01*
X161017092Y-145611835D01*
X160871161Y-145664395D01*
X160700967Y-145692905D01*
X160629244Y-145699749D01*
X160410079Y-145704961D01*
X160231558Y-145675019D01*
X160160838Y-145651558D01*
X160058625Y-145604776D01*
X159972664Y-145540018D01*
X159884770Y-145439385D01*
X159776756Y-145284978D01*
X159755292Y-145252410D01*
X159638795Y-145087947D01*
X159535887Y-144967534D01*
X159458871Y-144905215D01*
X159447338Y-144900875D01*
X159352592Y-144895723D01*
X159214458Y-144909382D01*
X159131743Y-144924378D01*
X158825873Y-144959139D01*
X158563959Y-144921490D01*
X158342750Y-144810160D01*
X158158997Y-144623882D01*
X158088644Y-144516945D01*
X157979418Y-144330565D01*
X157265928Y-144315395D01*
X157002190Y-144309257D01*
X156806681Y-144302020D01*
X156662263Y-144291088D01*
X156551799Y-144273866D01*
X156458154Y-144247760D01*
X156364189Y-144210172D01*
X156263450Y-144163561D01*
X155844151Y-143921593D01*
X155487693Y-143622303D01*
X155195047Y-143266624D01*
X155020386Y-142968157D01*
X154935297Y-142809683D01*
X154828341Y-142625960D01*
X154743746Y-142489865D01*
X154635927Y-142291977D01*
X154598468Y-142139100D01*
X154631112Y-142028264D01*
X154698487Y-141972500D01*
X154769409Y-141953250D01*
X154906337Y-141931009D01*
X155090089Y-141908430D01*
X155301480Y-141888163D01*
X155319080Y-141886716D01*
X155559659Y-141866326D01*
X155727885Y-141848862D01*
X155836588Y-141831417D01*
X155898594Y-141811087D01*
X155926730Y-141784966D01*
X155933824Y-141750150D01*
X155933863Y-141747481D01*
X155960610Y-141639578D01*
X156031701Y-141487404D01*
X156135359Y-141311028D01*
X156259804Y-141130519D01*
X156391131Y-140968332D01*
X156520719Y-140828360D01*
X156625878Y-140735711D01*
X156735695Y-140671185D01*
X156879255Y-140615580D01*
X156970526Y-140585837D01*
X157187013Y-140528924D01*
X157435272Y-140481091D01*
X157661704Y-140452657D01*
X157662533Y-140452593D01*
X158021829Y-140424976D01*
X158046921Y-140228370D01*
X158151735Y-139734640D01*
X158335739Y-139250542D01*
X158592757Y-138787048D01*
X158916610Y-138355132D01*
X159301121Y-137965767D01*
X159339493Y-137932324D01*
X159527485Y-137796245D01*
X159770053Y-137658165D01*
X160046206Y-137526597D01*
X160334952Y-137410054D01*
X160615303Y-137317050D01*
X160866266Y-137256096D01*
X161057325Y-137235631D01*
X161255944Y-137235631D01*
X161312504Y-136999862D01*
X161350188Y-136870250D01*
X161402000Y-136768477D01*
X161485578Y-136668698D01*
X161618560Y-136545066D01*
X161629331Y-136535591D01*
X161748458Y-136433921D01*
X161846552Y-136363227D01*
X161947164Y-136312846D01*
X162073842Y-136272120D01*
X162250135Y-136230386D01*
X162352055Y-136208409D01*
X162565851Y-136164773D01*
X162722991Y-136139869D01*
X162849741Y-136132105D01*
X162972369Y-136139887D01*
G37*
G36*
X113799328Y-96973298D02*
G01*
X114231030Y-96977881D01*
X114593455Y-96984594D01*
X114902705Y-96995180D01*
X115174882Y-97011385D01*
X115426085Y-97034951D01*
X115672417Y-97067624D01*
X115929978Y-97111147D01*
X116214870Y-97167264D01*
X116543193Y-97237719D01*
X116830252Y-97301610D01*
X117051602Y-97349205D01*
X117322716Y-97404409D01*
X117609215Y-97460368D01*
X117876135Y-97510123D01*
X118156619Y-97564826D01*
X118468109Y-97632063D01*
X118771056Y-97702971D01*
X119007395Y-97763605D01*
X119274776Y-97834606D01*
X119575372Y-97911401D01*
X119866787Y-97983291D01*
X120047271Y-98026043D01*
X120553533Y-98142954D01*
X120794330Y-98473904D01*
X120924124Y-98644113D01*
X121036336Y-98765248D01*
X121157691Y-98861213D01*
X121314916Y-98955916D01*
X121362010Y-98981683D01*
X121626343Y-99152783D01*
X121813218Y-99342528D01*
X121930174Y-99561493D01*
X121984747Y-99820253D01*
X121987796Y-99859587D01*
X121991792Y-100022064D01*
X121972720Y-100140421D01*
X121921798Y-100254712D01*
X121888742Y-100311230D01*
X121837746Y-100385541D01*
X121773140Y-100455891D01*
X121683197Y-100530958D01*
X121556189Y-100619420D01*
X121380390Y-100729955D01*
X121144072Y-100871241D01*
X121084908Y-100906071D01*
X120823439Y-101057755D01*
X120613849Y-101173199D01*
X120435767Y-101261653D01*
X120268820Y-101332367D01*
X120092638Y-101394590D01*
X119886849Y-101457572D01*
X119840818Y-101470937D01*
X119284874Y-101631412D01*
X118431093Y-101588068D01*
X117927599Y-101560323D01*
X117358218Y-101525071D01*
X116741985Y-101483589D01*
X116097937Y-101437153D01*
X115517563Y-101392755D01*
X115335519Y-101381650D01*
X115225107Y-101383896D01*
X115173489Y-101400439D01*
X115165378Y-101418714D01*
X115144409Y-101480206D01*
X115089417Y-101589996D01*
X115012277Y-101724393D01*
X115011747Y-101725266D01*
X114855888Y-102053176D01*
X114767373Y-102417526D01*
X114742832Y-102791497D01*
X114737403Y-102966102D01*
X114721823Y-103192524D01*
X114698669Y-103438155D01*
X114677543Y-103617984D01*
X114649708Y-103893850D01*
X114628520Y-104231190D01*
X114615151Y-104606275D01*
X114610762Y-104969824D01*
X114610420Y-105809396D01*
X114394874Y-105855623D01*
X114270750Y-105871721D01*
X114080333Y-105883677D01*
X113842611Y-105891443D01*
X113576570Y-105894971D01*
X113301199Y-105894214D01*
X113035483Y-105889125D01*
X112798411Y-105879656D01*
X112608970Y-105865759D01*
X112560290Y-105860212D01*
X112362658Y-105824692D01*
X112220340Y-105769070D01*
X112103444Y-105678653D01*
X112032336Y-105600713D01*
X111975333Y-105523826D01*
X111941840Y-105444285D01*
X111925790Y-105336410D01*
X111921114Y-105174521D01*
X111921009Y-105129591D01*
X111915076Y-104958461D01*
X111899378Y-104813605D01*
X111877063Y-104721996D01*
X111872348Y-104712856D01*
X111847156Y-104611900D01*
X111867790Y-104556130D01*
X111885810Y-104479577D01*
X111845735Y-104389283D01*
X111823949Y-104358372D01*
X111769192Y-104269192D01*
X111759076Y-104186424D01*
X111785818Y-104073162D01*
X111816145Y-103921956D01*
X111831779Y-103738922D01*
X111832563Y-103553218D01*
X111818343Y-103393999D01*
X111789979Y-103292280D01*
X111767195Y-103199880D01*
X111792661Y-103148742D01*
X111817351Y-103081187D01*
X111786464Y-102983609D01*
X111779717Y-102970042D01*
X111727162Y-102820692D01*
X111693339Y-102634697D01*
X111681749Y-102446841D01*
X111695896Y-102291909D01*
X111707440Y-102252256D01*
X111728492Y-102134769D01*
X111712664Y-102021778D01*
X111668787Y-101937661D01*
X111605691Y-101906793D01*
X111584067Y-101911666D01*
X111424790Y-101948483D01*
X111203758Y-101963339D01*
X110941646Y-101956531D01*
X110659126Y-101928354D01*
X110457488Y-101895539D01*
X110242906Y-101861752D01*
X109971074Y-101830090D01*
X109657394Y-101801325D01*
X109317272Y-101776229D01*
X108966108Y-101755573D01*
X108619307Y-101740129D01*
X108292272Y-101730669D01*
X108000407Y-101727964D01*
X107759113Y-101732786D01*
X107583795Y-101745907D01*
X107554772Y-101750122D01*
X107418876Y-101769745D01*
X107307234Y-101774689D01*
X107193483Y-101762019D01*
X107051259Y-101728798D01*
X106854310Y-101672123D01*
X106626839Y-101611026D01*
X106381275Y-101555560D01*
X106159242Y-101514820D01*
X106089932Y-101505119D01*
X105795651Y-101447044D01*
X105486415Y-101340484D01*
X105148503Y-101179825D01*
X104791000Y-100973561D01*
X104641937Y-100885391D01*
X104516631Y-100818093D01*
X104435343Y-100782295D01*
X104420367Y-100779160D01*
X104387151Y-100740334D01*
X104369204Y-100636530D01*
X104366468Y-100486764D01*
X104378886Y-100310049D01*
X104406400Y-100125400D01*
X104422580Y-100049476D01*
X104527729Y-99754080D01*
X104702962Y-99444262D01*
X104938053Y-99134575D01*
X105222774Y-98839571D01*
X105353915Y-98724203D01*
X105466954Y-98638578D01*
X105586994Y-98571198D01*
X105737263Y-98511731D01*
X105940991Y-98449847D01*
X106018502Y-98428591D01*
X106468164Y-98276663D01*
X106929932Y-98064885D01*
X107374505Y-97808070D01*
X107700349Y-97578396D01*
X108032895Y-97320627D01*
X108513471Y-97250561D01*
X108683836Y-97226941D01*
X108829648Y-97211106D01*
X108968739Y-97203112D01*
X109118942Y-97203013D01*
X109298090Y-97210864D01*
X109524016Y-97226720D01*
X109814553Y-97250637D01*
X109862372Y-97254714D01*
X110730697Y-97328933D01*
X111059046Y-97201911D01*
X111233931Y-97141070D01*
X111421280Y-97090896D01*
X111630305Y-97050621D01*
X111870219Y-97019476D01*
X112150235Y-96996692D01*
X112479564Y-96981502D01*
X112867420Y-96973137D01*
X113323014Y-96970827D01*
X113799328Y-96973298D01*
G37*
G36*
X60338374Y-136291025D02*
G01*
X60642344Y-136383896D01*
X60720458Y-136412709D01*
X60928254Y-136495538D01*
X61083948Y-136571964D01*
X61217151Y-136660338D01*
X61357472Y-136779012D01*
X61448616Y-136864045D01*
X61600422Y-137013692D01*
X61703201Y-137133005D01*
X61773782Y-137245987D01*
X61828994Y-137376639D01*
X61849325Y-137435552D01*
X61902445Y-137619870D01*
X61923436Y-137778643D01*
X61917626Y-137960299D01*
X61912824Y-138012800D01*
X61883445Y-138310952D01*
X62003823Y-138287793D01*
X62104160Y-138273290D01*
X62258894Y-138256203D01*
X62437252Y-138239879D01*
X62465715Y-138237578D01*
X62637519Y-138225694D01*
X62747125Y-138226117D01*
X62817315Y-138242929D01*
X62870871Y-138280211D01*
X62906850Y-138316605D01*
X63006473Y-138422689D01*
X62578662Y-138778992D01*
X62150851Y-139135295D01*
X62312204Y-139435552D01*
X62380339Y-139566610D01*
X62427355Y-139675524D01*
X62458523Y-139785038D01*
X62479114Y-139917898D01*
X62494402Y-140096847D01*
X62505142Y-140267989D01*
X62520243Y-140504963D01*
X62537075Y-140741226D01*
X62553437Y-140947220D01*
X62565455Y-141077647D01*
X62594183Y-141355126D01*
X62742695Y-141109664D01*
X62820968Y-140985925D01*
X62883261Y-140897723D01*
X62916020Y-140864202D01*
X62942396Y-140900095D01*
X63003490Y-141001025D01*
X63093517Y-141156871D01*
X63206690Y-141357511D01*
X63337226Y-141592823D01*
X63446703Y-141792690D01*
X63586269Y-142048633D01*
X63711965Y-142278724D01*
X63818148Y-142472663D01*
X63899172Y-142620151D01*
X63949392Y-142710890D01*
X63963524Y-142735613D01*
X64002964Y-142724214D01*
X64092339Y-142679402D01*
X64165896Y-142637868D01*
X64357319Y-142525687D01*
X64655349Y-143028978D01*
X64771570Y-143220574D01*
X64879648Y-143390307D01*
X64968882Y-143521940D01*
X65028569Y-143599237D01*
X65036443Y-143607132D01*
X65088759Y-143647595D01*
X65142655Y-143659687D01*
X65224827Y-143642838D01*
X65350762Y-143600438D01*
X65517652Y-143533129D01*
X65708428Y-143444007D01*
X65838152Y-143376164D01*
X66094286Y-143233446D01*
X66781800Y-143234353D01*
X67039636Y-143235235D01*
X67227518Y-143238438D01*
X67360870Y-143245977D01*
X67455117Y-143259868D01*
X67525682Y-143282126D01*
X67587989Y-143314768D01*
X67636770Y-143346078D01*
X67827447Y-143493369D01*
X68039023Y-143691156D01*
X68249146Y-143916324D01*
X68435462Y-144145758D01*
X68506219Y-144245180D01*
X68613214Y-144394886D01*
X68691606Y-144480507D01*
X68753027Y-144513261D01*
X68783698Y-144512824D01*
X68859539Y-144501656D01*
X68999089Y-144484539D01*
X69181098Y-144463981D01*
X69346578Y-144446372D01*
X69824079Y-144396941D01*
X70561294Y-143955568D01*
X70785594Y-143822492D01*
X70983999Y-143707094D01*
X71145317Y-143615690D01*
X71258356Y-143554602D01*
X71311925Y-143530147D01*
X71314566Y-143530253D01*
X71302049Y-143571851D01*
X71255846Y-143672424D01*
X71183553Y-143816213D01*
X71105966Y-143963049D01*
X71022030Y-144126018D01*
X70963366Y-144254580D01*
X70935696Y-144335033D01*
X70942419Y-144354825D01*
X71005624Y-144327534D01*
X71126954Y-144274002D01*
X71286653Y-144202974D01*
X71403316Y-144150830D01*
X71615378Y-144061136D01*
X71768590Y-144009894D01*
X71877955Y-143992714D01*
X71929181Y-143997013D01*
X71980848Y-144000536D01*
X72041706Y-143986760D01*
X72122430Y-143949546D01*
X72233695Y-143882755D01*
X72386175Y-143780247D01*
X72590543Y-143635883D01*
X72724689Y-143539477D01*
X72942102Y-143383239D01*
X73143913Y-143239226D01*
X73316753Y-143116901D01*
X73447251Y-143025725D01*
X73522037Y-142975161D01*
X73522185Y-142975067D01*
X73605109Y-142923523D01*
X73627054Y-142918142D01*
X73598872Y-142958936D01*
X73586219Y-142975134D01*
X73539475Y-143030501D01*
X73445214Y-143138811D01*
X73312841Y-143289376D01*
X73151765Y-143471507D01*
X72971393Y-143674518D01*
X72910550Y-143742800D01*
X72709054Y-143969927D01*
X72559671Y-144141814D01*
X72456783Y-144266116D01*
X72394769Y-144350492D01*
X72368008Y-144402598D01*
X72370881Y-144430091D01*
X72397766Y-144440628D01*
X72398281Y-144440691D01*
X72534023Y-144458064D01*
X72617490Y-144478351D01*
X72646903Y-144512000D01*
X72620478Y-144569457D01*
X72536434Y-144661169D01*
X72392990Y-144797583D01*
X72326891Y-144859250D01*
X71942689Y-145217748D01*
X72047034Y-145299264D01*
X72151379Y-145380780D01*
X72034190Y-145534424D01*
X71917000Y-145688068D01*
X72057912Y-145685030D01*
X72170137Y-145679625D01*
X72333592Y-145668238D01*
X72514539Y-145653242D01*
X72529664Y-145651875D01*
X72685148Y-145639984D01*
X72801395Y-145635406D01*
X72858040Y-145638815D01*
X72860505Y-145640928D01*
X72834515Y-145679978D01*
X72765774Y-145765792D01*
X72668121Y-145881206D01*
X72648504Y-145903842D01*
X72436504Y-146147584D01*
X72701865Y-146131021D01*
X72861031Y-146122123D01*
X73078052Y-146111462D01*
X73338291Y-146099619D01*
X73627106Y-146087174D01*
X73929857Y-146074707D01*
X74231904Y-146062798D01*
X74518607Y-146052028D01*
X74775327Y-146042975D01*
X74987422Y-146036222D01*
X75140253Y-146032346D01*
X75208766Y-146031693D01*
X75400505Y-146033806D01*
X75084187Y-146195749D01*
X74767870Y-146357692D01*
X74908095Y-146385737D01*
X75026201Y-146401222D01*
X75190114Y-146412888D01*
X75331135Y-146417522D01*
X75520924Y-146424499D01*
X75714026Y-146438577D01*
X75827395Y-146451303D01*
X75901316Y-146462606D01*
X75942302Y-146473986D01*
X75942319Y-146488687D01*
X75893336Y-146509954D01*
X75787319Y-146541029D01*
X75616236Y-146585157D01*
X75372054Y-146645582D01*
X75306293Y-146661736D01*
X75002000Y-146739229D01*
X74765591Y-146806580D01*
X74581003Y-146869229D01*
X74432178Y-146932618D01*
X74305171Y-147000924D01*
X74038597Y-147159722D01*
X74349666Y-147219543D01*
X74513303Y-147256424D01*
X74599093Y-147288719D01*
X74603729Y-147314870D01*
X74544252Y-147341402D01*
X74420509Y-147389632D01*
X74248930Y-147453372D01*
X74045946Y-147526435D01*
X73981093Y-147549349D01*
X73777742Y-147623056D01*
X73606829Y-147689149D01*
X73482826Y-147741710D01*
X73420203Y-147774821D01*
X73415462Y-147780670D01*
X73452806Y-147808679D01*
X73545134Y-147836912D01*
X73570435Y-147842093D01*
X73660911Y-147868943D01*
X73692255Y-147899547D01*
X73687830Y-147907150D01*
X73636347Y-147937277D01*
X73522701Y-147993727D01*
X73363019Y-148068766D01*
X73173431Y-148154662D01*
X73148094Y-148165928D01*
X72939208Y-148260619D01*
X72799511Y-148329853D01*
X72718936Y-148379916D01*
X72687412Y-148417095D01*
X72694872Y-148447674D01*
X72695521Y-148448468D01*
X72720370Y-148510720D01*
X72680637Y-148560242D01*
X72630141Y-148599304D01*
X72521320Y-148682366D01*
X72363984Y-148801980D01*
X72167941Y-148950695D01*
X71943002Y-149121063D01*
X71726773Y-149284622D01*
X71456492Y-149488474D01*
X71244589Y-149646373D01*
X71081582Y-149764174D01*
X70957985Y-149847732D01*
X70864314Y-149902903D01*
X70791085Y-149935540D01*
X70728814Y-149951499D01*
X70668016Y-149956635D01*
X70637638Y-149956975D01*
X70485345Y-149962482D01*
X70346820Y-149976248D01*
X70313034Y-149981948D01*
X70236015Y-149988189D01*
X70171421Y-149961142D01*
X70096564Y-149886632D01*
X70031802Y-149806219D01*
X69922361Y-149633779D01*
X69833626Y-149437841D01*
X69810248Y-149365027D01*
X69688754Y-149020924D01*
X69509578Y-148679705D01*
X69268127Y-148335619D01*
X68959808Y-147982914D01*
X68580027Y-147615839D01*
X68124193Y-147228642D01*
X68068690Y-147184160D01*
X67667291Y-146872911D01*
X67312738Y-146618151D01*
X66994012Y-146413589D01*
X66700097Y-146252933D01*
X66419976Y-146129890D01*
X66142632Y-146038170D01*
X65997012Y-146001034D01*
X65801619Y-145957760D01*
X65647090Y-145931123D01*
X65505056Y-145919392D01*
X65347148Y-145920837D01*
X65144996Y-145933726D01*
X65036508Y-145942429D01*
X64819618Y-145964605D01*
X64544530Y-145999191D01*
X64236913Y-146042600D01*
X63922435Y-146091246D01*
X63682353Y-146131664D01*
X63384205Y-146185185D01*
X63152515Y-146230534D01*
X62969378Y-146272665D01*
X62816888Y-146316531D01*
X62677141Y-146367088D01*
X62532231Y-146429288D01*
X62423026Y-146480090D01*
X62207972Y-146590384D01*
X61958658Y-146731284D01*
X61709550Y-146882737D01*
X61537944Y-146995036D01*
X61079753Y-147307781D01*
X60741392Y-146850109D01*
X60544408Y-146601452D01*
X60317758Y-146343414D01*
X60092239Y-146110418D01*
X60010047Y-146032675D01*
X59855696Y-145886595D01*
X59685142Y-145717287D01*
X59508810Y-145536037D01*
X59337128Y-145354129D01*
X59180521Y-145182849D01*
X59049414Y-145033481D01*
X58954235Y-144917311D01*
X58905409Y-144845623D01*
X58901177Y-144832452D01*
X58939583Y-144809291D01*
X59037713Y-144790151D01*
X59113247Y-144783156D01*
X59325316Y-144770253D01*
X58942490Y-144305701D01*
X58805096Y-144137995D01*
X58689557Y-143995099D01*
X58605615Y-143889206D01*
X58563009Y-143832505D01*
X58559664Y-143826516D01*
X58596010Y-143823598D01*
X58683851Y-143836727D01*
X58687731Y-143837496D01*
X58776699Y-143847232D01*
X58815722Y-143835548D01*
X58815799Y-143834575D01*
X58789584Y-143792992D01*
X58718097Y-143700419D01*
X58612074Y-143570303D01*
X58482251Y-143416094D01*
X58474286Y-143406774D01*
X58343475Y-143251865D01*
X58235821Y-143120616D01*
X58162046Y-143026370D01*
X58132871Y-142982472D01*
X58132773Y-142981738D01*
X58169998Y-142963804D01*
X58259975Y-142955979D01*
X58264050Y-142955967D01*
X58395327Y-142955967D01*
X58071949Y-142587079D01*
X57943920Y-142438301D01*
X57839845Y-142312163D01*
X57771027Y-142222719D01*
X57748572Y-142184973D01*
X57784450Y-142171820D01*
X57872322Y-142183263D01*
X57887311Y-142186861D01*
X58070630Y-142232507D01*
X58177714Y-142252211D01*
X58211578Y-142238974D01*
X58175234Y-142185799D01*
X58071696Y-142085687D01*
X57970777Y-141993033D01*
X57840876Y-141871237D01*
X57740741Y-141772115D01*
X57683103Y-141708583D01*
X57674498Y-141692449D01*
X57719182Y-141698008D01*
X57818617Y-141728207D01*
X57911658Y-141761686D01*
X58042540Y-141808485D01*
X58143014Y-141839120D01*
X58179318Y-141846051D01*
X58203224Y-141807026D01*
X58205390Y-141688640D01*
X58195189Y-141568177D01*
X58187053Y-141332548D01*
X58226045Y-141142956D01*
X58320933Y-140969164D01*
X58396655Y-140873389D01*
X58492180Y-140731008D01*
X58529225Y-140582502D01*
X58508656Y-140408610D01*
X58431336Y-140190071D01*
X58427680Y-140181534D01*
X58354258Y-140041032D01*
X58269578Y-139956095D01*
X58179886Y-139910449D01*
X58052757Y-139831340D01*
X57931623Y-139710140D01*
X57837797Y-139573369D01*
X57792594Y-139447548D01*
X57791261Y-139426908D01*
X57765590Y-139331664D01*
X57705411Y-139229769D01*
X57647384Y-139123756D01*
X57595658Y-138975902D01*
X57576039Y-138893172D01*
X57556716Y-138739372D01*
X57561583Y-138583123D01*
X57594203Y-138408131D01*
X57658135Y-138198103D01*
X57756940Y-137936745D01*
X57817115Y-137789916D01*
X57901740Y-137592936D01*
X57975198Y-137444996D01*
X58053884Y-137322153D01*
X58154192Y-137200463D01*
X58292517Y-137055982D01*
X58378017Y-136970726D01*
X58541371Y-136811466D01*
X58668836Y-136698077D01*
X58783871Y-136615052D01*
X58909934Y-136546882D01*
X59070486Y-136478061D01*
X59200000Y-136427350D01*
X59523527Y-136316610D01*
X59804245Y-136257138D01*
X60067434Y-136248691D01*
X60338374Y-136291025D01*
G37*
G36*
X179348404Y-81820912D02*
G01*
X179824454Y-81867493D01*
X180286586Y-81997983D01*
X180693110Y-82188238D01*
X180803584Y-82250116D01*
X180933245Y-82322847D01*
X180949244Y-82331830D01*
X181063068Y-82405524D01*
X181205300Y-82510743D01*
X181316405Y-82600721D01*
X181465974Y-82727014D01*
X181622401Y-82857910D01*
X181715544Y-82935126D01*
X181837922Y-83053705D01*
X181943111Y-83185478D01*
X181978788Y-83244375D01*
X182039877Y-83340819D01*
X182095117Y-83391406D01*
X182109773Y-83393787D01*
X182165380Y-83418672D01*
X182205082Y-83471362D01*
X182255990Y-83540853D01*
X182351339Y-83649256D01*
X182473498Y-83776863D01*
X182518068Y-83821182D01*
X182638899Y-83948050D01*
X182731438Y-84060991D01*
X182781162Y-84141621D01*
X182785812Y-84160073D01*
X182803589Y-84243196D01*
X182847580Y-84365925D01*
X182874950Y-84429244D01*
X182986911Y-84691941D01*
X183077074Y-84941011D01*
X183139424Y-85157571D01*
X183167942Y-85322739D01*
X183169083Y-85352224D01*
X183177312Y-85476259D01*
X183198986Y-85648530D01*
X183229599Y-85833800D01*
X183232936Y-85851464D01*
X183275087Y-86226033D01*
X183271799Y-86668809D01*
X183223131Y-87175758D01*
X183211745Y-87258312D01*
X183148976Y-87549450D01*
X183043087Y-87806779D01*
X183016698Y-87855959D01*
X182932137Y-88011396D01*
X182856086Y-88156474D01*
X182808118Y-88253315D01*
X182745873Y-88361831D01*
X182681206Y-88439479D01*
X182680618Y-88439970D01*
X182625146Y-88510292D01*
X182614118Y-88549102D01*
X182591693Y-88609324D01*
X182532699Y-88716945D01*
X182449556Y-88849443D01*
X182443362Y-88858754D01*
X182359287Y-88990240D01*
X182298319Y-89096234D01*
X182272753Y-89155245D01*
X182272605Y-89157251D01*
X182240143Y-89204808D01*
X182155925Y-89283580D01*
X182039708Y-89378137D01*
X181911248Y-89473047D01*
X181790298Y-89552882D01*
X181710417Y-89596349D01*
X181610165Y-89669457D01*
X181498538Y-89790272D01*
X181399170Y-89928631D01*
X181335696Y-90054371D01*
X181327103Y-90085547D01*
X181286242Y-90151332D01*
X181186231Y-90173514D01*
X181180445Y-90173665D01*
X181048070Y-90200160D01*
X180947613Y-90248371D01*
X180832029Y-90298861D01*
X180696481Y-90320363D01*
X180694283Y-90320371D01*
X180542761Y-90338050D01*
X180380492Y-90383999D01*
X180233287Y-90447685D01*
X180126959Y-90518571D01*
X180090720Y-90566706D01*
X180039415Y-90656834D01*
X179984006Y-90686352D01*
X179942660Y-90647063D01*
X179873642Y-90583294D01*
X179721698Y-90533557D01*
X179568670Y-90507616D01*
X179311068Y-90444528D01*
X178999863Y-90315217D01*
X178686723Y-90149554D01*
X178257528Y-89945928D01*
X177947534Y-89847803D01*
X177758175Y-89793214D01*
X177582857Y-89730287D01*
X177451410Y-89670109D01*
X177422697Y-89652711D01*
X177320573Y-89589723D01*
X177245523Y-89554574D01*
X177232059Y-89551933D01*
X177181781Y-89517863D01*
X177165354Y-89487900D01*
X177107138Y-89433908D01*
X177059971Y-89423866D01*
X177025744Y-89429959D01*
X177002804Y-89457640D01*
X176988918Y-89521007D01*
X176981853Y-89634161D01*
X176979376Y-89811202D01*
X176979160Y-89934126D01*
X176971931Y-90218321D01*
X176951064Y-90435857D01*
X176917791Y-90582908D01*
X176873343Y-90655646D01*
X176818949Y-90650243D01*
X176769134Y-90587143D01*
X176734729Y-90540810D01*
X176722778Y-90570078D01*
X176722398Y-90576471D01*
X176703059Y-90658806D01*
X176661005Y-90767542D01*
X176660534Y-90768572D01*
X176601893Y-90896639D01*
X176598425Y-90718702D01*
X176590222Y-90589457D01*
X176574153Y-90489683D01*
X176569141Y-90473485D01*
X176531336Y-90424558D01*
X176493931Y-90447845D01*
X176468265Y-90530886D01*
X176463409Y-90589663D01*
X176459926Y-90725883D01*
X176391928Y-90576471D01*
X176346930Y-90487739D01*
X176321534Y-90471743D01*
X176307533Y-90512437D01*
X176283122Y-90616451D01*
X176269994Y-90660653D01*
X176241054Y-90698987D01*
X176210873Y-90667558D01*
X176185358Y-90581683D01*
X176170417Y-90456677D01*
X176168721Y-90398092D01*
X176153474Y-90247904D01*
X176113732Y-90145800D01*
X176104034Y-90134334D01*
X176060818Y-90050086D01*
X176040272Y-89929316D01*
X176040000Y-89914709D01*
X176031969Y-89811067D01*
X176001110Y-89772642D01*
X175965294Y-89773289D01*
X175911632Y-89811580D01*
X175883181Y-89911311D01*
X175877462Y-89968520D01*
X175853067Y-90098944D01*
X175811979Y-90154766D01*
X175765418Y-90142071D01*
X175724606Y-90066942D01*
X175700764Y-89935462D01*
X175698488Y-89871487D01*
X175678722Y-89753475D01*
X175668177Y-89744034D01*
X175783866Y-89744034D01*
X175805210Y-89765379D01*
X175826555Y-89744034D01*
X175805210Y-89722690D01*
X175783866Y-89744034D01*
X175668177Y-89744034D01*
X175623782Y-89704286D01*
X175540781Y-89638719D01*
X175483511Y-89524837D01*
X175468466Y-89399199D01*
X175473179Y-89370478D01*
X175495997Y-89274454D01*
X175399643Y-89366517D01*
X175347450Y-89428980D01*
X175318050Y-89507626D01*
X175305326Y-89627456D01*
X175303046Y-89761391D01*
X175300631Y-89909782D01*
X175294494Y-90017744D01*
X175285914Y-90063823D01*
X175285022Y-90064202D01*
X175252759Y-90027285D01*
X175211874Y-89935600D01*
X175172170Y-89817742D01*
X175143450Y-89702311D01*
X175135016Y-89626639D01*
X175123671Y-89541514D01*
X175095095Y-89509244D01*
X175073524Y-89469467D01*
X175059921Y-89361377D01*
X175056584Y-89210421D01*
X175271597Y-89210421D01*
X175287216Y-89245559D01*
X175300056Y-89238880D01*
X175305165Y-89188218D01*
X175300056Y-89181961D01*
X175274678Y-89187821D01*
X175271597Y-89210421D01*
X175056584Y-89210421D01*
X175056394Y-89201842D01*
X175056421Y-89199748D01*
X175056472Y-89061009D01*
X175186219Y-89061009D01*
X175207563Y-89082353D01*
X175228908Y-89061009D01*
X175207563Y-89039664D01*
X175186219Y-89061009D01*
X175056472Y-89061009D01*
X175056500Y-88984387D01*
X175048325Y-88835854D01*
X175029285Y-88735785D01*
X174996766Y-88665817D01*
X174976605Y-88638735D01*
X174945991Y-88566893D01*
X174913620Y-88435036D01*
X174885316Y-88268189D01*
X174878954Y-88218955D01*
X174854414Y-88049335D01*
X174826616Y-87910118D01*
X174800551Y-87825086D01*
X174793925Y-87813830D01*
X174772747Y-87739457D01*
X174775740Y-87621022D01*
X174779715Y-87593905D01*
X174788219Y-87519225D01*
X174787226Y-87434429D01*
X174774471Y-87326457D01*
X174747690Y-87182251D01*
X174704618Y-86988752D01*
X174642991Y-86732901D01*
X174601071Y-86563698D01*
X174564919Y-86384194D01*
X174532337Y-86162390D01*
X174509483Y-85941327D01*
X174506886Y-85905080D01*
X174481849Y-85523941D01*
X174247717Y-85471374D01*
X174063571Y-85442622D01*
X173947462Y-85455169D01*
X173934565Y-85461098D01*
X173854233Y-85487437D01*
X173833030Y-85453714D01*
X173868004Y-85376027D01*
X173890555Y-85276593D01*
X173843924Y-85194838D01*
X173744006Y-85155635D01*
X173726757Y-85154958D01*
X173621000Y-85134821D01*
X173556534Y-85108255D01*
X173505793Y-85075140D01*
X173510246Y-85043844D01*
X173577969Y-84994988D01*
X173612702Y-84973475D01*
X173754036Y-84900152D01*
X173909676Y-84837496D01*
X173926891Y-84831900D01*
X174080915Y-84779587D01*
X174231617Y-84722453D01*
X174247059Y-84716098D01*
X174352215Y-84687434D01*
X174517114Y-84659641D01*
X174716172Y-84636508D01*
X174860682Y-84625208D01*
X175096107Y-84604557D01*
X175341969Y-84572915D01*
X175560273Y-84535555D01*
X175650430Y-84515583D01*
X175889331Y-84456167D01*
X176065725Y-84413199D01*
X176200019Y-84382767D01*
X176312623Y-84360960D01*
X176423943Y-84343867D01*
X176554388Y-84327574D01*
X176724366Y-84308172D01*
X176744370Y-84305905D01*
X176958146Y-84275340D01*
X177177583Y-84233714D01*
X177361667Y-84189006D01*
X177392465Y-84179826D01*
X177585304Y-84134643D01*
X177754018Y-84122974D01*
X177880675Y-84144065D01*
X177947344Y-84197162D01*
X177949717Y-84203267D01*
X177925185Y-84250009D01*
X177844933Y-84323076D01*
X177739463Y-84397876D01*
X177609512Y-84486366D01*
X177503746Y-84567630D01*
X177454279Y-84614165D01*
X177426653Y-84656045D01*
X177446846Y-84671855D01*
X177529730Y-84666423D01*
X177590647Y-84658444D01*
X177747334Y-84647154D01*
X177855762Y-84659544D01*
X177903442Y-84692357D01*
X177885513Y-84735261D01*
X177860437Y-84798654D01*
X177898831Y-84850999D01*
X177978857Y-84877816D01*
X178078676Y-84864622D01*
X178079910Y-84864160D01*
X178267312Y-84803766D01*
X178389337Y-84790006D01*
X178451819Y-84822411D01*
X178457438Y-84833742D01*
X178503571Y-84890981D01*
X178528401Y-84898824D01*
X178612551Y-84920614D01*
X178738876Y-84976203D01*
X178879266Y-85050923D01*
X179005611Y-85130102D01*
X179074471Y-85183799D01*
X179205659Y-85263337D01*
X179309261Y-85281740D01*
X179578564Y-85278513D01*
X179766072Y-85286962D01*
X179874593Y-85307266D01*
X179896941Y-85319087D01*
X179969930Y-85354916D01*
X180082528Y-85389722D01*
X180095462Y-85392789D01*
X180244874Y-85427033D01*
X180031429Y-85460705D01*
X179824196Y-85477542D01*
X179649208Y-85461552D01*
X179526931Y-85415458D01*
X179497767Y-85389690D01*
X179433261Y-85357922D01*
X179351285Y-85360915D01*
X179292465Y-85393472D01*
X179284370Y-85416987D01*
X179308392Y-85454267D01*
X179386816Y-85494648D01*
X179529179Y-85541819D01*
X179745017Y-85599474D01*
X179775294Y-85607021D01*
X180000030Y-85674418D01*
X180144754Y-85746591D01*
X180214820Y-85826698D01*
X180223530Y-85871444D01*
X180207507Y-85907415D01*
X180147039Y-85918540D01*
X180023527Y-85907798D01*
X180008635Y-85905854D01*
X179772910Y-85892314D01*
X179599201Y-85921076D01*
X179493426Y-85990846D01*
X179474497Y-86022515D01*
X179450395Y-86068549D01*
X179415958Y-86094197D01*
X179352952Y-86101329D01*
X179243144Y-86091812D01*
X179068299Y-86067516D01*
X179054731Y-86065540D01*
X178884988Y-86062647D01*
X178686673Y-86103252D01*
X178444968Y-86191164D01*
X178281177Y-86264335D01*
X178154301Y-86330401D01*
X178087462Y-86379600D01*
X178089076Y-86404269D01*
X178175213Y-86430559D01*
X178281177Y-86462681D01*
X178390905Y-86526577D01*
X178423023Y-86597625D01*
X178478466Y-86705872D01*
X178598532Y-86792628D01*
X178729412Y-86836219D01*
X178845685Y-86863854D01*
X178980202Y-86901346D01*
X178985547Y-86902963D01*
X179114505Y-86924207D01*
X179302027Y-86924954D01*
X179560165Y-86905240D01*
X179565838Y-86904667D01*
X179914777Y-86883101D01*
X180211830Y-86893043D01*
X180281439Y-86901297D01*
X180447951Y-86917222D01*
X180597520Y-86918463D01*
X180686852Y-86907005D01*
X180781729Y-86873360D01*
X180884688Y-86827903D01*
X180973052Y-86782202D01*
X181024144Y-86747824D01*
X181021777Y-86736163D01*
X181022989Y-86705457D01*
X181066845Y-86630450D01*
X181091809Y-86595715D01*
X181170113Y-86463607D01*
X181223964Y-86323761D01*
X181227650Y-86308173D01*
X181263254Y-86195794D01*
X181307905Y-86120237D01*
X181312490Y-86116073D01*
X181384540Y-86011088D01*
X181443386Y-85827222D01*
X181487808Y-85570127D01*
X181516583Y-85245454D01*
X181521425Y-85148942D01*
X181528286Y-84831835D01*
X181514746Y-84572091D01*
X181475408Y-84343022D01*
X181404874Y-84117940D01*
X181297746Y-83870159D01*
X181238047Y-83747908D01*
X181054879Y-83410369D01*
X180869015Y-83136566D01*
X180663243Y-82909477D01*
X180420351Y-82712081D01*
X180123127Y-82527358D01*
X179869356Y-82394405D01*
X179491711Y-82248716D01*
X179078721Y-82171151D01*
X178622933Y-82160708D01*
X178323866Y-82186481D01*
X178121638Y-82218545D01*
X177881066Y-82267842D01*
X177626844Y-82328157D01*
X177383668Y-82393276D01*
X177176230Y-82456984D01*
X177032987Y-82511344D01*
X176911401Y-82561024D01*
X176815968Y-82590299D01*
X176791777Y-82593614D01*
X176734145Y-82616492D01*
X176623094Y-82678628D01*
X176475119Y-82770273D01*
X176322282Y-82871093D01*
X176158985Y-82980446D01*
X176022171Y-83069497D01*
X175926785Y-83128691D01*
X175888290Y-83148572D01*
X175841891Y-83172162D01*
X175755970Y-83231117D01*
X175723627Y-83255295D01*
X175602641Y-83336554D01*
X175525577Y-83356891D01*
X175478917Y-83318550D01*
X175469411Y-83297478D01*
X175470879Y-83193859D01*
X175531886Y-83077038D01*
X175633420Y-82967267D01*
X175756469Y-82884800D01*
X175882023Y-82849889D01*
X175889699Y-82849748D01*
X175956934Y-82828566D01*
X176076283Y-82771679D01*
X176227741Y-82689076D01*
X176318779Y-82635518D01*
X176617348Y-82462725D01*
X176877819Y-82331303D01*
X177128540Y-82229013D01*
X177397861Y-82143615D01*
X177555282Y-82101665D01*
X177732730Y-82055636D01*
X177878165Y-82016007D01*
X177972281Y-81988145D01*
X177996593Y-81979013D01*
X178061527Y-81960216D01*
X178192931Y-81936783D01*
X178372166Y-81910893D01*
X178580596Y-81884725D01*
X178799584Y-81860461D01*
X179010494Y-81840279D01*
X179194687Y-81826359D01*
X179333528Y-81820881D01*
X179348404Y-81820912D01*
G37*
D10*
X136910000Y-121500000D03*
X129290000Y-121500000D03*
D11*
X132000000Y-90200000D03*
D12*
X130203949Y-91996051D03*
D13*
X173000000Y-95000000D03*
D14*
X66840000Y-163400000D03*
D15*
X126470000Y-127030000D03*
D16*
X129010000Y-127030000D03*
D10*
X104210000Y-152600000D03*
X96590000Y-152600000D03*
D17*
X84540000Y-122520000D03*
X87040000Y-122520000D03*
D10*
X61417200Y-122859800D03*
X69037200Y-122859800D03*
D18*
X94796051Y-92000000D03*
D19*
X93000000Y-90203949D03*
D20*
X142700000Y-127620000D03*
D21*
X144350000Y-127620000D03*
X146000000Y-127620000D03*
X147650000Y-127620000D03*
D22*
X88600000Y-61300000D03*
D23*
X90396051Y-59503949D03*
D17*
X130140000Y-137690000D03*
X132640000Y-137690000D03*
D14*
X55940000Y-163400000D03*
D10*
X115010000Y-125323600D03*
X107390000Y-125323600D03*
D14*
X169260000Y-163400000D03*
D24*
X134600000Y-59500000D03*
D25*
X136396051Y-61296051D03*
D10*
X163576000Y-122478800D03*
X155956000Y-122478800D03*
D15*
X140595000Y-121560000D03*
D16*
X143135000Y-121560000D03*
D10*
X105500000Y-138800000D03*
X97880000Y-138800000D03*
D15*
X158313200Y-135153400D03*
D16*
X160853200Y-135153400D03*
D15*
X116240000Y-117410000D03*
D16*
X118780000Y-117410000D03*
D10*
X126110000Y-133000000D03*
X118490000Y-133000000D03*
D13*
X120000000Y-191000000D03*
D17*
X119577800Y-127939800D03*
X122077800Y-127939800D03*
D26*
X169260000Y-154680000D03*
D27*
X169260000Y-157220000D03*
D28*
X171800000Y-154680000D03*
X171800000Y-157220000D03*
D27*
X174340000Y-154680000D03*
X174340000Y-157220000D03*
D15*
X149725000Y-82455000D03*
D16*
X149725000Y-87535000D03*
D15*
X112242600Y-94615000D03*
D16*
X114782600Y-94615000D03*
D20*
X131070000Y-131700000D03*
D21*
X132720000Y-131700000D03*
X134370000Y-131700000D03*
X136020000Y-131700000D03*
D26*
X66840000Y-154680000D03*
D27*
X66840000Y-157220000D03*
D28*
X64300000Y-154680000D03*
X64300000Y-157220000D03*
D27*
X61760000Y-154680000D03*
X61760000Y-157220000D03*
D20*
X120850000Y-121500000D03*
D21*
X122500000Y-121500000D03*
X124150000Y-121500000D03*
X125800000Y-121500000D03*
D10*
X86690000Y-138800000D03*
X94310000Y-138800000D03*
D17*
X108740000Y-120396000D03*
X111240000Y-120396000D03*
D13*
X52000000Y-95000000D03*
D15*
X113812400Y-146227800D03*
D16*
X116352400Y-146227800D03*
D10*
X111429800Y-139039600D03*
X119049800Y-139039600D03*
D13*
X162000000Y-59000000D03*
D20*
X68270000Y-66170000D03*
D21*
X69920000Y-66170000D03*
X71570000Y-66170000D03*
X73220000Y-66170000D03*
D17*
X146273200Y-118550000D03*
X148773200Y-118550000D03*
D10*
X94510000Y-127200000D03*
X86890000Y-127200000D03*
D17*
X171551600Y-103341800D03*
X171551600Y-105841800D03*
X171551600Y-108341800D03*
D13*
X112500000Y-191000000D03*
D29*
X117017800Y-182219600D03*
X119557800Y-182219600D03*
X94157800Y-182219600D03*
X114477800Y-182219600D03*
X106857800Y-182219600D03*
X122097800Y-159359600D03*
X124637800Y-182219600D03*
X119557800Y-159359600D03*
X122097800Y-182219600D03*
X111937800Y-182219600D03*
X109397800Y-182219600D03*
X104317800Y-182219600D03*
X99237800Y-182219600D03*
X96697800Y-182219600D03*
X101777800Y-182219600D03*
X111937800Y-159359600D03*
X114477800Y-159359600D03*
X117017800Y-159359600D03*
X106857800Y-159359600D03*
X109397800Y-159359600D03*
X101777800Y-159359600D03*
X104317800Y-159359600D03*
X94157800Y-159359600D03*
X96697800Y-159359600D03*
X99237800Y-159359600D03*
X124637800Y-159359600D03*
D15*
X90185000Y-111760000D03*
D16*
X92725000Y-111760000D03*
D15*
X65335000Y-139840000D03*
D16*
X67875000Y-139840000D03*
D17*
X141599600Y-133934200D03*
X144099600Y-133934200D03*
D15*
X136647600Y-150677800D03*
D16*
X136647600Y-145597800D03*
D17*
X69350000Y-72740000D03*
X71850000Y-72740000D03*
X148070000Y-74990000D03*
X150570000Y-74990000D03*
D10*
X100010000Y-148100000D03*
X92390000Y-148100000D03*
D20*
X146690000Y-68480000D03*
D21*
X148340000Y-68480000D03*
X149990000Y-68480000D03*
X151640000Y-68480000D03*
D20*
X83080000Y-115200000D03*
D21*
X84730000Y-115200000D03*
X86380000Y-115200000D03*
X88030000Y-115200000D03*
D20*
X138630000Y-114650000D03*
D21*
X140280000Y-114650000D03*
X141930000Y-114650000D03*
X143580000Y-114650000D03*
D13*
X63000000Y-59000000D03*
D26*
X50860000Y-154680000D03*
D27*
X50860000Y-157220000D03*
D28*
X53400000Y-154680000D03*
X53400000Y-157220000D03*
D27*
X55940000Y-154680000D03*
X55940000Y-157220000D03*
D26*
X163440000Y-154680000D03*
D27*
X163440000Y-157220000D03*
D28*
X160900000Y-154680000D03*
X160900000Y-157220000D03*
D27*
X158360000Y-154680000D03*
X158360000Y-157220000D03*
D20*
X109400000Y-114070000D03*
D21*
X111050000Y-114070000D03*
X112700000Y-114070000D03*
X114350000Y-114070000D03*
D10*
X110032800Y-90500200D03*
X117652800Y-90500200D03*
D14*
X158360000Y-163400000D03*
M02*
