G04 #@! TF.GenerationSoftware,KiCad,Pcbnew,7.0.10*
G04 #@! TF.CreationDate,2024-06-20T08:21:32-05:00*
G04 #@! TF.ProjectId,g0dzilla_vs_middle,6730647a-696c-46c6-915f-76735f6d6964,1*
G04 #@! TF.SameCoordinates,Original*
G04 #@! TF.FileFunction,Copper,L1,Top*
G04 #@! TF.FilePolarity,Positive*
%FSLAX46Y46*%
G04 Gerber Fmt 4.6, Leading zero omitted, Abs format (unit mm)*
G04 Created by KiCad (PCBNEW 7.0.10) date 2024-06-20 08:21:32*
%MOMM*%
%LPD*%
G01*
G04 APERTURE LIST*
G04 Aperture macros list*
%AMHorizOval*
0 Thick line with rounded ends*
0 $1 width*
0 $2 $3 position (X,Y) of the first rounded end (center of the circle)*
0 $4 $5 position (X,Y) of the second rounded end (center of the circle)*
0 Add line between two ends*
20,1,$1,$2,$3,$4,$5,0*
0 Add two circle primitives to create the rounded ends*
1,1,$1,$2,$3*
1,1,$1,$4,$5*%
%AMRotRect*
0 Rectangle, with rotation*
0 The origin of the aperture is its center*
0 $1 length*
0 $2 width*
0 $3 Rotation angle, in degrees counterclockwise*
0 Add horizontal line*
21,1,$1,$2,0,0,$3*%
G04 Aperture macros list end*
G04 #@! TA.AperFunction,ComponentPad*
%ADD10C,1.400000*%
G04 #@! TD*
G04 #@! TA.AperFunction,ComponentPad*
%ADD11RotRect,1.700000X1.700000X315.000000*%
G04 #@! TD*
G04 #@! TA.AperFunction,ComponentPad*
%ADD12HorizOval,1.700000X0.000000X0.000000X0.000000X0.000000X0*%
G04 #@! TD*
G04 #@! TA.AperFunction,ComponentPad*
%ADD13R,1.800000X1.800000*%
G04 #@! TD*
G04 #@! TA.AperFunction,ComponentPad*
%ADD14C,1.800000*%
G04 #@! TD*
G04 #@! TA.AperFunction,ComponentPad*
%ADD15C,1.600000*%
G04 #@! TD*
G04 #@! TA.AperFunction,ComponentPad*
%ADD16RotRect,1.700000X1.700000X225.000000*%
G04 #@! TD*
G04 #@! TA.AperFunction,ComponentPad*
%ADD17HorizOval,1.700000X0.000000X0.000000X0.000000X0.000000X0*%
G04 #@! TD*
G04 #@! TA.AperFunction,ComponentPad*
%ADD18R,1.150000X1.800000*%
G04 #@! TD*
G04 #@! TA.AperFunction,ComponentPad*
%ADD19O,1.150000X1.800000*%
G04 #@! TD*
G04 #@! TA.AperFunction,ComponentPad*
%ADD20RotRect,1.700000X1.700000X135.000000*%
G04 #@! TD*
G04 #@! TA.AperFunction,ComponentPad*
%ADD21HorizOval,1.700000X0.000000X0.000000X0.000000X0.000000X0*%
G04 #@! TD*
G04 #@! TA.AperFunction,ComponentPad*
%ADD22RotRect,1.700000X1.700000X45.000000*%
G04 #@! TD*
G04 #@! TA.AperFunction,ComponentPad*
%ADD23HorizOval,1.700000X0.000000X0.000000X0.000000X0.000000X0*%
G04 #@! TD*
G04 #@! TA.AperFunction,ComponentPad*
%ADD24R,1.727200X1.727200*%
G04 #@! TD*
G04 #@! TA.AperFunction,ComponentPad*
%ADD25C,1.727200*%
G04 #@! TD*
G04 #@! TA.AperFunction,ComponentPad*
%ADD26O,1.727200X1.727200*%
G04 #@! TD*
G04 #@! TA.AperFunction,ComponentPad*
%ADD27O,1.600000X2.700000*%
G04 #@! TD*
G04 #@! TA.AperFunction,ViaPad*
%ADD28C,0.800000*%
G04 #@! TD*
G04 #@! TA.AperFunction,Conductor*
%ADD29C,0.300000*%
G04 #@! TD*
G04 #@! TA.AperFunction,Conductor*
%ADD30C,0.750000*%
G04 #@! TD*
G04 APERTURE END LIST*
D10*
X136910000Y-121500000D03*
X129290000Y-121500000D03*
D11*
X132000000Y-90200000D03*
D12*
X130203949Y-91996051D03*
D13*
X126470000Y-127030000D03*
D14*
X129010000Y-127030000D03*
D10*
X104210000Y-152600000D03*
X96590000Y-152600000D03*
D15*
X84540000Y-122520000D03*
X87040000Y-122520000D03*
D10*
X61417200Y-122859800D03*
X69037200Y-122859800D03*
D16*
X94796051Y-92000000D03*
D17*
X93000000Y-90203949D03*
D18*
X142700000Y-127620000D03*
D19*
X144350000Y-127620000D03*
X146000000Y-127620000D03*
X147650000Y-127620000D03*
D20*
X88600000Y-61300000D03*
D21*
X90396051Y-59503949D03*
D15*
X130140000Y-137690000D03*
X132640000Y-137690000D03*
D10*
X115010000Y-125323600D03*
X107390000Y-125323600D03*
D22*
X134600000Y-59500000D03*
D23*
X136396051Y-61296051D03*
D10*
X163576000Y-122478800D03*
X155956000Y-122478800D03*
D13*
X140595000Y-121560000D03*
D14*
X143135000Y-121560000D03*
D10*
X105500000Y-138800000D03*
X97880000Y-138800000D03*
D13*
X158313200Y-135153400D03*
D14*
X160853200Y-135153400D03*
D13*
X116240000Y-117410000D03*
D14*
X118780000Y-117410000D03*
D10*
X126110000Y-133000000D03*
X118490000Y-133000000D03*
D15*
X119577800Y-127939800D03*
X122077800Y-127939800D03*
D24*
X169260000Y-154680000D03*
D25*
X169260000Y-157220000D03*
D26*
X171800000Y-154680000D03*
X171800000Y-157220000D03*
D25*
X174340000Y-154680000D03*
X174340000Y-157220000D03*
D13*
X149725000Y-82455000D03*
D14*
X149725000Y-87535000D03*
D13*
X112242600Y-94615000D03*
D14*
X114782600Y-94615000D03*
D18*
X131070000Y-131700000D03*
D19*
X132720000Y-131700000D03*
X134370000Y-131700000D03*
X136020000Y-131700000D03*
D24*
X66840000Y-154680000D03*
D25*
X66840000Y-157220000D03*
D26*
X64300000Y-154680000D03*
X64300000Y-157220000D03*
D25*
X61760000Y-154680000D03*
X61760000Y-157220000D03*
D18*
X120850000Y-121500000D03*
D19*
X122500000Y-121500000D03*
X124150000Y-121500000D03*
X125800000Y-121500000D03*
D10*
X86690000Y-138800000D03*
X94310000Y-138800000D03*
D15*
X108740000Y-120396000D03*
X111240000Y-120396000D03*
D13*
X113812400Y-146227800D03*
D14*
X116352400Y-146227800D03*
D10*
X111429800Y-139039600D03*
X119049800Y-139039600D03*
D18*
X68270000Y-66170000D03*
D19*
X69920000Y-66170000D03*
X71570000Y-66170000D03*
X73220000Y-66170000D03*
D15*
X146273200Y-118550000D03*
X148773200Y-118550000D03*
D10*
X94510000Y-127200000D03*
X86890000Y-127200000D03*
D15*
X171551600Y-103341800D03*
X171551600Y-105841800D03*
X171551600Y-108341800D03*
D27*
X117017800Y-182219600D03*
X119557800Y-182219600D03*
X94157800Y-182219600D03*
X114477800Y-182219600D03*
X106857800Y-182219600D03*
X122097800Y-159359600D03*
X124637800Y-182219600D03*
X119557800Y-159359600D03*
X122097800Y-182219600D03*
X111937800Y-182219600D03*
X109397800Y-182219600D03*
X104317800Y-182219600D03*
X99237800Y-182219600D03*
X96697800Y-182219600D03*
X101777800Y-182219600D03*
X111937800Y-159359600D03*
X114477800Y-159359600D03*
X117017800Y-159359600D03*
X106857800Y-159359600D03*
X109397800Y-159359600D03*
X101777800Y-159359600D03*
X104317800Y-159359600D03*
X94157800Y-159359600D03*
X96697800Y-159359600D03*
X99237800Y-159359600D03*
X124637800Y-159359600D03*
D13*
X90185000Y-111760000D03*
D14*
X92725000Y-111760000D03*
D13*
X65335000Y-139840000D03*
D14*
X67875000Y-139840000D03*
D15*
X141599600Y-133934200D03*
X144099600Y-133934200D03*
D13*
X136647600Y-150677800D03*
D14*
X136647600Y-145597800D03*
D15*
X69350000Y-72740000D03*
X71850000Y-72740000D03*
X148070000Y-74990000D03*
X150570000Y-74990000D03*
D10*
X100010000Y-148100000D03*
X92390000Y-148100000D03*
D18*
X146690000Y-68480000D03*
D19*
X148340000Y-68480000D03*
X149990000Y-68480000D03*
X151640000Y-68480000D03*
D18*
X83080000Y-115200000D03*
D19*
X84730000Y-115200000D03*
X86380000Y-115200000D03*
X88030000Y-115200000D03*
D18*
X138630000Y-114650000D03*
D19*
X140280000Y-114650000D03*
X141930000Y-114650000D03*
X143580000Y-114650000D03*
D24*
X50860000Y-154680000D03*
D25*
X50860000Y-157220000D03*
D26*
X53400000Y-154680000D03*
X53400000Y-157220000D03*
D25*
X55940000Y-154680000D03*
X55940000Y-157220000D03*
D24*
X163440000Y-154680000D03*
D25*
X163440000Y-157220000D03*
D26*
X160900000Y-154680000D03*
X160900000Y-157220000D03*
D25*
X158360000Y-154680000D03*
X158360000Y-157220000D03*
D18*
X109400000Y-114070000D03*
D19*
X111050000Y-114070000D03*
X112700000Y-114070000D03*
X114350000Y-114070000D03*
D10*
X110032800Y-90500200D03*
X117652800Y-90500200D03*
D28*
X136700000Y-154900000D03*
X112000000Y-167000000D03*
X109500000Y-169000000D03*
X57700000Y-86900000D03*
X166100000Y-87200000D03*
D29*
X167120000Y-154680000D02*
X165700000Y-156100000D01*
X108900000Y-110000000D02*
X118300000Y-110000000D01*
X84540000Y-122520000D02*
X73200000Y-111180000D01*
X94157800Y-184157800D02*
X94157800Y-182219600D01*
X169260000Y-154680000D02*
X167120000Y-154680000D01*
X78700000Y-165400000D02*
X86400000Y-173100000D01*
X58400000Y-152400000D02*
X59800000Y-153800000D01*
X146273200Y-76786800D02*
X148070000Y-74990000D01*
X73200000Y-111180000D02*
X73200000Y-78800000D01*
X165700000Y-158200000D02*
X158300000Y-165600000D01*
X106000000Y-112900000D02*
X108900000Y-110000000D01*
X146273200Y-118550000D02*
X146273200Y-76786800D01*
X59800000Y-158700000D02*
X66500000Y-165400000D01*
X89619600Y-182219600D02*
X94157800Y-182219600D01*
X158300000Y-165600000D02*
X146700000Y-165600000D01*
X50860000Y-154680000D02*
X50860000Y-153240000D01*
X106000000Y-115800000D02*
X106000000Y-112900000D01*
X108740000Y-120396000D02*
X108740000Y-118540000D01*
X126850000Y-118550000D02*
X146273200Y-118550000D01*
X66500000Y-165400000D02*
X78700000Y-165400000D01*
X96600000Y-186600000D02*
X94157800Y-184157800D01*
X118300000Y-110000000D02*
X126850000Y-118550000D01*
X59800000Y-153800000D02*
X59800000Y-158700000D01*
X108740000Y-118540000D02*
X106000000Y-115800000D01*
X51700000Y-152400000D02*
X58400000Y-152400000D01*
X86400000Y-173100000D02*
X86400000Y-179000000D01*
X86400000Y-179000000D02*
X89619600Y-182219600D01*
X73200000Y-78800000D02*
X69350000Y-74950000D01*
X69350000Y-74950000D02*
X69350000Y-72740000D01*
X165700000Y-156100000D02*
X165700000Y-158200000D01*
X146700000Y-165600000D02*
X125700000Y-186600000D01*
X50860000Y-153240000D02*
X51700000Y-152400000D01*
X125700000Y-186600000D02*
X96600000Y-186600000D01*
X101777800Y-159359600D02*
X101777800Y-149867800D01*
X101777800Y-149867800D02*
X100010000Y-148100000D01*
X104317800Y-152707800D02*
X104210000Y-152600000D01*
X106800000Y-163800000D02*
X104317800Y-161317800D01*
X136700000Y-154900000D02*
X134700000Y-154900000D01*
X104317800Y-161317800D02*
X104317800Y-159359600D01*
X125800000Y-163800000D02*
X106800000Y-163800000D01*
X104317800Y-159359600D02*
X104317800Y-152707800D01*
X134700000Y-154900000D02*
X125800000Y-163800000D01*
X113600000Y-116800000D02*
X114350000Y-116050000D01*
X113600000Y-121900000D02*
X113600000Y-116800000D01*
X111900000Y-131200000D02*
X105500000Y-137600000D01*
X105500000Y-137600000D02*
X105500000Y-138800000D01*
X111900000Y-123600000D02*
X111900000Y-131200000D01*
X114350000Y-116050000D02*
X114350000Y-114070000D01*
X113600000Y-121900000D02*
X111900000Y-123600000D01*
X90500000Y-146180000D02*
X97880000Y-138800000D01*
X112000000Y-167000000D02*
X98500000Y-167000000D01*
X90500000Y-159000000D02*
X90500000Y-146180000D01*
X98500000Y-167000000D02*
X90500000Y-159000000D01*
X89800000Y-116970000D02*
X88030000Y-115200000D01*
X89800000Y-130700000D02*
X89800000Y-116970000D01*
X86690000Y-138800000D02*
X86690000Y-133810000D01*
X86690000Y-133810000D02*
X89800000Y-130700000D01*
X88000000Y-145110000D02*
X94310000Y-138800000D01*
X88000000Y-159000000D02*
X88000000Y-145110000D01*
X109500000Y-169000000D02*
X98000000Y-169000000D01*
X98000000Y-169000000D02*
X88000000Y-159000000D01*
X140535000Y-121500000D02*
X140595000Y-121560000D01*
X136910000Y-121500000D02*
X140535000Y-121500000D01*
X112242600Y-94615000D02*
X112242600Y-92710000D01*
X112242600Y-92710000D02*
X110032800Y-90500200D01*
X113812400Y-144552400D02*
X111429800Y-142169800D01*
X113812400Y-146227800D02*
X113812400Y-144552400D01*
X111429800Y-142169800D02*
X111429800Y-139039600D01*
X126110000Y-133000000D02*
X126110000Y-127390000D01*
X126510000Y-127070000D02*
X126470000Y-127030000D01*
X126110000Y-127390000D02*
X126470000Y-127030000D01*
X115010000Y-125323600D02*
X115010000Y-120790000D01*
X116240000Y-119560000D02*
X116240000Y-117410000D01*
X115010000Y-120790000D02*
X116240000Y-119560000D01*
X90185000Y-114185000D02*
X90185000Y-111760000D01*
X94510000Y-127200000D02*
X94510000Y-124510000D01*
X91500000Y-121500000D02*
X91500000Y-115500000D01*
X94510000Y-124510000D02*
X91500000Y-121500000D01*
X91500000Y-115500000D02*
X90185000Y-114185000D01*
X145000000Y-136400000D02*
X137500000Y-136400000D01*
X137500000Y-136400000D02*
X135800000Y-134700000D01*
X131070000Y-133570000D02*
X132200000Y-134700000D01*
X131070000Y-131700000D02*
X131070000Y-133570000D01*
X147650000Y-133750000D02*
X145000000Y-136400000D01*
X147650000Y-127620000D02*
X147650000Y-133750000D01*
X135800000Y-134700000D02*
X132200000Y-134700000D01*
X136020000Y-129420000D02*
X136020000Y-131700000D01*
X120850000Y-122450000D02*
X122700000Y-124300000D01*
X120850000Y-121500000D02*
X120850000Y-122450000D01*
X122700000Y-124300000D02*
X130900000Y-124300000D01*
X130900000Y-124300000D02*
X136020000Y-129420000D01*
X143580000Y-70080000D02*
X145180000Y-68480000D01*
X143580000Y-114650000D02*
X143580000Y-70080000D01*
X145180000Y-68480000D02*
X146690000Y-68480000D01*
X148500000Y-62500000D02*
X151640000Y-65640000D01*
X143000000Y-62500000D02*
X148500000Y-62500000D01*
X69000000Y-63500000D02*
X76500000Y-63500000D01*
X151640000Y-65640000D02*
X151640000Y-68480000D01*
X76500000Y-63500000D02*
X80500000Y-67500000D01*
X68270000Y-64230000D02*
X69000000Y-63500000D01*
X80500000Y-67500000D02*
X138000000Y-67500000D01*
X138000000Y-67500000D02*
X143000000Y-62500000D01*
X68270000Y-66170000D02*
X68270000Y-64230000D01*
X73220000Y-66170000D02*
X74800000Y-67750000D01*
X74800000Y-67750000D02*
X74800000Y-109100000D01*
X74800000Y-109100000D02*
X80900000Y-115200000D01*
X80900000Y-115200000D02*
X83080000Y-115200000D01*
X125800000Y-119600000D02*
X125800000Y-121500000D01*
X117400000Y-111200000D02*
X125800000Y-119600000D01*
X109400000Y-114070000D02*
X109400000Y-112100000D01*
X109400000Y-112100000D02*
X110300000Y-111200000D01*
X110300000Y-111200000D02*
X117400000Y-111200000D01*
X106857800Y-159359600D02*
X106857800Y-151357800D01*
X106857800Y-151357800D02*
X101000000Y-145500000D01*
X101000000Y-145500000D02*
X101000000Y-120035000D01*
X101000000Y-120035000D02*
X92725000Y-111760000D01*
X117000000Y-121500000D02*
X118780000Y-119720000D01*
X108970000Y-145790000D02*
X108970000Y-137710000D01*
X111937800Y-148757800D02*
X108970000Y-145790000D01*
X108970000Y-137710000D02*
X110620000Y-136060000D01*
X111937800Y-159359600D02*
X111937800Y-148757800D01*
X117000000Y-133870000D02*
X117000000Y-121500000D01*
X110620000Y-136060000D02*
X114810000Y-136060000D01*
X114810000Y-136060000D02*
X117000000Y-133870000D01*
X118780000Y-119720000D02*
X118780000Y-117410000D01*
X116352400Y-151257600D02*
X116352400Y-146227800D01*
X114477800Y-159359600D02*
X114477800Y-153132200D01*
X114477800Y-153132200D02*
X116352400Y-151257600D01*
X127500000Y-142750000D02*
X127500000Y-129700000D01*
X117017800Y-153232200D02*
X127500000Y-142750000D01*
X129010000Y-128190000D02*
X129010000Y-127030000D01*
X117017800Y-159359600D02*
X117017800Y-153232200D01*
X127500000Y-129700000D02*
X129010000Y-128190000D01*
X151200000Y-124200000D02*
X148560000Y-121560000D01*
X143900000Y-141100000D02*
X151200000Y-133800000D01*
X119557800Y-153642200D02*
X132100000Y-141100000D01*
X148560000Y-121560000D02*
X143135000Y-121560000D01*
X151200000Y-133800000D02*
X151200000Y-124200000D01*
X119557800Y-159359600D02*
X119557800Y-153642200D01*
X132100000Y-141100000D02*
X143900000Y-141100000D01*
X109397800Y-159359600D02*
X109397800Y-150897800D01*
X112000000Y-88500000D02*
X114782600Y-91282600D01*
X97000000Y-105500000D02*
X97000000Y-95500000D01*
X103500000Y-145000000D02*
X103500000Y-112000000D01*
X97000000Y-95500000D02*
X104000000Y-88500000D01*
X104000000Y-88500000D02*
X112000000Y-88500000D01*
X109397800Y-150897800D02*
X103500000Y-145000000D01*
X114782600Y-91282600D02*
X114782600Y-94615000D01*
X103500000Y-112000000D02*
X97000000Y-105500000D01*
D30*
X82100000Y-49900000D02*
X88300000Y-49900000D01*
X119557800Y-177357800D02*
X114700000Y-172500000D01*
X62700000Y-105500000D02*
X62700000Y-65300000D01*
X98200000Y-172500000D02*
X82300000Y-156600000D01*
X114700000Y-172500000D02*
X98200000Y-172500000D01*
X78100000Y-49900000D02*
X82100000Y-49900000D01*
X119557800Y-182219600D02*
X119557800Y-177357800D01*
X81600000Y-155900000D02*
X81600000Y-124400000D01*
X81600000Y-124400000D02*
X62700000Y-105500000D01*
X82300000Y-156600000D02*
X81600000Y-155900000D01*
X62700000Y-65300000D02*
X78100000Y-49900000D01*
X111400000Y-175500000D02*
X95700000Y-175500000D01*
X114477800Y-178577800D02*
X111400000Y-175500000D01*
X78400000Y-127000000D02*
X57700000Y-106300000D01*
X95700000Y-175500000D02*
X78400000Y-158200000D01*
X114477800Y-182219600D02*
X114477800Y-178577800D01*
X78400000Y-158200000D02*
X78400000Y-127000000D01*
X57700000Y-106300000D02*
X57700000Y-86900000D01*
D29*
X65335000Y-139840000D02*
X65335000Y-126777600D01*
X65335000Y-126777600D02*
X61417200Y-122859800D01*
X163576000Y-124424000D02*
X163576000Y-122478800D01*
X158313200Y-135153400D02*
X158313200Y-129686800D01*
X158313200Y-129686800D02*
X163576000Y-124424000D01*
D30*
X174100000Y-119000000D02*
X166100000Y-111000000D01*
X124637800Y-181262200D02*
X126700000Y-179200000D01*
X174100000Y-141400000D02*
X174100000Y-119000000D01*
X166100000Y-111000000D02*
X166100000Y-87200000D01*
X148500000Y-151500000D02*
X164000000Y-151500000D01*
X126700000Y-173300000D02*
X148500000Y-151500000D01*
X124637800Y-182219600D02*
X124637800Y-181262200D01*
X164000000Y-151500000D02*
X174100000Y-141400000D01*
X126700000Y-179200000D02*
X126700000Y-173300000D01*
X156300000Y-109400000D02*
X156300000Y-66300000D01*
X122097800Y-173002200D02*
X148500000Y-146600000D01*
X142100000Y-48900000D02*
X130300000Y-48900000D01*
X122097800Y-182219600D02*
X122097800Y-173002200D01*
X169900000Y-123000000D02*
X156300000Y-109400000D01*
X163700000Y-146600000D02*
X169900000Y-140400000D01*
X156300000Y-63100000D02*
X142100000Y-48900000D01*
X156300000Y-66300000D02*
X156300000Y-63100000D01*
X148500000Y-146600000D02*
X163700000Y-146600000D01*
X169900000Y-140400000D02*
X169900000Y-123000000D01*
D29*
X122097800Y-153902200D02*
X122097800Y-159359600D01*
X133500000Y-142500000D02*
X122097800Y-153902200D01*
X152000000Y-137500000D02*
X147000000Y-142500000D01*
X147000000Y-142500000D02*
X133500000Y-142500000D01*
X160853200Y-135646800D02*
X159000000Y-137500000D01*
X159000000Y-137500000D02*
X152000000Y-137500000D01*
X160853200Y-135153400D02*
X160853200Y-135646800D01*
X106857800Y-182219600D02*
X106857800Y-180657800D01*
X94600000Y-178500000D02*
X76700000Y-160600000D01*
X73240000Y-139840000D02*
X67875000Y-139840000D01*
X76700000Y-160600000D02*
X76700000Y-143300000D01*
X106857800Y-180657800D02*
X104700000Y-178500000D01*
X76700000Y-143300000D02*
X73240000Y-139840000D01*
X104700000Y-178500000D02*
X94600000Y-178500000D01*
G04 #@! TA.AperFunction,Conductor*
G36*
X126752816Y-41000128D02*
G01*
X132172297Y-41246468D01*
X132238373Y-41269176D01*
X132280640Y-41321494D01*
X132989974Y-42976606D01*
X133000000Y-43025452D01*
X133000000Y-44241584D01*
X132998863Y-44258338D01*
X132264624Y-49642754D01*
X132236062Y-49706519D01*
X132177560Y-49744720D01*
X132141761Y-49750000D01*
X124776315Y-49750000D01*
X124725954Y-49739313D01*
X122540652Y-48768067D01*
X122487385Y-48722851D01*
X122480104Y-48710209D01*
X122267321Y-48284642D01*
X122254947Y-48215880D01*
X122255470Y-48211704D01*
X122750000Y-44750000D01*
X122750000Y-42313813D01*
X122769685Y-42246774D01*
X122801926Y-42212910D01*
X124049908Y-41321494D01*
X124467664Y-41023096D01*
X124533658Y-41000149D01*
X124539738Y-41000000D01*
X126747185Y-41000000D01*
X126752816Y-41000128D01*
G37*
G04 #@! TD.AperFunction*
G04 #@! TA.AperFunction,Conductor*
G36*
X101000000Y-41000000D02*
G01*
X108630001Y-41246129D01*
X108696368Y-41267964D01*
X108740397Y-41322216D01*
X108750000Y-41370064D01*
X108750000Y-44750000D01*
X109718145Y-47654435D01*
X109720670Y-47724259D01*
X109685045Y-47784364D01*
X109662988Y-47800756D01*
X103778956Y-51233109D01*
X103716476Y-51250000D01*
X95503092Y-51250000D01*
X95496900Y-51249845D01*
X85612991Y-50755649D01*
X85547018Y-50732641D01*
X85503957Y-50677619D01*
X85495290Y-50636966D01*
X85250655Y-44765730D01*
X85253300Y-44734597D01*
X85980992Y-41338700D01*
X86014286Y-41277276D01*
X86075505Y-41243600D01*
X86090282Y-41241262D01*
X93739781Y-40500988D01*
X93760238Y-40500706D01*
X101000000Y-41000000D01*
G37*
G04 #@! TD.AperFunction*
M02*
