M48
INCH,TZ
T1C0.0157
T2C0.0276
T3C0.0315
T4C0.0354
T5C0.0394
T6C0.0400
T7C0.0402
%
G90
G05
T1
X22717Y-34213
X43110Y-66535
X44094Y-65748
X53819Y-60984
X65394Y-34331
T2
X24180Y-48370
X27180Y-48370
X34130Y-54646
X34209Y-50079
X36374Y-58307
X37130Y-54646
X37209Y-50079
X38028Y-60079
X38535Y-54646
X39374Y-58307
X41028Y-60079
X41535Y-54646
X42280Y-49340
X43320Y-35630
X43870Y-54740
X45280Y-49340
X46320Y-35630
X46650Y-52362
X46870Y-54740
X49650Y-52362
X50902Y-47835
X53902Y-47835
X61400Y-48220
X64400Y-48220
T3
X27303Y-28638
X28287Y-28638
X33283Y-48236
X34268Y-48236
X42811Y-47400
X43795Y-47400
X47078Y-50370
X48062Y-50370
X51236Y-54209
X52220Y-54209
X55748Y-52730
X56732Y-52730
X57588Y-46673
X58295Y-29524
X58572Y-46673
X59280Y-29524
T4
X25722Y-55055
X26722Y-55055
X26878Y-26051
X27528Y-26051
X28177Y-26051
X28827Y-26051
X32709Y-45354
X33358Y-45354
X34008Y-45354
X34657Y-45354
X35506Y-44000
X36506Y-44000
X43071Y-44909
X43720Y-44909
X44190Y-37250
X44370Y-44909
X44808Y-57570
X45020Y-44909
X45190Y-37250
X45764Y-46224
X45808Y-57570
X46764Y-46224
X47579Y-47835
X48228Y-47835
X48878Y-47835
X49528Y-47835
X49791Y-50012
X50791Y-50012
X51602Y-51850
X52252Y-51850
X52902Y-51850
X53551Y-51850
X53798Y-57322
X53798Y-59322
X54579Y-45138
X55228Y-45138
X55352Y-47858
X55878Y-45138
X56181Y-50244
X56352Y-47858
X56528Y-45138
X56831Y-50244
X57480Y-50244
X57752Y-26961
X58130Y-50244
X58402Y-26961
X58947Y-32463
X58947Y-34463
X59051Y-26961
X59701Y-26961
X62328Y-53210
X63328Y-53210
T5
X34882Y-24134
X35589Y-23427
X36614Y-35513
X37321Y-36220
X51261Y-36219
X51969Y-35512
X52992Y-23425
X53699Y-24132
X67540Y-40686
X67540Y-41670
X67540Y-42654
T6
X20024Y-60898
X20024Y-61898
X21024Y-60898
X21024Y-61898
X22024Y-60898
X22024Y-61898
X24315Y-60898
X24315Y-61898
X25315Y-60898
X25315Y-61898
X26315Y-60898
X26315Y-61898
X62346Y-60898
X62346Y-61898
X63346Y-60898
X63346Y-61898
X64346Y-60898
X64346Y-61898
X66638Y-60898
X66638Y-61898
X67638Y-60898
X67638Y-61898
X68638Y-60898
X68638Y-61898
T7
X37070Y-62740
X37070Y-71740
X38070Y-62740
X38070Y-71740
X39070Y-62740
X39070Y-71740
X40070Y-62740
X40070Y-71740
X41070Y-62740
X41070Y-71740
X42070Y-62740
X42070Y-71740
X43070Y-62740
X43070Y-71740
X44070Y-62740
X44070Y-71740
X45070Y-62740
X45070Y-71740
X46070Y-62740
X46070Y-71740
X47070Y-62740
X47070Y-71740
X48070Y-62740
X48070Y-71740
X49070Y-62740
X49070Y-71740
M30
