G04 #@! TF.GenerationSoftware,KiCad,Pcbnew,7.0.10*
G04 #@! TF.CreationDate,2024-06-20T08:21:38-05:00*
G04 #@! TF.ProjectId,g0dzilla_vs_middle,6730647a-696c-46c6-915f-76735f6d6964,1*
G04 #@! TF.SameCoordinates,Original*
G04 #@! TF.FileFunction,Profile,NP*
%FSLAX46Y46*%
G04 Gerber Fmt 4.6, Leading zero omitted, Abs format (unit mm)*
G04 Created by KiCad (PCBNEW 7.0.10) date 2024-06-20 08:21:38*
%MOMM*%
%LPD*%
G01*
G04 APERTURE LIST*
G04 #@! TA.AperFunction,Profile*
%ADD10C,0.120000*%
G04 #@! TD*
G04 APERTURE END LIST*
D10*
X39564874Y-87091092D02*
X40254874Y-85141092D01*
X39724874Y-90261092D02*
X39564874Y-87091092D01*
X40254874Y-85141092D02*
X40914874Y-83511092D01*
X40724874Y-91851092D02*
X39724874Y-90261092D01*
X40914874Y-83511092D02*
X41954874Y-81401092D01*
X41954874Y-81401092D02*
X43704874Y-80251092D01*
X42684874Y-92521092D02*
X40724874Y-91851092D01*
X43704874Y-80251092D02*
X48234874Y-77271092D01*
X45634874Y-92941092D02*
X42684874Y-92521092D01*
X46184874Y-118391092D02*
X46244874Y-115461092D01*
X46244874Y-115461092D02*
X46274874Y-112781092D01*
X46274874Y-112781092D02*
X46304874Y-111391092D01*
X46284874Y-122311092D02*
X46184874Y-118391092D01*
X46304874Y-111391092D02*
X46334874Y-110771092D01*
X46334874Y-110771092D02*
X46634874Y-107261092D01*
X46424874Y-128741092D02*
X46284874Y-122311092D01*
X46634874Y-107261092D02*
X46994874Y-103511092D01*
X46724874Y-136851092D02*
X46424874Y-128741092D01*
X46994874Y-103511092D02*
X47504874Y-99661092D01*
X47044874Y-146201092D02*
X46724874Y-136851092D01*
X47244874Y-148341092D02*
X47044874Y-146201092D01*
X47504874Y-99661092D02*
X47654874Y-98511092D01*
X47524874Y-93781092D02*
X45634874Y-92941092D01*
X47654874Y-98511092D02*
X47894874Y-95331092D01*
X47674874Y-152831092D02*
X47244874Y-148341092D01*
X47894874Y-95331092D02*
X47524874Y-93781092D01*
X48014874Y-156241092D02*
X47674874Y-152831092D01*
X48234874Y-77271092D02*
X50624874Y-75031092D01*
X48334874Y-158051092D02*
X48014874Y-156241092D01*
X48924874Y-160241092D02*
X48334874Y-158051092D01*
X49794874Y-162161092D02*
X48924874Y-160241092D01*
X50334874Y-162881092D02*
X49794874Y-162161092D01*
X50624874Y-75031092D02*
X51304874Y-73241092D01*
X51214874Y-67051092D02*
X51534874Y-64191092D01*
X51294874Y-70511092D02*
X51214874Y-67051092D01*
X51304874Y-73241092D02*
X51294874Y-70511092D01*
X51424874Y-164141092D02*
X50334874Y-162881092D01*
X51534874Y-64191092D02*
X52724874Y-62021092D01*
X52724874Y-62021092D02*
X53724874Y-59541092D01*
X52754874Y-165301092D02*
X51424874Y-164141092D01*
X53344874Y-43051092D02*
X53864874Y-42271092D01*
X53374874Y-165601092D02*
X52754874Y-165301092D01*
X53444874Y-44201092D02*
X53344874Y-43051092D01*
X53724874Y-59541092D02*
X55174874Y-57821092D01*
X53864874Y-42271092D02*
X54174874Y-42051092D01*
X54024874Y-45621092D02*
X53444874Y-44201092D01*
X54174874Y-42051092D02*
X54924874Y-41681092D01*
X54184874Y-52001092D02*
X54324874Y-51511092D01*
X54284874Y-53151092D02*
X54184874Y-52001092D01*
X54324874Y-51511092D02*
X54594874Y-51011092D01*
X54424874Y-48581092D02*
X55024874Y-47481092D01*
X54524874Y-46561092D02*
X54024874Y-45621092D01*
X54594874Y-51011092D02*
X54964874Y-50541092D01*
X54624874Y-166131092D02*
X53374874Y-165601092D01*
X54784874Y-49591092D02*
X54424874Y-48581092D01*
X54924874Y-41681092D02*
X55604874Y-41521092D01*
X54934874Y-50221092D02*
X54784874Y-49591092D01*
X54964874Y-50541092D02*
X54934874Y-50221092D01*
X55024874Y-47481092D02*
X54524874Y-46561092D01*
X55174874Y-57821092D02*
X55914874Y-57081092D01*
X55604874Y-41521092D02*
X56164874Y-41461092D01*
X55694874Y-166471092D02*
X54624874Y-166131092D01*
X55914874Y-57081092D02*
X54284874Y-53151092D01*
X56164874Y-41461092D02*
X56784874Y-41551092D01*
X56784874Y-41551092D02*
X57584874Y-41841092D01*
X57584874Y-41841092D02*
X57954874Y-42011092D01*
X57954874Y-42011092D02*
X60394874Y-41581092D01*
X58724874Y-167281092D02*
X55694874Y-166471092D01*
X60394874Y-41581092D02*
X63004874Y-41531092D01*
X62554874Y-168361092D02*
X58724874Y-167281092D01*
X63004874Y-41531092D02*
X65634874Y-42511092D01*
X64754874Y-168981092D02*
X62554874Y-168361092D01*
X65634874Y-42511092D02*
X66394874Y-42271092D01*
X66394874Y-42271092D02*
X67374874Y-42011092D01*
X67164874Y-170121092D02*
X64754874Y-168981092D01*
X67374874Y-42011092D02*
X68514874Y-41881092D01*
X68514874Y-41881092D02*
X69724874Y-41901092D01*
X68994874Y-171161092D02*
X67164874Y-170121092D01*
X69724874Y-41901092D02*
X70784874Y-42091092D01*
X70724874Y-172261092D02*
X68994874Y-171161092D01*
X70784874Y-42091092D02*
X71734874Y-42461092D01*
X71734874Y-42461092D02*
X73334874Y-43111092D01*
X72194874Y-173391092D02*
X70724874Y-172261092D01*
X73334874Y-43111092D02*
X73854874Y-42391092D01*
X73404874Y-174491092D02*
X72194874Y-173391092D01*
X73854874Y-42391092D02*
X74444874Y-41721092D01*
X74444874Y-41721092D02*
X75224874Y-41181092D01*
X74844874Y-175931092D02*
X73404874Y-174491092D01*
X75224874Y-41181092D02*
X76074874Y-40881092D01*
X76074874Y-40881092D02*
X77214874Y-40751092D01*
X76114874Y-177411092D02*
X74844874Y-175931092D01*
X77214874Y-40751092D02*
X77324874Y-40051092D01*
X77314874Y-178961092D02*
X76114874Y-177411092D01*
X77324874Y-40051092D02*
X77664874Y-39371092D01*
X77664874Y-39371092D02*
X78394874Y-38661092D01*
X78394874Y-38661092D02*
X79044874Y-38251092D01*
X78544874Y-180601092D02*
X77314874Y-178961092D01*
X79044874Y-38251092D02*
X79894874Y-37931092D01*
X79894874Y-37931092D02*
X81284874Y-37621092D01*
X80194874Y-182811092D02*
X78544874Y-180601092D01*
X81284874Y-37621092D02*
X82774874Y-37541092D01*
X82764874Y-186521092D02*
X80194874Y-182811092D01*
X82774874Y-37541092D02*
X83924874Y-37621092D01*
X83924874Y-37621092D02*
X84604874Y-37791092D01*
X83974874Y-188411092D02*
X82764874Y-186521092D01*
X84604874Y-37791092D02*
X85174874Y-38041092D01*
X85174874Y-38041092D02*
X85924874Y-37761092D01*
X85554874Y-190891092D02*
X83974874Y-188411092D01*
X85924874Y-37761092D02*
X87154874Y-37441092D01*
X86054874Y-191541092D02*
X85554874Y-190891092D01*
X87154874Y-37441092D02*
X88474874Y-37281092D01*
X87174874Y-192571092D02*
X86054874Y-191541092D01*
X88474874Y-37281092D02*
X90374874Y-37211092D01*
X88894874Y-193421092D02*
X87174874Y-192571092D01*
X90374874Y-37211092D02*
X92404874Y-37211092D01*
X90494874Y-194021092D02*
X88894874Y-193421092D01*
X91934874Y-194411092D02*
X90494874Y-194021092D01*
X92404874Y-37211092D02*
X93254874Y-36891092D01*
X93254874Y-36891092D02*
X94294874Y-36661092D01*
X94294874Y-36661092D02*
X95274874Y-36561092D01*
X94904874Y-195061092D02*
X91934874Y-194411092D01*
X95044874Y-195081092D02*
X94904874Y-195061092D01*
X95044874Y-195081092D02*
X130000000Y-195080000D01*
X95274874Y-36561092D02*
X95554874Y-36561092D01*
X95554874Y-36561092D02*
X95574874Y-35721092D01*
X95574874Y-35721092D02*
X95734874Y-35121092D01*
X95734874Y-35121092D02*
X96134874Y-34521092D01*
X96134874Y-34521092D02*
X96644874Y-34181092D01*
X96644874Y-34181092D02*
X97414874Y-33921092D01*
X97414874Y-33921092D02*
X98334874Y-33831092D01*
X98334874Y-33831092D02*
X99244874Y-33811092D01*
X99244874Y-33811092D02*
X100584874Y-33491092D01*
X100584874Y-33491092D02*
X101094874Y-32881092D01*
X101094874Y-32881092D02*
X101724874Y-32221092D01*
X101724874Y-32221092D02*
X102274874Y-31891092D01*
X102274874Y-31891092D02*
X102824874Y-31691092D01*
X102824874Y-31691092D02*
X103514874Y-31571092D01*
X103514874Y-31571092D02*
X104374874Y-31571092D01*
X104374874Y-31571092D02*
X105114874Y-31701092D01*
X105114874Y-31701092D02*
X105474874Y-31921092D01*
X105474874Y-31921092D02*
X105864874Y-32291092D01*
X105864874Y-32291092D02*
X106304874Y-32601092D01*
X106304874Y-32601092D02*
X106974874Y-32941092D01*
X106974874Y-32941092D02*
X107594874Y-32801092D01*
X107594874Y-32801092D02*
X107954874Y-31631092D01*
X107954874Y-31631092D02*
X108104874Y-30511092D01*
X108104874Y-30511092D02*
X108284874Y-29561092D01*
X108284874Y-29561092D02*
X108544874Y-28951092D01*
X108544874Y-28951092D02*
X109074874Y-28181092D01*
X109074874Y-28181092D02*
X109774874Y-27361092D01*
X109774874Y-27361092D02*
X110434874Y-26851092D01*
X110434874Y-26851092D02*
X110884874Y-26651092D01*
X110884874Y-26651092D02*
X111594874Y-26551092D01*
X111594874Y-26551092D02*
X113450000Y-26550000D01*
X114160000Y-26650000D02*
X113450000Y-26550000D01*
X114610000Y-26850000D02*
X114160000Y-26650000D01*
X115270000Y-27360000D02*
X114610000Y-26850000D01*
X115970000Y-28180000D02*
X115270000Y-27360000D01*
X116500000Y-28950000D02*
X115970000Y-28180000D01*
X116760000Y-29560000D02*
X116500000Y-28950000D01*
X116940000Y-30510000D02*
X116760000Y-29560000D01*
X117090000Y-31630000D02*
X116940000Y-30510000D01*
X117450000Y-32800000D02*
X117090000Y-31630000D01*
X118070000Y-32940000D02*
X117450000Y-32800000D01*
X118740000Y-32600000D02*
X118070000Y-32940000D01*
X119180000Y-32290000D02*
X118740000Y-32600000D01*
X119570000Y-31920000D02*
X119180000Y-32290000D01*
X119930000Y-31700000D02*
X119570000Y-31920000D01*
X120670000Y-31570000D02*
X119930000Y-31700000D01*
X121530000Y-31570000D02*
X120670000Y-31570000D01*
X122220000Y-31690000D02*
X121530000Y-31570000D01*
X122770000Y-31890000D02*
X122220000Y-31690000D01*
X123320000Y-32220000D02*
X122770000Y-31890000D01*
X123950000Y-32880000D02*
X123320000Y-32220000D01*
X124460000Y-33490000D02*
X123950000Y-32880000D01*
X125800000Y-33810000D02*
X124460000Y-33490000D01*
X126710000Y-33830000D02*
X125800000Y-33810000D01*
X127630000Y-33920000D02*
X126710000Y-33830000D01*
X128400000Y-34180000D02*
X127630000Y-33920000D01*
X128910000Y-34520000D02*
X128400000Y-34180000D01*
X129310000Y-35120000D02*
X128910000Y-34520000D01*
X129470000Y-35720000D02*
X129310000Y-35120000D01*
X129490000Y-36560000D02*
X129470000Y-35720000D01*
X129770000Y-36560000D02*
X129490000Y-36560000D01*
X130000000Y-195080000D02*
X130140000Y-195060000D01*
X130140000Y-195060000D02*
X133110000Y-194410000D01*
X130750000Y-36660000D02*
X129770000Y-36560000D01*
X131790000Y-36890000D02*
X130750000Y-36660000D01*
X132640000Y-37210000D02*
X131790000Y-36890000D01*
X133110000Y-194410000D02*
X134550000Y-194020000D01*
X134550000Y-194020000D02*
X136150000Y-193420000D01*
X134670000Y-37210000D02*
X132640000Y-37210000D01*
X136150000Y-193420000D02*
X137870000Y-192570000D01*
X136570000Y-37280000D02*
X134670000Y-37210000D01*
X137870000Y-192570000D02*
X138990000Y-191540000D01*
X137890000Y-37440000D02*
X136570000Y-37280000D01*
X138990000Y-191540000D02*
X139490000Y-190890000D01*
X139120000Y-37760000D02*
X137890000Y-37440000D01*
X139490000Y-190890000D02*
X141070000Y-188410000D01*
X139870000Y-38040000D02*
X139120000Y-37760000D01*
X140440000Y-37790000D02*
X139870000Y-38040000D01*
X141070000Y-188410000D02*
X142280000Y-186520000D01*
X141120000Y-37620000D02*
X140440000Y-37790000D01*
X142270000Y-37540000D02*
X141120000Y-37620000D01*
X142280000Y-186520000D02*
X144850000Y-182810000D01*
X143760000Y-37620000D02*
X142270000Y-37540000D01*
X144850000Y-182810000D02*
X146500000Y-180600000D01*
X145150000Y-37930000D02*
X143760000Y-37620000D01*
X146000000Y-38250000D02*
X145150000Y-37930000D01*
X146500000Y-180600000D02*
X147730000Y-178960000D01*
X146650000Y-38660000D02*
X146000000Y-38250000D01*
X147380000Y-39370000D02*
X146650000Y-38660000D01*
X147720000Y-40050000D02*
X147380000Y-39370000D01*
X147730000Y-178960000D02*
X148930000Y-177410000D01*
X147830000Y-40750000D02*
X147720000Y-40050000D01*
X148930000Y-177410000D02*
X150200000Y-175930000D01*
X148970000Y-40880000D02*
X147830000Y-40750000D01*
X149820000Y-41180000D02*
X148970000Y-40880000D01*
X150200000Y-175930000D02*
X151640000Y-174490000D01*
X150600000Y-41720000D02*
X149820000Y-41180000D01*
X151190000Y-42390000D02*
X150600000Y-41720000D01*
X151640000Y-174490000D02*
X152850000Y-173390000D01*
X151710000Y-43110000D02*
X151190000Y-42390000D01*
X152850000Y-173390000D02*
X154320000Y-172260000D01*
X153310000Y-42460000D02*
X151710000Y-43110000D01*
X154260000Y-42090000D02*
X153310000Y-42460000D01*
X154320000Y-172260000D02*
X156050000Y-171160000D01*
X155320000Y-41900000D02*
X154260000Y-42090000D01*
X156050000Y-171160000D02*
X157880000Y-170120000D01*
X156530000Y-41880000D02*
X155320000Y-41900000D01*
X157670000Y-42010000D02*
X156530000Y-41880000D01*
X157880000Y-170120000D02*
X160290000Y-168980000D01*
X158650000Y-42270000D02*
X157670000Y-42010000D01*
X159410000Y-42510000D02*
X158650000Y-42270000D01*
X160290000Y-168980000D02*
X162490000Y-168360000D01*
X162040000Y-41530000D02*
X159410000Y-42510000D01*
X162490000Y-168360000D02*
X166320000Y-167280000D01*
X164650000Y-41580000D02*
X162040000Y-41530000D01*
X166320000Y-167280000D02*
X169350000Y-166470000D01*
X167090000Y-42010000D02*
X164650000Y-41580000D01*
X167460000Y-41840000D02*
X167090000Y-42010000D01*
X168260000Y-41550000D02*
X167460000Y-41840000D01*
X168880000Y-41460000D02*
X168260000Y-41550000D01*
X169130000Y-57080000D02*
X170760000Y-53150000D01*
X169350000Y-166470000D02*
X170420000Y-166130000D01*
X169440000Y-41520000D02*
X168880000Y-41460000D01*
X169870000Y-57820000D02*
X169130000Y-57080000D01*
X170020000Y-47480000D02*
X170520000Y-46560000D01*
X170080000Y-50540000D02*
X170110000Y-50220000D01*
X170110000Y-50220000D02*
X170260000Y-49590000D01*
X170120000Y-41680000D02*
X169440000Y-41520000D01*
X170260000Y-49590000D02*
X170620000Y-48580000D01*
X170420000Y-166130000D02*
X171670000Y-165600000D01*
X170450000Y-51010000D02*
X170080000Y-50540000D01*
X170520000Y-46560000D02*
X171020000Y-45620000D01*
X170620000Y-48580000D02*
X170020000Y-47480000D01*
X170720000Y-51510000D02*
X170450000Y-51010000D01*
X170760000Y-53150000D02*
X170860000Y-52000000D01*
X170860000Y-52000000D02*
X170720000Y-51510000D01*
X170870000Y-42050000D02*
X170120000Y-41680000D01*
X171020000Y-45620000D02*
X171600000Y-44200000D01*
X171180000Y-42270000D02*
X170870000Y-42050000D01*
X171320000Y-59540000D02*
X169870000Y-57820000D01*
X171600000Y-44200000D02*
X171700000Y-43050000D01*
X171670000Y-165600000D02*
X172290000Y-165300000D01*
X171700000Y-43050000D02*
X171180000Y-42270000D01*
X172290000Y-165300000D02*
X173620000Y-164140000D01*
X172320000Y-62020000D02*
X171320000Y-59540000D01*
X173510000Y-64190000D02*
X172320000Y-62020000D01*
X173620000Y-164140000D02*
X174710000Y-162880000D01*
X173740000Y-73240000D02*
X173750000Y-70510000D01*
X173750000Y-70510000D02*
X173830000Y-67050000D01*
X173830000Y-67050000D02*
X173510000Y-64190000D01*
X174420000Y-75030000D02*
X173740000Y-73240000D01*
X174710000Y-162880000D02*
X175250000Y-162160000D01*
X175250000Y-162160000D02*
X176120000Y-160240000D01*
X176120000Y-160240000D02*
X176710000Y-158050000D01*
X176710000Y-158050000D02*
X177030000Y-156240000D01*
X176810000Y-77270000D02*
X174420000Y-75030000D01*
X177030000Y-156240000D02*
X177370000Y-152830000D01*
X177150000Y-95330000D02*
X177520000Y-93780000D01*
X177370000Y-152830000D02*
X177800000Y-148340000D01*
X177390000Y-98510000D02*
X177150000Y-95330000D01*
X177520000Y-93780000D02*
X179410000Y-92940000D01*
X177540000Y-99660000D02*
X177390000Y-98510000D01*
X177800000Y-148340000D02*
X178000000Y-146200000D01*
X178000000Y-146200000D02*
X178320000Y-136850000D01*
X178050000Y-103510000D02*
X177540000Y-99660000D01*
X178320000Y-136850000D02*
X178620000Y-128740000D01*
X178410000Y-107260000D02*
X178050000Y-103510000D01*
X178620000Y-128740000D02*
X178760000Y-122310000D01*
X178710000Y-110770000D02*
X178410000Y-107260000D01*
X178740000Y-111390000D02*
X178710000Y-110770000D01*
X178760000Y-122310000D02*
X178860000Y-118390000D01*
X178770000Y-112780000D02*
X178740000Y-111390000D01*
X178800000Y-115460000D02*
X178770000Y-112780000D01*
X178860000Y-118390000D02*
X178800000Y-115460000D01*
X179410000Y-92940000D02*
X182360000Y-92520000D01*
X181340000Y-80250000D02*
X176810000Y-77270000D01*
X182360000Y-92520000D02*
X184320000Y-91850000D01*
X183090000Y-81400000D02*
X181340000Y-80250000D01*
X184130000Y-83510000D02*
X183090000Y-81400000D01*
X184320000Y-91850000D02*
X185320000Y-90260000D01*
X184790000Y-85140000D02*
X184130000Y-83510000D01*
X185320000Y-90260000D02*
X185480000Y-87090000D01*
X185480000Y-87090000D02*
X184790000Y-85140000D01*
M02*
