<?xml version="1.0" standalone="no"?>
 <!DOCTYPE svg PUBLIC "-//W3C//DTD SVG 1.1//EN" 
 "http://www.w3.org/Graphics/SVG/1.1/DTD/svg11.dtd"> 
<svg
  xmlns:svg="http://www.w3.org/2000/svg"
  xmlns="http://www.w3.org/2000/svg"
  xmlns:xlink="http://www.w3.org/1999/xlink"
  version="1.1"
  width="150.6728mm" height="141.4272mm" viewBox="0.0000 0.0000 150.6728 141.4272">
<title>SVG Image created as g0dzilla_vs_sao1-brd.svg date 2024/06/17 13:32:09 </title>
  <desc>Image generated by PCBNEW </desc>
<g style="fill:#000000; fill-opacity:1.0000;stroke:#000000; stroke-opacity:1.0000;
stroke-linecap:round; stroke-linejoin:round;"
 transform="translate(0 0) scale(1 1)">
</g>
<g style="fill:#000000; fill-opacity:0.0; 
stroke:#000000; stroke-width:0.0000; stroke-opacity:1; 
stroke-linecap:round; stroke-linejoin:round;">
</g>
<g style="fill:#000000; fill-opacity:0.0; 
stroke:#000000; stroke-width:0.1200; stroke-opacity:1; 
stroke-linecap:round; stroke-linejoin:round;">
<path d="M37.3098 76.2655
L37.3098 75.0655
" />
<path d="M37.3598 71.8655
L37.3598 73.0655
" />
<path d="M37.3598 71.8655
L67.2598 71.8655
" />
<path d="M45.8098 76.5655
L45.8098 76.2655
" />
<path d="M45.8098 88.1655
L45.8098 82.3655
" />
<path d="M45.8598 59.9655
L58.7598 59.9655
" />
<path d="M45.8598 65.7655
L45.8598 59.9655
" />
<path d="M45.8598 65.7655
L58.7598 65.7655
" />
<path d="M45.8598 71.5655
L45.8598 71.8655
" />
<path d="M50.2098 89.0655
L50.2098 88.1655
" />
<path d="M50.2598 59.0655
L50.2598 59.9655
" />
<path d="M50.2598 59.0655
L54.3598 59.0655
" />
<path d="M54.3098 89.0655
L50.2098 89.0655
" />
<path d="M54.3098 89.0655
L54.3098 88.1655
" />
<path d="M54.3598 59.0655
L54.3598 59.9655
" />
<path d="M58.7098 76.5655
L58.7098 76.2655
" />
<path d="M58.7098 82.3655
L45.8098 82.3655
" />
<path d="M58.7098 82.3655
L58.7098 88.1655
" />
<path d="M58.7098 88.1655
L45.8098 88.1655
" />
<path d="M58.7598 59.9655
L58.7598 65.7655
" />
<path d="M58.7598 71.5655
L58.7598 71.8655
" />
<path d="M67.2098 76.2655
L37.3098 76.2655
" />
<path d="M67.2098 76.2655
L67.2098 75.0655
" />
<path d="M67.2598 71.8655
L67.2598 73.0655
" />
<path d="M78.3898 76.2655
L78.3898 75.0655
" />
<path d="M78.4398 71.8655
L78.4398 73.0655
" />
<path d="M78.4398 71.8655
L108.3398 71.8655
" />
<path d="M86.8898 76.5655
L86.8898 76.2655
" />
<path d="M86.8898 88.1655
L86.8898 82.3655
" />
<path d="M86.9398 59.9655
L99.8398 59.9655
" />
<path d="M86.9398 65.7655
L86.9398 59.9655
" />
<path d="M86.9398 65.7655
L99.8398 65.7655
" />
<path d="M86.9398 71.5655
L86.9398 71.8655
" />
<path d="M91.2898 89.0655
L91.2898 88.1655
" />
<path d="M91.3398 59.0655
L91.3398 59.9655
" />
<path d="M91.3398 59.0655
L95.4398 59.0655
" />
<path d="M95.3898 89.0655
L91.2898 89.0655
" />
<path d="M95.3898 89.0655
L95.3898 88.1655
" />
<path d="M95.4398 59.0655
L95.4398 59.9655
" />
<path d="M99.7898 76.5655
L99.7898 76.2655
" />
<path d="M99.7898 82.3655
L86.8898 82.3655
" />
<path d="M99.7898 82.3655
L99.7898 88.1655
" />
<path d="M99.7898 88.1655
L86.8898 88.1655
" />
<path d="M99.8398 59.9655
L99.8398 65.7655
" />
<path d="M99.8398 71.5655
L99.8398 71.8655
" />
<path d="M108.2898 76.2655
L78.3898 76.2655
" />
<path d="M108.2898 76.2655
L108.2898 75.0655
" />
<path d="M108.3398 71.8655
L108.3398 73.0655
" />
</g>
<g style="fill:#000000; fill-opacity:0.0; 
stroke:#000000; stroke-width:0.1000; stroke-opacity:1; 
stroke-linecap:round; stroke-linejoin:round;">
<path d="M50.6298 60.7355
L48.9298 60.7355
" />
<path d="M48.9298 60.7355
L48.9298 62.4355
" />
<path d="M48.9298 62.4355
L50.6298 62.4355
" />
<path d="M50.6298 62.4355
L50.6298 60.7355
" />
<path d="M53.9398 87.3955
L55.6398 87.3955
" />
<path d="M55.6398 87.3955
L55.6398 85.6955
" />
<path d="M55.6398 85.6955
L53.9398 85.6955
" />
<path d="M53.9398 85.6955
L53.9398 87.3955
" />
<path d="M91.7098 60.7355
L90.0098 60.7355
" />
<path d="M90.0098 60.7355
L90.0098 62.4355
" />
<path d="M90.0098 62.4355
L91.7098 62.4355
" />
<path d="M91.7098 62.4355
L91.7098 60.7355
" />
<path d="M95.0198 87.3955
L96.7198 87.3955
" />
<path d="M96.7198 87.3955
L96.7198 85.6955
" />
<path d="M96.7198 85.6955
L95.0198 85.6955
" />
<path d="M95.0198 85.6955
L95.0198 87.3955
" />
<circle cx="49.7198" cy="83.9955" r="0.8636" /> 
<circle cx="49.7198" cy="86.5355" r="0.8636" /> 
<circle cx="49.7698" cy="64.1355" r="0.8636" /> 
<circle cx="52.2598" cy="83.9955" r="0.8636" /> 
<circle cx="52.2598" cy="86.5355" r="0.8636" /> 
<circle cx="52.3098" cy="61.5955" r="0.8636" /> 
<circle cx="52.3098" cy="64.1355" r="0.8636" /> 
<circle cx="54.7998" cy="83.9955" r="0.8636" /> 
<circle cx="54.8498" cy="61.5955" r="0.8636" /> 
<circle cx="54.8498" cy="64.1355" r="0.8636" /> 
<circle cx="90.7998" cy="83.9955" r="0.8636" /> 
<circle cx="90.7998" cy="86.5355" r="0.8636" /> 
<circle cx="90.8498" cy="64.1355" r="0.8636" /> 
<circle cx="93.3398" cy="83.9955" r="0.8636" /> 
<circle cx="93.3398" cy="86.5355" r="0.8636" /> 
<circle cx="93.3898" cy="61.5955" r="0.8636" /> 
<circle cx="93.3898" cy="64.1355" r="0.8636" /> 
<circle cx="95.8798" cy="83.9955" r="0.8636" /> 
<circle cx="95.9298" cy="61.5955" r="0.8636" /> 
<circle cx="95.9298" cy="64.1355" r="0.8636" /> 
<g >
</g>
<g >
</g>
<g >
</g>
<g >
</g>
</g>
<g style="fill:#000000; fill-opacity:0.0; 
stroke:#000000; stroke-width:0.1000; stroke-opacity:1; 
stroke-linecap:round; stroke-linejoin:round;">
</g>
<g style="fill:#000000; fill-opacity:0.0; 
stroke:#000000; stroke-width:0.0500; stroke-opacity:1; 
stroke-linecap:round; stroke-linejoin:round;">
<circle cx="37.3098" cy="74.0655" r="0.0600" /> 
<circle cx="41.3098" cy="74.0655" r="0.0600" /> 
<circle cx="63.2098" cy="74.0655" r="0.0600" /> 
<circle cx="67.2098" cy="74.0655" r="0.0600" /> 
<circle cx="72.7998" cy="64.7955" r="0.0600" /> 
<circle cx="72.7998" cy="68.7955" r="0.0600" /> 
<circle cx="72.8498" cy="79.3355" r="0.0600" /> 
<circle cx="72.8498" cy="83.3355" r="0.0600" /> 
<circle cx="78.3898" cy="74.0655" r="0.0600" /> 
<circle cx="82.3898" cy="74.0655" r="0.0600" /> 
<circle cx="104.2898" cy="74.0655" r="0.0600" /> 
<circle cx="108.2898" cy="74.0655" r="0.0600" /> 
</g>
<g style="fill:#000000; fill-opacity:1.0000; 
stroke:#000000; stroke-width:0.0000; stroke-opacity:1; 
stroke-linecap:round; stroke-linejoin:round;">
<path style="fill:#000000; fill-opacity:1.0000; 
stroke:#000000; stroke-width:0.0000; stroke-opacity:1; 
stroke-linecap:round; stroke-linejoin:round;fill-rule:evenodd;"
d="M 2.3955,82.9235
2.3955,83.9694
3.5268,83.9694
4.6580,83.9694
4.6580,84.1615
4.6580,84.3536
3.5268,84.3536
2.3955,84.3536
2.3955,85.3995
2.3955,86.4454
2.2247,86.4454
2.0540,86.4454
2.0540,85.3995
2.0540,84.3536
1.0294,84.3536
0.0049,84.3536
0.0049,84.1615
0.0049,83.9694
1.0294,83.9694
2.0540,83.9694
2.0540,82.9235
2.0540,81.8776
2.2247,81.8776
2.3955,81.8776
Z" /> 
<path style="fill:#000000; fill-opacity:1.0000; 
stroke:#000000; stroke-width:0.0000; stroke-opacity:1; 
stroke-linecap:round; stroke-linejoin:round;fill-rule:evenodd;"
d="M 2.4382,1.0672
2.4382,2.1345
3.5694,2.1345
4.7007,2.1345
4.7007,2.3045
4.7007,2.4745
3.5801,2.4859
2.4595,2.4973
2.4481,3.5539
2.4367,4.6104
2.2667,4.6104
2.0967,4.6104
2.0967,3.5432
2.0967,2.4760
1.0508,2.4760
0.0049,2.4760
0.0049,2.3052
0.0049,2.1345
1.0508,2.1345
2.0967,2.1345
2.0967,1.0672
2.0967,0.0000
2.2674,0.0000
2.4382,0.0000
Z" /> 
<path style="fill:#000000; fill-opacity:1.0000; 
stroke:#000000; stroke-width:0.0000; stroke-opacity:1; 
stroke-linecap:round; stroke-linejoin:round;fill-rule:evenodd;"
d="M 2.4382,37.0755
2.4382,38.1213
3.5719,38.1213
4.7056,38.1213
4.6925,38.3028
4.6794,38.4842
3.5588,38.4956
2.4382,38.5070
2.4382,39.5521
2.4382,40.5973
2.2674,40.5973
2.0967,40.5973
2.0967,39.5522
2.0967,38.5071
1.0615,38.4956
0.0263,38.4842
0.0131,38.3028
0.0000,38.1213
1.0483,38.1213
2.0967,38.1213
2.0967,37.0755
2.0967,36.0296
2.2674,36.0296
2.4382,36.0296
Z" /> 
<path style="fill:#000000; fill-opacity:1.0000; 
stroke:#000000; stroke-width:0.0000; stroke-opacity:1; 
stroke-linecap:round; stroke-linejoin:round;fill-rule:evenodd;"
d="M 2.5236,137.8430
2.5236,138.9103
3.6548,138.9103
4.7861,138.9103
4.7861,139.0810
4.7861,139.2518
3.6548,139.2518
2.5236,139.2518
2.5236,140.3190
2.5236,141.3862
2.3536,141.3862
2.1835,141.3862
2.1721,140.3297
2.1607,139.2731
1.1255,139.2617
0.0903,139.2502
0.0903,139.0803
0.0903,138.9103
1.1362,138.9103
2.1821,138.9103
2.1821,137.8430
2.1821,136.7758
2.3528,136.7758
2.5236,136.7758
Z" /> 
<path style="fill:#000000; fill-opacity:1.0000; 
stroke:#000000; stroke-width:0.0000; stroke-opacity:1; 
stroke-linecap:round; stroke-linejoin:round;fill-rule:evenodd;"
d="M 148.1894,36.0378
148.3708,36.0509
148.3822,37.1075
148.3936,38.1640
149.5028,38.1640
150.6120,38.1640
150.6120,38.3348
150.6120,38.5055
149.5028,38.5055
148.3936,38.5055
148.3822,39.5621
148.3708,40.6187
148.1894,40.6318
148.0079,40.6449
148.0079,39.5752
148.0079,38.5055
146.9834,38.5055
145.9589,38.5055
145.9589,38.3348
145.9589,38.1640
146.9834,38.1640
148.0079,38.1640
148.0079,37.0944
148.0079,36.0247
Z" /> 
<path style="fill:#000000; fill-opacity:1.0000; 
stroke:#000000; stroke-width:0.0000; stroke-opacity:1; 
stroke-linecap:round; stroke-linejoin:round;fill-rule:evenodd;"
d="M 148.3494,82.9424
148.3494,84.0121
149.4594,84.0121
150.5693,84.0121
150.5693,84.1829
150.5693,84.3536
149.4594,84.3536
148.3494,84.3536
148.3494,85.4208
148.3494,86.4881
148.1573,86.4881
147.9652,86.4881
147.9652,85.4208
147.9652,84.3536
146.9407,84.3536
145.9162,84.3536
145.9162,84.1829
145.9162,84.0121
146.9400,84.0121
147.9638,84.0121
147.9752,82.9555
147.9866,81.8990
148.1680,81.8859
148.3494,81.8727
Z" /> 
<path style="fill:#000000; fill-opacity:1.0000; 
stroke:#000000; stroke-width:0.0000; stroke-opacity:1; 
stroke-linecap:round; stroke-linejoin:round;fill-rule:evenodd;"
d="M 148.3921,1.1099
148.3921,2.1771
149.5021,2.1771
150.6120,2.1771
150.6120,2.3479
150.6120,2.5187
149.5028,2.5187
148.3936,2.5187
148.3822,3.5752
148.3708,4.6318
148.1894,4.6449
148.0079,4.6580
148.0079,3.5883
148.0079,2.5187
146.9834,2.5187
145.9589,2.5187
145.9589,2.3479
145.9589,2.1771
146.9834,2.1771
148.0079,2.1771
148.0079,1.1099
148.0079,0.0427
148.2000,0.0427
148.3921,0.0427
Z" /> 
<path style="fill:#000000; fill-opacity:1.0000; 
stroke:#000000; stroke-width:0.0000; stroke-opacity:1; 
stroke-linecap:round; stroke-linejoin:round;fill-rule:evenodd;"
d="M 148.4775,137.8857
148.4775,138.9529
149.5874,138.9529
150.6973,138.9529
150.6973,139.1237
150.6973,139.2945
149.5882,139.2945
148.4790,139.2945
148.4676,140.3510
148.4562,141.4076
148.2747,141.4207
148.0933,141.4338
148.0933,140.3641
148.0933,139.2945
147.0688,139.2945
146.0442,139.2945
146.0442,139.1237
146.0442,138.9529
147.0688,138.9529
148.0933,138.9529
148.0933,137.8857
148.0933,136.8185
148.2854,136.8185
148.4775,136.8185
Z" /> 
<g >
</g>
<g >
</g>
<g >
</g>
<g >
</g>
</g> 
</svg>
