<?xml version="1.0" standalone="no"?>
 <!DOCTYPE svg PUBLIC "-//W3C//DTD SVG 1.1//EN" 
 "http://www.w3.org/Graphics/SVG/1.1/DTD/svg11.dtd"> 
<svg
  xmlns:svg="http://www.w3.org/2000/svg"
  xmlns="http://www.w3.org/2000/svg"
  xmlns:xlink="http://www.w3.org/1999/xlink"
  version="1.1"
  width="163.0426mm" height="159.2326mm" viewBox="0.0000 0.0000 163.0426 159.2326">
<title>SVG Image created as g0dzilla_vs-brd.svg date 2024/06/03 18:05:34 </title>
  <desc>Image generated by PCBNEW </desc>
<g style="fill:#000000; fill-opacity:1.0000;stroke:#000000; stroke-opacity:1.0000;
stroke-linecap:round; stroke-linejoin:round;"
 transform="translate(0 0) scale(1 1)">
</g>
<g style="fill:#000000; fill-opacity:0.0; 
stroke:#000000; stroke-width:0.0000; stroke-opacity:1; 
stroke-linecap:round; stroke-linejoin:round;">
</g>
<g style="fill:#000000; fill-opacity:1.0000; 
stroke:#000000; stroke-width:0.0000; stroke-opacity:1; 
stroke-linecap:round; stroke-linejoin:round;">
<path style="fill:#000000; fill-opacity:1.0000; 
stroke:#000000; stroke-width:0.0000; stroke-opacity:1; 
stroke-linecap:round; stroke-linejoin:round;fill-rule:evenodd;"
d="M 14.7933,1.0672
14.7933,2.1345
15.9245,2.1345
17.0558,2.1345
17.0558,2.3045
17.0558,2.4745
15.9352,2.4859
14.8146,2.4973
14.8032,3.5539
14.7918,4.6104
14.6218,4.6104
14.4518,4.6104
14.4518,3.5432
14.4518,2.4760
13.4059,2.4760
12.3600,2.4760
12.3600,2.3052
12.3600,2.1345
13.4059,2.1345
14.4518,2.1345
14.4518,1.0672
14.4518,0.0000
14.6225,0.0000
14.7933,0.0000
Z" /> 
<path style="fill:#000000; fill-opacity:1.0000; 
stroke:#000000; stroke-width:0.0000; stroke-opacity:1; 
stroke-linecap:round; stroke-linejoin:round;fill-rule:evenodd;"
d="M 14.7933,37.0755
14.7933,38.1213
15.9270,38.1213
17.0607,38.1213
17.0476,38.3028
17.0345,38.4842
15.9139,38.4956
14.7933,38.5070
14.7933,39.5521
14.7933,40.5973
14.6225,40.5973
14.4518,40.5973
14.4518,39.5522
14.4518,38.5071
13.4166,38.4956
12.3813,38.4842
12.3682,38.3028
12.3551,38.1213
13.4034,38.1213
14.4518,38.1213
14.4518,37.0755
14.4518,36.0296
14.6225,36.0296
14.7933,36.0296
Z" /> 
<path style="fill:#000000; fill-opacity:1.0000; 
stroke:#000000; stroke-width:0.0000; stroke-opacity:1; 
stroke-linecap:round; stroke-linejoin:round;fill-rule:evenodd;"
d="M 14.7933,82.9235
14.7933,83.9694
15.9032,83.9694
17.0131,83.9694
17.0131,84.1615
17.0131,84.3536
15.9032,84.3536
14.7933,84.3536
14.7933,85.3995
14.7933,86.4454
14.6012,86.4454
14.4091,86.4454
14.4091,85.3995
14.4091,84.3536
13.3845,84.3536
12.3600,84.3536
12.3600,84.1615
12.3600,83.9694
13.3845,83.9694
14.4091,83.9694
14.4091,82.9235
14.4091,81.8776
14.6012,81.8776
14.7933,81.8776
Z" /> 
<path style="fill:#000000; fill-opacity:1.0000; 
stroke:#000000; stroke-width:0.0000; stroke-opacity:1; 
stroke-linecap:round; stroke-linejoin:round;fill-rule:evenodd;"
d="M 14.8787,137.8430
14.8787,138.9103
16.0099,138.9103
17.1412,138.9103
17.1412,139.0803
17.1412,139.2503
16.0206,139.2617
14.9000,139.2731
14.8886,140.3297
14.8772,141.3862
14.7072,141.3862
14.5371,141.3862
14.5371,140.3190
14.5371,139.2518
13.5126,139.2518
12.4881,139.2518
12.4881,139.0810
12.4881,138.9103
13.5126,138.9103
14.5371,138.9103
14.5371,137.8430
14.5371,136.7758
14.7079,136.7758
14.8787,136.7758
Z" /> 
<path style="fill:#000000; fill-opacity:1.0000; 
stroke:#000000; stroke-width:0.0000; stroke-opacity:1; 
stroke-linecap:round; stroke-linejoin:round;fill-rule:evenodd;"
d="M 160.5445,36.0378
160.7259,36.0509
160.7373,37.1075
160.7487,38.1640
161.8579,38.1640
162.9671,38.1640
162.9671,38.3348
162.9671,38.5055
161.8579,38.5055
160.7487,38.5055
160.7373,39.5621
160.7259,40.6187
160.5445,40.6318
160.3630,40.6449
160.3630,39.5752
160.3630,38.5055
159.3385,38.5055
158.3139,38.5055
158.3139,38.3348
158.3139,38.1640
159.3385,38.1640
160.3630,38.1640
160.3630,37.0944
160.3630,36.0247
Z" /> 
<path style="fill:#000000; fill-opacity:1.0000; 
stroke:#000000; stroke-width:0.0000; stroke-opacity:1; 
stroke-linecap:round; stroke-linejoin:round;fill-rule:evenodd;"
d="M 160.7045,82.9449
160.7045,84.0121
161.8358,84.0121
162.9671,84.0121
162.9671,84.1829
162.9671,84.3536
161.8358,84.3536
160.7045,84.3536
160.7045,85.4208
160.7045,86.4881
160.5345,86.4881
160.3645,86.4881
160.3531,85.4315
160.3417,84.3750
159.3065,84.3635
158.2713,84.3521
158.2713,84.1821
158.2713,84.0121
159.3171,84.0121
160.3630,84.0121
160.3630,82.9449
160.3630,81.8776
160.5338,81.8776
160.7045,81.8776
Z" /> 
<path style="fill:#000000; fill-opacity:1.0000; 
stroke:#000000; stroke-width:0.0000; stroke-opacity:1; 
stroke-linecap:round; stroke-linejoin:round;fill-rule:evenodd;"
d="M 160.7472,1.1099
160.7472,2.1771
161.8571,2.1771
162.9671,2.1771
162.9671,2.3479
162.9671,2.5187
161.8579,2.5187
160.7487,2.5187
160.7373,3.5752
160.7259,4.6318
160.5445,4.6449
160.3630,4.6580
160.3630,3.5883
160.3630,2.5187
159.3385,2.5187
158.3139,2.5187
158.3139,2.3479
158.3139,2.1771
159.3385,2.1771
160.3630,2.1771
160.3630,1.1099
160.3630,0.0427
160.5551,0.0427
160.7472,0.0427
Z" /> 
<path style="fill:#000000; fill-opacity:1.0000; 
stroke:#000000; stroke-width:0.0000; stroke-opacity:1; 
stroke-linecap:round; stroke-linejoin:round;fill-rule:evenodd;"
d="M 160.8326,137.8857
160.8326,138.9529
161.9425,138.9529
163.0524,138.9529
163.0524,139.1237
163.0524,139.2945
161.9425,139.2945
160.8326,139.2945
160.8326,140.3617
160.8326,141.4289
160.6690,141.4289
160.5562,141.4221
160.4839,141.4052
160.4769,141.4004
160.4690,141.3515
160.4619,141.2293
160.4560,141.0457
160.4516,140.8127
160.4490,140.5424
160.4484,140.3332
160.4484,139.2945
159.4239,139.2945
158.3993,139.2945
158.3993,139.1237
158.3993,138.9529
159.4239,138.9529
160.4484,138.9529
160.4484,137.8857
160.4484,136.8185
160.6405,136.8185
160.8326,136.8185
Z" /> 
<g >
</g>
<g >
</g>
<g >
</g>
<g >
</g>
</g>
<g style="fill:#000000; fill-opacity:1.0000; 
stroke:#000000; stroke-width:0.0000; stroke-opacity:1; 
stroke-linecap:round; stroke-linejoin:round;">
</g>
<g style="fill:#000000; fill-opacity:1.0000; 
stroke:#000000; stroke-width:0.1200; stroke-opacity:1; 
stroke-linecap:round; stroke-linejoin:round;">
</g>
<g style="fill:#000000; fill-opacity:0.0; 
stroke:#000000; stroke-width:0.1200; stroke-opacity:1; 
stroke-linecap:round; stroke-linejoin:round;">
<path d="M14.7049 51.1855
L15.8449 48.0855
" />
<path d="M14.8849 54.3555
L14.7049 51.1855
" />
<path d="M15.8449 48.0855
L17.1849 45.4055
" />
<path d="M15.8549 55.9455
L14.8849 54.3555
" />
<path d="M17.1849 45.4055
L23.3849 41.4255
" />
<path d="M17.7949 56.6055
L15.8549 55.9455
" />
<path d="M20.6849 57.0155
L17.7949 56.6055
" />
<path d="M21.5349 73.9655
L22.1249 67.6155
" />
<path d="M21.7449 78.3455
L21.5349 73.9655
" />
<path d="M22.1249 67.6155
L22.8149 62.4755
" />
<path d="M22.3749 81.4155
L21.7449 78.3455
" />
<path d="M22.5349 81.8255
L22.3749 81.4155
" />
<path d="M22.6549 57.9155
L20.6849 57.0155
" />
<path d="M22.8149 62.4755
L22.9749 60.3355
" />
<path d="M22.9749 60.3355
L23.0049 59.3455
" />
<path d="M23.0049 59.3455
L22.6549 57.9155
" />
<path d="M23.2949 83.4255
L22.5349 81.8255
" />
<path d="M23.3849 41.4255
L25.6749 39.2055
" />
<path d="M24.5649 85.5655
L23.2949 83.4255
" />
<path d="M25.5049 86.8455
L24.5649 85.5655
" />
<path d="M25.6749 39.2055
L26.4249 37.3355
" />
<path d="M26.2049 87.5055
L25.5049 86.8455
" />
<path d="M26.3149 31.2555
L26.6549 28.3155
" />
<path d="M26.4249 37.3355
L26.4549 36.8955
" />
<path d="M26.4549 36.8955
L26.3149 31.2555
" />
<path d="M26.6549 28.3155
L27.8549 26.0555
" />
<path d="M27.0649 87.9855
L26.2049 87.5055
" />
<path d="M27.8549 26.0555
L28.7949 23.7855
" />
<path d="M28.1049 88.3555
L27.0649 87.9855
" />
<path d="M28.5249 7.1855
L28.6049 6.9555
" />
<path d="M28.5949 8.3455
L28.5249 7.1855
" />
<path d="M28.6049 6.9555
L29.0449 6.3655
" />
<path d="M28.7949 23.7855
L29.8049 22.4655
" />
<path d="M29.0449 6.3655
L29.4549 6.0455
" />
<path d="M29.1349 9.6555
L28.5949 8.3455
" />
<path d="M29.1549 88.6155
L28.1049 88.3555
" />
<path d="M29.3349 16.1355
L29.4649 15.6555
" />
<path d="M29.4349 17.2855
L29.3349 16.1355
" />
<path d="M29.4549 6.0455
L30.0049 5.7655
" />
<path d="M29.4649 15.6555
L29.6549 15.2655
" />
<path d="M29.5749 10.5655
L29.1349 9.6555
" />
<path d="M29.5949 12.6455
L29.6449 12.4655
" />
<path d="M29.6149 12.7955
L29.5949 12.6455
" />
<path d="M29.6449 12.4655
L30.1349 11.6255
" />
<path d="M29.6549 15.2655
L29.9149 14.8655
" />
<path d="M29.8049 22.4655
L31.0349 21.2155
" />
<path d="M29.8149 13.2755
L29.6149 12.7955
" />
<path d="M29.9149 14.8655
L30.1049 14.6355
" />
<path d="M29.9549 13.7755
L29.8149 13.2755
" />
<path d="M30.0049 5.7655
L30.6749 5.6155
" />
<path d="M30.0649 14.2755
L29.9549 13.7755
" />
<path d="M30.1049 14.6355
L30.0649 14.2755
" />
<path d="M30.1149 11.4855
L29.5749 10.5655
" />
<path d="M30.1149 88.7455
L29.1549 88.6155
" />
<path d="M30.1349 11.6255
L30.1149 11.4855
" />
<path d="M30.6749 5.6155
L31.2649 5.5655
" />
<path d="M31.0349 21.2155
L29.4349 17.2855
" />
<path d="M31.0649 88.9555
L30.1149 88.7455
" />
<path d="M31.2649 5.5655
L31.8949 5.6355
" />
<path d="M31.8949 5.6355
L32.5649 5.8755
" />
<path d="M32.0149 89.2855
L31.0649 88.9555
" />
<path d="M32.5649 5.8755
L33.0549 6.0955
" />
<path d="M32.7649 89.6955
L32.0149 89.2855
" />
<path d="M33.0549 6.0955
L35.4849 5.6755
" />
<path d="M33.9849 90.6155
L32.7649 89.6955
" />
<path d="M35.4849 5.6755
L38.1249 5.6755
" />
<path d="M37.5549 93.7455
L33.9849 90.6155
" />
<path d="M38.1249 5.6755
L38.9749 5.9055
" />
<path d="M38.9749 5.9055
L40.8249 6.6155
" />
<path d="M40.8249 6.6155
L41.7649 6.3155
" />
<path d="M41.6849 97.7155
L37.5549 93.7455
" />
<path d="M41.7649 6.3155
L42.8049 6.0655
" />
<path d="M42.8049 6.0655
L43.6449 5.9955
" />
<path d="M43.4349 100.2955
L41.6849 97.7155
" />
<path d="M43.6449 5.9955
L44.8049 6.0255
" />
<path d="M44.8049 6.0255
L45.7649 6.1655
" />
<path d="M45.7649 6.1655
L46.7949 6.5355
" />
<path d="M46.7949 6.5355
L48.4649 7.2155
" />
<path d="M47.4149 106.3255
L43.4349 100.2955
" />
<path d="M48.1649 107.5155
L47.4149 106.3255
" />
<path d="M48.4649 7.2155
L49.5149 8.1155
" />
<path d="M48.4749 108.0955
L48.1649 107.5155
" />
<path d="M48.6849 108.6355
L48.4749 108.0955
" />
<path d="M48.7549 109.1855
L48.6849 108.6355
" />
<path d="M48.8049 115.5855
L48.7549 109.1855
" />
<path d="M48.8249 126.1755
L48.8049 115.5855
" />
<path d="M48.9349 127.3955
L48.8249 126.1755
" />
<path d="M49.3149 128.4855
L48.9349 127.3955
" />
<path d="M49.5149 8.1155
L51.5249 10.4055
" />
<path d="M50.9049 131.7155
L49.3149 128.4855
" />
<path d="M51.5249 10.4055
L52.7849 11.7655
" />
<path d="M52.4749 132.9355
L50.9049 131.7155
" />
<path d="M52.7849 11.7655
L54.0849 13.0655
" />
<path d="M53.4049 133.6855
L52.4749 132.9355
" />
<path d="M53.8449 134.1155
L53.4049 133.6855
" />
<path d="M54.0849 13.0655
L55.2049 14.1755
" />
<path d="M54.4549 134.9755
L53.8449 134.1155
" />
<path d="M54.9649 135.8955
L54.4549 134.9755
" />
<path d="M55.2049 14.1755
L56.5749 15.1755
" />
<path d="M55.2349 137.1455
L54.9649 135.8955
" />
<path d="M56.1249 140.9555
L55.2349 137.1455
" />
<path d="M56.5749 15.1755
L58.3449 16.3255
" />
<path d="M57.4049 145.7055
L56.1249 140.9555
" />
<path d="M58.3449 16.3255
L64.4449 19.7555
" />
<path d="M59.9349 153.5355
L57.4049 145.7055
" />
<path d="M60.1449 154.0555
L59.9349 153.5355
" />
<path d="M60.8149 155.1555
L60.1449 154.0555
" />
<path d="M61.4549 155.8555
L60.8149 155.1555
" />
<path d="M62.2949 156.6355
L61.4549 155.8555
" />
<path d="M63.8849 157.4355
L62.2949 156.6355
" />
<path d="M64.4449 19.7555
L68.0549 21.6855
" />
<path d="M65.4349 158.0655
L63.8849 157.4355
" />
<path d="M67.4249 158.5755
L65.4349 158.0655
" />
<path d="M68.0549 21.6855
L69.8649 22.6855
" />
<path d="M69.8649 22.6855
L72.6449 23.6055
" />
<path d="M70.0549 159.1755
L67.4249 158.5755
" />
<path d="M70.0549 159.1755
L105.3100 159.1745
" />
<path d="M72.6449 23.6055
L73.7949 23.7455
" />
<path d="M73.7949 23.7455
L74.6549 23.8055
" />
<path d="M74.6549 23.8055
L75.0549 23.7855
" />
<path d="M75.0549 23.7855
L76.1649 23.5755
" />
<path d="M76.1649 23.5755
L77.1849 23.3455
" />
<path d="M77.1849 23.3455
L78.8449 23.0855
" />
<path d="M78.8449 23.0855
L80.7049 22.8555
" />
<path d="M80.7049 22.8555
L83.3449 22.6855
" />
<path d="M83.3449 22.6855
L86.3249 22.5255
" />
<path d="M86.3249 22.5255
L89.0400 22.5245
" />
<path d="M92.0200 22.6845
L89.0400 22.5245
" />
<path d="M94.6600 22.8545
L92.0200 22.6845
" />
<path d="M96.5200 23.0845
L94.6600 22.8545
" />
<path d="M98.1800 23.3445
L96.5200 23.0845
" />
<path d="M99.2000 23.5745
L98.1800 23.3445
" />
<path d="M100.3100 23.7845
L99.2000 23.5745
" />
<path d="M100.7100 23.8045
L100.3100 23.7845
" />
<path d="M101.5700 23.7445
L100.7100 23.8045
" />
<path d="M102.7200 23.6045
L101.5700 23.7445
" />
<path d="M105.3100 159.1745
L107.9400 158.5745
" />
<path d="M105.5000 22.6845
L102.7200 23.6045
" />
<path d="M107.3100 21.6845
L105.5000 22.6845
" />
<path d="M107.9400 158.5745
L109.9300 158.0645
" />
<path d="M109.9300 158.0645
L111.4800 157.4345
" />
<path d="M110.9200 19.7545
L107.3100 21.6845
" />
<path d="M111.4800 157.4345
L113.0700 156.6345
" />
<path d="M113.0700 156.6345
L113.9100 155.8545
" />
<path d="M113.9100 155.8545
L114.5500 155.1545
" />
<path d="M114.5500 155.1545
L115.2200 154.0545
" />
<path d="M115.2200 154.0545
L115.4300 153.5345
" />
<path d="M115.4300 153.5345
L117.9600 145.7045
" />
<path d="M117.0200 16.3245
L110.9200 19.7545
" />
<path d="M117.9600 145.7045
L119.2400 140.9545
" />
<path d="M118.7900 15.1745
L117.0200 16.3245
" />
<path d="M119.2400 140.9545
L120.1300 137.1445
" />
<path d="M120.1300 137.1445
L120.4000 135.8945
" />
<path d="M120.1600 14.1745
L118.7900 15.1745
" />
<path d="M120.4000 135.8945
L120.9100 134.9745
" />
<path d="M120.9100 134.9745
L121.5200 134.1145
" />
<path d="M121.2800 13.0645
L120.1600 14.1745
" />
<path d="M121.5200 134.1145
L121.9600 133.6845
" />
<path d="M121.9600 133.6845
L122.8900 132.9345
" />
<path d="M122.5800 11.7645
L121.2800 13.0645
" />
<path d="M122.8900 132.9345
L124.4600 131.7145
" />
<path d="M123.8400 10.4045
L122.5800 11.7645
" />
<path d="M124.4600 131.7145
L126.0500 128.4845
" />
<path d="M125.8500 8.1145
L123.8400 10.4045
" />
<path d="M126.0500 128.4845
L126.4300 127.3945
" />
<path d="M126.4300 127.3945
L126.5400 126.1745
" />
<path d="M126.5400 126.1745
L126.5600 115.5845
" />
<path d="M126.5600 115.5845
L126.6100 109.1845
" />
<path d="M126.6100 109.1845
L126.6800 108.6345
" />
<path d="M126.6800 108.6345
L126.8900 108.0945
" />
<path d="M126.8900 108.0945
L127.2000 107.5145
" />
<path d="M126.9000 7.2145
L125.8500 8.1145
" />
<path d="M127.2000 107.5145
L127.9500 106.3245
" />
<path d="M127.9500 106.3245
L131.9300 100.2945
" />
<path d="M128.5700 6.5345
L126.9000 7.2145
" />
<path d="M129.6000 6.1645
L128.5700 6.5345
" />
<path d="M130.5600 6.0245
L129.6000 6.1645
" />
<path d="M131.7200 5.9945
L130.5600 6.0245
" />
<path d="M131.9300 100.2945
L133.6800 97.7145
" />
<path d="M132.5600 6.0645
L131.7200 5.9945
" />
<path d="M133.6000 6.3145
L132.5600 6.0645
" />
<path d="M133.6800 97.7145
L137.8100 93.7445
" />
<path d="M134.5400 6.6145
L133.6000 6.3145
" />
<path d="M136.3900 5.9045
L134.5400 6.6145
" />
<path d="M137.2400 5.6745
L136.3900 5.9045
" />
<path d="M137.8100 93.7445
L141.3800 90.6145
" />
<path d="M139.8800 5.6745
L137.2400 5.6745
" />
<path d="M141.3800 90.6145
L142.6000 89.6945
" />
<path d="M142.3100 6.0945
L139.8800 5.6745
" />
<path d="M142.6000 89.6945
L143.3500 89.2845
" />
<path d="M142.8000 5.8745
L142.3100 6.0945
" />
<path d="M143.3500 89.2845
L144.3000 88.9545
" />
<path d="M143.4700 5.6345
L142.8000 5.8745
" />
<path d="M144.1000 5.5645
L143.4700 5.6345
" />
<path d="M144.3000 88.9545
L145.2500 88.7445
" />
<path d="M144.3300 21.2145
L145.9300 17.2845
" />
<path d="M144.6900 5.6145
L144.1000 5.5645
" />
<path d="M145.2300 11.6245
L145.2500 11.4845
" />
<path d="M145.2500 11.4845
L145.7900 10.5645
" />
<path d="M145.2500 88.7445
L146.2100 88.6145
" />
<path d="M145.2600 14.6345
L145.3000 14.2745
" />
<path d="M145.3000 14.2745
L145.4100 13.7745
" />
<path d="M145.3600 5.7645
L144.6900 5.6145
" />
<path d="M145.4100 13.7745
L145.5500 13.2745
" />
<path d="M145.4500 14.8645
L145.2600 14.6345
" />
<path d="M145.5500 13.2745
L145.7500 12.7945
" />
<path d="M145.5600 22.4645
L144.3300 21.2145
" />
<path d="M145.7100 15.2645
L145.4500 14.8645
" />
<path d="M145.7200 12.4645
L145.2300 11.6245
" />
<path d="M145.7500 12.7945
L145.7700 12.6445
" />
<path d="M145.7700 12.6445
L145.7200 12.4645
" />
<path d="M145.7900 10.5645
L146.2300 9.6545
" />
<path d="M145.9000 15.6545
L145.7100 15.2645
" />
<path d="M145.9100 6.0445
L145.3600 5.7645
" />
<path d="M145.9300 17.2845
L146.0300 16.1345
" />
<path d="M146.0300 16.1345
L145.9000 15.6545
" />
<path d="M146.2100 88.6145
L147.2600 88.3545
" />
<path d="M146.2300 9.6545
L146.7700 8.3445
" />
<path d="M146.3200 6.3645
L145.9100 6.0445
" />
<path d="M146.5700 23.7845
L145.5600 22.4645
" />
<path d="M146.7600 6.9545
L146.3200 6.3645
" />
<path d="M146.7700 8.3445
L146.8400 7.1845
" />
<path d="M146.8400 7.1845
L146.7600 6.9545
" />
<path d="M147.2600 88.3545
L148.3000 87.9845
" />
<path d="M147.5100 26.0545
L146.5700 23.7845
" />
<path d="M148.3000 87.9845
L149.1600 87.5045
" />
<path d="M148.7100 28.3145
L147.5100 26.0545
" />
<path d="M148.9100 36.8945
L149.0500 31.2545
" />
<path d="M148.9400 37.3345
L148.9100 36.8945
" />
<path d="M149.0500 31.2545
L148.7100 28.3145
" />
<path d="M149.1600 87.5045
L149.8600 86.8445
" />
<path d="M149.6900 39.2045
L148.9400 37.3345
" />
<path d="M149.8600 86.8445
L150.8000 85.5645
" />
<path d="M150.8000 85.5645
L152.0700 83.4245
" />
<path d="M151.9800 41.4245
L149.6900 39.2045
" />
<path d="M152.0700 83.4245
L152.8300 81.8245
" />
<path d="M152.3600 59.3445
L152.7100 57.9145
" />
<path d="M152.3900 60.3345
L152.3600 59.3445
" />
<path d="M152.5500 62.4745
L152.3900 60.3345
" />
<path d="M152.7100 57.9145
L154.6800 57.0145
" />
<path d="M152.8300 81.8245
L152.9900 81.4145
" />
<path d="M152.9900 81.4145
L153.6200 78.3445
" />
<path d="M153.2400 67.6145
L152.5500 62.4745
" />
<path d="M153.6200 78.3445
L153.8300 73.9645
" />
<path d="M153.8300 73.9645
L153.2400 67.6145
" />
<path d="M154.6800 57.0145
L157.5700 56.6045
" />
<path d="M157.5700 56.6045
L159.5100 55.9445
" />
<path d="M158.1800 45.4045
L151.9800 41.4245
" />
<path d="M159.5100 55.9445
L160.4800 54.3545
" />
<path d="M159.5200 48.0845
L158.1800 45.4045
" />
<path d="M160.4800 54.3545
L160.6600 51.1845
" />
<path d="M160.6600 51.1845
L159.5200 48.0845
" />
<g >
</g>
<g >
</g>
<g >
</g>
<g >
</g>
</g> 
</svg>
