<?xml version="1.0" standalone="no"?>
 <!DOCTYPE svg PUBLIC "-//W3C//DTD SVG 1.1//EN" 
 "http://www.w3.org/Graphics/SVG/1.1/DTD/svg11.dtd"> 
<svg
  xmlns:svg="http://www.w3.org/2000/svg"
  xmlns="http://www.w3.org/2000/svg"
  xmlns:xlink="http://www.w3.org/1999/xlink"
  version="1.1"
  width="162.4584mm" height="168.6306mm" viewBox="0.0000 0.0000 162.4584 168.6306">
<title>SVG Image created as g0dzilla_vs-brd.svg date 2024/06/03 18:06:57 </title>
  <desc>Image generated by PCBNEW </desc>
<g style="fill:#000000; fill-opacity:1.0000;stroke:#000000; stroke-opacity:1.0000;
stroke-linecap:round; stroke-linejoin:round;"
 transform="translate(0 0) scale(1 1)">
</g>
<g style="fill:#000000; fill-opacity:0.0; 
stroke:#000000; stroke-width:0.0000; stroke-opacity:1; 
stroke-linecap:round; stroke-linejoin:round;">
</g>
<g style="fill:#000000; fill-opacity:1.0000; 
stroke:#000000; stroke-width:0.0000; stroke-opacity:1; 
stroke-linecap:round; stroke-linejoin:round;">
<path style="fill:#000000; fill-opacity:1.0000; 
stroke:#000000; stroke-width:0.0000; stroke-opacity:1; 
stroke-linecap:round; stroke-linejoin:round;fill-rule:evenodd;"
d="M 14.2204,10.4828
14.2204,11.5500
15.3517,11.5500
16.4829,11.5500
16.4829,11.7200
16.4829,11.8901
15.3624,11.9015
14.2418,11.9129
14.2303,12.9694
14.2189,14.0260
14.0489,14.0260
13.8789,14.0260
13.8789,12.9587
13.8789,11.8915
12.8330,11.8915
11.7871,11.8915
11.7871,11.7208
11.7871,11.5500
12.8330,11.5500
13.8789,11.5500
13.8789,10.4828
13.8789,9.4155
14.0497,9.4155
14.2204,9.4155
Z" /> 
<path style="fill:#000000; fill-opacity:1.0000; 
stroke:#000000; stroke-width:0.0000; stroke-opacity:1; 
stroke-linecap:round; stroke-linejoin:round;fill-rule:evenodd;"
d="M 14.2204,46.4910
14.2204,47.5369
15.3541,47.5369
16.4878,47.5369
16.4747,47.7183
16.4616,47.8997
15.3410,47.9111
14.2204,47.9225
14.2204,48.9677
14.2204,50.0129
14.0497,50.0129
13.8789,50.0129
13.8789,48.9677
13.8789,47.9226
12.8437,47.9112
11.8085,47.8997
11.7954,47.7183
11.7822,47.5369
12.8306,47.5369
13.8789,47.5369
13.8789,46.4910
13.8789,45.4451
14.0497,45.4451
14.2204,45.4451
Z" /> 
<path style="fill:#000000; fill-opacity:1.0000; 
stroke:#000000; stroke-width:0.0000; stroke-opacity:1; 
stroke-linecap:round; stroke-linejoin:round;fill-rule:evenodd;"
d="M 14.2204,92.3391
14.2204,93.3850
15.3303,93.3850
16.4403,93.3850
16.4403,93.5771
16.4403,93.7692
15.3303,93.7692
14.2204,93.7692
14.2204,94.8150
14.2204,95.8609
14.0283,95.8609
13.8362,95.8609
13.8362,94.8150
13.8362,93.7692
12.8117,93.7692
11.7871,93.7692
11.7871,93.5771
11.7871,93.3850
12.8117,93.3850
13.8362,93.3850
13.8362,92.3391
13.8362,91.2932
14.0283,91.2932
14.2204,91.2932
Z" /> 
<path style="fill:#000000; fill-opacity:1.0000; 
stroke:#000000; stroke-width:0.0000; stroke-opacity:1; 
stroke-linecap:round; stroke-linejoin:round;fill-rule:evenodd;"
d="M 14.3058,147.2586
14.3058,148.3258
15.4371,148.3258
16.5683,148.3258
16.5683,148.4958
16.5683,148.6659
15.4477,148.6773
14.3271,148.6887
14.3157,149.7452
14.3043,150.8018
14.1343,150.8018
13.9643,150.8018
13.9643,149.7345
13.9643,148.6673
12.9397,148.6673
11.9152,148.6673
11.9152,148.4966
11.9152,148.3258
12.9397,148.3258
13.9643,148.3258
13.9643,147.2586
13.9643,146.1913
14.1350,146.1913
14.3058,146.1913
Z" /> 
<path style="fill:#000000; fill-opacity:1.0000; 
stroke:#000000; stroke-width:0.0000; stroke-opacity:1; 
stroke-linecap:round; stroke-linejoin:round;fill-rule:evenodd;"
d="M 159.9716,45.4533
160.1530,45.4665
160.1644,46.5230
160.1759,47.5796
161.2850,47.5796
162.3942,47.5796
162.3942,47.7503
162.3942,47.9211
161.2850,47.9211
160.1759,47.9211
160.1644,48.9776
160.1530,50.0342
159.9716,50.0473
159.7902,50.0605
159.7902,48.9908
159.7902,47.9211
158.7656,47.9211
157.7411,47.9211
157.7411,47.7503
157.7411,47.5796
158.7656,47.5796
159.7902,47.5796
159.7902,46.5099
159.7902,45.4402
Z" /> 
<path style="fill:#000000; fill-opacity:1.0000; 
stroke:#000000; stroke-width:0.0000; stroke-opacity:1; 
stroke-linecap:round; stroke-linejoin:round;fill-rule:evenodd;"
d="M 160.1317,92.3604
160.1317,93.4276
161.2629,93.4276
162.3942,93.4276
162.3942,93.5984
162.3942,93.7692
161.2629,93.7692
160.1317,93.7692
160.1317,94.8364
160.1317,95.9036
159.9617,95.9036
159.7917,95.9036
159.7802,94.8471
159.7688,93.7905
158.7336,93.7791
157.6984,93.7676
157.6984,93.5976
157.6984,93.4276
158.7443,93.4276
159.7902,93.4276
159.7902,92.3604
159.7902,91.2932
159.9609,91.2932
160.1317,91.2932
Z" /> 
<path style="fill:#000000; fill-opacity:1.0000; 
stroke:#000000; stroke-width:0.0000; stroke-opacity:1; 
stroke-linecap:round; stroke-linejoin:round;fill-rule:evenodd;"
d="M 160.1744,10.5255
160.1744,11.5927
161.2843,11.5927
162.3942,11.5927
162.3942,11.7634
162.3942,11.9342
161.2850,11.9342
160.1759,11.9342
160.1644,12.9908
160.1530,14.0473
159.9716,14.0604
159.7902,14.0736
159.7902,13.0039
159.7902,11.9342
158.7656,11.9342
157.7411,11.9342
157.7411,11.7634
157.7411,11.5927
158.7656,11.5927
159.7902,11.5927
159.7902,10.5255
159.7902,9.4582
159.9823,9.4582
160.1744,9.4582
Z" /> 
<path style="fill:#000000; fill-opacity:1.0000; 
stroke:#000000; stroke-width:0.0000; stroke-opacity:1; 
stroke-linecap:round; stroke-linejoin:round;fill-rule:evenodd;"
d="M 160.2597,147.3013
160.2597,148.3685
161.3697,148.3685
162.4796,148.3685
162.4796,148.5392
162.4796,148.7100
161.3697,148.7100
160.2597,148.7100
160.2597,149.7772
160.2597,150.8445
160.0961,150.8445
159.9833,150.8376
159.9111,150.8208
159.9040,150.8160
159.8961,150.7671
159.8890,150.6448
159.8831,150.4612
159.8787,150.2282
159.8761,149.9580
159.8755,149.7488
159.8755,148.7100
158.8510,148.7100
157.8265,148.7100
157.8265,148.5392
157.8265,148.3685
158.8510,148.3685
159.8755,148.3685
159.8755,147.3013
159.8755,146.2340
160.0676,146.2340
160.2597,146.2340
Z" /> 
<g >
</g>
<g >
</g>
<g >
</g>
<g >
</g>
</g>
<g style="fill:#000000; fill-opacity:1.0000; 
stroke:#000000; stroke-width:0.0000; stroke-opacity:1; 
stroke-linecap:round; stroke-linejoin:round;">
</g>
<g style="fill:#000000; fill-opacity:1.0000; 
stroke:#000000; stroke-width:0.1200; stroke-opacity:1; 
stroke-linecap:round; stroke-linejoin:round;">
</g>
<g style="fill:#000000; fill-opacity:0.0; 
stroke:#000000; stroke-width:0.1200; stroke-opacity:1; 
stroke-linecap:round; stroke-linejoin:round;">
<path d="M14.1320 60.6011
L14.8220 58.6511
" />
<path d="M14.2920 63.7711
L14.1320 60.6011
" />
<path d="M14.8220 58.6511
L15.4820 57.0211
" />
<path d="M15.2920 65.3611
L14.2920 63.7711
" />
<path d="M15.4820 57.0211
L16.5220 54.9111
" />
<path d="M16.5220 54.9111
L18.2720 53.7611
" />
<path d="M17.2520 66.0311
L15.2920 65.3611
" />
<path d="M18.2720 53.7611
L22.8020 50.7811
" />
<path d="M20.2020 66.4511
L17.2520 66.0311
" />
<path d="M20.7520 91.9011
L20.8120 88.9711
" />
<path d="M20.8120 88.9711
L20.8420 86.2911
" />
<path d="M20.8420 86.2911
L20.8720 84.9011
" />
<path d="M20.8520 95.8211
L20.7520 91.9011
" />
<path d="M20.8720 84.9011
L20.9020 84.2811
" />
<path d="M20.9020 84.2811
L21.2020 80.7711
" />
<path d="M20.9920 102.2511
L20.8520 95.8211
" />
<path d="M21.2020 80.7711
L21.5620 77.0211
" />
<path d="M21.2920 110.3611
L20.9920 102.2511
" />
<path d="M21.5620 77.0211
L22.0720 73.1711
" />
<path d="M21.6120 119.7111
L21.2920 110.3611
" />
<path d="M21.8120 121.8511
L21.6120 119.7111
" />
<path d="M22.0720 73.1711
L22.2220 72.0211
" />
<path d="M22.0920 67.2911
L20.2020 66.4511
" />
<path d="M22.2220 72.0211
L22.4620 68.8411
" />
<path d="M22.2420 126.3411
L21.8120 121.8511
" />
<path d="M22.4620 68.8411
L22.0920 67.2911
" />
<path d="M22.5820 129.7511
L22.2420 126.3411
" />
<path d="M22.8020 50.7811
L25.1920 48.5411
" />
<path d="M22.9020 131.5611
L22.5820 129.7511
" />
<path d="M23.4920 133.7511
L22.9020 131.5611
" />
<path d="M24.3620 135.6711
L23.4920 133.7511
" />
<path d="M24.9020 136.3911
L24.3620 135.6711
" />
<path d="M25.1920 48.5411
L25.8720 46.7511
" />
<path d="M25.7820 40.5611
L26.1020 37.7011
" />
<path d="M25.8620 44.0211
L25.7820 40.5611
" />
<path d="M25.8720 46.7511
L25.8620 44.0211
" />
<path d="M25.9920 137.6511
L24.9020 136.3911
" />
<path d="M26.1020 37.7011
L27.2920 35.5311
" />
<path d="M27.2920 35.5311
L28.2920 33.0511
" />
<path d="M27.3220 138.8111
L25.9920 137.6511
" />
<path d="M27.9120 16.5611
L28.4320 15.7811
" />
<path d="M27.9420 139.1111
L27.3220 138.8111
" />
<path d="M28.0120 17.7111
L27.9120 16.5611
" />
<path d="M28.2920 33.0511
L29.7420 31.3311
" />
<path d="M28.4320 15.7811
L28.7420 15.5611
" />
<path d="M28.5920 19.1311
L28.0120 17.7111
" />
<path d="M28.7420 15.5611
L29.4920 15.1911
" />
<path d="M28.7520 25.5111
L28.8920 25.0211
" />
<path d="M28.8520 26.6611
L28.7520 25.5111
" />
<path d="M28.8920 25.0211
L29.1620 24.5211
" />
<path d="M28.9920 22.0911
L29.5920 20.9911
" />
<path d="M29.0920 20.0711
L28.5920 19.1311
" />
<path d="M29.1620 24.5211
L29.5320 24.0511
" />
<path d="M29.1920 139.6411
L27.9420 139.1111
" />
<path d="M29.3520 23.1011
L28.9920 22.0911
" />
<path d="M29.4920 15.1911
L30.1720 15.0311
" />
<path d="M29.5020 23.7311
L29.3520 23.1011
" />
<path d="M29.5320 24.0511
L29.5020 23.7311
" />
<path d="M29.5920 20.9911
L29.0920 20.0711
" />
<path d="M29.7420 31.3311
L30.4820 30.5911
" />
<path d="M30.1720 15.0311
L30.7320 14.9711
" />
<path d="M30.2620 139.9811
L29.1920 139.6411
" />
<path d="M30.4820 30.5911
L28.8520 26.6611
" />
<path d="M30.7320 14.9711
L31.3520 15.0611
" />
<path d="M31.3520 15.0611
L32.1520 15.3511
" />
<path d="M32.1520 15.3511
L32.5220 15.5211
" />
<path d="M32.5220 15.5211
L34.9620 15.0911
" />
<path d="M33.2920 140.7911
L30.2620 139.9811
" />
<path d="M34.9620 15.0911
L37.5720 15.0411
" />
<path d="M37.1220 141.8711
L33.2920 140.7911
" />
<path d="M37.5720 15.0411
L40.2020 16.0211
" />
<path d="M39.3220 142.4911
L37.1220 141.8711
" />
<path d="M40.2020 16.0211
L40.9620 15.7811
" />
<path d="M40.9620 15.7811
L41.9420 15.5211
" />
<path d="M41.7320 143.6311
L39.3220 142.4911
" />
<path d="M41.9420 15.5211
L43.0820 15.3911
" />
<path d="M43.0820 15.3911
L44.2920 15.4111
" />
<path d="M43.5620 144.6711
L41.7320 143.6311
" />
<path d="M44.2920 15.4111
L45.3520 15.6011
" />
<path d="M45.2920 145.7711
L43.5620 144.6711
" />
<path d="M45.3520 15.6011
L46.3020 15.9711
" />
<path d="M46.3020 15.9711
L47.9020 16.6211
" />
<path d="M46.7620 146.9011
L45.2920 145.7711
" />
<path d="M47.9020 16.6211
L48.4220 15.9011
" />
<path d="M47.9720 148.0011
L46.7620 146.9011
" />
<path d="M48.4220 15.9011
L49.0120 15.2311
" />
<path d="M49.0120 15.2311
L49.7920 14.6911
" />
<path d="M49.4120 149.4411
L47.9720 148.0011
" />
<path d="M49.7920 14.6911
L50.6420 14.3911
" />
<path d="M50.6420 14.3911
L51.7820 14.2611
" />
<path d="M50.6820 150.9211
L49.4120 149.4411
" />
<path d="M51.7820 14.2611
L51.8920 13.5611
" />
<path d="M51.8820 152.4711
L50.6820 150.9211
" />
<path d="M51.8920 13.5611
L52.2320 12.8811
" />
<path d="M52.2320 12.8811
L52.9620 12.1711
" />
<path d="M52.9620 12.1711
L53.6120 11.7611
" />
<path d="M53.1120 154.1111
L51.8820 152.4711
" />
<path d="M53.6120 11.7611
L54.4620 11.4411
" />
<path d="M54.4620 11.4411
L55.8520 11.1311
" />
<path d="M54.7620 156.3211
L53.1120 154.1111
" />
<path d="M55.8520 11.1311
L57.3420 11.0511
" />
<path d="M57.3320 160.0311
L54.7620 156.3211
" />
<path d="M57.3420 11.0511
L58.4920 11.1311
" />
<path d="M58.4920 11.1311
L59.1720 11.3011
" />
<path d="M58.5420 161.9211
L57.3320 160.0311
" />
<path d="M59.1720 11.3011
L59.7420 11.5511
" />
<path d="M59.7420 11.5511
L60.4920 11.2711
" />
<path d="M60.1220 164.4011
L58.5420 161.9211
" />
<path d="M60.4920 11.2711
L61.7220 10.9511
" />
<path d="M60.6220 165.0511
L60.1220 164.4011
" />
<path d="M61.7220 10.9511
L63.0420 10.7911
" />
<path d="M61.7420 166.0811
L60.6220 165.0511
" />
<path d="M63.0420 10.7911
L64.9420 10.7211
" />
<path d="M63.4620 166.9311
L61.7420 166.0811
" />
<path d="M64.9420 10.7211
L66.9720 10.7211
" />
<path d="M65.0620 167.5311
L63.4620 166.9311
" />
<path d="M66.5020 167.9211
L65.0620 167.5311
" />
<path d="M66.9720 10.7211
L67.8220 10.4011
" />
<path d="M67.8220 10.4011
L68.8620 10.1711
" />
<path d="M68.8620 10.1711
L69.8420 10.0711
" />
<path d="M69.4720 168.5711
L66.5020 167.9211
" />
<path d="M69.6120 168.5911
L69.4720 168.5711
" />
<path d="M69.6120 168.5911
L104.5671 168.5900
" />
<path d="M69.8420 10.0711
L70.1220 10.0711
" />
<path d="M70.1220 10.0711
L70.1420 9.2311
" />
<path d="M70.1420 9.2311
L70.3020 8.6311
" />
<path d="M70.3020 8.6311
L70.7020 8.0311
" />
<path d="M70.7020 8.0311
L71.2120 7.6911
" />
<path d="M71.2120 7.6911
L71.9820 7.4311
" />
<path d="M71.9820 7.4311
L72.9020 7.3411
" />
<path d="M72.9020 7.3411
L73.8120 7.3211
" />
<path d="M73.8120 7.3211
L75.1520 7.0011
" />
<path d="M75.1520 7.0011
L75.6620 6.3911
" />
<path d="M75.6620 6.3911
L76.2920 5.7311
" />
<path d="M76.2920 5.7311
L76.8420 5.4011
" />
<path d="M76.8420 5.4011
L77.3920 5.2011
" />
<path d="M77.3920 5.2011
L78.0820 5.0811
" />
<path d="M78.0820 5.0811
L78.9420 5.0811
" />
<path d="M78.9420 5.0811
L79.6820 5.2111
" />
<path d="M79.6820 5.2111
L80.0420 5.4311
" />
<path d="M80.0420 5.4311
L80.4320 5.8011
" />
<path d="M80.4320 5.8011
L80.8720 6.1111
" />
<path d="M80.8720 6.1111
L81.5420 6.4511
" />
<path d="M81.5420 6.4511
L82.1620 6.3111
" />
<path d="M82.1620 6.3111
L82.5220 5.1411
" />
<path d="M82.5220 5.1411
L82.6720 4.0211
" />
<path d="M82.6720 4.0211
L82.8520 3.0711
" />
<path d="M82.8520 3.0711
L83.1120 2.4611
" />
<path d="M83.1120 2.4611
L83.6420 1.6911
" />
<path d="M83.6420 1.6911
L84.3420 0.8711
" />
<path d="M84.3420 0.8711
L85.0020 0.3611
" />
<path d="M85.0020 0.3611
L85.4520 0.1611
" />
<path d="M85.4520 0.1611
L86.1620 0.0611
" />
<path d="M86.1620 0.0611
L88.0171 0.0600
" />
<path d="M88.7271 0.1600
L88.0171 0.0600
" />
<path d="M89.1771 0.3600
L88.7271 0.1600
" />
<path d="M89.8371 0.8700
L89.1771 0.3600
" />
<path d="M90.5371 1.6900
L89.8371 0.8700
" />
<path d="M91.0671 2.4600
L90.5371 1.6900
" />
<path d="M91.3271 3.0700
L91.0671 2.4600
" />
<path d="M91.5071 4.0200
L91.3271 3.0700
" />
<path d="M91.6571 5.1400
L91.5071 4.0200
" />
<path d="M92.0171 6.3100
L91.6571 5.1400
" />
<path d="M92.6371 6.4500
L92.0171 6.3100
" />
<path d="M93.3071 6.1100
L92.6371 6.4500
" />
<path d="M93.7471 5.8000
L93.3071 6.1100
" />
<path d="M94.1371 5.4300
L93.7471 5.8000
" />
<path d="M94.4971 5.2100
L94.1371 5.4300
" />
<path d="M95.2371 5.0800
L94.4971 5.2100
" />
<path d="M96.0971 5.0800
L95.2371 5.0800
" />
<path d="M96.7871 5.2000
L96.0971 5.0800
" />
<path d="M97.3371 5.4000
L96.7871 5.2000
" />
<path d="M97.8871 5.7300
L97.3371 5.4000
" />
<path d="M98.5171 6.3900
L97.8871 5.7300
" />
<path d="M99.0271 7.0000
L98.5171 6.3900
" />
<path d="M100.3671 7.3200
L99.0271 7.0000
" />
<path d="M101.2771 7.3400
L100.3671 7.3200
" />
<path d="M102.1971 7.4300
L101.2771 7.3400
" />
<path d="M102.9671 7.6900
L102.1971 7.4300
" />
<path d="M103.4771 8.0300
L102.9671 7.6900
" />
<path d="M103.8771 8.6300
L103.4771 8.0300
" />
<path d="M104.0371 9.2300
L103.8771 8.6300
" />
<path d="M104.0571 10.0700
L104.0371 9.2300
" />
<path d="M104.3371 10.0700
L104.0571 10.0700
" />
<path d="M104.5671 168.5900
L104.7071 168.5700
" />
<path d="M104.7071 168.5700
L107.6771 167.9200
" />
<path d="M105.3171 10.1700
L104.3371 10.0700
" />
<path d="M106.3571 10.4000
L105.3171 10.1700
" />
<path d="M107.2071 10.7200
L106.3571 10.4000
" />
<path d="M107.6771 167.9200
L109.1171 167.5300
" />
<path d="M109.1171 167.5300
L110.7171 166.9300
" />
<path d="M109.2371 10.7200
L107.2071 10.7200
" />
<path d="M110.7171 166.9300
L112.4371 166.0800
" />
<path d="M111.1371 10.7900
L109.2371 10.7200
" />
<path d="M112.4371 166.0800
L113.5571 165.0500
" />
<path d="M112.4571 10.9500
L111.1371 10.7900
" />
<path d="M113.5571 165.0500
L114.0571 164.4000
" />
<path d="M113.6871 11.2700
L112.4571 10.9500
" />
<path d="M114.0571 164.4000
L115.6371 161.9200
" />
<path d="M114.4371 11.5500
L113.6871 11.2700
" />
<path d="M115.0071 11.3000
L114.4371 11.5500
" />
<path d="M115.6371 161.9200
L116.8471 160.0300
" />
<path d="M115.6871 11.1300
L115.0071 11.3000
" />
<path d="M116.8371 11.0500
L115.6871 11.1300
" />
<path d="M116.8471 160.0300
L119.4171 156.3200
" />
<path d="M118.3271 11.1300
L116.8371 11.0500
" />
<path d="M119.4171 156.3200
L121.0671 154.1100
" />
<path d="M119.7171 11.4400
L118.3271 11.1300
" />
<path d="M120.5671 11.7600
L119.7171 11.4400
" />
<path d="M121.0671 154.1100
L122.2971 152.4700
" />
<path d="M121.2171 12.1700
L120.5671 11.7600
" />
<path d="M121.9471 12.8800
L121.2171 12.1700
" />
<path d="M122.2871 13.5600
L121.9471 12.8800
" />
<path d="M122.2971 152.4700
L123.4971 150.9200
" />
<path d="M122.3971 14.2600
L122.2871 13.5600
" />
<path d="M123.4971 150.9200
L124.7671 149.4400
" />
<path d="M123.5371 14.3900
L122.3971 14.2600
" />
<path d="M124.3871 14.6900
L123.5371 14.3900
" />
<path d="M124.7671 149.4400
L126.2071 148.0000
" />
<path d="M125.1671 15.2300
L124.3871 14.6900
" />
<path d="M125.7571 15.9000
L125.1671 15.2300
" />
<path d="M126.2071 148.0000
L127.4171 146.9000
" />
<path d="M126.2771 16.6200
L125.7571 15.9000
" />
<path d="M127.4171 146.9000
L128.8871 145.7700
" />
<path d="M127.8771 15.9700
L126.2771 16.6200
" />
<path d="M128.8271 15.6000
L127.8771 15.9700
" />
<path d="M128.8871 145.7700
L130.6171 144.6700
" />
<path d="M129.8871 15.4100
L128.8271 15.6000
" />
<path d="M130.6171 144.6700
L132.4471 143.6300
" />
<path d="M131.0971 15.3900
L129.8871 15.4100
" />
<path d="M132.2371 15.5200
L131.0971 15.3900
" />
<path d="M132.4471 143.6300
L134.8571 142.4900
" />
<path d="M133.2171 15.7800
L132.2371 15.5200
" />
<path d="M133.9771 16.0200
L133.2171 15.7800
" />
<path d="M134.8571 142.4900
L137.0571 141.8700
" />
<path d="M136.6071 15.0400
L133.9771 16.0200
" />
<path d="M137.0571 141.8700
L140.8871 140.7900
" />
<path d="M139.2171 15.0900
L136.6071 15.0400
" />
<path d="M140.8871 140.7900
L143.9171 139.9800
" />
<path d="M141.6571 15.5200
L139.2171 15.0900
" />
<path d="M142.0271 15.3500
L141.6571 15.5200
" />
<path d="M142.8271 15.0600
L142.0271 15.3500
" />
<path d="M143.4471 14.9700
L142.8271 15.0600
" />
<path d="M143.6971 30.5900
L145.3271 26.6600
" />
<path d="M143.9171 139.9800
L144.9871 139.6400
" />
<path d="M144.0071 15.0300
L143.4471 14.9700
" />
<path d="M144.4371 31.3300
L143.6971 30.5900
" />
<path d="M144.5871 20.9900
L145.0871 20.0700
" />
<path d="M144.6471 24.0500
L144.6771 23.7300
" />
<path d="M144.6771 23.7300
L144.8271 23.1000
" />
<path d="M144.6871 15.1900
L144.0071 15.0300
" />
<path d="M144.8271 23.1000
L145.1871 22.0900
" />
<path d="M144.9871 139.6400
L146.2371 139.1100
" />
<path d="M145.0171 24.5200
L144.6471 24.0500
" />
<path d="M145.0871 20.0700
L145.5871 19.1300
" />
<path d="M145.1871 22.0900
L144.5871 20.9900
" />
<path d="M145.2871 25.0200
L145.0171 24.5200
" />
<path d="M145.3271 26.6600
L145.4271 25.5100
" />
<path d="M145.4271 25.5100
L145.2871 25.0200
" />
<path d="M145.4371 15.5600
L144.6871 15.1900
" />
<path d="M145.5871 19.1300
L146.1671 17.7100
" />
<path d="M145.7471 15.7800
L145.4371 15.5600
" />
<path d="M145.8871 33.0500
L144.4371 31.3300
" />
<path d="M146.1671 17.7100
L146.2671 16.5600
" />
<path d="M146.2371 139.1100
L146.8571 138.8100
" />
<path d="M146.2671 16.5600
L145.7471 15.7800
" />
<path d="M146.8571 138.8100
L148.1871 137.6500
" />
<path d="M146.8871 35.5300
L145.8871 33.0500
" />
<path d="M148.0771 37.7000
L146.8871 35.5300
" />
<path d="M148.1871 137.6500
L149.2771 136.3900
" />
<path d="M148.3071 46.7500
L148.3171 44.0200
" />
<path d="M148.3171 44.0200
L148.3971 40.5600
" />
<path d="M148.3971 40.5600
L148.0771 37.7000
" />
<path d="M148.9871 48.5400
L148.3071 46.7500
" />
<path d="M149.2771 136.3900
L149.8171 135.6700
" />
<path d="M149.8171 135.6700
L150.6871 133.7500
" />
<path d="M150.6871 133.7500
L151.2771 131.5600
" />
<path d="M151.2771 131.5600
L151.5971 129.7500
" />
<path d="M151.3771 50.7800
L148.9871 48.5400
" />
<path d="M151.5971 129.7500
L151.9371 126.3400
" />
<path d="M151.7171 68.8400
L152.0871 67.2900
" />
<path d="M151.9371 126.3400
L152.3671 121.8500
" />
<path d="M151.9571 72.0200
L151.7171 68.8400
" />
<path d="M152.0871 67.2900
L153.9771 66.4500
" />
<path d="M152.1071 73.1700
L151.9571 72.0200
" />
<path d="M152.3671 121.8500
L152.5671 119.7100
" />
<path d="M152.5671 119.7100
L152.8871 110.3600
" />
<path d="M152.6171 77.0200
L152.1071 73.1700
" />
<path d="M152.8871 110.3600
L153.1871 102.2500
" />
<path d="M152.9771 80.7700
L152.6171 77.0200
" />
<path d="M153.1871 102.2500
L153.3271 95.8200
" />
<path d="M153.2771 84.2800
L152.9771 80.7700
" />
<path d="M153.3071 84.9000
L153.2771 84.2800
" />
<path d="M153.3271 95.8200
L153.4271 91.9000
" />
<path d="M153.3371 86.2900
L153.3071 84.9000
" />
<path d="M153.3671 88.9700
L153.3371 86.2900
" />
<path d="M153.4271 91.9000
L153.3671 88.9700
" />
<path d="M153.9771 66.4500
L156.9271 66.0300
" />
<path d="M155.9071 53.7600
L151.3771 50.7800
" />
<path d="M156.9271 66.0300
L158.8871 65.3600
" />
<path d="M157.6571 54.9100
L155.9071 53.7600
" />
<path d="M158.6971 57.0200
L157.6571 54.9100
" />
<path d="M158.8871 65.3600
L159.8871 63.7700
" />
<path d="M159.3571 58.6500
L158.6971 57.0200
" />
<path d="M159.8871 63.7700
L160.0471 60.6000
" />
<path d="M160.0471 60.6000
L159.3571 58.6500
" />
<g >
</g>
<g >
</g>
<g >
</g>
<g >
</g>
</g> 
</svg>
