<?xml version="1.0" standalone="no"?>
 <!DOCTYPE svg PUBLIC "-//W3C//DTD SVG 1.1//EN" 
 "http://www.w3.org/Graphics/SVG/1.1/DTD/svg11.dtd"> 
<svg
  xmlns:svg="http://www.w3.org/2000/svg"
  xmlns="http://www.w3.org/2000/svg"
  xmlns:xlink="http://www.w3.org/1999/xlink"
  version="1.1"
  width="165.1762mm" height="159.1818mm" viewBox="0.0000 0.0000 165.1762 159.1818">
<title>SVG Image created as g0dzilla_vs_rear-brd.svg date 2024/06/10 13:29:12 </title>
  <desc>Image generated by PCBNEW </desc>
<g style="fill:#000000; fill-opacity:1.0000;stroke:#000000; stroke-opacity:1.0000;
stroke-linecap:round; stroke-linejoin:round;"
 transform="translate(0 0) scale(1 1)">
</g>
<g style="fill:#000000; fill-opacity:0.0; 
stroke:#000000; stroke-width:0.0000; stroke-opacity:1; 
stroke-linecap:round; stroke-linejoin:round;">
</g>
<g style="fill:#000000; fill-opacity:1.0000; 
stroke:#000000; stroke-width:0.0000; stroke-opacity:1; 
stroke-linecap:round; stroke-linejoin:round;">
<path style="fill:#000000; fill-opacity:1.0000; 
stroke:#000000; stroke-width:0.0000; stroke-opacity:1; 
stroke-linecap:round; stroke-linejoin:round;fill-rule:evenodd;"
d="M 16.9370,1.0672
16.9370,2.1345
18.0682,2.1345
19.1995,2.1345
19.1995,2.3045
19.1995,2.4745
18.0789,2.4859
16.9583,2.4973
16.9469,3.5539
16.9355,4.6104
16.7655,4.6104
16.5955,4.6104
16.5955,3.5432
16.5955,2.4760
15.5496,2.4760
14.5037,2.4760
14.5037,2.3052
14.5037,2.1345
15.5496,2.1345
16.5955,2.1345
16.5955,1.0672
16.5955,0.0000
16.7662,0.0000
16.9370,0.0000
Z" /> 
<path style="fill:#000000; fill-opacity:1.0000; 
stroke:#000000; stroke-width:0.0000; stroke-opacity:1; 
stroke-linecap:round; stroke-linejoin:round;fill-rule:evenodd;"
d="M 16.9370,37.0755
16.9370,38.1213
18.0707,38.1213
19.2044,38.1213
19.1913,38.3028
19.1782,38.4842
18.0576,38.4956
16.9370,38.5070
16.9370,39.5521
16.9370,40.5973
16.7662,40.5973
16.5955,40.5973
16.5955,39.5522
16.5955,38.5071
15.5603,38.4956
14.5250,38.4842
14.5119,38.3028
14.4988,38.1213
15.5471,38.1213
16.5955,38.1213
16.5955,37.0755
16.5955,36.0296
16.7662,36.0296
16.9370,36.0296
Z" /> 
<path style="fill:#000000; fill-opacity:1.0000; 
stroke:#000000; stroke-width:0.0000; stroke-opacity:1; 
stroke-linecap:round; stroke-linejoin:round;fill-rule:evenodd;"
d="M 16.9370,82.9235
16.9370,83.9694
18.0469,83.9694
19.1568,83.9694
19.1568,84.1615
19.1568,84.3536
18.0469,84.3536
16.9370,84.3536
16.9370,85.3995
16.9370,86.4454
16.7449,86.4454
16.5528,86.4454
16.5528,85.3995
16.5528,84.3536
15.5282,84.3536
14.5037,84.3536
14.5037,84.1615
14.5037,83.9694
15.5282,83.9694
16.5528,83.9694
16.5528,82.9235
16.5528,81.8776
16.7449,81.8776
16.9370,81.8776
Z" /> 
<path style="fill:#000000; fill-opacity:1.0000; 
stroke:#000000; stroke-width:0.0000; stroke-opacity:1; 
stroke-linecap:round; stroke-linejoin:round;fill-rule:evenodd;"
d="M 17.0224,137.8430
17.0224,138.9103
18.1536,138.9103
19.2849,138.9103
19.2849,139.0803
19.2849,139.2503
18.1643,139.2617
17.0437,139.2731
17.0323,140.3297
17.0209,141.3862
16.8509,141.3862
16.6808,141.3862
16.6808,140.3190
16.6808,139.2518
15.6563,139.2518
14.6318,139.2518
14.6318,139.0810
14.6318,138.9103
15.6563,138.9103
16.6808,138.9103
16.6808,137.8430
16.6808,136.7758
16.8516,136.7758
17.0224,136.7758
Z" /> 
<path style="fill:#000000; fill-opacity:1.0000; 
stroke:#000000; stroke-width:0.0000; stroke-opacity:1; 
stroke-linecap:round; stroke-linejoin:round;fill-rule:evenodd;"
d="M 162.6882,36.0378
162.8696,36.0509
162.8810,37.1075
162.8924,38.1640
164.0016,38.1640
165.1108,38.1640
165.1108,38.3348
165.1108,38.5055
164.0016,38.5055
162.8924,38.5055
162.8810,39.5621
162.8696,40.6187
162.6882,40.6318
162.5067,40.6449
162.5067,39.5752
162.5067,38.5055
161.4822,38.5055
160.4576,38.5055
160.4576,38.3348
160.4576,38.1640
161.4822,38.1640
162.5067,38.1640
162.5067,37.0944
162.5067,36.0247
Z" /> 
<path style="fill:#000000; fill-opacity:1.0000; 
stroke:#000000; stroke-width:0.0000; stroke-opacity:1; 
stroke-linecap:round; stroke-linejoin:round;fill-rule:evenodd;"
d="M 162.8482,82.9449
162.8482,84.0121
163.9795,84.0121
165.1108,84.0121
165.1108,84.1829
165.1108,84.3536
163.9795,84.3536
162.8482,84.3536
162.8482,85.4208
162.8482,86.4881
162.6782,86.4881
162.5082,86.4881
162.4968,85.4315
162.4854,84.3750
161.4502,84.3635
160.4150,84.3521
160.4150,84.1821
160.4150,84.0121
161.4608,84.0121
162.5067,84.0121
162.5067,82.9449
162.5067,81.8776
162.6775,81.8776
162.8482,81.8776
Z" /> 
<path style="fill:#000000; fill-opacity:1.0000; 
stroke:#000000; stroke-width:0.0000; stroke-opacity:1; 
stroke-linecap:round; stroke-linejoin:round;fill-rule:evenodd;"
d="M 162.8909,1.1099
162.8909,2.1771
164.0008,2.1771
165.1108,2.1771
165.1108,2.3479
165.1108,2.5187
164.0016,2.5187
162.8924,2.5187
162.8810,3.5752
162.8696,4.6318
162.6882,4.6449
162.5067,4.6580
162.5067,3.5883
162.5067,2.5187
161.4822,2.5187
160.4576,2.5187
160.4576,2.3479
160.4576,2.1771
161.4822,2.1771
162.5067,2.1771
162.5067,1.1099
162.5067,0.0427
162.6988,0.0427
162.8909,0.0427
Z" /> 
<path style="fill:#000000; fill-opacity:1.0000; 
stroke:#000000; stroke-width:0.0000; stroke-opacity:1; 
stroke-linecap:round; stroke-linejoin:round;fill-rule:evenodd;"
d="M 162.9763,137.8857
162.9763,138.9529
164.0862,138.9529
165.1961,138.9529
165.1961,139.1237
165.1961,139.2945
164.0862,139.2945
162.9763,139.2945
162.9763,140.3617
162.9763,141.4289
162.8127,141.4289
162.6999,141.4221
162.6276,141.4052
162.6206,141.4004
162.6127,141.3515
162.6056,141.2293
162.5997,141.0457
162.5953,140.8127
162.5927,140.5424
162.5921,140.3332
162.5921,139.2945
161.5676,139.2945
160.5430,139.2945
160.5430,139.1237
160.5430,138.9529
161.5676,138.9529
162.5921,138.9529
162.5921,137.8857
162.5921,136.8185
162.7842,136.8185
162.9763,136.8185
Z" /> 
<g >
</g>
<g >
</g>
<g >
</g>
<g >
</g>
</g>
<g style="fill:#000000; fill-opacity:1.0000; 
stroke:#000000; stroke-width:0.0000; stroke-opacity:1; 
stroke-linecap:round; stroke-linejoin:round;">
</g>
<g style="fill:#000000; fill-opacity:1.0000; 
stroke:#000000; stroke-width:0.1200; stroke-opacity:1; 
stroke-linecap:round; stroke-linejoin:round;">
</g>
<g style="fill:#000000; fill-opacity:0.0; 
stroke:#000000; stroke-width:0.1200; stroke-opacity:1; 
stroke-linecap:round; stroke-linejoin:round;">
<path d="M23.6586 73.8955
L24.2086 68.2055
" />
<path d="M23.8586 78.2255
L23.6586 73.8955
" />
<path d="M24.2086 68.2055
L24.9686 62.4055
" />
<path d="M24.4186 55.9355
L24.2886 55.2855
" />
<path d="M24.5186 81.5255
L23.8586 78.2255
" />
<path d="M24.9686 62.4055
L25.1986 59.4555
" />
<path d="M25.1986 59.4555
L24.4186 55.9355
" />
<path d="M25.7086 83.8855
L24.5186 81.5255
" />
<path d="M26.3086 40.9755
L24.2886 55.2855
" />
<path d="M26.3086 40.9755
L27.8086 39.1855
" />
<path d="M27.0286 86.0055
L25.7086 83.8855
" />
<path d="M27.7286 86.8855
L27.0286 86.0055
" />
<path d="M27.8086 39.1855
L28.5786 37.3355
" />
<path d="M28.1986 87.3755
L27.7286 86.8855
" />
<path d="M28.4786 31.1555
L28.7986 28.3755
" />
<path d="M28.5386 33.1655
L28.4786 31.1555
" />
<path d="M28.5786 37.3355
L28.5386 33.1655
" />
<path d="M28.7986 28.3755
L29.7886 26.5155
" />
<path d="M29.0286 87.8755
L28.1986 87.3755
" />
<path d="M29.7886 26.5155
L30.9586 23.7555
" />
<path d="M30.3286 88.3855
L29.0286 87.8755
" />
<path d="M30.9586 23.7555
L32.4886 21.8555
" />
<path d="M31.6386 88.6455
L30.3286 88.3855
" />
<path d="M32.4886 21.8555
L34.2886 20.0855
" />
<path d="M33.6286 88.8555
L31.6386 88.6455
" />
<path d="M34.2886 20.0855
L35.8486 18.7255
" />
<path d="M35.8486 18.7255
L36.5786 18.1155
" />
<path d="M35.9586 88.9755
L33.6286 88.8555
" />
<path d="M36.5786 18.1155
L37.2086 16.4255
" />
<path d="M37.2086 16.4255
L38.0986 15.7055
" />
<path d="M38.0986 15.7055
L39.0586 15.5055
" />
<path d="M38.9086 88.9455
L35.9586 88.9755
" />
<path d="M39.0586 15.5055
L40.2686 15.7955
" />
<path d="M40.2686 15.7955
L42.7986 17.3355
" />
<path d="M42.3886 88.8555
L38.9086 88.9455
" />
<path d="M42.7986 17.3355
L43.8586 17.0255
" />
<path d="M43.8586 17.0255
L44.6486 16.1055
" />
<path d="M44.6486 16.1055
L45.8286 15.0455
" />
<path d="M44.8186 89.0555
L42.3886 88.8555
" />
<path d="M45.8286 15.0455
L47.6386 14.0855
" />
<path d="M46.4386 89.9555
L44.8186 89.0555
" />
<path d="M47.6386 14.0855
L49.1886 13.8955
" />
<path d="M49.1886 13.8955
L50.1786 14.1355
" />
<path d="M50.1786 14.1355
L51.1986 14.6255
" />
<path d="M51.1986 14.6255
L51.6286 14.9055
" />
<path d="M51.5886 94.4255
L46.4386 89.9555
" />
<path d="M51.6286 14.9055
L52.7086 15.0855
" />
<path d="M52.7086 15.0855
L52.8586 15.0655
" />
<path d="M52.8586 15.0655
L53.8786 14.1855
" />
<path d="M53.8786 14.1855
L54.3086 13.0255
" />
<path d="M54.3086 13.0255
L55.9486 11.3555
" />
<path d="M54.9086 98.0055
L51.5886 94.4255
" />
<path d="M55.9486 11.3555
L57.7086 11.1255
" />
<path d="M56.9086 100.2455
L54.9086 98.0055
" />
<path d="M57.7086 11.1255
L59.0586 11.6055
" />
<path d="M59.0586 11.6055
L59.4386 11.7455
" />
<path d="M59.4386 11.7455
L60.4586 11.7555
" />
<path d="M59.9386 104.9855
L56.9086 100.2455
" />
<path d="M60.4586 11.7555
L62.3386 11.2955
" />
<path d="M60.7686 106.3855
L59.9386 104.9855
" />
<path d="M61.3386 107.5455
L60.7686 106.3855
" />
<path d="M61.6786 108.4055
L61.3386 107.5455
" />
<path d="M61.7886 109.0855
L61.6786 108.4055
" />
<path d="M61.9386 122.5555
L61.7886 109.0855
" />
<path d="M62.2086 148.6955
L61.9386 122.5555
" />
<path d="M62.2786 150.4855
L62.2086 148.6955
" />
<path d="M62.3386 11.2955
L63.4486 10.3555
" />
<path d="M62.8886 153.6355
L62.2786 150.4855
" />
<path d="M63.1586 154.5455
L62.8886 153.6355
" />
<path d="M63.4486 10.3555
L65.2186 9.7255
" />
<path d="M63.5986 155.4055
L63.1586 154.5455
" />
<path d="M64.2386 156.1255
L63.5986 155.4055
" />
<path d="M65.0386 156.8255
L64.2386 156.1255
" />
<path d="M65.2186 9.7255
L66.4086 9.7655
" />
<path d="M65.9986 157.4055
L65.0386 156.8255
" />
<path d="M66.4086 9.7655
L69.4786 10.8555
" />
<path d="M66.8386 157.7755
L65.9986 157.4055
" />
<path d="M68.1586 158.2255
L66.8386 157.7755
" />
<path d="M69.4786 10.8555
L70.9386 10.7155
" />
<path d="M70.9386 10.7155
L71.9786 9.8455
" />
<path d="M71.9786 9.8455
L73.2886 8.5655
" />
<path d="M72.2586 159.1455
L68.1586 158.2255
" />
<path d="M72.2586 159.1455
L107.3036 159.1455
" />
<path d="M73.2886 8.5655
L74.7486 7.8955
" />
<path d="M74.7486 7.8955
L76.2686 7.9955
" />
<path d="M76.2686 7.9955
L77.6886 8.3455
" />
<path d="M77.6886 8.3455
L78.9386 9.2755
" />
<path d="M78.9386 9.2755
L79.7286 9.8355
" />
<path d="M79.7286 9.8355
L80.5686 10.0655
" />
<path d="M80.5686 10.0655
L81.7986 9.6955
" />
<path d="M81.7986 9.6955
L82.8086 9.0355
" />
<path d="M82.8086 9.0355
L83.4786 8.1855
" />
<path d="M83.4786 8.1855
L83.9186 6.1055
" />
<path d="M83.9186 6.1055
L84.7886 4.2455
" />
<path d="M84.7886 4.2455
L86.2686 2.9955
" />
<path d="M86.2686 2.9955
L87.8986 2.3355
" />
<path d="M87.8986 2.3355
L91.6636 2.3355
" />
<path d="M93.2936 2.9955
L91.6636 2.3355
" />
<path d="M94.7736 4.2455
L93.2936 2.9955
" />
<path d="M95.6436 6.1055
L94.7736 4.2455
" />
<path d="M96.0836 8.1855
L95.6436 6.1055
" />
<path d="M96.7536 9.0355
L96.0836 8.1855
" />
<path d="M97.7636 9.6955
L96.7536 9.0355
" />
<path d="M98.9936 10.0655
L97.7636 9.6955
" />
<path d="M99.8336 9.8355
L98.9936 10.0655
" />
<path d="M100.6236 9.2755
L99.8336 9.8355
" />
<path d="M101.8736 8.3455
L100.6236 9.2755
" />
<path d="M103.2936 7.9955
L101.8736 8.3455
" />
<path d="M104.8136 7.8955
L103.2936 7.9955
" />
<path d="M106.2736 8.5655
L104.8136 7.8955
" />
<path d="M107.3036 159.1455
L111.4036 158.2255
" />
<path d="M107.5836 9.8455
L106.2736 8.5655
" />
<path d="M108.6236 10.7155
L107.5836 9.8455
" />
<path d="M110.0836 10.8555
L108.6236 10.7155
" />
<path d="M111.4036 158.2255
L112.7236 157.7755
" />
<path d="M112.7236 157.7755
L113.5636 157.4055
" />
<path d="M113.1536 9.7655
L110.0836 10.8555
" />
<path d="M113.5636 157.4055
L114.5236 156.8255
" />
<path d="M114.3436 9.7255
L113.1536 9.7655
" />
<path d="M114.5236 156.8255
L115.3236 156.1255
" />
<path d="M115.3236 156.1255
L115.9636 155.4055
" />
<path d="M115.9636 155.4055
L116.4036 154.5455
" />
<path d="M116.1136 10.3555
L114.3436 9.7255
" />
<path d="M116.4036 154.5455
L116.6736 153.6355
" />
<path d="M116.6736 153.6355
L117.2836 150.4855
" />
<path d="M117.2236 11.2955
L116.1136 10.3555
" />
<path d="M117.2836 150.4855
L117.3536 148.6955
" />
<path d="M117.3536 148.6955
L117.6236 122.5555
" />
<path d="M117.6236 122.5555
L117.7736 109.0855
" />
<path d="M117.7736 109.0855
L117.8836 108.4055
" />
<path d="M117.8836 108.4055
L118.2236 107.5455
" />
<path d="M118.2236 107.5455
L118.7936 106.3855
" />
<path d="M118.7936 106.3855
L119.6236 104.9855
" />
<path d="M119.1036 11.7555
L117.2236 11.2955
" />
<path d="M119.6236 104.9855
L122.6536 100.2455
" />
<path d="M120.1236 11.7455
L119.1036 11.7555
" />
<path d="M120.5036 11.6055
L120.1236 11.7455
" />
<path d="M121.8536 11.1255
L120.5036 11.6055
" />
<path d="M122.6536 100.2455
L124.6536 98.0055
" />
<path d="M123.6136 11.3555
L121.8536 11.1255
" />
<path d="M124.6536 98.0055
L127.9736 94.4255
" />
<path d="M125.2536 13.0255
L123.6136 11.3555
" />
<path d="M125.6836 14.1855
L125.2536 13.0255
" />
<path d="M126.7036 15.0655
L125.6836 14.1855
" />
<path d="M126.8536 15.0855
L126.7036 15.0655
" />
<path d="M127.9336 14.9055
L126.8536 15.0855
" />
<path d="M127.9736 94.4255
L133.1236 89.9555
" />
<path d="M128.3636 14.6255
L127.9336 14.9055
" />
<path d="M129.3836 14.1355
L128.3636 14.6255
" />
<path d="M130.3736 13.8955
L129.3836 14.1355
" />
<path d="M131.9236 14.0855
L130.3736 13.8955
" />
<path d="M133.1236 89.9555
L134.7436 89.0555
" />
<path d="M133.7336 15.0455
L131.9236 14.0855
" />
<path d="M134.7436 89.0555
L137.1736 88.8555
" />
<path d="M134.9136 16.1055
L133.7336 15.0455
" />
<path d="M135.7036 17.0255
L134.9136 16.1055
" />
<path d="M136.7636 17.3355
L135.7036 17.0255
" />
<path d="M137.1736 88.8555
L140.6536 88.9455
" />
<path d="M139.2936 15.7955
L136.7636 17.3355
" />
<path d="M140.5036 15.5055
L139.2936 15.7955
" />
<path d="M140.6536 88.9455
L143.6036 88.9755
" />
<path d="M141.4636 15.7055
L140.5036 15.5055
" />
<path d="M142.3536 16.4255
L141.4636 15.7055
" />
<path d="M142.9836 18.1155
L142.3536 16.4255
" />
<path d="M143.6036 88.9755
L145.9336 88.8555
" />
<path d="M143.7136 18.7255
L142.9836 18.1155
" />
<path d="M145.2736 20.0855
L143.7136 18.7255
" />
<path d="M145.9336 88.8555
L147.9236 88.6455
" />
<path d="M147.0736 21.8555
L145.2736 20.0855
" />
<path d="M147.9236 88.6455
L149.2336 88.3855
" />
<path d="M148.6036 23.7555
L147.0736 21.8555
" />
<path d="M149.2336 88.3855
L150.5336 87.8755
" />
<path d="M149.7736 26.5155
L148.6036 23.7555
" />
<path d="M150.5336 87.8755
L151.3636 87.3755
" />
<path d="M150.7636 28.3755
L149.7736 26.5155
" />
<path d="M150.9836 37.3355
L151.0236 33.1655
" />
<path d="M151.0236 33.1655
L151.0836 31.1555
" />
<path d="M151.0836 31.1555
L150.7636 28.3755
" />
<path d="M151.3636 87.3755
L151.8336 86.8855
" />
<path d="M151.7536 39.1855
L150.9836 37.3355
" />
<path d="M151.8336 86.8855
L152.5336 86.0055
" />
<path d="M152.5336 86.0055
L153.8536 83.8855
" />
<path d="M153.2536 40.9755
L151.7536 39.1855
" />
<path d="M153.2536 40.9755
L155.2736 55.2855
" />
<path d="M153.8536 83.8855
L155.0436 81.5255
" />
<path d="M154.3636 59.4555
L155.1436 55.9355
" />
<path d="M154.5936 62.4055
L154.3636 59.4555
" />
<path d="M155.0436 81.5255
L155.7036 78.2255
" />
<path d="M155.1436 55.9355
L155.2736 55.2855
" />
<path d="M155.3536 68.2055
L154.5936 62.4055
" />
<path d="M155.7036 78.2255
L155.9036 73.8955
" />
<path d="M155.9036 73.8955
L155.3536 68.2055
" />
<g >
</g>
<g >
</g>
<g >
</g>
<g >
</g>
</g> 
</svg>
