<?xml version="1.0" standalone="no"?>
 <!DOCTYPE svg PUBLIC "-//W3C//DTD SVG 1.1//EN" 
 "http://www.w3.org/Graphics/SVG/1.1/DTD/svg11.dtd"> 
<svg
  xmlns:svg="http://www.w3.org/2000/svg"
  xmlns="http://www.w3.org/2000/svg"
  xmlns:xlink="http://www.w3.org/1999/xlink"
  version="1.1"
  width="150.6728mm" height="141.4272mm" viewBox="0.0000 0.0000 150.6728 141.4272">
<title>SVG Image created as g0dzilla_vs_sao1-brd.svg date 2024/06/17 13:31:24 </title>
  <desc>Image generated by PCBNEW </desc>
<g style="fill:#000000; fill-opacity:1.0000;stroke:#000000; stroke-opacity:1.0000;
stroke-linecap:round; stroke-linejoin:round;"
 transform="translate(0 0) scale(1 1)">
</g>
<g style="fill:#000000; fill-opacity:0.0; 
stroke:#000000; stroke-width:0.0000; stroke-opacity:1; 
stroke-linecap:round; stroke-linejoin:round;">
<g >
</g>
<g style="fill:#000000; fill-opacity:1.0000; 
stroke:#000000; stroke-width:0.0000; stroke-opacity:1; 
stroke-linecap:round; stroke-linejoin:round;">
<circle cx="38.5598" cy="73.3155" r="0.2500" /> 
</g>
<g style="fill:#000000; fill-opacity:1.0000; 
stroke:#000000; stroke-width:0.0212; stroke-opacity:1; 
stroke-linecap:round; stroke-linejoin:round;">
</g>
<g style="fill:#000000; fill-opacity:1.0000; 
stroke:#000000; stroke-width:0.0000; stroke-opacity:1; 
stroke-linecap:round; stroke-linejoin:round;">
<circle cx="38.5598" cy="74.8155" r="0.2500" /> 
</g>
<g style="fill:#000000; fill-opacity:1.0000; 
stroke:#000000; stroke-width:0.0212; stroke-opacity:1; 
stroke-linecap:round; stroke-linejoin:round;">
</g>
<g style="fill:#000000; fill-opacity:1.0000; 
stroke:#000000; stroke-width:0.0000; stroke-opacity:1; 
stroke-linecap:round; stroke-linejoin:round;">
<circle cx="39.3098" cy="73.3155" r="0.2500" /> 
</g>
<g style="fill:#000000; fill-opacity:1.0000; 
stroke:#000000; stroke-width:0.0212; stroke-opacity:1; 
stroke-linecap:round; stroke-linejoin:round;">
</g>
<g style="fill:#000000; fill-opacity:1.0000; 
stroke:#000000; stroke-width:0.0000; stroke-opacity:1; 
stroke-linecap:round; stroke-linejoin:round;">
<circle cx="39.3098" cy="74.8155" r="0.2500" /> 
</g>
<g style="fill:#000000; fill-opacity:1.0000; 
stroke:#000000; stroke-width:0.0212; stroke-opacity:1; 
stroke-linecap:round; stroke-linejoin:round;">
</g>
<g style="fill:#000000; fill-opacity:1.0000; 
stroke:#000000; stroke-width:0.0000; stroke-opacity:1; 
stroke-linecap:round; stroke-linejoin:round;">
<circle cx="40.0598" cy="73.3155" r="0.2500" /> 
</g>
<g style="fill:#000000; fill-opacity:1.0000; 
stroke:#000000; stroke-width:0.0212; stroke-opacity:1; 
stroke-linecap:round; stroke-linejoin:round;">
</g>
<g style="fill:#000000; fill-opacity:1.0000; 
stroke:#000000; stroke-width:0.0000; stroke-opacity:1; 
stroke-linecap:round; stroke-linejoin:round;">
<circle cx="40.0598" cy="74.8155" r="0.2500" /> 
</g>
<g style="fill:#000000; fill-opacity:1.0000; 
stroke:#000000; stroke-width:0.0212; stroke-opacity:1; 
stroke-linecap:round; stroke-linejoin:round;">
</g>
<g style="fill:#000000; fill-opacity:1.0000; 
stroke:#000000; stroke-width:0.0000; stroke-opacity:1; 
stroke-linecap:round; stroke-linejoin:round;">
<circle cx="64.4598" cy="73.3155" r="0.2500" /> 
</g>
<g style="fill:#000000; fill-opacity:1.0000; 
stroke:#000000; stroke-width:0.0212; stroke-opacity:1; 
stroke-linecap:round; stroke-linejoin:round;">
</g>
<g style="fill:#000000; fill-opacity:1.0000; 
stroke:#000000; stroke-width:0.0000; stroke-opacity:1; 
stroke-linecap:round; stroke-linejoin:round;">
<circle cx="64.4598" cy="74.8155" r="0.2500" /> 
</g>
<g style="fill:#000000; fill-opacity:1.0000; 
stroke:#000000; stroke-width:0.0212; stroke-opacity:1; 
stroke-linecap:round; stroke-linejoin:round;">
</g>
<g style="fill:#000000; fill-opacity:1.0000; 
stroke:#000000; stroke-width:0.0000; stroke-opacity:1; 
stroke-linecap:round; stroke-linejoin:round;">
<circle cx="65.2098" cy="73.3155" r="0.2500" /> 
</g>
<g style="fill:#000000; fill-opacity:1.0000; 
stroke:#000000; stroke-width:0.0212; stroke-opacity:1; 
stroke-linecap:round; stroke-linejoin:round;">
</g>
<g style="fill:#000000; fill-opacity:1.0000; 
stroke:#000000; stroke-width:0.0000; stroke-opacity:1; 
stroke-linecap:round; stroke-linejoin:round;">
<circle cx="65.2098" cy="74.8155" r="0.2500" /> 
</g>
<g style="fill:#000000; fill-opacity:1.0000; 
stroke:#000000; stroke-width:0.0212; stroke-opacity:1; 
stroke-linecap:round; stroke-linejoin:round;">
</g>
<g style="fill:#000000; fill-opacity:1.0000; 
stroke:#000000; stroke-width:0.0000; stroke-opacity:1; 
stroke-linecap:round; stroke-linejoin:round;">
<circle cx="65.9598" cy="73.3155" r="0.2500" /> 
</g>
<g style="fill:#000000; fill-opacity:1.0000; 
stroke:#000000; stroke-width:0.0212; stroke-opacity:1; 
stroke-linecap:round; stroke-linejoin:round;">
</g>
<g style="fill:#000000; fill-opacity:1.0000; 
stroke:#000000; stroke-width:0.0000; stroke-opacity:1; 
stroke-linecap:round; stroke-linejoin:round;">
<circle cx="65.9598" cy="74.8155" r="0.2500" /> 
</g>
<g style="fill:#000000; fill-opacity:1.0000; 
stroke:#000000; stroke-width:0.0212; stroke-opacity:1; 
stroke-linecap:round; stroke-linejoin:round;">
</g>
<g style="fill:#000000; fill-opacity:1.0000; 
stroke:#000000; stroke-width:0.0000; stroke-opacity:1; 
stroke-linecap:round; stroke-linejoin:round;">
<circle cx="72.0498" cy="66.0455" r="0.2500" /> 
</g>
<g style="fill:#000000; fill-opacity:1.0000; 
stroke:#000000; stroke-width:0.0212; stroke-opacity:1; 
stroke-linecap:round; stroke-linejoin:round;">
</g>
<g style="fill:#000000; fill-opacity:1.0000; 
stroke:#000000; stroke-width:0.0000; stroke-opacity:1; 
stroke-linecap:round; stroke-linejoin:round;">
<circle cx="72.0498" cy="66.7955" r="0.2500" /> 
</g>
<g style="fill:#000000; fill-opacity:1.0000; 
stroke:#000000; stroke-width:0.0212; stroke-opacity:1; 
stroke-linecap:round; stroke-linejoin:round;">
</g>
<g style="fill:#000000; fill-opacity:1.0000; 
stroke:#000000; stroke-width:0.0000; stroke-opacity:1; 
stroke-linecap:round; stroke-linejoin:round;">
<circle cx="72.0498" cy="67.5455" r="0.2500" /> 
</g>
<g style="fill:#000000; fill-opacity:1.0000; 
stroke:#000000; stroke-width:0.0212; stroke-opacity:1; 
stroke-linecap:round; stroke-linejoin:round;">
</g>
<g style="fill:#000000; fill-opacity:1.0000; 
stroke:#000000; stroke-width:0.0000; stroke-opacity:1; 
stroke-linecap:round; stroke-linejoin:round;">
<circle cx="72.0998" cy="80.5855" r="0.2500" /> 
</g>
<g style="fill:#000000; fill-opacity:1.0000; 
stroke:#000000; stroke-width:0.0212; stroke-opacity:1; 
stroke-linecap:round; stroke-linejoin:round;">
</g>
<g style="fill:#000000; fill-opacity:1.0000; 
stroke:#000000; stroke-width:0.0000; stroke-opacity:1; 
stroke-linecap:round; stroke-linejoin:round;">
<circle cx="72.0998" cy="81.3355" r="0.2500" /> 
</g>
<g style="fill:#000000; fill-opacity:1.0000; 
stroke:#000000; stroke-width:0.0212; stroke-opacity:1; 
stroke-linecap:round; stroke-linejoin:round;">
</g>
<g style="fill:#000000; fill-opacity:1.0000; 
stroke:#000000; stroke-width:0.0000; stroke-opacity:1; 
stroke-linecap:round; stroke-linejoin:round;">
<circle cx="72.0998" cy="82.0855" r="0.2500" /> 
</g>
<g style="fill:#000000; fill-opacity:1.0000; 
stroke:#000000; stroke-width:0.0212; stroke-opacity:1; 
stroke-linecap:round; stroke-linejoin:round;">
</g>
<g style="fill:#000000; fill-opacity:1.0000; 
stroke:#000000; stroke-width:0.0000; stroke-opacity:1; 
stroke-linecap:round; stroke-linejoin:round;">
<circle cx="73.5498" cy="66.0455" r="0.2500" /> 
</g>
<g style="fill:#000000; fill-opacity:1.0000; 
stroke:#000000; stroke-width:0.0212; stroke-opacity:1; 
stroke-linecap:round; stroke-linejoin:round;">
</g>
<g style="fill:#000000; fill-opacity:1.0000; 
stroke:#000000; stroke-width:0.0000; stroke-opacity:1; 
stroke-linecap:round; stroke-linejoin:round;">
<circle cx="73.5498" cy="66.7955" r="0.2500" /> 
</g>
<g style="fill:#000000; fill-opacity:1.0000; 
stroke:#000000; stroke-width:0.0212; stroke-opacity:1; 
stroke-linecap:round; stroke-linejoin:round;">
</g>
<g style="fill:#000000; fill-opacity:1.0000; 
stroke:#000000; stroke-width:0.0000; stroke-opacity:1; 
stroke-linecap:round; stroke-linejoin:round;">
<circle cx="73.5498" cy="67.5455" r="0.2500" /> 
</g>
<g style="fill:#000000; fill-opacity:1.0000; 
stroke:#000000; stroke-width:0.0212; stroke-opacity:1; 
stroke-linecap:round; stroke-linejoin:round;">
</g>
<g style="fill:#000000; fill-opacity:1.0000; 
stroke:#000000; stroke-width:0.0000; stroke-opacity:1; 
stroke-linecap:round; stroke-linejoin:round;">
<circle cx="73.5998" cy="80.5855" r="0.2500" /> 
</g>
<g style="fill:#000000; fill-opacity:1.0000; 
stroke:#000000; stroke-width:0.0212; stroke-opacity:1; 
stroke-linecap:round; stroke-linejoin:round;">
</g>
<g style="fill:#000000; fill-opacity:1.0000; 
stroke:#000000; stroke-width:0.0000; stroke-opacity:1; 
stroke-linecap:round; stroke-linejoin:round;">
<circle cx="73.5998" cy="81.3355" r="0.2500" /> 
</g>
<g style="fill:#000000; fill-opacity:1.0000; 
stroke:#000000; stroke-width:0.0212; stroke-opacity:1; 
stroke-linecap:round; stroke-linejoin:round;">
</g>
<g style="fill:#000000; fill-opacity:1.0000; 
stroke:#000000; stroke-width:0.0000; stroke-opacity:1; 
stroke-linecap:round; stroke-linejoin:round;">
<circle cx="73.5998" cy="82.0855" r="0.2500" /> 
</g>
<g style="fill:#000000; fill-opacity:1.0000; 
stroke:#000000; stroke-width:0.0212; stroke-opacity:1; 
stroke-linecap:round; stroke-linejoin:round;">
</g>
<g style="fill:#000000; fill-opacity:1.0000; 
stroke:#000000; stroke-width:0.0000; stroke-opacity:1; 
stroke-linecap:round; stroke-linejoin:round;">
<circle cx="79.6398" cy="73.3155" r="0.2500" /> 
</g>
<g style="fill:#000000; fill-opacity:1.0000; 
stroke:#000000; stroke-width:0.0212; stroke-opacity:1; 
stroke-linecap:round; stroke-linejoin:round;">
</g>
<g style="fill:#000000; fill-opacity:1.0000; 
stroke:#000000; stroke-width:0.0000; stroke-opacity:1; 
stroke-linecap:round; stroke-linejoin:round;">
<circle cx="79.6398" cy="74.8155" r="0.2500" /> 
</g>
<g style="fill:#000000; fill-opacity:1.0000; 
stroke:#000000; stroke-width:0.0212; stroke-opacity:1; 
stroke-linecap:round; stroke-linejoin:round;">
</g>
<g style="fill:#000000; fill-opacity:1.0000; 
stroke:#000000; stroke-width:0.0000; stroke-opacity:1; 
stroke-linecap:round; stroke-linejoin:round;">
<circle cx="80.3898" cy="73.3155" r="0.2500" /> 
</g>
<g style="fill:#000000; fill-opacity:1.0000; 
stroke:#000000; stroke-width:0.0212; stroke-opacity:1; 
stroke-linecap:round; stroke-linejoin:round;">
</g>
<g style="fill:#000000; fill-opacity:1.0000; 
stroke:#000000; stroke-width:0.0000; stroke-opacity:1; 
stroke-linecap:round; stroke-linejoin:round;">
<circle cx="80.3898" cy="74.8155" r="0.2500" /> 
</g>
<g style="fill:#000000; fill-opacity:1.0000; 
stroke:#000000; stroke-width:0.0212; stroke-opacity:1; 
stroke-linecap:round; stroke-linejoin:round;">
</g>
<g style="fill:#000000; fill-opacity:1.0000; 
stroke:#000000; stroke-width:0.0000; stroke-opacity:1; 
stroke-linecap:round; stroke-linejoin:round;">
<circle cx="81.1398" cy="73.3155" r="0.2500" /> 
</g>
<g style="fill:#000000; fill-opacity:1.0000; 
stroke:#000000; stroke-width:0.0212; stroke-opacity:1; 
stroke-linecap:round; stroke-linejoin:round;">
</g>
<g style="fill:#000000; fill-opacity:1.0000; 
stroke:#000000; stroke-width:0.0000; stroke-opacity:1; 
stroke-linecap:round; stroke-linejoin:round;">
<circle cx="81.1398" cy="74.8155" r="0.2500" /> 
</g>
<g style="fill:#000000; fill-opacity:1.0000; 
stroke:#000000; stroke-width:0.0212; stroke-opacity:1; 
stroke-linecap:round; stroke-linejoin:round;">
</g>
<g style="fill:#000000; fill-opacity:1.0000; 
stroke:#000000; stroke-width:0.0000; stroke-opacity:1; 
stroke-linecap:round; stroke-linejoin:round;">
<circle cx="105.5398" cy="73.3155" r="0.2500" /> 
</g>
<g style="fill:#000000; fill-opacity:1.0000; 
stroke:#000000; stroke-width:0.0212; stroke-opacity:1; 
stroke-linecap:round; stroke-linejoin:round;">
</g>
<g style="fill:#000000; fill-opacity:1.0000; 
stroke:#000000; stroke-width:0.0000; stroke-opacity:1; 
stroke-linecap:round; stroke-linejoin:round;">
<circle cx="105.5398" cy="74.8155" r="0.2500" /> 
</g>
<g style="fill:#000000; fill-opacity:1.0000; 
stroke:#000000; stroke-width:0.0212; stroke-opacity:1; 
stroke-linecap:round; stroke-linejoin:round;">
</g>
<g style="fill:#000000; fill-opacity:1.0000; 
stroke:#000000; stroke-width:0.0000; stroke-opacity:1; 
stroke-linecap:round; stroke-linejoin:round;">
<circle cx="106.2898" cy="73.3155" r="0.2500" /> 
</g>
<g style="fill:#000000; fill-opacity:1.0000; 
stroke:#000000; stroke-width:0.0212; stroke-opacity:1; 
stroke-linecap:round; stroke-linejoin:round;">
</g>
<g style="fill:#000000; fill-opacity:1.0000; 
stroke:#000000; stroke-width:0.0000; stroke-opacity:1; 
stroke-linecap:round; stroke-linejoin:round;">
<circle cx="106.2898" cy="74.8155" r="0.2500" /> 
</g>
<g style="fill:#000000; fill-opacity:1.0000; 
stroke:#000000; stroke-width:0.0212; stroke-opacity:1; 
stroke-linecap:round; stroke-linejoin:round;">
</g>
<g style="fill:#000000; fill-opacity:1.0000; 
stroke:#000000; stroke-width:0.0000; stroke-opacity:1; 
stroke-linecap:round; stroke-linejoin:round;">
<circle cx="107.0398" cy="73.3155" r="0.2500" /> 
</g>
<g style="fill:#000000; fill-opacity:1.0000; 
stroke:#000000; stroke-width:0.0212; stroke-opacity:1; 
stroke-linecap:round; stroke-linejoin:round;">
</g>
<g style="fill:#000000; fill-opacity:1.0000; 
stroke:#000000; stroke-width:0.0000; stroke-opacity:1; 
stroke-linecap:round; stroke-linejoin:round;">
<circle cx="107.0398" cy="74.8155" r="0.2500" /> 
</g>
<g style="fill:#000000; fill-opacity:1.0000; 
stroke:#000000; stroke-width:0.0212; stroke-opacity:1; 
stroke-linecap:round; stroke-linejoin:round;">
</g>
<g >
</g>
<g >
</g>
<g >
</g>
</g>
<g style="fill:#000000; fill-opacity:1.0000; 
stroke:#000000; stroke-width:0.0212; stroke-opacity:1; 
stroke-linecap:round; stroke-linejoin:round;">
</g>
<g style="fill:#000000; fill-opacity:0.0; 
stroke:#000000; stroke-width:0.0500; stroke-opacity:1; 
stroke-linecap:round; stroke-linejoin:round;">
<circle cx="37.3098" cy="74.0655" r="0.0600" /> 
<circle cx="41.3098" cy="74.0655" r="0.0600" /> 
<circle cx="63.2098" cy="74.0655" r="0.0600" /> 
<circle cx="67.2098" cy="74.0655" r="0.0600" /> 
<circle cx="72.7998" cy="64.7955" r="0.0600" /> 
<circle cx="72.7998" cy="68.7955" r="0.0600" /> 
<circle cx="72.8498" cy="79.3355" r="0.0600" /> 
<circle cx="72.8498" cy="83.3355" r="0.0600" /> 
<circle cx="78.3898" cy="74.0655" r="0.0600" /> 
<circle cx="82.3898" cy="74.0655" r="0.0600" /> 
<circle cx="104.2898" cy="74.0655" r="0.0600" /> 
<circle cx="108.2898" cy="74.0655" r="0.0600" /> 
</g>
<g style="fill:#000000; fill-opacity:1.0000; 
stroke:#000000; stroke-width:0.0000; stroke-opacity:1; 
stroke-linecap:round; stroke-linejoin:round;">
<path style="fill:#000000; fill-opacity:1.0000; 
stroke:#000000; stroke-width:0.0000; stroke-opacity:1; 
stroke-linecap:round; stroke-linejoin:round;fill-rule:evenodd;"
d="M 2.3955,82.9235
2.3955,83.9694
3.5268,83.9694
4.6580,83.9694
4.6580,84.1615
4.6580,84.3536
3.5268,84.3536
2.3955,84.3536
2.3955,85.3995
2.3955,86.4454
2.2247,86.4454
2.0540,86.4454
2.0540,85.3995
2.0540,84.3536
1.0294,84.3536
0.0049,84.3536
0.0049,84.1615
0.0049,83.9694
1.0294,83.9694
2.0540,83.9694
2.0540,82.9235
2.0540,81.8776
2.2247,81.8776
2.3955,81.8776
Z" /> 
<path style="fill:#000000; fill-opacity:1.0000; 
stroke:#000000; stroke-width:0.0000; stroke-opacity:1; 
stroke-linecap:round; stroke-linejoin:round;fill-rule:evenodd;"
d="M 2.4382,1.0672
2.4382,2.1345
3.5694,2.1345
4.7007,2.1345
4.7007,2.3045
4.7007,2.4745
3.5801,2.4859
2.4595,2.4973
2.4481,3.5539
2.4367,4.6104
2.2667,4.6104
2.0967,4.6104
2.0967,3.5432
2.0967,2.4760
1.0508,2.4760
0.0049,2.4760
0.0049,2.3052
0.0049,2.1345
1.0508,2.1345
2.0967,2.1345
2.0967,1.0672
2.0967,0.0000
2.2674,0.0000
2.4382,0.0000
Z" /> 
<path style="fill:#000000; fill-opacity:1.0000; 
stroke:#000000; stroke-width:0.0000; stroke-opacity:1; 
stroke-linecap:round; stroke-linejoin:round;fill-rule:evenodd;"
d="M 2.4382,37.0755
2.4382,38.1213
3.5719,38.1213
4.7056,38.1213
4.6925,38.3028
4.6794,38.4842
3.5588,38.4956
2.4382,38.5070
2.4382,39.5521
2.4382,40.5973
2.2674,40.5973
2.0967,40.5973
2.0967,39.5522
2.0967,38.5071
1.0615,38.4956
0.0263,38.4842
0.0131,38.3028
0.0000,38.1213
1.0483,38.1213
2.0967,38.1213
2.0967,37.0755
2.0967,36.0296
2.2674,36.0296
2.4382,36.0296
Z" /> 
<path style="fill:#000000; fill-opacity:1.0000; 
stroke:#000000; stroke-width:0.0000; stroke-opacity:1; 
stroke-linecap:round; stroke-linejoin:round;fill-rule:evenodd;"
d="M 2.5236,137.8430
2.5236,138.9103
3.6548,138.9103
4.7861,138.9103
4.7861,139.0810
4.7861,139.2518
3.6548,139.2518
2.5236,139.2518
2.5236,140.3190
2.5236,141.3862
2.3536,141.3862
2.1835,141.3862
2.1721,140.3297
2.1607,139.2731
1.1255,139.2617
0.0903,139.2502
0.0903,139.0803
0.0903,138.9103
1.1362,138.9103
2.1821,138.9103
2.1821,137.8430
2.1821,136.7758
2.3528,136.7758
2.5236,136.7758
Z" /> 
<path style="fill:#000000; fill-opacity:1.0000; 
stroke:#000000; stroke-width:0.0000; stroke-opacity:1; 
stroke-linecap:round; stroke-linejoin:round;fill-rule:evenodd;"
d="M 148.1894,36.0378
148.3708,36.0509
148.3822,37.1075
148.3936,38.1640
149.5028,38.1640
150.6120,38.1640
150.6120,38.3348
150.6120,38.5055
149.5028,38.5055
148.3936,38.5055
148.3822,39.5621
148.3708,40.6187
148.1894,40.6318
148.0079,40.6449
148.0079,39.5752
148.0079,38.5055
146.9834,38.5055
145.9589,38.5055
145.9589,38.3348
145.9589,38.1640
146.9834,38.1640
148.0079,38.1640
148.0079,37.0944
148.0079,36.0247
Z" /> 
<path style="fill:#000000; fill-opacity:1.0000; 
stroke:#000000; stroke-width:0.0000; stroke-opacity:1; 
stroke-linecap:round; stroke-linejoin:round;fill-rule:evenodd;"
d="M 148.3494,82.9424
148.3494,84.0121
149.4594,84.0121
150.5693,84.0121
150.5693,84.1829
150.5693,84.3536
149.4594,84.3536
148.3494,84.3536
148.3494,85.4208
148.3494,86.4881
148.1573,86.4881
147.9652,86.4881
147.9652,85.4208
147.9652,84.3536
146.9407,84.3536
145.9162,84.3536
145.9162,84.1829
145.9162,84.0121
146.9400,84.0121
147.9638,84.0121
147.9752,82.9555
147.9866,81.8990
148.1680,81.8859
148.3494,81.8727
Z" /> 
<path style="fill:#000000; fill-opacity:1.0000; 
stroke:#000000; stroke-width:0.0000; stroke-opacity:1; 
stroke-linecap:round; stroke-linejoin:round;fill-rule:evenodd;"
d="M 148.3921,1.1099
148.3921,2.1771
149.5021,2.1771
150.6120,2.1771
150.6120,2.3479
150.6120,2.5187
149.5028,2.5187
148.3936,2.5187
148.3822,3.5752
148.3708,4.6318
148.1894,4.6449
148.0079,4.6580
148.0079,3.5883
148.0079,2.5187
146.9834,2.5187
145.9589,2.5187
145.9589,2.3479
145.9589,2.1771
146.9834,2.1771
148.0079,2.1771
148.0079,1.1099
148.0079,0.0427
148.2000,0.0427
148.3921,0.0427
Z" /> 
<path style="fill:#000000; fill-opacity:1.0000; 
stroke:#000000; stroke-width:0.0000; stroke-opacity:1; 
stroke-linecap:round; stroke-linejoin:round;fill-rule:evenodd;"
d="M 148.4775,137.8857
148.4775,138.9529
149.5874,138.9529
150.6973,138.9529
150.6973,139.1237
150.6973,139.2945
149.5882,139.2945
148.4790,139.2945
148.4676,140.3510
148.4562,141.4076
148.2747,141.4207
148.0933,141.4338
148.0933,140.3641
148.0933,139.2945
147.0688,139.2945
146.0442,139.2945
146.0442,139.1237
146.0442,138.9529
147.0688,138.9529
148.0933,138.9529
148.0933,137.8857
148.0933,136.8185
148.2854,136.8185
148.4775,136.8185
Z" /> 
<g >
</g>
<g >
</g>
<g >
</g>
<g >
</g>
</g>
<g style="fill:#000000; fill-opacity:1.0000; 
stroke:#000000; stroke-width:0.0000; stroke-opacity:1; 
stroke-linecap:round; stroke-linejoin:round;">
</g>
<g style="fill:#000000; fill-opacity:1.0000; 
stroke:#000000; stroke-width:0.1200; stroke-opacity:1; 
stroke-linecap:round; stroke-linejoin:round;">
</g>
<g style="fill:#000000; fill-opacity:0.0; 
stroke:#000000; stroke-width:0.1200; stroke-opacity:1; 
stroke-linecap:round; stroke-linejoin:round;">
<path d="M32.7198 64.7955
L32.8098 52.4655
" />
<path d="M32.7198 68.7955
L32.7198 64.7955
" />
<path d="M32.7198 69.0855
L32.7198 68.7955
" />
<path d="M32.7698 79.0455
L32.7698 79.3355
" />
<path d="M32.7698 79.3355
L32.7698 83.3355
" />
<path d="M32.7698 83.3355
L32.8598 95.6655
" />
<path d="M32.8098 52.4655
L32.9098 51.6655
" />
<path d="M32.8598 95.6655
L32.9598 96.4655
" />
<path d="M32.9098 51.6655
L33.0098 51.3655
" />
<path d="M32.9198 69.6855
L32.7198 69.0855
" />
<path d="M32.9598 96.4655
L33.0598 96.7655
" />
<path d="M32.9698 78.4455
L32.7698 79.0455
" />
<path d="M33.0098 51.3655
L33.2098 50.8655
" />
<path d="M33.0598 96.7655
L33.2598 97.2655
" />
<path d="M33.1198 70.1855
L32.9198 69.6855
" />
<path d="M33.1698 77.9455
L32.9698 78.4455
" />
<path d="M33.2098 50.8655
L33.4098 50.4655
" />
<path d="M33.2598 97.2655
L33.4598 97.6655
" />
<path d="M33.4098 50.4655
L34.0098 49.4655
" />
<path d="M33.4598 97.6655
L34.0598 98.6655
" />
<path d="M33.5198 70.7855
L33.1198 70.1855
" />
<path d="M33.5698 77.3455
L33.1698 77.9455
" />
<path d="M33.7098 71.0655
L33.5198 70.7855
" />
<path d="M33.7598 77.0655
L33.5698 77.3455
" />
<path d="M34.0098 49.4655
L34.5098 48.6655
" />
<path d="M34.0098 71.3655
L33.7098 71.0655
" />
<path d="M34.0598 76.7655
L33.7598 77.0655
" />
<path d="M34.0598 98.6655
L34.5598 99.4655
" />
<path d="M34.3098 71.6655
L34.0098 71.3655
" />
<path d="M34.3598 76.4655
L34.0598 76.7655
" />
<path d="M34.5098 48.6655
L36.0098 46.2655
" />
<path d="M34.5598 99.4655
L36.0598 101.8655
" />
<path d="M34.7098 71.9655
L34.3098 71.6655
" />
<path d="M34.7598 76.1655
L34.3598 76.4655
" />
<path d="M35.2098 72.2655
L34.7098 71.9655
" />
<path d="M35.2598 75.8655
L34.7598 76.1655
" />
<path d="M35.9098 72.5655
L35.2098 72.2655
" />
<path d="M35.9598 75.5655
L35.2598 75.8655
" />
<path d="M36.0098 46.2655
L37.0098 44.6655
" />
<path d="M36.0598 101.8655
L37.0598 103.4655
" />
<path d="M37.0098 44.6655
L37.4098 44.0655
" />
<path d="M37.0598 103.4655
L37.4598 104.0655
" />
<path d="M37.3098 73.0655
L35.9098 72.5655
" />
<path d="M37.3598 75.0655
L35.9598 75.5655
" />
<path d="M37.4098 44.0655
L37.8098 43.4655
" />
<path d="M37.4598 104.0655
L37.8598 104.6655
" />
<path d="M37.8098 43.4655
L38.3098 42.8655
" />
<path d="M37.8598 104.6655
L38.3598 105.2655
" />
<path d="M38.3098 42.8655
L38.9098 42.1655
" />
<path d="M38.3598 105.2655
L38.9598 105.9655
" />
<path d="M38.9098 42.1655
L39.5098 41.4655
" />
<path d="M38.9598 105.9655
L39.5598 106.6655
" />
<path d="M39.5098 41.4655
L40.3098 40.5655
" />
<path d="M39.5598 106.6655
L40.3598 107.5655
" />
<path d="M40.3098 40.5655
L42.0098 38.8655
" />
<path d="M40.3598 107.5655
L42.0598 109.2655
" />
<path d="M41.3098 73.0655
L63.2098 73.0655
" />
<path d="M42.0098 38.8655
L42.9098 37.8655
" />
<path d="M42.0598 109.2655
L42.9598 110.2655
" />
<path d="M42.9098 37.8655
L43.3098 37.4655
" />
<path d="M42.9598 110.2655
L43.3598 110.6655
" />
<path d="M43.3098 37.4655
L44.0098 36.8655
" />
<path d="M43.3598 110.6655
L44.0598 111.2655
" />
<path d="M44.0098 36.8655
L45.3098 35.7655
" />
<path d="M44.0598 111.2655
L45.3598 112.3655
" />
<path d="M45.3098 35.7655
L46.4098 34.8655
" />
<path d="M45.3598 112.3655
L46.4598 113.2655
" />
<path d="M46.4098 34.8655
L46.9098 34.3655
" />
<path d="M46.4598 113.2655
L46.9598 113.7655
" />
<path d="M46.9098 34.3655
L47.8098 33.5655
" />
<path d="M46.9598 113.7655
L47.8598 114.5655
" />
<path d="M47.8098 33.5655
L48.5098 32.9655
" />
<path d="M47.8598 114.5655
L48.5598 115.1655
" />
<path d="M48.5098 32.9655
L48.8098 32.7655
" />
<path d="M48.5598 115.1655
L48.8598 115.3655
" />
<path d="M48.8098 32.7655
L49.2098 32.5655
" />
<path d="M48.8598 115.3655
L49.2598 115.5655
" />
<path d="M49.2098 32.5655
L49.5098 32.4655
" />
<path d="M49.2598 115.5655
L49.5598 115.6655
" />
<path d="M49.5098 32.4655
L49.9098 32.3655
" />
<path d="M49.5598 115.6655
L49.9598 115.7655
" />
<path d="M49.9098 32.3655
L51.7098 32.2655
" />
<path d="M49.9598 115.7655
L51.7598 115.8655
" />
<path d="M51.7098 32.2655
L52.8098 32.2655
" />
<path d="M52.8598 115.8655
L51.7598 115.8655
" />
<path d="M54.6098 32.3655
L52.8098 32.2655
" />
<path d="M54.6598 115.7655
L52.8598 115.8655
" />
<path d="M55.0098 32.4655
L54.6098 32.3655
" />
<path d="M55.0598 115.6655
L54.6598 115.7655
" />
<path d="M55.3098 32.5655
L55.0098 32.4655
" />
<path d="M55.3598 115.5655
L55.0598 115.6655
" />
<path d="M55.7098 32.7655
L55.3098 32.5655
" />
<path d="M55.7598 115.3655
L55.3598 115.5655
" />
<path d="M56.0098 32.9655
L55.7098 32.7655
" />
<path d="M56.0598 115.1655
L55.7598 115.3655
" />
<path d="M56.7098 33.5655
L56.0098 32.9655
" />
<path d="M56.7598 114.5655
L56.0598 115.1655
" />
<path d="M57.6098 34.3655
L56.7098 33.5655
" />
<path d="M57.6598 113.7655
L56.7598 114.5655
" />
<path d="M58.1098 34.8655
L57.6098 34.3655
" />
<path d="M58.1598 113.2655
L57.6598 113.7655
" />
<path d="M59.2098 35.7655
L58.1098 34.8655
" />
<path d="M59.2598 112.3655
L58.1598 113.2655
" />
<path d="M60.5098 36.8655
L59.2098 35.7655
" />
<path d="M60.5598 111.2655
L59.2598 112.3655
" />
<path d="M61.2098 37.4655
L60.5098 36.8655
" />
<path d="M61.2598 110.6655
L60.5598 111.2655
" />
<path d="M61.6098 37.8655
L61.2098 37.4655
" />
<path d="M61.6598 110.2655
L61.2598 110.6655
" />
<path d="M62.5098 38.8655
L61.6098 37.8655
" />
<path d="M62.5598 109.2655
L61.6598 110.2655
" />
<path d="M63.2598 75.0655
L41.3598 75.0655
" />
<path d="M64.2098 40.5655
L62.5098 38.8655
" />
<path d="M64.2598 107.5655
L62.5598 109.2655
" />
<path d="M65.0098 41.4655
L64.2098 40.5655
" />
<path d="M65.0598 106.6655
L64.2598 107.5655
" />
<path d="M65.6098 42.1655
L65.0098 41.4655
" />
<path d="M65.6598 105.9655
L65.0598 106.6655
" />
<path d="M66.2098 42.8655
L65.6098 42.1655
" />
<path d="M66.2598 105.2655
L65.6598 105.9655
" />
<path d="M66.7098 43.4655
L66.2098 42.8655
" />
<path d="M66.7598 104.6655
L66.2598 105.2655
" />
<path d="M67.1098 44.0655
L66.7098 43.4655
" />
<path d="M67.1598 104.0655
L66.7598 104.6655
" />
<path d="M67.2098 73.0655
L68.6098 72.5655
" />
<path d="M67.2598 75.0655
L68.6598 75.5655
" />
<path d="M67.5098 44.6655
L67.1098 44.0655
" />
<path d="M67.5598 103.4655
L67.1598 104.0655
" />
<path d="M68.5098 46.2655
L67.5098 44.6655
" />
<path d="M68.5598 101.8655
L67.5598 103.4655
" />
<path d="M68.6098 72.5655
L69.3098 72.2655
" />
<path d="M68.6598 75.5655
L69.3598 75.8655
" />
<path d="M69.3098 72.2655
L69.8098 71.9655
" />
<path d="M69.3598 75.8655
L69.8598 76.1655
" />
<path d="M69.8098 71.9655
L70.2098 71.6655
" />
<path d="M69.8598 76.1655
L70.2598 76.4655
" />
<path d="M70.0098 48.6655
L68.5098 46.2655
" />
<path d="M70.0598 99.4655
L68.5598 101.8655
" />
<path d="M70.2098 71.6655
L70.5098 71.3655
" />
<path d="M70.2598 76.4655
L70.5598 76.7655
" />
<path d="M70.5098 49.4655
L70.0098 48.6655
" />
<path d="M70.5098 71.3655
L70.8098 71.0655
" />
<path d="M70.5598 76.7655
L70.8598 77.0655
" />
<path d="M70.5598 98.6655
L70.0598 99.4655
" />
<path d="M70.8098 71.0655
L70.9998 70.7855
" />
<path d="M70.8598 77.0655
L71.0498 77.3455
" />
<path d="M70.9998 70.7855
L71.3998 70.1855
" />
<path d="M71.0498 77.3455
L71.4498 77.9455
" />
<path d="M71.1098 50.4655
L70.5098 49.4655
" />
<path d="M71.1598 97.6655
L70.5598 98.6655
" />
<path d="M71.3098 50.8655
L71.1098 50.4655
" />
<path d="M71.3598 97.2655
L71.1598 97.6655
" />
<path d="M71.3998 70.1855
L71.5998 69.6855
" />
<path d="M71.4498 77.9455
L71.6498 78.4455
" />
<path d="M71.5098 51.3655
L71.3098 50.8655
" />
<path d="M71.5598 96.7655
L71.3598 97.2655
" />
<path d="M71.5998 69.6855
L71.7998 69.0855
" />
<path d="M71.6098 51.6655
L71.5098 51.3655
" />
<path d="M71.6498 78.4455
L71.8498 79.0455
" />
<path d="M71.6598 96.4655
L71.5598 96.7655
" />
<path d="M71.7098 52.4655
L71.6098 51.6655
" />
<path d="M71.7598 95.6655
L71.6598 96.4655
" />
<path d="M71.7998 64.7955
L71.7098 52.4655
" />
<path d="M71.7998 69.0855
L71.7998 68.7955
" />
<path d="M71.8498 79.0455
L71.8498 79.3355
" />
<path d="M71.8498 83.3355
L71.7598 95.6655
" />
<path d="M73.7998 64.7955
L73.8898 52.4655
" />
<path d="M73.7998 69.0855
L73.7998 68.7955
" />
<path d="M73.8498 79.0455
L73.8498 79.3355
" />
<path d="M73.8498 83.3355
L73.9398 95.6655
" />
<path d="M73.8898 52.4655
L73.9898 51.6655
" />
<path d="M73.9398 95.6655
L74.0398 96.4655
" />
<path d="M73.9898 51.6655
L74.0898 51.3655
" />
<path d="M73.9998 69.6855
L73.7998 69.0855
" />
<path d="M74.0398 96.4655
L74.1398 96.7655
" />
<path d="M74.0498 78.4455
L73.8498 79.0455
" />
<path d="M74.0898 51.3655
L74.2898 50.8655
" />
<path d="M74.1398 96.7655
L74.3398 97.2655
" />
<path d="M74.1998 70.1855
L73.9998 69.6855
" />
<path d="M74.2498 77.9455
L74.0498 78.4455
" />
<path d="M74.2898 50.8655
L74.4898 50.4655
" />
<path d="M74.3398 97.2655
L74.5398 97.6655
" />
<path d="M74.4898 50.4655
L75.0898 49.4655
" />
<path d="M74.5398 97.6655
L75.1398 98.6655
" />
<path d="M74.5998 70.7855
L74.1998 70.1855
" />
<path d="M74.6498 77.3455
L74.2498 77.9455
" />
<path d="M74.7898 71.0655
L74.5998 70.7855
" />
<path d="M74.8398 77.0655
L74.6498 77.3455
" />
<path d="M75.0898 49.4655
L75.5898 48.6655
" />
<path d="M75.0898 71.3655
L74.7898 71.0655
" />
<path d="M75.1398 76.7655
L74.8398 77.0655
" />
<path d="M75.1398 98.6655
L75.6398 99.4655
" />
<path d="M75.3898 71.6655
L75.0898 71.3655
" />
<path d="M75.4398 76.4655
L75.1398 76.7655
" />
<path d="M75.5898 48.6655
L77.0898 46.2655
" />
<path d="M75.6398 99.4655
L77.1398 101.8655
" />
<path d="M75.7898 71.9655
L75.3898 71.6655
" />
<path d="M75.8398 76.1655
L75.4398 76.4655
" />
<path d="M76.2898 72.2655
L75.7898 71.9655
" />
<path d="M76.3398 75.8655
L75.8398 76.1655
" />
<path d="M76.9898 72.5655
L76.2898 72.2655
" />
<path d="M77.0398 75.5655
L76.3398 75.8655
" />
<path d="M77.0898 46.2655
L78.0898 44.6655
" />
<path d="M77.1398 101.8655
L78.1398 103.4655
" />
<path d="M78.0898 44.6655
L78.4898 44.0655
" />
<path d="M78.1398 103.4655
L78.5398 104.0655
" />
<path d="M78.3898 73.0655
L76.9898 72.5655
" />
<path d="M78.4398 75.0655
L77.0398 75.5655
" />
<path d="M78.4898 44.0655
L78.8898 43.4655
" />
<path d="M78.5398 104.0655
L78.9398 104.6655
" />
<path d="M78.8898 43.4655
L79.3898 42.8655
" />
<path d="M78.9398 104.6655
L79.4398 105.2655
" />
<path d="M79.3898 42.8655
L79.9898 42.1655
" />
<path d="M79.4398 105.2655
L80.0398 105.9655
" />
<path d="M79.9898 42.1655
L80.5898 41.4655
" />
<path d="M80.0398 105.9655
L80.6398 106.6655
" />
<path d="M80.5898 41.4655
L81.3898 40.5655
" />
<path d="M80.6398 106.6655
L81.4398 107.5655
" />
<path d="M81.3898 40.5655
L83.0898 38.8655
" />
<path d="M81.4398 107.5655
L83.1398 109.2655
" />
<path d="M82.3898 73.0655
L104.2898 73.0655
" />
<path d="M83.0898 38.8655
L83.9898 37.8655
" />
<path d="M83.1398 109.2655
L84.0398 110.2655
" />
<path d="M83.9898 37.8655
L84.3898 37.4655
" />
<path d="M84.0398 110.2655
L84.4398 110.6655
" />
<path d="M84.3898 37.4655
L85.0898 36.8655
" />
<path d="M84.4398 110.6655
L85.1398 111.2655
" />
<path d="M85.0898 36.8655
L86.3898 35.7655
" />
<path d="M85.1398 111.2655
L86.4398 112.3655
" />
<path d="M86.3898 35.7655
L87.4898 34.8655
" />
<path d="M86.4398 112.3655
L87.5398 113.2655
" />
<path d="M87.4898 34.8655
L87.9898 34.3655
" />
<path d="M87.5398 113.2655
L88.0398 113.7655
" />
<path d="M87.9898 34.3655
L88.8898 33.5655
" />
<path d="M88.0398 113.7655
L88.9398 114.5655
" />
<path d="M88.8898 33.5655
L89.5898 32.9655
" />
<path d="M88.9398 114.5655
L89.6398 115.1655
" />
<path d="M89.5898 32.9655
L89.8898 32.7655
" />
<path d="M89.6398 115.1655
L89.9398 115.3655
" />
<path d="M89.8898 32.7655
L90.2898 32.5655
" />
<path d="M89.9398 115.3655
L90.3398 115.5655
" />
<path d="M90.2898 32.5655
L90.5898 32.4655
" />
<path d="M90.3398 115.5655
L90.6398 115.6655
" />
<path d="M90.5898 32.4655
L90.9898 32.3655
" />
<path d="M90.6398 115.6655
L91.0398 115.7655
" />
<path d="M90.9898 32.3655
L92.7898 32.2655
" />
<path d="M91.0398 115.7655
L92.8398 115.8655
" />
<path d="M92.7898 32.2655
L93.8898 32.2655
" />
<path d="M93.9398 115.8655
L92.8398 115.8655
" />
<path d="M95.6898 32.3655
L93.8898 32.2655
" />
<path d="M95.7398 115.7655
L93.9398 115.8655
" />
<path d="M96.0898 32.4655
L95.6898 32.3655
" />
<path d="M96.1398 115.6655
L95.7398 115.7655
" />
<path d="M96.3898 32.5655
L96.0898 32.4655
" />
<path d="M96.4398 115.5655
L96.1398 115.6655
" />
<path d="M96.7898 32.7655
L96.3898 32.5655
" />
<path d="M96.8398 115.3655
L96.4398 115.5655
" />
<path d="M97.0898 32.9655
L96.7898 32.7655
" />
<path d="M97.1398 115.1655
L96.8398 115.3655
" />
<path d="M97.7898 33.5655
L97.0898 32.9655
" />
<path d="M97.8398 114.5655
L97.1398 115.1655
" />
<path d="M98.6898 34.3655
L97.7898 33.5655
" />
<path d="M98.7398 113.7655
L97.8398 114.5655
" />
<path d="M99.1898 34.8655
L98.6898 34.3655
" />
<path d="M99.2398 113.2655
L98.7398 113.7655
" />
<path d="M100.2898 35.7655
L99.1898 34.8655
" />
<path d="M100.3398 112.3655
L99.2398 113.2655
" />
<path d="M101.5898 36.8655
L100.2898 35.7655
" />
<path d="M101.6398 111.2655
L100.3398 112.3655
" />
<path d="M102.2898 37.4655
L101.5898 36.8655
" />
<path d="M102.3398 110.6655
L101.6398 111.2655
" />
<path d="M102.6898 37.8655
L102.2898 37.4655
" />
<path d="M102.7398 110.2655
L102.3398 110.6655
" />
<path d="M103.5898 38.8655
L102.6898 37.8655
" />
<path d="M103.6398 109.2655
L102.7398 110.2655
" />
<path d="M104.3398 75.0655
L82.4398 75.0655
" />
<path d="M105.2898 40.5655
L103.5898 38.8655
" />
<path d="M105.3398 107.5655
L103.6398 109.2655
" />
<path d="M106.0898 41.4655
L105.2898 40.5655
" />
<path d="M106.1398 106.6655
L105.3398 107.5655
" />
<path d="M106.6898 42.1655
L106.0898 41.4655
" />
<path d="M106.7398 105.9655
L106.1398 106.6655
" />
<path d="M107.2898 42.8655
L106.6898 42.1655
" />
<path d="M107.3398 105.2655
L106.7398 105.9655
" />
<path d="M107.7898 43.4655
L107.2898 42.8655
" />
<path d="M107.8398 104.6655
L107.3398 105.2655
" />
<path d="M108.1898 44.0655
L107.7898 43.4655
" />
<path d="M108.2398 104.0655
L107.8398 104.6655
" />
<path d="M108.2898 73.0655
L109.6898 72.5655
" />
<path d="M108.3398 75.0655
L109.7398 75.5655
" />
<path d="M108.5898 44.6655
L108.1898 44.0655
" />
<path d="M108.6398 103.4655
L108.2398 104.0655
" />
<path d="M109.5898 46.2655
L108.5898 44.6655
" />
<path d="M109.6398 101.8655
L108.6398 103.4655
" />
<path d="M109.6898 72.5655
L110.3898 72.2655
" />
<path d="M109.7398 75.5655
L110.4398 75.8655
" />
<path d="M110.3898 72.2655
L110.8898 71.9655
" />
<path d="M110.4398 75.8655
L110.9398 76.1655
" />
<path d="M110.8898 71.9655
L111.2898 71.6655
" />
<path d="M110.9398 76.1655
L111.3398 76.4655
" />
<path d="M111.0898 48.6655
L109.5898 46.2655
" />
<path d="M111.1398 99.4655
L109.6398 101.8655
" />
<path d="M111.2898 71.6655
L111.5898 71.3655
" />
<path d="M111.3398 76.4655
L111.6398 76.7655
" />
<path d="M111.5898 49.4655
L111.0898 48.6655
" />
<path d="M111.5898 71.3655
L111.8898 71.0655
" />
<path d="M111.6398 76.7655
L111.9398 77.0655
" />
<path d="M111.6398 98.6655
L111.1398 99.4655
" />
<path d="M111.8898 71.0655
L112.0798 70.7855
" />
<path d="M111.9398 77.0655
L112.1298 77.3455
" />
<path d="M112.0798 70.7855
L112.4798 70.1855
" />
<path d="M112.1298 77.3455
L112.5298 77.9455
" />
<path d="M112.1898 50.4655
L111.5898 49.4655
" />
<path d="M112.2398 97.6655
L111.6398 98.6655
" />
<path d="M112.3898 50.8655
L112.1898 50.4655
" />
<path d="M112.4398 97.2655
L112.2398 97.6655
" />
<path d="M112.4798 70.1855
L112.6798 69.6855
" />
<path d="M112.5298 77.9455
L112.7298 78.4455
" />
<path d="M112.5898 51.3655
L112.3898 50.8655
" />
<path d="M112.6398 96.7655
L112.4398 97.2655
" />
<path d="M112.6798 69.6855
L112.8798 69.0855
" />
<path d="M112.6898 51.6655
L112.5898 51.3655
" />
<path d="M112.7298 78.4455
L112.9298 79.0455
" />
<path d="M112.7398 96.4655
L112.6398 96.7655
" />
<path d="M112.7898 52.4655
L112.6898 51.6655
" />
<path d="M112.8398 95.6655
L112.7398 96.4655
" />
<path d="M112.8798 64.7955
L112.7898 52.4655
" />
<path d="M112.8798 68.7955
L112.8798 64.7955
" />
<path d="M112.8798 69.0855
L112.8798 68.7955
" />
<path d="M112.9298 79.0455
L112.9298 79.3355
" />
<path d="M112.9298 79.3355
L112.9298 83.3355
" />
<path d="M112.9298 83.3355
L112.8398 95.6655
" />
<path d="M37.3098 75.0655 A1.0000 1.0000 0.0 0 0 37.3098 73.0655" />
<path d="M41.3098 73.0655 A1.0000 1.0000 0.0 0 0 41.3098 75.0655" />
<path d="M63.2098 75.0655 A1.0000 1.0000 0.0 0 0 63.2098 73.0655" />
<path d="M67.2098 73.0655 A1.0000 1.0000 0.0 0 0 67.2098 75.0655" />
<path d="M73.7998 68.7955 A1.0000 1.0000 0.0 0 0 71.7998 68.7955" />
<path d="M73.8498 83.3355 A1.0000 1.0000 0.0 0 0 71.8498 83.3355" />
<path d="M71.7998 64.7955 A1.0000 1.0000 0.0 0 0 73.7998 64.7955" />
<path d="M71.8498 79.3355 A1.0000 1.0000 0.0 0 0 73.8498 79.3355" />
<path d="M78.3898 75.0655 A1.0000 1.0000 0.0 0 0 78.3898 73.0655" />
<path d="M82.3898 73.0655 A1.0000 1.0000 0.0 0 0 82.3898 75.0655" />
<path d="M104.2898 75.0655 A1.0000 1.0000 0.0 0 0 104.2898 73.0655" />
<path d="M108.2898 73.0655 A1.0000 1.0000 0.0 0 0 108.2898 75.0655" />
<g >
</g>
<g >
</g>
<g >
</g>
<g >
</g>
</g> 
</svg>
