G04 #@! TF.GenerationSoftware,KiCad,Pcbnew,7.0.10*
G04 #@! TF.CreationDate,2024-06-20T09:16:52-05:00*
G04 #@! TF.ProjectId,g0dzilla_vs,6730647a-696c-46c6-915f-76732e6b6963,1*
G04 #@! TF.SameCoordinates,Original*
G04 #@! TF.FileFunction,Soldermask,Bot*
G04 #@! TF.FilePolarity,Negative*
%FSLAX46Y46*%
G04 Gerber Fmt 4.6, Leading zero omitted, Abs format (unit mm)*
G04 Created by KiCad (PCBNEW 7.0.10) date 2024-06-20 09:16:52*
%MOMM*%
%LPD*%
G01*
G04 APERTURE LIST*
%ADD10C,0.010000*%
%ADD11C,3.200000*%
G04 APERTURE END LIST*
D10*
X62669131Y-98253643D02*
X62118798Y-98253643D01*
X62118798Y-96941310D01*
X62119018Y-96787021D01*
X62120875Y-96475425D01*
X62124420Y-96197430D01*
X62129406Y-95963249D01*
X62135587Y-95783094D01*
X62142716Y-95667180D01*
X62150548Y-95625718D01*
X62186437Y-95623344D01*
X62288135Y-95618035D01*
X62425714Y-95611598D01*
X62669131Y-95600736D01*
X62669131Y-98253643D01*
G36*
X62669131Y-98253643D02*
G01*
X62118798Y-98253643D01*
X62118798Y-96941310D01*
X62119018Y-96787021D01*
X62120875Y-96475425D01*
X62124420Y-96197430D01*
X62129406Y-95963249D01*
X62135587Y-95783094D01*
X62142716Y-95667180D01*
X62150548Y-95625718D01*
X62186437Y-95623344D01*
X62288135Y-95618035D01*
X62425714Y-95611598D01*
X62669131Y-95600736D01*
X62669131Y-98253643D01*
G37*
X66449405Y-90752617D02*
X66507514Y-90769508D01*
X66524525Y-90802977D01*
X66525417Y-90864085D01*
X66525884Y-90987991D01*
X66525935Y-91150689D01*
X66525612Y-91328895D01*
X66524959Y-91499326D01*
X66524018Y-91638697D01*
X66522832Y-91723727D01*
X66494717Y-91752697D01*
X66398069Y-91770883D01*
X66225131Y-91776643D01*
X65928798Y-91776643D01*
X65928798Y-90767591D01*
X66225227Y-90753534D01*
X66333796Y-90749593D01*
X66449405Y-90752617D01*
G36*
X66449405Y-90752617D02*
G01*
X66507514Y-90769508D01*
X66524525Y-90802977D01*
X66525417Y-90864085D01*
X66525884Y-90987991D01*
X66525935Y-91150689D01*
X66525612Y-91328895D01*
X66524959Y-91499326D01*
X66524018Y-91638697D01*
X66522832Y-91723727D01*
X66494717Y-91752697D01*
X66398069Y-91770883D01*
X66225131Y-91776643D01*
X65928798Y-91776643D01*
X65928798Y-90767591D01*
X66225227Y-90753534D01*
X66333796Y-90749593D01*
X66449405Y-90752617D01*
G37*
X65590131Y-91818977D02*
X65262048Y-91821918D01*
X65068625Y-91825433D01*
X64874250Y-91831883D01*
X64722298Y-91839854D01*
X64691776Y-91841876D01*
X64549635Y-91849881D01*
X64351941Y-91859740D01*
X64120628Y-91870392D01*
X63877632Y-91880773D01*
X63768141Y-91885540D01*
X63558824Y-91896364D01*
X63388356Y-91907482D01*
X63271994Y-91917828D01*
X63224993Y-91926337D01*
X63224634Y-91926676D01*
X63171363Y-91940319D01*
X63072959Y-91945977D01*
X62940565Y-91945977D01*
X62957627Y-91406227D01*
X62958615Y-91375279D01*
X62965458Y-91176029D01*
X62971866Y-91013170D01*
X62977160Y-90902782D01*
X62980660Y-90860945D01*
X62987505Y-90860126D01*
X63058865Y-90856570D01*
X63197798Y-90851289D01*
X63391980Y-90844708D01*
X63629087Y-90837254D01*
X63896798Y-90829350D01*
X63933351Y-90828291D01*
X64233772Y-90818726D01*
X64530819Y-90807900D01*
X64804175Y-90796645D01*
X65033524Y-90785790D01*
X65198548Y-90776165D01*
X65590131Y-90749043D01*
X65590131Y-91818977D01*
G36*
X65590131Y-91818977D02*
G01*
X65262048Y-91821918D01*
X65068625Y-91825433D01*
X64874250Y-91831883D01*
X64722298Y-91839854D01*
X64691776Y-91841876D01*
X64549635Y-91849881D01*
X64351941Y-91859740D01*
X64120628Y-91870392D01*
X63877632Y-91880773D01*
X63768141Y-91885540D01*
X63558824Y-91896364D01*
X63388356Y-91907482D01*
X63271994Y-91917828D01*
X63224993Y-91926337D01*
X63224634Y-91926676D01*
X63171363Y-91940319D01*
X63072959Y-91945977D01*
X62940565Y-91945977D01*
X62957627Y-91406227D01*
X62958615Y-91375279D01*
X62965458Y-91176029D01*
X62971866Y-91013170D01*
X62977160Y-90902782D01*
X62980660Y-90860945D01*
X62987505Y-90860126D01*
X63058865Y-90856570D01*
X63197798Y-90851289D01*
X63391980Y-90844708D01*
X63629087Y-90837254D01*
X63896798Y-90829350D01*
X63933351Y-90828291D01*
X64233772Y-90818726D01*
X64530819Y-90807900D01*
X64804175Y-90796645D01*
X65033524Y-90785790D01*
X65198548Y-90776165D01*
X65590131Y-90749043D01*
X65590131Y-91818977D01*
G37*
X69758657Y-112740235D02*
X69756164Y-112823680D01*
X69700516Y-112926608D01*
X69638728Y-113039723D01*
X69608290Y-113211233D01*
X69634218Y-113380651D01*
X69715707Y-113516734D01*
X69784800Y-113569025D01*
X69948848Y-113624919D01*
X70136262Y-113626434D01*
X70318089Y-113570964D01*
X70352188Y-113550156D01*
X70438312Y-113448431D01*
X70482346Y-113315664D01*
X70482971Y-113177160D01*
X70438865Y-113058221D01*
X70348710Y-112984152D01*
X70285026Y-112943837D01*
X70246798Y-112859691D01*
X70246818Y-112856364D01*
X70260700Y-112803862D01*
X70315189Y-112779765D01*
X70432114Y-112773977D01*
X70497259Y-112776842D01*
X70621986Y-112806640D01*
X70684114Y-112862976D01*
X70673040Y-112938603D01*
X70670343Y-112943682D01*
X70661681Y-113025212D01*
X70681962Y-113136305D01*
X70697193Y-113280956D01*
X70657999Y-113463740D01*
X70569150Y-113631049D01*
X70443011Y-113751069D01*
X70431332Y-113757937D01*
X70273087Y-113814136D01*
X70056298Y-113831993D01*
X69894455Y-113820762D01*
X69679165Y-113754577D01*
X69524580Y-113629586D01*
X69431352Y-113446411D01*
X69400131Y-113205672D01*
X69400191Y-113197395D01*
X69424817Y-113028068D01*
X69485632Y-112872474D01*
X69570261Y-112754256D01*
X69666331Y-112697057D01*
X69711050Y-112696798D01*
X69758657Y-112740235D01*
G36*
X69758657Y-112740235D02*
G01*
X69756164Y-112823680D01*
X69700516Y-112926608D01*
X69638728Y-113039723D01*
X69608290Y-113211233D01*
X69634218Y-113380651D01*
X69715707Y-113516734D01*
X69784800Y-113569025D01*
X69948848Y-113624919D01*
X70136262Y-113626434D01*
X70318089Y-113570964D01*
X70352188Y-113550156D01*
X70438312Y-113448431D01*
X70482346Y-113315664D01*
X70482971Y-113177160D01*
X70438865Y-113058221D01*
X70348710Y-112984152D01*
X70285026Y-112943837D01*
X70246798Y-112859691D01*
X70246818Y-112856364D01*
X70260700Y-112803862D01*
X70315189Y-112779765D01*
X70432114Y-112773977D01*
X70497259Y-112776842D01*
X70621986Y-112806640D01*
X70684114Y-112862976D01*
X70673040Y-112938603D01*
X70670343Y-112943682D01*
X70661681Y-113025212D01*
X70681962Y-113136305D01*
X70697193Y-113280956D01*
X70657999Y-113463740D01*
X70569150Y-113631049D01*
X70443011Y-113751069D01*
X70431332Y-113757937D01*
X70273087Y-113814136D01*
X70056298Y-113831993D01*
X69894455Y-113820762D01*
X69679165Y-113754577D01*
X69524580Y-113629586D01*
X69431352Y-113446411D01*
X69400131Y-113205672D01*
X69400191Y-113197395D01*
X69424817Y-113028068D01*
X69485632Y-112872474D01*
X69570261Y-112754256D01*
X69666331Y-112697057D01*
X69711050Y-112696798D01*
X69758657Y-112740235D01*
G37*
X69992604Y-107592183D02*
X69996514Y-107596483D01*
X70010659Y-107667144D01*
X69972603Y-107790955D01*
X69938271Y-107887948D01*
X69910800Y-108040129D01*
X69923112Y-108156931D01*
X69975094Y-108218614D01*
X70005785Y-108226510D01*
X70113690Y-108239273D01*
X70250260Y-108244310D01*
X70458464Y-108244310D01*
X70458464Y-108057272D01*
X70460021Y-107974957D01*
X70477777Y-107834128D01*
X70519411Y-107758702D01*
X70589994Y-107736310D01*
X70627444Y-107742638D01*
X70654795Y-107777696D01*
X70667206Y-107860233D01*
X70670131Y-108008794D01*
X70670131Y-108281279D01*
X70807714Y-108294544D01*
X70843368Y-108298948D01*
X70923153Y-108329019D01*
X70945298Y-108392477D01*
X70939638Y-108431189D01*
X70894576Y-108471625D01*
X70786548Y-108490282D01*
X70714187Y-108499347D01*
X70645836Y-108529148D01*
X70627798Y-108588476D01*
X70627354Y-108598455D01*
X70593839Y-108654888D01*
X70528565Y-108663389D01*
X70461946Y-108628811D01*
X70424397Y-108556011D01*
X70411135Y-108511662D01*
X70370593Y-108479450D01*
X70284375Y-108460578D01*
X70132991Y-108447811D01*
X70123138Y-108447157D01*
X69920796Y-108415787D01*
X69789056Y-108349603D01*
X69718494Y-108240625D01*
X69699685Y-108080870D01*
X69703416Y-108016373D01*
X69733759Y-107853126D01*
X69786735Y-107714259D01*
X69853459Y-107614597D01*
X69925043Y-107568964D01*
X69992604Y-107592183D01*
G36*
X69992604Y-107592183D02*
G01*
X69996514Y-107596483D01*
X70010659Y-107667144D01*
X69972603Y-107790955D01*
X69938271Y-107887948D01*
X69910800Y-108040129D01*
X69923112Y-108156931D01*
X69975094Y-108218614D01*
X70005785Y-108226510D01*
X70113690Y-108239273D01*
X70250260Y-108244310D01*
X70458464Y-108244310D01*
X70458464Y-108057272D01*
X70460021Y-107974957D01*
X70477777Y-107834128D01*
X70519411Y-107758702D01*
X70589994Y-107736310D01*
X70627444Y-107742638D01*
X70654795Y-107777696D01*
X70667206Y-107860233D01*
X70670131Y-108008794D01*
X70670131Y-108281279D01*
X70807714Y-108294544D01*
X70843368Y-108298948D01*
X70923153Y-108329019D01*
X70945298Y-108392477D01*
X70939638Y-108431189D01*
X70894576Y-108471625D01*
X70786548Y-108490282D01*
X70714187Y-108499347D01*
X70645836Y-108529148D01*
X70627798Y-108588476D01*
X70627354Y-108598455D01*
X70593839Y-108654888D01*
X70528565Y-108663389D01*
X70461946Y-108628811D01*
X70424397Y-108556011D01*
X70411135Y-108511662D01*
X70370593Y-108479450D01*
X70284375Y-108460578D01*
X70132991Y-108447811D01*
X70123138Y-108447157D01*
X69920796Y-108415787D01*
X69789056Y-108349603D01*
X69718494Y-108240625D01*
X69699685Y-108080870D01*
X69703416Y-108016373D01*
X69733759Y-107853126D01*
X69786735Y-107714259D01*
X69853459Y-107614597D01*
X69925043Y-107568964D01*
X69992604Y-107592183D01*
G37*
X70755195Y-106953499D02*
X70724777Y-107138835D01*
X70643393Y-107300221D01*
X70510849Y-107416042D01*
X70388024Y-107465420D01*
X70203228Y-107478081D01*
X70037043Y-107421118D01*
X69902893Y-107303633D01*
X69814199Y-107134725D01*
X69784385Y-106923495D01*
X69798107Y-106743934D01*
X69840251Y-106564057D01*
X69905496Y-106441157D01*
X69988743Y-106388582D01*
X70052788Y-106386462D01*
X70073680Y-106421188D01*
X70060872Y-106515582D01*
X70041183Y-106622851D01*
X70008386Y-106862050D01*
X70005373Y-107031351D01*
X70031828Y-107137471D01*
X70070932Y-107195305D01*
X70115834Y-107228310D01*
X70127452Y-107209872D01*
X70146511Y-107123506D01*
X70165361Y-106982579D01*
X70167769Y-106955642D01*
X70373798Y-106955642D01*
X70375343Y-107037176D01*
X70390627Y-107170394D01*
X70421356Y-107222574D01*
X70466417Y-107192797D01*
X70524693Y-107080143D01*
X70558278Y-106985915D01*
X70561717Y-106894356D01*
X70523420Y-106780763D01*
X70494727Y-106719901D01*
X70444893Y-106660280D01*
X70406761Y-106681293D01*
X70382380Y-106780545D01*
X70373798Y-106955642D01*
X70167769Y-106955642D01*
X70181237Y-106804977D01*
X70191932Y-106668778D01*
X70213258Y-106504575D01*
X70246414Y-106409728D01*
X70299932Y-106374691D01*
X70382345Y-106389917D01*
X70502184Y-106445860D01*
X70542576Y-106469960D01*
X70663901Y-106597445D01*
X70734838Y-106765830D01*
X70748780Y-106894356D01*
X70755195Y-106953499D01*
G36*
X70755195Y-106953499D02*
G01*
X70724777Y-107138835D01*
X70643393Y-107300221D01*
X70510849Y-107416042D01*
X70388024Y-107465420D01*
X70203228Y-107478081D01*
X70037043Y-107421118D01*
X69902893Y-107303633D01*
X69814199Y-107134725D01*
X69784385Y-106923495D01*
X69798107Y-106743934D01*
X69840251Y-106564057D01*
X69905496Y-106441157D01*
X69988743Y-106388582D01*
X70052788Y-106386462D01*
X70073680Y-106421188D01*
X70060872Y-106515582D01*
X70041183Y-106622851D01*
X70008386Y-106862050D01*
X70005373Y-107031351D01*
X70031828Y-107137471D01*
X70070932Y-107195305D01*
X70115834Y-107228310D01*
X70127452Y-107209872D01*
X70146511Y-107123506D01*
X70165361Y-106982579D01*
X70167769Y-106955642D01*
X70373798Y-106955642D01*
X70375343Y-107037176D01*
X70390627Y-107170394D01*
X70421356Y-107222574D01*
X70466417Y-107192797D01*
X70524693Y-107080143D01*
X70558278Y-106985915D01*
X70561717Y-106894356D01*
X70523420Y-106780763D01*
X70494727Y-106719901D01*
X70444893Y-106660280D01*
X70406761Y-106681293D01*
X70382380Y-106780545D01*
X70373798Y-106955642D01*
X70167769Y-106955642D01*
X70181237Y-106804977D01*
X70191932Y-106668778D01*
X70213258Y-106504575D01*
X70246414Y-106409728D01*
X70299932Y-106374691D01*
X70382345Y-106389917D01*
X70502184Y-106445860D01*
X70542576Y-106469960D01*
X70663901Y-106597445D01*
X70734838Y-106765830D01*
X70748780Y-106894356D01*
X70755195Y-106953499D01*
G37*
X70338494Y-111473297D02*
X70419572Y-111542487D01*
X70458119Y-111655328D01*
X70448982Y-111790285D01*
X70387009Y-111925822D01*
X70384467Y-111929473D01*
X70343883Y-112008855D01*
X70365842Y-112044602D01*
X70388787Y-112076100D01*
X70408826Y-112166022D01*
X70416577Y-112280546D01*
X70410213Y-112386178D01*
X70387909Y-112449421D01*
X70362569Y-112463822D01*
X70282076Y-112477643D01*
X70225791Y-112456373D01*
X70204464Y-112371810D01*
X70202233Y-112331249D01*
X70171057Y-112278576D01*
X70082756Y-112265977D01*
X69974171Y-112259974D01*
X69834862Y-112240739D01*
X69758949Y-112230816D01*
X69709292Y-112257154D01*
X69682462Y-112346573D01*
X69680873Y-112354245D01*
X69641142Y-112449338D01*
X69570523Y-112477643D01*
X69567358Y-112477627D01*
X69522954Y-112468559D01*
X69498138Y-112430209D01*
X69487409Y-112344135D01*
X69485264Y-112191893D01*
X69485853Y-112112700D01*
X69496145Y-111874092D01*
X69520228Y-111711361D01*
X69559441Y-111618286D01*
X69615125Y-111588643D01*
X69624739Y-111588998D01*
X69667762Y-111610172D01*
X69691893Y-111677777D01*
X69704836Y-111810893D01*
X69717631Y-112033143D01*
X69872456Y-112046048D01*
X69978699Y-112044719D01*
X70056471Y-112006064D01*
X70139571Y-111911733D01*
X70197018Y-111827954D01*
X70231778Y-111728759D01*
X70223451Y-111613078D01*
X70210781Y-111523094D01*
X70224220Y-111473140D01*
X70275953Y-111461643D01*
X70338494Y-111473297D01*
G36*
X70338494Y-111473297D02*
G01*
X70419572Y-111542487D01*
X70458119Y-111655328D01*
X70448982Y-111790285D01*
X70387009Y-111925822D01*
X70384467Y-111929473D01*
X70343883Y-112008855D01*
X70365842Y-112044602D01*
X70388787Y-112076100D01*
X70408826Y-112166022D01*
X70416577Y-112280546D01*
X70410213Y-112386178D01*
X70387909Y-112449421D01*
X70362569Y-112463822D01*
X70282076Y-112477643D01*
X70225791Y-112456373D01*
X70204464Y-112371810D01*
X70202233Y-112331249D01*
X70171057Y-112278576D01*
X70082756Y-112265977D01*
X69974171Y-112259974D01*
X69834862Y-112240739D01*
X69758949Y-112230816D01*
X69709292Y-112257154D01*
X69682462Y-112346573D01*
X69680873Y-112354245D01*
X69641142Y-112449338D01*
X69570523Y-112477643D01*
X69567358Y-112477627D01*
X69522954Y-112468559D01*
X69498138Y-112430209D01*
X69487409Y-112344135D01*
X69485264Y-112191893D01*
X69485853Y-112112700D01*
X69496145Y-111874092D01*
X69520228Y-111711361D01*
X69559441Y-111618286D01*
X69615125Y-111588643D01*
X69624739Y-111588998D01*
X69667762Y-111610172D01*
X69691893Y-111677777D01*
X69704836Y-111810893D01*
X69717631Y-112033143D01*
X69872456Y-112046048D01*
X69978699Y-112044719D01*
X70056471Y-112006064D01*
X70139571Y-111911733D01*
X70197018Y-111827954D01*
X70231778Y-111728759D01*
X70223451Y-111613078D01*
X70210781Y-111523094D01*
X70224220Y-111473140D01*
X70275953Y-111461643D01*
X70338494Y-111473297D01*
G37*
X65162354Y-85169845D02*
X65326298Y-85174567D01*
X65473725Y-85181126D01*
X65581920Y-85188724D01*
X65628165Y-85196566D01*
X65630058Y-85198809D01*
X65644372Y-85264098D01*
X65645261Y-85379841D01*
X65634926Y-85515866D01*
X65615569Y-85641997D01*
X65589391Y-85728061D01*
X65586089Y-85734298D01*
X65517611Y-85837729D01*
X65428872Y-85945227D01*
X65320291Y-86061643D01*
X65590131Y-86061643D01*
X65590203Y-87056477D01*
X65156250Y-87056477D01*
X64978638Y-87058233D01*
X64756913Y-87063234D01*
X64508086Y-87070854D01*
X64246123Y-87080468D01*
X63984993Y-87091450D01*
X63738661Y-87103175D01*
X63521095Y-87115016D01*
X63346262Y-87126348D01*
X63228127Y-87136545D01*
X63180659Y-87144982D01*
X63148255Y-87155734D01*
X63064242Y-87162310D01*
X62988139Y-87142515D01*
X62962764Y-87067060D01*
X62961717Y-87024114D01*
X62959119Y-86901072D01*
X62955785Y-86731258D01*
X62952181Y-86537937D01*
X62944298Y-86104064D01*
X63481964Y-86104020D01*
X63764430Y-86100402D01*
X64027732Y-86085334D01*
X64232058Y-86055707D01*
X64390994Y-86008497D01*
X64518129Y-85940683D01*
X64627048Y-85849239D01*
X64710661Y-85760277D01*
X64760962Y-85679016D01*
X64781729Y-85580723D01*
X64785798Y-85431624D01*
X64786724Y-85345526D01*
X64795611Y-85236891D01*
X64818251Y-85184442D01*
X64859881Y-85169653D01*
X64875778Y-85169089D01*
X65004609Y-85167753D01*
X65162354Y-85169845D01*
G36*
X65162354Y-85169845D02*
G01*
X65326298Y-85174567D01*
X65473725Y-85181126D01*
X65581920Y-85188724D01*
X65628165Y-85196566D01*
X65630058Y-85198809D01*
X65644372Y-85264098D01*
X65645261Y-85379841D01*
X65634926Y-85515866D01*
X65615569Y-85641997D01*
X65589391Y-85728061D01*
X65586089Y-85734298D01*
X65517611Y-85837729D01*
X65428872Y-85945227D01*
X65320291Y-86061643D01*
X65590131Y-86061643D01*
X65590203Y-87056477D01*
X65156250Y-87056477D01*
X64978638Y-87058233D01*
X64756913Y-87063234D01*
X64508086Y-87070854D01*
X64246123Y-87080468D01*
X63984993Y-87091450D01*
X63738661Y-87103175D01*
X63521095Y-87115016D01*
X63346262Y-87126348D01*
X63228127Y-87136545D01*
X63180659Y-87144982D01*
X63148255Y-87155734D01*
X63064242Y-87162310D01*
X62988139Y-87142515D01*
X62962764Y-87067060D01*
X62961717Y-87024114D01*
X62959119Y-86901072D01*
X62955785Y-86731258D01*
X62952181Y-86537937D01*
X62944298Y-86104064D01*
X63481964Y-86104020D01*
X63764430Y-86100402D01*
X64027732Y-86085334D01*
X64232058Y-86055707D01*
X64390994Y-86008497D01*
X64518129Y-85940683D01*
X64627048Y-85849239D01*
X64710661Y-85760277D01*
X64760962Y-85679016D01*
X64781729Y-85580723D01*
X64785798Y-85431624D01*
X64786724Y-85345526D01*
X64795611Y-85236891D01*
X64818251Y-85184442D01*
X64859881Y-85169653D01*
X64875778Y-85169089D01*
X65004609Y-85167753D01*
X65162354Y-85169845D01*
G37*
X66433103Y-100700689D02*
X66446154Y-100718504D01*
X66464242Y-100813932D01*
X66475351Y-100987470D01*
X66479131Y-101235069D01*
X66479131Y-101754106D01*
X65535314Y-101783104D01*
X65415753Y-101786879D01*
X65143777Y-101796245D01*
X64901148Y-101805652D01*
X64701688Y-101814506D01*
X64559220Y-101822212D01*
X64487564Y-101828175D01*
X64474284Y-101829912D01*
X64375972Y-101838463D01*
X64216879Y-101849093D01*
X64015899Y-101860616D01*
X63791924Y-101871847D01*
X63717375Y-101875417D01*
X63512593Y-101886256D01*
X63345719Y-101896604D01*
X63232315Y-101905436D01*
X63187940Y-101911723D01*
X63152342Y-101918763D01*
X63065990Y-101919738D01*
X62956317Y-101915477D01*
X62956355Y-101421356D01*
X62958123Y-101235616D01*
X62963374Y-101065603D01*
X62971267Y-100943425D01*
X62980954Y-100887495D01*
X62982984Y-100885400D01*
X63042251Y-100869993D01*
X63167131Y-100856373D01*
X63340792Y-100845952D01*
X63546407Y-100840137D01*
X63555997Y-100840000D01*
X63773311Y-100835845D01*
X63969610Y-100830260D01*
X64123677Y-100823959D01*
X64214298Y-100817657D01*
X64253600Y-100814081D01*
X64379016Y-100805694D01*
X64561066Y-100795454D01*
X64781937Y-100784338D01*
X65023813Y-100773321D01*
X65128219Y-100768654D01*
X65396538Y-100755400D01*
X65655860Y-100741008D01*
X65880982Y-100726925D01*
X66046702Y-100714597D01*
X66090018Y-100711029D01*
X66249334Y-100700662D01*
X66371556Y-100696932D01*
X66433103Y-100700689D01*
G36*
X66433103Y-100700689D02*
G01*
X66446154Y-100718504D01*
X66464242Y-100813932D01*
X66475351Y-100987470D01*
X66479131Y-101235069D01*
X66479131Y-101754106D01*
X65535314Y-101783104D01*
X65415753Y-101786879D01*
X65143777Y-101796245D01*
X64901148Y-101805652D01*
X64701688Y-101814506D01*
X64559220Y-101822212D01*
X64487564Y-101828175D01*
X64474284Y-101829912D01*
X64375972Y-101838463D01*
X64216879Y-101849093D01*
X64015899Y-101860616D01*
X63791924Y-101871847D01*
X63717375Y-101875417D01*
X63512593Y-101886256D01*
X63345719Y-101896604D01*
X63232315Y-101905436D01*
X63187940Y-101911723D01*
X63152342Y-101918763D01*
X63065990Y-101919738D01*
X62956317Y-101915477D01*
X62956355Y-101421356D01*
X62958123Y-101235616D01*
X62963374Y-101065603D01*
X62971267Y-100943425D01*
X62980954Y-100887495D01*
X62982984Y-100885400D01*
X63042251Y-100869993D01*
X63167131Y-100856373D01*
X63340792Y-100845952D01*
X63546407Y-100840137D01*
X63555997Y-100840000D01*
X63773311Y-100835845D01*
X63969610Y-100830260D01*
X64123677Y-100823959D01*
X64214298Y-100817657D01*
X64253600Y-100814081D01*
X64379016Y-100805694D01*
X64561066Y-100795454D01*
X64781937Y-100784338D01*
X65023813Y-100773321D01*
X65128219Y-100768654D01*
X65396538Y-100755400D01*
X65655860Y-100741008D01*
X65880982Y-100726925D01*
X66046702Y-100714597D01*
X66090018Y-100711029D01*
X66249334Y-100700662D01*
X66371556Y-100696932D01*
X66433103Y-100700689D01*
G37*
X70204464Y-110648335D02*
X70188212Y-110804441D01*
X70125700Y-110999541D01*
X70028763Y-111150922D01*
X69958572Y-111208978D01*
X69831797Y-111249183D01*
X69710896Y-111223086D01*
X69612049Y-111140815D01*
X69551437Y-111012497D01*
X69548055Y-110922907D01*
X69747004Y-110922907D01*
X69754237Y-110959067D01*
X69792655Y-111027202D01*
X69845615Y-111028045D01*
X69902176Y-110970992D01*
X69951397Y-110865441D01*
X69982339Y-110720787D01*
X69982881Y-110715953D01*
X69990532Y-110599140D01*
X69975571Y-110544098D01*
X69932643Y-110530310D01*
X69913770Y-110534438D01*
X69851084Y-110592126D01*
X69793293Y-110695346D01*
X69754050Y-110815229D01*
X69747004Y-110922907D01*
X69548055Y-110922907D01*
X69545238Y-110848260D01*
X69557404Y-110758263D01*
X69577570Y-110588750D01*
X69595983Y-110413893D01*
X69607613Y-110308942D01*
X69627811Y-110207934D01*
X69657846Y-110160885D01*
X69705359Y-110149310D01*
X69756651Y-110163284D01*
X69811198Y-110233977D01*
X69831699Y-110278036D01*
X69892384Y-110310177D01*
X70012585Y-110318643D01*
X70061055Y-110319495D01*
X70281184Y-110353545D01*
X70434017Y-110438239D01*
X70520465Y-110574872D01*
X70541441Y-110764743D01*
X70497857Y-111009150D01*
X70470053Y-111092889D01*
X70426425Y-111150376D01*
X70360510Y-111157296D01*
X70297915Y-111132670D01*
X70278723Y-111059456D01*
X70282305Y-111031630D01*
X70297256Y-110917839D01*
X70315600Y-110780223D01*
X70326129Y-110666095D01*
X70314375Y-110593219D01*
X70273092Y-110559302D01*
X70257680Y-110554295D01*
X70215835Y-110567573D01*
X70211390Y-110599140D01*
X70204464Y-110648335D01*
G36*
X70204464Y-110648335D02*
G01*
X70188212Y-110804441D01*
X70125700Y-110999541D01*
X70028763Y-111150922D01*
X69958572Y-111208978D01*
X69831797Y-111249183D01*
X69710896Y-111223086D01*
X69612049Y-111140815D01*
X69551437Y-111012497D01*
X69548055Y-110922907D01*
X69747004Y-110922907D01*
X69754237Y-110959067D01*
X69792655Y-111027202D01*
X69845615Y-111028045D01*
X69902176Y-110970992D01*
X69951397Y-110865441D01*
X69982339Y-110720787D01*
X69982881Y-110715953D01*
X69990532Y-110599140D01*
X69975571Y-110544098D01*
X69932643Y-110530310D01*
X69913770Y-110534438D01*
X69851084Y-110592126D01*
X69793293Y-110695346D01*
X69754050Y-110815229D01*
X69747004Y-110922907D01*
X69548055Y-110922907D01*
X69545238Y-110848260D01*
X69557404Y-110758263D01*
X69577570Y-110588750D01*
X69595983Y-110413893D01*
X69607613Y-110308942D01*
X69627811Y-110207934D01*
X69657846Y-110160885D01*
X69705359Y-110149310D01*
X69756651Y-110163284D01*
X69811198Y-110233977D01*
X69831699Y-110278036D01*
X69892384Y-110310177D01*
X70012585Y-110318643D01*
X70061055Y-110319495D01*
X70281184Y-110353545D01*
X70434017Y-110438239D01*
X70520465Y-110574872D01*
X70541441Y-110764743D01*
X70497857Y-111009150D01*
X70470053Y-111092889D01*
X70426425Y-111150376D01*
X70360510Y-111157296D01*
X70297915Y-111132670D01*
X70278723Y-111059456D01*
X70282305Y-111031630D01*
X70297256Y-110917839D01*
X70315600Y-110780223D01*
X70326129Y-110666095D01*
X70314375Y-110593219D01*
X70273092Y-110559302D01*
X70257680Y-110554295D01*
X70215835Y-110567573D01*
X70211390Y-110599140D01*
X70204464Y-110648335D01*
G37*
X70955077Y-108989259D02*
X70981671Y-109044977D01*
X71001770Y-109181087D01*
X70993542Y-109341237D01*
X70959851Y-109491592D01*
X70903558Y-109598320D01*
X70826203Y-109653240D01*
X70709267Y-109683643D01*
X70664657Y-109686120D01*
X70598702Y-109719827D01*
X70563780Y-109813000D01*
X70535917Y-109885373D01*
X70476830Y-109930180D01*
X70417540Y-109903181D01*
X70382118Y-109805387D01*
X70372675Y-109755609D01*
X70340792Y-109712625D01*
X70267405Y-109688086D01*
X70130997Y-109670429D01*
X70089006Y-109666235D01*
X69946681Y-109657764D01*
X69866605Y-109671303D01*
X69831344Y-109713744D01*
X69823464Y-109791975D01*
X69805753Y-109869840D01*
X69738798Y-109895310D01*
X69706194Y-109891866D01*
X69677972Y-109868672D01*
X69662308Y-109809382D01*
X69655570Y-109697810D01*
X69654131Y-109517772D01*
X69657079Y-109299717D01*
X69668180Y-109151746D01*
X69690739Y-109062235D01*
X69728060Y-109018113D01*
X69783448Y-109006310D01*
X69794540Y-109006761D01*
X69837420Y-109028190D01*
X69861342Y-109095703D01*
X69874169Y-109228560D01*
X69886964Y-109450810D01*
X70124107Y-109463319D01*
X70361249Y-109475827D01*
X70399273Y-109251652D01*
X70414117Y-109175865D01*
X70452768Y-109063609D01*
X70500798Y-109027477D01*
X70538331Y-109048139D01*
X70563219Y-109124477D01*
X70576994Y-109270893D01*
X70587483Y-109393462D01*
X70611237Y-109485982D01*
X70649588Y-109514310D01*
X70665017Y-109512871D01*
X70735055Y-109459411D01*
X70780772Y-109337671D01*
X70797131Y-109159758D01*
X70804332Y-109051567D01*
X70836117Y-108956599D01*
X70888211Y-108933837D01*
X70955077Y-108989259D01*
G36*
X70955077Y-108989259D02*
G01*
X70981671Y-109044977D01*
X71001770Y-109181087D01*
X70993542Y-109341237D01*
X70959851Y-109491592D01*
X70903558Y-109598320D01*
X70826203Y-109653240D01*
X70709267Y-109683643D01*
X70664657Y-109686120D01*
X70598702Y-109719827D01*
X70563780Y-109813000D01*
X70535917Y-109885373D01*
X70476830Y-109930180D01*
X70417540Y-109903181D01*
X70382118Y-109805387D01*
X70372675Y-109755609D01*
X70340792Y-109712625D01*
X70267405Y-109688086D01*
X70130997Y-109670429D01*
X70089006Y-109666235D01*
X69946681Y-109657764D01*
X69866605Y-109671303D01*
X69831344Y-109713744D01*
X69823464Y-109791975D01*
X69805753Y-109869840D01*
X69738798Y-109895310D01*
X69706194Y-109891866D01*
X69677972Y-109868672D01*
X69662308Y-109809382D01*
X69655570Y-109697810D01*
X69654131Y-109517772D01*
X69657079Y-109299717D01*
X69668180Y-109151746D01*
X69690739Y-109062235D01*
X69728060Y-109018113D01*
X69783448Y-109006310D01*
X69794540Y-109006761D01*
X69837420Y-109028190D01*
X69861342Y-109095703D01*
X69874169Y-109228560D01*
X69886964Y-109450810D01*
X70124107Y-109463319D01*
X70361249Y-109475827D01*
X70399273Y-109251652D01*
X70414117Y-109175865D01*
X70452768Y-109063609D01*
X70500798Y-109027477D01*
X70538331Y-109048139D01*
X70563219Y-109124477D01*
X70576994Y-109270893D01*
X70587483Y-109393462D01*
X70611237Y-109485982D01*
X70649588Y-109514310D01*
X70665017Y-109512871D01*
X70735055Y-109459411D01*
X70780772Y-109337671D01*
X70797131Y-109159758D01*
X70804332Y-109051567D01*
X70836117Y-108956599D01*
X70888211Y-108933837D01*
X70955077Y-108989259D01*
G37*
X70984010Y-103150110D02*
X70941380Y-103323060D01*
X70931781Y-103365806D01*
X70944446Y-103401196D01*
X71004618Y-103415587D01*
X71130860Y-103418310D01*
X71347464Y-103418310D01*
X71347464Y-103580588D01*
X71347066Y-103608163D01*
X71337522Y-103713921D01*
X71319242Y-103771088D01*
X71316882Y-103773371D01*
X71242697Y-103802066D01*
X71169127Y-103780758D01*
X71135798Y-103720397D01*
X71134505Y-103708337D01*
X71084426Y-103654670D01*
X70959518Y-103617049D01*
X70756908Y-103594899D01*
X70473723Y-103587643D01*
X70455026Y-103587688D01*
X70306773Y-103593853D01*
X70227779Y-103612504D01*
X70204464Y-103646614D01*
X70177507Y-103707040D01*
X70109503Y-103732851D01*
X70041827Y-103701544D01*
X70018954Y-103633389D01*
X70006753Y-103501467D01*
X70005943Y-103331292D01*
X70015305Y-103146237D01*
X70027975Y-103024093D01*
X70213477Y-103024093D01*
X70223332Y-103171631D01*
X70289131Y-103291310D01*
X70370462Y-103346468D01*
X70481555Y-103375977D01*
X70551370Y-103362923D01*
X70669370Y-103290831D01*
X70760557Y-103180025D01*
X70797131Y-103058477D01*
X70776988Y-102963091D01*
X70699915Y-102852438D01*
X70587070Y-102773946D01*
X70462033Y-102742598D01*
X70348385Y-102773375D01*
X70346848Y-102774411D01*
X70255879Y-102880939D01*
X70213477Y-103024093D01*
X70027975Y-103024093D01*
X70033619Y-102969676D01*
X70059665Y-102824982D01*
X70092225Y-102735528D01*
X70199857Y-102621565D01*
X70356910Y-102549037D01*
X70529766Y-102538827D01*
X70699272Y-102588262D01*
X70846270Y-102694671D01*
X70951608Y-102855382D01*
X70973731Y-102914345D01*
X70994568Y-103024212D01*
X70991694Y-103058477D01*
X70984010Y-103150110D01*
G36*
X70984010Y-103150110D02*
G01*
X70941380Y-103323060D01*
X70931781Y-103365806D01*
X70944446Y-103401196D01*
X71004618Y-103415587D01*
X71130860Y-103418310D01*
X71347464Y-103418310D01*
X71347464Y-103580588D01*
X71347066Y-103608163D01*
X71337522Y-103713921D01*
X71319242Y-103771088D01*
X71316882Y-103773371D01*
X71242697Y-103802066D01*
X71169127Y-103780758D01*
X71135798Y-103720397D01*
X71134505Y-103708337D01*
X71084426Y-103654670D01*
X70959518Y-103617049D01*
X70756908Y-103594899D01*
X70473723Y-103587643D01*
X70455026Y-103587688D01*
X70306773Y-103593853D01*
X70227779Y-103612504D01*
X70204464Y-103646614D01*
X70177507Y-103707040D01*
X70109503Y-103732851D01*
X70041827Y-103701544D01*
X70018954Y-103633389D01*
X70006753Y-103501467D01*
X70005943Y-103331292D01*
X70015305Y-103146237D01*
X70027975Y-103024093D01*
X70213477Y-103024093D01*
X70223332Y-103171631D01*
X70289131Y-103291310D01*
X70370462Y-103346468D01*
X70481555Y-103375977D01*
X70551370Y-103362923D01*
X70669370Y-103290831D01*
X70760557Y-103180025D01*
X70797131Y-103058477D01*
X70776988Y-102963091D01*
X70699915Y-102852438D01*
X70587070Y-102773946D01*
X70462033Y-102742598D01*
X70348385Y-102773375D01*
X70346848Y-102774411D01*
X70255879Y-102880939D01*
X70213477Y-103024093D01*
X70027975Y-103024093D01*
X70033619Y-102969676D01*
X70059665Y-102824982D01*
X70092225Y-102735528D01*
X70199857Y-102621565D01*
X70356910Y-102549037D01*
X70529766Y-102538827D01*
X70699272Y-102588262D01*
X70846270Y-102694671D01*
X70951608Y-102855382D01*
X70973731Y-102914345D01*
X70994568Y-103024212D01*
X70991694Y-103058477D01*
X70984010Y-103150110D01*
G37*
X70824340Y-105807990D02*
X70754219Y-105989334D01*
X70612587Y-106125703D01*
X70543611Y-106164324D01*
X70354325Y-106213976D01*
X70172630Y-106180437D01*
X70005796Y-106064441D01*
X69924924Y-105978432D01*
X69882092Y-105904739D01*
X69870797Y-105814062D01*
X69880285Y-105672858D01*
X69882137Y-105651848D01*
X70066902Y-105651848D01*
X70074374Y-105791390D01*
X70139191Y-105914017D01*
X70155381Y-105930476D01*
X70271186Y-105991303D01*
X70396680Y-105985918D01*
X70511512Y-105924361D01*
X70595335Y-105816676D01*
X70627798Y-105672904D01*
X70620475Y-105618131D01*
X70557413Y-105496399D01*
X70451766Y-105402967D01*
X70330445Y-105365643D01*
X70306520Y-105366975D01*
X70191180Y-105416116D01*
X70108573Y-105518915D01*
X70066902Y-105651848D01*
X69882137Y-105651848D01*
X69888148Y-105583640D01*
X69903845Y-105388650D01*
X69915970Y-105217477D01*
X69918979Y-105174608D01*
X69934737Y-105065420D01*
X69966307Y-105012152D01*
X70024548Y-104992282D01*
X70097292Y-104999003D01*
X70119798Y-105060154D01*
X70119917Y-105066388D01*
X70133171Y-105106775D01*
X70180272Y-105133540D01*
X70278138Y-105152365D01*
X70443685Y-105168931D01*
X70632598Y-105182425D01*
X70832091Y-105192471D01*
X70991520Y-105196310D01*
X71078252Y-105198721D01*
X71184406Y-105210241D01*
X71233231Y-105228060D01*
X71235754Y-105234936D01*
X71239749Y-105307317D01*
X71231098Y-105418560D01*
X71224798Y-105460382D01*
X71192613Y-105550660D01*
X71136104Y-105577310D01*
X71088444Y-105561527D01*
X71038865Y-105492643D01*
X71005708Y-105436728D01*
X70907738Y-105407977D01*
X70866650Y-105409086D01*
X70822649Y-105425942D01*
X70811972Y-105481162D01*
X70824708Y-105597355D01*
X70824576Y-105672904D01*
X70824340Y-105807990D01*
G36*
X70824340Y-105807990D02*
G01*
X70754219Y-105989334D01*
X70612587Y-106125703D01*
X70543611Y-106164324D01*
X70354325Y-106213976D01*
X70172630Y-106180437D01*
X70005796Y-106064441D01*
X69924924Y-105978432D01*
X69882092Y-105904739D01*
X69870797Y-105814062D01*
X69880285Y-105672858D01*
X69882137Y-105651848D01*
X70066902Y-105651848D01*
X70074374Y-105791390D01*
X70139191Y-105914017D01*
X70155381Y-105930476D01*
X70271186Y-105991303D01*
X70396680Y-105985918D01*
X70511512Y-105924361D01*
X70595335Y-105816676D01*
X70627798Y-105672904D01*
X70620475Y-105618131D01*
X70557413Y-105496399D01*
X70451766Y-105402967D01*
X70330445Y-105365643D01*
X70306520Y-105366975D01*
X70191180Y-105416116D01*
X70108573Y-105518915D01*
X70066902Y-105651848D01*
X69882137Y-105651848D01*
X69888148Y-105583640D01*
X69903845Y-105388650D01*
X69915970Y-105217477D01*
X69918979Y-105174608D01*
X69934737Y-105065420D01*
X69966307Y-105012152D01*
X70024548Y-104992282D01*
X70097292Y-104999003D01*
X70119798Y-105060154D01*
X70119917Y-105066388D01*
X70133171Y-105106775D01*
X70180272Y-105133540D01*
X70278138Y-105152365D01*
X70443685Y-105168931D01*
X70632598Y-105182425D01*
X70832091Y-105192471D01*
X70991520Y-105196310D01*
X71078252Y-105198721D01*
X71184406Y-105210241D01*
X71233231Y-105228060D01*
X71235754Y-105234936D01*
X71239749Y-105307317D01*
X71231098Y-105418560D01*
X71224798Y-105460382D01*
X71192613Y-105550660D01*
X71136104Y-105577310D01*
X71088444Y-105561527D01*
X71038865Y-105492643D01*
X71005708Y-105436728D01*
X70907738Y-105407977D01*
X70866650Y-105409086D01*
X70822649Y-105425942D01*
X70811972Y-105481162D01*
X70824708Y-105597355D01*
X70824576Y-105672904D01*
X70824340Y-105807990D01*
G37*
X71067731Y-101326174D02*
X71071496Y-101339017D01*
X71077903Y-101434875D01*
X71066850Y-101559007D01*
X71055521Y-101617538D01*
X71019527Y-101701018D01*
X70961054Y-101724977D01*
X70917005Y-101717787D01*
X70881798Y-101682643D01*
X70880186Y-101669471D01*
X70837735Y-101642981D01*
X70734251Y-101662584D01*
X70565183Y-101728947D01*
X70473014Y-101771431D01*
X70414896Y-101812239D01*
X70420005Y-101853623D01*
X70491897Y-101909170D01*
X70634124Y-101992466D01*
X70671179Y-102013290D01*
X70773339Y-102063657D01*
X70828517Y-102071786D01*
X70855046Y-102041766D01*
X70890357Y-101998654D01*
X70964916Y-101980386D01*
X71027257Y-102016929D01*
X71032965Y-102036714D01*
X71035291Y-102125539D01*
X71024001Y-102249762D01*
X71007605Y-102342405D01*
X70974318Y-102421874D01*
X70922906Y-102444643D01*
X70882372Y-102436770D01*
X70826533Y-102387339D01*
X70811778Y-102368275D01*
X70736177Y-102306496D01*
X70613384Y-102222459D01*
X70461059Y-102128664D01*
X70319239Y-102046884D01*
X70201466Y-101985840D01*
X70120662Y-101958163D01*
X70057835Y-101957746D01*
X69993992Y-101978482D01*
X69943212Y-102003280D01*
X69881435Y-102069287D01*
X69857521Y-102184240D01*
X69849219Y-102250155D01*
X69816828Y-102324480D01*
X69749381Y-102352337D01*
X69704781Y-102355180D01*
X69670966Y-102334210D01*
X69656921Y-102267408D01*
X69654131Y-102135379D01*
X69659668Y-101938676D01*
X69682367Y-101768939D01*
X69724087Y-101671473D01*
X69786423Y-101640310D01*
X69830857Y-101651266D01*
X69865798Y-101703810D01*
X69870856Y-101733059D01*
X69910507Y-101767310D01*
X69974118Y-101751281D01*
X70093599Y-101706364D01*
X70248768Y-101641237D01*
X70420612Y-101564601D01*
X70590118Y-101485156D01*
X70738274Y-101411605D01*
X70846067Y-101352648D01*
X70894485Y-101316986D01*
X70936496Y-101273933D01*
X71011169Y-101266626D01*
X71067731Y-101326174D01*
G36*
X71067731Y-101326174D02*
G01*
X71071496Y-101339017D01*
X71077903Y-101434875D01*
X71066850Y-101559007D01*
X71055521Y-101617538D01*
X71019527Y-101701018D01*
X70961054Y-101724977D01*
X70917005Y-101717787D01*
X70881798Y-101682643D01*
X70880186Y-101669471D01*
X70837735Y-101642981D01*
X70734251Y-101662584D01*
X70565183Y-101728947D01*
X70473014Y-101771431D01*
X70414896Y-101812239D01*
X70420005Y-101853623D01*
X70491897Y-101909170D01*
X70634124Y-101992466D01*
X70671179Y-102013290D01*
X70773339Y-102063657D01*
X70828517Y-102071786D01*
X70855046Y-102041766D01*
X70890357Y-101998654D01*
X70964916Y-101980386D01*
X71027257Y-102016929D01*
X71032965Y-102036714D01*
X71035291Y-102125539D01*
X71024001Y-102249762D01*
X71007605Y-102342405D01*
X70974318Y-102421874D01*
X70922906Y-102444643D01*
X70882372Y-102436770D01*
X70826533Y-102387339D01*
X70811778Y-102368275D01*
X70736177Y-102306496D01*
X70613384Y-102222459D01*
X70461059Y-102128664D01*
X70319239Y-102046884D01*
X70201466Y-101985840D01*
X70120662Y-101958163D01*
X70057835Y-101957746D01*
X69993992Y-101978482D01*
X69943212Y-102003280D01*
X69881435Y-102069287D01*
X69857521Y-102184240D01*
X69849219Y-102250155D01*
X69816828Y-102324480D01*
X69749381Y-102352337D01*
X69704781Y-102355180D01*
X69670966Y-102334210D01*
X69656921Y-102267408D01*
X69654131Y-102135379D01*
X69659668Y-101938676D01*
X69682367Y-101768939D01*
X69724087Y-101671473D01*
X69786423Y-101640310D01*
X69830857Y-101651266D01*
X69865798Y-101703810D01*
X69870856Y-101733059D01*
X69910507Y-101767310D01*
X69974118Y-101751281D01*
X70093599Y-101706364D01*
X70248768Y-101641237D01*
X70420612Y-101564601D01*
X70590118Y-101485156D01*
X70738274Y-101411605D01*
X70846067Y-101352648D01*
X70894485Y-101316986D01*
X70936496Y-101273933D01*
X71011169Y-101266626D01*
X71067731Y-101326174D01*
G37*
X65547798Y-98981846D02*
X65907631Y-98955241D01*
X65975014Y-98950843D01*
X66124657Y-98945902D01*
X66228663Y-98949586D01*
X66267704Y-98961557D01*
X66265199Y-98987149D01*
X66247961Y-99084043D01*
X66218504Y-99226242D01*
X66181729Y-99392379D01*
X66142541Y-99561086D01*
X66105840Y-99710995D01*
X66076530Y-99820737D01*
X66059514Y-99868945D01*
X66056481Y-99871587D01*
X65992885Y-99894198D01*
X65879099Y-99917554D01*
X65745354Y-99936373D01*
X65621881Y-99945378D01*
X65618429Y-99945496D01*
X65574597Y-99964204D01*
X65553349Y-100027906D01*
X65547798Y-100156209D01*
X65547798Y-100365442D01*
X65367881Y-100378684D01*
X65347531Y-100380110D01*
X65179915Y-100388426D01*
X65022851Y-100391701D01*
X64857738Y-100391477D01*
X64853518Y-100200977D01*
X64851891Y-100147207D01*
X64840640Y-100056747D01*
X64808859Y-100020681D01*
X64743464Y-100017157D01*
X64719777Y-100018508D01*
X64610957Y-100023965D01*
X64443132Y-100031878D01*
X64234342Y-100041407D01*
X64002631Y-100051710D01*
X63771126Y-100060018D01*
X63531475Y-100060039D01*
X63352361Y-100043905D01*
X63220353Y-100007491D01*
X63122019Y-99946671D01*
X63043929Y-99857319D01*
X62972652Y-99735310D01*
X62928807Y-99642970D01*
X62901157Y-99554637D01*
X62888055Y-99449860D01*
X62886705Y-99305973D01*
X62894310Y-99100310D01*
X62901657Y-98963944D01*
X62914591Y-98789534D01*
X62928656Y-98657404D01*
X62941883Y-98588724D01*
X62991257Y-98546467D01*
X63118184Y-98502707D01*
X63325622Y-98459475D01*
X63682091Y-98397312D01*
X63657670Y-98632394D01*
X63652210Y-98689699D01*
X63649180Y-98810649D01*
X63669485Y-98886201D01*
X63718608Y-98944427D01*
X63727397Y-98952054D01*
X63775334Y-98982110D01*
X63843027Y-99001033D01*
X63946674Y-99010516D01*
X64102476Y-99012250D01*
X64326633Y-99007927D01*
X64849298Y-98994477D01*
X64855476Y-98740477D01*
X64858576Y-98625664D01*
X64862709Y-98502293D01*
X64866059Y-98433560D01*
X64867376Y-98427774D01*
X64911068Y-98400730D01*
X65022198Y-98385450D01*
X65209131Y-98380643D01*
X65547798Y-98380643D01*
X65547798Y-98981846D01*
G36*
X65547798Y-98981846D02*
G01*
X65907631Y-98955241D01*
X65975014Y-98950843D01*
X66124657Y-98945902D01*
X66228663Y-98949586D01*
X66267704Y-98961557D01*
X66265199Y-98987149D01*
X66247961Y-99084043D01*
X66218504Y-99226242D01*
X66181729Y-99392379D01*
X66142541Y-99561086D01*
X66105840Y-99710995D01*
X66076530Y-99820737D01*
X66059514Y-99868945D01*
X66056481Y-99871587D01*
X65992885Y-99894198D01*
X65879099Y-99917554D01*
X65745354Y-99936373D01*
X65621881Y-99945378D01*
X65618429Y-99945496D01*
X65574597Y-99964204D01*
X65553349Y-100027906D01*
X65547798Y-100156209D01*
X65547798Y-100365442D01*
X65367881Y-100378684D01*
X65347531Y-100380110D01*
X65179915Y-100388426D01*
X65022851Y-100391701D01*
X64857738Y-100391477D01*
X64853518Y-100200977D01*
X64851891Y-100147207D01*
X64840640Y-100056747D01*
X64808859Y-100020681D01*
X64743464Y-100017157D01*
X64719777Y-100018508D01*
X64610957Y-100023965D01*
X64443132Y-100031878D01*
X64234342Y-100041407D01*
X64002631Y-100051710D01*
X63771126Y-100060018D01*
X63531475Y-100060039D01*
X63352361Y-100043905D01*
X63220353Y-100007491D01*
X63122019Y-99946671D01*
X63043929Y-99857319D01*
X62972652Y-99735310D01*
X62928807Y-99642970D01*
X62901157Y-99554637D01*
X62888055Y-99449860D01*
X62886705Y-99305973D01*
X62894310Y-99100310D01*
X62901657Y-98963944D01*
X62914591Y-98789534D01*
X62928656Y-98657404D01*
X62941883Y-98588724D01*
X62991257Y-98546467D01*
X63118184Y-98502707D01*
X63325622Y-98459475D01*
X63682091Y-98397312D01*
X63657670Y-98632394D01*
X63652210Y-98689699D01*
X63649180Y-98810649D01*
X63669485Y-98886201D01*
X63718608Y-98944427D01*
X63727397Y-98952054D01*
X63775334Y-98982110D01*
X63843027Y-99001033D01*
X63946674Y-99010516D01*
X64102476Y-99012250D01*
X64326633Y-99007927D01*
X64849298Y-98994477D01*
X64855476Y-98740477D01*
X64858576Y-98625664D01*
X64862709Y-98502293D01*
X64866059Y-98433560D01*
X64867376Y-98427774D01*
X64911068Y-98400730D01*
X65022198Y-98385450D01*
X65209131Y-98380643D01*
X65547798Y-98380643D01*
X65547798Y-98981846D01*
G37*
X65651605Y-88918404D02*
X65645477Y-89016051D01*
X65584749Y-89376947D01*
X65465084Y-89678481D01*
X65284313Y-89923810D01*
X65040265Y-90116091D01*
X64730771Y-90258481D01*
X64508401Y-90310625D01*
X64230814Y-90333441D01*
X63949167Y-90321689D01*
X63701549Y-90274764D01*
X63583507Y-90229438D01*
X63370344Y-90100878D01*
X63183519Y-89932689D01*
X63052036Y-89748376D01*
X62997939Y-89618359D01*
X62931096Y-89350759D01*
X62892344Y-89026603D01*
X62884030Y-88661084D01*
X62884608Y-88635748D01*
X62894236Y-88423109D01*
X62910895Y-88219623D01*
X62932330Y-88044163D01*
X62956289Y-87915601D01*
X62980519Y-87852811D01*
X62980806Y-87852556D01*
X63028386Y-87838427D01*
X63134061Y-87815973D01*
X63274311Y-87789344D01*
X63425614Y-87762687D01*
X63564450Y-87740152D01*
X63667298Y-87725886D01*
X63710637Y-87724038D01*
X63711223Y-87729856D01*
X63701043Y-87794980D01*
X63675879Y-87915896D01*
X63639784Y-88072660D01*
X63596625Y-88279407D01*
X63562524Y-88604883D01*
X63585136Y-88871261D01*
X63664847Y-89081308D01*
X63802043Y-89237795D01*
X63907238Y-89294752D01*
X64029507Y-89321310D01*
X64150798Y-89321310D01*
X64150798Y-88851114D01*
X64574131Y-88851114D01*
X64574162Y-88901206D01*
X64575835Y-89078018D01*
X64582378Y-89188896D01*
X64596972Y-89249144D01*
X64622796Y-89274069D01*
X64663031Y-89278977D01*
X64695931Y-89272464D01*
X64792193Y-89221002D01*
X64895864Y-89135043D01*
X64973258Y-89041306D01*
X65039716Y-88879819D01*
X65027541Y-88721659D01*
X64935889Y-88578552D01*
X64928056Y-88570888D01*
X64840253Y-88502663D01*
X64770018Y-88474643D01*
X64737880Y-88472267D01*
X64641094Y-88448947D01*
X64616552Y-88444943D01*
X64594586Y-88467280D01*
X64581708Y-88533326D01*
X64575647Y-88656723D01*
X64574131Y-88851114D01*
X64150798Y-88851114D01*
X64150798Y-87500977D01*
X64288381Y-87496077D01*
X64508899Y-87493345D01*
X64762343Y-87511629D01*
X64964577Y-87560208D01*
X65133479Y-87643946D01*
X65286924Y-87767705D01*
X65422878Y-87927014D01*
X65562236Y-88201320D01*
X65638501Y-88531854D01*
X65650297Y-88879819D01*
X65651605Y-88918404D01*
G36*
X65651605Y-88918404D02*
G01*
X65645477Y-89016051D01*
X65584749Y-89376947D01*
X65465084Y-89678481D01*
X65284313Y-89923810D01*
X65040265Y-90116091D01*
X64730771Y-90258481D01*
X64508401Y-90310625D01*
X64230814Y-90333441D01*
X63949167Y-90321689D01*
X63701549Y-90274764D01*
X63583507Y-90229438D01*
X63370344Y-90100878D01*
X63183519Y-89932689D01*
X63052036Y-89748376D01*
X62997939Y-89618359D01*
X62931096Y-89350759D01*
X62892344Y-89026603D01*
X62884030Y-88661084D01*
X62884608Y-88635748D01*
X62894236Y-88423109D01*
X62910895Y-88219623D01*
X62932330Y-88044163D01*
X62956289Y-87915601D01*
X62980519Y-87852811D01*
X62980806Y-87852556D01*
X63028386Y-87838427D01*
X63134061Y-87815973D01*
X63274311Y-87789344D01*
X63425614Y-87762687D01*
X63564450Y-87740152D01*
X63667298Y-87725886D01*
X63710637Y-87724038D01*
X63711223Y-87729856D01*
X63701043Y-87794980D01*
X63675879Y-87915896D01*
X63639784Y-88072660D01*
X63596625Y-88279407D01*
X63562524Y-88604883D01*
X63585136Y-88871261D01*
X63664847Y-89081308D01*
X63802043Y-89237795D01*
X63907238Y-89294752D01*
X64029507Y-89321310D01*
X64150798Y-89321310D01*
X64150798Y-88851114D01*
X64574131Y-88851114D01*
X64574162Y-88901206D01*
X64575835Y-89078018D01*
X64582378Y-89188896D01*
X64596972Y-89249144D01*
X64622796Y-89274069D01*
X64663031Y-89278977D01*
X64695931Y-89272464D01*
X64792193Y-89221002D01*
X64895864Y-89135043D01*
X64973258Y-89041306D01*
X65039716Y-88879819D01*
X65027541Y-88721659D01*
X64935889Y-88578552D01*
X64928056Y-88570888D01*
X64840253Y-88502663D01*
X64770018Y-88474643D01*
X64737880Y-88472267D01*
X64641094Y-88448947D01*
X64616552Y-88444943D01*
X64594586Y-88467280D01*
X64581708Y-88533326D01*
X64575647Y-88656723D01*
X64574131Y-88851114D01*
X64150798Y-88851114D01*
X64150798Y-87500977D01*
X64288381Y-87496077D01*
X64508899Y-87493345D01*
X64762343Y-87511629D01*
X64964577Y-87560208D01*
X65133479Y-87643946D01*
X65286924Y-87767705D01*
X65422878Y-87927014D01*
X65562236Y-88201320D01*
X65638501Y-88531854D01*
X65650297Y-88879819D01*
X65651605Y-88918404D01*
G37*
X65624662Y-94064005D02*
X65611567Y-94146463D01*
X65581656Y-94240702D01*
X66030394Y-94210116D01*
X66479131Y-94179530D01*
X66479131Y-95247977D01*
X65875881Y-95251215D01*
X65799751Y-95251721D01*
X65585276Y-95254216D01*
X65403884Y-95257872D01*
X65272771Y-95262279D01*
X65209131Y-95267031D01*
X65185583Y-95269929D01*
X65084834Y-95277703D01*
X64924371Y-95287635D01*
X64720485Y-95298752D01*
X64489464Y-95310077D01*
X64411393Y-95313820D01*
X64146901Y-95327998D01*
X63888496Y-95343852D01*
X63662349Y-95359703D01*
X63494631Y-95373874D01*
X63340195Y-95389684D01*
X63167292Y-95404351D01*
X63056279Y-95398114D01*
X62993458Y-95360068D01*
X62965127Y-95279309D01*
X62957588Y-95144931D01*
X62957140Y-94946029D01*
X62957079Y-94935649D01*
X62958621Y-94708202D01*
X62967767Y-94553123D01*
X62986825Y-94458722D01*
X63018103Y-94413312D01*
X63063907Y-94405203D01*
X63117412Y-94409734D01*
X63176063Y-94396171D01*
X63169423Y-94343780D01*
X63099692Y-94242560D01*
X62990288Y-94075972D01*
X62917135Y-93875626D01*
X63663964Y-93875626D01*
X63665919Y-93937122D01*
X63695711Y-94065424D01*
X63773474Y-94170229D01*
X63833867Y-94217756D01*
X64014215Y-94289451D01*
X64269811Y-94325257D01*
X64601442Y-94325322D01*
X64724346Y-94316350D01*
X64827082Y-94289857D01*
X64883281Y-94230468D01*
X64906981Y-94120962D01*
X64912220Y-93944124D01*
X64908215Y-93855487D01*
X64853890Y-93651581D01*
X64737047Y-93504451D01*
X64558952Y-93415295D01*
X64320874Y-93385310D01*
X64210008Y-93389927D01*
X63978389Y-93438962D01*
X63806942Y-93538671D01*
X63700517Y-93685432D01*
X63663964Y-93875626D01*
X62917135Y-93875626D01*
X62906576Y-93846708D01*
X62880798Y-93577034D01*
X62887517Y-93441142D01*
X62956470Y-93141920D01*
X63095999Y-92882844D01*
X63301134Y-92668377D01*
X63566909Y-92502984D01*
X63888353Y-92391130D01*
X64260499Y-92337279D01*
X64489998Y-92333929D01*
X64786765Y-92372367D01*
X65038563Y-92466655D01*
X65259839Y-92620894D01*
X65325936Y-92682663D01*
X65474137Y-92865240D01*
X65571869Y-93074545D01*
X65625616Y-93327930D01*
X65641867Y-93642747D01*
X65640927Y-93742118D01*
X65634935Y-93921140D01*
X65633282Y-93944124D01*
X65624662Y-94064005D01*
G36*
X65624662Y-94064005D02*
G01*
X65611567Y-94146463D01*
X65581656Y-94240702D01*
X66030394Y-94210116D01*
X66479131Y-94179530D01*
X66479131Y-95247977D01*
X65875881Y-95251215D01*
X65799751Y-95251721D01*
X65585276Y-95254216D01*
X65403884Y-95257872D01*
X65272771Y-95262279D01*
X65209131Y-95267031D01*
X65185583Y-95269929D01*
X65084834Y-95277703D01*
X64924371Y-95287635D01*
X64720485Y-95298752D01*
X64489464Y-95310077D01*
X64411393Y-95313820D01*
X64146901Y-95327998D01*
X63888496Y-95343852D01*
X63662349Y-95359703D01*
X63494631Y-95373874D01*
X63340195Y-95389684D01*
X63167292Y-95404351D01*
X63056279Y-95398114D01*
X62993458Y-95360068D01*
X62965127Y-95279309D01*
X62957588Y-95144931D01*
X62957140Y-94946029D01*
X62957079Y-94935649D01*
X62958621Y-94708202D01*
X62967767Y-94553123D01*
X62986825Y-94458722D01*
X63018103Y-94413312D01*
X63063907Y-94405203D01*
X63117412Y-94409734D01*
X63176063Y-94396171D01*
X63169423Y-94343780D01*
X63099692Y-94242560D01*
X62990288Y-94075972D01*
X62917135Y-93875626D01*
X63663964Y-93875626D01*
X63665919Y-93937122D01*
X63695711Y-94065424D01*
X63773474Y-94170229D01*
X63833867Y-94217756D01*
X64014215Y-94289451D01*
X64269811Y-94325257D01*
X64601442Y-94325322D01*
X64724346Y-94316350D01*
X64827082Y-94289857D01*
X64883281Y-94230468D01*
X64906981Y-94120962D01*
X64912220Y-93944124D01*
X64908215Y-93855487D01*
X64853890Y-93651581D01*
X64737047Y-93504451D01*
X64558952Y-93415295D01*
X64320874Y-93385310D01*
X64210008Y-93389927D01*
X63978389Y-93438962D01*
X63806942Y-93538671D01*
X63700517Y-93685432D01*
X63663964Y-93875626D01*
X62917135Y-93875626D01*
X62906576Y-93846708D01*
X62880798Y-93577034D01*
X62887517Y-93441142D01*
X62956470Y-93141920D01*
X63095999Y-92882844D01*
X63301134Y-92668377D01*
X63566909Y-92502984D01*
X63888353Y-92391130D01*
X64260499Y-92337279D01*
X64489998Y-92333929D01*
X64786765Y-92372367D01*
X65038563Y-92466655D01*
X65259839Y-92620894D01*
X65325936Y-92682663D01*
X65474137Y-92865240D01*
X65571869Y-93074545D01*
X65625616Y-93327930D01*
X65641867Y-93642747D01*
X65640927Y-93742118D01*
X65634935Y-93921140D01*
X65633282Y-93944124D01*
X65624662Y-94064005D01*
G37*
X65033274Y-102416191D02*
X65137263Y-102431973D01*
X65222030Y-102459627D01*
X65389686Y-102574624D01*
X65516561Y-102761980D01*
X65601483Y-103019403D01*
X65644020Y-103344908D01*
X65643738Y-103736510D01*
X65600204Y-104192225D01*
X65584968Y-104304728D01*
X65554115Y-104508965D01*
X65522928Y-104648646D01*
X65483873Y-104737327D01*
X65429417Y-104788567D01*
X65352027Y-104815923D01*
X65244168Y-104832954D01*
X65160472Y-104844528D01*
X65021260Y-104866507D01*
X64926683Y-104884937D01*
X64834735Y-104907498D01*
X64941098Y-104575654D01*
X64997371Y-104366595D01*
X65043864Y-104132503D01*
X65069846Y-103926310D01*
X65071638Y-103900447D01*
X65079254Y-103742687D01*
X65073225Y-103643563D01*
X65049880Y-103580496D01*
X65005548Y-103530911D01*
X64990787Y-103518526D01*
X64882257Y-103475616D01*
X64782084Y-103511313D01*
X64706299Y-103620801D01*
X64674747Y-103716672D01*
X64634093Y-103865434D01*
X64594124Y-104032143D01*
X64520293Y-104336929D01*
X64437957Y-104603441D01*
X64348375Y-104808285D01*
X64244998Y-104963438D01*
X64121277Y-105080883D01*
X63970663Y-105172597D01*
X63764239Y-105246104D01*
X63533735Y-105252663D01*
X63305125Y-105175657D01*
X63151732Y-105061915D01*
X63012606Y-104889610D01*
X62924994Y-104697579D01*
X62906048Y-104599730D01*
X62890544Y-104444541D01*
X62883129Y-104271635D01*
X62884182Y-104106473D01*
X62894078Y-103974514D01*
X62913196Y-103901216D01*
X62962157Y-103867402D01*
X63069869Y-103818027D01*
X63210909Y-103765723D01*
X63477520Y-103676492D01*
X63469760Y-103833151D01*
X63468530Y-103859024D01*
X63465874Y-104024358D01*
X63480040Y-104128171D01*
X63516628Y-104190462D01*
X63581239Y-104231230D01*
X63643503Y-104254002D01*
X63711546Y-104244556D01*
X63791505Y-104177406D01*
X63796589Y-104172055D01*
X63861304Y-104075196D01*
X63932431Y-103928833D01*
X63995471Y-103762464D01*
X64096947Y-103450452D01*
X63603957Y-103479876D01*
X63421021Y-103490996D01*
X63241787Y-103502327D01*
X63106940Y-103511336D01*
X63036548Y-103516722D01*
X63036491Y-103516727D01*
X63003150Y-103512040D01*
X62981426Y-103480417D01*
X62968827Y-103407428D01*
X62962860Y-103278647D01*
X62961031Y-103079643D01*
X62960830Y-102943282D01*
X62961001Y-102769206D01*
X62961647Y-102637593D01*
X62962699Y-102569546D01*
X62972310Y-102544814D01*
X63013514Y-102523379D01*
X63099604Y-102509038D01*
X63243840Y-102499763D01*
X63459479Y-102493523D01*
X63645972Y-102488579D01*
X63811816Y-102482128D01*
X63928415Y-102475241D01*
X63978063Y-102468763D01*
X63979506Y-102468153D01*
X64036509Y-102460126D01*
X64159397Y-102449320D01*
X64331223Y-102437076D01*
X64535040Y-102424734D01*
X64696078Y-102416613D01*
X64892175Y-102411374D01*
X65033274Y-102416191D01*
G36*
X65033274Y-102416191D02*
G01*
X65137263Y-102431973D01*
X65222030Y-102459627D01*
X65389686Y-102574624D01*
X65516561Y-102761980D01*
X65601483Y-103019403D01*
X65644020Y-103344908D01*
X65643738Y-103736510D01*
X65600204Y-104192225D01*
X65584968Y-104304728D01*
X65554115Y-104508965D01*
X65522928Y-104648646D01*
X65483873Y-104737327D01*
X65429417Y-104788567D01*
X65352027Y-104815923D01*
X65244168Y-104832954D01*
X65160472Y-104844528D01*
X65021260Y-104866507D01*
X64926683Y-104884937D01*
X64834735Y-104907498D01*
X64941098Y-104575654D01*
X64997371Y-104366595D01*
X65043864Y-104132503D01*
X65069846Y-103926310D01*
X65071638Y-103900447D01*
X65079254Y-103742687D01*
X65073225Y-103643563D01*
X65049880Y-103580496D01*
X65005548Y-103530911D01*
X64990787Y-103518526D01*
X64882257Y-103475616D01*
X64782084Y-103511313D01*
X64706299Y-103620801D01*
X64674747Y-103716672D01*
X64634093Y-103865434D01*
X64594124Y-104032143D01*
X64520293Y-104336929D01*
X64437957Y-104603441D01*
X64348375Y-104808285D01*
X64244998Y-104963438D01*
X64121277Y-105080883D01*
X63970663Y-105172597D01*
X63764239Y-105246104D01*
X63533735Y-105252663D01*
X63305125Y-105175657D01*
X63151732Y-105061915D01*
X63012606Y-104889610D01*
X62924994Y-104697579D01*
X62906048Y-104599730D01*
X62890544Y-104444541D01*
X62883129Y-104271635D01*
X62884182Y-104106473D01*
X62894078Y-103974514D01*
X62913196Y-103901216D01*
X62962157Y-103867402D01*
X63069869Y-103818027D01*
X63210909Y-103765723D01*
X63477520Y-103676492D01*
X63469760Y-103833151D01*
X63468530Y-103859024D01*
X63465874Y-104024358D01*
X63480040Y-104128171D01*
X63516628Y-104190462D01*
X63581239Y-104231230D01*
X63643503Y-104254002D01*
X63711546Y-104244556D01*
X63791505Y-104177406D01*
X63796589Y-104172055D01*
X63861304Y-104075196D01*
X63932431Y-103928833D01*
X63995471Y-103762464D01*
X64096947Y-103450452D01*
X63603957Y-103479876D01*
X63421021Y-103490996D01*
X63241787Y-103502327D01*
X63106940Y-103511336D01*
X63036548Y-103516722D01*
X63036491Y-103516727D01*
X63003150Y-103512040D01*
X62981426Y-103480417D01*
X62968827Y-103407428D01*
X62962860Y-103278647D01*
X62961031Y-103079643D01*
X62960830Y-102943282D01*
X62961001Y-102769206D01*
X62961647Y-102637593D01*
X62962699Y-102569546D01*
X62972310Y-102544814D01*
X63013514Y-102523379D01*
X63099604Y-102509038D01*
X63243840Y-102499763D01*
X63459479Y-102493523D01*
X63645972Y-102488579D01*
X63811816Y-102482128D01*
X63928415Y-102475241D01*
X63978063Y-102468763D01*
X63979506Y-102468153D01*
X64036509Y-102460126D01*
X64159397Y-102449320D01*
X64331223Y-102437076D01*
X64535040Y-102424734D01*
X64696078Y-102416613D01*
X64892175Y-102411374D01*
X65033274Y-102416191D01*
G37*
X65579494Y-107629750D02*
X65548603Y-107865590D01*
X65487311Y-108057708D01*
X65391438Y-108221716D01*
X65256803Y-108373225D01*
X65194851Y-108429129D01*
X64977894Y-108573860D01*
X64746726Y-108663342D01*
X64514942Y-108698234D01*
X64296139Y-108679196D01*
X64103913Y-108606888D01*
X63951858Y-108481970D01*
X63853571Y-108305103D01*
X63845361Y-108277674D01*
X63824326Y-108064070D01*
X63861041Y-107852512D01*
X64324953Y-107852512D01*
X64386655Y-107966119D01*
X64489602Y-108020413D01*
X64631959Y-108025094D01*
X64783840Y-107982403D01*
X64920174Y-107899599D01*
X65015892Y-107783941D01*
X65061615Y-107658100D01*
X65082131Y-107521292D01*
X65082131Y-107386736D01*
X64863844Y-107415692D01*
X64791775Y-107427432D01*
X64640211Y-107463945D01*
X64526433Y-107506251D01*
X64404911Y-107599653D01*
X64333174Y-107723333D01*
X64324953Y-107852512D01*
X63861041Y-107852512D01*
X63863324Y-107839358D01*
X63956741Y-107639746D01*
X63982905Y-107600788D01*
X64025720Y-107525337D01*
X64022985Y-107483004D01*
X63977560Y-107447363D01*
X63971758Y-107443496D01*
X63900712Y-107350599D01*
X63849873Y-107200548D01*
X63825011Y-107017901D01*
X63831893Y-106827217D01*
X63912952Y-106501552D01*
X64069504Y-106200459D01*
X64294157Y-105945123D01*
X64581166Y-105743849D01*
X64619799Y-105723081D01*
X64757076Y-105656132D01*
X64874290Y-105618911D01*
X65006299Y-105603197D01*
X65187964Y-105600771D01*
X65319408Y-105603679D01*
X65478620Y-105619127D01*
X65608734Y-105653977D01*
X65743520Y-105715183D01*
X65821079Y-105759494D01*
X66057411Y-105948755D01*
X66256807Y-106190380D01*
X66397932Y-106460083D01*
X66436143Y-106584560D01*
X66482954Y-106830685D01*
X66513214Y-107118980D01*
X66525414Y-107424314D01*
X66518043Y-107721555D01*
X66489591Y-107985573D01*
X66408763Y-108319377D01*
X66244618Y-108696852D01*
X66015066Y-109025515D01*
X65725293Y-109299584D01*
X65380490Y-109513281D01*
X64985844Y-109660824D01*
X64707401Y-109711064D01*
X64378670Y-109717297D01*
X64057152Y-109672889D01*
X63765179Y-109581135D01*
X63525085Y-109445330D01*
X63470855Y-109403300D01*
X63328112Y-109275487D01*
X63218455Y-109137521D01*
X63112300Y-108954204D01*
X63022842Y-108749754D01*
X62927707Y-108394709D01*
X62883379Y-108007837D01*
X62890407Y-107611248D01*
X62949341Y-107227051D01*
X63060728Y-106877358D01*
X63146689Y-106674572D01*
X63341827Y-106702865D01*
X63402322Y-106712253D01*
X63505616Y-106731822D01*
X63554172Y-106746469D01*
X63556273Y-106754459D01*
X63541507Y-106818514D01*
X63502216Y-106920962D01*
X63427406Y-107121900D01*
X63374637Y-107354720D01*
X63351780Y-107618597D01*
X63355186Y-107938800D01*
X63360227Y-108044195D01*
X63374772Y-108235391D01*
X63397385Y-108377104D01*
X63432830Y-108493809D01*
X63485873Y-108609979D01*
X63542361Y-108707525D01*
X63705920Y-108910411D01*
X63900187Y-109071039D01*
X64102472Y-109168846D01*
X64269044Y-109203391D01*
X64539148Y-109217312D01*
X64816094Y-109192224D01*
X65060840Y-109129721D01*
X65064435Y-109128367D01*
X65312951Y-108997558D01*
X65551413Y-108806274D01*
X65755893Y-108577174D01*
X65902457Y-108332914D01*
X66002212Y-108058202D01*
X66070126Y-107732221D01*
X66092473Y-107402567D01*
X66071218Y-107082792D01*
X66008323Y-106786446D01*
X65905755Y-106527083D01*
X65765476Y-106318251D01*
X65589452Y-106173504D01*
X65568328Y-106162122D01*
X65342634Y-106085839D01*
X65103145Y-106073758D01*
X64867950Y-106120232D01*
X64655138Y-106219613D01*
X64482796Y-106366255D01*
X64369012Y-106554510D01*
X64355136Y-106594708D01*
X64342208Y-106680444D01*
X64370785Y-106735702D01*
X64448853Y-106761946D01*
X64584401Y-106760641D01*
X64785414Y-106733252D01*
X65059879Y-106681245D01*
X65178153Y-106658824D01*
X65343909Y-106633838D01*
X65463480Y-106624242D01*
X65518737Y-106631982D01*
X65534453Y-106684142D01*
X65551188Y-106803707D01*
X65566546Y-106972249D01*
X65578526Y-107171708D01*
X65584164Y-107334576D01*
X65581209Y-107521292D01*
X65579494Y-107629750D01*
G36*
X65579494Y-107629750D02*
G01*
X65548603Y-107865590D01*
X65487311Y-108057708D01*
X65391438Y-108221716D01*
X65256803Y-108373225D01*
X65194851Y-108429129D01*
X64977894Y-108573860D01*
X64746726Y-108663342D01*
X64514942Y-108698234D01*
X64296139Y-108679196D01*
X64103913Y-108606888D01*
X63951858Y-108481970D01*
X63853571Y-108305103D01*
X63845361Y-108277674D01*
X63824326Y-108064070D01*
X63861041Y-107852512D01*
X64324953Y-107852512D01*
X64386655Y-107966119D01*
X64489602Y-108020413D01*
X64631959Y-108025094D01*
X64783840Y-107982403D01*
X64920174Y-107899599D01*
X65015892Y-107783941D01*
X65061615Y-107658100D01*
X65082131Y-107521292D01*
X65082131Y-107386736D01*
X64863844Y-107415692D01*
X64791775Y-107427432D01*
X64640211Y-107463945D01*
X64526433Y-107506251D01*
X64404911Y-107599653D01*
X64333174Y-107723333D01*
X64324953Y-107852512D01*
X63861041Y-107852512D01*
X63863324Y-107839358D01*
X63956741Y-107639746D01*
X63982905Y-107600788D01*
X64025720Y-107525337D01*
X64022985Y-107483004D01*
X63977560Y-107447363D01*
X63971758Y-107443496D01*
X63900712Y-107350599D01*
X63849873Y-107200548D01*
X63825011Y-107017901D01*
X63831893Y-106827217D01*
X63912952Y-106501552D01*
X64069504Y-106200459D01*
X64294157Y-105945123D01*
X64581166Y-105743849D01*
X64619799Y-105723081D01*
X64757076Y-105656132D01*
X64874290Y-105618911D01*
X65006299Y-105603197D01*
X65187964Y-105600771D01*
X65319408Y-105603679D01*
X65478620Y-105619127D01*
X65608734Y-105653977D01*
X65743520Y-105715183D01*
X65821079Y-105759494D01*
X66057411Y-105948755D01*
X66256807Y-106190380D01*
X66397932Y-106460083D01*
X66436143Y-106584560D01*
X66482954Y-106830685D01*
X66513214Y-107118980D01*
X66525414Y-107424314D01*
X66518043Y-107721555D01*
X66489591Y-107985573D01*
X66408763Y-108319377D01*
X66244618Y-108696852D01*
X66015066Y-109025515D01*
X65725293Y-109299584D01*
X65380490Y-109513281D01*
X64985844Y-109660824D01*
X64707401Y-109711064D01*
X64378670Y-109717297D01*
X64057152Y-109672889D01*
X63765179Y-109581135D01*
X63525085Y-109445330D01*
X63470855Y-109403300D01*
X63328112Y-109275487D01*
X63218455Y-109137521D01*
X63112300Y-108954204D01*
X63022842Y-108749754D01*
X62927707Y-108394709D01*
X62883379Y-108007837D01*
X62890407Y-107611248D01*
X62949341Y-107227051D01*
X63060728Y-106877358D01*
X63146689Y-106674572D01*
X63341827Y-106702865D01*
X63402322Y-106712253D01*
X63505616Y-106731822D01*
X63554172Y-106746469D01*
X63556273Y-106754459D01*
X63541507Y-106818514D01*
X63502216Y-106920962D01*
X63427406Y-107121900D01*
X63374637Y-107354720D01*
X63351780Y-107618597D01*
X63355186Y-107938800D01*
X63360227Y-108044195D01*
X63374772Y-108235391D01*
X63397385Y-108377104D01*
X63432830Y-108493809D01*
X63485873Y-108609979D01*
X63542361Y-108707525D01*
X63705920Y-108910411D01*
X63900187Y-109071039D01*
X64102472Y-109168846D01*
X64269044Y-109203391D01*
X64539148Y-109217312D01*
X64816094Y-109192224D01*
X65060840Y-109129721D01*
X65064435Y-109128367D01*
X65312951Y-108997558D01*
X65551413Y-108806274D01*
X65755893Y-108577174D01*
X65902457Y-108332914D01*
X66002212Y-108058202D01*
X66070126Y-107732221D01*
X66092473Y-107402567D01*
X66071218Y-107082792D01*
X66008323Y-106786446D01*
X65905755Y-106527083D01*
X65765476Y-106318251D01*
X65589452Y-106173504D01*
X65568328Y-106162122D01*
X65342634Y-106085839D01*
X65103145Y-106073758D01*
X64867950Y-106120232D01*
X64655138Y-106219613D01*
X64482796Y-106366255D01*
X64369012Y-106554510D01*
X64355136Y-106594708D01*
X64342208Y-106680444D01*
X64370785Y-106735702D01*
X64448853Y-106761946D01*
X64584401Y-106760641D01*
X64785414Y-106733252D01*
X65059879Y-106681245D01*
X65178153Y-106658824D01*
X65343909Y-106633838D01*
X65463480Y-106624242D01*
X65518737Y-106631982D01*
X65534453Y-106684142D01*
X65551188Y-106803707D01*
X65566546Y-106972249D01*
X65578526Y-107171708D01*
X65584164Y-107334576D01*
X65581209Y-107521292D01*
X65579494Y-107629750D01*
G37*
X71501438Y-83196078D02*
X71500390Y-83200141D01*
X71464826Y-83271629D01*
X71389262Y-83324032D01*
X71251788Y-83372864D01*
X71233082Y-83378250D01*
X71062356Y-83419347D01*
X70822596Y-83467590D01*
X70526951Y-83521013D01*
X70188571Y-83577654D01*
X69820607Y-83635546D01*
X69436208Y-83692728D01*
X69048526Y-83747233D01*
X68670710Y-83797098D01*
X68315911Y-83840358D01*
X67997279Y-83875050D01*
X67727964Y-83899209D01*
X67572223Y-83909851D01*
X67391039Y-83919069D01*
X67251065Y-83922551D01*
X67173869Y-83919505D01*
X67169592Y-83919012D01*
X67098030Y-83916251D01*
X66950623Y-83913453D01*
X66734837Y-83910678D01*
X66458136Y-83907984D01*
X66127986Y-83905430D01*
X65751853Y-83903075D01*
X65337201Y-83900977D01*
X64891495Y-83899197D01*
X64422203Y-83897792D01*
X64310411Y-83897499D01*
X63669143Y-83895155D01*
X63103696Y-83891731D01*
X62606463Y-83887010D01*
X62169836Y-83880776D01*
X61786210Y-83872810D01*
X61447976Y-83862897D01*
X61147529Y-83850820D01*
X60877261Y-83836360D01*
X60629566Y-83819301D01*
X60396836Y-83799427D01*
X60171464Y-83776519D01*
X60103622Y-83769152D01*
X59885525Y-83745943D01*
X59676986Y-83724353D01*
X59515298Y-83708261D01*
X59481001Y-83704532D01*
X59325044Y-83682685D01*
X59116480Y-83648722D01*
X58878390Y-83606525D01*
X58633852Y-83559978D01*
X58422599Y-83516513D01*
X58133491Y-83447765D01*
X57915482Y-83379942D01*
X57760306Y-83308890D01*
X57659699Y-83230453D01*
X57605396Y-83140478D01*
X57589326Y-83036079D01*
X57860381Y-83036079D01*
X57904330Y-83083852D01*
X58020125Y-83136502D01*
X58199772Y-83192454D01*
X58435277Y-83250133D01*
X58718645Y-83307966D01*
X59041882Y-83364377D01*
X59396994Y-83417793D01*
X59775986Y-83466638D01*
X60170863Y-83509338D01*
X60573631Y-83544318D01*
X60600359Y-83546383D01*
X60779002Y-83562035D01*
X60935746Y-83578619D01*
X61039298Y-83592872D01*
X61048650Y-83593934D01*
X61133029Y-83597627D01*
X61291923Y-83601289D01*
X61517448Y-83604887D01*
X61801718Y-83608390D01*
X62136850Y-83611763D01*
X62514958Y-83614976D01*
X62928157Y-83617994D01*
X63368563Y-83620786D01*
X63828290Y-83623318D01*
X64299453Y-83625559D01*
X64774167Y-83627475D01*
X65244549Y-83629033D01*
X65702712Y-83630202D01*
X66140771Y-83630949D01*
X66550843Y-83631241D01*
X66925041Y-83631045D01*
X67255481Y-83630328D01*
X67534279Y-83629059D01*
X67753548Y-83627204D01*
X67905405Y-83624731D01*
X67981964Y-83621606D01*
X68067347Y-83612682D01*
X68269872Y-83588151D01*
X68521255Y-83554678D01*
X68809431Y-83514141D01*
X69122337Y-83468419D01*
X69447907Y-83419389D01*
X69774076Y-83368929D01*
X70088781Y-83318916D01*
X70379957Y-83271229D01*
X70635539Y-83227745D01*
X70843462Y-83190341D01*
X70991662Y-83160895D01*
X71068074Y-83141286D01*
X71121399Y-83116158D01*
X71112437Y-83093180D01*
X71030822Y-83057686D01*
X70903649Y-83014581D01*
X70656268Y-82949769D01*
X70347979Y-82884656D01*
X69992817Y-82821491D01*
X69604816Y-82762525D01*
X69198011Y-82710007D01*
X68786438Y-82666189D01*
X68384131Y-82633321D01*
X68068975Y-82611770D01*
X67748085Y-82589225D01*
X67492293Y-82570385D01*
X67290879Y-82554428D01*
X67133121Y-82540532D01*
X67008298Y-82527875D01*
X66854068Y-82514284D01*
X66591688Y-82498677D01*
X66258073Y-82484667D01*
X65860663Y-82472418D01*
X65406901Y-82462092D01*
X64904226Y-82453856D01*
X64360078Y-82447873D01*
X63781900Y-82444307D01*
X63177131Y-82443323D01*
X62935132Y-82443616D01*
X62414387Y-82445718D01*
X61961377Y-82450335D01*
X61564191Y-82458134D01*
X61210917Y-82469783D01*
X60889646Y-82485949D01*
X60588465Y-82507299D01*
X60295465Y-82534501D01*
X59998734Y-82568220D01*
X59686362Y-82609125D01*
X59346439Y-82657882D01*
X59343822Y-82658270D01*
X59147144Y-82691293D01*
X58922196Y-82735146D01*
X58684897Y-82786010D01*
X58451165Y-82840069D01*
X58236919Y-82893503D01*
X58058078Y-82942496D01*
X57930561Y-82983230D01*
X57870286Y-83011888D01*
X57860381Y-83036079D01*
X57589326Y-83036079D01*
X57589131Y-83034810D01*
X57589917Y-83005325D01*
X57605809Y-82921202D01*
X57649257Y-82850152D01*
X57729563Y-82787545D01*
X57856033Y-82728748D01*
X58037970Y-82669132D01*
X58284677Y-82604063D01*
X58605460Y-82528913D01*
X58744412Y-82499722D01*
X59029913Y-82449106D01*
X59385955Y-82395592D01*
X59816035Y-82338701D01*
X60323650Y-82277955D01*
X60912298Y-82212872D01*
X61015384Y-82206477D01*
X61190535Y-82200978D01*
X61428495Y-82196361D01*
X61720049Y-82192611D01*
X62055978Y-82189712D01*
X62427066Y-82187648D01*
X62824096Y-82186403D01*
X63237851Y-82185961D01*
X63659112Y-82186306D01*
X64078664Y-82187422D01*
X64487289Y-82189292D01*
X64875770Y-82191902D01*
X65234889Y-82195234D01*
X65555430Y-82199273D01*
X65828175Y-82204003D01*
X66043907Y-82209408D01*
X66193409Y-82215471D01*
X66267464Y-82222177D01*
X66290940Y-82225906D01*
X66399585Y-82236648D01*
X66567279Y-82248876D01*
X66775962Y-82261353D01*
X67007570Y-82272843D01*
X67117971Y-82277943D01*
X67327742Y-82288664D01*
X67498829Y-82298786D01*
X67615929Y-82307363D01*
X67663737Y-82313448D01*
X67663814Y-82313490D01*
X67712846Y-82320505D01*
X67829014Y-82330482D01*
X67995036Y-82342098D01*
X68193631Y-82354030D01*
X68295263Y-82360095D01*
X68728975Y-82393856D01*
X69178653Y-82440098D01*
X69624172Y-82496114D01*
X70045407Y-82559197D01*
X70422231Y-82626641D01*
X70734521Y-82695739D01*
X70942762Y-82751596D01*
X71185771Y-82831166D01*
X71356152Y-82910839D01*
X71460896Y-82995174D01*
X71506995Y-83088733D01*
X71505575Y-83116158D01*
X71501438Y-83196078D01*
G36*
X71501438Y-83196078D02*
G01*
X71500390Y-83200141D01*
X71464826Y-83271629D01*
X71389262Y-83324032D01*
X71251788Y-83372864D01*
X71233082Y-83378250D01*
X71062356Y-83419347D01*
X70822596Y-83467590D01*
X70526951Y-83521013D01*
X70188571Y-83577654D01*
X69820607Y-83635546D01*
X69436208Y-83692728D01*
X69048526Y-83747233D01*
X68670710Y-83797098D01*
X68315911Y-83840358D01*
X67997279Y-83875050D01*
X67727964Y-83899209D01*
X67572223Y-83909851D01*
X67391039Y-83919069D01*
X67251065Y-83922551D01*
X67173869Y-83919505D01*
X67169592Y-83919012D01*
X67098030Y-83916251D01*
X66950623Y-83913453D01*
X66734837Y-83910678D01*
X66458136Y-83907984D01*
X66127986Y-83905430D01*
X65751853Y-83903075D01*
X65337201Y-83900977D01*
X64891495Y-83899197D01*
X64422203Y-83897792D01*
X64310411Y-83897499D01*
X63669143Y-83895155D01*
X63103696Y-83891731D01*
X62606463Y-83887010D01*
X62169836Y-83880776D01*
X61786210Y-83872810D01*
X61447976Y-83862897D01*
X61147529Y-83850820D01*
X60877261Y-83836360D01*
X60629566Y-83819301D01*
X60396836Y-83799427D01*
X60171464Y-83776519D01*
X60103622Y-83769152D01*
X59885525Y-83745943D01*
X59676986Y-83724353D01*
X59515298Y-83708261D01*
X59481001Y-83704532D01*
X59325044Y-83682685D01*
X59116480Y-83648722D01*
X58878390Y-83606525D01*
X58633852Y-83559978D01*
X58422599Y-83516513D01*
X58133491Y-83447765D01*
X57915482Y-83379942D01*
X57760306Y-83308890D01*
X57659699Y-83230453D01*
X57605396Y-83140478D01*
X57589326Y-83036079D01*
X57860381Y-83036079D01*
X57904330Y-83083852D01*
X58020125Y-83136502D01*
X58199772Y-83192454D01*
X58435277Y-83250133D01*
X58718645Y-83307966D01*
X59041882Y-83364377D01*
X59396994Y-83417793D01*
X59775986Y-83466638D01*
X60170863Y-83509338D01*
X60573631Y-83544318D01*
X60600359Y-83546383D01*
X60779002Y-83562035D01*
X60935746Y-83578619D01*
X61039298Y-83592872D01*
X61048650Y-83593934D01*
X61133029Y-83597627D01*
X61291923Y-83601289D01*
X61517448Y-83604887D01*
X61801718Y-83608390D01*
X62136850Y-83611763D01*
X62514958Y-83614976D01*
X62928157Y-83617994D01*
X63368563Y-83620786D01*
X63828290Y-83623318D01*
X64299453Y-83625559D01*
X64774167Y-83627475D01*
X65244549Y-83629033D01*
X65702712Y-83630202D01*
X66140771Y-83630949D01*
X66550843Y-83631241D01*
X66925041Y-83631045D01*
X67255481Y-83630328D01*
X67534279Y-83629059D01*
X67753548Y-83627204D01*
X67905405Y-83624731D01*
X67981964Y-83621606D01*
X68067347Y-83612682D01*
X68269872Y-83588151D01*
X68521255Y-83554678D01*
X68809431Y-83514141D01*
X69122337Y-83468419D01*
X69447907Y-83419389D01*
X69774076Y-83368929D01*
X70088781Y-83318916D01*
X70379957Y-83271229D01*
X70635539Y-83227745D01*
X70843462Y-83190341D01*
X70991662Y-83160895D01*
X71068074Y-83141286D01*
X71121399Y-83116158D01*
X71112437Y-83093180D01*
X71030822Y-83057686D01*
X70903649Y-83014581D01*
X70656268Y-82949769D01*
X70347979Y-82884656D01*
X69992817Y-82821491D01*
X69604816Y-82762525D01*
X69198011Y-82710007D01*
X68786438Y-82666189D01*
X68384131Y-82633321D01*
X68068975Y-82611770D01*
X67748085Y-82589225D01*
X67492293Y-82570385D01*
X67290879Y-82554428D01*
X67133121Y-82540532D01*
X67008298Y-82527875D01*
X66854068Y-82514284D01*
X66591688Y-82498677D01*
X66258073Y-82484667D01*
X65860663Y-82472418D01*
X65406901Y-82462092D01*
X64904226Y-82453856D01*
X64360078Y-82447873D01*
X63781900Y-82444307D01*
X63177131Y-82443323D01*
X62935132Y-82443616D01*
X62414387Y-82445718D01*
X61961377Y-82450335D01*
X61564191Y-82458134D01*
X61210917Y-82469783D01*
X60889646Y-82485949D01*
X60588465Y-82507299D01*
X60295465Y-82534501D01*
X59998734Y-82568220D01*
X59686362Y-82609125D01*
X59346439Y-82657882D01*
X59343822Y-82658270D01*
X59147144Y-82691293D01*
X58922196Y-82735146D01*
X58684897Y-82786010D01*
X58451165Y-82840069D01*
X58236919Y-82893503D01*
X58058078Y-82942496D01*
X57930561Y-82983230D01*
X57870286Y-83011888D01*
X57860381Y-83036079D01*
X57589326Y-83036079D01*
X57589131Y-83034810D01*
X57589917Y-83005325D01*
X57605809Y-82921202D01*
X57649257Y-82850152D01*
X57729563Y-82787545D01*
X57856033Y-82728748D01*
X58037970Y-82669132D01*
X58284677Y-82604063D01*
X58605460Y-82528913D01*
X58744412Y-82499722D01*
X59029913Y-82449106D01*
X59385955Y-82395592D01*
X59816035Y-82338701D01*
X60323650Y-82277955D01*
X60912298Y-82212872D01*
X61015384Y-82206477D01*
X61190535Y-82200978D01*
X61428495Y-82196361D01*
X61720049Y-82192611D01*
X62055978Y-82189712D01*
X62427066Y-82187648D01*
X62824096Y-82186403D01*
X63237851Y-82185961D01*
X63659112Y-82186306D01*
X64078664Y-82187422D01*
X64487289Y-82189292D01*
X64875770Y-82191902D01*
X65234889Y-82195234D01*
X65555430Y-82199273D01*
X65828175Y-82204003D01*
X66043907Y-82209408D01*
X66193409Y-82215471D01*
X66267464Y-82222177D01*
X66290940Y-82225906D01*
X66399585Y-82236648D01*
X66567279Y-82248876D01*
X66775962Y-82261353D01*
X67007570Y-82272843D01*
X67117971Y-82277943D01*
X67327742Y-82288664D01*
X67498829Y-82298786D01*
X67615929Y-82307363D01*
X67663737Y-82313448D01*
X67663814Y-82313490D01*
X67712846Y-82320505D01*
X67829014Y-82330482D01*
X67995036Y-82342098D01*
X68193631Y-82354030D01*
X68295263Y-82360095D01*
X68728975Y-82393856D01*
X69178653Y-82440098D01*
X69624172Y-82496114D01*
X70045407Y-82559197D01*
X70422231Y-82626641D01*
X70734521Y-82695739D01*
X70942762Y-82751596D01*
X71185771Y-82831166D01*
X71356152Y-82910839D01*
X71460896Y-82995174D01*
X71506995Y-83088733D01*
X71505575Y-83116158D01*
X71501438Y-83196078D01*
G37*
X72199417Y-83231125D02*
X72161365Y-83385602D01*
X72086351Y-83593583D01*
X72060781Y-83662126D01*
X72003062Y-83836437D01*
X71993909Y-83864079D01*
X71941018Y-84055776D01*
X71911779Y-84203430D01*
X71900694Y-84279054D01*
X71871048Y-84451911D01*
X71827395Y-84689078D01*
X71771936Y-84979585D01*
X71706877Y-85312463D01*
X71634419Y-85676743D01*
X71556768Y-86061456D01*
X71476125Y-86455632D01*
X71394694Y-86848304D01*
X71314680Y-87228501D01*
X71238284Y-87585255D01*
X71167711Y-87907596D01*
X71132211Y-88067566D01*
X71005202Y-88641312D01*
X70894869Y-89142967D01*
X70799601Y-89580873D01*
X70717783Y-89963374D01*
X70647803Y-90298811D01*
X70588048Y-90595527D01*
X70536906Y-90861864D01*
X70492763Y-91106165D01*
X70454006Y-91336771D01*
X70419022Y-91562024D01*
X70386200Y-91790268D01*
X70353924Y-92029845D01*
X70320584Y-92289096D01*
X70280667Y-92600035D01*
X70230457Y-92983524D01*
X70174525Y-93404751D01*
X70116013Y-93840207D01*
X70058063Y-94266381D01*
X70003815Y-94659763D01*
X69932732Y-95179928D01*
X69852682Y-95787242D01*
X69774975Y-96398750D01*
X69700714Y-97004678D01*
X69631004Y-97595252D01*
X69566949Y-98160699D01*
X69509653Y-98691244D01*
X69460221Y-99177114D01*
X69419756Y-99608534D01*
X69389363Y-99975730D01*
X69370146Y-100268930D01*
X69356025Y-100530639D01*
X69331125Y-100957581D01*
X69306673Y-101334767D01*
X69283766Y-101644763D01*
X69279362Y-101702240D01*
X69267210Y-101877194D01*
X69253728Y-102087993D01*
X69241106Y-102300930D01*
X69235729Y-102393748D01*
X69222365Y-102609898D01*
X69209043Y-102808917D01*
X69197979Y-102957096D01*
X69173587Y-103254221D01*
X69162223Y-103392662D01*
X69121453Y-103896593D01*
X69086731Y-104336845D01*
X69057247Y-104725125D01*
X69032192Y-105073139D01*
X69010759Y-105392592D01*
X68992139Y-105695192D01*
X68975523Y-105992644D01*
X68960103Y-106296654D01*
X68945070Y-106618930D01*
X68936637Y-106798166D01*
X68924673Y-107033179D01*
X68912975Y-107244667D01*
X68903179Y-107402096D01*
X68901627Y-107425338D01*
X68892295Y-107585427D01*
X68881283Y-107799885D01*
X68869836Y-108043510D01*
X68859201Y-108291096D01*
X68856047Y-108366569D01*
X68845633Y-108592421D01*
X68835075Y-108791437D01*
X68825448Y-108944359D01*
X68817828Y-109031930D01*
X68817080Y-109039162D01*
X68812674Y-109124212D01*
X68807515Y-109281949D01*
X68801825Y-109502344D01*
X68795829Y-109775368D01*
X68789748Y-110090992D01*
X68783807Y-110439189D01*
X68778229Y-110809930D01*
X68775065Y-111041109D01*
X68770411Y-111429729D01*
X68767927Y-111749407D01*
X68767888Y-112010496D01*
X68770569Y-112223354D01*
X68776243Y-112398334D01*
X68785186Y-112545793D01*
X68797673Y-112676086D01*
X68813979Y-112799569D01*
X68834377Y-112926596D01*
X68972662Y-113556605D01*
X69171525Y-114151166D01*
X69184233Y-114178158D01*
X69432080Y-114704596D01*
X69523748Y-114874056D01*
X69563944Y-114948366D01*
X69796141Y-115388864D01*
X69992930Y-115778322D01*
X70152376Y-116112614D01*
X70272547Y-116387613D01*
X70351510Y-116599193D01*
X70387330Y-116743230D01*
X70391149Y-116777135D01*
X70384326Y-117124142D01*
X70298891Y-117465653D01*
X70297029Y-117473098D01*
X70132347Y-117815251D01*
X69893374Y-118141847D01*
X69806451Y-118237612D01*
X69696332Y-118341258D01*
X69572815Y-118431727D01*
X69414338Y-118524321D01*
X69199336Y-118634340D01*
X68976984Y-118738369D01*
X68619438Y-118887859D01*
X68602840Y-118894799D01*
X68197617Y-119046364D01*
X67787546Y-119183924D01*
X67398856Y-119298342D01*
X67057778Y-119380477D01*
X66880053Y-119413496D01*
X66612519Y-119456176D01*
X66328788Y-119495464D01*
X66066669Y-119525813D01*
X66010079Y-119531205D01*
X65701230Y-119553254D01*
X65333640Y-119570064D01*
X64927760Y-119581463D01*
X64504044Y-119587277D01*
X64082941Y-119587337D01*
X63684904Y-119581469D01*
X63330386Y-119569501D01*
X63039836Y-119551262D01*
X62562229Y-119500439D01*
X61866725Y-119388351D01*
X61210407Y-119236230D01*
X60603408Y-119046953D01*
X60055859Y-118823396D01*
X59577895Y-118568436D01*
X59362617Y-118425754D01*
X59311606Y-118382954D01*
X59824716Y-118382954D01*
X59835496Y-118401780D01*
X59905949Y-118451664D01*
X60037467Y-118526085D01*
X60285963Y-118639280D01*
X60590570Y-118755738D01*
X60934956Y-118870450D01*
X61302791Y-118978407D01*
X61677743Y-119074599D01*
X62043479Y-119154017D01*
X62383669Y-119211652D01*
X62412348Y-119215675D01*
X62590295Y-119240993D01*
X62746275Y-119263721D01*
X62849336Y-119279360D01*
X62854494Y-119280079D01*
X62939099Y-119286083D01*
X63094628Y-119292682D01*
X63308923Y-119299525D01*
X63569827Y-119306258D01*
X63865184Y-119312529D01*
X64182836Y-119317987D01*
X64315239Y-119319782D01*
X64857895Y-119321532D01*
X65334365Y-119312389D01*
X65759279Y-119291432D01*
X66147270Y-119257737D01*
X66512967Y-119210382D01*
X66871003Y-119148445D01*
X66987687Y-119124487D01*
X67178688Y-119080789D01*
X67370178Y-119032639D01*
X67545541Y-118984653D01*
X67688161Y-118941449D01*
X67781423Y-118907645D01*
X67808710Y-118887859D01*
X67793012Y-118886527D01*
X67710692Y-118897189D01*
X67575292Y-118922059D01*
X67405846Y-118957832D01*
X67351431Y-118969505D01*
X67009465Y-119028041D01*
X66596452Y-119077943D01*
X66123594Y-119118387D01*
X65602097Y-119148547D01*
X65043165Y-119167600D01*
X64458003Y-119174721D01*
X63974143Y-119170874D01*
X63333363Y-119147573D01*
X62742103Y-119100306D01*
X62180793Y-119025736D01*
X61629864Y-118920525D01*
X61069747Y-118781336D01*
X60480872Y-118604829D01*
X59843669Y-118387668D01*
X59824716Y-118382954D01*
X59311606Y-118382954D01*
X59134884Y-118234678D01*
X58956616Y-118023993D01*
X58808510Y-117773763D01*
X58727360Y-117603357D01*
X58622301Y-117319534D01*
X58578657Y-117067210D01*
X58590750Y-116905930D01*
X59696946Y-116905930D01*
X59697617Y-116963858D01*
X59705436Y-117136929D01*
X59720366Y-117336917D01*
X59740335Y-117545253D01*
X59763270Y-117743366D01*
X59787100Y-117912688D01*
X59809753Y-118034649D01*
X59829155Y-118090681D01*
X59851311Y-118102972D01*
X59943920Y-118139862D01*
X60092247Y-118192695D01*
X60280377Y-118256306D01*
X60492390Y-118325530D01*
X60712371Y-118395202D01*
X60924400Y-118460157D01*
X61112562Y-118515231D01*
X61260938Y-118555259D01*
X61336972Y-118573908D01*
X61756367Y-118666753D01*
X62205999Y-118752080D01*
X62649062Y-118823328D01*
X63048751Y-118873936D01*
X63233716Y-118888025D01*
X63504929Y-118899512D01*
X63830461Y-118906782D01*
X64194421Y-118909954D01*
X64580920Y-118909147D01*
X64974068Y-118904481D01*
X65357976Y-118896074D01*
X65716755Y-118884046D01*
X66034515Y-118868516D01*
X66295366Y-118849602D01*
X66708633Y-118802799D01*
X67224159Y-118720185D01*
X67728606Y-118614248D01*
X68203625Y-118489405D01*
X68630865Y-118350071D01*
X68991978Y-118200661D01*
X68994208Y-118199601D01*
X69157270Y-118120246D01*
X69260671Y-118060589D01*
X69321476Y-118005113D01*
X69356751Y-117938303D01*
X69383561Y-117844645D01*
X69400911Y-117767143D01*
X69431826Y-117465653D01*
X69411900Y-117125203D01*
X69340180Y-116736961D01*
X69215709Y-116292096D01*
X69142131Y-116068068D01*
X69058736Y-115840558D01*
X68989316Y-115687557D01*
X68931657Y-115604360D01*
X68883545Y-115586266D01*
X68746210Y-115625970D01*
X68086282Y-115803311D01*
X67469218Y-115946446D01*
X66905431Y-116053125D01*
X66405336Y-116121102D01*
X66262808Y-116135775D01*
X66048537Y-116157803D01*
X65860625Y-116177088D01*
X65728003Y-116190659D01*
X65664320Y-116197591D01*
X65509645Y-116217307D01*
X65389336Y-116236286D01*
X65323345Y-116243922D01*
X65171623Y-116252619D01*
X64958691Y-116259698D01*
X64697893Y-116265122D01*
X64402572Y-116268853D01*
X64086071Y-116270854D01*
X63761734Y-116271088D01*
X63442902Y-116269517D01*
X63142921Y-116266103D01*
X62875131Y-116260810D01*
X62652878Y-116253598D01*
X62489503Y-116244432D01*
X62023389Y-116192684D01*
X61493841Y-116104710D01*
X60965124Y-115989903D01*
X60475690Y-115855686D01*
X60308610Y-115804076D01*
X60140543Y-115752403D01*
X60015506Y-115714235D01*
X59952416Y-115695366D01*
X59933205Y-115700067D01*
X59890355Y-115764962D01*
X59845130Y-115891277D01*
X59800774Y-116063634D01*
X59760533Y-116266655D01*
X59727651Y-116484963D01*
X59705373Y-116703180D01*
X59696946Y-116905930D01*
X58590750Y-116905930D01*
X58596533Y-116828806D01*
X58676038Y-116586748D01*
X58817275Y-116323459D01*
X58881042Y-116214009D01*
X59005078Y-115979398D01*
X59145803Y-115692670D01*
X59295648Y-115370950D01*
X59393822Y-115150734D01*
X60330503Y-115150734D01*
X60355360Y-115186791D01*
X60447670Y-115248486D01*
X60593904Y-115323014D01*
X60778933Y-115404190D01*
X60987626Y-115485826D01*
X61204854Y-115561736D01*
X61415489Y-115625735D01*
X61604400Y-115671634D01*
X61782734Y-115704720D01*
X61994218Y-115738833D01*
X62172003Y-115762501D01*
X62290057Y-115775704D01*
X62502838Y-115800329D01*
X62701169Y-115824099D01*
X62741357Y-115828132D01*
X62888025Y-115837083D01*
X63090070Y-115844681D01*
X63329994Y-115850738D01*
X63590296Y-115855067D01*
X63853477Y-115857482D01*
X64102038Y-115857795D01*
X64318479Y-115855818D01*
X64485301Y-115851365D01*
X64585003Y-115844248D01*
X64638139Y-115837782D01*
X64764778Y-115823838D01*
X64937619Y-115805622D01*
X65135336Y-115785414D01*
X65579193Y-115738180D01*
X66068547Y-115677994D01*
X66493745Y-115614741D01*
X66866197Y-115546279D01*
X67197313Y-115470463D01*
X67498500Y-115385149D01*
X67781169Y-115288193D01*
X67904825Y-115239166D01*
X68090792Y-115156142D01*
X68264048Y-115069184D01*
X68408156Y-114987228D01*
X68506676Y-114919207D01*
X68543169Y-114874056D01*
X68517747Y-114875309D01*
X68441124Y-114900935D01*
X68340939Y-114941462D01*
X68245555Y-114985314D01*
X68183336Y-115020915D01*
X68154069Y-115036985D01*
X68057919Y-115076334D01*
X67929336Y-115120746D01*
X67897684Y-115130477D01*
X67814898Y-115152508D01*
X67712630Y-115174417D01*
X67580116Y-115197908D01*
X67406593Y-115224684D01*
X67181298Y-115256446D01*
X66893467Y-115294898D01*
X66532336Y-115341743D01*
X66520247Y-115343082D01*
X66412078Y-115349548D01*
X66238099Y-115355115D01*
X66014083Y-115359460D01*
X65755805Y-115362263D01*
X65479042Y-115363203D01*
X65429077Y-115363257D01*
X65151856Y-115366099D01*
X64893958Y-115372749D01*
X64671716Y-115382520D01*
X64501466Y-115394722D01*
X64399542Y-115408669D01*
X64286683Y-115428268D01*
X64066312Y-115449008D01*
X63787816Y-115461985D01*
X63466479Y-115467467D01*
X63117584Y-115465720D01*
X62756415Y-115457011D01*
X62398256Y-115441608D01*
X62058389Y-115419778D01*
X61752099Y-115391787D01*
X61494669Y-115357903D01*
X61386026Y-115338928D01*
X61172384Y-115295318D01*
X60954269Y-115244323D01*
X60753633Y-115191530D01*
X60592429Y-115142525D01*
X60492607Y-115102894D01*
X60440750Y-115083733D01*
X60362801Y-115092532D01*
X60330503Y-115150734D01*
X59393822Y-115150734D01*
X59447041Y-115031359D01*
X59592413Y-114691022D01*
X59724192Y-114367061D01*
X59804449Y-114156317D01*
X61585982Y-114156317D01*
X61607246Y-114191980D01*
X61709153Y-114284962D01*
X61881553Y-114396277D01*
X62117169Y-114521898D01*
X62408727Y-114657800D01*
X62748952Y-114799957D01*
X63399669Y-115058605D01*
X63971169Y-115084661D01*
X63992324Y-115085628D01*
X64225669Y-115096703D01*
X64446460Y-115107832D01*
X64630686Y-115117772D01*
X64754336Y-115125276D01*
X64815349Y-115127826D01*
X64979322Y-115122671D01*
X65114169Y-115103579D01*
X65152991Y-115095320D01*
X65289520Y-115073001D01*
X65469505Y-115049074D01*
X65664503Y-115027472D01*
X65698212Y-115024053D01*
X65873385Y-115001887D01*
X66025387Y-114971072D01*
X66178936Y-114924289D01*
X66358747Y-114854219D01*
X66589538Y-114753542D01*
X66619177Y-114740252D01*
X66857289Y-114630920D01*
X67029436Y-114544572D01*
X67146964Y-114473354D01*
X67221222Y-114409412D01*
X67263556Y-114344890D01*
X67285314Y-114271934D01*
X67296893Y-114178158D01*
X67278978Y-114061226D01*
X67208595Y-113966845D01*
X67075341Y-113883193D01*
X66868815Y-113798442D01*
X66742136Y-113753191D01*
X66541856Y-113685956D01*
X66359553Y-113633349D01*
X66180565Y-113593292D01*
X65990228Y-113563710D01*
X65773878Y-113542526D01*
X65516851Y-113527664D01*
X65204485Y-113517046D01*
X64822116Y-113508597D01*
X64426991Y-113503112D01*
X64008096Y-113503956D01*
X63645128Y-113514092D01*
X63322455Y-113534570D01*
X63024445Y-113566440D01*
X62735468Y-113610751D01*
X62439891Y-113668552D01*
X62409795Y-113675055D01*
X62082510Y-113758964D01*
X61835388Y-113849672D01*
X61669526Y-113946552D01*
X61586025Y-114048976D01*
X61585982Y-114156317D01*
X59804449Y-114156317D01*
X59834808Y-114076600D01*
X59916691Y-113836763D01*
X59928725Y-113797206D01*
X59945058Y-113736774D01*
X59958624Y-113671337D01*
X59969589Y-113593655D01*
X59978121Y-113496486D01*
X59984388Y-113372587D01*
X59988557Y-113214719D01*
X59990796Y-113015638D01*
X59991273Y-112768103D01*
X59990155Y-112464873D01*
X59987610Y-112098706D01*
X59983805Y-111662361D01*
X59978908Y-111148596D01*
X59975618Y-110827115D01*
X59970624Y-110393165D01*
X59965320Y-109986945D01*
X59959846Y-109616589D01*
X59954343Y-109290230D01*
X59948949Y-109016001D01*
X59943806Y-108802035D01*
X59939053Y-108656467D01*
X59934830Y-108587430D01*
X59934185Y-108582495D01*
X59926382Y-108487610D01*
X59917233Y-108325382D01*
X59907468Y-108111606D01*
X59897812Y-107862078D01*
X59888996Y-107592596D01*
X59881299Y-107340045D01*
X59871287Y-107025476D01*
X59861161Y-106720190D01*
X59851759Y-106449302D01*
X59843915Y-106237930D01*
X59843247Y-106220860D01*
X59833711Y-105973727D01*
X59822570Y-105680164D01*
X59811155Y-105375466D01*
X59800797Y-105094930D01*
X59798537Y-105034005D01*
X59788338Y-104775779D01*
X59777509Y-104523661D01*
X59767211Y-104303821D01*
X59758603Y-104142430D01*
X59756001Y-104098820D01*
X59743527Y-103888381D01*
X59729395Y-103648416D01*
X59716188Y-103422763D01*
X59711758Y-103348621D01*
X59698338Y-103140429D01*
X59684771Y-102949282D01*
X59673409Y-102808930D01*
X59670575Y-102777893D01*
X59658478Y-102645221D01*
X59649147Y-102542813D01*
X59921310Y-102542813D01*
X59926562Y-102618430D01*
X59935990Y-102719990D01*
X59953448Y-102949129D01*
X59972726Y-103245374D01*
X59993203Y-103597817D01*
X60014258Y-103995551D01*
X60035269Y-104427668D01*
X60055614Y-104883263D01*
X60064587Y-105092723D01*
X60076558Y-105370730D01*
X60088112Y-105637729D01*
X60097661Y-105856930D01*
X60099475Y-105899768D01*
X60106832Y-106092007D01*
X60115619Y-106343280D01*
X60125180Y-106633849D01*
X60134861Y-106943978D01*
X60144008Y-107253930D01*
X60148327Y-107399870D01*
X60157291Y-107674349D01*
X60166344Y-107918530D01*
X60174928Y-108118827D01*
X60182483Y-108261655D01*
X60188450Y-108333430D01*
X60189592Y-108345091D01*
X60193474Y-108433381D01*
X60197935Y-108595169D01*
X60202830Y-108822085D01*
X60208011Y-109105757D01*
X60213333Y-109437815D01*
X60218651Y-109809888D01*
X60223817Y-110213605D01*
X60228687Y-110640596D01*
X60230384Y-110796158D01*
X60235220Y-111212409D01*
X60240150Y-111600430D01*
X60245045Y-111952160D01*
X60249777Y-112259535D01*
X60254216Y-112514495D01*
X60258235Y-112708977D01*
X60261704Y-112834921D01*
X60264495Y-112884263D01*
X60266026Y-112886928D01*
X60286195Y-112857793D01*
X60321515Y-112766722D01*
X60365410Y-112630263D01*
X60430057Y-112355440D01*
X60481384Y-112009070D01*
X60515341Y-111619014D01*
X60530186Y-111205502D01*
X60524173Y-110788763D01*
X60519072Y-110654808D01*
X60510714Y-110402897D01*
X60501673Y-110099369D01*
X60492501Y-109763742D01*
X60483744Y-109415534D01*
X60475953Y-109074263D01*
X60469098Y-108776055D01*
X60461594Y-108487868D01*
X60454091Y-108234016D01*
X60446990Y-108027078D01*
X60440689Y-107879634D01*
X60435589Y-107804263D01*
X60429410Y-107741529D01*
X60418531Y-107600076D01*
X60406288Y-107415484D01*
X60394343Y-107211596D01*
X60386789Y-107076247D01*
X60373614Y-106850244D01*
X60361019Y-106644807D01*
X60350932Y-106491930D01*
X60345218Y-106405951D01*
X60333804Y-106216956D01*
X60321365Y-105995058D01*
X60309735Y-105772263D01*
X60271817Y-105105401D01*
X60226360Y-104483099D01*
X60174907Y-103932823D01*
X60117789Y-103457701D01*
X60055340Y-103060860D01*
X59987892Y-102745430D01*
X59953000Y-102613410D01*
X59929573Y-102540002D01*
X59921310Y-102542813D01*
X59649147Y-102542813D01*
X59640683Y-102449913D01*
X59618616Y-102207628D01*
X59593704Y-101934025D01*
X59567372Y-101644763D01*
X59549655Y-101451863D01*
X59508305Y-101012088D01*
X59462245Y-100534023D01*
X59412623Y-100028811D01*
X59360588Y-99507597D01*
X59307291Y-98981525D01*
X59253881Y-98461740D01*
X59201507Y-97959384D01*
X59151318Y-97485602D01*
X59104464Y-97051538D01*
X59062094Y-96668337D01*
X59025357Y-96347141D01*
X58995403Y-96099096D01*
X58985859Y-96023816D01*
X58919805Y-95521971D01*
X58842125Y-94959508D01*
X58754459Y-94346749D01*
X58658449Y-93694017D01*
X58555738Y-93011635D01*
X58447966Y-92309925D01*
X58336775Y-91599212D01*
X58223807Y-90889817D01*
X58110703Y-90192063D01*
X57999104Y-89516274D01*
X57890653Y-88872772D01*
X57786990Y-88271881D01*
X57689757Y-87723922D01*
X57600596Y-87239220D01*
X57521149Y-86828096D01*
X57503320Y-86738539D01*
X57443424Y-86434241D01*
X57385753Y-86136468D01*
X57333957Y-85864332D01*
X57291684Y-85636948D01*
X57262582Y-85473430D01*
X57262495Y-85472918D01*
X57232328Y-85302021D01*
X57189708Y-85069297D01*
X57138589Y-84795893D01*
X57082925Y-84502960D01*
X57026669Y-84211645D01*
X57019720Y-84175781D01*
X56968871Y-83900666D01*
X56924786Y-83640484D01*
X56910088Y-83543844D01*
X57155584Y-83543844D01*
X57166863Y-83579305D01*
X57172377Y-83598951D01*
X57193556Y-83694506D01*
X57226089Y-83854227D01*
X57267450Y-84065326D01*
X57315114Y-84315013D01*
X57366555Y-84590499D01*
X57418082Y-84867318D01*
X57485451Y-85225428D01*
X57560838Y-85623133D01*
X57639950Y-86037862D01*
X57718494Y-86447041D01*
X57792175Y-86828096D01*
X57851148Y-87136605D01*
X57932522Y-87574809D01*
X58016238Y-88037602D01*
X58097502Y-88498091D01*
X58171522Y-88929387D01*
X58233507Y-89304596D01*
X58270571Y-89534942D01*
X58333872Y-89927588D01*
X58399682Y-90335024D01*
X58464025Y-90732652D01*
X58522922Y-91095875D01*
X58572395Y-91400096D01*
X58580233Y-91448267D01*
X58661052Y-91953096D01*
X58744713Y-92489235D01*
X58829365Y-93043922D01*
X58913156Y-93604398D01*
X58994235Y-94157903D01*
X59070751Y-94691677D01*
X59140852Y-95192960D01*
X59202687Y-95648992D01*
X59254403Y-96047013D01*
X59294150Y-96374263D01*
X59301722Y-96439755D01*
X59327119Y-96656336D01*
X59349549Y-96843164D01*
X59366815Y-96982116D01*
X59376717Y-97055068D01*
X59376787Y-97055508D01*
X59383870Y-97116174D01*
X59398293Y-97252300D01*
X59419188Y-97455280D01*
X59445685Y-97716506D01*
X59476917Y-98027372D01*
X59512014Y-98379269D01*
X59550108Y-98763593D01*
X59590330Y-99171734D01*
X59789677Y-101200263D01*
X60143444Y-101983430D01*
X60173532Y-102050248D01*
X60307461Y-102356195D01*
X60414337Y-102622178D01*
X60498545Y-102865992D01*
X60564474Y-103105428D01*
X60616508Y-103358280D01*
X60659036Y-103642342D01*
X60696443Y-103975405D01*
X60733116Y-104375263D01*
X60746916Y-104532719D01*
X60762843Y-104708483D01*
X60775405Y-104840930D01*
X60786988Y-104968795D01*
X60801445Y-105144082D01*
X60815546Y-105327763D01*
X60825141Y-105450877D01*
X60841091Y-105646183D01*
X60861985Y-105896612D01*
X60886579Y-106187360D01*
X60913628Y-106503622D01*
X60941889Y-106830596D01*
X60945843Y-106876151D01*
X60977768Y-107249138D01*
X61004057Y-107570159D01*
X61025968Y-107858726D01*
X61044759Y-108134348D01*
X61061688Y-108416535D01*
X61078015Y-108724799D01*
X61094996Y-109078649D01*
X61113891Y-109497596D01*
X61132345Y-109895290D01*
X61150923Y-110254833D01*
X61168327Y-110549050D01*
X61184175Y-110771506D01*
X61198085Y-110915763D01*
X61200426Y-110935577D01*
X61213254Y-111063295D01*
X61225749Y-111205502D01*
X61228476Y-111236550D01*
X61243283Y-111423763D01*
X61250339Y-111506105D01*
X61286139Y-111733729D01*
X61348196Y-111904355D01*
X61446174Y-112038417D01*
X61589735Y-112156345D01*
X61664593Y-112205888D01*
X61762736Y-112260810D01*
X61868160Y-112303042D01*
X61996298Y-112336353D01*
X62162582Y-112364511D01*
X62382445Y-112391285D01*
X62671318Y-112420443D01*
X62827242Y-112435635D01*
X63043431Y-112457390D01*
X63220638Y-112476060D01*
X63343758Y-112490038D01*
X63397685Y-112497719D01*
X63391249Y-112505007D01*
X63322821Y-112534202D01*
X63193941Y-112581079D01*
X63017158Y-112641145D01*
X62805019Y-112709908D01*
X62563441Y-112786885D01*
X62311883Y-112868618D01*
X62120218Y-112934082D01*
X61976566Y-112988181D01*
X61869045Y-113035819D01*
X61785775Y-113081903D01*
X61714874Y-113131337D01*
X61644463Y-113189025D01*
X61551136Y-113275537D01*
X61489872Y-113347788D01*
X61479304Y-113382980D01*
X61521367Y-113372449D01*
X61617996Y-113307528D01*
X61669751Y-113273294D01*
X61840161Y-113192656D01*
X62060359Y-113117205D01*
X62306067Y-113054602D01*
X62553003Y-113012509D01*
X62633478Y-113005821D01*
X62794439Y-112997145D01*
X63014175Y-112988040D01*
X63278732Y-112979022D01*
X63574159Y-112970604D01*
X63886503Y-112963303D01*
X63957192Y-112961901D01*
X64512192Y-112956665D01*
X64995481Y-112964029D01*
X65417947Y-112985002D01*
X65790478Y-113020591D01*
X66123965Y-113071802D01*
X66429296Y-113139643D01*
X66717360Y-113225120D01*
X66865460Y-113276407D01*
X67053533Y-113346531D01*
X67207850Y-113409668D01*
X67304919Y-113456564D01*
X67372364Y-113492906D01*
X67430756Y-113509347D01*
X67428290Y-113477951D01*
X67366681Y-113403666D01*
X67247646Y-113291439D01*
X67154127Y-113217175D01*
X66991477Y-113117540D01*
X66790720Y-113026646D01*
X66542596Y-112941440D01*
X66237842Y-112858867D01*
X65867197Y-112775876D01*
X65421398Y-112689412D01*
X65399359Y-112685360D01*
X65206766Y-112648981D01*
X65051303Y-112617930D01*
X64948379Y-112595387D01*
X64913398Y-112584533D01*
X64915615Y-112583160D01*
X64975979Y-112570891D01*
X65104156Y-112555209D01*
X65285506Y-112537558D01*
X65505390Y-112519383D01*
X65749169Y-112502125D01*
X65848237Y-112495544D01*
X66197730Y-112469234D01*
X66475952Y-112441961D01*
X66693627Y-112412021D01*
X66861480Y-112377711D01*
X66990236Y-112337331D01*
X67090618Y-112289176D01*
X67249380Y-112176122D01*
X67379964Y-112028692D01*
X67486433Y-111833433D01*
X67581388Y-111571930D01*
X67614858Y-111459879D01*
X67647206Y-111336475D01*
X67674393Y-111207878D01*
X67697398Y-111064159D01*
X67717197Y-110895389D01*
X67718162Y-110884200D01*
X68256217Y-110884200D01*
X68257605Y-111194853D01*
X68262414Y-111461970D01*
X68270832Y-111671872D01*
X68283051Y-111810880D01*
X68317120Y-112000046D01*
X68363168Y-112191268D01*
X68410725Y-112340046D01*
X68492042Y-112545596D01*
X68495420Y-111677763D01*
X68497149Y-111421102D01*
X68501162Y-111081566D01*
X68506806Y-110741834D01*
X68513598Y-110430192D01*
X68521054Y-110174930D01*
X68532421Y-109851581D01*
X68547179Y-109435899D01*
X68559685Y-109090186D01*
X68570281Y-108805683D01*
X68579313Y-108573632D01*
X68587124Y-108385273D01*
X68594057Y-108231848D01*
X68600458Y-108104598D01*
X68606669Y-107994763D01*
X68628585Y-107623185D01*
X68648321Y-107272332D01*
X68664841Y-106956033D01*
X68679503Y-106648163D01*
X68693668Y-106322596D01*
X68696995Y-106246545D01*
X68714676Y-105903903D01*
X68739853Y-105489248D01*
X68772728Y-104999520D01*
X68813505Y-104431656D01*
X68862388Y-103782596D01*
X68875409Y-103624573D01*
X68890873Y-103458206D01*
X68903959Y-103338096D01*
X68912869Y-103254221D01*
X68906994Y-103235292D01*
X68881809Y-103287076D01*
X68869133Y-103329625D01*
X68849117Y-103427880D01*
X68823450Y-103581580D01*
X68791446Y-103795502D01*
X68752422Y-104074422D01*
X68705692Y-104423116D01*
X68650573Y-104846359D01*
X68586380Y-105348930D01*
X68585413Y-105356609D01*
X68570871Y-105484588D01*
X68554639Y-105651016D01*
X68536204Y-105862472D01*
X68515053Y-106125534D01*
X68490671Y-106446782D01*
X68462544Y-106832794D01*
X68430160Y-107290151D01*
X68393004Y-107825430D01*
X68387332Y-107904811D01*
X68369435Y-108136284D01*
X68348240Y-108392039D01*
X68327208Y-108629763D01*
X68326311Y-108639589D01*
X68309075Y-108872001D01*
X68293930Y-109156626D01*
X68281066Y-109479786D01*
X68270673Y-109827802D01*
X68262940Y-110186995D01*
X68258058Y-110543687D01*
X68256217Y-110884200D01*
X67718162Y-110884200D01*
X67734770Y-110691639D01*
X67751093Y-110442981D01*
X67767144Y-110139485D01*
X67783902Y-109771222D01*
X67802344Y-109328263D01*
X67828537Y-108765306D01*
X67864920Y-108177683D01*
X67911607Y-107596014D01*
X67971590Y-106978763D01*
X67988265Y-106817861D01*
X68019621Y-106507013D01*
X68044361Y-106245606D01*
X68064591Y-106009663D01*
X68082420Y-105775208D01*
X68099954Y-105518263D01*
X68110722Y-105358575D01*
X68151685Y-104828925D01*
X68199828Y-104328997D01*
X68257434Y-103844982D01*
X68326787Y-103363072D01*
X68410172Y-102869456D01*
X68509872Y-102350327D01*
X68628172Y-101791874D01*
X68767356Y-101180289D01*
X68929707Y-100501763D01*
X68974447Y-100314993D01*
X69060054Y-99928712D01*
X69126116Y-99577029D01*
X69178242Y-99228271D01*
X69222040Y-98850763D01*
X69244618Y-98632201D01*
X69274889Y-98341568D01*
X69299760Y-98107724D01*
X69321156Y-97913796D01*
X69341005Y-97742909D01*
X69361233Y-97578191D01*
X69383765Y-97402767D01*
X69410529Y-97199763D01*
X69420781Y-97121342D01*
X69454531Y-96851066D01*
X69488531Y-96564121D01*
X69516776Y-96310763D01*
X69526424Y-96223930D01*
X69554397Y-95992520D01*
X69589826Y-95717643D01*
X69629149Y-95426576D01*
X69668803Y-95146596D01*
X69706118Y-94889360D01*
X69772087Y-94428174D01*
X69829562Y-94015780D01*
X69881697Y-93628985D01*
X69931647Y-93244599D01*
X69982565Y-92839430D01*
X70014006Y-92586892D01*
X70064476Y-92189280D01*
X70109041Y-91852290D01*
X70150049Y-91560808D01*
X70189850Y-91299722D01*
X70230793Y-91053920D01*
X70275226Y-90808290D01*
X70325499Y-90547720D01*
X70383960Y-90257096D01*
X70417013Y-90096641D01*
X70489026Y-89754413D01*
X70571701Y-89368800D01*
X70659570Y-88965029D01*
X70747165Y-88568330D01*
X70829015Y-88203930D01*
X70854922Y-88089417D01*
X70953152Y-87648281D01*
X71051331Y-87197174D01*
X71147946Y-86743820D01*
X71241484Y-86295937D01*
X71330430Y-85861249D01*
X71413272Y-85447475D01*
X71488497Y-85062338D01*
X71554589Y-84713558D01*
X71610038Y-84408857D01*
X71653328Y-84155955D01*
X71682946Y-83962575D01*
X71697379Y-83836437D01*
X71695114Y-83785263D01*
X71690511Y-83782968D01*
X71631638Y-83792862D01*
X71535543Y-83831316D01*
X71530474Y-83833693D01*
X71407011Y-83881052D01*
X71224413Y-83939248D01*
X71005063Y-84002125D01*
X70771340Y-84063528D01*
X70545628Y-84117301D01*
X70350307Y-84157288D01*
X70295931Y-84166148D01*
X70133351Y-84188395D01*
X69918625Y-84214267D01*
X69673311Y-84241231D01*
X69418974Y-84266751D01*
X69278351Y-84280229D01*
X69042829Y-84303215D01*
X68836630Y-84323840D01*
X68678080Y-84340260D01*
X68585503Y-84350631D01*
X68527349Y-84357454D01*
X68332494Y-84375043D01*
X68089156Y-84390194D01*
X67792813Y-84403007D01*
X67438946Y-84413578D01*
X67023033Y-84422007D01*
X66540553Y-84428391D01*
X65986985Y-84432830D01*
X65357809Y-84435421D01*
X64648503Y-84436263D01*
X64445667Y-84436228D01*
X63889479Y-84435646D01*
X63407494Y-84434203D01*
X62991864Y-84431709D01*
X62634739Y-84427976D01*
X62328270Y-84422815D01*
X62064607Y-84416038D01*
X61835902Y-84407456D01*
X61634305Y-84396879D01*
X61451967Y-84384121D01*
X61281038Y-84368991D01*
X61113669Y-84351301D01*
X61084816Y-84348048D01*
X60919159Y-84329609D01*
X60753836Y-84311496D01*
X60175538Y-84245672D01*
X59580034Y-84169346D01*
X59060290Y-84092095D01*
X58611525Y-84012980D01*
X58228960Y-83931063D01*
X57907816Y-83845405D01*
X57643312Y-83755068D01*
X57430669Y-83659114D01*
X57308944Y-83595377D01*
X57212674Y-83547660D01*
X57166204Y-83531889D01*
X57155584Y-83543844D01*
X56910088Y-83543844D01*
X56890070Y-83412227D01*
X56867329Y-83232888D01*
X56859169Y-83119459D01*
X56859173Y-83116250D01*
X56868599Y-83019420D01*
X57113169Y-83019420D01*
X57117942Y-83044157D01*
X57174724Y-83133032D01*
X57281109Y-83239191D01*
X57418782Y-83345897D01*
X57569430Y-83436413D01*
X57634652Y-83467300D01*
X57890482Y-83561823D01*
X58225758Y-83654672D01*
X58636541Y-83745174D01*
X59118891Y-83832656D01*
X59668869Y-83916447D01*
X60282534Y-83995873D01*
X60955948Y-84070263D01*
X61685169Y-84138943D01*
X61689918Y-84139354D01*
X61897145Y-84154583D01*
X62137667Y-84167102D01*
X62418822Y-84177041D01*
X62747945Y-84184532D01*
X63132372Y-84189705D01*
X63579439Y-84192692D01*
X64096482Y-84193624D01*
X64690836Y-84192631D01*
X64898064Y-84191964D01*
X65334728Y-84190273D01*
X65749349Y-84188292D01*
X66132979Y-84186084D01*
X66476674Y-84183716D01*
X66771486Y-84181251D01*
X67008470Y-84178755D01*
X67178680Y-84176293D01*
X67273169Y-84173928D01*
X67349306Y-84170213D01*
X67574703Y-84156363D01*
X67858319Y-84136215D01*
X68182087Y-84111266D01*
X68527938Y-84083014D01*
X68877807Y-84052956D01*
X69213624Y-84022590D01*
X69517323Y-83993413D01*
X69770836Y-83966921D01*
X69795587Y-83964137D01*
X70183302Y-83909806D01*
X70556617Y-83838490D01*
X70905531Y-83753543D01*
X71220040Y-83658317D01*
X71490142Y-83556166D01*
X71705835Y-83450443D01*
X71857116Y-83344503D01*
X71933981Y-83241699D01*
X71944131Y-83156643D01*
X71889209Y-83032883D01*
X71755469Y-82909551D01*
X71546291Y-82789507D01*
X71265052Y-82675608D01*
X71237432Y-82666282D01*
X71048576Y-82610580D01*
X70808898Y-82549099D01*
X70544815Y-82487751D01*
X70282744Y-82432443D01*
X70049100Y-82389086D01*
X69870302Y-82363590D01*
X69518453Y-82328930D01*
X69089564Y-82290219D01*
X68692241Y-82258193D01*
X68352669Y-82235070D01*
X68249700Y-82228766D01*
X68049906Y-82215557D01*
X67877079Y-82202944D01*
X67760003Y-82192969D01*
X67737788Y-82190953D01*
X67613293Y-82182198D01*
X67431066Y-82171588D01*
X67211962Y-82160285D01*
X66976836Y-82149445D01*
X66932343Y-82147511D01*
X66680492Y-82136266D01*
X66434842Y-82124861D01*
X66221525Y-82114530D01*
X66066669Y-82106505D01*
X66053443Y-82105845D01*
X65937612Y-82101972D01*
X65748371Y-82097396D01*
X65495139Y-82092280D01*
X65187332Y-82086785D01*
X64834367Y-82081072D01*
X64445663Y-82075302D01*
X64030636Y-82069637D01*
X63598703Y-82064237D01*
X63193057Y-82060017D01*
X62504597Y-82056271D01*
X61893189Y-82057898D01*
X61353992Y-82065008D01*
X60882165Y-82077712D01*
X60472868Y-82096120D01*
X60121261Y-82120344D01*
X59822503Y-82150493D01*
X59448932Y-82197996D01*
X58882682Y-82280829D01*
X58398566Y-82366780D01*
X57997207Y-82455719D01*
X57679229Y-82547519D01*
X57445254Y-82642050D01*
X57374182Y-82683063D01*
X57242400Y-82790921D01*
X57148783Y-82910554D01*
X57113169Y-83019420D01*
X56868599Y-83019420D01*
X56880115Y-82901131D01*
X56947056Y-82722480D01*
X57067728Y-82573217D01*
X57249864Y-82446261D01*
X57501195Y-82334532D01*
X57829455Y-82230948D01*
X58169324Y-82146442D01*
X58660862Y-82047980D01*
X59198996Y-81962685D01*
X59762589Y-81893821D01*
X60330503Y-81844653D01*
X60356258Y-81842998D01*
X60560899Y-81833733D01*
X60835037Y-81826238D01*
X61169604Y-81820448D01*
X61555533Y-81816299D01*
X61983754Y-81813725D01*
X62445200Y-81812663D01*
X62930801Y-81813047D01*
X63431490Y-81814813D01*
X63938199Y-81817896D01*
X64441858Y-81822231D01*
X64933401Y-81827753D01*
X65403757Y-81834398D01*
X65843859Y-81842101D01*
X66244639Y-81850797D01*
X66597029Y-81860422D01*
X66891959Y-81870910D01*
X67120362Y-81882197D01*
X67273169Y-81894218D01*
X67330849Y-81899744D01*
X67475804Y-81911327D01*
X67662836Y-81924619D01*
X67865836Y-81937703D01*
X67904273Y-81940070D01*
X68234748Y-81961955D01*
X68621582Y-81990120D01*
X69074073Y-82025263D01*
X69601517Y-82068083D01*
X69683056Y-82075282D01*
X70096489Y-82125747D01*
X70499088Y-82196801D01*
X70880313Y-82285074D01*
X71229624Y-82387192D01*
X71536481Y-82499781D01*
X71790345Y-82619470D01*
X71980675Y-82742885D01*
X72096933Y-82866653D01*
X72165940Y-82992649D01*
X72200832Y-83107644D01*
X72200270Y-83156643D01*
X72199417Y-83231125D01*
G36*
X72199417Y-83231125D02*
G01*
X72161365Y-83385602D01*
X72086351Y-83593583D01*
X72060781Y-83662126D01*
X72003062Y-83836437D01*
X71993909Y-83864079D01*
X71941018Y-84055776D01*
X71911779Y-84203430D01*
X71900694Y-84279054D01*
X71871048Y-84451911D01*
X71827395Y-84689078D01*
X71771936Y-84979585D01*
X71706877Y-85312463D01*
X71634419Y-85676743D01*
X71556768Y-86061456D01*
X71476125Y-86455632D01*
X71394694Y-86848304D01*
X71314680Y-87228501D01*
X71238284Y-87585255D01*
X71167711Y-87907596D01*
X71132211Y-88067566D01*
X71005202Y-88641312D01*
X70894869Y-89142967D01*
X70799601Y-89580873D01*
X70717783Y-89963374D01*
X70647803Y-90298811D01*
X70588048Y-90595527D01*
X70536906Y-90861864D01*
X70492763Y-91106165D01*
X70454006Y-91336771D01*
X70419022Y-91562024D01*
X70386200Y-91790268D01*
X70353924Y-92029845D01*
X70320584Y-92289096D01*
X70280667Y-92600035D01*
X70230457Y-92983524D01*
X70174525Y-93404751D01*
X70116013Y-93840207D01*
X70058063Y-94266381D01*
X70003815Y-94659763D01*
X69932732Y-95179928D01*
X69852682Y-95787242D01*
X69774975Y-96398750D01*
X69700714Y-97004678D01*
X69631004Y-97595252D01*
X69566949Y-98160699D01*
X69509653Y-98691244D01*
X69460221Y-99177114D01*
X69419756Y-99608534D01*
X69389363Y-99975730D01*
X69370146Y-100268930D01*
X69356025Y-100530639D01*
X69331125Y-100957581D01*
X69306673Y-101334767D01*
X69283766Y-101644763D01*
X69279362Y-101702240D01*
X69267210Y-101877194D01*
X69253728Y-102087993D01*
X69241106Y-102300930D01*
X69235729Y-102393748D01*
X69222365Y-102609898D01*
X69209043Y-102808917D01*
X69197979Y-102957096D01*
X69173587Y-103254221D01*
X69162223Y-103392662D01*
X69121453Y-103896593D01*
X69086731Y-104336845D01*
X69057247Y-104725125D01*
X69032192Y-105073139D01*
X69010759Y-105392592D01*
X68992139Y-105695192D01*
X68975523Y-105992644D01*
X68960103Y-106296654D01*
X68945070Y-106618930D01*
X68936637Y-106798166D01*
X68924673Y-107033179D01*
X68912975Y-107244667D01*
X68903179Y-107402096D01*
X68901627Y-107425338D01*
X68892295Y-107585427D01*
X68881283Y-107799885D01*
X68869836Y-108043510D01*
X68859201Y-108291096D01*
X68856047Y-108366569D01*
X68845633Y-108592421D01*
X68835075Y-108791437D01*
X68825448Y-108944359D01*
X68817828Y-109031930D01*
X68817080Y-109039162D01*
X68812674Y-109124212D01*
X68807515Y-109281949D01*
X68801825Y-109502344D01*
X68795829Y-109775368D01*
X68789748Y-110090992D01*
X68783807Y-110439189D01*
X68778229Y-110809930D01*
X68775065Y-111041109D01*
X68770411Y-111429729D01*
X68767927Y-111749407D01*
X68767888Y-112010496D01*
X68770569Y-112223354D01*
X68776243Y-112398334D01*
X68785186Y-112545793D01*
X68797673Y-112676086D01*
X68813979Y-112799569D01*
X68834377Y-112926596D01*
X68972662Y-113556605D01*
X69171525Y-114151166D01*
X69184233Y-114178158D01*
X69432080Y-114704596D01*
X69523748Y-114874056D01*
X69563944Y-114948366D01*
X69796141Y-115388864D01*
X69992930Y-115778322D01*
X70152376Y-116112614D01*
X70272547Y-116387613D01*
X70351510Y-116599193D01*
X70387330Y-116743230D01*
X70391149Y-116777135D01*
X70384326Y-117124142D01*
X70298891Y-117465653D01*
X70297029Y-117473098D01*
X70132347Y-117815251D01*
X69893374Y-118141847D01*
X69806451Y-118237612D01*
X69696332Y-118341258D01*
X69572815Y-118431727D01*
X69414338Y-118524321D01*
X69199336Y-118634340D01*
X68976984Y-118738369D01*
X68619438Y-118887859D01*
X68602840Y-118894799D01*
X68197617Y-119046364D01*
X67787546Y-119183924D01*
X67398856Y-119298342D01*
X67057778Y-119380477D01*
X66880053Y-119413496D01*
X66612519Y-119456176D01*
X66328788Y-119495464D01*
X66066669Y-119525813D01*
X66010079Y-119531205D01*
X65701230Y-119553254D01*
X65333640Y-119570064D01*
X64927760Y-119581463D01*
X64504044Y-119587277D01*
X64082941Y-119587337D01*
X63684904Y-119581469D01*
X63330386Y-119569501D01*
X63039836Y-119551262D01*
X62562229Y-119500439D01*
X61866725Y-119388351D01*
X61210407Y-119236230D01*
X60603408Y-119046953D01*
X60055859Y-118823396D01*
X59577895Y-118568436D01*
X59362617Y-118425754D01*
X59311606Y-118382954D01*
X59824716Y-118382954D01*
X59835496Y-118401780D01*
X59905949Y-118451664D01*
X60037467Y-118526085D01*
X60285963Y-118639280D01*
X60590570Y-118755738D01*
X60934956Y-118870450D01*
X61302791Y-118978407D01*
X61677743Y-119074599D01*
X62043479Y-119154017D01*
X62383669Y-119211652D01*
X62412348Y-119215675D01*
X62590295Y-119240993D01*
X62746275Y-119263721D01*
X62849336Y-119279360D01*
X62854494Y-119280079D01*
X62939099Y-119286083D01*
X63094628Y-119292682D01*
X63308923Y-119299525D01*
X63569827Y-119306258D01*
X63865184Y-119312529D01*
X64182836Y-119317987D01*
X64315239Y-119319782D01*
X64857895Y-119321532D01*
X65334365Y-119312389D01*
X65759279Y-119291432D01*
X66147270Y-119257737D01*
X66512967Y-119210382D01*
X66871003Y-119148445D01*
X66987687Y-119124487D01*
X67178688Y-119080789D01*
X67370178Y-119032639D01*
X67545541Y-118984653D01*
X67688161Y-118941449D01*
X67781423Y-118907645D01*
X67808710Y-118887859D01*
X67793012Y-118886527D01*
X67710692Y-118897189D01*
X67575292Y-118922059D01*
X67405846Y-118957832D01*
X67351431Y-118969505D01*
X67009465Y-119028041D01*
X66596452Y-119077943D01*
X66123594Y-119118387D01*
X65602097Y-119148547D01*
X65043165Y-119167600D01*
X64458003Y-119174721D01*
X63974143Y-119170874D01*
X63333363Y-119147573D01*
X62742103Y-119100306D01*
X62180793Y-119025736D01*
X61629864Y-118920525D01*
X61069747Y-118781336D01*
X60480872Y-118604829D01*
X59843669Y-118387668D01*
X59824716Y-118382954D01*
X59311606Y-118382954D01*
X59134884Y-118234678D01*
X58956616Y-118023993D01*
X58808510Y-117773763D01*
X58727360Y-117603357D01*
X58622301Y-117319534D01*
X58578657Y-117067210D01*
X58590750Y-116905930D01*
X59696946Y-116905930D01*
X59697617Y-116963858D01*
X59705436Y-117136929D01*
X59720366Y-117336917D01*
X59740335Y-117545253D01*
X59763270Y-117743366D01*
X59787100Y-117912688D01*
X59809753Y-118034649D01*
X59829155Y-118090681D01*
X59851311Y-118102972D01*
X59943920Y-118139862D01*
X60092247Y-118192695D01*
X60280377Y-118256306D01*
X60492390Y-118325530D01*
X60712371Y-118395202D01*
X60924400Y-118460157D01*
X61112562Y-118515231D01*
X61260938Y-118555259D01*
X61336972Y-118573908D01*
X61756367Y-118666753D01*
X62205999Y-118752080D01*
X62649062Y-118823328D01*
X63048751Y-118873936D01*
X63233716Y-118888025D01*
X63504929Y-118899512D01*
X63830461Y-118906782D01*
X64194421Y-118909954D01*
X64580920Y-118909147D01*
X64974068Y-118904481D01*
X65357976Y-118896074D01*
X65716755Y-118884046D01*
X66034515Y-118868516D01*
X66295366Y-118849602D01*
X66708633Y-118802799D01*
X67224159Y-118720185D01*
X67728606Y-118614248D01*
X68203625Y-118489405D01*
X68630865Y-118350071D01*
X68991978Y-118200661D01*
X68994208Y-118199601D01*
X69157270Y-118120246D01*
X69260671Y-118060589D01*
X69321476Y-118005113D01*
X69356751Y-117938303D01*
X69383561Y-117844645D01*
X69400911Y-117767143D01*
X69431826Y-117465653D01*
X69411900Y-117125203D01*
X69340180Y-116736961D01*
X69215709Y-116292096D01*
X69142131Y-116068068D01*
X69058736Y-115840558D01*
X68989316Y-115687557D01*
X68931657Y-115604360D01*
X68883545Y-115586266D01*
X68746210Y-115625970D01*
X68086282Y-115803311D01*
X67469218Y-115946446D01*
X66905431Y-116053125D01*
X66405336Y-116121102D01*
X66262808Y-116135775D01*
X66048537Y-116157803D01*
X65860625Y-116177088D01*
X65728003Y-116190659D01*
X65664320Y-116197591D01*
X65509645Y-116217307D01*
X65389336Y-116236286D01*
X65323345Y-116243922D01*
X65171623Y-116252619D01*
X64958691Y-116259698D01*
X64697893Y-116265122D01*
X64402572Y-116268853D01*
X64086071Y-116270854D01*
X63761734Y-116271088D01*
X63442902Y-116269517D01*
X63142921Y-116266103D01*
X62875131Y-116260810D01*
X62652878Y-116253598D01*
X62489503Y-116244432D01*
X62023389Y-116192684D01*
X61493841Y-116104710D01*
X60965124Y-115989903D01*
X60475690Y-115855686D01*
X60308610Y-115804076D01*
X60140543Y-115752403D01*
X60015506Y-115714235D01*
X59952416Y-115695366D01*
X59933205Y-115700067D01*
X59890355Y-115764962D01*
X59845130Y-115891277D01*
X59800774Y-116063634D01*
X59760533Y-116266655D01*
X59727651Y-116484963D01*
X59705373Y-116703180D01*
X59696946Y-116905930D01*
X58590750Y-116905930D01*
X58596533Y-116828806D01*
X58676038Y-116586748D01*
X58817275Y-116323459D01*
X58881042Y-116214009D01*
X59005078Y-115979398D01*
X59145803Y-115692670D01*
X59295648Y-115370950D01*
X59393822Y-115150734D01*
X60330503Y-115150734D01*
X60355360Y-115186791D01*
X60447670Y-115248486D01*
X60593904Y-115323014D01*
X60778933Y-115404190D01*
X60987626Y-115485826D01*
X61204854Y-115561736D01*
X61415489Y-115625735D01*
X61604400Y-115671634D01*
X61782734Y-115704720D01*
X61994218Y-115738833D01*
X62172003Y-115762501D01*
X62290057Y-115775704D01*
X62502838Y-115800329D01*
X62701169Y-115824099D01*
X62741357Y-115828132D01*
X62888025Y-115837083D01*
X63090070Y-115844681D01*
X63329994Y-115850738D01*
X63590296Y-115855067D01*
X63853477Y-115857482D01*
X64102038Y-115857795D01*
X64318479Y-115855818D01*
X64485301Y-115851365D01*
X64585003Y-115844248D01*
X64638139Y-115837782D01*
X64764778Y-115823838D01*
X64937619Y-115805622D01*
X65135336Y-115785414D01*
X65579193Y-115738180D01*
X66068547Y-115677994D01*
X66493745Y-115614741D01*
X66866197Y-115546279D01*
X67197313Y-115470463D01*
X67498500Y-115385149D01*
X67781169Y-115288193D01*
X67904825Y-115239166D01*
X68090792Y-115156142D01*
X68264048Y-115069184D01*
X68408156Y-114987228D01*
X68506676Y-114919207D01*
X68543169Y-114874056D01*
X68517747Y-114875309D01*
X68441124Y-114900935D01*
X68340939Y-114941462D01*
X68245555Y-114985314D01*
X68183336Y-115020915D01*
X68154069Y-115036985D01*
X68057919Y-115076334D01*
X67929336Y-115120746D01*
X67897684Y-115130477D01*
X67814898Y-115152508D01*
X67712630Y-115174417D01*
X67580116Y-115197908D01*
X67406593Y-115224684D01*
X67181298Y-115256446D01*
X66893467Y-115294898D01*
X66532336Y-115341743D01*
X66520247Y-115343082D01*
X66412078Y-115349548D01*
X66238099Y-115355115D01*
X66014083Y-115359460D01*
X65755805Y-115362263D01*
X65479042Y-115363203D01*
X65429077Y-115363257D01*
X65151856Y-115366099D01*
X64893958Y-115372749D01*
X64671716Y-115382520D01*
X64501466Y-115394722D01*
X64399542Y-115408669D01*
X64286683Y-115428268D01*
X64066312Y-115449008D01*
X63787816Y-115461985D01*
X63466479Y-115467467D01*
X63117584Y-115465720D01*
X62756415Y-115457011D01*
X62398256Y-115441608D01*
X62058389Y-115419778D01*
X61752099Y-115391787D01*
X61494669Y-115357903D01*
X61386026Y-115338928D01*
X61172384Y-115295318D01*
X60954269Y-115244323D01*
X60753633Y-115191530D01*
X60592429Y-115142525D01*
X60492607Y-115102894D01*
X60440750Y-115083733D01*
X60362801Y-115092532D01*
X60330503Y-115150734D01*
X59393822Y-115150734D01*
X59447041Y-115031359D01*
X59592413Y-114691022D01*
X59724192Y-114367061D01*
X59804449Y-114156317D01*
X61585982Y-114156317D01*
X61607246Y-114191980D01*
X61709153Y-114284962D01*
X61881553Y-114396277D01*
X62117169Y-114521898D01*
X62408727Y-114657800D01*
X62748952Y-114799957D01*
X63399669Y-115058605D01*
X63971169Y-115084661D01*
X63992324Y-115085628D01*
X64225669Y-115096703D01*
X64446460Y-115107832D01*
X64630686Y-115117772D01*
X64754336Y-115125276D01*
X64815349Y-115127826D01*
X64979322Y-115122671D01*
X65114169Y-115103579D01*
X65152991Y-115095320D01*
X65289520Y-115073001D01*
X65469505Y-115049074D01*
X65664503Y-115027472D01*
X65698212Y-115024053D01*
X65873385Y-115001887D01*
X66025387Y-114971072D01*
X66178936Y-114924289D01*
X66358747Y-114854219D01*
X66589538Y-114753542D01*
X66619177Y-114740252D01*
X66857289Y-114630920D01*
X67029436Y-114544572D01*
X67146964Y-114473354D01*
X67221222Y-114409412D01*
X67263556Y-114344890D01*
X67285314Y-114271934D01*
X67296893Y-114178158D01*
X67278978Y-114061226D01*
X67208595Y-113966845D01*
X67075341Y-113883193D01*
X66868815Y-113798442D01*
X66742136Y-113753191D01*
X66541856Y-113685956D01*
X66359553Y-113633349D01*
X66180565Y-113593292D01*
X65990228Y-113563710D01*
X65773878Y-113542526D01*
X65516851Y-113527664D01*
X65204485Y-113517046D01*
X64822116Y-113508597D01*
X64426991Y-113503112D01*
X64008096Y-113503956D01*
X63645128Y-113514092D01*
X63322455Y-113534570D01*
X63024445Y-113566440D01*
X62735468Y-113610751D01*
X62439891Y-113668552D01*
X62409795Y-113675055D01*
X62082510Y-113758964D01*
X61835388Y-113849672D01*
X61669526Y-113946552D01*
X61586025Y-114048976D01*
X61585982Y-114156317D01*
X59804449Y-114156317D01*
X59834808Y-114076600D01*
X59916691Y-113836763D01*
X59928725Y-113797206D01*
X59945058Y-113736774D01*
X59958624Y-113671337D01*
X59969589Y-113593655D01*
X59978121Y-113496486D01*
X59984388Y-113372587D01*
X59988557Y-113214719D01*
X59990796Y-113015638D01*
X59991273Y-112768103D01*
X59990155Y-112464873D01*
X59987610Y-112098706D01*
X59983805Y-111662361D01*
X59978908Y-111148596D01*
X59975618Y-110827115D01*
X59970624Y-110393165D01*
X59965320Y-109986945D01*
X59959846Y-109616589D01*
X59954343Y-109290230D01*
X59948949Y-109016001D01*
X59943806Y-108802035D01*
X59939053Y-108656467D01*
X59934830Y-108587430D01*
X59934185Y-108582495D01*
X59926382Y-108487610D01*
X59917233Y-108325382D01*
X59907468Y-108111606D01*
X59897812Y-107862078D01*
X59888996Y-107592596D01*
X59881299Y-107340045D01*
X59871287Y-107025476D01*
X59861161Y-106720190D01*
X59851759Y-106449302D01*
X59843915Y-106237930D01*
X59843247Y-106220860D01*
X59833711Y-105973727D01*
X59822570Y-105680164D01*
X59811155Y-105375466D01*
X59800797Y-105094930D01*
X59798537Y-105034005D01*
X59788338Y-104775779D01*
X59777509Y-104523661D01*
X59767211Y-104303821D01*
X59758603Y-104142430D01*
X59756001Y-104098820D01*
X59743527Y-103888381D01*
X59729395Y-103648416D01*
X59716188Y-103422763D01*
X59711758Y-103348621D01*
X59698338Y-103140429D01*
X59684771Y-102949282D01*
X59673409Y-102808930D01*
X59670575Y-102777893D01*
X59658478Y-102645221D01*
X59649147Y-102542813D01*
X59921310Y-102542813D01*
X59926562Y-102618430D01*
X59935990Y-102719990D01*
X59953448Y-102949129D01*
X59972726Y-103245374D01*
X59993203Y-103597817D01*
X60014258Y-103995551D01*
X60035269Y-104427668D01*
X60055614Y-104883263D01*
X60064587Y-105092723D01*
X60076558Y-105370730D01*
X60088112Y-105637729D01*
X60097661Y-105856930D01*
X60099475Y-105899768D01*
X60106832Y-106092007D01*
X60115619Y-106343280D01*
X60125180Y-106633849D01*
X60134861Y-106943978D01*
X60144008Y-107253930D01*
X60148327Y-107399870D01*
X60157291Y-107674349D01*
X60166344Y-107918530D01*
X60174928Y-108118827D01*
X60182483Y-108261655D01*
X60188450Y-108333430D01*
X60189592Y-108345091D01*
X60193474Y-108433381D01*
X60197935Y-108595169D01*
X60202830Y-108822085D01*
X60208011Y-109105757D01*
X60213333Y-109437815D01*
X60218651Y-109809888D01*
X60223817Y-110213605D01*
X60228687Y-110640596D01*
X60230384Y-110796158D01*
X60235220Y-111212409D01*
X60240150Y-111600430D01*
X60245045Y-111952160D01*
X60249777Y-112259535D01*
X60254216Y-112514495D01*
X60258235Y-112708977D01*
X60261704Y-112834921D01*
X60264495Y-112884263D01*
X60266026Y-112886928D01*
X60286195Y-112857793D01*
X60321515Y-112766722D01*
X60365410Y-112630263D01*
X60430057Y-112355440D01*
X60481384Y-112009070D01*
X60515341Y-111619014D01*
X60530186Y-111205502D01*
X60524173Y-110788763D01*
X60519072Y-110654808D01*
X60510714Y-110402897D01*
X60501673Y-110099369D01*
X60492501Y-109763742D01*
X60483744Y-109415534D01*
X60475953Y-109074263D01*
X60469098Y-108776055D01*
X60461594Y-108487868D01*
X60454091Y-108234016D01*
X60446990Y-108027078D01*
X60440689Y-107879634D01*
X60435589Y-107804263D01*
X60429410Y-107741529D01*
X60418531Y-107600076D01*
X60406288Y-107415484D01*
X60394343Y-107211596D01*
X60386789Y-107076247D01*
X60373614Y-106850244D01*
X60361019Y-106644807D01*
X60350932Y-106491930D01*
X60345218Y-106405951D01*
X60333804Y-106216956D01*
X60321365Y-105995058D01*
X60309735Y-105772263D01*
X60271817Y-105105401D01*
X60226360Y-104483099D01*
X60174907Y-103932823D01*
X60117789Y-103457701D01*
X60055340Y-103060860D01*
X59987892Y-102745430D01*
X59953000Y-102613410D01*
X59929573Y-102540002D01*
X59921310Y-102542813D01*
X59649147Y-102542813D01*
X59640683Y-102449913D01*
X59618616Y-102207628D01*
X59593704Y-101934025D01*
X59567372Y-101644763D01*
X59549655Y-101451863D01*
X59508305Y-101012088D01*
X59462245Y-100534023D01*
X59412623Y-100028811D01*
X59360588Y-99507597D01*
X59307291Y-98981525D01*
X59253881Y-98461740D01*
X59201507Y-97959384D01*
X59151318Y-97485602D01*
X59104464Y-97051538D01*
X59062094Y-96668337D01*
X59025357Y-96347141D01*
X58995403Y-96099096D01*
X58985859Y-96023816D01*
X58919805Y-95521971D01*
X58842125Y-94959508D01*
X58754459Y-94346749D01*
X58658449Y-93694017D01*
X58555738Y-93011635D01*
X58447966Y-92309925D01*
X58336775Y-91599212D01*
X58223807Y-90889817D01*
X58110703Y-90192063D01*
X57999104Y-89516274D01*
X57890653Y-88872772D01*
X57786990Y-88271881D01*
X57689757Y-87723922D01*
X57600596Y-87239220D01*
X57521149Y-86828096D01*
X57503320Y-86738539D01*
X57443424Y-86434241D01*
X57385753Y-86136468D01*
X57333957Y-85864332D01*
X57291684Y-85636948D01*
X57262582Y-85473430D01*
X57262495Y-85472918D01*
X57232328Y-85302021D01*
X57189708Y-85069297D01*
X57138589Y-84795893D01*
X57082925Y-84502960D01*
X57026669Y-84211645D01*
X57019720Y-84175781D01*
X56968871Y-83900666D01*
X56924786Y-83640484D01*
X56910088Y-83543844D01*
X57155584Y-83543844D01*
X57166863Y-83579305D01*
X57172377Y-83598951D01*
X57193556Y-83694506D01*
X57226089Y-83854227D01*
X57267450Y-84065326D01*
X57315114Y-84315013D01*
X57366555Y-84590499D01*
X57418082Y-84867318D01*
X57485451Y-85225428D01*
X57560838Y-85623133D01*
X57639950Y-86037862D01*
X57718494Y-86447041D01*
X57792175Y-86828096D01*
X57851148Y-87136605D01*
X57932522Y-87574809D01*
X58016238Y-88037602D01*
X58097502Y-88498091D01*
X58171522Y-88929387D01*
X58233507Y-89304596D01*
X58270571Y-89534942D01*
X58333872Y-89927588D01*
X58399682Y-90335024D01*
X58464025Y-90732652D01*
X58522922Y-91095875D01*
X58572395Y-91400096D01*
X58580233Y-91448267D01*
X58661052Y-91953096D01*
X58744713Y-92489235D01*
X58829365Y-93043922D01*
X58913156Y-93604398D01*
X58994235Y-94157903D01*
X59070751Y-94691677D01*
X59140852Y-95192960D01*
X59202687Y-95648992D01*
X59254403Y-96047013D01*
X59294150Y-96374263D01*
X59301722Y-96439755D01*
X59327119Y-96656336D01*
X59349549Y-96843164D01*
X59366815Y-96982116D01*
X59376717Y-97055068D01*
X59376787Y-97055508D01*
X59383870Y-97116174D01*
X59398293Y-97252300D01*
X59419188Y-97455280D01*
X59445685Y-97716506D01*
X59476917Y-98027372D01*
X59512014Y-98379269D01*
X59550108Y-98763593D01*
X59590330Y-99171734D01*
X59789677Y-101200263D01*
X60143444Y-101983430D01*
X60173532Y-102050248D01*
X60307461Y-102356195D01*
X60414337Y-102622178D01*
X60498545Y-102865992D01*
X60564474Y-103105428D01*
X60616508Y-103358280D01*
X60659036Y-103642342D01*
X60696443Y-103975405D01*
X60733116Y-104375263D01*
X60746916Y-104532719D01*
X60762843Y-104708483D01*
X60775405Y-104840930D01*
X60786988Y-104968795D01*
X60801445Y-105144082D01*
X60815546Y-105327763D01*
X60825141Y-105450877D01*
X60841091Y-105646183D01*
X60861985Y-105896612D01*
X60886579Y-106187360D01*
X60913628Y-106503622D01*
X60941889Y-106830596D01*
X60945843Y-106876151D01*
X60977768Y-107249138D01*
X61004057Y-107570159D01*
X61025968Y-107858726D01*
X61044759Y-108134348D01*
X61061688Y-108416535D01*
X61078015Y-108724799D01*
X61094996Y-109078649D01*
X61113891Y-109497596D01*
X61132345Y-109895290D01*
X61150923Y-110254833D01*
X61168327Y-110549050D01*
X61184175Y-110771506D01*
X61198085Y-110915763D01*
X61200426Y-110935577D01*
X61213254Y-111063295D01*
X61225749Y-111205502D01*
X61228476Y-111236550D01*
X61243283Y-111423763D01*
X61250339Y-111506105D01*
X61286139Y-111733729D01*
X61348196Y-111904355D01*
X61446174Y-112038417D01*
X61589735Y-112156345D01*
X61664593Y-112205888D01*
X61762736Y-112260810D01*
X61868160Y-112303042D01*
X61996298Y-112336353D01*
X62162582Y-112364511D01*
X62382445Y-112391285D01*
X62671318Y-112420443D01*
X62827242Y-112435635D01*
X63043431Y-112457390D01*
X63220638Y-112476060D01*
X63343758Y-112490038D01*
X63397685Y-112497719D01*
X63391249Y-112505007D01*
X63322821Y-112534202D01*
X63193941Y-112581079D01*
X63017158Y-112641145D01*
X62805019Y-112709908D01*
X62563441Y-112786885D01*
X62311883Y-112868618D01*
X62120218Y-112934082D01*
X61976566Y-112988181D01*
X61869045Y-113035819D01*
X61785775Y-113081903D01*
X61714874Y-113131337D01*
X61644463Y-113189025D01*
X61551136Y-113275537D01*
X61489872Y-113347788D01*
X61479304Y-113382980D01*
X61521367Y-113372449D01*
X61617996Y-113307528D01*
X61669751Y-113273294D01*
X61840161Y-113192656D01*
X62060359Y-113117205D01*
X62306067Y-113054602D01*
X62553003Y-113012509D01*
X62633478Y-113005821D01*
X62794439Y-112997145D01*
X63014175Y-112988040D01*
X63278732Y-112979022D01*
X63574159Y-112970604D01*
X63886503Y-112963303D01*
X63957192Y-112961901D01*
X64512192Y-112956665D01*
X64995481Y-112964029D01*
X65417947Y-112985002D01*
X65790478Y-113020591D01*
X66123965Y-113071802D01*
X66429296Y-113139643D01*
X66717360Y-113225120D01*
X66865460Y-113276407D01*
X67053533Y-113346531D01*
X67207850Y-113409668D01*
X67304919Y-113456564D01*
X67372364Y-113492906D01*
X67430756Y-113509347D01*
X67428290Y-113477951D01*
X67366681Y-113403666D01*
X67247646Y-113291439D01*
X67154127Y-113217175D01*
X66991477Y-113117540D01*
X66790720Y-113026646D01*
X66542596Y-112941440D01*
X66237842Y-112858867D01*
X65867197Y-112775876D01*
X65421398Y-112689412D01*
X65399359Y-112685360D01*
X65206766Y-112648981D01*
X65051303Y-112617930D01*
X64948379Y-112595387D01*
X64913398Y-112584533D01*
X64915615Y-112583160D01*
X64975979Y-112570891D01*
X65104156Y-112555209D01*
X65285506Y-112537558D01*
X65505390Y-112519383D01*
X65749169Y-112502125D01*
X65848237Y-112495544D01*
X66197730Y-112469234D01*
X66475952Y-112441961D01*
X66693627Y-112412021D01*
X66861480Y-112377711D01*
X66990236Y-112337331D01*
X67090618Y-112289176D01*
X67249380Y-112176122D01*
X67379964Y-112028692D01*
X67486433Y-111833433D01*
X67581388Y-111571930D01*
X67614858Y-111459879D01*
X67647206Y-111336475D01*
X67674393Y-111207878D01*
X67697398Y-111064159D01*
X67717197Y-110895389D01*
X67718162Y-110884200D01*
X68256217Y-110884200D01*
X68257605Y-111194853D01*
X68262414Y-111461970D01*
X68270832Y-111671872D01*
X68283051Y-111810880D01*
X68317120Y-112000046D01*
X68363168Y-112191268D01*
X68410725Y-112340046D01*
X68492042Y-112545596D01*
X68495420Y-111677763D01*
X68497149Y-111421102D01*
X68501162Y-111081566D01*
X68506806Y-110741834D01*
X68513598Y-110430192D01*
X68521054Y-110174930D01*
X68532421Y-109851581D01*
X68547179Y-109435899D01*
X68559685Y-109090186D01*
X68570281Y-108805683D01*
X68579313Y-108573632D01*
X68587124Y-108385273D01*
X68594057Y-108231848D01*
X68600458Y-108104598D01*
X68606669Y-107994763D01*
X68628585Y-107623185D01*
X68648321Y-107272332D01*
X68664841Y-106956033D01*
X68679503Y-106648163D01*
X68693668Y-106322596D01*
X68696995Y-106246545D01*
X68714676Y-105903903D01*
X68739853Y-105489248D01*
X68772728Y-104999520D01*
X68813505Y-104431656D01*
X68862388Y-103782596D01*
X68875409Y-103624573D01*
X68890873Y-103458206D01*
X68903959Y-103338096D01*
X68912869Y-103254221D01*
X68906994Y-103235292D01*
X68881809Y-103287076D01*
X68869133Y-103329625D01*
X68849117Y-103427880D01*
X68823450Y-103581580D01*
X68791446Y-103795502D01*
X68752422Y-104074422D01*
X68705692Y-104423116D01*
X68650573Y-104846359D01*
X68586380Y-105348930D01*
X68585413Y-105356609D01*
X68570871Y-105484588D01*
X68554639Y-105651016D01*
X68536204Y-105862472D01*
X68515053Y-106125534D01*
X68490671Y-106446782D01*
X68462544Y-106832794D01*
X68430160Y-107290151D01*
X68393004Y-107825430D01*
X68387332Y-107904811D01*
X68369435Y-108136284D01*
X68348240Y-108392039D01*
X68327208Y-108629763D01*
X68326311Y-108639589D01*
X68309075Y-108872001D01*
X68293930Y-109156626D01*
X68281066Y-109479786D01*
X68270673Y-109827802D01*
X68262940Y-110186995D01*
X68258058Y-110543687D01*
X68256217Y-110884200D01*
X67718162Y-110884200D01*
X67734770Y-110691639D01*
X67751093Y-110442981D01*
X67767144Y-110139485D01*
X67783902Y-109771222D01*
X67802344Y-109328263D01*
X67828537Y-108765306D01*
X67864920Y-108177683D01*
X67911607Y-107596014D01*
X67971590Y-106978763D01*
X67988265Y-106817861D01*
X68019621Y-106507013D01*
X68044361Y-106245606D01*
X68064591Y-106009663D01*
X68082420Y-105775208D01*
X68099954Y-105518263D01*
X68110722Y-105358575D01*
X68151685Y-104828925D01*
X68199828Y-104328997D01*
X68257434Y-103844982D01*
X68326787Y-103363072D01*
X68410172Y-102869456D01*
X68509872Y-102350327D01*
X68628172Y-101791874D01*
X68767356Y-101180289D01*
X68929707Y-100501763D01*
X68974447Y-100314993D01*
X69060054Y-99928712D01*
X69126116Y-99577029D01*
X69178242Y-99228271D01*
X69222040Y-98850763D01*
X69244618Y-98632201D01*
X69274889Y-98341568D01*
X69299760Y-98107724D01*
X69321156Y-97913796D01*
X69341005Y-97742909D01*
X69361233Y-97578191D01*
X69383765Y-97402767D01*
X69410529Y-97199763D01*
X69420781Y-97121342D01*
X69454531Y-96851066D01*
X69488531Y-96564121D01*
X69516776Y-96310763D01*
X69526424Y-96223930D01*
X69554397Y-95992520D01*
X69589826Y-95717643D01*
X69629149Y-95426576D01*
X69668803Y-95146596D01*
X69706118Y-94889360D01*
X69772087Y-94428174D01*
X69829562Y-94015780D01*
X69881697Y-93628985D01*
X69931647Y-93244599D01*
X69982565Y-92839430D01*
X70014006Y-92586892D01*
X70064476Y-92189280D01*
X70109041Y-91852290D01*
X70150049Y-91560808D01*
X70189850Y-91299722D01*
X70230793Y-91053920D01*
X70275226Y-90808290D01*
X70325499Y-90547720D01*
X70383960Y-90257096D01*
X70417013Y-90096641D01*
X70489026Y-89754413D01*
X70571701Y-89368800D01*
X70659570Y-88965029D01*
X70747165Y-88568330D01*
X70829015Y-88203930D01*
X70854922Y-88089417D01*
X70953152Y-87648281D01*
X71051331Y-87197174D01*
X71147946Y-86743820D01*
X71241484Y-86295937D01*
X71330430Y-85861249D01*
X71413272Y-85447475D01*
X71488497Y-85062338D01*
X71554589Y-84713558D01*
X71610038Y-84408857D01*
X71653328Y-84155955D01*
X71682946Y-83962575D01*
X71697379Y-83836437D01*
X71695114Y-83785263D01*
X71690511Y-83782968D01*
X71631638Y-83792862D01*
X71535543Y-83831316D01*
X71530474Y-83833693D01*
X71407011Y-83881052D01*
X71224413Y-83939248D01*
X71005063Y-84002125D01*
X70771340Y-84063528D01*
X70545628Y-84117301D01*
X70350307Y-84157288D01*
X70295931Y-84166148D01*
X70133351Y-84188395D01*
X69918625Y-84214267D01*
X69673311Y-84241231D01*
X69418974Y-84266751D01*
X69278351Y-84280229D01*
X69042829Y-84303215D01*
X68836630Y-84323840D01*
X68678080Y-84340260D01*
X68585503Y-84350631D01*
X68527349Y-84357454D01*
X68332494Y-84375043D01*
X68089156Y-84390194D01*
X67792813Y-84403007D01*
X67438946Y-84413578D01*
X67023033Y-84422007D01*
X66540553Y-84428391D01*
X65986985Y-84432830D01*
X65357809Y-84435421D01*
X64648503Y-84436263D01*
X64445667Y-84436228D01*
X63889479Y-84435646D01*
X63407494Y-84434203D01*
X62991864Y-84431709D01*
X62634739Y-84427976D01*
X62328270Y-84422815D01*
X62064607Y-84416038D01*
X61835902Y-84407456D01*
X61634305Y-84396879D01*
X61451967Y-84384121D01*
X61281038Y-84368991D01*
X61113669Y-84351301D01*
X61084816Y-84348048D01*
X60919159Y-84329609D01*
X60753836Y-84311496D01*
X60175538Y-84245672D01*
X59580034Y-84169346D01*
X59060290Y-84092095D01*
X58611525Y-84012980D01*
X58228960Y-83931063D01*
X57907816Y-83845405D01*
X57643312Y-83755068D01*
X57430669Y-83659114D01*
X57308944Y-83595377D01*
X57212674Y-83547660D01*
X57166204Y-83531889D01*
X57155584Y-83543844D01*
X56910088Y-83543844D01*
X56890070Y-83412227D01*
X56867329Y-83232888D01*
X56859169Y-83119459D01*
X56859173Y-83116250D01*
X56868599Y-83019420D01*
X57113169Y-83019420D01*
X57117942Y-83044157D01*
X57174724Y-83133032D01*
X57281109Y-83239191D01*
X57418782Y-83345897D01*
X57569430Y-83436413D01*
X57634652Y-83467300D01*
X57890482Y-83561823D01*
X58225758Y-83654672D01*
X58636541Y-83745174D01*
X59118891Y-83832656D01*
X59668869Y-83916447D01*
X60282534Y-83995873D01*
X60955948Y-84070263D01*
X61685169Y-84138943D01*
X61689918Y-84139354D01*
X61897145Y-84154583D01*
X62137667Y-84167102D01*
X62418822Y-84177041D01*
X62747945Y-84184532D01*
X63132372Y-84189705D01*
X63579439Y-84192692D01*
X64096482Y-84193624D01*
X64690836Y-84192631D01*
X64898064Y-84191964D01*
X65334728Y-84190273D01*
X65749349Y-84188292D01*
X66132979Y-84186084D01*
X66476674Y-84183716D01*
X66771486Y-84181251D01*
X67008470Y-84178755D01*
X67178680Y-84176293D01*
X67273169Y-84173928D01*
X67349306Y-84170213D01*
X67574703Y-84156363D01*
X67858319Y-84136215D01*
X68182087Y-84111266D01*
X68527938Y-84083014D01*
X68877807Y-84052956D01*
X69213624Y-84022590D01*
X69517323Y-83993413D01*
X69770836Y-83966921D01*
X69795587Y-83964137D01*
X70183302Y-83909806D01*
X70556617Y-83838490D01*
X70905531Y-83753543D01*
X71220040Y-83658317D01*
X71490142Y-83556166D01*
X71705835Y-83450443D01*
X71857116Y-83344503D01*
X71933981Y-83241699D01*
X71944131Y-83156643D01*
X71889209Y-83032883D01*
X71755469Y-82909551D01*
X71546291Y-82789507D01*
X71265052Y-82675608D01*
X71237432Y-82666282D01*
X71048576Y-82610580D01*
X70808898Y-82549099D01*
X70544815Y-82487751D01*
X70282744Y-82432443D01*
X70049100Y-82389086D01*
X69870302Y-82363590D01*
X69518453Y-82328930D01*
X69089564Y-82290219D01*
X68692241Y-82258193D01*
X68352669Y-82235070D01*
X68249700Y-82228766D01*
X68049906Y-82215557D01*
X67877079Y-82202944D01*
X67760003Y-82192969D01*
X67737788Y-82190953D01*
X67613293Y-82182198D01*
X67431066Y-82171588D01*
X67211962Y-82160285D01*
X66976836Y-82149445D01*
X66932343Y-82147511D01*
X66680492Y-82136266D01*
X66434842Y-82124861D01*
X66221525Y-82114530D01*
X66066669Y-82106505D01*
X66053443Y-82105845D01*
X65937612Y-82101972D01*
X65748371Y-82097396D01*
X65495139Y-82092280D01*
X65187332Y-82086785D01*
X64834367Y-82081072D01*
X64445663Y-82075302D01*
X64030636Y-82069637D01*
X63598703Y-82064237D01*
X63193057Y-82060017D01*
X62504597Y-82056271D01*
X61893189Y-82057898D01*
X61353992Y-82065008D01*
X60882165Y-82077712D01*
X60472868Y-82096120D01*
X60121261Y-82120344D01*
X59822503Y-82150493D01*
X59448932Y-82197996D01*
X58882682Y-82280829D01*
X58398566Y-82366780D01*
X57997207Y-82455719D01*
X57679229Y-82547519D01*
X57445254Y-82642050D01*
X57374182Y-82683063D01*
X57242400Y-82790921D01*
X57148783Y-82910554D01*
X57113169Y-83019420D01*
X56868599Y-83019420D01*
X56880115Y-82901131D01*
X56947056Y-82722480D01*
X57067728Y-82573217D01*
X57249864Y-82446261D01*
X57501195Y-82334532D01*
X57829455Y-82230948D01*
X58169324Y-82146442D01*
X58660862Y-82047980D01*
X59198996Y-81962685D01*
X59762589Y-81893821D01*
X60330503Y-81844653D01*
X60356258Y-81842998D01*
X60560899Y-81833733D01*
X60835037Y-81826238D01*
X61169604Y-81820448D01*
X61555533Y-81816299D01*
X61983754Y-81813725D01*
X62445200Y-81812663D01*
X62930801Y-81813047D01*
X63431490Y-81814813D01*
X63938199Y-81817896D01*
X64441858Y-81822231D01*
X64933401Y-81827753D01*
X65403757Y-81834398D01*
X65843859Y-81842101D01*
X66244639Y-81850797D01*
X66597029Y-81860422D01*
X66891959Y-81870910D01*
X67120362Y-81882197D01*
X67273169Y-81894218D01*
X67330849Y-81899744D01*
X67475804Y-81911327D01*
X67662836Y-81924619D01*
X67865836Y-81937703D01*
X67904273Y-81940070D01*
X68234748Y-81961955D01*
X68621582Y-81990120D01*
X69074073Y-82025263D01*
X69601517Y-82068083D01*
X69683056Y-82075282D01*
X70096489Y-82125747D01*
X70499088Y-82196801D01*
X70880313Y-82285074D01*
X71229624Y-82387192D01*
X71536481Y-82499781D01*
X71790345Y-82619470D01*
X71980675Y-82742885D01*
X72096933Y-82866653D01*
X72165940Y-82992649D01*
X72200832Y-83107644D01*
X72200270Y-83156643D01*
X72199417Y-83231125D01*
G37*
G36*
X69128300Y-63340911D02*
G01*
X69365097Y-63344985D01*
X69560478Y-63354402D01*
X69736418Y-63371164D01*
X69914892Y-63397272D01*
X70117878Y-63434730D01*
X70323194Y-63476386D01*
X70578664Y-63530351D01*
X70771121Y-63575642D01*
X70921384Y-63619751D01*
X71050275Y-63670168D01*
X71178613Y-63734385D01*
X71327220Y-63819893D01*
X71401093Y-63864202D01*
X71566832Y-63968220D01*
X71701602Y-64060585D01*
X71790557Y-64130593D01*
X71819170Y-64165556D01*
X71827979Y-64236284D01*
X71847857Y-64353514D01*
X71856840Y-64401294D01*
X71892651Y-64586622D01*
X71545485Y-64841671D01*
X71336547Y-65011760D01*
X71100570Y-65236073D01*
X70830549Y-65521519D01*
X70643362Y-65731777D01*
X70396988Y-66021088D01*
X70203620Y-66268627D01*
X70054067Y-66491114D01*
X69939135Y-66705264D01*
X69849632Y-66927796D01*
X69776367Y-67175426D01*
X69722466Y-67406571D01*
X69657114Y-67656942D01*
X69584422Y-67827405D01*
X69501319Y-67923323D01*
X69411321Y-67950314D01*
X69358924Y-67928477D01*
X69249179Y-67869277D01*
X69096835Y-67781080D01*
X68916643Y-67672256D01*
X68865769Y-67640819D01*
X68368849Y-67332269D01*
X68112782Y-66905379D01*
X67856716Y-66478488D01*
X67787873Y-65838152D01*
X67761270Y-65543540D01*
X67739458Y-65212154D01*
X67724659Y-64884184D01*
X67719097Y-64599821D01*
X67719095Y-64594863D01*
X67722967Y-64300858D01*
X67736983Y-64071552D01*
X67764852Y-63886510D01*
X67810284Y-63725297D01*
X67876987Y-63567477D01*
X67921514Y-63479580D01*
X67994710Y-63340841D01*
X68828111Y-63340178D01*
X69128300Y-63340911D01*
G37*
G36*
X147268038Y-67284426D02*
G01*
X147331041Y-67391857D01*
X147336588Y-67402783D01*
X147439347Y-67570978D01*
X147597949Y-67784399D01*
X147803232Y-68032926D01*
X148046031Y-68306438D01*
X148317181Y-68594816D01*
X148607517Y-68887939D01*
X148907876Y-69175686D01*
X149105883Y-69356603D01*
X149422953Y-69631646D01*
X149700055Y-69851644D01*
X149951864Y-70027149D01*
X150193058Y-70168715D01*
X150333194Y-70239110D01*
X150442676Y-70304974D01*
X150487946Y-70377373D01*
X150492624Y-70424462D01*
X150482875Y-70521087D01*
X150444331Y-70593354D01*
X150360998Y-70657479D01*
X150216884Y-70729680D01*
X150171659Y-70749931D01*
X149455184Y-71031393D01*
X148733287Y-71245812D01*
X148022533Y-71388590D01*
X147739832Y-71425176D01*
X147429012Y-71458358D01*
X147189629Y-71482610D01*
X147008257Y-71498363D01*
X146871468Y-71506048D01*
X146765837Y-71506099D01*
X146677937Y-71498946D01*
X146594342Y-71485023D01*
X146502571Y-71464976D01*
X146282580Y-71392037D01*
X146119570Y-71282593D01*
X146107697Y-71271364D01*
X146040073Y-71201902D01*
X145998857Y-71138805D01*
X145977546Y-71058681D01*
X145969636Y-70938138D01*
X145968607Y-70771038D01*
X145978873Y-70475726D01*
X146006924Y-70126493D01*
X146049421Y-69752142D01*
X146103029Y-69381477D01*
X146164412Y-69043302D01*
X146174086Y-68997143D01*
X146229422Y-68784107D01*
X146307444Y-68545907D01*
X146402052Y-68295576D01*
X146507144Y-68046145D01*
X146616618Y-67810644D01*
X146724372Y-67602105D01*
X146824305Y-67433558D01*
X146910315Y-67318036D01*
X146976301Y-67268569D01*
X146983901Y-67267653D01*
X147085567Y-67256118D01*
X147149851Y-67242116D01*
X147213907Y-67239902D01*
X147268038Y-67284426D01*
G37*
G36*
X151219802Y-65740913D02*
G01*
X151323499Y-65757710D01*
X151424220Y-65793801D01*
X151476883Y-65817630D01*
X151679522Y-65912541D01*
X151733393Y-66395866D01*
X151756587Y-66681905D01*
X151768185Y-67025195D01*
X151768369Y-67435434D01*
X151760047Y-67831445D01*
X151746072Y-68229768D01*
X151726962Y-68555751D01*
X151699307Y-68822413D01*
X151659701Y-69042777D01*
X151604735Y-69229860D01*
X151531001Y-69396685D01*
X151435091Y-69556271D01*
X151313597Y-69721638D01*
X151241942Y-69810863D01*
X151080640Y-69999293D01*
X150928189Y-70161778D01*
X150794459Y-70289235D01*
X150689321Y-70372580D01*
X150622646Y-70402732D01*
X150606925Y-70395202D01*
X150583248Y-70347480D01*
X150530157Y-70235888D01*
X150454066Y-70074050D01*
X150361390Y-69875592D01*
X150290398Y-69722858D01*
X150115626Y-69357042D01*
X149958839Y-69055205D01*
X149809934Y-68800699D01*
X149658806Y-68576878D01*
X149495351Y-68367094D01*
X149399416Y-68254940D01*
X149005239Y-67852075D01*
X148600314Y-67530118D01*
X148178206Y-67284709D01*
X147732484Y-67111487D01*
X147697143Y-67101059D01*
X147503164Y-67041478D01*
X147375514Y-66990132D01*
X147297239Y-66936466D01*
X147251383Y-66869928D01*
X147229472Y-66809972D01*
X147222725Y-66752034D01*
X147254218Y-66705445D01*
X147339736Y-66654816D01*
X147432357Y-66612192D01*
X147908977Y-66421311D01*
X148407333Y-66263182D01*
X148957139Y-66128504D01*
X149020505Y-66115042D01*
X149289027Y-66058094D01*
X149570857Y-65997214D01*
X149835671Y-65939018D01*
X150053147Y-65890122D01*
X150087731Y-65882171D01*
X150324857Y-65833750D01*
X150585477Y-65790502D01*
X150824479Y-65759644D01*
X150894432Y-65753125D01*
X151085867Y-65740391D01*
X151219802Y-65740913D01*
G37*
G36*
X72221048Y-64657816D02*
G01*
X72309581Y-64701975D01*
X72388430Y-64750653D01*
X72699455Y-64981800D01*
X72989491Y-65269658D01*
X73262947Y-65620351D01*
X73524231Y-66040003D01*
X73777750Y-66534738D01*
X73948185Y-66917712D01*
X74057014Y-67178436D01*
X74159100Y-67429058D01*
X74247791Y-67652778D01*
X74316433Y-67832795D01*
X74358373Y-67952309D01*
X74360032Y-67957634D01*
X74399969Y-68095471D01*
X74412731Y-68183592D01*
X74397579Y-68253458D01*
X74353779Y-68336535D01*
X74351060Y-68341196D01*
X74298399Y-68418460D01*
X74235491Y-68467869D01*
X74137913Y-68501854D01*
X73981238Y-68532846D01*
X73971090Y-68534596D01*
X73841772Y-68550623D01*
X73650209Y-68566497D01*
X73413805Y-68581536D01*
X73149964Y-68595059D01*
X72876090Y-68606386D01*
X72609587Y-68614835D01*
X72367859Y-68619726D01*
X72168310Y-68620376D01*
X72028343Y-68616106D01*
X71988068Y-68612201D01*
X71908073Y-68603305D01*
X71761525Y-68589549D01*
X71567003Y-68572587D01*
X71343084Y-68554071D01*
X71262353Y-68547620D01*
X70857927Y-68510825D01*
X70532968Y-68470170D01*
X70281601Y-68424294D01*
X70097950Y-68371838D01*
X69976141Y-68311443D01*
X69910299Y-68241750D01*
X69906395Y-68233842D01*
X69890547Y-68185290D01*
X69898245Y-68137998D01*
X69939296Y-68079175D01*
X70023508Y-67996030D01*
X70160688Y-67875773D01*
X70219416Y-67825626D01*
X70530907Y-67521928D01*
X70847931Y-67137516D01*
X71167177Y-66676594D01*
X71325591Y-66420445D01*
X71433067Y-66225123D01*
X71556554Y-65976647D01*
X71684347Y-65701004D01*
X71804741Y-65424178D01*
X71906032Y-65172154D01*
X71972080Y-64985188D01*
X72024958Y-64843871D01*
X72082091Y-64730689D01*
X72116382Y-64685323D01*
X72164461Y-64654141D01*
X72221048Y-64657816D01*
G37*
G36*
X94462814Y-109028650D02*
G01*
X94645794Y-109056124D01*
X94867422Y-109096802D01*
X95108141Y-109146406D01*
X95348394Y-109200658D01*
X95568622Y-109255279D01*
X95749270Y-109305991D01*
X95870778Y-109348517D01*
X95891864Y-109358548D01*
X95978182Y-109440801D01*
X95991826Y-109558195D01*
X95932407Y-109713401D01*
X95814301Y-109890026D01*
X95638536Y-110129008D01*
X95510865Y-110330540D01*
X95420076Y-110518592D01*
X95354960Y-110717135D01*
X95304304Y-110950138D01*
X95295593Y-110999110D01*
X95243250Y-111281634D01*
X95189847Y-111503272D01*
X95124642Y-111683003D01*
X95036898Y-111839804D01*
X94915872Y-111992650D01*
X94750827Y-112160520D01*
X94531022Y-112362390D01*
X94516896Y-112375068D01*
X94213253Y-112633722D01*
X93836405Y-112930663D01*
X93385884Y-113266233D01*
X92861226Y-113640771D01*
X92261964Y-114054618D01*
X91697032Y-114435249D01*
X91436607Y-114615473D01*
X91135775Y-114834216D01*
X90818222Y-115073593D01*
X90507637Y-115315719D01*
X90227704Y-115542709D01*
X90202914Y-115563380D01*
X89209605Y-116372814D01*
X88241593Y-117116820D01*
X87283928Y-117805268D01*
X86321654Y-118448024D01*
X85339820Y-119054956D01*
X84323472Y-119635932D01*
X83257657Y-120200819D01*
X82906074Y-120378612D01*
X81636349Y-121013782D01*
X81281435Y-121013782D01*
X80926520Y-121013782D01*
X80790409Y-120820680D01*
X80709746Y-120685881D01*
X80606608Y-120481317D01*
X80485829Y-120218115D01*
X80352244Y-119907402D01*
X80210689Y-119560305D01*
X80065999Y-119187952D01*
X79974658Y-118943362D01*
X79770711Y-118388404D01*
X79800523Y-117790757D01*
X79815419Y-117587422D01*
X79843052Y-117309739D01*
X79882205Y-116967590D01*
X79931663Y-116570856D01*
X79990212Y-116129420D01*
X80056637Y-115653165D01*
X80101384Y-115343766D01*
X80171344Y-114863074D01*
X80230623Y-114459030D01*
X80282633Y-114124074D01*
X80330789Y-113850647D01*
X80378505Y-113631189D01*
X80429194Y-113458140D01*
X80486270Y-113323943D01*
X80553147Y-113221037D01*
X80633239Y-113141863D01*
X80729959Y-113078862D01*
X80846722Y-113024475D01*
X80986940Y-112971141D01*
X81154028Y-112911303D01*
X81208908Y-112891319D01*
X81367271Y-112835639D01*
X81596425Y-112758628D01*
X81885474Y-112663785D01*
X82223519Y-112554606D01*
X82599664Y-112434590D01*
X83003012Y-112307234D01*
X83422666Y-112176037D01*
X83834286Y-112048633D01*
X84286728Y-111909114D01*
X84756191Y-111763965D01*
X85227956Y-111617762D01*
X85687300Y-111475081D01*
X86119504Y-111340500D01*
X86509847Y-111218594D01*
X86843607Y-111113940D01*
X87035967Y-111053310D01*
X87388171Y-110943461D01*
X87798581Y-110817943D01*
X88243142Y-110683955D01*
X88697801Y-110548699D01*
X89138504Y-110419375D01*
X89541199Y-110303182D01*
X89554622Y-110299353D01*
X89947207Y-110186578D01*
X90371327Y-110063313D01*
X90804690Y-109936136D01*
X91225000Y-109811621D01*
X91609966Y-109696346D01*
X91937294Y-109596885D01*
X91966555Y-109587891D01*
X92551982Y-109412145D01*
X93059987Y-109269162D01*
X93491859Y-109158632D01*
X93848887Y-109080245D01*
X94132361Y-109033691D01*
X94338040Y-109018658D01*
X94462814Y-109028650D01*
G37*
G36*
X110463214Y-139394138D02*
G01*
X110559043Y-139453112D01*
X110638649Y-139513625D01*
X110746323Y-139591170D01*
X110909086Y-139695316D01*
X111106235Y-139813354D01*
X111317068Y-139932573D01*
X111352316Y-139951792D01*
X111569594Y-140074787D01*
X111782198Y-140204272D01*
X111967211Y-140325720D01*
X112101713Y-140424606D01*
X112112935Y-140433899D01*
X112272939Y-140557490D01*
X112465954Y-140690661D01*
X112642786Y-140800169D01*
X112940711Y-140970925D01*
X113054912Y-141461849D01*
X113104565Y-141649732D01*
X113173379Y-141875195D01*
X113255341Y-142121896D01*
X113344439Y-142373491D01*
X113434661Y-142613639D01*
X113519992Y-142825996D01*
X113594422Y-142994220D01*
X113651937Y-143101968D01*
X113664987Y-143120048D01*
X113718150Y-143167819D01*
X113824235Y-143251472D01*
X113966247Y-143357891D01*
X114080812Y-143440968D01*
X114242630Y-143554025D01*
X114373961Y-143635241D01*
X114499692Y-143695474D01*
X114644710Y-143745586D01*
X114833903Y-143796435D01*
X114973526Y-143830506D01*
X115497811Y-143956485D01*
X115985120Y-143789132D01*
X116180087Y-143718433D01*
X116347921Y-143650611D01*
X116470399Y-143593494D01*
X116528666Y-143555680D01*
X116662686Y-143369924D01*
X116805250Y-143124074D01*
X116945031Y-142841071D01*
X117070702Y-142543853D01*
X117170936Y-142255361D01*
X117171223Y-142254412D01*
X117230566Y-142060016D01*
X117280962Y-141898236D01*
X117317385Y-141784973D01*
X117334806Y-141736129D01*
X117335280Y-141735427D01*
X117389914Y-141697850D01*
X117500491Y-141631135D01*
X117647552Y-141546202D01*
X117811643Y-141453968D01*
X117973306Y-141365353D01*
X118113085Y-141291276D01*
X118211523Y-141242655D01*
X118220336Y-141238744D01*
X118355638Y-141193538D01*
X118555219Y-141143818D01*
X118798366Y-141093174D01*
X119064367Y-141045194D01*
X119332507Y-141003468D01*
X119582075Y-140971582D01*
X119792356Y-140953126D01*
X119887056Y-140949991D01*
X120132748Y-140969575D01*
X120416565Y-141024951D01*
X120541605Y-141058362D01*
X120722678Y-141109284D01*
X120852535Y-141137592D01*
X120961735Y-141145215D01*
X121080837Y-141134078D01*
X121240399Y-141106111D01*
X121254977Y-141103365D01*
X121462427Y-141054089D01*
X121662049Y-140981861D01*
X121884066Y-140874789D01*
X122009168Y-140806570D01*
X122425210Y-140573553D01*
X123035903Y-140544023D01*
X123646595Y-140514494D01*
X124139443Y-140221695D01*
X124362738Y-140092783D01*
X124527190Y-140007410D01*
X124644122Y-139960477D01*
X124724859Y-139946883D01*
X124745389Y-139948827D01*
X124829761Y-139962642D01*
X124978335Y-139985949D01*
X125170875Y-140015608D01*
X125387146Y-140048479D01*
X125409107Y-140051793D01*
X126096458Y-140197341D01*
X126476334Y-140316213D01*
X126697593Y-140395971D01*
X126856077Y-140460255D01*
X126970443Y-140519254D01*
X127059347Y-140583156D01*
X127141443Y-140662149D01*
X127173601Y-140696990D01*
X127354260Y-140896380D01*
X128005794Y-140709269D01*
X128657328Y-140522158D01*
X129328381Y-140571265D01*
X129594425Y-140589513D01*
X129802088Y-140599084D01*
X129978021Y-140598979D01*
X130148875Y-140588200D01*
X130341301Y-140565749D01*
X130581948Y-140530630D01*
X130636273Y-140522296D01*
X131273113Y-140424221D01*
X131950506Y-140548161D01*
X132627899Y-140672101D01*
X132678371Y-140992269D01*
X132693839Y-141109686D01*
X132715196Y-141300018D01*
X132741238Y-141551095D01*
X132770763Y-141850750D01*
X132802569Y-142186814D01*
X132835453Y-142547118D01*
X132863983Y-142870589D01*
X132902530Y-143325084D01*
X132932495Y-143706352D01*
X132954157Y-144026083D01*
X132967795Y-144295969D01*
X132973689Y-144527698D01*
X132972119Y-144732962D01*
X132963364Y-144923450D01*
X132947705Y-145110853D01*
X132925420Y-145306861D01*
X132922765Y-145327964D01*
X132895362Y-145544163D01*
X133487345Y-146016467D01*
X133652585Y-146146106D01*
X133875644Y-146317806D01*
X134145440Y-146523206D01*
X134450891Y-146753944D01*
X134780916Y-147001661D01*
X135124434Y-147257996D01*
X135470364Y-147514589D01*
X135594790Y-147606474D01*
X135998578Y-147905456D01*
X136343265Y-148163677D01*
X136639456Y-148389676D01*
X136897756Y-148591991D01*
X137128771Y-148779160D01*
X137343106Y-148959721D01*
X137551367Y-149142213D01*
X137764159Y-149335173D01*
X137910673Y-149470951D01*
X138711093Y-150217725D01*
X138710219Y-150887770D01*
X138709345Y-151557816D01*
X138314862Y-152168797D01*
X137920379Y-152779778D01*
X137582898Y-152926528D01*
X137430853Y-152992315D01*
X137313492Y-153042473D01*
X137248898Y-153069300D01*
X137241868Y-153071768D01*
X137208301Y-153047308D01*
X137118685Y-152981261D01*
X136985557Y-152882884D01*
X136821456Y-152761435D01*
X136769101Y-152722657D01*
X136299882Y-152375055D01*
X135247779Y-152111396D01*
X134195676Y-151847736D01*
X132152460Y-151867385D01*
X130109244Y-151887034D01*
X128935294Y-151753864D01*
X126891268Y-151501405D01*
X124872758Y-151211197D01*
X122904986Y-150886908D01*
X122595967Y-150832001D01*
X120589580Y-150471826D01*
X119625941Y-150093453D01*
X118662301Y-149715079D01*
X118003756Y-149660572D01*
X117735782Y-149632899D01*
X117409805Y-149590533D01*
X117051188Y-149537213D01*
X116685292Y-149476681D01*
X116384706Y-149421815D01*
X116071947Y-149364397D01*
X115698711Y-149300046D01*
X115289208Y-149232680D01*
X114867647Y-149166216D01*
X114458239Y-149104573D01*
X114164874Y-149062629D01*
X113823471Y-149015617D01*
X113535751Y-148977577D01*
X113285710Y-148947323D01*
X113057348Y-148923666D01*
X112834661Y-148905420D01*
X112601648Y-148891397D01*
X112342307Y-148880408D01*
X112040636Y-148871267D01*
X111680633Y-148862787D01*
X111390084Y-148856703D01*
X109874622Y-148825715D01*
X109737970Y-148945700D01*
X109652011Y-149013980D01*
X109512616Y-149116672D01*
X109337516Y-149241026D01*
X109144444Y-149374292D01*
X109099739Y-149404607D01*
X108598162Y-149743530D01*
X107726447Y-149743530D01*
X106854732Y-149743530D01*
X106278434Y-149434034D01*
X105901653Y-149218152D01*
X105594652Y-149011521D01*
X105378374Y-148836387D01*
X105054612Y-148548236D01*
X104113525Y-148548532D01*
X103862418Y-148546992D01*
X103541071Y-148542469D01*
X103164555Y-148535316D01*
X102747942Y-148525881D01*
X102306303Y-148514515D01*
X101854712Y-148501568D01*
X101408240Y-148487391D01*
X101251429Y-148482045D01*
X100794668Y-148466038D01*
X100412853Y-148452065D01*
X100095601Y-148439291D01*
X99832528Y-148426881D01*
X99613250Y-148413998D01*
X99427383Y-148399809D01*
X99264545Y-148383477D01*
X99114350Y-148364166D01*
X98966416Y-148341043D01*
X98810359Y-148313270D01*
X98635794Y-148280013D01*
X98562017Y-148265680D01*
X98312791Y-148216838D01*
X98089711Y-148172502D01*
X97907472Y-148135643D01*
X97780770Y-148109231D01*
X97725756Y-148096675D01*
X97682143Y-148051328D01*
X97617538Y-147945357D01*
X97541050Y-147798030D01*
X97461790Y-147628620D01*
X97388866Y-147456397D01*
X97331390Y-147300630D01*
X97303033Y-147202479D01*
X97290073Y-147082806D01*
X97287285Y-146894686D01*
X97293563Y-146654300D01*
X97307797Y-146377830D01*
X97328881Y-146081459D01*
X97355706Y-145781368D01*
X97387166Y-145493739D01*
X97422153Y-145234755D01*
X97448488Y-145077351D01*
X97488982Y-144825869D01*
X97528766Y-144518606D01*
X97564496Y-144185117D01*
X97592831Y-143854958D01*
X97602017Y-143719618D01*
X97650835Y-142925117D01*
X97498107Y-142435872D01*
X97425785Y-142197228D01*
X97379451Y-142015702D01*
X97357430Y-141867638D01*
X97358047Y-141729384D01*
X97379628Y-141577283D01*
X97420497Y-141387681D01*
X97423092Y-141376471D01*
X97497305Y-141056303D01*
X97850674Y-140985479D01*
X98141722Y-140908191D01*
X98396825Y-140794453D01*
X98486794Y-140742439D01*
X98769544Y-140570223D01*
X99135360Y-140901251D01*
X99326835Y-141067412D01*
X99540808Y-141241948D01*
X99744500Y-141398544D01*
X99842689Y-141469167D01*
X100012177Y-141583015D01*
X100139916Y-141655822D01*
X100251837Y-141698595D01*
X100373870Y-141722343D01*
X100461681Y-141731940D01*
X100632069Y-141740921D01*
X100776868Y-141727344D01*
X100936274Y-141685445D01*
X101044291Y-141648400D01*
X101349423Y-141538975D01*
X101500290Y-141105538D01*
X101569264Y-140886992D01*
X101643138Y-140619361D01*
X101712702Y-140337763D01*
X101765124Y-140095799D01*
X101807508Y-139885348D01*
X101844856Y-139707114D01*
X101873778Y-139576754D01*
X101890882Y-139509926D01*
X101893180Y-139504629D01*
X101933255Y-139516326D01*
X102011148Y-139564974D01*
X102016282Y-139568662D01*
X102067709Y-139620493D01*
X102119836Y-139707657D01*
X102178136Y-139842532D01*
X102248083Y-140037494D01*
X102317857Y-140250522D01*
X102510421Y-140853481D01*
X102783956Y-141093631D01*
X102919245Y-141210168D01*
X103016079Y-141281178D01*
X103099746Y-141317934D01*
X103195533Y-141331711D01*
X103322633Y-141333782D01*
X103520204Y-141321148D01*
X103681852Y-141275922D01*
X103789827Y-141223811D01*
X103892690Y-141163496D01*
X103961312Y-141103623D01*
X104011656Y-141021203D01*
X104059685Y-140893246D01*
X104093661Y-140786248D01*
X104172421Y-140569748D01*
X104264323Y-140402899D01*
X104383479Y-140255883D01*
X104571516Y-140053110D01*
X105126365Y-140053110D01*
X105681214Y-140053110D01*
X106086943Y-140245305D01*
X106233256Y-140313123D01*
X106358441Y-140365318D01*
X106479836Y-140406155D01*
X106614779Y-140439897D01*
X106780609Y-140470808D01*
X106994662Y-140503154D01*
X107274278Y-140541198D01*
X107308521Y-140545746D01*
X108124370Y-140653991D01*
X108956711Y-140556307D01*
X109789051Y-140458622D01*
X110074669Y-139925902D01*
X110180551Y-139733230D01*
X110275515Y-139569324D01*
X110351045Y-139448237D01*
X110398624Y-139384020D01*
X110406981Y-139377617D01*
X110463214Y-139394138D01*
G37*
G36*
X138551931Y-107362107D02*
G01*
X138711093Y-107451566D01*
X138886535Y-107540338D01*
X139082947Y-107616007D01*
X139194608Y-107647349D01*
X139467960Y-107733655D01*
X139689762Y-107856632D01*
X139848321Y-108008305D01*
X139921040Y-108142768D01*
X139983047Y-108324750D01*
X139711963Y-108838786D01*
X139585738Y-109086690D01*
X139492686Y-109295183D01*
X139420529Y-109497128D01*
X139356987Y-109725390D01*
X139314998Y-109901218D01*
X139261241Y-110125079D01*
X139190345Y-110405285D01*
X139109003Y-110716195D01*
X139023905Y-111032170D01*
X138954806Y-111281362D01*
X138873438Y-111573445D01*
X138812843Y-111802835D01*
X138769544Y-111988698D01*
X138740066Y-112150204D01*
X138720933Y-112306520D01*
X138708668Y-112476816D01*
X138699795Y-112680258D01*
X138699459Y-112689412D01*
X138692917Y-113092248D01*
X138702430Y-113522084D01*
X138728789Y-113986675D01*
X138772785Y-114493774D01*
X138835209Y-115051135D01*
X138916853Y-115666511D01*
X139018508Y-116347655D01*
X139140966Y-117102321D01*
X139163455Y-117235799D01*
X139335058Y-118172243D01*
X139524294Y-119047734D01*
X139736791Y-119879463D01*
X139978179Y-120684617D01*
X140254088Y-121480387D01*
X140570146Y-122283962D01*
X140931984Y-123112531D01*
X141345231Y-123983284D01*
X141428293Y-124151429D01*
X141615338Y-124529370D01*
X141769843Y-124846085D01*
X141898107Y-125116378D01*
X142006430Y-125355054D01*
X142101114Y-125576918D01*
X142188459Y-125796776D01*
X142274766Y-126029431D01*
X142366335Y-126289688D01*
X142469466Y-126592353D01*
X142478556Y-126619289D01*
X142589426Y-126947184D01*
X142678699Y-127206693D01*
X142751982Y-127410362D01*
X142814883Y-127570731D01*
X142873007Y-127700346D01*
X142931962Y-127811750D01*
X142997355Y-127917485D01*
X143074793Y-128030095D01*
X143165511Y-128156096D01*
X143432038Y-128565648D01*
X143693863Y-129051148D01*
X143780661Y-129231429D01*
X143933639Y-129560089D01*
X144053880Y-129824504D01*
X144145993Y-130037205D01*
X144214585Y-130210726D01*
X144264263Y-130357598D01*
X144299636Y-130490354D01*
X144325311Y-130621526D01*
X144345896Y-130763647D01*
X144346904Y-130771503D01*
X144460348Y-131515989D01*
X144603877Y-132218686D01*
X144688470Y-132557820D01*
X144823336Y-133063176D01*
X144729787Y-133431168D01*
X144678698Y-133654629D01*
X144627950Y-133913823D01*
X144587024Y-134159595D01*
X144580592Y-134204706D01*
X144546991Y-134415515D01*
X144505376Y-134582897D01*
X144444021Y-134741745D01*
X144351201Y-134926950D01*
X144316199Y-134991531D01*
X144224907Y-135152431D01*
X144145250Y-135282158D01*
X144087745Y-135364162D01*
X144066668Y-135384217D01*
X144018322Y-135367367D01*
X143909117Y-135313584D01*
X143751594Y-135229540D01*
X143558295Y-135121909D01*
X143364202Y-135010448D01*
X143107105Y-134858429D01*
X142905243Y-134731604D01*
X142738547Y-134614932D01*
X142586953Y-134493368D01*
X142430391Y-134351870D01*
X142248796Y-134175395D01*
X142244236Y-134170875D01*
X142054598Y-133977773D01*
X141921842Y-133831257D01*
X141848491Y-133734324D01*
X141837065Y-133689970D01*
X141838690Y-133688891D01*
X141897007Y-133668621D01*
X142021851Y-133631472D01*
X142197115Y-133582043D01*
X142406693Y-133524933D01*
X142501179Y-133499734D01*
X142713982Y-133441039D01*
X142892770Y-133387308D01*
X143023481Y-133343122D01*
X143092056Y-133313058D01*
X143098826Y-133305120D01*
X143068134Y-133263840D01*
X142990188Y-133169193D01*
X142874094Y-133031945D01*
X142728956Y-132862866D01*
X142571830Y-132681836D01*
X142405910Y-132490784D01*
X142258800Y-132319780D01*
X142140033Y-132180036D01*
X142059142Y-132082761D01*
X142026208Y-132040149D01*
X142048695Y-131995948D01*
X142147778Y-131915917D01*
X142323688Y-131799888D01*
X142552150Y-131662044D01*
X143108822Y-131335387D01*
X142393403Y-130930455D01*
X142156291Y-130796149D01*
X141932120Y-130668993D01*
X141736424Y-130557810D01*
X141584736Y-130471426D01*
X141495458Y-130420319D01*
X141312932Y-130315115D01*
X141809696Y-129989285D01*
X142306460Y-129663455D01*
X141399637Y-129209650D01*
X140492814Y-128755846D01*
X141183088Y-128145052D01*
X141384825Y-127965565D01*
X141562178Y-127805893D01*
X141706106Y-127674333D01*
X141807566Y-127579182D01*
X141857518Y-127528736D01*
X141861051Y-127522934D01*
X141818322Y-127508117D01*
X141705593Y-127472966D01*
X141534811Y-127421099D01*
X141317926Y-127356130D01*
X141066886Y-127281677D01*
X140953013Y-127248117D01*
X140690304Y-127170156D01*
X140456021Y-127099333D01*
X140262292Y-127039420D01*
X140121249Y-126994192D01*
X140045021Y-126967421D01*
X140035276Y-126962615D01*
X140050687Y-126926015D01*
X140117284Y-126865083D01*
X140130583Y-126855145D01*
X140210065Y-126787927D01*
X140247479Y-126737938D01*
X140247899Y-126734665D01*
X140219141Y-126690983D01*
X140142441Y-126604727D01*
X140032164Y-126491694D01*
X139985259Y-126445796D01*
X139722619Y-126191948D01*
X140177360Y-125812695D01*
X140341945Y-125673791D01*
X140479988Y-125554164D01*
X140579600Y-125464355D01*
X140628895Y-125414908D01*
X140632101Y-125409379D01*
X140598223Y-125379484D01*
X140503760Y-125310211D01*
X140359469Y-125209080D01*
X140176109Y-125083614D01*
X139964435Y-124941335D01*
X139929066Y-124917784D01*
X139713923Y-124773689D01*
X139525359Y-124645445D01*
X139374131Y-124540528D01*
X139270994Y-124466415D01*
X139226702Y-124430583D01*
X139225795Y-124428908D01*
X139259000Y-124398669D01*
X139350856Y-124329003D01*
X139489474Y-124228582D01*
X139662962Y-124106074D01*
X139781193Y-124023954D01*
X140336828Y-123640344D01*
X140110935Y-123567379D01*
X139962373Y-123520440D01*
X139767746Y-123460357D01*
X139562877Y-123398162D01*
X139508312Y-123381799D01*
X139307211Y-123315705D01*
X139188723Y-123262154D01*
X139151131Y-123220345D01*
X139152219Y-123215402D01*
X139168836Y-123144887D01*
X139189263Y-123021814D01*
X139201953Y-122928742D01*
X139214422Y-122845501D01*
X139221317Y-122782959D01*
X139212876Y-122733727D01*
X139179336Y-122690419D01*
X139110933Y-122645648D01*
X138997904Y-122592026D01*
X138830487Y-122522168D01*
X138598917Y-122428684D01*
X138474390Y-122378247D01*
X138271728Y-122294778D01*
X138097390Y-122220948D01*
X137966762Y-122163426D01*
X137895234Y-122128881D01*
X137887459Y-122123874D01*
X137905917Y-122093597D01*
X137986355Y-122041690D01*
X138111783Y-121978980D01*
X138122249Y-121974268D01*
X138265396Y-121909180D01*
X138460690Y-121818863D01*
X138683243Y-121714894D01*
X138908165Y-121608851D01*
X138924538Y-121601088D01*
X139458152Y-121347986D01*
X138743110Y-120988536D01*
X138518808Y-120874919D01*
X138323324Y-120774254D01*
X138168490Y-120692769D01*
X138066136Y-120636693D01*
X138028092Y-120612254D01*
X138028068Y-120612100D01*
X138061559Y-120583301D01*
X138151554Y-120519837D01*
X138282329Y-120432576D01*
X138369580Y-120376041D01*
X138516738Y-120279488D01*
X138632066Y-120199716D01*
X138699810Y-120147845D01*
X138711093Y-120135021D01*
X138693383Y-120085767D01*
X138650314Y-119995587D01*
X138645963Y-119987124D01*
X138610933Y-119902471D01*
X138610754Y-119860706D01*
X138613946Y-119859828D01*
X138664457Y-119833139D01*
X138748891Y-119768478D01*
X138774245Y-119746731D01*
X138901430Y-119634984D01*
X138611472Y-119372168D01*
X138429755Y-119224004D01*
X138211798Y-119070237D01*
X137999369Y-118939965D01*
X137961875Y-118919635D01*
X137806878Y-118834777D01*
X137685298Y-118762329D01*
X137613743Y-118712504D01*
X137601706Y-118698127D01*
X137633274Y-118661268D01*
X137719853Y-118583559D01*
X137848618Y-118475993D01*
X138006745Y-118349563D01*
X138025005Y-118335270D01*
X138185794Y-118207846D01*
X138319073Y-118098750D01*
X138411909Y-118018824D01*
X138451371Y-117978906D01*
X138451896Y-117977445D01*
X138418679Y-117946357D01*
X138326167Y-117882168D01*
X138188950Y-117794558D01*
X138038740Y-117703356D01*
X137851720Y-117591769D01*
X137674106Y-117485000D01*
X137529335Y-117397180D01*
X137457552Y-117352964D01*
X137292582Y-117249904D01*
X137649652Y-117013261D01*
X137804513Y-116909783D01*
X137933364Y-116822110D01*
X138018990Y-116762040D01*
X138043058Y-116743621D01*
X138068156Y-116667103D01*
X138038401Y-116548040D01*
X137960947Y-116402577D01*
X137842950Y-116246859D01*
X137803904Y-116203920D01*
X137590038Y-115977789D01*
X137704682Y-115827483D01*
X137819326Y-115677177D01*
X137476017Y-115239849D01*
X137347777Y-115074262D01*
X137241228Y-114932440D01*
X137166311Y-114827933D01*
X137132971Y-114774294D01*
X137132152Y-114771181D01*
X137169997Y-114746216D01*
X137272074Y-114704996D01*
X137420424Y-114654371D01*
X137515799Y-114624832D01*
X137682116Y-114571863D01*
X137812169Y-114524385D01*
X137887963Y-114489290D01*
X137900000Y-114477726D01*
X137878650Y-114431136D01*
X137820404Y-114327367D01*
X137733969Y-114181418D01*
X137628051Y-114008289D01*
X137619717Y-113994872D01*
X137514842Y-113819670D01*
X137432263Y-113669019D01*
X137379831Y-113558212D01*
X137365401Y-113502544D01*
X137366102Y-113500965D01*
X137420006Y-113477875D01*
X137532405Y-113462217D01*
X137646385Y-113457816D01*
X137780714Y-113451426D01*
X137872657Y-113434831D01*
X137900000Y-113416002D01*
X137877699Y-113368203D01*
X137815851Y-113261614D01*
X137722038Y-113108638D01*
X137603841Y-112921678D01*
X137491987Y-112748560D01*
X137083974Y-112122931D01*
X137195293Y-112006740D01*
X137306579Y-111924346D01*
X137465696Y-111847062D01*
X137560617Y-111813642D01*
X137692744Y-111771560D01*
X137784602Y-111738335D01*
X137814622Y-111722600D01*
X137795068Y-111682018D01*
X137741927Y-111582339D01*
X137663477Y-111438876D01*
X137574776Y-111279065D01*
X137482073Y-111108041D01*
X137410029Y-110965314D01*
X137366133Y-110866434D01*
X137357198Y-110827396D01*
X137405106Y-110826451D01*
X137520644Y-110839518D01*
X137687624Y-110864366D01*
X137889858Y-110898762D01*
X137938557Y-110907587D01*
X138144021Y-110942988D01*
X138315514Y-110968246D01*
X138437684Y-110981424D01*
X138495177Y-110980590D01*
X138497647Y-110978032D01*
X138480432Y-110929293D01*
X138433412Y-110819219D01*
X138363527Y-110663540D01*
X138277717Y-110477988D01*
X138266838Y-110454799D01*
X138181706Y-110267946D01*
X138114687Y-110109816D01*
X138071917Y-109995746D01*
X138059535Y-109941077D01*
X138060507Y-109939102D01*
X138114806Y-109923958D01*
X138221540Y-109915361D01*
X138266481Y-109914622D01*
X138431802Y-109908832D01*
X138523177Y-109886446D01*
X138551555Y-109839939D01*
X138527887Y-109761788D01*
X138517936Y-109741824D01*
X138467529Y-109627995D01*
X138471603Y-109564149D01*
X138540499Y-109536293D01*
X138674206Y-109530421D01*
X138893454Y-109530421D01*
X138868559Y-109348992D01*
X138848894Y-109253632D01*
X138808343Y-109091992D01*
X138751066Y-108879417D01*
X138681222Y-108631249D01*
X138602972Y-108362832D01*
X138583233Y-108296535D01*
X138506961Y-108035506D01*
X138441591Y-107800290D01*
X138390429Y-107603762D01*
X138356781Y-107458801D01*
X138343952Y-107378282D01*
X138344852Y-107368047D01*
X138380380Y-107322438D01*
X138445059Y-107319466D01*
X138551931Y-107362107D01*
G37*
G36*
X142418178Y-107354547D02*
G01*
X142616851Y-107416716D01*
X142784196Y-107470903D01*
X142904223Y-107511795D01*
X142960942Y-107534084D01*
X142963013Y-107535507D01*
X142940929Y-107569735D01*
X142866725Y-107648670D01*
X142752177Y-107760394D01*
X142615810Y-107886867D01*
X142249662Y-108219282D01*
X142406118Y-108348247D01*
X142562574Y-108477211D01*
X142141623Y-108644201D01*
X141965248Y-108715758D01*
X141818901Y-108778111D01*
X141720634Y-108823388D01*
X141689391Y-108841365D01*
X141713053Y-108869236D01*
X141801123Y-108921761D01*
X141939089Y-108991024D01*
X142086148Y-109057755D01*
X142514186Y-109243971D01*
X142330875Y-109348762D01*
X142203585Y-109418845D01*
X142032748Y-109509399D01*
X141851323Y-109603005D01*
X141816723Y-109620531D01*
X141667900Y-109699988D01*
X141553795Y-109769180D01*
X141492008Y-109817076D01*
X141485883Y-109827901D01*
X141516558Y-109876824D01*
X141593885Y-109952880D01*
X141635293Y-109987508D01*
X141725343Y-110064713D01*
X141778557Y-110120683D01*
X141784705Y-110133048D01*
X141748693Y-110162392D01*
X141655742Y-110210582D01*
X141564310Y-110250966D01*
X141343915Y-110342558D01*
X141436243Y-110440837D01*
X141511772Y-110533547D01*
X141519920Y-110583270D01*
X141464538Y-110597647D01*
X141410893Y-110612301D01*
X141416766Y-110662867D01*
X141484016Y-110759253D01*
X141498090Y-110776549D01*
X141602794Y-110861964D01*
X141773953Y-110952222D01*
X141920969Y-111011967D01*
X142249332Y-111132516D01*
X141938367Y-111473401D01*
X141799606Y-111627992D01*
X141708337Y-111740359D01*
X141653266Y-111830194D01*
X141623101Y-111917192D01*
X141606549Y-112021046D01*
X141602475Y-112059172D01*
X141594821Y-112195147D01*
X141600824Y-112293372D01*
X141613976Y-112326571D01*
X141660008Y-112371032D01*
X141736368Y-112458977D01*
X141782589Y-112515983D01*
X141914775Y-112682882D01*
X141650897Y-112885931D01*
X141387020Y-113088980D01*
X141649896Y-113218481D01*
X141781120Y-113286721D01*
X141875343Y-113342580D01*
X141912737Y-113374271D01*
X141912773Y-113374736D01*
X141881096Y-113413217D01*
X141800932Y-113479829D01*
X141752978Y-113515187D01*
X141593182Y-113628883D01*
X142243902Y-113600718D01*
X142468502Y-113593142D01*
X142659553Y-113590791D01*
X142802449Y-113593517D01*
X142882586Y-113601171D01*
X142894622Y-113607299D01*
X142867654Y-113651523D01*
X142794787Y-113743690D01*
X142688081Y-113869049D01*
X142594651Y-113974258D01*
X142343504Y-114279568D01*
X142139289Y-114583951D01*
X141989145Y-114874571D01*
X141900208Y-115138591D01*
X141880777Y-115258202D01*
X141871712Y-115414465D01*
X141889949Y-115510972D01*
X141951330Y-115566141D01*
X142071695Y-115598392D01*
X142188211Y-115615676D01*
X142316681Y-115635214D01*
X142407153Y-115653085D01*
X142430640Y-115660567D01*
X142430622Y-115705295D01*
X142405084Y-115807880D01*
X142359489Y-115946622D01*
X142356639Y-115954510D01*
X142255696Y-116232605D01*
X142703226Y-116232605D01*
X142886879Y-116235447D01*
X143033723Y-116243129D01*
X143126187Y-116254393D01*
X143149278Y-116264622D01*
X143125409Y-116309138D01*
X143060749Y-116409996D01*
X142964061Y-116554009D01*
X142844107Y-116727995D01*
X142788842Y-116806913D01*
X142429886Y-117317186D01*
X142587548Y-117617955D01*
X142682828Y-117786293D01*
X142768034Y-117898289D01*
X142863528Y-117977369D01*
X142937311Y-118020399D01*
X143091644Y-118106956D01*
X143246711Y-118201229D01*
X143290528Y-118229743D01*
X143451644Y-118337412D01*
X144037587Y-118246708D01*
X144363088Y-118196685D01*
X144613414Y-118159433D01*
X144797682Y-118134151D01*
X144925008Y-118120040D01*
X145004511Y-118116297D01*
X145045307Y-118122121D01*
X145056513Y-118136712D01*
X145048076Y-118157931D01*
X145015475Y-118210248D01*
X144944484Y-118323606D01*
X144842157Y-118486765D01*
X144715543Y-118688485D01*
X144571693Y-118917525D01*
X144501817Y-119028740D01*
X144354472Y-119265098D01*
X144223749Y-119478381D01*
X144116167Y-119657657D01*
X144038243Y-119791995D01*
X143996498Y-119870461D01*
X143991224Y-119885059D01*
X144013622Y-119939892D01*
X144072301Y-120042006D01*
X144153031Y-120169848D01*
X144241583Y-120301867D01*
X144323727Y-120416508D01*
X144385233Y-120492221D01*
X144402431Y-120507879D01*
X144464106Y-120526618D01*
X144583465Y-120547820D01*
X144715131Y-120564638D01*
X144854530Y-120585995D01*
X144952413Y-120613271D01*
X144986387Y-120638612D01*
X144965486Y-120701293D01*
X144913651Y-120800479D01*
X144897527Y-120827315D01*
X144845727Y-120917337D01*
X144824358Y-120967420D01*
X144825971Y-120971093D01*
X144871982Y-120959681D01*
X144979605Y-120929264D01*
X145128732Y-120885574D01*
X145188215Y-120867847D01*
X145410664Y-120791031D01*
X145683397Y-120681100D01*
X145983315Y-120548577D01*
X146287316Y-120403982D01*
X146572302Y-120257838D01*
X146770998Y-120146924D01*
X146899573Y-120073528D01*
X146993629Y-120023575D01*
X147034920Y-120006692D01*
X147035462Y-120007365D01*
X147019470Y-120049073D01*
X146974254Y-120159454D01*
X146903956Y-120328594D01*
X146812716Y-120546579D01*
X146704675Y-120803492D01*
X146583974Y-121089419D01*
X146550178Y-121169302D01*
X146418751Y-121482570D01*
X146292366Y-121788966D01*
X146176692Y-122074358D01*
X146077397Y-122324615D01*
X146000147Y-122525604D01*
X145950611Y-122663192D01*
X145948538Y-122669445D01*
X145867971Y-122883351D01*
X145762508Y-123122139D01*
X145653146Y-123338698D01*
X145638596Y-123364779D01*
X145555758Y-123515085D01*
X145494332Y-123634485D01*
X145462851Y-123705965D01*
X145461160Y-123718561D01*
X145507386Y-123720195D01*
X145622206Y-123716019D01*
X145789094Y-123706839D01*
X145991522Y-123693461D01*
X146024250Y-123691119D01*
X146231161Y-123677833D01*
X146405604Y-123669792D01*
X146530862Y-123667535D01*
X146590214Y-123671603D01*
X146592381Y-123672773D01*
X146591283Y-123721812D01*
X146561882Y-123816587D01*
X146551403Y-123842759D01*
X146489233Y-123991553D01*
X146837054Y-124013862D01*
X147039683Y-124020293D01*
X147223426Y-124008259D01*
X147424465Y-123973895D01*
X147605887Y-123931757D01*
X147786506Y-123889112D01*
X147936762Y-123857646D01*
X148037084Y-123841231D01*
X148066621Y-123840583D01*
X148052844Y-123876384D01*
X147992874Y-123969840D01*
X147893402Y-124111575D01*
X147761118Y-124292217D01*
X147602713Y-124502393D01*
X147484535Y-124656052D01*
X146862727Y-125458280D01*
X146913694Y-125628390D01*
X146954804Y-125728917D01*
X146997358Y-125778831D01*
X147010733Y-125779633D01*
X147450761Y-125604192D01*
X147824272Y-125465896D01*
X148140104Y-125361752D01*
X148407094Y-125288763D01*
X148547887Y-125258609D01*
X148713389Y-125225203D01*
X148851252Y-125189553D01*
X148980698Y-125143564D01*
X149120947Y-125079145D01*
X149291218Y-124988200D01*
X149510731Y-124862637D01*
X149569500Y-124828421D01*
X149771844Y-124711699D01*
X149946962Y-124613130D01*
X150082324Y-124539571D01*
X150165396Y-124497880D01*
X150185683Y-124491285D01*
X150173244Y-124532543D01*
X150128919Y-124634220D01*
X150059799Y-124780774D01*
X149977645Y-124947371D01*
X149755563Y-125389412D01*
X149825432Y-125586777D01*
X149895300Y-125784141D01*
X149191095Y-127304997D01*
X149035875Y-127640885D01*
X148892504Y-127952410D01*
X148764833Y-128231105D01*
X148656713Y-128468509D01*
X148571996Y-128656155D01*
X148514533Y-128785580D01*
X148488175Y-128848320D01*
X148486891Y-128852719D01*
X148526256Y-128861393D01*
X148631799Y-128862279D01*
X148784690Y-128855548D01*
X148875086Y-128849216D01*
X149057605Y-128836061D01*
X149170164Y-128832726D01*
X149227821Y-128841187D01*
X149245633Y-128863418D01*
X149239970Y-128897072D01*
X149195947Y-129051955D01*
X149181944Y-129144049D01*
X149202921Y-129192183D01*
X149263836Y-129215185D01*
X149326464Y-129225470D01*
X149432394Y-129238706D01*
X149600415Y-129257019D01*
X149807567Y-129278005D01*
X150030891Y-129299261D01*
X150034370Y-129299581D01*
X150238339Y-129319529D01*
X150407484Y-129338359D01*
X150525887Y-129354129D01*
X150577627Y-129364895D01*
X150578656Y-129365999D01*
X150560664Y-129408384D01*
X150511826Y-129511000D01*
X150439851Y-129657902D01*
X150362574Y-129812985D01*
X150277835Y-129984723D01*
X150211138Y-130125440D01*
X150169651Y-130219628D01*
X150159801Y-130251801D01*
X150252708Y-130296107D01*
X150370009Y-130337529D01*
X150467242Y-130360951D01*
X150484614Y-130362228D01*
X150546548Y-130347555D01*
X150673944Y-130307097D01*
X150852579Y-130245728D01*
X151068231Y-130168319D01*
X151283026Y-130088659D01*
X151514580Y-130002224D01*
X151716700Y-129928122D01*
X151876627Y-129870919D01*
X151981604Y-129835182D01*
X152018807Y-129825267D01*
X152012403Y-129870880D01*
X151980103Y-129984295D01*
X151926188Y-130153448D01*
X151854936Y-130366271D01*
X151770626Y-130610701D01*
X151677538Y-130874670D01*
X151579949Y-131146114D01*
X151482139Y-131412965D01*
X151388388Y-131663160D01*
X151302972Y-131884631D01*
X151230173Y-132065313D01*
X151196168Y-132144958D01*
X151093634Y-132373057D01*
X151016077Y-132532670D01*
X150957001Y-132634676D01*
X150909910Y-132689957D01*
X150868309Y-132709391D01*
X150858852Y-132709935D01*
X150765570Y-132695176D01*
X150727454Y-132677918D01*
X150633507Y-132595053D01*
X150500145Y-132457616D01*
X150339011Y-132279471D01*
X150161743Y-132074476D01*
X149979983Y-131856494D01*
X149805371Y-131639385D01*
X149649549Y-131437009D01*
X149524156Y-131263228D01*
X149468951Y-131179385D01*
X149195274Y-130788562D01*
X148854181Y-130383287D01*
X148740889Y-130261570D01*
X148455984Y-129951055D01*
X148232642Y-129681337D01*
X148063763Y-129442473D01*
X147942245Y-129224519D01*
X147867930Y-129039328D01*
X147826088Y-128923412D01*
X147757479Y-128746926D01*
X147669245Y-128527659D01*
X147568530Y-128283395D01*
X147477322Y-128066762D01*
X147378748Y-127833623D01*
X147292867Y-127627877D01*
X147224894Y-127462235D01*
X147180045Y-127349410D01*
X147163535Y-127302113D01*
X147163530Y-127301941D01*
X147142343Y-127255689D01*
X147085925Y-127156131D01*
X147004994Y-127021923D01*
X146974284Y-126972491D01*
X146781994Y-126711730D01*
X146558586Y-126504056D01*
X146523972Y-126477984D01*
X146362192Y-126342687D01*
X146232718Y-126203612D01*
X146173975Y-126116464D01*
X146080246Y-125963984D01*
X145939281Y-125768050D01*
X145764331Y-125545465D01*
X145568643Y-125313034D01*
X145365469Y-125087560D01*
X145348268Y-125069244D01*
X145209276Y-124907693D01*
X145053086Y-124704230D01*
X144904140Y-124491480D01*
X144836558Y-124386219D01*
X144720217Y-124201499D01*
X144605462Y-124025871D01*
X144508062Y-123883150D01*
X144459201Y-123816288D01*
X144332064Y-123651904D01*
X144385565Y-123322459D01*
X144410751Y-123080455D01*
X144391685Y-122888132D01*
X144320880Y-122718116D01*
X144190850Y-122543034D01*
X144164144Y-122512828D01*
X144089024Y-122417049D01*
X143984337Y-122267225D01*
X143863407Y-122083136D01*
X143739559Y-121884558D01*
X143727937Y-121865346D01*
X143589810Y-121643009D01*
X143477744Y-121480689D01*
X143378950Y-121362374D01*
X143280643Y-121272051D01*
X143215924Y-121224185D01*
X143001345Y-121076167D01*
X142973785Y-120714134D01*
X142944850Y-120447778D01*
X142897578Y-120238737D01*
X142821778Y-120059339D01*
X142707264Y-119881912D01*
X142631420Y-119784192D01*
X142521851Y-119637312D01*
X142449209Y-119503394D01*
X142396927Y-119346384D01*
X142362739Y-119199496D01*
X142243118Y-118769122D01*
X142057807Y-118300173D01*
X141805463Y-117789782D01*
X141484742Y-117235082D01*
X141321985Y-116976809D01*
X141179794Y-116726480D01*
X141050421Y-116433591D01*
X140931651Y-116090472D01*
X140821274Y-115689448D01*
X140717076Y-115222848D01*
X140616845Y-114682998D01*
X140559601Y-114332942D01*
X140507124Y-113993941D01*
X140467558Y-113724623D01*
X140439612Y-113510482D01*
X140421995Y-113337010D01*
X140413413Y-113189702D01*
X140412577Y-113054052D01*
X140418194Y-112915554D01*
X140424668Y-112817479D01*
X140434610Y-112633035D01*
X140443112Y-112385011D01*
X140449688Y-112095200D01*
X140453854Y-111785397D01*
X140455125Y-111477395D01*
X140455083Y-111451429D01*
X140455389Y-111112529D01*
X140460312Y-110839438D01*
X140473443Y-110612589D01*
X140498370Y-110412420D01*
X140538683Y-110219366D01*
X140597972Y-110013862D01*
X140679826Y-109776345D01*
X140787834Y-109487250D01*
X140841007Y-109347974D01*
X141006242Y-108921889D01*
X141149349Y-108566370D01*
X141275092Y-108270951D01*
X141388231Y-108025162D01*
X141493528Y-107818538D01*
X141595745Y-107640610D01*
X141671585Y-107522186D01*
X141892289Y-107192534D01*
X142418178Y-107354547D01*
G37*
G36*
X108126976Y-107179245D02*
G01*
X108254256Y-107214509D01*
X108345411Y-107285667D01*
X108416542Y-107400453D01*
X108481774Y-107561165D01*
X108544519Y-107815767D01*
X108546770Y-108082692D01*
X108487404Y-108378646D01*
X108411537Y-108604284D01*
X108301138Y-108894785D01*
X108393610Y-109151790D01*
X108498338Y-109373204D01*
X108649684Y-109559179D01*
X108689427Y-109597260D01*
X108892773Y-109785727D01*
X109234286Y-109759027D01*
X109431787Y-109735100D01*
X109637261Y-109691176D01*
X109865759Y-109622478D01*
X110132332Y-109524228D01*
X110452029Y-109391650D01*
X110612924Y-109321421D01*
X110806003Y-109239101D01*
X110952364Y-109187424D01*
X111081924Y-109159395D01*
X111224601Y-109148024D01*
X111362496Y-109146219D01*
X111582955Y-109152401D01*
X111730142Y-109175667D01*
X111815572Y-109223094D01*
X111850762Y-109301761D01*
X111847228Y-109418744D01*
X111843759Y-109441992D01*
X111811094Y-109580619D01*
X111756221Y-109753762D01*
X111706180Y-109886051D01*
X111646322Y-110046396D01*
X111618082Y-110178925D01*
X111615292Y-110325902D01*
X111624116Y-110448236D01*
X111649079Y-110647789D01*
X111686285Y-110856577D01*
X111717979Y-110991962D01*
X111758861Y-111128249D01*
X111794201Y-111198800D01*
X111837201Y-111221172D01*
X111886477Y-111216080D01*
X112009485Y-111190856D01*
X112105126Y-111171267D01*
X112212984Y-111129247D01*
X112337812Y-111053983D01*
X112372102Y-111028284D01*
X112490191Y-110950727D01*
X112579112Y-110934991D01*
X112606892Y-110942589D01*
X112763630Y-110974144D01*
X112978208Y-110975625D01*
X113229143Y-110948539D01*
X113494952Y-110894397D01*
X113567227Y-110875126D01*
X113735815Y-110828402D01*
X113871482Y-110792068D01*
X113954621Y-110771316D01*
X113970461Y-110768404D01*
X113995420Y-110803351D01*
X113984006Y-110897239D01*
X113939949Y-111033633D01*
X113878667Y-111172669D01*
X113817114Y-111305738D01*
X113787679Y-111406368D01*
X113785548Y-111511248D01*
X113805910Y-111657064D01*
X113811112Y-111687683D01*
X113859008Y-111967299D01*
X113676255Y-112317683D01*
X113589979Y-112487037D01*
X113537487Y-112609297D01*
X113511864Y-112712425D01*
X113506196Y-112824381D01*
X113513569Y-112973124D01*
X113513694Y-112975017D01*
X113526106Y-113134698D01*
X113543212Y-113230295D01*
X113574045Y-113282994D01*
X113627637Y-113313978D01*
X113663896Y-113327288D01*
X113739735Y-113346882D01*
X113807409Y-113338484D01*
X113890957Y-113293285D01*
X114014418Y-113202479D01*
X114023397Y-113195560D01*
X114142778Y-113100810D01*
X114233528Y-113023862D01*
X114275433Y-112982028D01*
X114328187Y-112959963D01*
X114434823Y-112946991D01*
X114488779Y-112945547D01*
X114691565Y-112912449D01*
X114938052Y-112812477D01*
X115230426Y-112644610D01*
X115444616Y-112499667D01*
X115721165Y-112303231D01*
X115792311Y-112397551D01*
X115838066Y-112449113D01*
X115890778Y-112471396D01*
X115976275Y-112468182D01*
X116113409Y-112444576D01*
X116256558Y-112420502D01*
X116351022Y-112420272D01*
X116431672Y-112450198D01*
X116533383Y-112516595D01*
X116541097Y-112522002D01*
X116652256Y-112593879D01*
X116738758Y-112638951D01*
X116766280Y-112646723D01*
X116824932Y-112628568D01*
X116937108Y-112580515D01*
X117080653Y-112512184D01*
X117110420Y-112497311D01*
X117253217Y-112426657D01*
X117364327Y-112374034D01*
X117423795Y-112348832D01*
X117427975Y-112347900D01*
X117448640Y-112385888D01*
X117488065Y-112488529D01*
X117540025Y-112638832D01*
X117582744Y-112770307D01*
X117716649Y-113192714D01*
X117435265Y-113549382D01*
X117278326Y-113762202D01*
X117183552Y-113928176D01*
X117148654Y-114056449D01*
X117171343Y-114156170D01*
X117249332Y-114236484D01*
X117261337Y-114244624D01*
X117369564Y-114315537D01*
X117274238Y-114452306D01*
X117193639Y-114559896D01*
X117083686Y-114696823D01*
X116996239Y-114800663D01*
X116813565Y-115012251D01*
X116899408Y-115157744D01*
X116985251Y-115303237D01*
X116825049Y-115441721D01*
X116702173Y-115525471D01*
X116524731Y-115617982D01*
X116320406Y-115705114D01*
X116279315Y-115720446D01*
X116074329Y-115797268D01*
X115936392Y-115857466D01*
X115851433Y-115911039D01*
X115805379Y-115967987D01*
X115784158Y-116038312D01*
X115779078Y-116075931D01*
X115779339Y-116149602D01*
X115812717Y-116200541D01*
X115897774Y-116247820D01*
X115979160Y-116281501D01*
X116105782Y-116324636D01*
X116229852Y-116346505D01*
X116381651Y-116350207D01*
X116560772Y-116340995D01*
X116843289Y-116301960D01*
X117141614Y-116227152D01*
X117433266Y-116125020D01*
X117695760Y-116004012D01*
X117906613Y-115872573D01*
X117985547Y-115805681D01*
X118110756Y-115702483D01*
X118207203Y-115674707D01*
X118289441Y-115724198D01*
X118372021Y-115852803D01*
X118373077Y-115854841D01*
X118440437Y-115985101D01*
X118533160Y-115899890D01*
X118633393Y-115820020D01*
X118757247Y-115736194D01*
X118774107Y-115725919D01*
X118922331Y-115637159D01*
X119045071Y-115753454D01*
X119167811Y-115869748D01*
X119345082Y-115672290D01*
X119436945Y-115585774D01*
X119554732Y-115495842D01*
X119680515Y-115413231D01*
X119796362Y-115348678D01*
X119884345Y-115312922D01*
X119926534Y-115316698D01*
X119927899Y-115323261D01*
X119914116Y-115393485D01*
X119877347Y-115522746D01*
X119824466Y-115690094D01*
X119762345Y-115874578D01*
X119697856Y-116055248D01*
X119637872Y-116211154D01*
X119631620Y-116226435D01*
X119575913Y-116372018D01*
X119541132Y-116484156D01*
X119533322Y-116542676D01*
X119535783Y-116546329D01*
X119590877Y-116564667D01*
X119700868Y-116593978D01*
X119789160Y-116615435D01*
X119913376Y-116650572D01*
X119994760Y-116685092D01*
X120013278Y-116703536D01*
X119981743Y-116749506D01*
X119904237Y-116816410D01*
X119888157Y-116828154D01*
X119785064Y-116916859D01*
X119670339Y-117037164D01*
X119626011Y-117090257D01*
X119488985Y-117263267D01*
X119644846Y-117391741D01*
X119800707Y-117520214D01*
X119711526Y-117645457D01*
X119615810Y-117752044D01*
X119490216Y-117833963D01*
X119317000Y-117899686D01*
X119078419Y-117957690D01*
X119042591Y-117964923D01*
X118842350Y-118005155D01*
X118713294Y-118034149D01*
X118642859Y-118057260D01*
X118618479Y-118079845D01*
X118627589Y-118107261D01*
X118647956Y-118133147D01*
X118692771Y-118200562D01*
X118762538Y-118320074D01*
X118843370Y-118467752D01*
X118856238Y-118492083D01*
X118965673Y-118676819D01*
X119089194Y-118828776D01*
X119253880Y-118979790D01*
X119309609Y-119025085D01*
X119454851Y-119138783D01*
X119559027Y-119208930D01*
X119647143Y-119246050D01*
X119744208Y-119260663D01*
X119875228Y-119263291D01*
X119875755Y-119263292D01*
X120069038Y-119251709D01*
X120235403Y-119208433D01*
X120392613Y-119137919D01*
X120547919Y-119066525D01*
X120670758Y-119033102D01*
X120800332Y-119029219D01*
X120871648Y-119034899D01*
X121101849Y-119057489D01*
X121216727Y-118872358D01*
X121319706Y-118728129D01*
X121446778Y-118578237D01*
X121500905Y-118522359D01*
X121670206Y-118357491D01*
X121860202Y-118488212D01*
X121994662Y-118565562D01*
X122113339Y-118592540D01*
X122228897Y-118564073D01*
X122354002Y-118475087D01*
X122501321Y-118320510D01*
X122610958Y-118187517D01*
X122882084Y-117847684D01*
X122982274Y-117995126D01*
X123087970Y-118115530D01*
X123219506Y-118222532D01*
X123243343Y-118237490D01*
X123336956Y-118285371D01*
X123432783Y-118312143D01*
X123557369Y-118321903D01*
X123737259Y-118318748D01*
X123763263Y-118317719D01*
X124122302Y-118303026D01*
X124181216Y-118495126D01*
X124209354Y-118600329D01*
X124219758Y-118694440D01*
X124208838Y-118795499D01*
X124173005Y-118921548D01*
X124108669Y-119090629D01*
X124021074Y-119300044D01*
X123851116Y-119699415D01*
X123913823Y-120004185D01*
X123976531Y-120308955D01*
X123819862Y-120495397D01*
X123697625Y-120643320D01*
X123609540Y-120761263D01*
X123543420Y-120872368D01*
X123487077Y-120999774D01*
X123428322Y-121166620D01*
X123369184Y-121351025D01*
X123303827Y-121562431D01*
X123262967Y-121712059D01*
X123243654Y-121818975D01*
X123242935Y-121902249D01*
X123257859Y-121980945D01*
X123266750Y-122012706D01*
X123347268Y-122223794D01*
X123457456Y-122428021D01*
X123582645Y-122603074D01*
X123708168Y-122726644D01*
X123756220Y-122757193D01*
X123832219Y-122793681D01*
X123896950Y-122810647D01*
X123973040Y-122806596D01*
X124083116Y-122780029D01*
X124249805Y-122729449D01*
X124269806Y-122723217D01*
X124413025Y-122676170D01*
X124530737Y-122628636D01*
X124640014Y-122569840D01*
X124757926Y-122489005D01*
X124901544Y-122375357D01*
X125087937Y-122218121D01*
X125138090Y-122175142D01*
X125343994Y-122001280D01*
X125498716Y-121878345D01*
X125613301Y-121798809D01*
X125698799Y-121755145D01*
X125766254Y-121739825D01*
X125777434Y-121739496D01*
X125883795Y-121716658D01*
X126017156Y-121642936D01*
X126171808Y-121526978D01*
X126434455Y-121314460D01*
X126527622Y-121401986D01*
X126620788Y-121489511D01*
X126832237Y-121382362D01*
X126966798Y-121300478D01*
X127077620Y-121209335D01*
X127117684Y-121162276D01*
X127248225Y-121037495D01*
X127437896Y-120958332D01*
X127671372Y-120928621D01*
X127933330Y-120952196D01*
X127946846Y-120954832D01*
X128067608Y-121015371D01*
X128131169Y-121133450D01*
X128137742Y-121303420D01*
X128087546Y-121519633D01*
X127980793Y-121776439D01*
X127910391Y-121910911D01*
X127821690Y-122072597D01*
X127751062Y-122205031D01*
X127707283Y-122291532D01*
X127697311Y-122315900D01*
X127733943Y-122331886D01*
X127804034Y-122337143D01*
X127884227Y-122353702D01*
X127910757Y-122385565D01*
X127889944Y-122466181D01*
X127834100Y-122600525D01*
X127753122Y-122769723D01*
X127656901Y-122954898D01*
X127555333Y-123137176D01*
X127458312Y-123297681D01*
X127375732Y-123417539D01*
X127358720Y-123438684D01*
X127244904Y-123593055D01*
X127191893Y-123719379D01*
X127185042Y-123782685D01*
X127149165Y-123928954D01*
X127067647Y-124030585D01*
X126938370Y-124141158D01*
X126816491Y-124214086D01*
X126669061Y-124265374D01*
X126509128Y-124301872D01*
X126376124Y-124331420D01*
X126284930Y-124366809D01*
X126224208Y-124424106D01*
X126182618Y-124519376D01*
X126148821Y-124668686D01*
X126116391Y-124858328D01*
X126094080Y-125004358D01*
X126085540Y-125117366D01*
X126093616Y-125223270D01*
X126121155Y-125347985D01*
X126171000Y-125517427D01*
X126198414Y-125605423D01*
X126267272Y-125813699D01*
X126327849Y-125961931D01*
X126392110Y-126073018D01*
X126472020Y-126169859D01*
X126517528Y-126216124D01*
X126702202Y-126397367D01*
X127039672Y-126367655D01*
X127340843Y-126319890D01*
X127677646Y-126224869D01*
X128060539Y-126079240D01*
X128372010Y-125940523D01*
X128691400Y-125809229D01*
X129007099Y-125712836D01*
X129299212Y-125656046D01*
X129547844Y-125643558D01*
X129607194Y-125648670D01*
X129831765Y-125676729D01*
X129829463Y-125853239D01*
X129815695Y-126187376D01*
X129781057Y-126458310D01*
X129720976Y-126686643D01*
X129630876Y-126892980D01*
X129577803Y-126986657D01*
X129405122Y-127229580D01*
X129205255Y-127440580D01*
X128995778Y-127603817D01*
X128794264Y-127703453D01*
X128776332Y-127708989D01*
X128592388Y-127800258D01*
X128491056Y-127899033D01*
X128441137Y-127968589D01*
X128413118Y-128030740D01*
X128404543Y-128108340D01*
X128412957Y-128224243D01*
X128435906Y-128401303D01*
X128436573Y-128406187D01*
X128487059Y-128775717D01*
X128764538Y-128997540D01*
X129042017Y-129219363D01*
X129353090Y-129191456D01*
X129624197Y-129146440D01*
X129905124Y-129065295D01*
X129979193Y-129037405D01*
X130144417Y-128976786D01*
X130292583Y-128932098D01*
X130395382Y-128911709D01*
X130405926Y-128911261D01*
X130507352Y-128892115D01*
X130644435Y-128843149D01*
X130728236Y-128804538D01*
X130855371Y-128744994D01*
X130956567Y-128706254D01*
X130995077Y-128697816D01*
X131053406Y-128722156D01*
X131159006Y-128786885D01*
X131292077Y-128879561D01*
X131334804Y-128911261D01*
X131470713Y-129009706D01*
X131583288Y-129084136D01*
X131653513Y-129122213D01*
X131663753Y-129124706D01*
X131718357Y-129102941D01*
X131824647Y-129044904D01*
X131963141Y-128961483D01*
X132018455Y-128926486D01*
X132146578Y-128853319D01*
X132314980Y-128769713D01*
X132507578Y-128682174D01*
X132708290Y-128597208D01*
X132901033Y-128521320D01*
X133069726Y-128461017D01*
X133198286Y-128422802D01*
X133270631Y-128413183D01*
X133278789Y-128416661D01*
X133277870Y-128465141D01*
X133253155Y-128566729D01*
X133229408Y-128641830D01*
X133191909Y-128790038D01*
X133153909Y-129009828D01*
X133116931Y-129287427D01*
X133082500Y-129609063D01*
X133052141Y-129960964D01*
X133027378Y-130329359D01*
X133014435Y-130584052D01*
X133005399Y-130846542D01*
X133005443Y-131044903D01*
X133015707Y-131200015D01*
X133037332Y-131332756D01*
X133060401Y-131425567D01*
X133131935Y-131682862D01*
X133356790Y-131733182D01*
X133492095Y-131759208D01*
X133587680Y-131757641D01*
X133683492Y-131722127D01*
X133787797Y-131664632D01*
X133992652Y-131536686D01*
X134234983Y-131369998D01*
X134489031Y-131183190D01*
X134729036Y-130994886D01*
X134827803Y-130912745D01*
X134976534Y-130797555D01*
X135084757Y-130749453D01*
X135167430Y-130770616D01*
X135239512Y-130863223D01*
X135295633Y-130980902D01*
X135374293Y-131164409D01*
X135671891Y-131194295D01*
X135969489Y-131224182D01*
X136064807Y-131676208D01*
X136120987Y-131991632D01*
X136143221Y-132251695D01*
X136139674Y-132414077D01*
X136119222Y-132699919D01*
X136349750Y-132795468D01*
X136580278Y-132891016D01*
X136806490Y-132740821D01*
X136953763Y-132628134D01*
X137065964Y-132499718D01*
X137170892Y-132323298D01*
X137178199Y-132309252D01*
X137261433Y-132156227D01*
X137326128Y-132069137D01*
X137389336Y-132036308D01*
X137468112Y-132046070D01*
X137530887Y-132067874D01*
X137582063Y-132079721D01*
X137637711Y-132069195D01*
X137711365Y-132028164D01*
X137816560Y-131948493D01*
X137966831Y-131822051D01*
X138028185Y-131769050D01*
X138181759Y-131638135D01*
X138312612Y-131530698D01*
X138407101Y-131457657D01*
X138451580Y-131429934D01*
X138451936Y-131429916D01*
X138528144Y-131471201D01*
X138588331Y-131591774D01*
X138630562Y-131786717D01*
X138645191Y-131920841D01*
X138668185Y-132128542D01*
X138701893Y-132344503D01*
X138738931Y-132521602D01*
X138765197Y-132631981D01*
X138779310Y-132725870D01*
X138780148Y-132823439D01*
X138766589Y-132944857D01*
X138737511Y-133110294D01*
X138694038Y-133328840D01*
X138641238Y-133598911D01*
X138607459Y-133807864D01*
X138592460Y-133977758D01*
X138595998Y-134130651D01*
X138617833Y-134288602D01*
X138657721Y-134473670D01*
X138680461Y-134567474D01*
X138775126Y-134951586D01*
X138988251Y-135066612D01*
X139117878Y-135131204D01*
X139196181Y-135144230D01*
X139241529Y-135095913D01*
X139272287Y-134976476D01*
X139284197Y-134909076D01*
X139315113Y-134747859D01*
X139347854Y-134649812D01*
X139394644Y-134593363D01*
X139467706Y-134556939D01*
X139487798Y-134549722D01*
X139584611Y-134526565D01*
X139664708Y-134545682D01*
X139760684Y-134610187D01*
X139857916Y-134677388D01*
X139929270Y-134714446D01*
X139941381Y-134716975D01*
X139974899Y-134679888D01*
X140025259Y-134582166D01*
X140082144Y-134444113D01*
X140087811Y-134428824D01*
X140161537Y-134252852D01*
X140239336Y-134140132D01*
X140342178Y-134070223D01*
X140491033Y-134022688D01*
X140508823Y-134018479D01*
X140561589Y-134011457D01*
X140604947Y-134027463D01*
X140649442Y-134079626D01*
X140705616Y-134181077D01*
X140784015Y-134344943D01*
X140801940Y-134383455D01*
X140933328Y-134706060D01*
X141010851Y-134998325D01*
X141026756Y-135097703D01*
X141069968Y-135421083D01*
X140754984Y-135713322D01*
X140579056Y-135867702D01*
X140384249Y-136024877D01*
X140204336Y-136157968D01*
X140151412Y-136193705D01*
X139995631Y-136290718D01*
X139878556Y-136347400D01*
X139770292Y-136374244D01*
X139640941Y-136381743D01*
X139615349Y-136381849D01*
X139367873Y-136381849D01*
X139186140Y-136040772D01*
X139072846Y-135845758D01*
X138939998Y-135642979D01*
X138813564Y-135471729D01*
X138795548Y-135449740D01*
X138690433Y-135308958D01*
X138564830Y-135118005D01*
X138435571Y-134903498D01*
X138334233Y-134720312D01*
X138081776Y-134240839D01*
X137553325Y-133888992D01*
X137429984Y-133807814D01*
X137314378Y-133734788D01*
X137198237Y-133666075D01*
X137073288Y-133597836D01*
X136931260Y-133526233D01*
X136763881Y-133447427D01*
X136562879Y-133357581D01*
X136319982Y-133252856D01*
X136026920Y-133129413D01*
X135675419Y-132983413D01*
X135257208Y-132811019D01*
X135021742Y-132714235D01*
X133018609Y-131891323D01*
X132268296Y-131765361D01*
X131517984Y-131639398D01*
X131240505Y-131347497D01*
X131158664Y-131261909D01*
X131083534Y-131185565D01*
X131007615Y-131112340D01*
X130923408Y-131036108D01*
X130823414Y-130950740D01*
X130700134Y-130850110D01*
X130546069Y-130728093D01*
X130353720Y-130578561D01*
X130115588Y-130395387D01*
X129824175Y-130172446D01*
X129490252Y-129917552D01*
X129183099Y-129682152D01*
X128934919Y-129488962D01*
X128736000Y-129329480D01*
X128576628Y-129195207D01*
X128447088Y-129077645D01*
X128337667Y-128968292D01*
X128238651Y-128858649D01*
X128140326Y-128740216D01*
X128129896Y-128727237D01*
X127988341Y-128541837D01*
X127853504Y-128349807D01*
X127743205Y-128177325D01*
X127688217Y-128078385D01*
X127624852Y-127958689D01*
X127561444Y-127868102D01*
X127479736Y-127789266D01*
X127361472Y-127704825D01*
X127188396Y-127597420D01*
X127171876Y-127587460D01*
X126970817Y-127461204D01*
X126761410Y-127321253D01*
X126577246Y-127190354D01*
X126510540Y-127139664D01*
X126376414Y-127028119D01*
X126274249Y-126922555D01*
X126185586Y-126798987D01*
X126091963Y-126633430D01*
X126034127Y-126520673D01*
X125892963Y-126206777D01*
X125751151Y-125829172D01*
X125615880Y-125409164D01*
X125494341Y-124968061D01*
X125452988Y-124798221D01*
X125409133Y-124625114D01*
X125365522Y-124507786D01*
X125306264Y-124418174D01*
X125215469Y-124328217D01*
X125159184Y-124279376D01*
X125018089Y-124169624D01*
X124836014Y-124042553D01*
X124646974Y-123921646D01*
X124602353Y-123894982D01*
X124426322Y-123786818D01*
X124258890Y-123672262D01*
X124089260Y-123542095D01*
X123906636Y-123387098D01*
X123700219Y-123198051D01*
X123459212Y-122965735D01*
X123172819Y-122680930D01*
X123129580Y-122637445D01*
X122914649Y-122424377D01*
X122692922Y-122210380D01*
X122481114Y-122011184D01*
X122295944Y-121842518D01*
X122158887Y-121724031D01*
X121995129Y-121584365D01*
X121873862Y-121465158D01*
X121774973Y-121341512D01*
X121678350Y-121188532D01*
X121573738Y-120999679D01*
X121471352Y-120811887D01*
X121392074Y-120680664D01*
X121319008Y-120587151D01*
X121235260Y-120512489D01*
X121123935Y-120437819D01*
X121007625Y-120367758D01*
X120836750Y-120276459D01*
X120612876Y-120171437D01*
X120364230Y-120065268D01*
X120119040Y-119970529D01*
X120103446Y-119964905D01*
X119878130Y-119881335D01*
X119690156Y-119802652D01*
X119525281Y-119719154D01*
X119369264Y-119621136D01*
X119207860Y-119498896D01*
X119026828Y-119342730D01*
X118811925Y-119142933D01*
X118604538Y-118943704D01*
X118418993Y-118771166D01*
X118228301Y-118605863D01*
X118052732Y-118464636D01*
X117912557Y-118364323D01*
X117890856Y-118350833D01*
X117741964Y-118246613D01*
X117566071Y-118100954D01*
X117391157Y-117937739D01*
X117314553Y-117858882D01*
X117176726Y-117714025D01*
X117066683Y-117610768D01*
X116961113Y-117533699D01*
X116836703Y-117467403D01*
X116670144Y-117396468D01*
X116534118Y-117342865D01*
X116333451Y-117263115D01*
X116187361Y-117197198D01*
X116072728Y-117129404D01*
X115966434Y-117044023D01*
X115845360Y-116925343D01*
X115710178Y-116782957D01*
X115530233Y-116602856D01*
X115327828Y-116417927D01*
X115132174Y-116254118D01*
X115018219Y-116168264D01*
X114886517Y-116073775D01*
X114786299Y-115993495D01*
X114704503Y-115911281D01*
X114628070Y-115810991D01*
X114543938Y-115676483D01*
X114439047Y-115491614D01*
X114370740Y-115368000D01*
X114037423Y-114827551D01*
X113641200Y-114294118D01*
X113199925Y-113788559D01*
X112731450Y-113331732D01*
X112371896Y-113032802D01*
X112158325Y-112863301D01*
X111895340Y-112645675D01*
X111595428Y-112390604D01*
X111271075Y-112108766D01*
X110934767Y-111810840D01*
X110771093Y-111663751D01*
X110484804Y-111411994D01*
X110227871Y-111203067D01*
X109972686Y-111016202D01*
X109691644Y-110830631D01*
X109530050Y-110730158D01*
X108886653Y-110336261D01*
X108507194Y-109815946D01*
X108355203Y-109614150D01*
X108163426Y-109369567D01*
X107948797Y-109103222D01*
X107728248Y-108836141D01*
X107528405Y-108600580D01*
X107325017Y-108363883D01*
X107170266Y-108179647D01*
X107056787Y-108035891D01*
X106977214Y-107920632D01*
X106924181Y-107821886D01*
X106890323Y-107727673D01*
X106868274Y-107626008D01*
X106850668Y-107504909D01*
X106849511Y-107496150D01*
X106820509Y-107276165D01*
X107026361Y-107247853D01*
X107157045Y-107232714D01*
X107343983Y-107214643D01*
X107558234Y-107196320D01*
X107699636Y-107185459D01*
X107947470Y-107172139D01*
X108126976Y-107179245D01*
G37*
D11*
X173000000Y-95000000D03*
X112500000Y-191000000D03*
X52000000Y-95000000D03*
M02*
