G04 #@! TF.GenerationSoftware,KiCad,Pcbnew,7.0.10*
G04 #@! TF.CreationDate,2024-06-20T09:16:52-05:00*
G04 #@! TF.ProjectId,g0dzilla_vs,6730647a-696c-46c6-915f-76732e6b6963,1*
G04 #@! TF.SameCoordinates,Original*
G04 #@! TF.FileFunction,Soldermask,Top*
G04 #@! TF.FilePolarity,Negative*
%FSLAX46Y46*%
G04 Gerber Fmt 4.6, Leading zero omitted, Abs format (unit mm)*
G04 Created by KiCad (PCBNEW 7.0.10) date 2024-06-20 09:16:52*
%MOMM*%
%LPD*%
G01*
G04 APERTURE LIST*
%ADD10C,3.200000*%
G04 APERTURE END LIST*
G36*
X138754951Y-110260499D02*
G01*
X138760011Y-110263857D01*
X138871819Y-110359254D01*
X138918733Y-110448256D01*
X138898290Y-110512904D01*
X138843418Y-110532253D01*
X138811544Y-110503406D01*
X138765580Y-110425445D01*
X138717348Y-110324247D01*
X138684278Y-110241046D01*
X138693927Y-110223881D01*
X138754951Y-110260499D01*
G37*
G36*
X138379850Y-111255848D02*
G01*
X138478252Y-111300679D01*
X138528445Y-111359339D01*
X138522994Y-111402264D01*
X138451910Y-111445356D01*
X138344324Y-111438376D01*
X138230414Y-111384578D01*
X138209496Y-111368460D01*
X138131207Y-111293307D01*
X138128847Y-111253383D01*
X138205818Y-111238875D01*
X138254698Y-111237984D01*
X138379850Y-111255848D01*
G37*
G36*
X138529664Y-116636333D02*
G01*
X138625680Y-116671474D01*
X138702163Y-116718057D01*
X138741705Y-116761355D01*
X138726896Y-116786644D01*
X138709568Y-116788513D01*
X138633416Y-116814033D01*
X138540336Y-116872942D01*
X138420848Y-116933915D01*
X138305547Y-116955661D01*
X138177479Y-116954901D01*
X138294874Y-116891214D01*
X138390106Y-116806674D01*
X138412269Y-116717539D01*
X138421948Y-116641283D01*
X138468560Y-116624433D01*
X138529664Y-116636333D01*
G37*
G36*
X141267864Y-111446571D02*
G01*
X141207424Y-111500833D01*
X141091911Y-111572398D01*
X140962882Y-111650160D01*
X140865427Y-111715744D01*
X140822585Y-111752869D01*
X140773112Y-111795403D01*
X140735943Y-111765535D01*
X140723949Y-111676236D01*
X140725447Y-111654960D01*
X140739450Y-111574808D01*
X140776203Y-111526128D01*
X140857330Y-111492232D01*
X140973614Y-111463423D01*
X141151409Y-111428280D01*
X141249343Y-111422525D01*
X141267864Y-111446571D01*
G37*
G36*
X138432305Y-114635349D02*
G01*
X138525461Y-114760794D01*
X138538294Y-114793668D01*
X138576823Y-114923765D01*
X138572252Y-114985212D01*
X138519085Y-114986010D01*
X138433614Y-114946075D01*
X138345171Y-114880627D01*
X138254829Y-114789904D01*
X138184457Y-114725363D01*
X138110807Y-114711799D01*
X138013248Y-114751645D01*
X137891376Y-114832719D01*
X137818997Y-114860744D01*
X137784653Y-114850698D01*
X137786557Y-114802780D01*
X137849947Y-114738255D01*
X137956452Y-114670715D01*
X138087699Y-114613754D01*
X138118140Y-114603971D01*
X138295489Y-114582603D01*
X138432305Y-114635349D01*
G37*
G36*
X141372717Y-113963861D02*
G01*
X141425186Y-113973946D01*
X141564651Y-114005977D01*
X141663367Y-114036877D01*
X141699328Y-114059219D01*
X141664974Y-114094208D01*
X141575071Y-114155884D01*
X141453866Y-114228132D01*
X141298012Y-114326904D01*
X141150860Y-114438303D01*
X141069541Y-114512857D01*
X140973828Y-114600271D01*
X140921103Y-114615339D01*
X140912806Y-114602919D01*
X140899157Y-114532035D01*
X140882162Y-114406489D01*
X140869135Y-114288555D01*
X140843338Y-114030724D01*
X140997191Y-113975090D01*
X141104756Y-113946079D01*
X141218913Y-113942365D01*
X141372717Y-113963861D01*
G37*
G36*
X139357268Y-119892629D02*
G01*
X139384105Y-119953642D01*
X139410759Y-120066843D01*
X139420855Y-120129708D01*
X139433673Y-120251705D01*
X139424416Y-120311404D01*
X139387440Y-120330288D01*
X139367904Y-120331227D01*
X139274008Y-120338159D01*
X139144552Y-120354685D01*
X139116639Y-120358992D01*
X138945883Y-120386288D01*
X139027362Y-120294315D01*
X139081874Y-120209197D01*
X139072807Y-120124898D01*
X139063090Y-120101930D01*
X139041608Y-120033072D01*
X139067562Y-119985846D01*
X139156280Y-119935301D01*
X139169288Y-119929058D01*
X139274138Y-119891270D01*
X139347012Y-119886897D01*
X139357268Y-119892629D01*
G37*
G36*
X141276378Y-109162405D02*
G01*
X141288446Y-109164695D01*
X141428229Y-109183440D01*
X141532568Y-109188908D01*
X141617260Y-109206537D01*
X141631466Y-109250123D01*
X141580178Y-109305713D01*
X141472050Y-109358090D01*
X141366081Y-109405583D01*
X141238477Y-109476915D01*
X141114591Y-109556035D01*
X141019773Y-109626891D01*
X140980729Y-109669160D01*
X140939979Y-109698741D01*
X140895314Y-109691350D01*
X140888236Y-109674576D01*
X140907284Y-109626326D01*
X140957215Y-109525448D01*
X141026975Y-109394228D01*
X141103766Y-109259615D01*
X141159452Y-109186183D01*
X141211250Y-109158818D01*
X141276378Y-109162405D01*
G37*
G36*
X137749435Y-113672723D02*
G01*
X137848737Y-113702947D01*
X137946333Y-113754394D01*
X137977593Y-113777984D01*
X138099233Y-113852049D01*
X138221518Y-113884560D01*
X138228465Y-113884706D01*
X138349109Y-113907622D01*
X138432906Y-113965265D01*
X138454958Y-114021311D01*
X138427512Y-114053725D01*
X138373716Y-114039509D01*
X138348236Y-114012774D01*
X138289618Y-113980187D01*
X138213710Y-113970084D01*
X138102374Y-113943780D01*
X137997027Y-113884706D01*
X137890263Y-113823584D01*
X137792748Y-113799328D01*
X137692285Y-113772291D01*
X137643866Y-113735295D01*
X137626744Y-113686306D01*
X137668686Y-113666312D01*
X137749435Y-113672723D01*
G37*
G36*
X138917632Y-118143494D02*
G01*
X139010242Y-118167227D01*
X139046846Y-118220770D01*
X139052605Y-118307058D01*
X139041348Y-118409688D01*
X138993369Y-118459148D01*
X138935210Y-118476759D01*
X138828386Y-118501250D01*
X138677998Y-118536753D01*
X138568905Y-118562951D01*
X138404083Y-118601312D01*
X138305469Y-118618871D01*
X138256819Y-118616980D01*
X138241886Y-118596991D01*
X138241513Y-118590212D01*
X138275550Y-118551155D01*
X138360494Y-118493952D01*
X138393732Y-118475255D01*
X138526742Y-118385118D01*
X138651398Y-118272704D01*
X138664305Y-118258482D01*
X138756544Y-118170027D01*
X138841633Y-118139214D01*
X138917632Y-118143494D01*
G37*
G36*
X141022895Y-124033044D02*
G01*
X141109765Y-124106042D01*
X141144370Y-124192438D01*
X141118480Y-124265188D01*
X141069664Y-124335992D01*
X141021355Y-124377929D01*
X140949519Y-124406943D01*
X140836072Y-124427086D01*
X140662931Y-124442411D01*
X140568068Y-124448384D01*
X140376985Y-124459044D01*
X140261282Y-124462783D01*
X140211132Y-124458163D01*
X140216713Y-124443746D01*
X140268201Y-124418092D01*
X140291413Y-124407866D01*
X140401879Y-124340024D01*
X140477310Y-124258970D01*
X140483513Y-124246886D01*
X140557065Y-124159236D01*
X140681381Y-124077258D01*
X140822867Y-124019762D01*
X140917203Y-124004068D01*
X141022895Y-124033044D01*
G37*
G36*
X140882607Y-109915121D02*
G01*
X140888236Y-109991463D01*
X140900920Y-110090449D01*
X140946500Y-110126546D01*
X140966499Y-110128068D01*
X141046797Y-110141219D01*
X141071720Y-110155025D01*
X141075897Y-110214348D01*
X141026974Y-110310525D01*
X140936208Y-110424309D01*
X140882883Y-110477846D01*
X140781434Y-110616079D01*
X140760168Y-110720789D01*
X140746502Y-110823948D01*
X140713846Y-110875058D01*
X140674713Y-110860916D01*
X140657919Y-110828701D01*
X140635175Y-110722242D01*
X140641620Y-110582744D01*
X140679026Y-110392753D01*
X140716990Y-110247546D01*
X140774812Y-110058283D01*
X140823466Y-109937132D01*
X140860287Y-109888083D01*
X140882607Y-109915121D01*
G37*
G36*
X107900885Y-107442412D02*
G01*
X108007992Y-107457673D01*
X108050175Y-107474162D01*
X108081633Y-107518717D01*
X108070208Y-107602251D01*
X108055688Y-107647087D01*
X108030229Y-107794598D01*
X108031845Y-107985966D01*
X108058934Y-108184629D01*
X108083496Y-108281765D01*
X108085384Y-108357536D01*
X108038148Y-108380513D01*
X107957410Y-108353555D01*
X107858792Y-108279520D01*
X107813379Y-108232333D01*
X107643781Y-108024808D01*
X107520425Y-107843681D01*
X107446544Y-107696325D01*
X107425370Y-107590114D01*
X107460134Y-107532421D01*
X107502859Y-107524034D01*
X107584581Y-107504432D01*
X107612101Y-107481345D01*
X107669088Y-107454803D01*
X107776633Y-107441640D01*
X107900885Y-107442412D01*
G37*
G36*
X138920606Y-107982942D02*
G01*
X139079652Y-108126475D01*
X139210426Y-108200193D01*
X139308384Y-108202703D01*
X139368983Y-108132610D01*
X139372773Y-108121681D01*
X139409785Y-108052730D01*
X139436585Y-108036303D01*
X139493274Y-108069124D01*
X139558627Y-108145925D01*
X139610290Y-108234207D01*
X139625910Y-108301475D01*
X139623566Y-108308127D01*
X139553206Y-108428253D01*
X139463332Y-108564096D01*
X139367954Y-108696683D01*
X139281079Y-108807043D01*
X139216716Y-108876204D01*
X139193856Y-108890084D01*
X139138190Y-108858711D01*
X139059998Y-108779984D01*
X139030290Y-108743195D01*
X138898932Y-108522507D01*
X138795293Y-108252847D01*
X138733314Y-107972213D01*
X138704431Y-107758824D01*
X138920606Y-107982942D01*
G37*
G36*
X139991957Y-121647074D02*
G01*
X140035511Y-121720931D01*
X140074433Y-121849419D01*
X140061206Y-121920080D01*
X139986479Y-121948965D01*
X139900317Y-121952942D01*
X139736428Y-121969119D01*
X139538747Y-122011744D01*
X139336998Y-122071953D01*
X139160908Y-122140883D01*
X139040766Y-122209226D01*
X138949241Y-122275372D01*
X138898551Y-122290580D01*
X138866865Y-122262057D01*
X138880568Y-122213806D01*
X138938406Y-122129524D01*
X138974353Y-122086952D01*
X139076280Y-121991987D01*
X139163860Y-121960666D01*
X139205566Y-121964068D01*
X139299463Y-121954545D01*
X139435291Y-121893794D01*
X139592814Y-121797661D01*
X139733858Y-121709636D01*
X139852318Y-121644056D01*
X139926717Y-121612607D01*
X139935117Y-121611429D01*
X139991957Y-121647074D01*
G37*
G36*
X143862400Y-118647874D02*
G01*
X143868244Y-118648737D01*
X143977164Y-118673129D01*
X144005064Y-118702900D01*
X143950812Y-118739999D01*
X143813277Y-118786375D01*
X143783474Y-118794784D01*
X143657069Y-118848875D01*
X143513867Y-118936981D01*
X143448595Y-118986874D01*
X143353901Y-119061720D01*
X143273471Y-119106006D01*
X143179596Y-119127722D01*
X143044565Y-119134857D01*
X142933272Y-119135463D01*
X142763679Y-119133390D01*
X142662372Y-119124496D01*
X142612308Y-119104769D01*
X142596439Y-119070198D01*
X142595799Y-119056031D01*
X142613432Y-119004884D01*
X142678978Y-118973021D01*
X142807153Y-118951567D01*
X142948763Y-118920860D01*
X143130786Y-118862440D01*
X143317848Y-118787916D01*
X143349579Y-118773570D01*
X143525267Y-118696474D01*
X143651979Y-118653995D01*
X143755695Y-118639880D01*
X143862400Y-118647874D01*
G37*
G36*
X142585904Y-116635372D02*
G01*
X142569286Y-116674031D01*
X142507391Y-116757606D01*
X142414603Y-116869940D01*
X142305307Y-116994876D01*
X142193888Y-117116257D01*
X142094730Y-117217927D01*
X142022219Y-117283729D01*
X141994314Y-117299832D01*
X141961177Y-117263497D01*
X141948161Y-117203782D01*
X141940076Y-117085748D01*
X141936562Y-117025602D01*
X141903951Y-116943004D01*
X141823142Y-116927707D01*
X141740833Y-116958954D01*
X141657170Y-116984056D01*
X141580863Y-116945154D01*
X141564881Y-116931201D01*
X141507965Y-116871952D01*
X141514450Y-116833037D01*
X141556441Y-116798858D01*
X141708524Y-116722156D01*
X141883541Y-116683691D01*
X142043510Y-116690238D01*
X142088032Y-116704050D01*
X142186767Y-116730982D01*
X142289179Y-116718503D01*
X142387014Y-116683957D01*
X142497994Y-116645849D01*
X142572310Y-116632008D01*
X142585904Y-116635372D01*
G37*
G36*
X142747955Y-129676952D02*
G01*
X142872646Y-129719968D01*
X142926639Y-129741155D01*
X143156361Y-129837974D01*
X143344509Y-129927698D01*
X143480221Y-130004438D01*
X143552633Y-130062303D01*
X143561266Y-130085211D01*
X143516071Y-130107443D01*
X143407610Y-130126809D01*
X143257989Y-130139560D01*
X143234627Y-130140619D01*
X143075100Y-130151363D01*
X142947876Y-130167834D01*
X142878157Y-130186664D01*
X142875185Y-130188651D01*
X142815309Y-130206685D01*
X142691476Y-130225893D01*
X142525011Y-130243323D01*
X142425042Y-130250949D01*
X142019496Y-130277933D01*
X142211597Y-130173812D01*
X142375329Y-130098181D01*
X142553409Y-130034483D01*
X142606603Y-130019800D01*
X142755955Y-129974624D01*
X142827139Y-129926460D01*
X142827105Y-129865644D01*
X142771027Y-129791148D01*
X142702557Y-129710804D01*
X142693062Y-129673318D01*
X142747955Y-129676952D01*
G37*
G36*
X144145605Y-131671600D02*
G01*
X144145007Y-131877528D01*
X144094283Y-132014765D01*
X143994354Y-132082563D01*
X143846144Y-132080175D01*
X143701988Y-132031053D01*
X143561088Y-131979802D01*
X143438685Y-131970472D01*
X143316085Y-131990030D01*
X143164278Y-132041770D01*
X143040828Y-132117415D01*
X143020492Y-132136625D01*
X142945447Y-132210550D01*
X142893152Y-132233025D01*
X142830053Y-132216782D01*
X142819916Y-132212737D01*
X142773600Y-132154002D01*
X142774650Y-132052737D01*
X142820235Y-131935476D01*
X142855031Y-131883909D01*
X142952428Y-131798609D01*
X143081727Y-131771638D01*
X143098694Y-131771429D01*
X143225858Y-131751724D01*
X143343350Y-131681632D01*
X143405091Y-131626646D01*
X143503436Y-131543474D01*
X143602187Y-131494149D01*
X143734347Y-131465451D01*
X143838200Y-131453162D01*
X144120098Y-131424460D01*
X144145605Y-131671600D01*
G37*
G36*
X138427093Y-111775791D02*
G01*
X138454958Y-111833111D01*
X138435345Y-111914841D01*
X138412246Y-111942368D01*
X138376804Y-111996812D01*
X138337102Y-112103467D01*
X138321800Y-112158333D01*
X138285546Y-112271096D01*
X138248555Y-112338978D01*
X138234267Y-112347900D01*
X138193957Y-112312327D01*
X138143414Y-112223980D01*
X138130565Y-112194960D01*
X138084248Y-112099523D01*
X138045500Y-112072354D01*
X138000424Y-112096993D01*
X137910359Y-112134632D01*
X137810370Y-112142532D01*
X137715203Y-112151105D01*
X137686555Y-112199150D01*
X137657211Y-112272050D01*
X137583632Y-112289062D01*
X137487496Y-112248565D01*
X137448698Y-112216951D01*
X137343253Y-112117891D01*
X137682357Y-112002840D01*
X137853322Y-111940648D01*
X138003226Y-111878682D01*
X138105150Y-111828259D01*
X138119641Y-111819021D01*
X138234888Y-111763545D01*
X138345619Y-111749482D01*
X138427093Y-111775791D01*
G37*
G36*
X140587064Y-134667711D02*
G01*
X140642713Y-134759868D01*
X140704886Y-134883785D01*
X140762375Y-135015184D01*
X140803968Y-135129783D01*
X140818457Y-135203302D01*
X140816897Y-135211543D01*
X140762894Y-135274366D01*
X140648068Y-135361425D01*
X140489190Y-135461335D01*
X140303030Y-135562712D01*
X140289634Y-135569458D01*
X140136458Y-135661388D01*
X139986842Y-135774315D01*
X139948950Y-135808438D01*
X139839382Y-135898552D01*
X139763863Y-135922690D01*
X139737854Y-135913643D01*
X139705568Y-135851948D01*
X139689172Y-135737143D01*
X139688544Y-135599984D01*
X139703561Y-135471223D01*
X139734101Y-135381615D01*
X139740008Y-135373458D01*
X139803837Y-135340043D01*
X139918497Y-135311672D01*
X139974759Y-135303584D01*
X140182035Y-135240876D01*
X140347423Y-135112617D01*
X140455878Y-134933132D01*
X140485945Y-134816866D01*
X140509984Y-134704901D01*
X140538144Y-134638999D01*
X140549150Y-134631597D01*
X140587064Y-134667711D01*
G37*
G36*
X143973157Y-133403336D02*
G01*
X144144260Y-133421468D01*
X144243415Y-133457753D01*
X144284045Y-133529282D01*
X144279573Y-133653147D01*
X144259269Y-133767638D01*
X144228759Y-133909406D01*
X144197587Y-133988811D01*
X144149951Y-134027513D01*
X144070050Y-134047174D01*
X144053297Y-134049986D01*
X143917944Y-134069951D01*
X143838125Y-134069236D01*
X143785395Y-134042561D01*
X143736964Y-133991261D01*
X143627337Y-133924549D01*
X143467969Y-133907003D01*
X143280114Y-133940365D01*
X143247132Y-133951135D01*
X143145047Y-133973124D01*
X143046620Y-133953120D01*
X142953243Y-133908446D01*
X142814547Y-133851790D01*
X142677010Y-133821890D01*
X142649792Y-133820505D01*
X142542423Y-133812323D01*
X142513263Y-133790709D01*
X142557025Y-133760055D01*
X142668421Y-133724755D01*
X142798572Y-133696874D01*
X142988705Y-133652215D01*
X143208425Y-133586434D01*
X143406891Y-133515020D01*
X143596782Y-133444961D01*
X143745890Y-133408729D01*
X143888542Y-133399553D01*
X143973157Y-133403336D01*
G37*
G36*
X151435205Y-130328038D02*
G01*
X151429276Y-130364824D01*
X151376963Y-130452156D01*
X151287562Y-130575859D01*
X151201815Y-130683916D01*
X151049490Y-130880546D01*
X150957471Y-131027226D01*
X150921876Y-131130305D01*
X150921160Y-131142680D01*
X150896248Y-131248374D01*
X150832096Y-131385695D01*
X150742490Y-131534562D01*
X150641213Y-131674899D01*
X150542050Y-131786627D01*
X150458787Y-131849667D01*
X150430883Y-131856807D01*
X150385008Y-131826150D01*
X150299193Y-131743651D01*
X150187598Y-131623521D01*
X150112243Y-131537044D01*
X149981855Y-131380877D01*
X149861666Y-131231648D01*
X149770213Y-131112587D01*
X149742263Y-131073412D01*
X149644502Y-130929544D01*
X149794056Y-130784856D01*
X149943609Y-130640169D01*
X150151566Y-130755963D01*
X150359523Y-130871758D01*
X150586484Y-130753878D01*
X150743855Y-130670398D01*
X150932821Y-130567695D01*
X151101189Y-130474305D01*
X151243851Y-130399172D01*
X151360341Y-130347034D01*
X151429162Y-130327303D01*
X151435205Y-130328038D01*
G37*
G36*
X113467500Y-111333508D02*
G01*
X113476432Y-111445409D01*
X113483549Y-111599926D01*
X113485095Y-111651393D01*
X113488197Y-111824573D01*
X113481315Y-111938923D01*
X113456937Y-112020957D01*
X113407550Y-112097188D01*
X113334051Y-112184429D01*
X113236168Y-112309384D01*
X113159031Y-112429272D01*
X113131549Y-112486639D01*
X113096373Y-112558555D01*
X113040776Y-112593112D01*
X112937042Y-112603594D01*
X112886642Y-112604034D01*
X112731610Y-112590035D01*
X112631782Y-112542685D01*
X112606723Y-112518656D01*
X112513469Y-112453348D01*
X112433978Y-112433278D01*
X112346684Y-112399850D01*
X112312908Y-112331311D01*
X112265848Y-112241792D01*
X112177282Y-112135797D01*
X112134300Y-112094996D01*
X111981285Y-111960646D01*
X112272660Y-111686538D01*
X112445051Y-111531791D01*
X112566400Y-111440759D01*
X112640167Y-111411438D01*
X112669812Y-111441824D01*
X112670757Y-111456099D01*
X112707413Y-111485486D01*
X112809395Y-111480735D01*
X112964718Y-111443944D01*
X113161398Y-111377210D01*
X113194489Y-111364448D01*
X113325657Y-111316710D01*
X113421541Y-111288598D01*
X113458316Y-111285599D01*
X113467500Y-111333508D01*
G37*
G36*
X142554219Y-127829957D02*
G01*
X142598795Y-127891827D01*
X142655829Y-127988377D01*
X142710668Y-128092054D01*
X142748659Y-128175306D01*
X142756340Y-128209991D01*
X142711267Y-128205975D01*
X142615391Y-128178698D01*
X142572820Y-128164153D01*
X142436023Y-128124564D01*
X142312481Y-128103142D01*
X142292173Y-128102042D01*
X142163271Y-128134964D01*
X142025940Y-128222051D01*
X141907555Y-128339963D01*
X141835494Y-128465358D01*
X141827395Y-128498315D01*
X141806051Y-128633782D01*
X141402343Y-128646173D01*
X141232078Y-128649051D01*
X141102784Y-128646704D01*
X141031513Y-128639702D01*
X141023688Y-128633512D01*
X141075203Y-128614760D01*
X141188165Y-128588312D01*
X141339634Y-128559445D01*
X141363362Y-128555384D01*
X141677984Y-128502308D01*
X141677984Y-128342795D01*
X141686142Y-128241598D01*
X141723954Y-128172933D01*
X141811421Y-128108257D01*
X141863769Y-128077691D01*
X141979008Y-128016502D01*
X142065368Y-127978390D01*
X142090229Y-127972101D01*
X142150085Y-127955569D01*
X142257222Y-127913451D01*
X142325794Y-127883318D01*
X142443693Y-127838841D01*
X142529783Y-127823198D01*
X142554219Y-127829957D01*
G37*
G36*
X135131080Y-131097879D02*
G01*
X135163815Y-131201303D01*
X135217817Y-131345663D01*
X135290062Y-131475654D01*
X135303224Y-131493481D01*
X135368014Y-131563990D01*
X135436209Y-131593685D01*
X135541290Y-131592987D01*
X135601903Y-131586443D01*
X135808236Y-131562006D01*
X135808236Y-132003003D01*
X135803380Y-132239818D01*
X135788478Y-132396330D01*
X135763029Y-132477080D01*
X135754874Y-132486030D01*
X135650083Y-132535709D01*
X135520091Y-132559789D01*
X135424034Y-132551175D01*
X135306356Y-132481355D01*
X135228010Y-132381738D01*
X135210589Y-132312794D01*
X135197492Y-132224917D01*
X135163920Y-132092483D01*
X135135883Y-132001547D01*
X135079294Y-131859172D01*
X135011453Y-131777189D01*
X134908354Y-131739346D01*
X134745992Y-131729388D01*
X134733828Y-131729323D01*
X134558173Y-131714297D01*
X134461909Y-131671013D01*
X134442185Y-131624066D01*
X134478333Y-131543975D01*
X134564687Y-131471204D01*
X134668108Y-131431611D01*
X134691009Y-131429916D01*
X134765806Y-131405291D01*
X134783698Y-131366867D01*
X134816767Y-131301956D01*
X134896779Y-131231517D01*
X134901093Y-131228714D01*
X134999817Y-131155854D01*
X135067620Y-131090068D01*
X135102152Y-131063682D01*
X135131080Y-131097879D01*
G37*
G36*
X138298832Y-132056225D02*
G01*
X138323174Y-132160000D01*
X138345630Y-132290039D01*
X138388883Y-132430327D01*
X138457241Y-132554332D01*
X138459803Y-132557640D01*
X138505035Y-132622984D01*
X138526047Y-132688432D01*
X138525221Y-132779831D01*
X138504936Y-132923027D01*
X138497539Y-132967366D01*
X138468136Y-133117579D01*
X138438233Y-133231469D01*
X138414030Y-133285662D01*
X138412881Y-133286513D01*
X138354894Y-133283431D01*
X138261649Y-133246825D01*
X138256628Y-133244239D01*
X138095404Y-133188201D01*
X137929990Y-133196446D01*
X137786693Y-133244202D01*
X137688098Y-133284326D01*
X137632201Y-133305014D01*
X137627980Y-133305838D01*
X137587810Y-133293000D01*
X137487573Y-133261589D01*
X137348745Y-133218334D01*
X137345042Y-133217183D01*
X137142251Y-133142900D01*
X137023703Y-133070123D01*
X136988412Y-132995255D01*
X137035396Y-132914699D01*
X137163672Y-132824856D01*
X137228303Y-132790188D01*
X137351582Y-132706913D01*
X137449474Y-132606394D01*
X137465389Y-132582197D01*
X137552055Y-132477659D01*
X137674006Y-132424989D01*
X137820115Y-132412348D01*
X137914507Y-132387464D01*
X137978103Y-132300424D01*
X137985837Y-132282590D01*
X138060681Y-132163932D01*
X138158674Y-132068445D01*
X138227055Y-132022861D01*
X138270283Y-132014650D01*
X138298832Y-132056225D01*
G37*
G36*
X141822017Y-125546053D02*
G01*
X141823171Y-125549057D01*
X141861511Y-125676692D01*
X141888007Y-125815015D01*
X141900055Y-125939579D01*
X141895055Y-126025937D01*
X141876594Y-126051093D01*
X141815916Y-126079626D01*
X141750840Y-126136836D01*
X141665207Y-126196866D01*
X141553778Y-126198862D01*
X141534843Y-126195356D01*
X141433920Y-126165996D01*
X141376694Y-126132350D01*
X141375752Y-126130957D01*
X141308579Y-126094506D01*
X141199576Y-126101029D01*
X141074083Y-126140795D01*
X140957442Y-126204076D01*
X140874992Y-126281141D01*
X140852075Y-126332026D01*
X140818406Y-126430094D01*
X140768363Y-126444468D01*
X140702508Y-126374991D01*
X140701497Y-126373453D01*
X140625247Y-126295265D01*
X140548258Y-126264538D01*
X140461154Y-126246964D01*
X140448782Y-126207821D01*
X140511506Y-126167481D01*
X140546350Y-126157897D01*
X140641754Y-126119574D01*
X140674015Y-126049130D01*
X140674790Y-126029263D01*
X140711494Y-125932359D01*
X140802617Y-125838518D01*
X140919681Y-125771224D01*
X141010719Y-125752269D01*
X141101044Y-125717811D01*
X141142021Y-125671280D01*
X141223256Y-125604204D01*
X141383495Y-125554127D01*
X141410330Y-125548901D01*
X141552733Y-125519477D01*
X141668525Y-125489939D01*
X141709407Y-125476139D01*
X141775164Y-125474444D01*
X141822017Y-125546053D01*
G37*
G36*
X129652002Y-125911493D02*
G01*
X129636200Y-125948181D01*
X129617369Y-126027716D01*
X129602285Y-126166247D01*
X129593576Y-126337401D01*
X129592675Y-126384541D01*
X129588358Y-126739334D01*
X129389894Y-126949613D01*
X129289697Y-127060961D01*
X129218357Y-127150140D01*
X129191429Y-127197554D01*
X129153948Y-127228146D01*
X129061345Y-127255846D01*
X129036722Y-127260321D01*
X128895829Y-127303869D01*
X128783978Y-127375343D01*
X128725408Y-127457713D01*
X128721849Y-127481537D01*
X128682069Y-127515300D01*
X128573672Y-127551188D01*
X128425475Y-127581643D01*
X128228205Y-127612168D01*
X128096140Y-127624444D01*
X128010668Y-127616489D01*
X127953179Y-127586316D01*
X127905062Y-127531943D01*
X127900461Y-127525666D01*
X127819378Y-127451674D01*
X127681815Y-127361486D01*
X127511695Y-127267628D01*
X127332940Y-127182626D01*
X127169472Y-127119007D01*
X127075329Y-127093598D01*
X126967014Y-127058347D01*
X126936175Y-127002691D01*
X126981879Y-126918833D01*
X127046303Y-126851116D01*
X127218032Y-126726700D01*
X127447231Y-126617860D01*
X127706049Y-126537075D01*
X127784568Y-126520316D01*
X127998311Y-126450440D01*
X128177749Y-126323841D01*
X128398005Y-126160540D01*
X128647285Y-126049353D01*
X128945838Y-125982432D01*
X129105028Y-125964373D01*
X129285846Y-125945938D01*
X129444651Y-125924794D01*
X129553838Y-125904762D01*
X129572159Y-125899744D01*
X129643722Y-125883334D01*
X129652002Y-125911493D01*
G37*
G36*
X107651620Y-142075809D02*
G01*
X107704024Y-142141233D01*
X107754932Y-142234774D01*
X107783196Y-142313267D01*
X107818294Y-142424609D01*
X107867903Y-142556089D01*
X107872867Y-142568090D01*
X107935735Y-142718555D01*
X108049515Y-142527765D01*
X108163295Y-142336975D01*
X108219534Y-142529076D01*
X108248707Y-142645599D01*
X108249874Y-142735056D01*
X108218482Y-142834159D01*
X108168306Y-142942095D01*
X108038799Y-143255452D01*
X107977258Y-143530155D01*
X107982851Y-143778110D01*
X108054748Y-144011221D01*
X108088836Y-144079511D01*
X108129059Y-144166883D01*
X108138131Y-144215480D01*
X108137306Y-144216589D01*
X108094585Y-144206415D01*
X108005303Y-144161558D01*
X107951718Y-144130185D01*
X107797139Y-144056733D01*
X107626793Y-144004604D01*
X107590757Y-143997961D01*
X107406309Y-143963962D01*
X107289560Y-143922844D01*
X107222897Y-143864077D01*
X107188709Y-143777134D01*
X107184109Y-143754855D01*
X107156428Y-143663034D01*
X107100458Y-143602933D01*
X106991911Y-143551700D01*
X106952941Y-143537321D01*
X106803860Y-143466696D01*
X106668885Y-143375324D01*
X106629126Y-143338993D01*
X106509440Y-143214068D01*
X106896763Y-143223757D01*
X107112356Y-143224604D01*
X107268090Y-143206664D01*
X107375687Y-143157932D01*
X107446867Y-143066404D01*
X107493350Y-142920075D01*
X107526857Y-142706941D01*
X107543520Y-142561342D01*
X107565853Y-142368831D01*
X107587050Y-142209761D01*
X107604546Y-142102019D01*
X107614845Y-142063867D01*
X107651620Y-142075809D01*
G37*
G36*
X146167421Y-120899914D02*
G01*
X146149674Y-120937858D01*
X146087202Y-121024234D01*
X145991676Y-121143370D01*
X145943597Y-121200472D01*
X145820496Y-121339962D01*
X145731448Y-121424788D01*
X145658485Y-121467987D01*
X145583636Y-121482593D01*
X145553609Y-121483362D01*
X145412424Y-121509253D01*
X145281300Y-121571524D01*
X145281157Y-121571626D01*
X145157672Y-121631921D01*
X145072446Y-121632990D01*
X144967394Y-121643261D01*
X144833486Y-121723707D01*
X144720358Y-121797444D01*
X144620326Y-121842245D01*
X144593883Y-121847617D01*
X144512481Y-121881453D01*
X144412923Y-121958339D01*
X144382415Y-121988803D01*
X144296089Y-122071792D01*
X144229659Y-122119324D01*
X144215192Y-122123698D01*
X144168358Y-122090546D01*
X144104394Y-122008493D01*
X144089448Y-121984958D01*
X144031677Y-121854329D01*
X144004919Y-121723134D01*
X144004698Y-121713427D01*
X144012496Y-121638279D01*
X144047302Y-121579632D01*
X144125911Y-121519962D01*
X144265072Y-121441772D01*
X144411468Y-121368199D01*
X144508917Y-121334042D01*
X144580853Y-121333434D01*
X144629937Y-121350447D01*
X144717162Y-121383107D01*
X144801284Y-121391613D01*
X144902449Y-121372280D01*
X145040803Y-121321424D01*
X145221177Y-121242302D01*
X145394602Y-121169628D01*
X145555613Y-121112292D01*
X145676363Y-121079918D01*
X145701119Y-121076466D01*
X145830033Y-121046594D01*
X145970406Y-120987301D01*
X145994651Y-120973758D01*
X146093771Y-120921252D01*
X146157880Y-120898431D01*
X146167421Y-120899914D01*
G37*
G36*
X118944062Y-147552529D02*
G01*
X118934259Y-147636815D01*
X118929126Y-147664562D01*
X118917973Y-147774577D01*
X118947539Y-147841719D01*
X119008526Y-147889460D01*
X119081263Y-147955640D01*
X119112167Y-148047932D01*
X119116807Y-148142019D01*
X119119829Y-148240522D01*
X119140669Y-148303883D01*
X119196988Y-148352232D01*
X119306448Y-148405702D01*
X119373987Y-148435166D01*
X119541804Y-148517673D01*
X119634251Y-148592253D01*
X119659130Y-148670253D01*
X119624247Y-148763020D01*
X119612425Y-148781853D01*
X119561997Y-148878335D01*
X119543698Y-148947301D01*
X119509648Y-149000002D01*
X119436867Y-149037404D01*
X119369409Y-149039308D01*
X119358763Y-149032097D01*
X119304290Y-149014425D01*
X119184507Y-148993301D01*
X119019293Y-148970980D01*
X118828524Y-148949717D01*
X118632080Y-148931769D01*
X118449836Y-148919392D01*
X118327059Y-148915009D01*
X118169842Y-148908298D01*
X118043555Y-148894555D01*
X117975249Y-148876737D01*
X117974874Y-148876499D01*
X117924053Y-148799860D01*
X117925184Y-148694515D01*
X117972736Y-148594883D01*
X118027590Y-148548581D01*
X118119889Y-148457516D01*
X118156650Y-148338595D01*
X118179888Y-148199220D01*
X118210534Y-148033873D01*
X118221329Y-147979349D01*
X118246392Y-147835548D01*
X118261260Y-147711684D01*
X118263026Y-147674594D01*
X118269705Y-147619019D01*
X118303311Y-147589945D01*
X118384194Y-147579474D01*
X118508488Y-147579347D01*
X118663567Y-147575060D01*
X118797875Y-147560315D01*
X118855979Y-147546719D01*
X118921880Y-147528799D01*
X118944062Y-147552529D01*
G37*
G36*
X111339195Y-109482081D02*
G01*
X111362187Y-109517552D01*
X111355263Y-109588201D01*
X111315324Y-109709990D01*
X111275162Y-109811947D01*
X111182055Y-110116698D01*
X111164749Y-110393248D01*
X111222986Y-110652186D01*
X111253053Y-110723531D01*
X111306174Y-110887760D01*
X111297203Y-111001606D01*
X111235815Y-111060936D01*
X111131681Y-111061621D01*
X110994475Y-110999529D01*
X110857197Y-110892583D01*
X110747281Y-110783137D01*
X110685750Y-110688934D01*
X110653597Y-110572800D01*
X110639273Y-110466410D01*
X110614821Y-110322800D01*
X110581074Y-110212031D01*
X110554265Y-110167950D01*
X110456329Y-110133120D01*
X110359523Y-110169583D01*
X110302062Y-110245712D01*
X110256453Y-110321861D01*
X110199286Y-110333605D01*
X110105362Y-110284827D01*
X110094410Y-110277710D01*
X110011998Y-110237062D01*
X109945513Y-110253272D01*
X109915398Y-110273599D01*
X109852636Y-110306547D01*
X109783354Y-110300535D01*
X109675258Y-110252423D01*
X109669971Y-110249732D01*
X109573498Y-110188689D01*
X109523963Y-110133660D01*
X109522327Y-110117726D01*
X109570044Y-110081149D01*
X109674046Y-110041247D01*
X109749238Y-110021226D01*
X109893475Y-109982432D01*
X110016443Y-109939440D01*
X110054902Y-109921666D01*
X110152024Y-109883734D01*
X110292756Y-109844965D01*
X110372102Y-109828001D01*
X110513171Y-109791985D01*
X110626536Y-109746858D01*
X110664764Y-109722165D01*
X110760141Y-109673640D01*
X110852990Y-109658488D01*
X110967644Y-109629685D01*
X111041729Y-109576819D01*
X111149349Y-109492873D01*
X111264841Y-109462688D01*
X111339195Y-109482081D01*
G37*
G36*
X145231543Y-124052318D02*
G01*
X145402959Y-124072470D01*
X145574398Y-124101135D01*
X145725205Y-124134288D01*
X145834722Y-124167903D01*
X145882292Y-124197955D01*
X145882857Y-124201023D01*
X145852436Y-124269709D01*
X145840168Y-124279496D01*
X145801496Y-124339142D01*
X145803947Y-124415350D01*
X145842496Y-124466961D01*
X145863633Y-124471597D01*
X145945438Y-124452813D01*
X146054186Y-124407214D01*
X146061651Y-124403407D01*
X146176293Y-124360422D01*
X146272248Y-124372042D01*
X146296330Y-124382063D01*
X146410108Y-124410429D01*
X146576782Y-124425283D01*
X146764896Y-124426296D01*
X146942991Y-124413137D01*
X147064548Y-124390120D01*
X147163268Y-124369811D01*
X147220841Y-124372761D01*
X147222647Y-124374188D01*
X147222073Y-124429668D01*
X147167549Y-124527001D01*
X147070661Y-124653323D01*
X146942995Y-124795766D01*
X146796138Y-124941463D01*
X146641676Y-125077549D01*
X146491195Y-125191156D01*
X146480505Y-125198337D01*
X146384223Y-125262722D01*
X146322902Y-125304355D01*
X146314638Y-125310222D01*
X146323814Y-125350104D01*
X146368452Y-125429903D01*
X146372434Y-125436036D01*
X146418062Y-125515539D01*
X146414415Y-125570869D01*
X146355754Y-125640216D01*
X146339261Y-125656782D01*
X146231837Y-125764207D01*
X146097121Y-125525503D01*
X146016667Y-125403750D01*
X145892538Y-125240695D01*
X145740618Y-125056208D01*
X145576793Y-124870159D01*
X145549102Y-124840021D01*
X145389806Y-124662930D01*
X145243858Y-124491761D01*
X145125433Y-124343754D01*
X145048705Y-124236148D01*
X145038474Y-124218974D01*
X144941148Y-124044706D01*
X145080807Y-124044706D01*
X145231543Y-124052318D01*
G37*
G36*
X69532768Y-64279858D02*
G01*
X69959140Y-64339131D01*
X70417472Y-64441321D01*
X70920841Y-64588022D01*
X71410384Y-64770739D01*
X71841405Y-64991395D01*
X72223325Y-65258387D01*
X72565567Y-65580109D01*
X72877552Y-65964961D01*
X73168702Y-66421337D01*
X73345334Y-66748698D01*
X73505828Y-67072333D01*
X73625107Y-67334301D01*
X73707061Y-67545428D01*
X73755581Y-67716535D01*
X73774559Y-67858448D01*
X73773043Y-67938409D01*
X73759664Y-68100673D01*
X73375462Y-68128169D01*
X73146361Y-68140338D01*
X72867856Y-68148561D01*
X72559347Y-68152913D01*
X72240236Y-68153468D01*
X71929921Y-68150299D01*
X71647806Y-68143482D01*
X71413288Y-68133090D01*
X71253077Y-68120069D01*
X71083115Y-68087433D01*
X70857265Y-68026059D01*
X70596879Y-67943587D01*
X70323309Y-67847658D01*
X70057907Y-67745912D01*
X69822025Y-67645992D01*
X69637015Y-67555536D01*
X69576057Y-67519961D01*
X69345192Y-67352030D01*
X69128141Y-67155201D01*
X68948047Y-66952230D01*
X68848092Y-66804241D01*
X68782714Y-66667958D01*
X68708735Y-66484125D01*
X68639950Y-66287577D01*
X68626149Y-66243698D01*
X68585163Y-66103159D01*
X68555516Y-65977595D01*
X68535320Y-65848526D01*
X68522688Y-65697466D01*
X68515730Y-65505934D01*
X68512558Y-65255446D01*
X68511889Y-65125269D01*
X68512456Y-64830658D01*
X68517217Y-64611891D01*
X68526785Y-64459509D01*
X68541775Y-64364055D01*
X68562802Y-64316069D01*
X68564582Y-64314177D01*
X68624836Y-64287240D01*
X68747100Y-64269900D01*
X68939934Y-64261322D01*
X69119540Y-64260078D01*
X69532768Y-64279858D01*
G37*
G36*
X150871418Y-66428461D02*
G01*
X150913307Y-66448163D01*
X150937236Y-66480805D01*
X150940832Y-66489160D01*
X150951846Y-66552707D01*
X150965664Y-66687783D01*
X150981208Y-66880628D01*
X150997401Y-67117481D01*
X151013166Y-67384581D01*
X151017858Y-67472550D01*
X151035223Y-67867060D01*
X151041191Y-68190683D01*
X151034338Y-68457328D01*
X151013237Y-68680901D01*
X150976463Y-68875311D01*
X150922588Y-69054464D01*
X150850187Y-69232269D01*
X150833759Y-69268035D01*
X150691148Y-69503718D01*
X150486311Y-69749109D01*
X150238322Y-69987849D01*
X149966255Y-70203575D01*
X149689184Y-70379927D01*
X149426185Y-70500546D01*
X149378824Y-70515980D01*
X148874291Y-70655999D01*
X148362056Y-70776103D01*
X147865154Y-70871702D01*
X147406618Y-70938204D01*
X147128903Y-70964434D01*
X146710831Y-70993228D01*
X146593350Y-70853609D01*
X146522688Y-70757365D01*
X146492895Y-70667318D01*
X146493536Y-70544313D01*
X146498025Y-70495903D01*
X146513058Y-70338201D01*
X146530604Y-70140052D01*
X146545783Y-69957647D01*
X146591408Y-69594511D01*
X146672577Y-69245313D01*
X146796371Y-68886817D01*
X146969869Y-68495786D01*
X147025817Y-68382287D01*
X147142480Y-68153386D01*
X147235275Y-67983999D01*
X147316706Y-67856399D01*
X147399276Y-67752856D01*
X147495491Y-67655643D01*
X147610400Y-67553455D01*
X147823656Y-67384380D01*
X148051605Y-67236024D01*
X148306379Y-67103210D01*
X148600107Y-66980763D01*
X148944922Y-66863504D01*
X149352954Y-66746257D01*
X149725681Y-66650800D01*
X150069297Y-66567059D01*
X150339534Y-66503629D01*
X150545627Y-66459283D01*
X150696815Y-66432792D01*
X150802333Y-66422927D01*
X150871418Y-66428461D01*
G37*
G36*
X119439711Y-115986322D02*
G01*
X119442755Y-116039738D01*
X119420743Y-116147790D01*
X119380818Y-116286042D01*
X119330122Y-116430054D01*
X119275797Y-116555389D01*
X119270145Y-116566526D01*
X119218637Y-116700166D01*
X119203634Y-116817049D01*
X119225382Y-116895351D01*
X119266219Y-116915631D01*
X119323991Y-116935514D01*
X119306612Y-116995308D01*
X119223530Y-117086387D01*
X119139239Y-117205851D01*
X119112381Y-117335309D01*
X119143031Y-117449781D01*
X119222191Y-117520435D01*
X119292880Y-117565006D01*
X119308679Y-117599027D01*
X119261097Y-117613327D01*
X119145697Y-117629487D01*
X118979952Y-117645499D01*
X118787076Y-117659018D01*
X118582247Y-117672450D01*
X118403989Y-117686809D01*
X118272383Y-117700306D01*
X118209664Y-117710456D01*
X118166282Y-117712217D01*
X118143733Y-117672655D01*
X118135613Y-117573963D01*
X118134958Y-117502808D01*
X118134958Y-117273140D01*
X117827658Y-117030352D01*
X117520358Y-116787563D01*
X117091272Y-116786910D01*
X116878028Y-116781867D01*
X116714496Y-116768712D01*
X116608304Y-116749333D01*
X116567083Y-116725616D01*
X116598465Y-116699447D01*
X116664412Y-116681375D01*
X117013473Y-116602344D01*
X117309014Y-116523250D01*
X117582455Y-116435420D01*
X117673785Y-116402827D01*
X117832888Y-116349562D01*
X117959980Y-116316005D01*
X118035464Y-116306945D01*
X118047064Y-116311598D01*
X118119764Y-116372124D01*
X118231505Y-116423961D01*
X118336850Y-116446050D01*
X118337187Y-116446051D01*
X118416468Y-116421782D01*
X118529303Y-116359972D01*
X118593679Y-116316092D01*
X118706400Y-116240380D01*
X118780535Y-116214361D01*
X118840712Y-116230340D01*
X118850188Y-116235965D01*
X118950220Y-116251823D01*
X119085838Y-116209671D01*
X119237968Y-116117086D01*
X119319412Y-116049573D01*
X119393458Y-115995276D01*
X119439173Y-115985824D01*
X119439711Y-115986322D01*
G37*
G36*
X110442509Y-145070655D02*
G01*
X110493004Y-145090168D01*
X110604692Y-145154415D01*
X110684466Y-145229660D01*
X110736854Y-145282020D01*
X110812327Y-145298050D01*
X110930991Y-145286381D01*
X111058908Y-145275237D01*
X111139325Y-145295945D01*
X111198478Y-145347101D01*
X111261149Y-145470165D01*
X111274632Y-145583849D01*
X111305588Y-145724866D01*
X111395190Y-145823860D01*
X111516978Y-145860173D01*
X111626532Y-145900107D01*
X111736881Y-146000002D01*
X111830576Y-146136416D01*
X111890169Y-146285903D01*
X111902353Y-146377954D01*
X111926441Y-146471141D01*
X111984993Y-146580517D01*
X111990617Y-146588591D01*
X112053230Y-146717429D01*
X112044879Y-146813628D01*
X111976141Y-146869855D01*
X111857594Y-146878776D01*
X111699815Y-146833059D01*
X111662777Y-146815875D01*
X111553690Y-146740400D01*
X111476245Y-146650023D01*
X111475632Y-146648888D01*
X111385484Y-146555407D01*
X111225282Y-146466445D01*
X111010318Y-146388816D01*
X110760117Y-146330093D01*
X110552622Y-146306232D01*
X110313389Y-146300012D01*
X110065158Y-146309749D01*
X109830671Y-146333761D01*
X109632668Y-146370365D01*
X109493892Y-146417878D01*
X109481473Y-146424717D01*
X109390863Y-146487052D01*
X109343165Y-146537174D01*
X109341009Y-146544970D01*
X109302770Y-146605249D01*
X109205736Y-146656151D01*
X109076434Y-146691448D01*
X108941389Y-146704914D01*
X108827126Y-146690320D01*
X108791247Y-146674031D01*
X108754428Y-146605376D01*
X108744295Y-146479034D01*
X108758393Y-146317568D01*
X108794267Y-146143542D01*
X108849462Y-145979522D01*
X108872188Y-145930053D01*
X108966098Y-145770451D01*
X109056261Y-145685840D01*
X109155638Y-145667482D01*
X109232256Y-145687296D01*
X109330162Y-145705639D01*
X109410640Y-145660480D01*
X109427152Y-145644613D01*
X109489933Y-145562807D01*
X109511765Y-145502583D01*
X109550467Y-145406336D01*
X109655161Y-145338847D01*
X109808727Y-145309334D01*
X109870152Y-145309645D01*
X110003657Y-145307636D01*
X110099608Y-145273393D01*
X110200908Y-145190458D01*
X110214214Y-145177660D01*
X110307351Y-145093236D01*
X110373001Y-145060847D01*
X110442509Y-145070655D01*
G37*
G36*
X122924049Y-118444257D02*
G01*
X123046175Y-118488145D01*
X123189384Y-118577916D01*
X123252985Y-118629369D01*
X123380172Y-118729710D01*
X123486502Y-118779489D01*
X123605610Y-118793873D01*
X123617977Y-118793950D01*
X123741808Y-118782475D01*
X123831735Y-118753892D01*
X123846045Y-118743435D01*
X123901971Y-118712446D01*
X123921916Y-118718275D01*
X123910416Y-118762006D01*
X123859144Y-118859649D01*
X123777119Y-118995051D01*
X123709182Y-119099251D01*
X123471093Y-119454871D01*
X123471093Y-119911745D01*
X123471093Y-120368619D01*
X123338422Y-120445738D01*
X123232162Y-120544148D01*
X123130913Y-120699753D01*
X123048398Y-120884817D01*
X122998334Y-121071600D01*
X122989993Y-121150150D01*
X122977401Y-121253220D01*
X122934775Y-121314393D01*
X122838463Y-121363065D01*
X122809681Y-121374268D01*
X122636265Y-121428059D01*
X122514100Y-121431077D01*
X122424195Y-121381086D01*
X122376860Y-121323278D01*
X122321966Y-121196519D01*
X122295139Y-121011738D01*
X122291536Y-120923230D01*
X122268394Y-120669610D01*
X122206581Y-120487244D01*
X122099521Y-120368271D01*
X121940640Y-120304829D01*
X121760844Y-120288697D01*
X121620333Y-120276483D01*
X121519318Y-120228827D01*
X121440676Y-120156504D01*
X121238353Y-120000235D01*
X120997641Y-119918368D01*
X120820642Y-119903866D01*
X120670631Y-119891906D01*
X120556884Y-119844376D01*
X120462998Y-119771376D01*
X120373242Y-119682533D01*
X120319207Y-119609677D01*
X120312101Y-119588054D01*
X120351103Y-119555905D01*
X120456858Y-119512870D01*
X120612491Y-119465258D01*
X120703142Y-119441853D01*
X120914116Y-119384890D01*
X121065020Y-119328365D01*
X121180423Y-119261497D01*
X121258223Y-119198284D01*
X121362913Y-119113383D01*
X121449630Y-119059763D01*
X121481264Y-119050084D01*
X121545076Y-119017399D01*
X121610192Y-118943362D01*
X121659002Y-118883715D01*
X121722844Y-118851429D01*
X121827338Y-118838326D01*
X121945942Y-118836169D01*
X122183782Y-118831067D01*
X122354716Y-118812780D01*
X122476907Y-118775369D01*
X122568520Y-118712895D01*
X122647719Y-118619419D01*
X122659260Y-118602925D01*
X122739126Y-118496394D01*
X122803385Y-118447234D01*
X122879406Y-118439046D01*
X122924049Y-118444257D01*
G37*
G36*
X104577051Y-143386811D02*
G01*
X104645224Y-143495416D01*
X104723118Y-143668961D01*
X104752388Y-143745715D01*
X104817496Y-143908936D01*
X104879311Y-144014231D01*
X104957895Y-144085798D01*
X105073308Y-144147833D01*
X105093446Y-144157089D01*
X105313820Y-144219408D01*
X105576825Y-144235690D01*
X105855444Y-144209286D01*
X106122663Y-144143546D01*
X106351468Y-144041820D01*
X106426184Y-143991803D01*
X106518154Y-143929314D01*
X106579208Y-143901971D01*
X106588918Y-143903596D01*
X106595202Y-143965456D01*
X106555961Y-144074694D01*
X106480505Y-144213245D01*
X106378141Y-144363047D01*
X106305759Y-144453054D01*
X106199620Y-144594395D01*
X106077121Y-144784911D01*
X105956206Y-144995591D01*
X105885642Y-145132295D01*
X105784627Y-145346872D01*
X105719625Y-145508441D01*
X105683827Y-145637854D01*
X105670422Y-145755965D01*
X105669748Y-145793320D01*
X105709668Y-146029232D01*
X105819927Y-146251706D01*
X105986274Y-146435731D01*
X106070117Y-146495960D01*
X106164967Y-146558363D01*
X106219524Y-146601582D01*
X106224706Y-146609364D01*
X106186395Y-146619776D01*
X106088937Y-146626197D01*
X106021933Y-146627194D01*
X105785128Y-146591120D01*
X105563026Y-146507093D01*
X105398132Y-146439098D01*
X105188864Y-146365689D01*
X104974126Y-146300276D01*
X104922689Y-146286362D01*
X104697629Y-146217522D01*
X104510032Y-146141051D01*
X104389076Y-146070631D01*
X104045088Y-145858941D01*
X103658275Y-145718121D01*
X103237367Y-145650985D01*
X103069817Y-145645379D01*
X102724202Y-145645379D01*
X102724202Y-145429813D01*
X102684282Y-145162593D01*
X102565062Y-144926784D01*
X102498322Y-144844958D01*
X102410496Y-144748908D01*
X102595628Y-144748908D01*
X102807907Y-144712394D01*
X103003613Y-144613208D01*
X103165788Y-144466885D01*
X103277473Y-144288957D01*
X103321710Y-144094959D01*
X103321849Y-144083689D01*
X103327813Y-144005886D01*
X103361677Y-143999665D01*
X103417899Y-144033156D01*
X103589787Y-144114877D01*
X103820956Y-144180841D01*
X103993470Y-144211859D01*
X104174167Y-144237414D01*
X104324311Y-143939269D01*
X104404153Y-143759759D01*
X104457358Y-143597694D01*
X104474454Y-143490646D01*
X104487307Y-143380425D01*
X104522959Y-143347147D01*
X104577051Y-143386811D01*
G37*
G36*
X130619917Y-142921552D02*
G01*
X130700246Y-142931394D01*
X130840830Y-142966155D01*
X130911186Y-143021069D01*
X130920594Y-143042155D01*
X130987308Y-143113533D01*
X131104171Y-143148881D01*
X131254717Y-143180844D01*
X131342785Y-143231249D01*
X131388236Y-143321927D01*
X131410934Y-143474713D01*
X131412099Y-143487358D01*
X131447879Y-143677130D01*
X131517968Y-143794429D01*
X131628580Y-143847404D01*
X131690529Y-143852437D01*
X131833457Y-143873164D01*
X131972332Y-143925707D01*
X132073228Y-143995608D01*
X132095187Y-144024877D01*
X132119603Y-144112060D01*
X132134654Y-144245860D01*
X132136975Y-144322017D01*
X132144480Y-144463808D01*
X132163569Y-144578415D01*
X132176686Y-144615275D01*
X132194339Y-144711555D01*
X132137584Y-144778795D01*
X132014980Y-144808098D01*
X131990619Y-144808673D01*
X131875215Y-144791912D01*
X131768791Y-144730884D01*
X131678247Y-144648678D01*
X131530097Y-144503019D01*
X131425291Y-144408319D01*
X131348214Y-144353787D01*
X131283249Y-144328634D01*
X131214778Y-144322068D01*
X131205467Y-144322017D01*
X131060503Y-144360072D01*
X130939215Y-144452495D01*
X130826454Y-144542045D01*
X130720136Y-144571588D01*
X130670936Y-144569890D01*
X130541137Y-144584386D01*
X130468261Y-144642185D01*
X130378417Y-144800595D01*
X130328861Y-144981346D01*
X130329414Y-145134714D01*
X130325504Y-145285984D01*
X130257994Y-145402313D01*
X130140768Y-145465249D01*
X130076243Y-145471252D01*
X129965765Y-145463293D01*
X129892556Y-145448850D01*
X129892254Y-145448726D01*
X129868093Y-145394410D01*
X129859787Y-145261558D01*
X129864985Y-145099911D01*
X129869712Y-144904932D01*
X129849631Y-144774224D01*
X129793692Y-144687797D01*
X129690845Y-144625660D01*
X129579933Y-144584197D01*
X129376627Y-144539514D01*
X129203393Y-144558786D01*
X129109114Y-144597912D01*
X129019977Y-144636190D01*
X128965485Y-144626556D01*
X128925391Y-144587240D01*
X128891889Y-144525262D01*
X128879423Y-144428837D01*
X128886053Y-144276593D01*
X128891626Y-144215295D01*
X128921220Y-143998138D01*
X128967002Y-143846880D01*
X129039656Y-143742221D01*
X129149865Y-143664857D01*
X129213153Y-143634426D01*
X129342722Y-143562061D01*
X129409178Y-143480043D01*
X129425162Y-143430357D01*
X129500176Y-143277235D01*
X129644614Y-143143701D01*
X129843642Y-143035562D01*
X130082424Y-142958620D01*
X130346128Y-142918682D01*
X130619917Y-142921552D01*
G37*
G36*
X114796722Y-144619354D02*
G01*
X114992023Y-144638242D01*
X115159801Y-144668105D01*
X115210757Y-144681953D01*
X115358308Y-144720850D01*
X115491174Y-144744818D01*
X115539176Y-144748446D01*
X115646183Y-144776450D01*
X115709933Y-144827497D01*
X115778972Y-144896945D01*
X115889020Y-144981665D01*
X115943758Y-145017997D01*
X116054559Y-145101089D01*
X116131924Y-145183798D01*
X116149055Y-145215773D01*
X116202536Y-145306021D01*
X116274286Y-145378709D01*
X116342340Y-145461949D01*
X116392821Y-145599164D01*
X116420885Y-145731802D01*
X116460590Y-145897448D01*
X116514082Y-146046066D01*
X116558932Y-146128781D01*
X116620529Y-146226366D01*
X116617493Y-146269647D01*
X116547642Y-146262536D01*
X116494570Y-146244220D01*
X116366759Y-146210546D01*
X116270309Y-146200337D01*
X116141600Y-146227589D01*
X115986346Y-146297446D01*
X115834854Y-146392058D01*
X115717426Y-146493576D01*
X115675883Y-146550461D01*
X115602093Y-146645344D01*
X115510495Y-146662894D01*
X115387229Y-146605700D01*
X115385639Y-146604661D01*
X115283893Y-146571355D01*
X115125666Y-146555220D01*
X114937856Y-146555072D01*
X114747364Y-146569723D01*
X114581089Y-146597987D01*
X114465930Y-146638679D01*
X114454841Y-146645702D01*
X114345608Y-146692082D01*
X114212262Y-146712555D01*
X114206226Y-146712605D01*
X114044769Y-146745188D01*
X113843058Y-146839718D01*
X113805006Y-146862017D01*
X113676476Y-146936408D01*
X113577732Y-146987988D01*
X113530088Y-147005626D01*
X113530038Y-147005616D01*
X113471383Y-146994476D01*
X113396471Y-146981064D01*
X113319394Y-146942051D01*
X113201460Y-146851483D01*
X113058163Y-146721948D01*
X112970669Y-146635088D01*
X112819425Y-146474606D01*
X112723539Y-146357879D01*
X112674151Y-146272404D01*
X112662397Y-146205677D01*
X112662821Y-146200732D01*
X112726783Y-145974481D01*
X112859940Y-145771975D01*
X112971897Y-145669206D01*
X113097617Y-145550960D01*
X113140321Y-145445103D01*
X113140336Y-145443148D01*
X113169859Y-145347521D01*
X113241531Y-145244187D01*
X113330003Y-145162885D01*
X113404590Y-145133110D01*
X113471373Y-145115522D01*
X113584770Y-145070299D01*
X113673337Y-145029620D01*
X113817152Y-144965775D01*
X113948978Y-144916568D01*
X114004790Y-144900739D01*
X114100228Y-144853745D01*
X114122185Y-144796011D01*
X114153155Y-144703022D01*
X114187827Y-144662195D01*
X114269451Y-144632861D01*
X114413059Y-144616231D01*
X114596275Y-144611873D01*
X114796722Y-144619354D01*
G37*
G36*
X117280434Y-112821552D02*
G01*
X117311163Y-112944605D01*
X117316417Y-112967181D01*
X117372279Y-113207456D01*
X117006560Y-113659844D01*
X116831463Y-113883981D01*
X116713652Y-114055765D01*
X116650454Y-114183625D01*
X116639196Y-114275989D01*
X116677207Y-114341286D01*
X116761813Y-114387944D01*
X116774279Y-114392451D01*
X116907716Y-114438967D01*
X116728481Y-114618203D01*
X116578448Y-114784795D01*
X116483102Y-114927065D01*
X116447518Y-115035804D01*
X116466452Y-115093443D01*
X116508281Y-115153518D01*
X116512773Y-115171681D01*
X116477132Y-115208470D01*
X116383307Y-115270056D01*
X116250950Y-115346141D01*
X116099711Y-115426431D01*
X115949241Y-115500631D01*
X115819189Y-115558444D01*
X115729206Y-115589575D01*
X115710030Y-115592269D01*
X115639156Y-115566989D01*
X115590386Y-115479377D01*
X115577667Y-115437809D01*
X115531578Y-115314287D01*
X115475845Y-115218378D01*
X115469948Y-115211446D01*
X115443844Y-115175223D01*
X115425620Y-115124530D01*
X115414138Y-115045484D01*
X115408262Y-114924199D01*
X115406855Y-114746792D01*
X115408780Y-114499378D01*
X115409130Y-114468701D01*
X115397740Y-114342499D01*
X115351693Y-114259004D01*
X115258398Y-114211405D01*
X115105263Y-114192887D01*
X114904198Y-114195528D01*
X114715294Y-114200466D01*
X114597894Y-114185902D01*
X114538276Y-114137461D01*
X114522719Y-114040766D01*
X114537502Y-113881439D01*
X114545716Y-113819916D01*
X114573542Y-113655730D01*
X114604623Y-113568255D01*
X114643988Y-113548841D01*
X114686392Y-113578056D01*
X114787185Y-113629738D01*
X114897602Y-113601525D01*
X115007836Y-113496659D01*
X115030666Y-113464264D01*
X115131377Y-113344209D01*
X115267645Y-113220246D01*
X115345835Y-113162463D01*
X115552269Y-113024971D01*
X115593011Y-113136047D01*
X115658828Y-113229093D01*
X115734394Y-113272383D01*
X115841580Y-113269151D01*
X115981510Y-113229030D01*
X116118150Y-113165720D01*
X116215466Y-113092917D01*
X116219859Y-113087838D01*
X116283134Y-113058964D01*
X116345473Y-113094383D01*
X116382304Y-113176348D01*
X116384706Y-113206908D01*
X116405270Y-113264259D01*
X116480839Y-113285524D01*
X116523446Y-113286659D01*
X116630612Y-113266773D01*
X116764789Y-113215992D01*
X116902616Y-113146890D01*
X117020731Y-113072040D01*
X117095772Y-113004013D01*
X117110420Y-112970757D01*
X117135609Y-112896069D01*
X117185488Y-112819612D01*
X117228439Y-112771276D01*
X117256474Y-112767849D01*
X117280434Y-112821552D01*
G37*
G36*
X109010031Y-143021733D02*
G01*
X109070166Y-143063326D01*
X109163956Y-143154530D01*
X109231256Y-143224562D01*
X109388661Y-143378976D01*
X109522326Y-143476687D01*
X109658790Y-143529991D01*
X109824595Y-143551186D01*
X109941435Y-143553614D01*
X110082430Y-143551296D01*
X110158218Y-143538681D01*
X110188954Y-143507282D01*
X110194789Y-143448608D01*
X110194790Y-143446891D01*
X110217632Y-143360295D01*
X110260944Y-143340169D01*
X110365534Y-143365838D01*
X110491356Y-143428441D01*
X110597498Y-143506368D01*
X110619345Y-143529455D01*
X110702696Y-143576111D01*
X110857194Y-143595492D01*
X110908916Y-143596303D01*
X111064811Y-143605062D01*
X111179842Y-143641055D01*
X111297579Y-143718860D01*
X111314203Y-143731892D01*
X111529989Y-143858684D01*
X111751595Y-143906752D01*
X111967699Y-143874470D01*
X112051765Y-143837799D01*
X112210233Y-143777537D01*
X112423070Y-143739385D01*
X112587957Y-143725296D01*
X112953392Y-143703026D01*
X112893015Y-143959160D01*
X112852162Y-144271688D01*
X112856655Y-144540571D01*
X112865705Y-144725147D01*
X112857695Y-144855068D01*
X112829014Y-144959992D01*
X112797059Y-145029849D01*
X112744957Y-145144338D01*
X112715734Y-145232416D01*
X112713446Y-145249915D01*
X112677988Y-145305849D01*
X112611741Y-145344647D01*
X112518250Y-145405507D01*
X112425380Y-145502610D01*
X112416733Y-145514347D01*
X112328705Y-145613346D01*
X112249473Y-145635750D01*
X112163623Y-145580720D01*
X112092065Y-145496630D01*
X111982085Y-145377075D01*
X111856640Y-145273328D01*
X111834585Y-145258869D01*
X111721418Y-145166971D01*
X111607334Y-145041259D01*
X111570966Y-144991399D01*
X111471123Y-144867643D01*
X111364193Y-144800406D01*
X111281988Y-144776732D01*
X111149828Y-144741490D01*
X111041420Y-144701087D01*
X111027227Y-144693938D01*
X110792454Y-144577767D01*
X110600995Y-144516224D01*
X110431400Y-144508308D01*
X110262214Y-144553021D01*
X110071985Y-144649361D01*
X110071907Y-144649406D01*
X109841820Y-144742731D01*
X109674496Y-144762115D01*
X109537959Y-144756850D01*
X109450338Y-144726528D01*
X109375894Y-144657179D01*
X109361325Y-144639704D01*
X109230531Y-144419882D01*
X109178002Y-144182358D01*
X109183312Y-144055458D01*
X109187660Y-143956080D01*
X109169256Y-143848508D01*
X109122168Y-143711127D01*
X109040464Y-143522319D01*
X109031810Y-143503373D01*
X108952590Y-143327192D01*
X108906417Y-143211006D01*
X108889395Y-143137837D01*
X108897628Y-143090707D01*
X108927219Y-143052640D01*
X108928158Y-143051698D01*
X108967909Y-143020831D01*
X109010031Y-143021733D01*
G37*
G36*
X123502422Y-148402949D02*
G01*
X123748572Y-148502710D01*
X123943509Y-148588634D01*
X124109402Y-148632605D01*
X124282007Y-148639681D01*
X124497077Y-148614921D01*
X124518091Y-148611570D01*
X124610600Y-148599785D01*
X124675024Y-148610405D01*
X124733164Y-148657187D01*
X124806817Y-148753886D01*
X124855936Y-148824764D01*
X125021908Y-149065748D01*
X125280361Y-149052454D01*
X125426286Y-149048482D01*
X125507702Y-149058787D01*
X125544948Y-149088161D01*
X125554578Y-149117042D01*
X125541401Y-149211084D01*
X125509054Y-149266454D01*
X125431261Y-149388147D01*
X125430250Y-149496809D01*
X125499407Y-149608370D01*
X125615712Y-149782561D01*
X125673476Y-149951211D01*
X125671134Y-150072704D01*
X125646626Y-150134984D01*
X125602513Y-150162391D01*
X125522977Y-150154569D01*
X125392203Y-150111161D01*
X125272242Y-150063698D01*
X125092802Y-150003630D01*
X124919136Y-149967428D01*
X124772136Y-149957324D01*
X124672692Y-149975551D01*
X124646773Y-149996865D01*
X124579434Y-150043174D01*
X124447679Y-150088031D01*
X124272418Y-150127020D01*
X124074562Y-150155725D01*
X123875021Y-150169731D01*
X123824835Y-150170421D01*
X123542674Y-150152943D01*
X123241988Y-150105566D01*
X123128259Y-150079615D01*
X122830936Y-150025728D01*
X122525372Y-150007662D01*
X122237474Y-150024926D01*
X121993149Y-150077028D01*
X121924985Y-150102430D01*
X121714296Y-150156941D01*
X121456262Y-150168257D01*
X121176578Y-150137388D01*
X120900942Y-150065348D01*
X120890566Y-150061697D01*
X120649367Y-149993828D01*
X120375135Y-149944682D01*
X120228886Y-149929384D01*
X120053440Y-149913093D01*
X119905619Y-149893147D01*
X119810183Y-149873097D01*
X119794492Y-149867107D01*
X119716788Y-149787197D01*
X119710732Y-149669737D01*
X119776577Y-149523995D01*
X119784784Y-149511649D01*
X119882395Y-149399930D01*
X119982672Y-149365765D01*
X120107410Y-149403502D01*
X120138540Y-149419915D01*
X120217921Y-149451949D01*
X120302260Y-149448708D01*
X120425910Y-149409483D01*
X120542524Y-149370371D01*
X120616501Y-149365902D01*
X120684275Y-149398513D01*
X120727439Y-149429649D01*
X120845516Y-149517806D01*
X121140978Y-149417313D01*
X121299849Y-149356989D01*
X121435094Y-149294481D01*
X121518035Y-149243078D01*
X121519220Y-149242024D01*
X121599348Y-149144040D01*
X121683541Y-149002761D01*
X121755913Y-148849860D01*
X121800580Y-148717012D01*
X121807576Y-148667050D01*
X121840564Y-148537627D01*
X121921926Y-148447468D01*
X122012384Y-148420169D01*
X122104112Y-148439456D01*
X122229218Y-148488020D01*
X122280886Y-148513194D01*
X122459358Y-148606219D01*
X122689035Y-148481977D01*
X122952869Y-148377422D01*
X123220531Y-148351012D01*
X123502422Y-148402949D01*
G37*
G36*
X127436619Y-121348963D02*
G01*
X127505210Y-121439606D01*
X127633278Y-121355043D01*
X127743227Y-121289252D01*
X127801759Y-121277634D01*
X127823599Y-121320370D01*
X127825378Y-121357414D01*
X127791829Y-121498269D01*
X127695130Y-121678548D01*
X127541208Y-121887497D01*
X127518023Y-121915353D01*
X127427029Y-122039964D01*
X127340948Y-122185868D01*
X127269321Y-122332507D01*
X127221692Y-122459324D01*
X127207603Y-122545761D01*
X127215587Y-122566903D01*
X127276527Y-122589763D01*
X127317705Y-122593278D01*
X127402109Y-122614672D01*
X127414203Y-122663090D01*
X127350393Y-122714882D01*
X127337023Y-122720368D01*
X127263159Y-122769945D01*
X127228064Y-122832269D01*
X127240664Y-122880696D01*
X127279488Y-122892101D01*
X127279250Y-122919564D01*
X127229156Y-122991629D01*
X127140003Y-123092817D01*
X127138045Y-123094874D01*
X126960638Y-123287931D01*
X126840874Y-123437180D01*
X126771686Y-123554507D01*
X126746002Y-123651797D01*
X126755765Y-123737560D01*
X126792923Y-123867124D01*
X126607083Y-123859932D01*
X126475029Y-123866035D01*
X126375325Y-123908520D01*
X126278169Y-123991412D01*
X126154970Y-124089698D01*
X126040115Y-124125785D01*
X125917242Y-124097735D01*
X125769985Y-124003611D01*
X125668372Y-123919220D01*
X125532833Y-123811263D01*
X125403935Y-123726471D01*
X125308376Y-123682292D01*
X125304328Y-123681323D01*
X125189044Y-123626733D01*
X125101633Y-123544993D01*
X125050689Y-123487099D01*
X124987197Y-123452932D01*
X124887427Y-123435229D01*
X124727652Y-123426725D01*
X124713858Y-123426295D01*
X124512948Y-123413617D01*
X124394373Y-123388191D01*
X124355610Y-123346695D01*
X124394138Y-123285807D01*
X124507436Y-123202207D01*
X124531967Y-123186729D01*
X124652817Y-123100219D01*
X124731704Y-123021238D01*
X124751765Y-122977821D01*
X124786487Y-122912930D01*
X124872729Y-122841726D01*
X124901177Y-122825082D01*
X124996560Y-122758155D01*
X125047796Y-122691901D01*
X125050589Y-122677486D01*
X125088105Y-122576674D01*
X125184351Y-122516298D01*
X125246160Y-122507900D01*
X125338040Y-122472227D01*
X125438000Y-122378042D01*
X125448712Y-122364425D01*
X125555594Y-122256953D01*
X125686335Y-122205412D01*
X125738221Y-122196797D01*
X125843044Y-122173569D01*
X125935186Y-122125562D01*
X126037459Y-122037498D01*
X126145454Y-121924053D01*
X126260243Y-121801314D01*
X126333748Y-121734246D01*
X126380566Y-121713972D01*
X126415294Y-121731614D01*
X126431348Y-121750169D01*
X126531066Y-121818617D01*
X126659153Y-121806752D01*
X126815243Y-121714658D01*
X126899869Y-121642108D01*
X127030889Y-121524458D01*
X127160693Y-121414810D01*
X127232079Y-121358831D01*
X127368028Y-121258319D01*
X127436619Y-121348963D01*
G37*
G36*
X132941400Y-128872543D02*
G01*
X132962941Y-128891646D01*
X132970140Y-128936664D01*
X132961686Y-129018381D01*
X132936269Y-129147579D01*
X132892577Y-129335043D01*
X132829298Y-129591556D01*
X132809061Y-129672545D01*
X132754478Y-129896533D01*
X132720566Y-130055887D01*
X132705310Y-130168282D01*
X132706693Y-130251394D01*
X132722697Y-130322895D01*
X132731799Y-130349613D01*
X132754677Y-130462162D01*
X132762784Y-130612327D01*
X132757682Y-130774267D01*
X132740928Y-130922137D01*
X132714083Y-131030096D01*
X132688376Y-131069257D01*
X132629932Y-131084977D01*
X132509343Y-131105254D01*
X132349445Y-131126405D01*
X132296852Y-131132411D01*
X132120085Y-131153863D01*
X131966450Y-131176092D01*
X131863529Y-131195016D01*
X131849343Y-131198641D01*
X131762777Y-131199889D01*
X131726336Y-131154558D01*
X131728237Y-131045043D01*
X131799315Y-130894659D01*
X131845789Y-130825570D01*
X131870333Y-130726541D01*
X131847329Y-130587474D01*
X131784552Y-130433364D01*
X131689777Y-130289203D01*
X131672784Y-130269424D01*
X131554654Y-130137214D01*
X131178510Y-130177535D01*
X130967018Y-130195107D01*
X130822238Y-130188680D01*
X130726992Y-130150126D01*
X130664101Y-130071313D01*
X130616388Y-129944111D01*
X130605533Y-129906360D01*
X130549821Y-129773066D01*
X130479777Y-129703784D01*
X130473259Y-129701376D01*
X130340696Y-129696715D01*
X130159607Y-129745412D01*
X129944157Y-129842868D01*
X129818955Y-129913881D01*
X129654814Y-130006006D01*
X129541535Y-130054832D01*
X129484461Y-130060299D01*
X129488931Y-130022350D01*
X129560288Y-129940925D01*
X129586303Y-129916427D01*
X129679435Y-129816894D01*
X129738127Y-129727335D01*
X129748309Y-129692513D01*
X129779801Y-129626558D01*
X129860280Y-129529065D01*
X129966274Y-129426667D01*
X130099020Y-129318884D01*
X130207803Y-129257942D01*
X130326603Y-129227974D01*
X130411686Y-129218683D01*
X130549849Y-129197583D01*
X130655031Y-129164155D01*
X130689872Y-129140839D01*
X130781281Y-129086380D01*
X130891767Y-129109790D01*
X130990562Y-129188002D01*
X131099526Y-129266179D01*
X131205006Y-129294725D01*
X131298334Y-129318777D01*
X131380548Y-129401130D01*
X131416198Y-129455547D01*
X131486052Y-129561316D01*
X131544509Y-129634493D01*
X131558419Y-129646994D01*
X131673838Y-129678455D01*
X131813796Y-129639922D01*
X131932717Y-129560393D01*
X132054401Y-129463470D01*
X132174534Y-129377502D01*
X132193659Y-129365131D01*
X132293826Y-129272005D01*
X132358233Y-129163333D01*
X132441633Y-129028923D01*
X132576041Y-128962413D01*
X132665263Y-128953950D01*
X132756757Y-128938606D01*
X132798656Y-128911261D01*
X132858942Y-128875242D01*
X132906831Y-128868572D01*
X132941400Y-128872543D01*
G37*
G36*
X125060805Y-145001142D02*
G01*
X125063746Y-145102515D01*
X125058609Y-145235157D01*
X125052897Y-145392365D01*
X125064181Y-145491810D01*
X125097832Y-145560311D01*
X125131291Y-145598014D01*
X125248970Y-145668855D01*
X125349412Y-145688068D01*
X125443813Y-145693617D01*
X125470606Y-145722831D01*
X125437009Y-145794558D01*
X125407694Y-145840266D01*
X125345383Y-145975492D01*
X125303117Y-146142780D01*
X125287301Y-146305953D01*
X125303757Y-146427325D01*
X125383247Y-146518645D01*
X125526662Y-146583707D01*
X125668609Y-146642243D01*
X125793223Y-146716138D01*
X125818992Y-146736765D01*
X125913988Y-146807259D01*
X126052539Y-146894289D01*
X126177186Y-146964174D01*
X126421769Y-147065431D01*
X126643568Y-147093213D01*
X126861508Y-147048543D01*
X126960414Y-147006510D01*
X127082187Y-146953534D01*
X127169516Y-146939452D01*
X127261941Y-146960538D01*
X127300083Y-146974498D01*
X127446548Y-147048688D01*
X127509684Y-147130424D01*
X127491477Y-147224022D01*
X127443668Y-147286256D01*
X127353788Y-147367113D01*
X127274507Y-147415600D01*
X127271158Y-147416741D01*
X127206752Y-147468845D01*
X127144554Y-147565821D01*
X127139170Y-147577559D01*
X127090779Y-147661654D01*
X127020087Y-147716702D01*
X126901040Y-147759861D01*
X126836120Y-147777115D01*
X126691305Y-147809763D01*
X126591677Y-147815865D01*
X126500833Y-147794018D01*
X126422615Y-147761183D01*
X126221399Y-147715005D01*
X125997509Y-147739190D01*
X125769224Y-147829184D01*
X125559496Y-147976265D01*
X125499879Y-148022657D01*
X125451561Y-148025295D01*
X125385841Y-147978245D01*
X125332102Y-147929244D01*
X125229338Y-147851907D01*
X125129179Y-147828319D01*
X125005101Y-147857199D01*
X124889913Y-147907900D01*
X124780099Y-147958864D01*
X124705951Y-147989396D01*
X124691443Y-147993278D01*
X124652134Y-147965387D01*
X124572731Y-147893163D01*
X124494719Y-147816553D01*
X124319752Y-147639829D01*
X124012817Y-147663685D01*
X123820022Y-147689717D01*
X123633193Y-147733150D01*
X123513782Y-147775438D01*
X123313394Y-147847708D01*
X123151359Y-147867656D01*
X123036633Y-147837283D01*
X122978175Y-147758588D01*
X122979216Y-147656100D01*
X123022755Y-147555292D01*
X123116726Y-147459538D01*
X123229242Y-147380502D01*
X123488588Y-147179552D01*
X123506869Y-147160272D01*
X125265892Y-147160272D01*
X125305540Y-147286945D01*
X125376990Y-147376325D01*
X125515088Y-147466660D01*
X125641060Y-147474960D01*
X125748302Y-147401859D01*
X125792044Y-147336459D01*
X125840535Y-147223435D01*
X125838527Y-147140245D01*
X125822118Y-147102647D01*
X125713295Y-146984746D01*
X125549216Y-146929877D01*
X125481788Y-146926051D01*
X125358859Y-146959013D01*
X125285279Y-147044024D01*
X125265892Y-147160272D01*
X123506869Y-147160272D01*
X123724022Y-146931247D01*
X123920992Y-146655536D01*
X124064948Y-146372371D01*
X124135210Y-146138327D01*
X124177572Y-146023448D01*
X124257936Y-145970182D01*
X124264139Y-145968533D01*
X124380089Y-145897549D01*
X124455711Y-145757752D01*
X124487890Y-145557173D01*
X124484300Y-145401289D01*
X124472877Y-145252980D01*
X124478871Y-145174905D01*
X124517291Y-145151952D01*
X124603143Y-145169010D01*
X124690166Y-145194018D01*
X124778589Y-145186699D01*
X124881699Y-145110173D01*
X124900926Y-145090683D01*
X124983105Y-145010848D01*
X125040370Y-144965946D01*
X125049926Y-144962353D01*
X125060805Y-145001142D01*
G37*
G36*
X102111644Y-140685893D02*
G01*
X102167834Y-140776026D01*
X102207588Y-140852564D01*
X102381718Y-141165643D01*
X102563946Y-141407552D01*
X102750293Y-141574359D01*
X102936783Y-141662130D01*
X103039510Y-141675295D01*
X103099240Y-141679540D01*
X103132629Y-141705090D01*
X103147331Y-141771165D01*
X103150999Y-141896986D01*
X103151093Y-141955532D01*
X103175296Y-142246566D01*
X103252973Y-142480653D01*
X103391730Y-142672857D01*
X103595519Y-142835887D01*
X103742794Y-142938908D01*
X103833039Y-143026648D01*
X103886164Y-143120840D01*
X103903579Y-143172188D01*
X103931195Y-143283293D01*
X103925088Y-143343109D01*
X103881428Y-143380322D01*
X103875341Y-143383642D01*
X103716445Y-143423439D01*
X103555573Y-143382934D01*
X103523120Y-143363965D01*
X103390623Y-143320560D01*
X103211722Y-143319743D01*
X103012554Y-143359079D01*
X102835042Y-143428063D01*
X102637949Y-143526496D01*
X102665373Y-143733232D01*
X102668214Y-143907008D01*
X102620403Y-144025493D01*
X102517793Y-144090160D01*
X102356240Y-144102483D01*
X102131596Y-144063936D01*
X101913110Y-144000544D01*
X101726270Y-143944929D01*
X101539781Y-143897880D01*
X101392935Y-143869278D01*
X101388715Y-143868695D01*
X101228353Y-143826094D01*
X101067876Y-143749703D01*
X100932144Y-143654915D01*
X100846017Y-143557120D01*
X100831891Y-143523955D01*
X100810667Y-143430862D01*
X100786617Y-143304190D01*
X100783582Y-143286484D01*
X100723492Y-143129786D01*
X100613551Y-143035568D01*
X100465583Y-143012527D01*
X100420780Y-143019608D01*
X100288366Y-143077883D01*
X100205698Y-143189312D01*
X100167240Y-143363653D01*
X100162857Y-143474391D01*
X100162857Y-143717683D01*
X99896051Y-143645470D01*
X99629244Y-143573257D01*
X99629244Y-143368937D01*
X99619760Y-143229089D01*
X99583875Y-143141811D01*
X99530296Y-143089940D01*
X99459637Y-143011935D01*
X99456350Y-142916534D01*
X99459486Y-142903154D01*
X99460639Y-142795193D01*
X99398350Y-142714607D01*
X99327735Y-142622206D01*
X99311540Y-142528715D01*
X99351765Y-142465042D01*
X99388354Y-142395717D01*
X99388310Y-142268691D01*
X99353225Y-142102608D01*
X99310089Y-141976688D01*
X99225724Y-141762652D01*
X99485282Y-141971806D01*
X99686940Y-142111339D01*
X99917573Y-142234636D01*
X100151818Y-142330777D01*
X100364313Y-142388843D01*
X100482192Y-142401009D01*
X100650138Y-142360167D01*
X100759032Y-142288974D01*
X100843581Y-142222925D01*
X100895072Y-142192355D01*
X100901047Y-142192924D01*
X100926290Y-142238682D01*
X100956911Y-142294286D01*
X101043471Y-142381663D01*
X101160539Y-142392938D01*
X101301830Y-142329053D01*
X101429131Y-142223436D01*
X101532457Y-142124989D01*
X101591864Y-142081083D01*
X101622768Y-142084869D01*
X101640579Y-142129476D01*
X101683993Y-142199644D01*
X101758810Y-142260582D01*
X101835835Y-142294209D01*
X101885873Y-142282448D01*
X101886365Y-142281679D01*
X101906012Y-142222846D01*
X101930399Y-142116574D01*
X101935418Y-142090716D01*
X101964431Y-141983871D01*
X101998872Y-141914962D01*
X102028014Y-141898039D01*
X102041133Y-141947149D01*
X102041177Y-141952195D01*
X102073539Y-142034853D01*
X102150979Y-142128512D01*
X102244026Y-142203430D01*
X102316715Y-142230253D01*
X102367860Y-142194460D01*
X102382423Y-142096791D01*
X102361850Y-141951811D01*
X102307589Y-141774083D01*
X102259929Y-141658812D01*
X102191793Y-141518900D01*
X102130611Y-141411142D01*
X102089501Y-141358614D01*
X102089173Y-141358406D01*
X102068015Y-141307319D01*
X102052587Y-141199565D01*
X102043358Y-141059156D01*
X102040797Y-140910104D01*
X102045373Y-140776420D01*
X102057553Y-140682116D01*
X102075359Y-140650757D01*
X102111644Y-140685893D01*
G37*
G36*
X149379563Y-125364372D02*
G01*
X149342398Y-125462928D01*
X149270573Y-125583023D01*
X149171884Y-125790745D01*
X149146689Y-125938162D01*
X149141375Y-126060893D01*
X149135493Y-126148683D01*
X149133972Y-126162221D01*
X149088380Y-126189580D01*
X148967143Y-126192908D01*
X148911019Y-126188541D01*
X148775621Y-126181176D01*
X148685401Y-126200659D01*
X148601275Y-126260061D01*
X148548162Y-126309905D01*
X148444674Y-126436363D01*
X148401920Y-126549545D01*
X148401513Y-126559597D01*
X148364215Y-126669745D01*
X148254485Y-126814346D01*
X148205027Y-126866638D01*
X148094193Y-126988084D01*
X148040406Y-127074238D01*
X148033560Y-127142532D01*
X148037147Y-127156255D01*
X148080314Y-127233533D01*
X148137314Y-127228858D01*
X148211882Y-127141879D01*
X148213338Y-127139664D01*
X148291743Y-127062263D01*
X148371654Y-127032942D01*
X148464962Y-127004748D01*
X148558846Y-126940122D01*
X148633062Y-126881233D01*
X148662297Y-126881656D01*
X148650514Y-126930752D01*
X148601677Y-127017877D01*
X148519749Y-127132390D01*
X148459953Y-127205616D01*
X148311432Y-127384356D01*
X148216050Y-127512085D01*
X148167385Y-127598966D01*
X148159015Y-127655158D01*
X148165563Y-127671400D01*
X148235884Y-127712640D01*
X148343733Y-127697112D01*
X148438301Y-127646993D01*
X148533749Y-127598759D01*
X148581684Y-127618601D01*
X148581516Y-127703268D01*
X148532654Y-127849506D01*
X148491645Y-127940795D01*
X148407153Y-128109536D01*
X148338280Y-128216441D01*
X148267940Y-128278536D01*
X148179046Y-128312849D01*
X148102689Y-128328414D01*
X147953278Y-128354347D01*
X147725162Y-127950377D01*
X147623072Y-127760932D01*
X147531760Y-127575916D01*
X147463699Y-127421396D01*
X147450325Y-127384357D01*
X147570281Y-127384357D01*
X147594705Y-127467839D01*
X147628501Y-127523187D01*
X147660852Y-127529799D01*
X147712805Y-127481343D01*
X147768526Y-127415557D01*
X147840822Y-127312491D01*
X147877916Y-127226611D01*
X147879113Y-127203962D01*
X147831547Y-127153873D01*
X147761167Y-127139664D01*
X147657981Y-127176375D01*
X147589522Y-127267463D01*
X147570281Y-127384357D01*
X147450325Y-127384357D01*
X147438023Y-127350285D01*
X147363786Y-127164406D01*
X147244935Y-126938162D01*
X147152000Y-126787479D01*
X147849646Y-126787479D01*
X147882299Y-126816187D01*
X147983691Y-126808176D01*
X148046451Y-126793342D01*
X148124518Y-126744462D01*
X148216910Y-126648762D01*
X148259897Y-126591299D01*
X148361727Y-126445417D01*
X148476870Y-126286046D01*
X148519183Y-126229038D01*
X148592218Y-126119690D01*
X148632195Y-126035446D01*
X148634059Y-126004773D01*
X148566892Y-125964550D01*
X148472609Y-125979890D01*
X148380893Y-126042612D01*
X148348831Y-126083380D01*
X148287315Y-126173755D01*
X148192323Y-126305662D01*
X148082631Y-126453108D01*
X148063771Y-126477984D01*
X147965537Y-126610356D01*
X147890833Y-126717110D01*
X147852270Y-126780019D01*
X147849646Y-126787479D01*
X147152000Y-126787479D01*
X147094469Y-126694199D01*
X146925387Y-126455161D01*
X146920410Y-126448627D01*
X146844538Y-126340750D01*
X146800676Y-126261363D01*
X146796384Y-126233253D01*
X146847252Y-126232130D01*
X146939885Y-126260375D01*
X146947887Y-126263628D01*
X147097713Y-126296500D01*
X147224305Y-126271223D01*
X147305707Y-126193480D01*
X147315850Y-126168389D01*
X147384428Y-126058428D01*
X147486598Y-126008359D01*
X147596474Y-126023039D01*
X147683147Y-126099448D01*
X147753268Y-126162379D01*
X147839090Y-126155406D01*
X147946949Y-126075765D01*
X148078086Y-125927140D01*
X148244414Y-125717159D01*
X148464515Y-125739875D01*
X148637252Y-125741640D01*
X148794183Y-125702231D01*
X148956525Y-125612717D01*
X149145493Y-125464165D01*
X149169916Y-125442870D01*
X149290625Y-125350587D01*
X149361406Y-125325673D01*
X149379563Y-125364372D01*
G37*
G36*
X125767276Y-140417698D02*
G01*
X125843132Y-140490762D01*
X125926990Y-140523763D01*
X126054344Y-140529288D01*
X126079748Y-140528512D01*
X126209325Y-140528789D01*
X126286054Y-140551423D01*
X126342150Y-140611421D01*
X126376419Y-140666700D01*
X126483007Y-140792821D01*
X126603971Y-140843882D01*
X126719558Y-140819321D01*
X126859620Y-140780804D01*
X126983700Y-140825511D01*
X127066369Y-140911563D01*
X127156437Y-141009893D01*
X127249461Y-141076712D01*
X127260842Y-141081678D01*
X127362679Y-141154354D01*
X127387470Y-141261877D01*
X127341780Y-141387120D01*
X127277613Y-141553530D01*
X127293014Y-141693729D01*
X127343343Y-141770495D01*
X127395478Y-141873406D01*
X127407175Y-141970375D01*
X127425926Y-142087281D01*
X127485178Y-142217295D01*
X127496405Y-142234671D01*
X127566680Y-142345941D01*
X127616625Y-142438495D01*
X127622881Y-142453190D01*
X127677396Y-142517131D01*
X127778590Y-142586018D01*
X127812914Y-142603651D01*
X127910057Y-142654809D01*
X127955477Y-142706987D01*
X127965511Y-142791385D01*
X127960314Y-142885134D01*
X127956256Y-142989233D01*
X127969252Y-143068078D01*
X128010662Y-143144505D01*
X128091844Y-143241348D01*
X128188725Y-143344325D01*
X128324193Y-143498245D01*
X128395768Y-143619531D01*
X128407067Y-143727817D01*
X128361705Y-143842738D01*
X128298051Y-143937816D01*
X128218849Y-144013708D01*
X128120835Y-144033469D01*
X127982488Y-143999419D01*
X127926925Y-143977841D01*
X127836487Y-143949505D01*
X127753205Y-143953812D01*
X127642278Y-143994915D01*
X127592709Y-144017714D01*
X127429337Y-144078718D01*
X127309231Y-144078209D01*
X127211880Y-144011440D01*
X127140171Y-143912940D01*
X127004722Y-143765004D01*
X126808508Y-143645814D01*
X126615216Y-143579150D01*
X126486449Y-143587905D01*
X126347890Y-143659315D01*
X126222393Y-143777143D01*
X126134701Y-143920559D01*
X126039931Y-144065674D01*
X125910775Y-144133936D01*
X125779696Y-144130662D01*
X125664645Y-144066290D01*
X125593362Y-143951378D01*
X125584369Y-143824717D01*
X125616342Y-143650876D01*
X125626301Y-143535761D01*
X125611822Y-143454999D01*
X125570480Y-143384215D01*
X125536327Y-143341790D01*
X125459665Y-143263718D01*
X125378859Y-143225124D01*
X125259587Y-143212717D01*
X125201433Y-143212101D01*
X125019065Y-143193345D01*
X124911944Y-143137473D01*
X124881133Y-143045078D01*
X124882292Y-143033840D01*
X124881599Y-142922005D01*
X124832716Y-142829681D01*
X124766876Y-142761828D01*
X124641609Y-142675172D01*
X124533271Y-142668879D01*
X124433179Y-142740773D01*
X124356300Y-142866872D01*
X124322945Y-143010732D01*
X124330430Y-143150651D01*
X124376072Y-143264933D01*
X124457186Y-143331877D01*
X124507399Y-143340822D01*
X124648729Y-143372651D01*
X124734542Y-143466768D01*
X124765532Y-143624618D01*
X124744542Y-143836407D01*
X124709104Y-144052553D01*
X124699711Y-144204660D01*
X124718346Y-144310605D01*
X124766990Y-144388265D01*
X124810076Y-144427665D01*
X124899611Y-144516451D01*
X124909435Y-144582937D01*
X124837410Y-144635123D01*
X124746595Y-144664922D01*
X124616549Y-144682299D01*
X124485501Y-144672914D01*
X124380081Y-144641972D01*
X124326914Y-144594678D01*
X124324874Y-144582486D01*
X124298556Y-144536577D01*
X124232364Y-144454199D01*
X124199213Y-144416909D01*
X124089862Y-144327643D01*
X123976571Y-144281813D01*
X123882115Y-144284604D01*
X123831912Y-144333279D01*
X123836158Y-144396022D01*
X123865508Y-144516118D01*
X123914202Y-144671313D01*
X123934151Y-144728152D01*
X124029481Y-145020012D01*
X124079292Y-145244064D01*
X124083384Y-145404860D01*
X124041557Y-145506949D01*
X123953611Y-145554883D01*
X123897511Y-145560000D01*
X123840676Y-145581472D01*
X123811701Y-145658919D01*
X123804510Y-145719729D01*
X123775821Y-145846700D01*
X123720531Y-145894178D01*
X123643327Y-145862113D01*
X123548894Y-145750451D01*
X123530984Y-145722783D01*
X123441776Y-145589326D01*
X123370556Y-145514692D01*
X123295414Y-145482222D01*
X123205479Y-145475276D01*
X123136914Y-145483477D01*
X123090696Y-145522115D01*
X123051461Y-145610806D01*
X123020358Y-145711693D01*
X122986531Y-145851571D01*
X122971534Y-145963833D01*
X122975136Y-146010516D01*
X122972767Y-146043532D01*
X122924326Y-146062577D01*
X122815130Y-146070964D01*
X122701350Y-146072269D01*
X122545814Y-146078046D01*
X122440771Y-146093658D01*
X122403866Y-146115586D01*
X122367738Y-146170631D01*
X122278440Y-146234355D01*
X122164599Y-146290972D01*
X122054842Y-146324699D01*
X122018196Y-146328244D01*
X121911127Y-146364072D01*
X121834354Y-146456471D01*
X121772769Y-146539427D01*
X121696504Y-146576306D01*
X121574242Y-146584538D01*
X121450808Y-146572985D01*
X121363185Y-146544042D01*
X121347548Y-146531177D01*
X121313750Y-146465703D01*
X121265092Y-146344408D01*
X121211879Y-146193055D01*
X121209869Y-146186947D01*
X121147839Y-146023065D01*
X121078543Y-145877683D01*
X121019655Y-145785903D01*
X120940131Y-145712277D01*
X120854382Y-145693560D01*
X120772194Y-145704371D01*
X120655290Y-145740329D01*
X120572675Y-145790082D01*
X120567298Y-145795920D01*
X120469765Y-145852678D01*
X120341962Y-145839815D01*
X120257238Y-145797641D01*
X120201257Y-145768333D01*
X120155533Y-145775512D01*
X120101127Y-145830947D01*
X120020053Y-145945015D01*
X119943857Y-146067306D01*
X119897176Y-146180192D01*
X119870223Y-146315964D01*
X119854203Y-146492245D01*
X119830990Y-146830918D01*
X119612638Y-146853466D01*
X119463490Y-146860195D01*
X119376202Y-146839820D01*
X119345467Y-146813708D01*
X119273374Y-146766667D01*
X119157770Y-146730110D01*
X119132022Y-146725402D01*
X118997932Y-146691697D01*
X118929043Y-146630336D01*
X118905331Y-146518818D01*
X118904015Y-146469152D01*
X118874186Y-146277642D01*
X118794376Y-146159434D01*
X118978420Y-146159434D01*
X119002310Y-146307204D01*
X119067328Y-146402703D01*
X119154992Y-146451599D01*
X119257436Y-146485598D01*
X119330842Y-146489969D01*
X119418585Y-146462968D01*
X119477896Y-146438616D01*
X119571017Y-146388714D01*
X119621043Y-146319841D01*
X119649340Y-146200588D01*
X119652128Y-146182489D01*
X119684208Y-146046211D01*
X119738738Y-145966934D01*
X119791852Y-145933537D01*
X119911325Y-145843173D01*
X119995529Y-145718541D01*
X120029492Y-145587725D01*
X120016973Y-145511299D01*
X119989041Y-145412333D01*
X119980348Y-145365452D01*
X121507395Y-145365452D01*
X121528286Y-145491535D01*
X121598521Y-145574422D01*
X121729442Y-145621674D01*
X121919819Y-145640427D01*
X122036821Y-145621779D01*
X122138672Y-145544143D01*
X122165281Y-145514036D01*
X122236461Y-145412269D01*
X122274048Y-145325038D01*
X122275799Y-145310089D01*
X122236212Y-145183785D01*
X122129763Y-145073800D01*
X121979298Y-145000695D01*
X121786463Y-144969662D01*
X121644162Y-145007412D01*
X121552172Y-145114115D01*
X121510271Y-145289945D01*
X121507395Y-145365452D01*
X119980348Y-145365452D01*
X119962157Y-145267357D01*
X119949065Y-145168373D01*
X119929763Y-145028554D01*
X119901743Y-144949055D01*
X119851320Y-144904963D01*
X119790796Y-144880222D01*
X119675573Y-144847579D01*
X119586633Y-144834286D01*
X119484159Y-144874682D01*
X119398538Y-144987559D01*
X119338036Y-145160456D01*
X119324948Y-145228838D01*
X119287728Y-145387165D01*
X119225572Y-145495799D01*
X119156903Y-145561850D01*
X119080581Y-145635582D01*
X119034162Y-145719909D01*
X119005183Y-145843748D01*
X118991339Y-145946051D01*
X118978420Y-146159434D01*
X118794376Y-146159434D01*
X118787770Y-146149650D01*
X118646175Y-146086037D01*
X118450808Y-146087663D01*
X118325355Y-146115436D01*
X118209322Y-146152229D01*
X118153835Y-146194381D01*
X118136780Y-146268631D01*
X118135817Y-146344624D01*
X118107936Y-146522720D01*
X118026301Y-146745159D01*
X117997078Y-146807773D01*
X117921803Y-146956022D01*
X117865164Y-147042428D01*
X117811743Y-147083440D01*
X117746123Y-147095508D01*
X117726987Y-147095924D01*
X117656586Y-147089703D01*
X117602974Y-147058903D01*
X117550951Y-146987022D01*
X117485318Y-146857558D01*
X117462391Y-146808656D01*
X117382141Y-146624080D01*
X117306448Y-146429806D01*
X117257399Y-146285715D01*
X117189684Y-146118421D01*
X117101766Y-145975363D01*
X117063088Y-145931366D01*
X116983811Y-145837601D01*
X116941558Y-145754571D01*
X116939426Y-145739265D01*
X116908671Y-145554260D01*
X116828950Y-145358146D01*
X116723291Y-145200331D01*
X116706685Y-145174840D01*
X117980711Y-145174840D01*
X117991552Y-145291685D01*
X118026686Y-145421261D01*
X118086803Y-145568318D01*
X118162534Y-145640065D01*
X118272691Y-145645465D01*
X118409658Y-145603746D01*
X118480109Y-145564371D01*
X118511541Y-145498657D01*
X118518211Y-145379628D01*
X118487041Y-145190470D01*
X118394866Y-145060622D01*
X118240260Y-144988245D01*
X118210364Y-144982007D01*
X118103298Y-144969155D01*
X118046490Y-144992197D01*
X118007515Y-145065754D01*
X118003860Y-145075129D01*
X117980711Y-145174840D01*
X116706685Y-145174840D01*
X116639686Y-145071996D01*
X116633443Y-144955008D01*
X116706389Y-144835643D01*
X116781428Y-144763575D01*
X116868012Y-144655528D01*
X116915034Y-144544883D01*
X120568236Y-144544883D01*
X120586183Y-144616060D01*
X120629928Y-144727615D01*
X120684329Y-144845006D01*
X120734244Y-144933690D01*
X120745132Y-144948407D01*
X120836776Y-144998567D01*
X120958002Y-144987993D01*
X121066904Y-144929387D01*
X121162400Y-144809630D01*
X121195156Y-144669008D01*
X121171535Y-144529005D01*
X121097901Y-144411104D01*
X120980619Y-144336788D01*
X120886968Y-144322017D01*
X120768272Y-144347987D01*
X120657185Y-144412270D01*
X120582942Y-144494422D01*
X120568236Y-144544883D01*
X116915034Y-144544883D01*
X116917552Y-144538959D01*
X116977098Y-144414952D01*
X117085141Y-144300803D01*
X117088426Y-144298274D01*
X117198636Y-144193418D01*
X117201568Y-144187015D01*
X117794236Y-144187015D01*
X117802365Y-144288430D01*
X117827613Y-144372634D01*
X117846807Y-144398320D01*
X117953247Y-144454295D01*
X118105404Y-144497735D01*
X118273277Y-144524208D01*
X118426864Y-144529287D01*
X118536164Y-144508542D01*
X118548506Y-144501923D01*
X118616759Y-144413320D01*
X118671243Y-144246398D01*
X118695675Y-144095802D01*
X118829948Y-144095802D01*
X118831792Y-144201381D01*
X118840717Y-144238887D01*
X118932560Y-144313736D01*
X119077150Y-144352418D01*
X119248624Y-144352078D01*
X119421118Y-144309860D01*
X119434545Y-144304439D01*
X119512387Y-144266816D01*
X119558691Y-144219878D01*
X119585382Y-144140206D01*
X119604387Y-144004375D01*
X119609030Y-143961745D01*
X119623982Y-143691707D01*
X119601847Y-143495102D01*
X119541135Y-143367760D01*
X119440354Y-143305510D01*
X119371670Y-143297479D01*
X119281244Y-143318495D01*
X119180022Y-143389503D01*
X119061772Y-143509933D01*
X118949982Y-143645192D01*
X118885551Y-143760302D01*
X118851030Y-143890694D01*
X118841392Y-143957425D01*
X118829948Y-144095802D01*
X118695675Y-144095802D01*
X118710018Y-144007395D01*
X118713907Y-143970309D01*
X118725819Y-143821886D01*
X118721096Y-143733941D01*
X118694512Y-143682340D01*
X118643358Y-143644461D01*
X118470110Y-143562136D01*
X118324773Y-143548729D01*
X118195464Y-143608393D01*
X118070305Y-143745282D01*
X117987904Y-143873611D01*
X117917023Y-143982267D01*
X117857713Y-144051976D01*
X117834335Y-144065883D01*
X117804476Y-144101721D01*
X117794236Y-144187015D01*
X117201568Y-144187015D01*
X117251258Y-144078497D01*
X117251906Y-143930630D01*
X117217949Y-143770115D01*
X117179392Y-143563222D01*
X117193733Y-143401691D01*
X117267390Y-143259271D01*
X117371033Y-143143695D01*
X117469754Y-143038589D01*
X117519018Y-142949948D01*
X117535331Y-142840034D01*
X117536293Y-142765875D01*
X117527931Y-142600621D01*
X117508126Y-142440798D01*
X117498577Y-142392452D01*
X117485002Y-142278583D01*
X117514266Y-142195277D01*
X117598483Y-142130206D01*
X117749763Y-142071045D01*
X117841481Y-142043485D01*
X117988820Y-141993552D01*
X118075968Y-141939060D01*
X118127314Y-141863807D01*
X118133533Y-141849493D01*
X118197142Y-141734479D01*
X118264847Y-141652302D01*
X118324475Y-141608113D01*
X118377447Y-141613241D01*
X118458804Y-141670560D01*
X118613721Y-141744622D01*
X118736761Y-141760673D01*
X118920680Y-141738235D01*
X119116336Y-141678897D01*
X119294909Y-141594626D01*
X119427583Y-141497385D01*
X119459100Y-141460754D01*
X119590307Y-141345978D01*
X119695475Y-141309177D01*
X119805040Y-141273811D01*
X119875022Y-141224534D01*
X119878635Y-141218981D01*
X119909568Y-141185793D01*
X119964519Y-141181573D01*
X120066302Y-141207114D01*
X120131087Y-141227751D01*
X120325476Y-141311909D01*
X120459824Y-141425391D01*
X120544580Y-141558194D01*
X120599683Y-141624491D01*
X120694712Y-141653232D01*
X120767455Y-141657565D01*
X120954059Y-141694215D01*
X121059884Y-141753615D01*
X121156067Y-141816505D01*
X121232829Y-141845781D01*
X121237793Y-141846051D01*
X121349410Y-141818465D01*
X121463937Y-141751279D01*
X121545951Y-141667845D01*
X121562645Y-141631875D01*
X121617169Y-141553363D01*
X121709462Y-141495766D01*
X121815069Y-141428635D01*
X121913995Y-141324318D01*
X121926658Y-141306106D01*
X122015151Y-141199489D01*
X122087539Y-141165240D01*
X122134572Y-141204027D01*
X122147731Y-141290109D01*
X122182193Y-141414120D01*
X122288507Y-141504432D01*
X122471073Y-141564529D01*
X122501624Y-141570485D01*
X122634410Y-141579740D01*
X122724679Y-141543475D01*
X122740599Y-141530208D01*
X122798930Y-141490839D01*
X122871829Y-141481457D01*
X122988549Y-141500086D01*
X123034378Y-141510354D01*
X123191206Y-141537448D01*
X123304825Y-141530795D01*
X123371705Y-141508506D01*
X123469213Y-141441612D01*
X123563374Y-141338142D01*
X123636069Y-141223922D01*
X123669182Y-141124779D01*
X123665521Y-141089664D01*
X123666553Y-140990183D01*
X123726915Y-140904221D01*
X123822728Y-140864417D01*
X123830473Y-140864202D01*
X123923275Y-140831192D01*
X123954412Y-140773583D01*
X123978610Y-140718688D01*
X124029031Y-140698673D01*
X124131109Y-140706112D01*
X124167513Y-140711367D01*
X124290722Y-140723650D01*
X124369038Y-140704062D01*
X124440915Y-140639238D01*
X124468962Y-140606610D01*
X124539880Y-140512270D01*
X124578586Y-140441218D01*
X124581009Y-140429191D01*
X124618072Y-140404542D01*
X124719448Y-140413816D01*
X124719748Y-140413879D01*
X124947598Y-140455377D01*
X125120357Y-140469223D01*
X125263948Y-140454712D01*
X125404294Y-140411141D01*
X125445324Y-140394161D01*
X125665542Y-140299426D01*
X125767276Y-140417698D01*
G37*
G36*
X94485210Y-109127476D02*
G01*
X94451692Y-109156734D01*
X94361279Y-109221124D01*
X94229189Y-109310066D01*
X94122353Y-109379798D01*
X93951633Y-109493550D01*
X93842798Y-109577114D01*
X93783385Y-109642275D01*
X93760932Y-109700816D01*
X93759496Y-109722902D01*
X93781090Y-109813847D01*
X93821236Y-109855615D01*
X93879767Y-109850033D01*
X94000786Y-109820561D01*
X94166638Y-109772750D01*
X94359671Y-109712150D01*
X94562229Y-109644310D01*
X94756659Y-109574783D01*
X94925306Y-109509118D01*
X94931522Y-109506544D01*
X94960121Y-109509464D01*
X94939276Y-109556364D01*
X94881728Y-109632721D01*
X94800219Y-109724014D01*
X94707490Y-109815719D01*
X94616281Y-109893316D01*
X94557257Y-109933116D01*
X94276156Y-110092006D01*
X94061487Y-110216517D01*
X93904639Y-110312991D01*
X93797004Y-110387768D01*
X93729971Y-110447191D01*
X93694930Y-110497600D01*
X93683271Y-110545338D01*
X93684002Y-110576303D01*
X93705123Y-110667838D01*
X93765057Y-110707336D01*
X93831580Y-110717552D01*
X93897193Y-110714522D01*
X93978474Y-110689250D01*
X94087585Y-110635420D01*
X94236686Y-110546719D01*
X94437937Y-110416831D01*
X94535950Y-110351806D01*
X94777315Y-110190820D01*
X94955509Y-110072617D01*
X95078594Y-109992911D01*
X95154631Y-109947418D01*
X95191683Y-109931854D01*
X95197812Y-109941936D01*
X95181080Y-109973379D01*
X95149550Y-110021899D01*
X95145727Y-110027782D01*
X95056377Y-110138120D01*
X94914833Y-110281590D01*
X94738824Y-110442335D01*
X94546080Y-110604495D01*
X94354329Y-110752212D01*
X94266444Y-110814285D01*
X94111274Y-110927845D01*
X94024382Y-111015387D01*
X93997797Y-111089306D01*
X94023548Y-111161995D01*
X94033506Y-111176425D01*
X94116267Y-111236389D01*
X94233983Y-111233070D01*
X94390592Y-111164885D01*
X94590030Y-111030247D01*
X94780663Y-110875680D01*
X94944074Y-110732299D01*
X95093870Y-110594369D01*
X95211569Y-110479282D01*
X95271151Y-110414174D01*
X95381854Y-110277479D01*
X95298671Y-110506387D01*
X95250699Y-110629330D01*
X95199664Y-110728753D01*
X95132453Y-110820024D01*
X95035952Y-110918513D01*
X94897046Y-111039589D01*
X94720000Y-111184567D01*
X94528812Y-111353215D01*
X94398113Y-111498657D01*
X94330327Y-111615703D01*
X94327881Y-111699162D01*
X94393202Y-111743843D01*
X94455713Y-111750028D01*
X94543256Y-111733787D01*
X94651215Y-111680284D01*
X94792050Y-111581760D01*
X94978221Y-111430455D01*
X95003780Y-111408740D01*
X95229099Y-111216639D01*
X95094887Y-111451429D01*
X94977339Y-111634150D01*
X94859745Y-111753899D01*
X94716730Y-111829235D01*
X94522915Y-111878720D01*
X94506555Y-111881738D01*
X94353503Y-111919177D01*
X94224797Y-111967542D01*
X94165042Y-112003548D01*
X94097409Y-112057231D01*
X93977021Y-112147128D01*
X93821110Y-112260554D01*
X93652773Y-112380676D01*
X93433479Y-112541009D01*
X93190434Y-112727119D01*
X92959951Y-112910865D01*
X92841681Y-113009221D01*
X92660441Y-113158652D01*
X92473517Y-113304882D01*
X92306388Y-113428354D01*
X92211404Y-113492961D01*
X91781220Y-113774513D01*
X91401651Y-114037657D01*
X91080969Y-114276425D01*
X90827449Y-114484853D01*
X90792605Y-114515951D01*
X90681141Y-114608217D01*
X90512586Y-114736649D01*
X90301371Y-114890790D01*
X90061927Y-115060181D01*
X89808687Y-115234362D01*
X89704034Y-115304858D01*
X89456074Y-115471283D01*
X89221417Y-115629682D01*
X89012934Y-115771297D01*
X88843498Y-115887368D01*
X88725979Y-115969136D01*
X88691407Y-115993910D01*
X88582572Y-116073370D01*
X88427064Y-116186582D01*
X88247346Y-116317205D01*
X88099239Y-116424706D01*
X87906868Y-116568763D01*
X87677436Y-116747534D01*
X87438117Y-116939488D01*
X87216084Y-117123096D01*
X87190858Y-117144423D01*
X87008953Y-117291409D01*
X86772858Y-117471278D01*
X86500402Y-117671065D01*
X86209417Y-117877800D01*
X85917733Y-118078517D01*
X85776639Y-118172939D01*
X85439535Y-118399916D01*
X85157664Y-118597685D01*
X84935858Y-118762672D01*
X84778950Y-118891300D01*
X84700797Y-118968684D01*
X84545441Y-119148066D01*
X84421419Y-119273700D01*
X84309434Y-119360584D01*
X84190187Y-119423715D01*
X84045953Y-119477567D01*
X83879743Y-119542058D01*
X83750119Y-119620518D01*
X83623148Y-119735916D01*
X83553275Y-119811069D01*
X83439233Y-119931255D01*
X83373542Y-119984592D01*
X83353803Y-119972891D01*
X83355772Y-119959989D01*
X83348892Y-119850719D01*
X83319156Y-119784668D01*
X83280477Y-119739793D01*
X83231455Y-119723384D01*
X83147130Y-119733615D01*
X83024370Y-119763082D01*
X82908236Y-119802788D01*
X82763570Y-119872085D01*
X82580553Y-119976578D01*
X82349363Y-120121871D01*
X82062608Y-120311932D01*
X81839109Y-120459984D01*
X81635395Y-120589994D01*
X81463441Y-120694711D01*
X81335227Y-120766887D01*
X81262730Y-120799270D01*
X81255688Y-120800337D01*
X81153160Y-120812141D01*
X81112712Y-120823549D01*
X81038547Y-120815305D01*
X80964569Y-120770187D01*
X80918257Y-120702334D01*
X80852238Y-120568737D01*
X80773373Y-120384789D01*
X80688528Y-120165885D01*
X80659278Y-120085504D01*
X80645695Y-120049838D01*
X81593110Y-120049838D01*
X81617947Y-120161246D01*
X81689775Y-120204590D01*
X81804568Y-120180264D01*
X81958300Y-120088662D01*
X82065241Y-120003559D01*
X82224353Y-119875576D01*
X82414246Y-119734845D01*
X82585631Y-119617289D01*
X82753452Y-119497505D01*
X82847266Y-119400717D01*
X82872360Y-119318271D01*
X82834020Y-119241508D01*
X82822555Y-119229379D01*
X82754935Y-119184324D01*
X82671864Y-119178360D01*
X82563597Y-119215861D01*
X82420387Y-119301197D01*
X82232489Y-119438742D01*
X82072113Y-119566029D01*
X81865884Y-119737147D01*
X81722580Y-119866502D01*
X81635136Y-119961228D01*
X81596490Y-120028459D01*
X81593110Y-120049838D01*
X80645695Y-120049838D01*
X80565131Y-119838292D01*
X80483875Y-119644903D01*
X80867615Y-119644903D01*
X80884855Y-119796863D01*
X80919638Y-119871630D01*
X80991775Y-119900708D01*
X81058708Y-119903866D01*
X81183208Y-119888502D01*
X81341586Y-119849174D01*
X81436541Y-119817499D01*
X81605387Y-119735965D01*
X81762857Y-119615221D01*
X81897050Y-119479235D01*
X82067550Y-119291059D01*
X82187532Y-119152425D01*
X82264304Y-119050058D01*
X82305174Y-118970685D01*
X82308971Y-118949140D01*
X83257984Y-118949140D01*
X83263990Y-119064146D01*
X83278946Y-119138517D01*
X83284368Y-119147617D01*
X83357609Y-119163560D01*
X83494533Y-119135523D01*
X83687141Y-119065906D01*
X83927435Y-118957110D01*
X83940596Y-118950666D01*
X84234377Y-118790990D01*
X84446892Y-118640799D01*
X84577085Y-118500997D01*
X84623899Y-118372489D01*
X84624034Y-118365583D01*
X84614475Y-118228991D01*
X84573639Y-118151934D01*
X84483292Y-118118046D01*
X84340287Y-118110925D01*
X84159105Y-118125867D01*
X83993492Y-118177019D01*
X83824813Y-118273864D01*
X83634433Y-118425888D01*
X83524790Y-118526018D01*
X83393344Y-118653477D01*
X83313726Y-118745213D01*
X83273221Y-118821390D01*
X83259113Y-118902175D01*
X83257984Y-118949140D01*
X82308971Y-118949140D01*
X82317448Y-118901033D01*
X82308433Y-118827826D01*
X82291918Y-118761933D01*
X82265242Y-118704224D01*
X82209551Y-118675535D01*
X82100719Y-118666295D01*
X82049844Y-118665883D01*
X81818314Y-118695415D01*
X81592295Y-118788256D01*
X81359457Y-118950773D01*
X81180185Y-119114985D01*
X81006817Y-119309100D01*
X80904659Y-119481048D01*
X80867615Y-119644903D01*
X80483875Y-119644903D01*
X80460334Y-119588876D01*
X80356369Y-119363118D01*
X80264716Y-119186881D01*
X80246966Y-119156700D01*
X80106475Y-118911239D01*
X80012520Y-118706861D01*
X79957049Y-118519000D01*
X79932010Y-118323093D01*
X79928236Y-118184395D01*
X79933339Y-118017140D01*
X80524528Y-118017140D01*
X80538624Y-118168300D01*
X80570074Y-118241798D01*
X80648469Y-118303814D01*
X80782218Y-118324209D01*
X80885745Y-118311682D01*
X82419795Y-118311682D01*
X82442491Y-118372810D01*
X82536207Y-118401743D01*
X82706503Y-118406580D01*
X82800603Y-118403443D01*
X82979384Y-118393379D01*
X83100484Y-118375873D01*
X83191593Y-118342242D01*
X83280400Y-118283800D01*
X83344553Y-118232841D01*
X83464340Y-118144149D01*
X83632427Y-118031185D01*
X83786005Y-117934289D01*
X85143679Y-117934289D01*
X85147021Y-118026149D01*
X85152154Y-118047970D01*
X85199448Y-118091521D01*
X85294009Y-118083242D01*
X85444394Y-118022014D01*
X85477815Y-118005403D01*
X85812023Y-117827623D01*
X86117549Y-117648958D01*
X86386228Y-117475352D01*
X86609898Y-117312752D01*
X86780395Y-117167104D01*
X86889554Y-117044353D01*
X86929213Y-116950446D01*
X86929244Y-116948281D01*
X86895342Y-116855165D01*
X86816644Y-116775461D01*
X86733931Y-116744874D01*
X86641605Y-116766983D01*
X86495343Y-116827149D01*
X86312290Y-116916132D01*
X86109589Y-117024691D01*
X85904386Y-117143586D01*
X85713823Y-117263577D01*
X85555046Y-117375423D01*
X85534504Y-117391341D01*
X85392281Y-117503289D01*
X85277500Y-117593577D01*
X85205104Y-117650454D01*
X85187839Y-117663952D01*
X85167453Y-117716978D01*
X85151611Y-117819161D01*
X85143679Y-117934289D01*
X83786005Y-117934289D01*
X83822536Y-117911241D01*
X83941009Y-117840330D01*
X84114328Y-117736378D01*
X84265736Y-117640652D01*
X84376263Y-117565429D01*
X84421261Y-117529516D01*
X84488495Y-117413499D01*
X84478234Y-117292758D01*
X84392812Y-117191578D01*
X84388488Y-117188689D01*
X84259886Y-117142583D01*
X84090891Y-117149572D01*
X83876384Y-117211177D01*
X83611245Y-117328919D01*
X83290357Y-117504317D01*
X83254075Y-117525635D01*
X83025133Y-117664603D01*
X82856147Y-117777494D01*
X82730939Y-117876869D01*
X82633328Y-117975288D01*
X82565231Y-118060433D01*
X82462562Y-118210256D01*
X82419795Y-118311682D01*
X80885745Y-118311682D01*
X80952479Y-118303607D01*
X81140412Y-118242632D01*
X81187563Y-118221337D01*
X81339115Y-118135900D01*
X81509390Y-118021092D01*
X81624364Y-117932062D01*
X81786163Y-117810533D01*
X81978993Y-117685331D01*
X82127564Y-117601454D01*
X82352637Y-117464563D01*
X82497392Y-117323888D01*
X82566868Y-117173736D01*
X82574958Y-117095696D01*
X82564848Y-117033414D01*
X85062118Y-117033414D01*
X85073075Y-117104929D01*
X85130132Y-117186886D01*
X85205949Y-117246178D01*
X85246863Y-117257143D01*
X85324819Y-117242750D01*
X85418896Y-117212510D01*
X85498076Y-117173526D01*
X85631643Y-117098447D01*
X85802198Y-116997398D01*
X85992345Y-116880502D01*
X86029994Y-116856868D01*
X86216598Y-116740615D01*
X86381514Y-116640282D01*
X86509209Y-116565145D01*
X86584154Y-116524481D01*
X86592480Y-116520913D01*
X86665832Y-116455542D01*
X86685113Y-116352162D01*
X86645832Y-116242277D01*
X86634414Y-116226936D01*
X86608448Y-116194869D01*
X87649179Y-116194869D01*
X87812153Y-116166278D01*
X87949830Y-116126744D01*
X88106816Y-116060413D01*
X88167227Y-116028714D01*
X88325724Y-115934743D01*
X88502353Y-115823606D01*
X88679701Y-115707050D01*
X88840351Y-115596817D01*
X88966888Y-115504652D01*
X89041895Y-115442301D01*
X89050093Y-115433330D01*
X89080725Y-115339048D01*
X89035393Y-115248751D01*
X88982684Y-115210404D01*
X88934550Y-115207533D01*
X88848891Y-115236087D01*
X88717281Y-115300150D01*
X88531296Y-115403806D01*
X88294009Y-115544213D01*
X88066883Y-115681898D01*
X87902890Y-115785004D01*
X87791480Y-115862078D01*
X87722098Y-115921665D01*
X87684194Y-115972312D01*
X87667213Y-116022564D01*
X87662741Y-116055437D01*
X87649179Y-116194869D01*
X86608448Y-116194869D01*
X86560940Y-116136200D01*
X86357397Y-116226237D01*
X86211488Y-116300291D01*
X86078620Y-116383099D01*
X86035361Y-116415978D01*
X85949028Y-116477871D01*
X85808864Y-116566758D01*
X85636333Y-116669383D01*
X85500267Y-116746472D01*
X85330440Y-116844330D01*
X85189882Y-116932430D01*
X85094855Y-117000126D01*
X85062118Y-117033414D01*
X82564848Y-117033414D01*
X82556347Y-116981046D01*
X82490091Y-116911010D01*
X82360555Y-116872462D01*
X82299186Y-116864181D01*
X82222767Y-116861768D01*
X82139257Y-116875577D01*
X82033986Y-116911127D01*
X81892283Y-116973937D01*
X81699478Y-117069527D01*
X81553484Y-117144746D01*
X81192040Y-117344878D01*
X80911141Y-117529152D01*
X80708068Y-117700598D01*
X80580103Y-117862251D01*
X80524528Y-118017140D01*
X79933339Y-118017140D01*
X79935250Y-117954503D01*
X79954879Y-117685109D01*
X79985001Y-117389544D01*
X80023494Y-117081139D01*
X80050382Y-116896105D01*
X80646753Y-116896105D01*
X80688759Y-116975386D01*
X80794446Y-117001009D01*
X80865727Y-116982127D01*
X80991215Y-116931382D01*
X81150072Y-116857625D01*
X81248920Y-116807978D01*
X81410463Y-116719484D01*
X83222442Y-116719484D01*
X83231703Y-116826032D01*
X83306133Y-116885930D01*
X83439140Y-116898788D01*
X83624133Y-116864216D01*
X83854522Y-116781826D01*
X83904957Y-116759805D01*
X84107189Y-116653679D01*
X84243545Y-116548539D01*
X84308074Y-116450298D01*
X84297862Y-116369426D01*
X84248296Y-116313543D01*
X84180250Y-116290546D01*
X84078984Y-116301890D01*
X83929756Y-116349029D01*
X83739073Y-116424585D01*
X83532859Y-116510633D01*
X83392374Y-116571895D01*
X83304343Y-116615949D01*
X83255490Y-116650374D01*
X83232539Y-116682748D01*
X83222442Y-116719484D01*
X81410463Y-116719484D01*
X81422151Y-116713081D01*
X81575830Y-116619155D01*
X81687165Y-116540567D01*
X81720559Y-116510742D01*
X81783969Y-116434243D01*
X81791210Y-116376868D01*
X81749608Y-116301464D01*
X81681482Y-116216390D01*
X81606563Y-116174208D01*
X81510725Y-116176550D01*
X81379839Y-116225042D01*
X81199778Y-116321315D01*
X81107610Y-116375482D01*
X80924784Y-116487961D01*
X80802934Y-116573496D01*
X80727445Y-116644837D01*
X80683707Y-116714736D01*
X80667044Y-116759912D01*
X80646753Y-116896105D01*
X80050382Y-116896105D01*
X80068238Y-116773224D01*
X80117111Y-116479130D01*
X80167992Y-116212187D01*
X80192124Y-116104538D01*
X82020737Y-116104538D01*
X82055971Y-116218965D01*
X82162824Y-116294493D01*
X82238600Y-116317877D01*
X82346247Y-116340511D01*
X82442815Y-116350771D01*
X82548611Y-116347150D01*
X82683944Y-116328144D01*
X82869124Y-116292247D01*
X83023194Y-116259709D01*
X83319393Y-116186096D01*
X83608672Y-116095570D01*
X83878391Y-115993866D01*
X84115906Y-115886717D01*
X84308576Y-115779856D01*
X84443760Y-115679019D01*
X84465752Y-115648905D01*
X86206440Y-115648905D01*
X86250635Y-115742138D01*
X86348271Y-115808548D01*
X86488713Y-115839890D01*
X86661323Y-115827918D01*
X86801177Y-115787225D01*
X87081829Y-115674110D01*
X87336412Y-115561508D01*
X87550721Y-115456335D01*
X87710550Y-115365507D01*
X87793698Y-115304047D01*
X87888296Y-115186409D01*
X87906892Y-115091944D01*
X87856176Y-115022583D01*
X87742840Y-114980262D01*
X87573575Y-114966911D01*
X87355072Y-114984464D01*
X87094023Y-115034855D01*
X86971933Y-115066659D01*
X86632049Y-115198305D01*
X86351317Y-115387818D01*
X86320925Y-115414950D01*
X86226325Y-115537093D01*
X86206440Y-115648905D01*
X84465752Y-115648905D01*
X84508815Y-115589937D01*
X84510162Y-115585288D01*
X84498151Y-115472276D01*
X84440347Y-115375293D01*
X84303135Y-115269520D01*
X84107420Y-115219167D01*
X83859124Y-115223627D01*
X83564169Y-115282294D01*
X83228478Y-115394564D01*
X82916471Y-115531233D01*
X82599564Y-115689992D01*
X82347666Y-115829573D01*
X82164672Y-115947484D01*
X82054475Y-116041232D01*
X82020737Y-116104538D01*
X80192124Y-116104538D01*
X80218759Y-115985726D01*
X80267291Y-115813077D01*
X80311467Y-115707571D01*
X80325315Y-115689164D01*
X80381455Y-115653207D01*
X80500431Y-115589828D01*
X80667214Y-115506623D01*
X80866778Y-115411191D01*
X80970832Y-115362796D01*
X81229493Y-115240396D01*
X81282519Y-115212792D01*
X85056676Y-115212792D01*
X85068479Y-115272197D01*
X85107821Y-115343952D01*
X85187649Y-115376166D01*
X85319875Y-115370042D01*
X85516416Y-115326782D01*
X85541849Y-115319977D01*
X85696732Y-115267974D01*
X85893047Y-115186876D01*
X86118681Y-115083269D01*
X86361522Y-114963743D01*
X86609455Y-114834885D01*
X86717944Y-114775622D01*
X88090544Y-114775622D01*
X88103543Y-114824431D01*
X88162829Y-114874614D01*
X88258074Y-114924617D01*
X88336895Y-114949227D01*
X88379304Y-114930146D01*
X88455397Y-114889772D01*
X89166908Y-114889772D01*
X89172585Y-114917670D01*
X89215260Y-115007406D01*
X89250880Y-115047330D01*
X89354496Y-115076541D01*
X89501506Y-115073292D01*
X89657637Y-115040586D01*
X89750553Y-115003552D01*
X89866136Y-114934555D01*
X90016832Y-114830560D01*
X90186783Y-114704214D01*
X90360132Y-114568163D01*
X90521021Y-114435055D01*
X90653594Y-114317537D01*
X90741994Y-114228254D01*
X90767869Y-114192193D01*
X90814590Y-114036454D01*
X90789874Y-113926255D01*
X90696501Y-113864932D01*
X90537250Y-113855819D01*
X90492116Y-113861380D01*
X90385639Y-113887665D01*
X90268219Y-113940678D01*
X90123707Y-114029523D01*
X89935957Y-114163301D01*
X89873187Y-114210240D01*
X89622572Y-114401556D01*
X89434892Y-114551778D01*
X89302817Y-114668308D01*
X89219015Y-114758549D01*
X89176156Y-114829902D01*
X89166908Y-114889772D01*
X88455397Y-114889772D01*
X88481434Y-114875957D01*
X88629145Y-114794381D01*
X88808299Y-114693137D01*
X88859294Y-114663966D01*
X89045402Y-114554275D01*
X89203485Y-114455503D01*
X89319156Y-114377056D01*
X89378031Y-114328343D01*
X89382126Y-114322083D01*
X89384407Y-114240078D01*
X89353386Y-114144458D01*
X89304618Y-114072272D01*
X89270187Y-114055463D01*
X89214790Y-114073173D01*
X89098094Y-114121812D01*
X88935420Y-114194642D01*
X88742088Y-114284927D01*
X88670382Y-114319226D01*
X88437490Y-114434365D01*
X88273587Y-114523399D01*
X88168670Y-114592626D01*
X88112739Y-114648344D01*
X88098073Y-114679657D01*
X88090544Y-114775622D01*
X86717944Y-114775622D01*
X86850370Y-114703283D01*
X87072152Y-114575526D01*
X87262689Y-114458200D01*
X87409868Y-114357895D01*
X87501577Y-114281197D01*
X87526891Y-114240338D01*
X87508105Y-114160220D01*
X87465214Y-114056242D01*
X87419185Y-113978441D01*
X87376111Y-113987669D01*
X87271451Y-114028751D01*
X87119726Y-114094857D01*
X86935462Y-114179156D01*
X86733182Y-114274817D01*
X86527409Y-114375009D01*
X86332667Y-114472900D01*
X86163479Y-114561661D01*
X86075462Y-114610438D01*
X85871971Y-114719594D01*
X85650309Y-114827206D01*
X85449882Y-114914419D01*
X85399335Y-114933953D01*
X85221633Y-115005167D01*
X85113692Y-115066788D01*
X85062908Y-115131701D01*
X85056676Y-115212792D01*
X81282519Y-115212792D01*
X81416189Y-115143206D01*
X81538495Y-115065402D01*
X81603985Y-115001159D01*
X81620231Y-114944653D01*
X81594808Y-114890059D01*
X81591255Y-114885664D01*
X81490000Y-114829070D01*
X81327455Y-114823857D01*
X81109813Y-114869107D01*
X80843270Y-114963903D01*
X80728656Y-115013536D01*
X80549607Y-115090170D01*
X80412596Y-115140075D01*
X80330340Y-115159035D01*
X80312148Y-115151589D01*
X80319052Y-115062415D01*
X80338429Y-114914277D01*
X80367336Y-114723832D01*
X80402830Y-114507735D01*
X80409983Y-114466596D01*
X80685028Y-114466596D01*
X80686625Y-114593598D01*
X80741082Y-114670158D01*
X80837955Y-114682151D01*
X80843454Y-114680869D01*
X80919654Y-114655778D01*
X81052655Y-114606125D01*
X81215360Y-114542269D01*
X82074537Y-114542269D01*
X82105022Y-114616080D01*
X82199331Y-114663829D01*
X82366658Y-114692836D01*
X82429930Y-114698769D01*
X82604632Y-114710992D01*
X82749227Y-114713757D01*
X82896843Y-114705952D01*
X83080607Y-114686468D01*
X83185079Y-114673446D01*
X83409186Y-114605421D01*
X83585514Y-114469270D01*
X83703640Y-114274825D01*
X83859610Y-114274825D01*
X83861233Y-114360370D01*
X83924557Y-114444771D01*
X83930336Y-114449985D01*
X84001632Y-114505741D01*
X84072624Y-114536530D01*
X84156733Y-114539598D01*
X84267382Y-114512190D01*
X84417992Y-114451553D01*
X84621987Y-114354932D01*
X84782334Y-114275159D01*
X84935607Y-114194228D01*
X85680564Y-114194228D01*
X85737259Y-114253649D01*
X85862916Y-114268817D01*
X86060447Y-114241879D01*
X86152609Y-114221604D01*
X86328909Y-114173034D01*
X86542921Y-114103794D01*
X86771277Y-114022576D01*
X86990606Y-113938075D01*
X87177539Y-113858981D01*
X87308707Y-113793989D01*
X87319735Y-113787462D01*
X87456804Y-113695774D01*
X87538781Y-113635602D01*
X88177666Y-113635602D01*
X88213135Y-113719965D01*
X88247779Y-113762125D01*
X88305020Y-113783791D01*
X88398798Y-113784643D01*
X88543050Y-113764363D01*
X88751716Y-113722633D01*
X88828908Y-113705895D01*
X89019109Y-113640885D01*
X89125274Y-113582576D01*
X90045547Y-113582576D01*
X90056117Y-113680264D01*
X90077267Y-113731441D01*
X90156485Y-113750632D01*
X90297631Y-113712809D01*
X90499488Y-113618424D01*
X90646789Y-113534469D01*
X91218312Y-113534469D01*
X91236938Y-113578590D01*
X91297130Y-113645398D01*
X91392404Y-113667717D01*
X91538643Y-113647162D01*
X91641434Y-113619674D01*
X91818947Y-113551005D01*
X92027966Y-113444933D01*
X92246776Y-113315260D01*
X92453664Y-113175787D01*
X92626913Y-113040316D01*
X92744810Y-112922650D01*
X92751367Y-112914199D01*
X92797820Y-112802736D01*
X92768611Y-112711288D01*
X92673377Y-112656265D01*
X92594717Y-112647480D01*
X92495780Y-112667340D01*
X92364654Y-112730254D01*
X92188987Y-112842666D01*
X92099335Y-112905915D01*
X91923334Y-113028457D01*
X91748477Y-113143299D01*
X91601397Y-113233226D01*
X91544377Y-113264610D01*
X91373479Y-113355925D01*
X91269535Y-113423817D01*
X91221496Y-113479570D01*
X91218312Y-113534469D01*
X90646789Y-113534469D01*
X90721382Y-113491954D01*
X90930216Y-113363807D01*
X91075488Y-113268456D01*
X91168103Y-113196936D01*
X91218967Y-113140284D01*
X91238986Y-113089533D01*
X91240841Y-113064940D01*
X91206640Y-112996882D01*
X91115867Y-112968006D01*
X90986271Y-112975469D01*
X90835597Y-113016424D01*
X90681593Y-113088026D01*
X90556869Y-113174582D01*
X90442371Y-113256403D01*
X90297142Y-113342055D01*
X90240592Y-113371012D01*
X90120327Y-113437635D01*
X90061812Y-113498960D01*
X90045600Y-113576082D01*
X90045547Y-113582576D01*
X89125274Y-113582576D01*
X89207166Y-113537598D01*
X89366154Y-113413769D01*
X89469150Y-113287136D01*
X89471601Y-113282501D01*
X89505103Y-113197917D01*
X89486251Y-113136002D01*
X89429132Y-113076035D01*
X89353528Y-113018971D01*
X89287464Y-113002984D01*
X89629307Y-113002984D01*
X89694666Y-113051682D01*
X89828967Y-113072098D01*
X89884123Y-113073152D01*
X90068065Y-113059128D01*
X90261246Y-113024472D01*
X90322416Y-113008131D01*
X90545645Y-112919629D01*
X90748937Y-112800873D01*
X90918280Y-112664032D01*
X91039665Y-112521279D01*
X91099079Y-112384785D01*
X91102070Y-112330860D01*
X91080717Y-112243186D01*
X92734958Y-112243186D01*
X92740424Y-112300573D01*
X92769980Y-112331932D01*
X92843369Y-112345094D01*
X92980330Y-112347889D01*
X92998959Y-112347900D01*
X93251600Y-112324497D01*
X93455724Y-112254584D01*
X93579060Y-112179049D01*
X93716428Y-112070840D01*
X93850356Y-111947077D01*
X93963369Y-111824885D01*
X94037996Y-111721387D01*
X94058320Y-111664078D01*
X94023084Y-111568644D01*
X93927003Y-111512138D01*
X93784517Y-111493222D01*
X93610066Y-111510556D01*
X93418089Y-111562799D01*
X93223028Y-111648613D01*
X93051337Y-111757503D01*
X92874994Y-111912741D01*
X92772721Y-112062225D01*
X92735493Y-112219812D01*
X92734958Y-112243186D01*
X91080717Y-112243186D01*
X91075704Y-112222601D01*
X91010959Y-112160670D01*
X90895050Y-112140226D01*
X90715194Y-112156430D01*
X90663508Y-112164819D01*
X90517174Y-112194870D01*
X90400559Y-112235914D01*
X90286765Y-112301733D01*
X90148893Y-112406109D01*
X90076119Y-112465769D01*
X89856294Y-112657398D01*
X89709178Y-112808822D01*
X89633830Y-112923024D01*
X89629307Y-113002984D01*
X89287464Y-113002984D01*
X89269240Y-112998574D01*
X89141284Y-113007332D01*
X89121489Y-113009964D01*
X88793702Y-113083176D01*
X88525893Y-113207502D01*
X88348656Y-113345457D01*
X88233985Y-113464017D01*
X88179647Y-113553387D01*
X88177666Y-113635602D01*
X87538781Y-113635602D01*
X87639007Y-113562035D01*
X87847336Y-113400546D01*
X88025147Y-113256773D01*
X88105253Y-113165498D01*
X88144495Y-113087195D01*
X88151569Y-113027531D01*
X88115704Y-112993822D01*
X88017797Y-112971391D01*
X87987752Y-112966767D01*
X87896530Y-112960012D01*
X87794504Y-112969609D01*
X87664477Y-112999486D01*
X87489255Y-113053573D01*
X87258345Y-113133416D01*
X87005578Y-113227835D01*
X86734292Y-113336788D01*
X86479042Y-113446007D01*
X86294497Y-113531323D01*
X86102826Y-113627717D01*
X85971234Y-113703685D01*
X85881559Y-113772975D01*
X85815638Y-113849332D01*
X85762419Y-113934048D01*
X85689921Y-114088409D01*
X85680564Y-114194228D01*
X84935607Y-114194228D01*
X85060054Y-114128518D01*
X85261984Y-114004379D01*
X85393447Y-113898598D01*
X85459767Y-113807030D01*
X85469369Y-113740299D01*
X85446853Y-113683099D01*
X85385363Y-113652449D01*
X85262259Y-113637437D01*
X85254920Y-113636955D01*
X85151533Y-113637534D01*
X85039789Y-113656370D01*
X84901238Y-113698788D01*
X84717431Y-113770114D01*
X84553722Y-113839333D01*
X84266746Y-113970390D01*
X84058188Y-114083928D01*
X83923869Y-114184042D01*
X83859610Y-114274825D01*
X83703640Y-114274825D01*
X83704669Y-114273131D01*
X83728051Y-114203134D01*
X83756135Y-114064136D01*
X83750125Y-113979193D01*
X83742997Y-113968443D01*
X83661772Y-113934486D01*
X83529898Y-113922781D01*
X83378897Y-113932399D01*
X83240289Y-113962408D01*
X83185222Y-113984905D01*
X83049035Y-114032000D01*
X82893946Y-114055011D01*
X82873212Y-114055463D01*
X82719981Y-114076814D01*
X82544527Y-114133123D01*
X82370557Y-114212770D01*
X82221779Y-114304135D01*
X82121900Y-114395599D01*
X82098682Y-114435079D01*
X82074537Y-114542269D01*
X81215360Y-114542269D01*
X81220479Y-114540260D01*
X81326303Y-114497433D01*
X81506511Y-114422037D01*
X81621606Y-114366991D01*
X81686080Y-114321787D01*
X81714426Y-114275916D01*
X81721137Y-114218871D01*
X81721177Y-114211127D01*
X81721177Y-114086463D01*
X81448429Y-114108356D01*
X81213944Y-114144351D01*
X81003828Y-114208504D01*
X80834393Y-114293162D01*
X80721951Y-114390669D01*
X80685028Y-114466596D01*
X80409983Y-114466596D01*
X80441970Y-114282641D01*
X80481813Y-114065207D01*
X80519416Y-113872087D01*
X80541995Y-113766124D01*
X82521367Y-113766124D01*
X82535810Y-113831345D01*
X82573677Y-113887623D01*
X82641763Y-113918234D01*
X82750095Y-113922491D01*
X82908706Y-113899706D01*
X83127623Y-113849193D01*
X83413625Y-113771190D01*
X83619083Y-113710037D01*
X83794579Y-113652779D01*
X83923770Y-113605120D01*
X83990316Y-113572760D01*
X83994819Y-113568417D01*
X84014825Y-113495009D01*
X84016164Y-113393782D01*
X83988243Y-113293319D01*
X83918415Y-113253450D01*
X83912843Y-113252578D01*
X83839063Y-113260493D01*
X83704617Y-113291255D01*
X83527107Y-113339326D01*
X83324139Y-113399168D01*
X83113315Y-113465244D01*
X82912239Y-113532016D01*
X82738516Y-113593946D01*
X82609747Y-113645497D01*
X82543539Y-113681130D01*
X82540448Y-113684301D01*
X82521367Y-113766124D01*
X80541995Y-113766124D01*
X80551837Y-113719938D01*
X80576135Y-113625415D01*
X80585683Y-113603195D01*
X80645922Y-113573276D01*
X80768296Y-113532013D01*
X80931516Y-113486209D01*
X81023152Y-113463405D01*
X81213544Y-113413329D01*
X81466481Y-113339968D01*
X81764227Y-113249093D01*
X82089046Y-113146476D01*
X82423201Y-113037889D01*
X82748956Y-112929103D01*
X82997115Y-112843616D01*
X83966073Y-112843616D01*
X83967223Y-112921498D01*
X84026514Y-112964030D01*
X84154729Y-112986977D01*
X84337814Y-112990867D01*
X84561717Y-112976227D01*
X84606772Y-112970360D01*
X85900474Y-112970360D01*
X85900992Y-113081595D01*
X85910592Y-113111624D01*
X85938116Y-113167896D01*
X85981273Y-113195136D01*
X86063306Y-113199380D01*
X86201883Y-113187245D01*
X86344964Y-113161242D01*
X86539996Y-113110896D01*
X86759757Y-113043822D01*
X86948017Y-112978478D01*
X87156627Y-112899678D01*
X87297291Y-112840877D01*
X87382934Y-112794709D01*
X87426485Y-112753806D01*
X87440868Y-112710802D01*
X87441429Y-112697278D01*
X87432886Y-112583166D01*
X87409073Y-112531823D01*
X88166869Y-112531823D01*
X88192542Y-112614900D01*
X88195687Y-112618264D01*
X88271713Y-112645407D01*
X88411246Y-112635343D01*
X88618009Y-112587375D01*
X88895724Y-112500803D01*
X88984769Y-112470226D01*
X89195333Y-112395491D01*
X89337900Y-112340087D01*
X89425571Y-112296639D01*
X89471442Y-112257773D01*
X89488612Y-112216114D01*
X89490589Y-112185436D01*
X89470411Y-112095914D01*
X91326872Y-112095914D01*
X91362148Y-112176827D01*
X91461104Y-112217570D01*
X91610557Y-112215145D01*
X91731765Y-112188055D01*
X91869949Y-112144147D01*
X91982637Y-112102586D01*
X92019916Y-112085721D01*
X92081810Y-112036221D01*
X92094622Y-112008376D01*
X92108639Y-111937372D01*
X92118111Y-111909470D01*
X92102525Y-111842384D01*
X92031456Y-111776091D01*
X91968384Y-111739845D01*
X91909850Y-111729548D01*
X91831079Y-111748191D01*
X91707296Y-111798767D01*
X91655782Y-111821454D01*
X91491675Y-111898348D01*
X91392471Y-111959047D01*
X91342783Y-112016388D01*
X91327225Y-112083211D01*
X91326872Y-112095914D01*
X89470411Y-112095914D01*
X89464910Y-112071507D01*
X89424532Y-112004152D01*
X89392276Y-111975750D01*
X89349853Y-111963082D01*
X89282511Y-111968572D01*
X89175497Y-111994644D01*
X89014059Y-112043722D01*
X88837558Y-112100610D01*
X88633493Y-112170217D01*
X88454432Y-112237270D01*
X88318736Y-112294485D01*
X88244763Y-112334576D01*
X88241933Y-112336940D01*
X88185626Y-112425219D01*
X88166869Y-112531823D01*
X87409073Y-112531823D01*
X87397680Y-112507260D01*
X87321789Y-112462021D01*
X87191193Y-112439907D01*
X86991871Y-112433380D01*
X86950535Y-112433278D01*
X86684853Y-112443259D01*
X86479637Y-112478191D01*
X86311778Y-112545549D01*
X86158172Y-112652815D01*
X86093210Y-112710757D01*
X85962194Y-112851912D01*
X85900474Y-112970360D01*
X84606772Y-112970360D01*
X84812386Y-112943585D01*
X85075767Y-112893469D01*
X85146254Y-112877245D01*
X85473748Y-112783681D01*
X85717598Y-112679315D01*
X85878942Y-112563444D01*
X85958913Y-112435361D01*
X85968740Y-112367072D01*
X85963729Y-112293742D01*
X85934443Y-112254682D01*
X85859507Y-112236740D01*
X85743035Y-112228219D01*
X85530597Y-112231720D01*
X85285190Y-112260964D01*
X85022876Y-112311231D01*
X84759716Y-112377802D01*
X84511768Y-112455958D01*
X84295095Y-112540980D01*
X84125756Y-112628148D01*
X84019812Y-112712743D01*
X84001093Y-112740069D01*
X83966073Y-112843616D01*
X82997115Y-112843616D01*
X83048575Y-112825889D01*
X83304322Y-112734020D01*
X83498460Y-112659266D01*
X83514118Y-112652823D01*
X83868350Y-112510436D01*
X84251750Y-112364136D01*
X84634794Y-112224764D01*
X84987952Y-112103164D01*
X85178992Y-112041441D01*
X85334515Y-111992821D01*
X85554721Y-111923909D01*
X85822828Y-111839960D01*
X86122053Y-111746230D01*
X86435613Y-111647974D01*
X86651765Y-111580221D01*
X86837986Y-111522605D01*
X88441112Y-111522605D01*
X88448235Y-111579709D01*
X88498787Y-111609265D01*
X88599973Y-111611238D01*
X88758995Y-111585595D01*
X88983058Y-111532298D01*
X89279365Y-111451313D01*
X89341177Y-111433722D01*
X89510365Y-111382626D01*
X90862787Y-111382626D01*
X90876189Y-111478178D01*
X90902651Y-111555689D01*
X90927743Y-111579496D01*
X90977337Y-111567348D01*
X91089554Y-111534605D01*
X91245739Y-111486818D01*
X91276174Y-111477261D01*
X92742648Y-111477261D01*
X92755925Y-111572281D01*
X92791961Y-111602803D01*
X92860987Y-111592519D01*
X92953295Y-111556253D01*
X93086397Y-111488352D01*
X93216691Y-111412444D01*
X93386680Y-111288024D01*
X93481330Y-111174156D01*
X93498282Y-111075114D01*
X93443639Y-111001067D01*
X93357696Y-110967634D01*
X93250013Y-110986011D01*
X93108132Y-111060425D01*
X92958132Y-111165773D01*
X92835284Y-111263339D01*
X92768702Y-111335917D01*
X92743270Y-111405357D01*
X92742648Y-111477261D01*
X91276174Y-111477261D01*
X91364493Y-111449528D01*
X91667709Y-111348654D01*
X91942973Y-111247960D01*
X92177623Y-111152676D01*
X92358996Y-111068035D01*
X92474430Y-110999269D01*
X92493965Y-110982849D01*
X92547102Y-110881924D01*
X92528339Y-110773658D01*
X92443123Y-110686863D01*
X92437416Y-110683711D01*
X92381088Y-110672856D01*
X92291558Y-110690378D01*
X92155342Y-110740406D01*
X91958955Y-110827070D01*
X91938711Y-110836418D01*
X91721398Y-110936853D01*
X91563718Y-111008762D01*
X91447848Y-111059528D01*
X91355959Y-111096535D01*
X91270228Y-111127164D01*
X91172828Y-111158800D01*
X91120401Y-111175344D01*
X90990899Y-111224937D01*
X90898495Y-111276731D01*
X90870335Y-111306555D01*
X90862787Y-111382626D01*
X89510365Y-111382626D01*
X89598641Y-111355966D01*
X89875251Y-111265612D01*
X90135660Y-111174552D01*
X90323026Y-111103408D01*
X90572138Y-110995943D01*
X90741329Y-110904927D01*
X90833820Y-110827381D01*
X90852827Y-110760329D01*
X90801570Y-110700791D01*
X90775118Y-110685090D01*
X90729403Y-110676177D01*
X90647566Y-110683488D01*
X90520978Y-110709078D01*
X90341012Y-110755005D01*
X90099040Y-110823324D01*
X89786433Y-110916094D01*
X89713265Y-110938189D01*
X89371943Y-111041796D01*
X89103118Y-111124665D01*
X88897489Y-111190536D01*
X88745759Y-111243147D01*
X88638629Y-111286237D01*
X88566801Y-111323545D01*
X88520975Y-111358810D01*
X88491853Y-111395770D01*
X88470216Y-111437991D01*
X88441112Y-111522605D01*
X86837986Y-111522605D01*
X87347497Y-111364965D01*
X87980754Y-111175317D01*
X88568791Y-111006341D01*
X89128862Y-110853103D01*
X89678220Y-110710668D01*
X89789412Y-110682771D01*
X90088110Y-110604197D01*
X90430664Y-110507267D01*
X90804360Y-110396158D01*
X90859431Y-110379149D01*
X92565752Y-110379149D01*
X92570009Y-110486683D01*
X92592115Y-110525953D01*
X92653042Y-110538060D01*
X92777116Y-110529999D01*
X92945102Y-110504024D01*
X93137766Y-110462388D01*
X93140505Y-110461715D01*
X93287784Y-110409856D01*
X93444853Y-110330388D01*
X93588319Y-110238095D01*
X93694791Y-110147756D01*
X93738678Y-110083721D01*
X93740028Y-109982348D01*
X93717670Y-109916235D01*
X93639328Y-109853674D01*
X93505601Y-109828731D01*
X93335657Y-109837417D01*
X93148663Y-109875741D01*
X92963787Y-109939714D01*
X92800198Y-110025346D01*
X92677063Y-110128647D01*
X92672696Y-110133747D01*
X92602112Y-110251129D01*
X92565752Y-110379149D01*
X90859431Y-110379149D01*
X91196486Y-110275048D01*
X91594326Y-110148113D01*
X91985167Y-110019532D01*
X92356296Y-109893480D01*
X92694998Y-109774136D01*
X92988561Y-109665676D01*
X93224269Y-109572278D01*
X93378471Y-109503553D01*
X93534986Y-109432277D01*
X93718141Y-109357442D01*
X93911895Y-109284498D01*
X94100209Y-109218895D01*
X94267046Y-109166083D01*
X94396364Y-109131512D01*
X94472126Y-109120633D01*
X94485210Y-109127476D01*
G37*
D10*
X173000000Y-95000000D03*
X112500000Y-191000000D03*
X52000000Y-95000000D03*
M02*
