G04 #@! TF.GenerationSoftware,KiCad,Pcbnew,7.0.10*
G04 #@! TF.CreationDate,2024-06-20T08:36:21-05:00*
G04 #@! TF.ProjectId,g0dzilla_vs_sao1,6730647a-696c-46c6-915f-76735f73616f,1*
G04 #@! TF.SameCoordinates,Original*
G04 #@! TF.FileFunction,Soldermask,Top*
G04 #@! TF.FilePolarity,Negative*
%FSLAX46Y46*%
G04 Gerber Fmt 4.6, Leading zero omitted, Abs format (unit mm)*
G04 Created by KiCad (PCBNEW 7.0.10) date 2024-06-20 08:36:21*
%MOMM*%
%LPD*%
G01*
G04 APERTURE LIST*
G04 Aperture macros list*
%AMRotRect*
0 Rectangle, with rotation*
0 The origin of the aperture is its center*
0 $1 length*
0 $2 width*
0 $3 Rotation angle, in degrees counterclockwise*
0 Add horizontal line*
21,1,$1,$2,0,0,$3*%
G04 Aperture macros list end*
%ADD10R,1.800000X1.800000*%
%ADD11C,1.800000*%
%ADD12C,2.000000*%
%ADD13C,1.400000*%
%ADD14R,1.727200X1.727200*%
%ADD15C,1.727200*%
%ADD16O,1.727200X1.727200*%
%ADD17C,0.500000*%
%ADD18RotRect,1.800000X1.800000X315.000000*%
%ADD19RotRect,1.800000X1.800000X45.000000*%
%ADD20RotRect,1.800000X1.800000X135.000000*%
G04 APERTURE END LIST*
G36*
X85709916Y-117289160D02*
G01*
X85709916Y-117705379D01*
X84066387Y-117705379D01*
X82422857Y-117705379D01*
X82422857Y-117289160D01*
X82422857Y-116872942D01*
X84066387Y-116872942D01*
X85709916Y-116872942D01*
X85709916Y-117289160D01*
G37*
G36*
X90742090Y-81456163D02*
G01*
X90766611Y-81519777D01*
X90732073Y-81563939D01*
X90668459Y-81588460D01*
X90624297Y-81553922D01*
X90599776Y-81490308D01*
X90634314Y-81446146D01*
X90697928Y-81421625D01*
X90742090Y-81456163D01*
G37*
G36*
X96552941Y-102497395D02*
G01*
X96552941Y-102913614D01*
X94909412Y-102913614D01*
X93265883Y-102913614D01*
X93265883Y-102497395D01*
X93265883Y-102081177D01*
X94909412Y-102081177D01*
X96552941Y-102081177D01*
X96552941Y-102497395D01*
G37*
G36*
X137662521Y-117331849D02*
G01*
X137662521Y-117748068D01*
X136018992Y-117748068D01*
X134375462Y-117748068D01*
X134375462Y-117331849D01*
X134375462Y-116915631D01*
X136018992Y-116915631D01*
X137662521Y-116915631D01*
X137662521Y-117331849D01*
G37*
G36*
X145730757Y-102668152D02*
G01*
X145730757Y-103084370D01*
X144087227Y-103084370D01*
X142443698Y-103084370D01*
X142443698Y-102668152D01*
X142443698Y-102251933D01*
X144087227Y-102251933D01*
X145730757Y-102251933D01*
X145730757Y-102668152D01*
G37*
G36*
X86486594Y-80176560D02*
G01*
X86499664Y-80245715D01*
X86473272Y-80329161D01*
X86413839Y-80368672D01*
X86350980Y-80352905D01*
X86324212Y-80312903D01*
X86314670Y-80213658D01*
X86355370Y-80142228D01*
X86424829Y-80125749D01*
X86486594Y-80176560D01*
G37*
G36*
X91210146Y-81968460D02*
G01*
X91259496Y-82017311D01*
X91282311Y-82058430D01*
X91249134Y-82076584D01*
X91147328Y-82079987D01*
X91044859Y-82076472D01*
X91016022Y-82062204D01*
X91049090Y-82028073D01*
X91064882Y-82015954D01*
X91151308Y-81961988D01*
X91210146Y-81968460D01*
G37*
G36*
X91331032Y-80788612D02*
G01*
X91337312Y-80838118D01*
X91334273Y-80961719D01*
X91302098Y-81027287D01*
X91248926Y-81023913D01*
X91219500Y-80996018D01*
X91187781Y-80919533D01*
X91212771Y-80823453D01*
X91265685Y-80727536D01*
X91305113Y-80715924D01*
X91331032Y-80788612D01*
G37*
G36*
X87231804Y-79340344D02*
G01*
X87246723Y-79390431D01*
X87210443Y-79482944D01*
X87120714Y-79541282D01*
X87006199Y-79554651D01*
X86905210Y-79519033D01*
X86870957Y-79481576D01*
X86896872Y-79435948D01*
X86947899Y-79392568D01*
X87063677Y-79325729D01*
X87165165Y-79308271D01*
X87231804Y-79340344D01*
G37*
G36*
X124353751Y-76820841D02*
G01*
X124453908Y-76864840D01*
X124532023Y-76927883D01*
X124556975Y-76976951D01*
X124519976Y-76995736D01*
X124427895Y-76998725D01*
X124309106Y-76988138D01*
X124191982Y-76966192D01*
X124120460Y-76942808D01*
X124004114Y-76891204D01*
X124130681Y-76843431D01*
X124252750Y-76816668D01*
X124353751Y-76820841D01*
G37*
G36*
X90404753Y-80014235D02*
G01*
X90380135Y-80084863D01*
X90291853Y-80196461D01*
X90234958Y-80255759D01*
X90143614Y-80340653D01*
X90081651Y-80385897D01*
X90064202Y-80385209D01*
X90088560Y-80323549D01*
X90148941Y-80228156D01*
X90226301Y-80124220D01*
X90301599Y-80036928D01*
X90355792Y-79991470D01*
X90363293Y-79989580D01*
X90404753Y-80014235D01*
G37*
G36*
X129107859Y-83927002D02*
G01*
X129165999Y-83981009D01*
X129275077Y-84093747D01*
X129343589Y-84186139D01*
X129363014Y-84244749D01*
X129342034Y-84258488D01*
X129284324Y-84232118D01*
X129200842Y-84168074D01*
X129194570Y-84162437D01*
X129110032Y-84061529D01*
X129059053Y-83959664D01*
X129043583Y-83896410D01*
X129055395Y-83884633D01*
X129107859Y-83927002D01*
G37*
G36*
X132072040Y-83969809D02*
G01*
X132041674Y-84038527D01*
X131960672Y-84133905D01*
X131950522Y-84143778D01*
X131850782Y-84223575D01*
X131772045Y-84258499D01*
X131731711Y-84242036D01*
X131729689Y-84226471D01*
X131761878Y-84157742D01*
X131837740Y-84069348D01*
X131930603Y-83990010D01*
X131974202Y-83963159D01*
X132050104Y-83940452D01*
X132072040Y-83969809D01*
G37*
G36*
X100127610Y-134967640D02*
G01*
X100162535Y-135058848D01*
X100192687Y-135173374D01*
X100210160Y-135280545D01*
X100207053Y-135349687D01*
X100204942Y-135353939D01*
X100136451Y-135396284D01*
X100037270Y-135366140D01*
X100004277Y-135343641D01*
X99962664Y-135268515D01*
X99958709Y-135159006D01*
X99985615Y-135045803D01*
X100036585Y-134959591D01*
X100095814Y-134930421D01*
X100127610Y-134967640D01*
G37*
G36*
X136576506Y-76969509D02*
G01*
X136659835Y-76988740D01*
X136671212Y-76994594D01*
X136685169Y-77032548D01*
X136626934Y-77074034D01*
X136509246Y-77113870D01*
X136344844Y-77146869D01*
X136273522Y-77156450D01*
X136130082Y-77167500D01*
X136056867Y-77156773D01*
X136040336Y-77131293D01*
X136076039Y-77079273D01*
X136125715Y-77056403D01*
X136194919Y-77022614D01*
X136211093Y-76996366D01*
X136248597Y-76974310D01*
X136341555Y-76962406D01*
X136460636Y-76960768D01*
X136576506Y-76969509D01*
G37*
G36*
X129234093Y-117140840D02*
G01*
X129328982Y-117297753D01*
X129424041Y-117445496D01*
X129492862Y-117544059D01*
X129596746Y-117681563D01*
X129340599Y-117810866D01*
X129206114Y-117876345D01*
X129101853Y-117922670D01*
X129051218Y-117939617D01*
X129014682Y-117905814D01*
X128945775Y-117816082D01*
X128856990Y-117687135D01*
X128819863Y-117630121D01*
X128695547Y-117436838D01*
X128614266Y-117302284D01*
X128575686Y-117211647D01*
X128579472Y-117150115D01*
X128625288Y-117102876D01*
X128712799Y-117055119D01*
X128805824Y-117009936D01*
X129079207Y-116875125D01*
X129234093Y-117140840D01*
G37*
G36*
X135378159Y-101758504D02*
G01*
X135444902Y-101820375D01*
X135522752Y-101941365D01*
X135587259Y-102051572D01*
X135674322Y-102204631D01*
X135741690Y-102331732D01*
X135779475Y-102413803D01*
X135784202Y-102431422D01*
X135748768Y-102465885D01*
X135660106Y-102518204D01*
X135544679Y-102575592D01*
X135428947Y-102625261D01*
X135339372Y-102654421D01*
X135316446Y-102657479D01*
X135283542Y-102623145D01*
X135218546Y-102530628D01*
X135132103Y-102395658D01*
X135068988Y-102291826D01*
X134851011Y-101926173D01*
X135029455Y-101849772D01*
X135191947Y-101780984D01*
X135301011Y-101747968D01*
X135378159Y-101758504D01*
G37*
G36*
X95720000Y-138030000D02*
G01*
X95950000Y-138130000D01*
X96100000Y-138271584D01*
X96190000Y-138470000D01*
X96200000Y-138635880D01*
X96200000Y-138780000D01*
X96170000Y-138920000D01*
X96120000Y-139030000D01*
X96080000Y-139090000D01*
X95990000Y-139110000D01*
X95840000Y-139100000D01*
X95630000Y-139020000D01*
X95540000Y-138990000D01*
X95360000Y-138880000D01*
X95220000Y-138770000D01*
X95150000Y-138660000D01*
X95100000Y-138530000D01*
X95090000Y-138483827D01*
X95110000Y-138313920D01*
X95190000Y-138180000D01*
X95330000Y-138080000D01*
X95480000Y-138020000D01*
X95650000Y-138020000D01*
X95720000Y-138030000D01*
G37*
G36*
X99615512Y-133813972D02*
G01*
X99669401Y-133910711D01*
X99738653Y-134050438D01*
X99772749Y-134123630D01*
X99847204Y-134289712D01*
X99888770Y-134397286D01*
X99901147Y-134464983D01*
X99888030Y-134511438D01*
X99857452Y-134550520D01*
X99791833Y-134613853D01*
X99735982Y-134623415D01*
X99655006Y-134580831D01*
X99625381Y-134561318D01*
X99499928Y-134467431D01*
X99448371Y-134393017D01*
X99466962Y-134322046D01*
X99550195Y-134239921D01*
X99690589Y-134125222D01*
X99573292Y-134002647D01*
X99500529Y-133914105D01*
X99488817Y-133856340D01*
X99507124Y-133828944D01*
X99566417Y-133784226D01*
X99586463Y-133777816D01*
X99615512Y-133813972D01*
G37*
G36*
X140450709Y-102112444D02*
G01*
X140516956Y-102194722D01*
X140605456Y-102331438D01*
X140723563Y-102521278D01*
X140813612Y-102675989D01*
X140869525Y-102795068D01*
X140884550Y-102863491D01*
X140880874Y-102871180D01*
X140823673Y-102907641D01*
X140713778Y-102963841D01*
X140601730Y-103015599D01*
X140360603Y-103122148D01*
X140165562Y-102786473D01*
X140074436Y-102634718D01*
X139995288Y-102512088D01*
X139940261Y-102437014D01*
X139926437Y-102423552D01*
X139883279Y-102368083D01*
X139918584Y-102301143D01*
X140034310Y-102220384D01*
X140142567Y-102164605D01*
X140252646Y-102110685D01*
X140331839Y-102078581D01*
X140393432Y-102076449D01*
X140450709Y-102112444D01*
G37*
G36*
X91010000Y-138040000D02*
G01*
X91180000Y-138110000D01*
X91320000Y-138170000D01*
X91410000Y-138250388D01*
X91460000Y-138340529D01*
X91440000Y-138480000D01*
X91350000Y-138630000D01*
X91170000Y-138820000D01*
X90970000Y-139000000D01*
X90710000Y-139160000D01*
X90540000Y-139250000D01*
X90440000Y-139290000D01*
X90330000Y-139280000D01*
X90230000Y-139230000D01*
X90170000Y-139200000D01*
X90050000Y-139110000D01*
X89990000Y-139040000D01*
X89970000Y-138950000D01*
X89960000Y-138830623D01*
X90000000Y-138630000D01*
X90120000Y-138450000D01*
X90270000Y-138270000D01*
X90470000Y-138130000D01*
X90680000Y-138050000D01*
X90850000Y-138020000D01*
X91010000Y-138040000D01*
G37*
G36*
X139691421Y-102366939D02*
G01*
X139732414Y-102423194D01*
X139799908Y-102530789D01*
X139882538Y-102669837D01*
X139968942Y-102820450D01*
X140047758Y-102962740D01*
X140107621Y-103076822D01*
X140137169Y-103142806D01*
X140138488Y-103149388D01*
X140103306Y-103186140D01*
X140014047Y-103243653D01*
X139895137Y-103309127D01*
X139771004Y-103369763D01*
X139666075Y-103412760D01*
X139610823Y-103425883D01*
X139579445Y-103390960D01*
X139522951Y-103299695D01*
X139458098Y-103180421D01*
X139370161Y-103015538D01*
X139277780Y-102850762D01*
X139223810Y-102759460D01*
X139116183Y-102583961D01*
X139394167Y-102465816D01*
X139533507Y-102410175D01*
X139639364Y-102374610D01*
X139690359Y-102366230D01*
X139691421Y-102366939D01*
G37*
G36*
X129849800Y-116608974D02*
G01*
X129862906Y-116624095D01*
X130025790Y-116898512D01*
X130154321Y-117119484D01*
X130245702Y-117282053D01*
X130297139Y-117381263D01*
X130307409Y-117412032D01*
X130263656Y-117435490D01*
X130167787Y-117480238D01*
X130045981Y-117534735D01*
X129924419Y-117587438D01*
X129829282Y-117626807D01*
X129787220Y-117641345D01*
X129755262Y-117609120D01*
X129693143Y-117526619D01*
X129646943Y-117459916D01*
X129540819Y-117296174D01*
X129442231Y-117133228D01*
X129361657Y-116989589D01*
X129309574Y-116883770D01*
X129295462Y-116838903D01*
X129331687Y-116803040D01*
X129426724Y-116747403D01*
X129560122Y-116683945D01*
X129562214Y-116683037D01*
X129711069Y-116622775D01*
X129801318Y-116599188D01*
X129849800Y-116608974D01*
G37*
G36*
X130154647Y-101743003D02*
G01*
X130191017Y-101787634D01*
X130256031Y-101885545D01*
X130337270Y-102015967D01*
X130422318Y-102158134D01*
X130498754Y-102291277D01*
X130554161Y-102394628D01*
X130576122Y-102447419D01*
X130576135Y-102447889D01*
X130540244Y-102473848D01*
X130449945Y-102517592D01*
X130331296Y-102568366D01*
X130210357Y-102615418D01*
X130113187Y-102647995D01*
X130070739Y-102656441D01*
X130039227Y-102621156D01*
X129977176Y-102526992D01*
X129894839Y-102390075D01*
X129837140Y-102289077D01*
X129751502Y-102133228D01*
X129686195Y-102008390D01*
X129649564Y-101930871D01*
X129645040Y-101913612D01*
X129719372Y-101875887D01*
X129834351Y-101830508D01*
X129962235Y-101786764D01*
X130075281Y-101753943D01*
X130145746Y-101741332D01*
X130154647Y-101743003D01*
G37*
G36*
X88541664Y-116535873D02*
G01*
X88573139Y-116587311D01*
X88632557Y-116691093D01*
X88709555Y-116828427D01*
X88793770Y-116980522D01*
X88874842Y-117128587D01*
X88942406Y-117253831D01*
X88986101Y-117337462D01*
X88996975Y-117361532D01*
X88961453Y-117388106D01*
X88871561Y-117434563D01*
X88752312Y-117489356D01*
X88628719Y-117540939D01*
X88534299Y-117575120D01*
X88490143Y-117577286D01*
X88442343Y-117547351D01*
X88381164Y-117474068D01*
X88296873Y-117346187D01*
X88204367Y-117193843D01*
X88108290Y-117029304D01*
X88033137Y-116893761D01*
X87987102Y-116802470D01*
X87977157Y-116770880D01*
X88030398Y-116740853D01*
X88132087Y-116693676D01*
X88258002Y-116639433D01*
X88383924Y-116588206D01*
X88485631Y-116550078D01*
X88538905Y-116535133D01*
X88541664Y-116535873D01*
G37*
G36*
X97035207Y-130688564D02*
G01*
X97093465Y-130731699D01*
X97197879Y-130818273D01*
X97331615Y-130934088D01*
X97427390Y-131019309D01*
X97754030Y-131313071D01*
X97591049Y-131404227D01*
X97444179Y-131481829D01*
X97257681Y-131573809D01*
X97049670Y-131671986D01*
X96838261Y-131768179D01*
X96641570Y-131854207D01*
X96477711Y-131921887D01*
X96364801Y-131963039D01*
X96337598Y-131970313D01*
X96248138Y-131979132D01*
X96214732Y-131947596D01*
X96211429Y-131910046D01*
X96238287Y-131774284D01*
X96309492Y-131603362D01*
X96410990Y-131419856D01*
X96528728Y-131246344D01*
X96648653Y-131105405D01*
X96756711Y-131019617D01*
X96769428Y-131013575D01*
X96870531Y-130941198D01*
X96895108Y-130864164D01*
X96915508Y-130743294D01*
X96967673Y-130681511D01*
X97035207Y-130688564D01*
G37*
G36*
X83629788Y-131203947D02*
G01*
X83661486Y-131207288D01*
X83810927Y-131226258D01*
X83895444Y-131248365D01*
X83935197Y-131283811D01*
X83950347Y-131342794D01*
X83951722Y-131354122D01*
X83947083Y-131469635D01*
X83923446Y-131544904D01*
X83908208Y-131646871D01*
X83938902Y-131729867D01*
X83970535Y-131812796D01*
X83964561Y-131894942D01*
X83919180Y-132012020D01*
X83836026Y-132151048D01*
X83728171Y-132270580D01*
X83617690Y-132349412D01*
X83547446Y-132369076D01*
X83487052Y-132334212D01*
X83441882Y-132267300D01*
X83417439Y-132159552D01*
X83430333Y-132008626D01*
X83442797Y-131945031D01*
X83484623Y-131685173D01*
X83483011Y-131492869D01*
X83437575Y-131361945D01*
X83403698Y-131322281D01*
X83347147Y-131252731D01*
X83364191Y-131210624D01*
X83457511Y-131194761D01*
X83629788Y-131203947D01*
G37*
G36*
X87775951Y-116838130D02*
G01*
X87800561Y-116877577D01*
X87860860Y-116974127D01*
X87947292Y-117112482D01*
X88032499Y-117248853D01*
X88130987Y-117410356D01*
X88207663Y-117543595D01*
X88253994Y-117633232D01*
X88263194Y-117663642D01*
X88217795Y-117688794D01*
X88120510Y-117735043D01*
X87997574Y-117790706D01*
X87875222Y-117844102D01*
X87779690Y-117883549D01*
X87738021Y-117897479D01*
X87706751Y-117864883D01*
X87642114Y-117779206D01*
X87557783Y-117658619D01*
X87553307Y-117652017D01*
X87443559Y-117483375D01*
X87349294Y-117326507D01*
X87280729Y-117199462D01*
X87248079Y-117120285D01*
X87246723Y-117110466D01*
X87280845Y-117082392D01*
X87367507Y-117031187D01*
X87483156Y-116968973D01*
X87604236Y-116907871D01*
X87707193Y-116860001D01*
X87768472Y-116837485D01*
X87775951Y-116838130D01*
G37*
G36*
X89757957Y-80894588D02*
G01*
X89757348Y-80931615D01*
X89722456Y-81014260D01*
X89675296Y-81108717D01*
X89606681Y-81329969D01*
X89622284Y-81554875D01*
X89721486Y-81777485D01*
X89749002Y-81818010D01*
X89894270Y-81984000D01*
X90058050Y-82087837D01*
X90266266Y-82143699D01*
X90366295Y-82155652D01*
X90500276Y-82170588D01*
X90591951Y-82186138D01*
X90619160Y-82196803D01*
X90601439Y-82244482D01*
X90574969Y-82297597D01*
X90532335Y-82346179D01*
X90455914Y-82371466D01*
X90322763Y-82379924D01*
X90281987Y-82380169D01*
X90145647Y-82376945D01*
X90053243Y-82357753D01*
X89974285Y-82308314D01*
X89878284Y-82214347D01*
X89839215Y-82172786D01*
X89629219Y-81910235D01*
X89502080Y-81660655D01*
X89458040Y-81425040D01*
X89497342Y-81204387D01*
X89569025Y-81067479D01*
X89645348Y-80964122D01*
X89706626Y-80898418D01*
X89728362Y-80886051D01*
X89757957Y-80894588D01*
G37*
G36*
X126442008Y-116210485D02*
G01*
X126627933Y-116380982D01*
X126833745Y-116562203D01*
X127027763Y-116726534D01*
X127118320Y-116799991D01*
X127256902Y-116909907D01*
X127367557Y-116997791D01*
X127435179Y-117051637D01*
X127448735Y-117062548D01*
X127428224Y-117096351D01*
X127361920Y-117175076D01*
X127264419Y-117283291D01*
X127150316Y-117405561D01*
X127034206Y-117526454D01*
X126930684Y-117630537D01*
X126854344Y-117702376D01*
X126820628Y-117726723D01*
X126771744Y-117702968D01*
X126674951Y-117640353D01*
X126550180Y-117551856D01*
X126536041Y-117541424D01*
X126348669Y-117397984D01*
X126153645Y-117240709D01*
X125962409Y-117079759D01*
X125786398Y-116925299D01*
X125637052Y-116787490D01*
X125525809Y-116676495D01*
X125464108Y-116602477D01*
X125455423Y-116581367D01*
X125483561Y-116540247D01*
X125558211Y-116451059D01*
X125667297Y-116327838D01*
X125771632Y-116213775D01*
X126085865Y-115874776D01*
X126442008Y-116210485D01*
G37*
G36*
X91539728Y-79541685D02*
G01*
X91539641Y-79659285D01*
X91598093Y-79733139D01*
X91723477Y-79769548D01*
X91851817Y-79776135D01*
X91989630Y-79789537D01*
X92046650Y-79830092D01*
X92023204Y-79898320D01*
X91965276Y-79957485D01*
X91865365Y-80098047D01*
X91821325Y-80245715D01*
X91798692Y-80354973D01*
X91779853Y-80387975D01*
X91759325Y-80353336D01*
X91757050Y-80346726D01*
X91711810Y-80273309D01*
X91621477Y-80165675D01*
X91504923Y-80046156D01*
X91495539Y-80037230D01*
X91365803Y-79920715D01*
X91269088Y-79854298D01*
X91181122Y-79824775D01*
X91094074Y-79818824D01*
X90950148Y-79830164D01*
X90821662Y-79857941D01*
X90808119Y-79862707D01*
X90708228Y-79890737D01*
X90676083Y-79872322D01*
X90711979Y-79806165D01*
X90816210Y-79690970D01*
X90855983Y-79651413D01*
X90977482Y-79538629D01*
X91073693Y-79473232D01*
X91176554Y-79439249D01*
X91317112Y-79420793D01*
X91566829Y-79397224D01*
X91539728Y-79541685D01*
G37*
G36*
X93095209Y-128722195D02*
G01*
X93283261Y-128762643D01*
X93451556Y-128810380D01*
X93637908Y-128867870D01*
X93755687Y-128910686D01*
X93818736Y-128946431D01*
X93840901Y-128982709D01*
X93837302Y-129022243D01*
X93846577Y-129109729D01*
X93925651Y-129204837D01*
X93944441Y-129221119D01*
X94074110Y-129330229D01*
X93844616Y-129526291D01*
X93729718Y-129622655D01*
X93642785Y-129692195D01*
X93601389Y-129720892D01*
X93600587Y-129721004D01*
X93562367Y-129694799D01*
X93486250Y-129631698D01*
X93466275Y-129614282D01*
X93338640Y-129532482D01*
X93198622Y-129513455D01*
X93021065Y-129554102D01*
X93009591Y-129558049D01*
X92908157Y-129585251D01*
X92848581Y-129569961D01*
X92811120Y-129528545D01*
X92759306Y-129403930D01*
X92770347Y-129280670D01*
X92822186Y-129206318D01*
X92866728Y-129137788D01*
X92874977Y-129022645D01*
X92869764Y-128963158D01*
X92866413Y-128837436D01*
X92896435Y-128757057D01*
X92969484Y-128719489D01*
X93095209Y-128722195D01*
G37*
G36*
X121330336Y-102299111D02*
G01*
X121434443Y-102369803D01*
X121577609Y-102475144D01*
X121746745Y-102604926D01*
X121928756Y-102748937D01*
X122110551Y-102896968D01*
X122279039Y-103038810D01*
X122421127Y-103164253D01*
X122422521Y-103165529D01*
X122700000Y-103419439D01*
X122359489Y-103764173D01*
X122222164Y-103901204D01*
X122106951Y-104012424D01*
X122026750Y-104085625D01*
X121995174Y-104108908D01*
X121956134Y-104080572D01*
X121874054Y-104005464D01*
X121764991Y-103898432D01*
X121738038Y-103871124D01*
X121608579Y-103745925D01*
X121436551Y-103588856D01*
X121245974Y-103421477D01*
X121088488Y-103288150D01*
X120931413Y-103156471D01*
X120801469Y-103044851D01*
X120711107Y-102964184D01*
X120672781Y-102925366D01*
X120672269Y-102923999D01*
X120699719Y-102880369D01*
X120771800Y-102793157D01*
X120873114Y-102678896D01*
X120988257Y-102554120D01*
X121101832Y-102435364D01*
X121198435Y-102339162D01*
X121262668Y-102282047D01*
X121278382Y-102273278D01*
X121330336Y-102299111D01*
G37*
G36*
X93810000Y-140840000D02*
G01*
X94020000Y-140920000D01*
X94190000Y-141040000D01*
X94240000Y-141090000D01*
X94280000Y-141150000D01*
X94300000Y-141182271D01*
X94340000Y-141231845D01*
X94360000Y-141300000D01*
X94380000Y-141360000D01*
X94390000Y-141460000D01*
X94390000Y-141550000D01*
X94380000Y-141680000D01*
X94360000Y-141820000D01*
X94320000Y-141950000D01*
X94310000Y-141980000D01*
X94160000Y-142190000D01*
X94000000Y-142370000D01*
X93790000Y-142500000D01*
X93640000Y-142570000D01*
X93498948Y-142620000D01*
X93320000Y-142610000D01*
X93180000Y-142570000D01*
X93020000Y-142520000D01*
X92960000Y-142470000D01*
X92910000Y-142420000D01*
X92860000Y-142310000D01*
X92790000Y-142140000D01*
X92740000Y-141933257D01*
X92710000Y-141730000D01*
X92710000Y-141696639D01*
X92700000Y-141534210D01*
X92720000Y-141420000D01*
X92780000Y-141300000D01*
X92810000Y-141230000D01*
X92900000Y-141070000D01*
X93000000Y-140960000D01*
X93110000Y-140900000D01*
X93330000Y-140830000D01*
X93580000Y-140810000D01*
X93810000Y-140840000D01*
G37*
G36*
X124560029Y-103093385D02*
G01*
X124623598Y-103194428D01*
X124708042Y-103340686D01*
X124802560Y-103513786D01*
X125041327Y-103962274D01*
X124887671Y-104190439D01*
X124541416Y-104642229D01*
X124126623Y-105078069D01*
X123660120Y-105483500D01*
X123158735Y-105844062D01*
X122639295Y-106145295D01*
X122575576Y-106177248D01*
X122300605Y-106302761D01*
X122004560Y-106420983D01*
X121711242Y-106523609D01*
X121444453Y-106602332D01*
X121227993Y-106648847D01*
X121221414Y-106649819D01*
X121023500Y-106678489D01*
X120751834Y-106259126D01*
X120646189Y-106093275D01*
X120561311Y-105954717D01*
X120506056Y-105858287D01*
X120489117Y-105819082D01*
X120532160Y-105802461D01*
X120639810Y-105775413D01*
X120792642Y-105742608D01*
X120873319Y-105726764D01*
X121520518Y-105560809D01*
X122133173Y-105317535D01*
X122707136Y-104999063D01*
X123238259Y-104607517D01*
X123475878Y-104395082D01*
X123681073Y-104186089D01*
X123889297Y-103949366D01*
X124084938Y-103704701D01*
X124252381Y-103471880D01*
X124376013Y-103270692D01*
X124400182Y-103223692D01*
X124459155Y-103119162D01*
X124509162Y-103059100D01*
X124526504Y-103052869D01*
X124560029Y-103093385D01*
G37*
G36*
X133518082Y-80373782D02*
G01*
X133571894Y-80385508D01*
X133587209Y-80436365D01*
X133576788Y-80527244D01*
X133551884Y-80680707D01*
X133713495Y-80665984D01*
X133819366Y-80663674D01*
X133884477Y-80694901D01*
X133941687Y-80779401D01*
X133960150Y-80814115D01*
X134045195Y-80976969D01*
X133911881Y-81155627D01*
X133638380Y-81527309D01*
X133408071Y-81851157D01*
X133225332Y-82120915D01*
X133121357Y-82285249D01*
X133006952Y-82460013D01*
X132884419Y-82623819D01*
X132764393Y-82765217D01*
X132657508Y-82872758D01*
X132574400Y-82934994D01*
X132525703Y-82940475D01*
X132520383Y-82932242D01*
X132523390Y-82867084D01*
X132550970Y-82740004D01*
X132597582Y-82568972D01*
X132657683Y-82371954D01*
X132725732Y-82166922D01*
X132796187Y-81971843D01*
X132863505Y-81804685D01*
X132878715Y-81770418D01*
X132926074Y-81659956D01*
X132994447Y-81492415D01*
X133074667Y-81290584D01*
X133157220Y-81078152D01*
X133254139Y-80826014D01*
X133325858Y-80642585D01*
X133377972Y-80516941D01*
X133416078Y-80438160D01*
X133445771Y-80395320D01*
X133472647Y-80377498D01*
X133502302Y-80373771D01*
X133518082Y-80373782D01*
G37*
G36*
X127332823Y-113720014D02*
G01*
X127438219Y-113883921D01*
X127524664Y-114022514D01*
X127582283Y-114119689D01*
X127601219Y-114157699D01*
X127565803Y-114181797D01*
X127463990Y-114215697D01*
X127313408Y-114254077D01*
X127203698Y-114277705D01*
X126555255Y-114446956D01*
X125956345Y-114684361D01*
X125401324Y-114992924D01*
X124884546Y-115375648D01*
X124533737Y-115698056D01*
X124397651Y-115842914D01*
X124247380Y-116017507D01*
X124093105Y-116208215D01*
X123945010Y-116401420D01*
X123813275Y-116583502D01*
X123708084Y-116740842D01*
X123639619Y-116859821D01*
X123617815Y-116923128D01*
X123605092Y-116959837D01*
X123565277Y-116931339D01*
X123495907Y-116834348D01*
X123394518Y-116665580D01*
X123304606Y-116505570D01*
X123055430Y-116054181D01*
X123253387Y-115756481D01*
X123492292Y-115438898D01*
X123792005Y-115106487D01*
X124134244Y-114776579D01*
X124500728Y-114466507D01*
X124873175Y-114193602D01*
X124966712Y-114132167D01*
X125246864Y-113968427D01*
X125567240Y-113806963D01*
X125906547Y-113656506D01*
X126243491Y-113525782D01*
X126556779Y-113423520D01*
X126825117Y-113358449D01*
X126874262Y-113350251D01*
X127072452Y-113320531D01*
X127332823Y-113720014D01*
G37*
G36*
X132091597Y-115506878D02*
G01*
X132091597Y-117812086D01*
X131594755Y-117812094D01*
X131097914Y-117812101D01*
X131120484Y-117095044D01*
X131143054Y-116377986D01*
X130592788Y-116193789D01*
X130299572Y-116093324D01*
X130009384Y-115989690D01*
X129733335Y-115887272D01*
X129482531Y-115790456D01*
X129268082Y-115703625D01*
X129101096Y-115631166D01*
X128992683Y-115577463D01*
X128953950Y-115546903D01*
X128953950Y-115546862D01*
X128969379Y-115488239D01*
X129009972Y-115372633D01*
X129067187Y-115221503D01*
X129132482Y-115056311D01*
X129197317Y-114898517D01*
X129253148Y-114769580D01*
X129291435Y-114690961D01*
X129299382Y-114678991D01*
X129353572Y-114675719D01*
X129461493Y-114707461D01*
X129581211Y-114758261D01*
X129799388Y-114857674D01*
X130058169Y-114969584D01*
X130327634Y-115081545D01*
X130577863Y-115181109D01*
X130768236Y-115252074D01*
X130906493Y-115301607D01*
X131021502Y-115344121D01*
X131061993Y-115359814D01*
X131086393Y-115366574D01*
X131105031Y-115358392D01*
X131118452Y-115325859D01*
X131127198Y-115259567D01*
X131131814Y-115150107D01*
X131132842Y-114988072D01*
X131130827Y-114764052D01*
X131126310Y-114468639D01*
X131123384Y-114296971D01*
X131104462Y-113201681D01*
X131598029Y-113201675D01*
X132091597Y-113201669D01*
X132091597Y-115506878D01*
G37*
G36*
X96734370Y-103526831D02*
G01*
X96870144Y-103606022D01*
X96971493Y-103667904D01*
X97020525Y-103701472D01*
X97022521Y-103704055D01*
X97005696Y-103763254D01*
X96960343Y-103882146D01*
X96894146Y-104043105D01*
X96814792Y-104228508D01*
X96729964Y-104420727D01*
X96647348Y-104602139D01*
X96574628Y-104755117D01*
X96519489Y-104862037D01*
X96511783Y-104875438D01*
X96189254Y-105338438D01*
X95805100Y-105744026D01*
X95364577Y-106087858D01*
X94872946Y-106365588D01*
X94541088Y-106504025D01*
X94386225Y-106560024D01*
X94266173Y-106602454D01*
X94200075Y-106624588D01*
X94193141Y-106626289D01*
X94163127Y-106595632D01*
X94089234Y-106513653D01*
X93983351Y-106393679D01*
X93884874Y-106280766D01*
X93761135Y-106136546D01*
X93659916Y-106015420D01*
X93593451Y-105932224D01*
X93573675Y-105903401D01*
X93606006Y-105877262D01*
X93703001Y-105834600D01*
X93847297Y-105782574D01*
X93936532Y-105753801D01*
X94444148Y-105565859D01*
X94877672Y-105339260D01*
X95240307Y-105071605D01*
X95535258Y-104760493D01*
X95765729Y-104403526D01*
X95781922Y-104372037D01*
X95875404Y-104186930D01*
X94314490Y-104201280D01*
X92753575Y-104215631D01*
X92753594Y-103800305D01*
X92753614Y-103384979D01*
X94599916Y-103373414D01*
X96446219Y-103361849D01*
X96734370Y-103526831D01*
G37*
G36*
X145912185Y-103697587D02*
G01*
X146047959Y-103776778D01*
X146149308Y-103838660D01*
X146198340Y-103872228D01*
X146200336Y-103874811D01*
X146183292Y-103936446D01*
X146137264Y-104057777D01*
X146069906Y-104221383D01*
X145988877Y-104409843D01*
X145901831Y-104605736D01*
X145816424Y-104791643D01*
X145740313Y-104950142D01*
X145681153Y-105063812D01*
X145667652Y-105086899D01*
X145338304Y-105543358D01*
X144946641Y-105944483D01*
X144500036Y-106284270D01*
X144005858Y-106556712D01*
X143718125Y-106675065D01*
X143563453Y-106730993D01*
X143443611Y-106773344D01*
X143377765Y-106795383D01*
X143370956Y-106797045D01*
X143340942Y-106766388D01*
X143267049Y-106684409D01*
X143161166Y-106564435D01*
X143062689Y-106451522D01*
X142938950Y-106307302D01*
X142837731Y-106186176D01*
X142771266Y-106102980D01*
X142751490Y-106074157D01*
X142783821Y-106048018D01*
X142880816Y-106005356D01*
X143025112Y-105953330D01*
X143114347Y-105924557D01*
X143625634Y-105734417D01*
X144063160Y-105503682D01*
X144429154Y-105230685D01*
X144725843Y-104913757D01*
X144955454Y-104551231D01*
X144959737Y-104542793D01*
X145053219Y-104357686D01*
X143492305Y-104372037D01*
X141931390Y-104386387D01*
X141931409Y-103971061D01*
X141931429Y-103555735D01*
X143777731Y-103544170D01*
X145624034Y-103532605D01*
X145912185Y-103697587D01*
G37*
G36*
X99230975Y-134818189D02*
G01*
X99316637Y-134859801D01*
X99450362Y-134936647D01*
X99642690Y-135053202D01*
X99711933Y-135095684D01*
X99752737Y-135140325D01*
X99722605Y-135190672D01*
X99676009Y-135280253D01*
X99669244Y-135326039D01*
X99643440Y-135397214D01*
X99575595Y-135509016D01*
X99480058Y-135637968D01*
X99474123Y-135645291D01*
X99308173Y-135863950D01*
X99199096Y-136048649D01*
X99137757Y-136219576D01*
X99115017Y-136396919D01*
X99114286Y-136440387D01*
X99108591Y-136583050D01*
X99082986Y-136674032D01*
X99024688Y-136746736D01*
X98982943Y-136783601D01*
X98869202Y-136866492D01*
X98778834Y-136886472D01*
X98678918Y-136844818D01*
X98610668Y-136798068D01*
X98499340Y-136717274D01*
X98358299Y-136615158D01*
X98273826Y-136554099D01*
X98128156Y-136465835D01*
X97976846Y-136399984D01*
X97897959Y-136379060D01*
X97726891Y-136351939D01*
X98038868Y-136208155D01*
X98193788Y-136134496D01*
X98295370Y-136072733D01*
X98366521Y-136000060D01*
X98430148Y-135893670D01*
X98500913Y-135748135D01*
X98590571Y-135580875D01*
X98688591Y-135431661D01*
X98775984Y-135328984D01*
X98786345Y-135319899D01*
X98972746Y-135150450D01*
X99097355Y-135003360D01*
X99154084Y-134886183D01*
X99156975Y-134859988D01*
X99161684Y-134822759D01*
X99182838Y-134807334D01*
X99230975Y-134818189D01*
G37*
G36*
X127149377Y-80133135D02*
G01*
X127246387Y-80181681D01*
X127366613Y-80228828D01*
X127461641Y-80244202D01*
X127518195Y-80254333D01*
X127567383Y-80292881D01*
X127620308Y-80374756D01*
X127688074Y-80514864D01*
X127725057Y-80597900D01*
X127802507Y-80780084D01*
X127872201Y-80954712D01*
X127922126Y-81091365D01*
X127931584Y-81120841D01*
X127971622Y-81238414D01*
X128007929Y-81321565D01*
X128015915Y-81334286D01*
X128049455Y-81401551D01*
X128088601Y-81510133D01*
X128093611Y-81526387D01*
X128129696Y-81637312D01*
X128185120Y-81797795D01*
X128249331Y-81977418D01*
X128265099Y-82020603D01*
X128338604Y-82245262D01*
X128387211Y-82444951D01*
X128408837Y-82605530D01*
X128401396Y-82712856D01*
X128372750Y-82751003D01*
X128323321Y-82729568D01*
X128235533Y-82657754D01*
X128126596Y-82550003D01*
X128103437Y-82525030D01*
X127970607Y-82363430D01*
X127842668Y-82181005D01*
X127754897Y-82031210D01*
X127662909Y-81867992D01*
X127558246Y-81709714D01*
X127489237Y-81621175D01*
X127371530Y-81482665D01*
X127234876Y-81315957D01*
X127094348Y-81140119D01*
X126965022Y-80974219D01*
X126861975Y-80837327D01*
X126803987Y-80754415D01*
X126765161Y-80646940D01*
X126767046Y-80534271D01*
X126802425Y-80441493D01*
X126864079Y-80393695D01*
X126907162Y-80395853D01*
X126981052Y-80381724D01*
X127053964Y-80317642D01*
X127101056Y-80233999D01*
X127098135Y-80162214D01*
X127092430Y-80123298D01*
X127149377Y-80133135D01*
G37*
G36*
X93734774Y-114442733D02*
G01*
X94034714Y-114807980D01*
X94312703Y-115137601D01*
X94564098Y-115426517D01*
X94784259Y-115669649D01*
X94968544Y-115861916D01*
X95112309Y-115998239D01*
X95210915Y-116073540D01*
X95235668Y-116085126D01*
X95279228Y-116093387D01*
X95323763Y-116084535D01*
X95375740Y-116051185D01*
X95441626Y-115985948D01*
X95527888Y-115881440D01*
X95640992Y-115730273D01*
X95787405Y-115525059D01*
X95973593Y-115258414D01*
X96027815Y-115180275D01*
X96572099Y-114395336D01*
X96975373Y-114798609D01*
X97378646Y-115201882D01*
X97071427Y-115493126D01*
X96938190Y-115626482D01*
X96767833Y-115807458D01*
X96577241Y-116017549D01*
X96383301Y-116238249D01*
X96263700Y-116378321D01*
X96095705Y-116575003D01*
X95938974Y-116753566D01*
X95804679Y-116901657D01*
X95703992Y-117006923D01*
X95652775Y-117053801D01*
X95465877Y-117141070D01*
X95253753Y-117153318D01*
X95033260Y-117089807D01*
X95016135Y-117081615D01*
X94911387Y-117012557D01*
X94755887Y-116885247D01*
X94555746Y-116705121D01*
X94317075Y-116477612D01*
X94137542Y-116300268D01*
X93942909Y-116103476D01*
X93730790Y-115885357D01*
X93509030Y-115654343D01*
X93285476Y-115418867D01*
X93067971Y-115187363D01*
X92864362Y-114968262D01*
X92682495Y-114769998D01*
X92530215Y-114601004D01*
X92415367Y-114469711D01*
X92345798Y-114384554D01*
X92328015Y-114355301D01*
X92355893Y-114317184D01*
X92430902Y-114229760D01*
X92541693Y-114105927D01*
X92676915Y-113958583D01*
X92680603Y-113954610D01*
X93031899Y-113576279D01*
X93734774Y-114442733D01*
G37*
G36*
X138317050Y-102907485D02*
G01*
X138289882Y-103627071D01*
X138605865Y-103722200D01*
X138794666Y-103782898D01*
X139038528Y-103866869D01*
X139314869Y-103965784D01*
X139601103Y-104071313D01*
X139874648Y-104175127D01*
X140112920Y-104268898D01*
X140293334Y-104344295D01*
X140297025Y-104345925D01*
X140519596Y-104444354D01*
X140345837Y-104863606D01*
X140271444Y-105039399D01*
X140206676Y-105185666D01*
X140159696Y-105284361D01*
X140141064Y-105316286D01*
X140090202Y-105315894D01*
X139983845Y-105284447D01*
X139843161Y-105228464D01*
X139814773Y-105215808D01*
X139683084Y-105158260D01*
X139507390Y-105084532D01*
X139302859Y-105000647D01*
X139084656Y-104912628D01*
X138867950Y-104826499D01*
X138667908Y-104748283D01*
X138499696Y-104684004D01*
X138378481Y-104639685D01*
X138319432Y-104621350D01*
X138317481Y-104621177D01*
X138310951Y-104661966D01*
X138306738Y-104776790D01*
X138304888Y-104954339D01*
X138305446Y-105183300D01*
X138308458Y-105452362D01*
X138313099Y-105709748D01*
X138336010Y-106798320D01*
X137829846Y-106798320D01*
X137323681Y-106798320D01*
X137354362Y-106446135D01*
X137362302Y-106308549D01*
X137369020Y-106100145D01*
X137374517Y-105832998D01*
X137378790Y-105519184D01*
X137381839Y-105170777D01*
X137383663Y-104799854D01*
X137384262Y-104418490D01*
X137383634Y-104038761D01*
X137381780Y-103672740D01*
X137378697Y-103332505D01*
X137374385Y-103030131D01*
X137368844Y-102777692D01*
X137362072Y-102587264D01*
X137354632Y-102476051D01*
X137324221Y-102187900D01*
X137834220Y-102187900D01*
X138344218Y-102187900D01*
X138317050Y-102907485D01*
G37*
G36*
X90771860Y-146380369D02*
G01*
X90880550Y-146405115D01*
X91031947Y-146440710D01*
X91096708Y-146456172D01*
X91314578Y-146498360D01*
X91552553Y-146529000D01*
X91761180Y-146541814D01*
X91771765Y-146541879D01*
X92091933Y-146542507D01*
X92198656Y-146723607D01*
X92282733Y-146879578D01*
X92331094Y-147015362D01*
X92347290Y-147157715D01*
X92334873Y-147333394D01*
X92305077Y-147525436D01*
X92277914Y-147698914D01*
X92261217Y-147840473D01*
X92257197Y-147929214D01*
X92260482Y-147947017D01*
X92230742Y-147966245D01*
X92139232Y-147992594D01*
X92008759Y-148021529D01*
X91862132Y-148048511D01*
X91722159Y-148069003D01*
X91611648Y-148078468D01*
X91598760Y-148078656D01*
X91577285Y-148041133D01*
X91579382Y-147943782D01*
X91583239Y-147916512D01*
X91587074Y-147770261D01*
X91538097Y-147686659D01*
X91431336Y-147662176D01*
X91266863Y-147691853D01*
X91085644Y-147741945D01*
X90971266Y-147768120D01*
X90908340Y-147769416D01*
X90881472Y-147744874D01*
X90875272Y-147693534D01*
X90875135Y-147667414D01*
X90852302Y-147544884D01*
X90797357Y-147417807D01*
X90795089Y-147414039D01*
X90730227Y-147292873D01*
X90684252Y-147181749D01*
X90683476Y-147179249D01*
X90611095Y-147029919D01*
X90498051Y-146949368D01*
X90335065Y-146926051D01*
X90222797Y-146918813D01*
X90156867Y-146900569D01*
X90149580Y-146890803D01*
X90186029Y-146820758D01*
X90278298Y-146742877D01*
X90400777Y-146674972D01*
X90513851Y-146637479D01*
X90626972Y-146604506D01*
X90680167Y-146554200D01*
X90696701Y-146486811D01*
X90711579Y-146402390D01*
X90726014Y-146371093D01*
X90771860Y-146380369D01*
G37*
G36*
X136851429Y-113322085D02*
G01*
X136932117Y-113415622D01*
X137045979Y-113546904D01*
X137169995Y-113689395D01*
X137184538Y-113706070D01*
X137410925Y-113965572D01*
X137227227Y-114012872D01*
X136719507Y-114170614D01*
X136280728Y-114366280D01*
X135901046Y-114604895D01*
X135642145Y-114821645D01*
X135481326Y-114987178D01*
X135334854Y-115163070D01*
X135214737Y-115332355D01*
X135132987Y-115478066D01*
X135101613Y-115583238D01*
X135101577Y-115585293D01*
X135114623Y-115600507D01*
X135158920Y-115612534D01*
X135241855Y-115621580D01*
X135370816Y-115627850D01*
X135553189Y-115631549D01*
X135796361Y-115632883D01*
X136107719Y-115632056D01*
X136494650Y-115629274D01*
X136638003Y-115627982D01*
X138174829Y-115613614D01*
X138174809Y-116029832D01*
X138174790Y-116446051D01*
X136385340Y-116446051D01*
X136001174Y-116446542D01*
X135642589Y-116447944D01*
X135318791Y-116450153D01*
X135038983Y-116453061D01*
X134812372Y-116456565D01*
X134648163Y-116460558D01*
X134555561Y-116464935D01*
X134539038Y-116467216D01*
X134477890Y-116455862D01*
X134367921Y-116406548D01*
X134230913Y-116329322D01*
X134204706Y-116313009D01*
X134071970Y-116228865D01*
X133971242Y-116164539D01*
X133920729Y-116131669D01*
X133918209Y-116129856D01*
X133928199Y-116088619D01*
X133965091Y-115986930D01*
X134021585Y-115842563D01*
X134090378Y-115673293D01*
X134164168Y-115496895D01*
X134235654Y-115331144D01*
X134297534Y-115193814D01*
X134331950Y-115122690D01*
X134549187Y-114764299D01*
X134826449Y-114409149D01*
X135141298Y-114082607D01*
X135471297Y-113810040D01*
X135528068Y-113770368D01*
X135769746Y-113622567D01*
X136053929Y-113473735D01*
X136340404Y-113343996D01*
X136509725Y-113279114D01*
X136744706Y-113197601D01*
X136851429Y-113322085D01*
G37*
G36*
X84795279Y-113222523D02*
G01*
X84886689Y-113298093D01*
X85004923Y-113425083D01*
X85091918Y-113521584D01*
X85220392Y-113666862D01*
X85321711Y-113788703D01*
X85385318Y-113873891D01*
X85401219Y-113908810D01*
X85352079Y-113930407D01*
X85242823Y-113966965D01*
X85095733Y-114011098D01*
X85074120Y-114017254D01*
X84657973Y-114160960D01*
X84263646Y-114346804D01*
X83910842Y-114563858D01*
X83619267Y-114801195D01*
X83567464Y-114852793D01*
X83479171Y-114956265D01*
X83377767Y-115092824D01*
X83276498Y-115242137D01*
X83188611Y-115383875D01*
X83127351Y-115497706D01*
X83105883Y-115561239D01*
X83147183Y-115570111D01*
X83265552Y-115577504D01*
X83452690Y-115583274D01*
X83700296Y-115587278D01*
X84000073Y-115589375D01*
X84343720Y-115589421D01*
X84653362Y-115587822D01*
X86200841Y-115576379D01*
X86213059Y-115989871D01*
X86225277Y-116403362D01*
X84441462Y-116403945D01*
X84056577Y-116404502D01*
X83696152Y-116405853D01*
X83369602Y-116407900D01*
X83086342Y-116410549D01*
X82855785Y-116413702D01*
X82687346Y-116417263D01*
X82590440Y-116421137D01*
X82572269Y-116423041D01*
X82487423Y-116409137D01*
X82355705Y-116349010D01*
X82231217Y-116274428D01*
X82103696Y-116187483D01*
X82008362Y-116115724D01*
X81964521Y-116073753D01*
X81963845Y-116072208D01*
X81973118Y-116011468D01*
X82013046Y-115890599D01*
X82076612Y-115726089D01*
X82156798Y-115534428D01*
X82246590Y-115332103D01*
X82338970Y-115135604D01*
X82426921Y-114961419D01*
X82470226Y-114882228D01*
X82719716Y-114516087D01*
X83037482Y-114165630D01*
X83406427Y-113845536D01*
X83809454Y-113570483D01*
X84229466Y-113355150D01*
X84267435Y-113339235D01*
X84466771Y-113256728D01*
X84606843Y-113206600D01*
X84709171Y-113193612D01*
X84795279Y-113222523D01*
G37*
G36*
X95154874Y-145186433D02*
G01*
X95191085Y-145229002D01*
X95255665Y-145333595D01*
X95340777Y-145484915D01*
X95438583Y-145667667D01*
X95541246Y-145866552D01*
X95640928Y-146066275D01*
X95729793Y-146251538D01*
X95800002Y-146407045D01*
X95843719Y-146517500D01*
X95852629Y-146548286D01*
X95858470Y-146599075D01*
X95843171Y-146643124D01*
X95794723Y-146690467D01*
X95701117Y-146751138D01*
X95550345Y-146835172D01*
X95435918Y-146896467D01*
X94644605Y-147276028D01*
X93808729Y-147593750D01*
X93714118Y-147624993D01*
X93487303Y-147696068D01*
X93255454Y-147763960D01*
X93036823Y-147823813D01*
X92849659Y-147870766D01*
X92712213Y-147899962D01*
X92653811Y-147907269D01*
X92638376Y-147870377D01*
X92641342Y-147776650D01*
X92648319Y-147726471D01*
X92679334Y-147589242D01*
X92729731Y-147413788D01*
X92780138Y-147262399D01*
X92841173Y-147084140D01*
X92871347Y-146958694D01*
X92871369Y-146859548D01*
X92841953Y-146760190D01*
X92796303Y-146659836D01*
X92745300Y-146549464D01*
X92714806Y-146474188D01*
X92710977Y-146459125D01*
X92749598Y-146447098D01*
X92849835Y-146442865D01*
X92988354Y-146445675D01*
X93141821Y-146454782D01*
X93286903Y-146469435D01*
X93356034Y-146479827D01*
X93442852Y-146489887D01*
X93509171Y-146474257D01*
X93578224Y-146419885D01*
X93673245Y-146313721D01*
X93692687Y-146290729D01*
X93798436Y-146175175D01*
X93893976Y-146087592D01*
X93953334Y-146049520D01*
X94025529Y-146012662D01*
X94141009Y-145939375D01*
X94275329Y-145845212D01*
X94281024Y-145841028D01*
X94530533Y-145657350D01*
X94650185Y-145760270D01*
X94746740Y-145825154D01*
X94828537Y-145850877D01*
X94838123Y-145850039D01*
X94928343Y-145794599D01*
X95011452Y-145679796D01*
X95073665Y-145531385D01*
X95101194Y-145375119D01*
X95101513Y-145358029D01*
X95110181Y-145233647D01*
X95137700Y-145185713D01*
X95154874Y-145186433D01*
G37*
G36*
X90789916Y-113415126D02*
G01*
X90784896Y-113514363D01*
X90780561Y-113686703D01*
X90776915Y-113921063D01*
X90773958Y-114206362D01*
X90771694Y-114531518D01*
X90770124Y-114885448D01*
X90769250Y-115257072D01*
X90769074Y-115635306D01*
X90769599Y-116009069D01*
X90770827Y-116367280D01*
X90772759Y-116698855D01*
X90775397Y-116992714D01*
X90778744Y-117237774D01*
X90782802Y-117422953D01*
X90787573Y-117537170D01*
X90789146Y-117555967D01*
X90809720Y-117748068D01*
X90312233Y-117760066D01*
X90115454Y-117762084D01*
X89952220Y-117758603D01*
X89840066Y-117750349D01*
X89796790Y-117738721D01*
X89792241Y-117683202D01*
X89796160Y-117565534D01*
X89807641Y-117408432D01*
X89811759Y-117363866D01*
X89829166Y-117138007D01*
X89842196Y-116884618D01*
X89847719Y-116676421D01*
X89850757Y-116330489D01*
X89349160Y-116170076D01*
X89110342Y-116090957D01*
X88852192Y-116000786D01*
X88589129Y-115905100D01*
X88335575Y-115809438D01*
X88105950Y-115719339D01*
X87914674Y-115640340D01*
X87776167Y-115577980D01*
X87706687Y-115539264D01*
X87678530Y-115508589D01*
X87670291Y-115463351D01*
X87685262Y-115388013D01*
X87726736Y-115267039D01*
X87798005Y-115084893D01*
X87808528Y-115058656D01*
X87879882Y-114883146D01*
X87939998Y-114739315D01*
X87981638Y-114644234D01*
X87996740Y-114614784D01*
X88040388Y-114623503D01*
X88142415Y-114661385D01*
X88283972Y-114721191D01*
X88345161Y-114748593D01*
X88509941Y-114820942D01*
X88718156Y-114908605D01*
X88950460Y-115003846D01*
X89187509Y-115098932D01*
X89409956Y-115186129D01*
X89598456Y-115257701D01*
X89733664Y-115305914D01*
X89761386Y-115314803D01*
X89864117Y-115346129D01*
X89834919Y-114369955D01*
X89826090Y-114083763D01*
X89817482Y-113821193D01*
X89809587Y-113595995D01*
X89802896Y-113421916D01*
X89797900Y-113312705D01*
X89796222Y-113287059D01*
X89786723Y-113180337D01*
X90298992Y-113180337D01*
X90811261Y-113180337D01*
X90789916Y-113415126D01*
G37*
G36*
X85966088Y-102657479D02*
G01*
X85966151Y-103063026D01*
X85133664Y-103049817D01*
X84301177Y-103036607D01*
X84301177Y-103428244D01*
X84301177Y-103819881D01*
X85325715Y-103803486D01*
X86350252Y-103787092D01*
X86350252Y-104204135D01*
X86350252Y-104621177D01*
X85325715Y-104621177D01*
X84301177Y-104621177D01*
X84301177Y-105026723D01*
X84303733Y-105224382D01*
X84313552Y-105355966D01*
X84333860Y-105440680D01*
X84367884Y-105497733D01*
X84383045Y-105514137D01*
X84472005Y-105570934D01*
X84611310Y-105609057D01*
X84808606Y-105629114D01*
X85071537Y-105631716D01*
X85407748Y-105617468D01*
X85558132Y-105607635D01*
X85781602Y-105592822D01*
X85972751Y-105581910D01*
X86116436Y-105575623D01*
X86197511Y-105574688D01*
X86209779Y-105576390D01*
X86212904Y-105621984D01*
X86210413Y-105734024D01*
X86202919Y-105893807D01*
X86195282Y-106020082D01*
X86180822Y-106216813D01*
X86165650Y-106344461D01*
X86145550Y-106419250D01*
X86116306Y-106457401D01*
X86077249Y-106474210D01*
X85984457Y-106486206D01*
X85823067Y-106493968D01*
X85609736Y-106497793D01*
X85361122Y-106497979D01*
X85093886Y-106494821D01*
X84824684Y-106488616D01*
X84570177Y-106479661D01*
X84347022Y-106468252D01*
X84171879Y-106454686D01*
X84061405Y-106439260D01*
X84057041Y-106438244D01*
X83894080Y-106385618D01*
X83738611Y-106314722D01*
X83683706Y-106281790D01*
X83578619Y-106199737D01*
X83500540Y-106107545D01*
X83445161Y-105991091D01*
X83408175Y-105836249D01*
X83385275Y-105628897D01*
X83372155Y-105354909D01*
X83369318Y-105250841D01*
X83354186Y-104621177D01*
X82653732Y-104621177D01*
X81953278Y-104621177D01*
X81953278Y-104197208D01*
X81953278Y-103773239D01*
X82657647Y-103798212D01*
X83362017Y-103823185D01*
X83362017Y-103430230D01*
X83362017Y-103037275D01*
X82839076Y-103044576D01*
X82316135Y-103051878D01*
X82304038Y-102651905D01*
X82291942Y-102251933D01*
X84128984Y-102251933D01*
X85966025Y-102251933D01*
X85966088Y-102657479D01*
G37*
G36*
X90789313Y-102218588D02*
G01*
X90866798Y-102247733D01*
X90968949Y-102313466D01*
X91076451Y-102391478D01*
X91223740Y-102503055D01*
X91308385Y-102578386D01*
X91339054Y-102628174D01*
X91324416Y-102663120D01*
X91306849Y-102675942D01*
X91274997Y-102721056D01*
X91214210Y-102828322D01*
X91132486Y-102982919D01*
X91037825Y-103170022D01*
X91011795Y-103222747D01*
X90893824Y-103454167D01*
X90764613Y-103693400D01*
X90640103Y-103911670D01*
X90539597Y-104075077D01*
X90324428Y-104404104D01*
X90606136Y-104651380D01*
X90739671Y-104775274D01*
X90910351Y-104943414D01*
X91098710Y-105136132D01*
X91285284Y-105333761D01*
X91335424Y-105388250D01*
X91783004Y-105877845D01*
X91595956Y-106041612D01*
X91450543Y-106167992D01*
X91288626Y-106307379D01*
X91209869Y-106374631D01*
X91010830Y-106543883D01*
X90769778Y-106233538D01*
X90641997Y-106075611D01*
X90477474Y-105881673D01*
X90298405Y-105677487D01*
X90143321Y-105506432D01*
X89757917Y-105089671D01*
X89452152Y-105374409D01*
X89037006Y-105732264D01*
X88597025Y-106059604D01*
X88162486Y-106334007D01*
X88137475Y-106348170D01*
X87986627Y-106432602D01*
X87867626Y-106498454D01*
X87797252Y-106536478D01*
X87785403Y-106542185D01*
X87754422Y-106513887D01*
X87675868Y-106437183D01*
X87562219Y-106324361D01*
X87448495Y-106210401D01*
X87315107Y-106073667D01*
X87207587Y-105958581D01*
X87138291Y-105878685D01*
X87118656Y-105848836D01*
X87154697Y-105818656D01*
X87250800Y-105763937D01*
X87388931Y-105694648D01*
X87446801Y-105667444D01*
X87894115Y-105431022D01*
X88330186Y-105144103D01*
X88743305Y-104817814D01*
X89121763Y-104463280D01*
X89453853Y-104091626D01*
X89727865Y-103713978D01*
X89932090Y-103341461D01*
X89958400Y-103280945D01*
X90027838Y-103114663D01*
X88850726Y-103136521D01*
X87673614Y-103158380D01*
X87673586Y-102705156D01*
X87673558Y-102251933D01*
X89040905Y-102265792D01*
X89423910Y-102268231D01*
X89770803Y-102267604D01*
X90071888Y-102264087D01*
X90317468Y-102257859D01*
X90497847Y-102249098D01*
X90603331Y-102237983D01*
X90608140Y-102237019D01*
X90711444Y-102217771D01*
X90789313Y-102218588D01*
G37*
G36*
X89202288Y-146093472D02*
G01*
X89275524Y-146108622D01*
X89410266Y-146125096D01*
X89582735Y-146140207D01*
X89665507Y-146145797D01*
X89849981Y-146158408D01*
X89966253Y-146172323D01*
X90031405Y-146192849D01*
X90062519Y-146225298D01*
X90076395Y-146273497D01*
X90070862Y-146363118D01*
X89997451Y-146414815D01*
X89915695Y-146470212D01*
X89812828Y-146571757D01*
X89707242Y-146696697D01*
X89617328Y-146822283D01*
X89561477Y-146925761D01*
X89551933Y-146965957D01*
X89581783Y-147049945D01*
X89636656Y-147117559D01*
X89678247Y-147150157D01*
X89726808Y-147169626D01*
X89797745Y-147175875D01*
X89906464Y-147168813D01*
X90068371Y-147148349D01*
X90298872Y-147114392D01*
X90303985Y-147113621D01*
X90479735Y-147087089D01*
X90595667Y-147401444D01*
X90689169Y-147646912D01*
X90765738Y-147819419D01*
X90834494Y-147927308D01*
X90904556Y-147978924D01*
X90985041Y-147982612D01*
X91085068Y-147946717D01*
X91153671Y-147912090D01*
X91267487Y-147858422D01*
X91348549Y-147832595D01*
X91371054Y-147834471D01*
X91380023Y-147889162D01*
X91367570Y-147987089D01*
X91366889Y-147990225D01*
X91338091Y-148121345D01*
X90498373Y-148114949D01*
X90230516Y-148112197D01*
X89984459Y-148108342D01*
X89775841Y-148103732D01*
X89620304Y-148098718D01*
X89533485Y-148093649D01*
X89530589Y-148093325D01*
X89202060Y-148051130D01*
X88881371Y-148004165D01*
X88580799Y-147954740D01*
X88312620Y-147905163D01*
X88089111Y-147857741D01*
X87922548Y-147814784D01*
X87825207Y-147778598D01*
X87812353Y-147770262D01*
X87779214Y-147703205D01*
X87760522Y-147587797D01*
X87758992Y-147542914D01*
X87792987Y-147371609D01*
X87896174Y-147248262D01*
X88070353Y-147171031D01*
X88136852Y-147156556D01*
X88261555Y-147120987D01*
X88357819Y-147071437D01*
X88364364Y-147066107D01*
X88451757Y-147004185D01*
X88567732Y-146937812D01*
X88577684Y-146932774D01*
X88675619Y-146864009D01*
X88731452Y-146787466D01*
X88734305Y-146776639D01*
X88774155Y-146679034D01*
X88825771Y-146605883D01*
X88887096Y-146520534D01*
X88964040Y-146391237D01*
X89016150Y-146292794D01*
X89088476Y-146161940D01*
X89144185Y-146098902D01*
X89195118Y-146091000D01*
X89202288Y-146093472D01*
G37*
G36*
X94375953Y-129143339D02*
G01*
X94545709Y-129204922D01*
X94752782Y-129290597D01*
X94984415Y-129395165D01*
X95227850Y-129513427D01*
X95400336Y-129602580D01*
X95575188Y-129699334D01*
X95773632Y-129815413D01*
X95981407Y-129941730D01*
X96184253Y-130069199D01*
X96367911Y-130188731D01*
X96518121Y-130291241D01*
X96620624Y-130367641D01*
X96659348Y-130404868D01*
X96652459Y-130460923D01*
X96609186Y-130556013D01*
X96546103Y-130662203D01*
X96479783Y-130751558D01*
X96427320Y-130795973D01*
X96381548Y-130837478D01*
X96308695Y-130929671D01*
X96243323Y-131024370D01*
X96135332Y-131164621D01*
X96039127Y-131241416D01*
X96007640Y-131251537D01*
X95921785Y-131292367D01*
X95823841Y-131377805D01*
X95794597Y-131411620D01*
X95713280Y-131505617D01*
X95647151Y-131543341D01*
X95567640Y-131528499D01*
X95446175Y-131464793D01*
X95434795Y-131458273D01*
X95335351Y-131390949D01*
X95274276Y-131313802D01*
X95242532Y-131204689D01*
X95231083Y-131041467D01*
X95230163Y-130956878D01*
X95234479Y-130815561D01*
X95254476Y-130733160D01*
X95299415Y-130683458D01*
X95334039Y-130662725D01*
X95406850Y-130615848D01*
X95452752Y-130555865D01*
X95482704Y-130459382D01*
X95507667Y-130302999D01*
X95509706Y-130287731D01*
X95519641Y-130145626D01*
X95498162Y-130049410D01*
X95454126Y-129981595D01*
X95371288Y-129913258D01*
X95308002Y-129925273D01*
X95274819Y-130013091D01*
X95272269Y-130060015D01*
X95245306Y-130249559D01*
X95171860Y-130404198D01*
X95073356Y-130494402D01*
X94958261Y-130598685D01*
X94898520Y-130761731D01*
X94888068Y-130899082D01*
X94872802Y-131010016D01*
X94825968Y-131045715D01*
X94768741Y-131006592D01*
X94736526Y-130896488D01*
X94730135Y-130726296D01*
X94750382Y-130506913D01*
X94774850Y-130360383D01*
X94818260Y-130114603D01*
X94839201Y-129936586D01*
X94837384Y-129811648D01*
X94812522Y-129725106D01*
X94764326Y-129662277D01*
X94761086Y-129659302D01*
X94699034Y-129610853D01*
X94664148Y-129626259D01*
X94633019Y-129698154D01*
X94600388Y-129806040D01*
X94589244Y-129879111D01*
X94568928Y-129922894D01*
X94514538Y-129909288D01*
X94427602Y-129888266D01*
X94296727Y-129877320D01*
X94240337Y-129876871D01*
X94121159Y-129876587D01*
X94071602Y-129863933D01*
X94075945Y-129828932D01*
X94100918Y-129788412D01*
X94176983Y-129699859D01*
X94280969Y-129608130D01*
X94289741Y-129601539D01*
X94386011Y-129514763D01*
X94409677Y-129436903D01*
X94360763Y-129347600D01*
X94290139Y-129273848D01*
X94215935Y-129186811D01*
X94193887Y-129124288D01*
X94199430Y-129113243D01*
X94256274Y-129111046D01*
X94375953Y-129143339D01*
G37*
G36*
X129502367Y-102004012D02*
G01*
X129538194Y-102041850D01*
X129541953Y-102046934D01*
X129599552Y-102134616D01*
X129673765Y-102259658D01*
X129752407Y-102399818D01*
X129823297Y-102532856D01*
X129874253Y-102636531D01*
X129893110Y-102688022D01*
X129858094Y-102727632D01*
X129769480Y-102784154D01*
X129716460Y-102811593D01*
X129539810Y-102897150D01*
X129769821Y-103041544D01*
X129890796Y-103117573D01*
X129979105Y-103173231D01*
X130013584Y-103195153D01*
X130005704Y-103237183D01*
X129969941Y-103342151D01*
X129912507Y-103494720D01*
X129839613Y-103679552D01*
X129757470Y-103881312D01*
X129672288Y-104084660D01*
X129590280Y-104274260D01*
X129517655Y-104434775D01*
X129479319Y-104514454D01*
X129157081Y-105065512D01*
X128766528Y-105568537D01*
X128313088Y-106018527D01*
X127802186Y-106410482D01*
X127239248Y-106739399D01*
X126892297Y-106898794D01*
X126730307Y-106966312D01*
X126345651Y-106621426D01*
X126198785Y-106487893D01*
X126079994Y-106376336D01*
X126001082Y-106298100D01*
X125973856Y-106264532D01*
X125974027Y-106264262D01*
X126016838Y-106244761D01*
X126121964Y-106201921D01*
X126271928Y-106142767D01*
X126392605Y-106096035D01*
X126772263Y-105936824D01*
X127094054Y-105770592D01*
X127385146Y-105582639D01*
X127502521Y-105495429D01*
X127727612Y-105308356D01*
X127950678Y-105098789D01*
X128149575Y-104888905D01*
X128302162Y-104700884D01*
X128317428Y-104679225D01*
X128416776Y-104521483D01*
X128522156Y-104332039D01*
X128621856Y-104134544D01*
X128704165Y-103952653D01*
X128757371Y-103810017D01*
X128767809Y-103769610D01*
X128793866Y-103639328D01*
X128168353Y-103639328D01*
X127542840Y-103639328D01*
X127042429Y-104140925D01*
X126858516Y-104321646D01*
X126679303Y-104491275D01*
X126520174Y-104635705D01*
X126396512Y-104740830D01*
X126348603Y-104777192D01*
X126155188Y-104911864D01*
X125782887Y-104633811D01*
X125410586Y-104355759D01*
X125720167Y-104140280D01*
X126058921Y-103873908D01*
X126389119Y-103557390D01*
X126695527Y-103208940D01*
X126962913Y-102846770D01*
X127176045Y-102489094D01*
X127270644Y-102286415D01*
X127328364Y-102158740D01*
X127377767Y-102071320D01*
X127405620Y-102044240D01*
X127496730Y-102067083D01*
X127632916Y-102109204D01*
X127794617Y-102163569D01*
X127962273Y-102223145D01*
X128116321Y-102280900D01*
X128237203Y-102329799D01*
X128305356Y-102362809D01*
X128313614Y-102370715D01*
X128291408Y-102424594D01*
X128234759Y-102521501D01*
X128192811Y-102585754D01*
X128115627Y-102701246D01*
X128055823Y-102793338D01*
X128038340Y-102821674D01*
X128038315Y-102844157D01*
X128076509Y-102859099D01*
X128163723Y-102867284D01*
X128310759Y-102869499D01*
X128528419Y-102866528D01*
X128625232Y-102864363D01*
X128847433Y-102857156D01*
X129038649Y-102847339D01*
X129182913Y-102836010D01*
X129264260Y-102824266D01*
X129275679Y-102819627D01*
X129270975Y-102770644D01*
X129231236Y-102668500D01*
X129164659Y-102533655D01*
X129151102Y-102508661D01*
X129076598Y-102368711D01*
X129021808Y-102257395D01*
X128997107Y-102195959D01*
X128996639Y-102192355D01*
X129033275Y-102159806D01*
X129128584Y-102110551D01*
X129241046Y-102063530D01*
X129376763Y-102013585D01*
X129456213Y-101994168D01*
X129502367Y-102004012D01*
G37*
G36*
X93735462Y-80984933D02*
G01*
X93743771Y-81135512D01*
X93764990Y-81316954D01*
X93781145Y-81416314D01*
X93809880Y-81642846D01*
X93796556Y-81828614D01*
X93733552Y-81999260D01*
X93613248Y-82180424D01*
X93520578Y-82293045D01*
X93397906Y-82444995D01*
X93290741Y-82594556D01*
X93217505Y-82715509D01*
X93204848Y-82742433D01*
X93155547Y-82928019D01*
X93139646Y-83142932D01*
X93158487Y-83345084D01*
X93182872Y-83432278D01*
X93209956Y-83539538D01*
X93198853Y-83643552D01*
X93142861Y-83764411D01*
X93035274Y-83922204D01*
X93006674Y-83960361D01*
X92843054Y-84204676D01*
X92693190Y-84479985D01*
X92572081Y-84755701D01*
X92494728Y-85001236D01*
X92493426Y-85006985D01*
X92471309Y-85133242D01*
X92466352Y-85258573D01*
X92479569Y-85409782D01*
X92511974Y-85613670D01*
X92517575Y-85645027D01*
X92552032Y-85852666D01*
X92567720Y-86001565D01*
X92565515Y-86116072D01*
X92546296Y-86220532D01*
X92539280Y-86246702D01*
X92508419Y-86473068D01*
X92524487Y-86745874D01*
X92563906Y-86954371D01*
X92570540Y-87043349D01*
X92522522Y-87088368D01*
X92499604Y-87096637D01*
X92389768Y-87095770D01*
X92339861Y-87069156D01*
X92291954Y-87036913D01*
X92290816Y-87070794D01*
X92300588Y-87103561D01*
X92296341Y-87220032D01*
X92240883Y-87344642D01*
X92177119Y-87504561D01*
X92179112Y-87601557D01*
X92181599Y-87729662D01*
X92131769Y-87830856D01*
X92044061Y-87880384D01*
X92015725Y-87881685D01*
X91928297Y-87871855D01*
X91786086Y-87850966D01*
X91618288Y-87823336D01*
X91601009Y-87820330D01*
X91447167Y-87793333D01*
X91330655Y-87772700D01*
X91272794Y-87762211D01*
X91270168Y-87761671D01*
X91262861Y-87722308D01*
X91259518Y-87630242D01*
X91259496Y-87621426D01*
X91257166Y-87530268D01*
X91241394Y-87516024D01*
X91199004Y-87570232D01*
X91193042Y-87578737D01*
X91110401Y-87659713D01*
X91039850Y-87658105D01*
X90989644Y-87575176D01*
X90982228Y-87546506D01*
X90968231Y-87432990D01*
X90989768Y-87338858D01*
X91057537Y-87248560D01*
X91182231Y-87146547D01*
X91323426Y-87050453D01*
X91476830Y-86947492D01*
X91573032Y-86871763D01*
X91627485Y-86805662D01*
X91655644Y-86731583D01*
X91669387Y-86656328D01*
X91680643Y-86515042D01*
X91682311Y-86331253D01*
X91675220Y-86164811D01*
X91665617Y-86004317D01*
X91669674Y-85903448D01*
X91693621Y-85836772D01*
X91743689Y-85778860D01*
X91777318Y-85748063D01*
X91876440Y-85621639D01*
X91953101Y-85454606D01*
X91961338Y-85427895D01*
X92006407Y-85269809D01*
X92060669Y-85078374D01*
X92099285Y-84941513D01*
X92159908Y-84768394D01*
X92237061Y-84603874D01*
X92297880Y-84506472D01*
X92421090Y-84317332D01*
X92508730Y-84110609D01*
X92565966Y-83867547D01*
X92597966Y-83569387D01*
X92606335Y-83386753D01*
X92613090Y-83187459D01*
X92623468Y-83034269D01*
X92643609Y-82907603D01*
X92679653Y-82787881D01*
X92737741Y-82655525D01*
X92824012Y-82490954D01*
X92944606Y-82274590D01*
X92968375Y-82232294D01*
X93095512Y-81954146D01*
X93146886Y-81702634D01*
X93124099Y-81468275D01*
X93106970Y-81411162D01*
X93058928Y-81301863D01*
X92987025Y-81210750D01*
X92871172Y-81116096D01*
X92770938Y-81047732D01*
X92640763Y-80958065D01*
X92544213Y-80883781D01*
X92498860Y-80838596D01*
X92497479Y-80834308D01*
X92537664Y-80822416D01*
X92648213Y-80812370D01*
X92814120Y-80804987D01*
X93020376Y-80801080D01*
X93116471Y-80800673D01*
X93735462Y-80800673D01*
X93735462Y-80984933D01*
G37*
G36*
X87200576Y-78076489D02*
G01*
X87403494Y-78192643D01*
X87551587Y-78279406D01*
X87644462Y-78305373D01*
X87686367Y-78271010D01*
X87689029Y-78224061D01*
X87687412Y-78163393D01*
X87690122Y-78153950D01*
X87723923Y-78180405D01*
X87805136Y-78250478D01*
X87918109Y-78350227D01*
X88047195Y-78465711D01*
X88176745Y-78582989D01*
X88291108Y-78688121D01*
X88319424Y-78714558D01*
X88412099Y-78807629D01*
X88461533Y-78886424D01*
X88481233Y-78984667D01*
X88484706Y-79127285D01*
X88488837Y-79277190D01*
X88499523Y-79398596D01*
X88510618Y-79452475D01*
X88568198Y-79512053D01*
X88651184Y-79505777D01*
X88724105Y-79445295D01*
X88766596Y-79410593D01*
X88784902Y-79441361D01*
X88780865Y-79521754D01*
X88756332Y-79635929D01*
X88713146Y-79768042D01*
X88676390Y-79855080D01*
X88608932Y-80005707D01*
X88578716Y-80098322D01*
X88584614Y-80151181D01*
X88625493Y-80182539D01*
X88655361Y-80194634D01*
X88697163Y-80216659D01*
X88702307Y-80250996D01*
X88664612Y-80314482D01*
X88577900Y-80423955D01*
X88565768Y-80438720D01*
X88425181Y-80596204D01*
X88249377Y-80773269D01*
X88054354Y-80955804D01*
X87856108Y-81129695D01*
X87670639Y-81280831D01*
X87513943Y-81395098D01*
X87417479Y-81451699D01*
X87204891Y-81519425D01*
X86946912Y-81554911D01*
X86677751Y-81556793D01*
X86431617Y-81523706D01*
X86331726Y-81495013D01*
X86187347Y-81432544D01*
X86115008Y-81376855D01*
X86118054Y-81333113D01*
X86199829Y-81306484D01*
X86208982Y-81305349D01*
X86318746Y-81262416D01*
X86367602Y-81203550D01*
X86393404Y-81160706D01*
X86436714Y-81136175D01*
X86516390Y-81126657D01*
X86651292Y-81128850D01*
X86763503Y-81134251D01*
X86991610Y-81138649D01*
X87163132Y-81122297D01*
X87303610Y-81083150D01*
X87507808Y-80970477D01*
X87702501Y-80800032D01*
X87880052Y-80586689D01*
X88032829Y-80345325D01*
X88153195Y-80090815D01*
X88233516Y-79838037D01*
X88266156Y-79601865D01*
X88243481Y-79397176D01*
X88211038Y-79315107D01*
X88058020Y-79103991D01*
X87850596Y-78954932D01*
X87585979Y-78866532D01*
X87261379Y-78837391D01*
X87258766Y-78837392D01*
X87020705Y-78851808D01*
X86814011Y-78900555D01*
X86619480Y-78992862D01*
X86417913Y-79137959D01*
X86190106Y-79345073D01*
X86178142Y-79356772D01*
X85967137Y-79579411D01*
X85820544Y-79774399D01*
X85728919Y-79956915D01*
X85682815Y-80142140D01*
X85681034Y-80155714D01*
X85697470Y-80343120D01*
X85783272Y-80539859D01*
X85927532Y-80726186D01*
X86060102Y-80841803D01*
X86164410Y-80923289D01*
X86230262Y-80983904D01*
X86243503Y-81007030D01*
X86194755Y-81011598D01*
X86091253Y-81003232D01*
X86031335Y-80995193D01*
X85847422Y-80939382D01*
X85631817Y-80826750D01*
X85562491Y-80782211D01*
X85420164Y-80689169D01*
X85297170Y-80613024D01*
X85217366Y-80568478D01*
X85211027Y-80565613D01*
X85164947Y-80539153D01*
X85191995Y-80518336D01*
X85240336Y-80504131D01*
X85316352Y-80467257D01*
X85336370Y-80394601D01*
X85333190Y-80349923D01*
X85307503Y-80056893D01*
X85296289Y-79785680D01*
X85299685Y-79555197D01*
X85317828Y-79384359D01*
X85325899Y-79348557D01*
X85374762Y-79167095D01*
X85485124Y-79322203D01*
X85590576Y-79436141D01*
X85688955Y-79477299D01*
X85690543Y-79477311D01*
X85750925Y-79464494D01*
X85787141Y-79411915D01*
X85812331Y-79298382D01*
X85815924Y-79275101D01*
X85861229Y-79074839D01*
X85925875Y-78928399D01*
X86003284Y-78848279D01*
X86046515Y-78836975D01*
X86136802Y-78804517D01*
X86255925Y-78719124D01*
X86385162Y-78598765D01*
X86505793Y-78461413D01*
X86599095Y-78325037D01*
X86618533Y-78287893D01*
X86725352Y-78121899D01*
X86854230Y-78031787D01*
X87010770Y-78016877D01*
X87200576Y-78076489D01*
G37*
G36*
X88970937Y-74043765D02*
G01*
X88998474Y-74056601D01*
X89114173Y-74158676D01*
X89215784Y-74321702D01*
X89290821Y-74521268D01*
X89323426Y-74691802D01*
X89349697Y-74943152D01*
X89043060Y-75094215D01*
X88652672Y-75319793D01*
X88341700Y-75573697D01*
X88108229Y-75858281D01*
X87950343Y-76175899D01*
X87866127Y-76528905D01*
X87864428Y-76542437D01*
X87834533Y-76787900D01*
X87591990Y-76787900D01*
X87438023Y-76778159D01*
X87236524Y-76752175D01*
X87022689Y-76714808D01*
X86945901Y-76698718D01*
X86630945Y-76643806D01*
X86360402Y-76632435D01*
X86105194Y-76664696D01*
X85958508Y-76701745D01*
X85822646Y-76758332D01*
X85659328Y-76850184D01*
X85495822Y-76959288D01*
X85359395Y-77067633D01*
X85283866Y-77147379D01*
X85163045Y-77299732D01*
X85026229Y-77445962D01*
X84896182Y-77563252D01*
X84810553Y-77621832D01*
X84722548Y-77649324D01*
X84571339Y-77678594D01*
X84378925Y-77705962D01*
X84188353Y-77725955D01*
X83748034Y-77767358D01*
X83383306Y-77809328D01*
X83084403Y-77854383D01*
X82841561Y-77905041D01*
X82645013Y-77963819D01*
X82484995Y-78033234D01*
X82351742Y-78115804D01*
X82235489Y-78214047D01*
X82214353Y-78234857D01*
X81984092Y-78505601D01*
X81820143Y-78784091D01*
X81729631Y-79057437D01*
X81718333Y-79132080D01*
X81682977Y-79403864D01*
X81638023Y-79608950D01*
X81573690Y-79766017D01*
X81480195Y-79893743D01*
X81347756Y-80010810D01*
X81206219Y-80109982D01*
X80959585Y-80290778D01*
X80724235Y-80495776D01*
X80522971Y-80703642D01*
X80392612Y-80871311D01*
X80310299Y-80988815D01*
X80244446Y-81071042D01*
X80211416Y-81099086D01*
X80184124Y-81061963D01*
X80132549Y-80961491D01*
X80064359Y-80813492D01*
X79995439Y-80653493D01*
X79901205Y-80415106D01*
X79804397Y-80148508D01*
X79720143Y-79896170D01*
X79687691Y-79789449D01*
X79621494Y-79564937D01*
X79541478Y-79299025D01*
X79459727Y-79031664D01*
X79412906Y-78880899D01*
X79341949Y-78643032D01*
X79296051Y-78453399D01*
X79269795Y-78280480D01*
X79257764Y-78092758D01*
X79255152Y-77963084D01*
X79281518Y-77398153D01*
X79374681Y-76880848D01*
X79537179Y-76402579D01*
X79771554Y-75954753D01*
X79909732Y-75748916D01*
X80009999Y-75610178D01*
X80090391Y-75499662D01*
X80138564Y-75434306D01*
X80146275Y-75424334D01*
X80192744Y-75424932D01*
X80286518Y-75450591D01*
X80307961Y-75458079D01*
X80416333Y-75480647D01*
X80594700Y-75498214D01*
X80827768Y-75509647D01*
X81056958Y-75513690D01*
X81660476Y-75516694D01*
X81959950Y-75191687D01*
X82095787Y-75052232D01*
X82221487Y-74937273D01*
X82319807Y-74861877D01*
X82361139Y-74841151D01*
X82462540Y-74836437D01*
X82602443Y-74853819D01*
X82669712Y-74868638D01*
X82872186Y-74898760D01*
X83068714Y-74892840D01*
X83069532Y-74892717D01*
X83291365Y-74827782D01*
X83527996Y-74706192D01*
X83751880Y-74545434D01*
X83935475Y-74362995D01*
X83966612Y-74323189D01*
X84071162Y-74199616D01*
X84172642Y-74108553D01*
X84237305Y-74073288D01*
X84374923Y-74067725D01*
X84559114Y-74099431D01*
X84763346Y-74161571D01*
X84961087Y-74247314D01*
X85005547Y-74271158D01*
X85219370Y-74377840D01*
X85460074Y-74477300D01*
X85690486Y-74555084D01*
X85819368Y-74587628D01*
X85919675Y-74592431D01*
X86016984Y-74553543D01*
X86113390Y-74484337D01*
X86258450Y-74391691D01*
X86402387Y-74356765D01*
X86452173Y-74355153D01*
X86559482Y-74366249D01*
X86718216Y-74395153D01*
X86903934Y-74435950D01*
X87092191Y-74482726D01*
X87258547Y-74529568D01*
X87378558Y-74570560D01*
X87415622Y-74588264D01*
X87476169Y-74605370D01*
X87597682Y-74626692D01*
X87756154Y-74648139D01*
X87790126Y-74652078D01*
X87959609Y-74669296D01*
X88070071Y-74671627D01*
X88147155Y-74655235D01*
X88216501Y-74616284D01*
X88264198Y-74581144D01*
X88371784Y-74482641D01*
X88490770Y-74349547D01*
X88553179Y-74268738D01*
X88696696Y-74108634D01*
X88836002Y-74033617D01*
X88970937Y-74043765D01*
G37*
G36*
X124840000Y-134050000D02*
G01*
X124840000Y-134090000D01*
X124860000Y-134180000D01*
X124890000Y-134340000D01*
X124980000Y-134510000D01*
X125070000Y-134600000D01*
X125170000Y-134680000D01*
X125250000Y-134720000D01*
X125380000Y-134800000D01*
X125530000Y-134860000D01*
X125660000Y-134920000D01*
X125790000Y-134980000D01*
X125860000Y-135020000D01*
X125920000Y-135050000D01*
X126010000Y-135090000D01*
X126120000Y-135120000D01*
X126240000Y-135130000D01*
X126400000Y-135150000D01*
X126610000Y-135150000D01*
X126840000Y-135130000D01*
X126990000Y-135110000D01*
X127090000Y-135080000D01*
X127170000Y-135060000D01*
X127250000Y-135040000D01*
X127310000Y-135040000D01*
X127330000Y-135070000D01*
X127300000Y-135110000D01*
X127220000Y-135170000D01*
X127120000Y-135240000D01*
X127070000Y-135270000D01*
X126920000Y-135410000D01*
X126770000Y-135570000D01*
X126680000Y-135690000D01*
X126620000Y-135800000D01*
X126570000Y-135920000D01*
X126550000Y-136030000D01*
X126550000Y-136184407D01*
X126550000Y-136300000D01*
X126560000Y-136691430D01*
X126590000Y-137050000D01*
X126630000Y-137370000D01*
X126660000Y-137590000D01*
X126690000Y-137770000D01*
X126720000Y-137830000D01*
X126820000Y-138040000D01*
X127000000Y-138220000D01*
X127210000Y-138320000D01*
X127320000Y-138360000D01*
X127510000Y-138380000D01*
X127740000Y-138350000D01*
X127990000Y-138290000D01*
X128260000Y-138220000D01*
X128510000Y-138140000D01*
X128680000Y-138040000D01*
X128750000Y-137990000D01*
X128860000Y-137910000D01*
X128900000Y-137870000D01*
X128940000Y-137850000D01*
X128970000Y-137880000D01*
X128950000Y-137950000D01*
X128920000Y-138030000D01*
X128850000Y-138110000D01*
X128790000Y-138240000D01*
X128750000Y-138390000D01*
X128710000Y-138480000D01*
X128690000Y-138596513D01*
X128670000Y-138670000D01*
X128640000Y-138720000D01*
X128570000Y-138780000D01*
X128460000Y-138850000D01*
X128270000Y-138930000D01*
X128070000Y-138980000D01*
X127970000Y-139010000D01*
X127710000Y-139050000D01*
X127390000Y-139070000D01*
X127040000Y-139060000D01*
X126740000Y-139010000D01*
X126560000Y-138950000D01*
X126380000Y-138910000D01*
X126260000Y-138920000D01*
X126220000Y-138980000D01*
X126240000Y-139090000D01*
X126280000Y-139170000D01*
X126330000Y-139260000D01*
X126340000Y-139310000D01*
X126340000Y-139351486D01*
X126280000Y-139400000D01*
X126180000Y-139430000D01*
X126010000Y-139470000D01*
X125810000Y-139510000D01*
X125600000Y-139550000D01*
X125390000Y-139570000D01*
X124988833Y-139570000D01*
X124554226Y-139500000D01*
X124130000Y-139350000D01*
X123740000Y-139130000D01*
X123640000Y-139050000D01*
X123510000Y-138960000D01*
X123410000Y-138850000D01*
X123340000Y-138740000D01*
X123270000Y-138640000D01*
X123190000Y-138488068D01*
X123090000Y-138310000D01*
X123010000Y-138180000D01*
X122930000Y-138110000D01*
X122880000Y-138110000D01*
X122840000Y-138160000D01*
X122830000Y-138271247D01*
X122830000Y-138412912D01*
X122850000Y-138580000D01*
X122870000Y-138730000D01*
X122880000Y-138812335D01*
X122910000Y-138977463D01*
X122920000Y-139090000D01*
X122910000Y-139150000D01*
X122870000Y-139250000D01*
X122830000Y-139390000D01*
X122810000Y-139455463D01*
X122760000Y-139600000D01*
X122710000Y-139710000D01*
X122680000Y-139760000D01*
X122640000Y-139830000D01*
X122570000Y-139880000D01*
X122470000Y-139910000D01*
X122400000Y-139920000D01*
X122210000Y-139930000D01*
X122060000Y-139950000D01*
X121970000Y-139960000D01*
X121840000Y-139960000D01*
X121720000Y-139930000D01*
X121654118Y-139910000D01*
X121580000Y-139880000D01*
X121520000Y-139840000D01*
X121480000Y-139790000D01*
X121460000Y-139680000D01*
X121469071Y-139541954D01*
X121511140Y-139315752D01*
X121525323Y-139245586D01*
X121732350Y-138440972D01*
X122020062Y-137655000D01*
X122384512Y-136895058D01*
X122821753Y-136168535D01*
X123327837Y-135482818D01*
X123849592Y-134895639D01*
X124019913Y-134724605D01*
X124201170Y-134550270D01*
X124381704Y-134382997D01*
X124549853Y-134233147D01*
X124693958Y-134111083D01*
X124780000Y-134050000D01*
X124810000Y-134030000D01*
X124830000Y-134020000D01*
X124840000Y-134050000D01*
G37*
G36*
X98156636Y-81622389D02*
G01*
X98322550Y-81647293D01*
X98518039Y-81682356D01*
X98716397Y-81722621D01*
X98890921Y-81763126D01*
X98964874Y-81783069D01*
X99028040Y-81802201D01*
X99094946Y-81824814D01*
X99176178Y-81855264D01*
X99282323Y-81897902D01*
X99423968Y-81957083D01*
X99611699Y-82037159D01*
X99856103Y-82142484D01*
X100167766Y-82277412D01*
X100181513Y-82283370D01*
X100437781Y-82394502D01*
X100628237Y-82477640D01*
X100765375Y-82538815D01*
X100861689Y-82584058D01*
X100929671Y-82619402D01*
X100981815Y-82650877D01*
X101030614Y-82684516D01*
X101067311Y-82711016D01*
X101172596Y-82803908D01*
X101196298Y-82875937D01*
X101137683Y-82933685D01*
X101038151Y-82971916D01*
X100909466Y-83033128D01*
X100768929Y-83148187D01*
X100635722Y-83289353D01*
X100412685Y-83593008D01*
X100273530Y-83899801D01*
X100218955Y-84208123D01*
X100218104Y-84251701D01*
X100213646Y-84425204D01*
X100191070Y-84547222D01*
X100136566Y-84633729D01*
X100036328Y-84700699D01*
X99876547Y-84764106D01*
X99734838Y-84810778D01*
X99552019Y-84866663D01*
X99392288Y-84910627D01*
X99277873Y-84936796D01*
X99240142Y-84941513D01*
X99094747Y-84973312D01*
X98932562Y-85056534D01*
X98777356Y-85172916D01*
X98652897Y-85304196D01*
X98582953Y-85432110D01*
X98578648Y-85449796D01*
X98548597Y-85570928D01*
X98497323Y-85745944D01*
X98433041Y-85948585D01*
X98363969Y-86152593D01*
X98323592Y-86264874D01*
X98268226Y-86436747D01*
X98206866Y-86663057D01*
X98147151Y-86913960D01*
X98102623Y-87128274D01*
X98069922Y-87211652D01*
X97995606Y-87255080D01*
X97924974Y-87270339D01*
X97803094Y-87291308D01*
X97726611Y-87316931D01*
X97686508Y-87364578D01*
X97673771Y-87451619D01*
X97679386Y-87595423D01*
X97688497Y-87725993D01*
X97715998Y-88121849D01*
X97518672Y-88300783D01*
X97404565Y-88412898D01*
X97344410Y-88501395D01*
X97322721Y-88592339D01*
X97321345Y-88632963D01*
X97338734Y-88753599D01*
X97383743Y-88810154D01*
X97444173Y-88854212D01*
X97533556Y-88942958D01*
X97637021Y-89058446D01*
X97739695Y-89182728D01*
X97826707Y-89297858D01*
X97883185Y-89385889D01*
X97895365Y-89427558D01*
X97877612Y-89446540D01*
X97842950Y-89456748D01*
X97776026Y-89458061D01*
X97661487Y-89450358D01*
X97483979Y-89433518D01*
X97385378Y-89423530D01*
X97226373Y-89404848D01*
X97096136Y-89385124D01*
X97022727Y-89368612D01*
X97022521Y-89368534D01*
X96954892Y-89356242D01*
X96823073Y-89342468D01*
X96648180Y-89329166D01*
X96509842Y-89321099D01*
X96246036Y-89300899D01*
X96039588Y-89267856D01*
X95862847Y-89217029D01*
X95805473Y-89195165D01*
X95643446Y-89134566D01*
X95488896Y-89084366D01*
X95400336Y-89061168D01*
X95278854Y-89023362D01*
X95186941Y-88973714D01*
X95182955Y-88970359D01*
X95146420Y-88928264D01*
X95138584Y-88874205D01*
X95160273Y-88782938D01*
X95192233Y-88686959D01*
X95235884Y-88548723D01*
X95264530Y-88435301D01*
X95270876Y-88390985D01*
X95307032Y-88322546D01*
X95389664Y-88262161D01*
X95449540Y-88228691D01*
X95484209Y-88185799D01*
X95500084Y-88112125D01*
X95503582Y-87986305D01*
X95502543Y-87886302D01*
X95493707Y-87720265D01*
X95472860Y-87496495D01*
X95442982Y-87237047D01*
X95407057Y-86963978D01*
X95368067Y-86699343D01*
X95328994Y-86465198D01*
X95292820Y-86283599D01*
X95277533Y-86222185D01*
X95186316Y-85813632D01*
X95157241Y-85459855D01*
X95192077Y-85155262D01*
X95292594Y-84894257D01*
X95460562Y-84671247D01*
X95697752Y-84480638D01*
X95857883Y-84387832D01*
X95974369Y-84310912D01*
X96116978Y-84193972D01*
X96255943Y-84061533D01*
X96263278Y-84053879D01*
X96376046Y-83928053D01*
X96462908Y-83807991D01*
X96534222Y-83673048D01*
X96600347Y-83502578D01*
X96671643Y-83275936D01*
X96696694Y-83190073D01*
X96768944Y-83008060D01*
X96883701Y-82799830D01*
X97030691Y-82577385D01*
X97199642Y-82352726D01*
X97380280Y-82137854D01*
X97562332Y-81944771D01*
X97735525Y-81785477D01*
X97889587Y-81671974D01*
X98014244Y-81616263D01*
X98047000Y-81612605D01*
X98156636Y-81622389D01*
G37*
G36*
X126481975Y-81175261D02*
G01*
X126548803Y-81259118D01*
X126584024Y-81311862D01*
X126674842Y-81433200D01*
X126773050Y-81532385D01*
X126802378Y-81554426D01*
X126899198Y-81638404D01*
X126997615Y-81753676D01*
X127015879Y-81779624D01*
X127109077Y-81918487D01*
X127208881Y-82067260D01*
X127227075Y-82094390D01*
X127299077Y-82227611D01*
X127309926Y-82328868D01*
X127304175Y-82350525D01*
X127283280Y-82453051D01*
X127284129Y-82508236D01*
X127321837Y-82629950D01*
X127391536Y-82793045D01*
X127478371Y-82967521D01*
X127567487Y-83123379D01*
X127638916Y-83224763D01*
X127727077Y-83339049D01*
X127749918Y-83407180D01*
X127705911Y-83439744D01*
X127606787Y-83447395D01*
X127441158Y-83415230D01*
X127238196Y-83324023D01*
X127013519Y-83181708D01*
X126876301Y-83076331D01*
X126740130Y-82983811D01*
X126637258Y-82952597D01*
X126576364Y-82983645D01*
X126563362Y-83041849D01*
X126597996Y-83113828D01*
X126629214Y-83133832D01*
X126689314Y-83185866D01*
X126757804Y-83284286D01*
X126775739Y-83317236D01*
X126853423Y-83424830D01*
X126984756Y-83559836D01*
X127151415Y-83703741D01*
X127182498Y-83728189D01*
X127345236Y-83855825D01*
X127501153Y-83980614D01*
X127624954Y-84082226D01*
X127660661Y-84112556D01*
X127751132Y-84194376D01*
X127785585Y-84248314D01*
X127772774Y-84302115D01*
X127738098Y-84358018D01*
X127643170Y-84449286D01*
X127562028Y-84471933D01*
X127471377Y-84450652D01*
X127330624Y-84394169D01*
X127161441Y-84313528D01*
X126985494Y-84219774D01*
X126824455Y-84123949D01*
X126699991Y-84037096D01*
X126685372Y-84025152D01*
X126570358Y-83940848D01*
X126503901Y-83924084D01*
X126482629Y-83974629D01*
X126485687Y-84011397D01*
X126528788Y-84093105D01*
X126630165Y-84206243D01*
X126774752Y-84338532D01*
X126947484Y-84477692D01*
X127133297Y-84611442D01*
X127317125Y-84727501D01*
X127451869Y-84798997D01*
X127623132Y-84887186D01*
X127716185Y-84955592D01*
X127734310Y-85009903D01*
X127680790Y-85055804D01*
X127615122Y-85081850D01*
X127524239Y-85097097D01*
X127431450Y-85069815D01*
X127330554Y-85009813D01*
X127180300Y-84926523D01*
X127074416Y-84898055D01*
X127020864Y-84919434D01*
X127027605Y-84985682D01*
X127102601Y-85091824D01*
X127138651Y-85129754D01*
X127225793Y-85224957D01*
X127280092Y-85299791D01*
X127289076Y-85323478D01*
X127325544Y-85363924D01*
X127406471Y-85396235D01*
X127499253Y-85426838D01*
X127630538Y-85478946D01*
X127779585Y-85543152D01*
X127925651Y-85610049D01*
X128047996Y-85670233D01*
X128125878Y-85714296D01*
X128142857Y-85730183D01*
X128105763Y-85751662D01*
X128011188Y-85754256D01*
X127884192Y-85740905D01*
X127749835Y-85714550D01*
X127633177Y-85678130D01*
X127609244Y-85667572D01*
X127486805Y-85621884D01*
X127384471Y-85605770D01*
X127360062Y-85609044D01*
X127267177Y-85596117D01*
X127198315Y-85543217D01*
X127120062Y-85473025D01*
X127047401Y-85459697D01*
X126942062Y-85497037D01*
X126934424Y-85500500D01*
X126811835Y-85512989D01*
X126665097Y-85463425D01*
X126511056Y-85364647D01*
X126366562Y-85229492D01*
X126248461Y-85070799D01*
X126181285Y-84926609D01*
X126157846Y-84772795D01*
X126175412Y-84611696D01*
X126227009Y-84473253D01*
X126305661Y-84387405D01*
X126307087Y-84386630D01*
X126364872Y-84325319D01*
X126352409Y-84261426D01*
X126280149Y-84220246D01*
X126236506Y-84215799D01*
X126072206Y-84253286D01*
X125869391Y-84365122D01*
X125657943Y-84526399D01*
X125514971Y-84628906D01*
X125407575Y-84668551D01*
X125342479Y-84644301D01*
X125325378Y-84577542D01*
X125312879Y-84509093D01*
X125279323Y-84381307D01*
X125230626Y-84215852D01*
X125199740Y-84117294D01*
X125119116Y-83853787D01*
X125068320Y-83648518D01*
X125046084Y-83480212D01*
X125051142Y-83327592D01*
X125082228Y-83169382D01*
X125133199Y-82999160D01*
X125198732Y-82817840D01*
X125270526Y-82648840D01*
X125334837Y-82524030D01*
X125344880Y-82508236D01*
X125417431Y-82385459D01*
X125469918Y-82271451D01*
X125476368Y-82252101D01*
X125519398Y-82152928D01*
X125591870Y-82025387D01*
X125629032Y-81968411D01*
X125704786Y-81870542D01*
X125815404Y-81743232D01*
X125947161Y-81600497D01*
X126086334Y-81456349D01*
X126219197Y-81324802D01*
X126332027Y-81219869D01*
X126411099Y-81155564D01*
X126438202Y-81142185D01*
X126481975Y-81175261D01*
G37*
G36*
X135440000Y-133560000D02*
G01*
X135530000Y-133630000D01*
X135720000Y-133760000D01*
X136362889Y-134251896D01*
X137002239Y-134845530D01*
X137578887Y-135491654D01*
X138088956Y-136185325D01*
X138528569Y-136921601D01*
X138893850Y-137695540D01*
X139001707Y-137969814D01*
X139069341Y-138161411D01*
X139138736Y-138376064D01*
X139205581Y-138598053D01*
X139265567Y-138811657D01*
X139314383Y-139001154D01*
X139330000Y-139090000D01*
X139330000Y-139120000D01*
X139330000Y-139160000D01*
X139322521Y-139180000D01*
X139290000Y-139150000D01*
X139260000Y-139110000D01*
X139190000Y-139030000D01*
X139160000Y-139000000D01*
X139130000Y-138980000D01*
X139090000Y-138950000D01*
X139010000Y-138890000D01*
X138920000Y-138840000D01*
X138810050Y-138830000D01*
X138720000Y-138830000D01*
X138620000Y-138810000D01*
X138540000Y-138780000D01*
X138460000Y-138740000D01*
X138350000Y-138620388D01*
X138300000Y-138560000D01*
X138270000Y-138470000D01*
X138260000Y-138382556D01*
X138240000Y-138220000D01*
X138230000Y-138060000D01*
X138220000Y-137970000D01*
X138190000Y-137680000D01*
X138130000Y-137420000D01*
X138080000Y-137250000D01*
X138010000Y-137130000D01*
X137960000Y-137120000D01*
X137930000Y-137170000D01*
X137880000Y-137270000D01*
X137830000Y-137400000D01*
X137820000Y-137428483D01*
X137770000Y-137540000D01*
X137740000Y-137650000D01*
X137720000Y-137710000D01*
X137700000Y-137782206D01*
X137680000Y-137880000D01*
X137670000Y-137980000D01*
X137670000Y-138090000D01*
X137630000Y-138180000D01*
X137570000Y-138240000D01*
X137514003Y-138280000D01*
X137440000Y-138350000D01*
X137350000Y-138420000D01*
X137170000Y-138540000D01*
X136970000Y-138670000D01*
X136700000Y-138800000D01*
X136410000Y-138910000D01*
X136360000Y-138930000D01*
X136230000Y-138970000D01*
X136010000Y-139020000D01*
X135770000Y-139050000D01*
X135540000Y-139070000D01*
X135300000Y-139090000D01*
X135170000Y-139100000D01*
X134990000Y-139080000D01*
X134760000Y-139030000D01*
X134610000Y-139000000D01*
X134470000Y-138930000D01*
X134380000Y-138880000D01*
X134350000Y-138830000D01*
X134360000Y-138770000D01*
X134440000Y-138680000D01*
X134540000Y-138580000D01*
X134590000Y-138530000D01*
X134710000Y-138410000D01*
X134800000Y-138300000D01*
X134830000Y-138220000D01*
X134830000Y-138160000D01*
X134780000Y-138130000D01*
X134660000Y-138150000D01*
X134519103Y-138210000D01*
X134350000Y-138270000D01*
X134090000Y-138380000D01*
X133810000Y-138470000D01*
X133550000Y-138530000D01*
X133360000Y-138550000D01*
X133320000Y-138550000D01*
X133180000Y-138540000D01*
X132990000Y-138510000D01*
X132800000Y-138480000D01*
X132590000Y-138410000D01*
X132450000Y-138360000D01*
X132360000Y-138320000D01*
X132240000Y-138230000D01*
X132140000Y-138140000D01*
X132110000Y-138010000D01*
X132110000Y-137970000D01*
X132110000Y-137880000D01*
X132150000Y-137840000D01*
X132210000Y-137840000D01*
X132320000Y-137880000D01*
X132350000Y-137890000D01*
X132490000Y-137930000D01*
X132710000Y-137970000D01*
X132870000Y-137990000D01*
X133100000Y-138000000D01*
X133276819Y-137970000D01*
X133420000Y-137910000D01*
X133570000Y-137800000D01*
X133700000Y-137690000D01*
X133780000Y-137630000D01*
X133820000Y-137550000D01*
X133850000Y-137480000D01*
X133870000Y-137348816D01*
X133890000Y-137170000D01*
X133920000Y-137040000D01*
X133940000Y-136820000D01*
X133960000Y-136620000D01*
X133980000Y-136480000D01*
X133980000Y-136390000D01*
X133990000Y-136268213D01*
X134000000Y-136101187D01*
X134000000Y-135910000D01*
X134000000Y-135830000D01*
X133990000Y-135480000D01*
X133820000Y-135280000D01*
X133620000Y-135100000D01*
X133440000Y-134990000D01*
X133290000Y-134900000D01*
X133200000Y-134880000D01*
X133100000Y-134850000D01*
X133080000Y-134810000D01*
X133130000Y-134790000D01*
X133200000Y-134780000D01*
X133270000Y-134780000D01*
X133380000Y-134790000D01*
X133470000Y-134810000D01*
X133630000Y-134830000D01*
X133820000Y-134830000D01*
X133990000Y-134770000D01*
X134090000Y-134710000D01*
X134160000Y-134680000D01*
X134200000Y-134660000D01*
X134290000Y-134630000D01*
X134410000Y-134590000D01*
X134480000Y-134560000D01*
X134650000Y-134500000D01*
X134800000Y-134440000D01*
X134910000Y-134400000D01*
X135120000Y-134310000D01*
X135350000Y-134160000D01*
X135420000Y-133960000D01*
X135400000Y-133760000D01*
X135370000Y-133650000D01*
X135350000Y-133580000D01*
X135340000Y-133550000D01*
X135360000Y-133540000D01*
X135390000Y-133540000D01*
X135440000Y-133560000D01*
G37*
G36*
X117227004Y-102022770D02*
G01*
X117262631Y-102046362D01*
X117288254Y-102106472D01*
X117310973Y-102219392D01*
X117336505Y-102391630D01*
X117364161Y-102566550D01*
X117392494Y-102712078D01*
X117416801Y-102805127D01*
X117424285Y-102822387D01*
X117452862Y-102841943D01*
X117514431Y-102848082D01*
X117620769Y-102839714D01*
X117783653Y-102815751D01*
X118014861Y-102775102D01*
X118094489Y-102760388D01*
X118380209Y-102706329D01*
X118593131Y-102667914D01*
X118744984Y-102648741D01*
X118847495Y-102652406D01*
X118912390Y-102682508D01*
X118951397Y-102742644D01*
X118976243Y-102836411D01*
X118998655Y-102967407D01*
X119011470Y-103041681D01*
X119042065Y-103215531D01*
X119064936Y-103353526D01*
X119077100Y-103437200D01*
X119078005Y-103453663D01*
X119035818Y-103461956D01*
X118926012Y-103479700D01*
X118765483Y-103504248D01*
X118580505Y-103531589D01*
X118353583Y-103565793D01*
X118128362Y-103601720D01*
X117935284Y-103634415D01*
X117833020Y-103653221D01*
X117576459Y-103703362D01*
X117635424Y-104038474D01*
X117694388Y-104373586D01*
X117922721Y-104345058D01*
X118050946Y-104325699D01*
X118239037Y-104293070D01*
X118463304Y-104251459D01*
X118700059Y-104205155D01*
X118739308Y-104197234D01*
X118951842Y-104155263D01*
X119132514Y-104121729D01*
X119265873Y-104099334D01*
X119336468Y-104090781D01*
X119343467Y-104091540D01*
X119357965Y-104135734D01*
X119384038Y-104241155D01*
X119416820Y-104385246D01*
X119451449Y-104545452D01*
X119483060Y-104699219D01*
X119506789Y-104823990D01*
X119517772Y-104897210D01*
X119517982Y-104900803D01*
X119478048Y-104921441D01*
X119364374Y-104950745D01*
X119187900Y-104986492D01*
X118959565Y-105026463D01*
X118697899Y-105067314D01*
X118444085Y-105105147D01*
X118221136Y-105138864D01*
X118042067Y-105166454D01*
X117919897Y-105185910D01*
X117867643Y-105195223D01*
X117866693Y-105195560D01*
X117872061Y-105236589D01*
X117891638Y-105344842D01*
X117922157Y-105503974D01*
X117960350Y-105697638D01*
X118002948Y-105909490D01*
X118046683Y-106123184D01*
X118088286Y-106322373D01*
X118124489Y-106490712D01*
X118136246Y-106543616D01*
X118144110Y-106592283D01*
X118132196Y-106626671D01*
X118086320Y-106652988D01*
X117992299Y-106677440D01*
X117835950Y-106706231D01*
X117719539Y-106725949D01*
X117534349Y-106756558D01*
X117381338Y-106780840D01*
X117279520Y-106795838D01*
X117248405Y-106799224D01*
X117222181Y-106761350D01*
X117198604Y-106670287D01*
X117196859Y-106659580D01*
X117160507Y-106428259D01*
X117121643Y-106187090D01*
X117082796Y-105951069D01*
X117046497Y-105735196D01*
X117015275Y-105554468D01*
X116991662Y-105423882D01*
X116978186Y-105358437D01*
X116976578Y-105353833D01*
X116933109Y-105356795D01*
X116818339Y-105373352D01*
X116644896Y-105401441D01*
X116425409Y-105439000D01*
X116172507Y-105483964D01*
X116104538Y-105496303D01*
X115845086Y-105542824D01*
X115615766Y-105582460D01*
X115429229Y-105613148D01*
X115298124Y-105632823D01*
X115235098Y-105639422D01*
X115231449Y-105638773D01*
X115216131Y-105591922D01*
X115189788Y-105484972D01*
X115157052Y-105339864D01*
X115122555Y-105178538D01*
X115090928Y-105022934D01*
X115066803Y-104894992D01*
X115054811Y-104816653D01*
X115054961Y-104802742D01*
X115098867Y-104793233D01*
X115214561Y-104773588D01*
X115389320Y-104745818D01*
X115610423Y-104711933D01*
X115865147Y-104673943D01*
X115933782Y-104663866D01*
X116194965Y-104625192D01*
X116425704Y-104590170D01*
X116613295Y-104560802D01*
X116745030Y-104539085D01*
X116808203Y-104527019D01*
X116811813Y-104525727D01*
X116809790Y-104481617D01*
X116794591Y-104374066D01*
X116769215Y-104223465D01*
X116759247Y-104168485D01*
X116695461Y-103822516D01*
X116111848Y-103924279D01*
X115884877Y-103964905D01*
X115675918Y-104004213D01*
X115505631Y-104038189D01*
X115394674Y-104062814D01*
X115381224Y-104066318D01*
X115279387Y-104088298D01*
X115219403Y-104090176D01*
X115215720Y-104088102D01*
X115199885Y-104040955D01*
X115172190Y-103928961D01*
X115137134Y-103771071D01*
X115113313Y-103656660D01*
X115073793Y-103449610D01*
X115058799Y-103311682D01*
X115073531Y-103228837D01*
X115123192Y-103187036D01*
X115212982Y-103172237D01*
X115293446Y-103170455D01*
X115405884Y-103164318D01*
X115567570Y-103148374D01*
X115759394Y-103125338D01*
X115962247Y-103097929D01*
X116157020Y-103068862D01*
X116324603Y-103040855D01*
X116445887Y-103016623D01*
X116501761Y-102998884D01*
X116502060Y-102998633D01*
X116507916Y-102946422D01*
X116495077Y-102831407D01*
X116466242Y-102673437D01*
X116444465Y-102575110D01*
X116407129Y-102402475D01*
X116382849Y-102262535D01*
X116374721Y-102174894D01*
X116378304Y-102156038D01*
X116430816Y-102137190D01*
X116544529Y-102111501D01*
X116695960Y-102083002D01*
X116861626Y-102055724D01*
X117018046Y-102033699D01*
X117141737Y-102020956D01*
X117174272Y-102019405D01*
X117227004Y-102022770D01*
G37*
G36*
X134411890Y-81549509D02*
G01*
X134438364Y-81568136D01*
X134486970Y-81623228D01*
X134573498Y-81735843D01*
X134688175Y-81892693D01*
X134821225Y-82080487D01*
X134918752Y-82221332D01*
X135059244Y-82421945D01*
X135189105Y-82599657D01*
X135298388Y-82741439D01*
X135377148Y-82834262D01*
X135408616Y-82863026D01*
X135460043Y-82919619D01*
X135537741Y-83036284D01*
X135631203Y-83196043D01*
X135729922Y-83381917D01*
X135730653Y-83383362D01*
X135831851Y-83587053D01*
X135899137Y-83736202D01*
X135939008Y-83851477D01*
X135957962Y-83953547D01*
X135962496Y-84063080D01*
X135961620Y-84118032D01*
X135938526Y-84329395D01*
X135885320Y-84555261D01*
X135811753Y-84762319D01*
X135727732Y-84917044D01*
X135692605Y-84953505D01*
X135655563Y-84948726D01*
X135601210Y-84892701D01*
X135517926Y-84780677D01*
X135404909Y-84640296D01*
X135280213Y-84510169D01*
X135209540Y-84448946D01*
X135089352Y-84373755D01*
X135018724Y-84367562D01*
X134999110Y-84428830D01*
X135031965Y-84556023D01*
X135054729Y-84612576D01*
X135112621Y-84765944D01*
X135157883Y-84917560D01*
X135168366Y-84964665D01*
X135179031Y-85056389D01*
X135161680Y-85129416D01*
X135104181Y-85210432D01*
X135012325Y-85307909D01*
X134903144Y-85413140D01*
X134817892Y-85469636D01*
X134723702Y-85492406D01*
X134599424Y-85496471D01*
X134447940Y-85505031D01*
X134346944Y-85537809D01*
X134266799Y-85601253D01*
X134195803Y-85685334D01*
X134162391Y-85750664D01*
X134162017Y-85755194D01*
X134137242Y-85815356D01*
X134074330Y-85912467D01*
X134033024Y-85967220D01*
X133856212Y-86130901D01*
X133628313Y-86254805D01*
X133390806Y-86320336D01*
X133285120Y-86327150D01*
X133226198Y-86293912D01*
X133180661Y-86207553D01*
X133135677Y-86104894D01*
X133104521Y-86037282D01*
X133103123Y-86034509D01*
X133128822Y-86017046D01*
X133219017Y-86016257D01*
X133291923Y-86023707D01*
X133445568Y-86033018D01*
X133561504Y-86007021D01*
X133639076Y-85966548D01*
X133728766Y-85902576D01*
X133775777Y-85850961D01*
X133777815Y-85843083D01*
X133739032Y-85823043D01*
X133638148Y-85809925D01*
X133519439Y-85806673D01*
X133345925Y-85799248D01*
X133236194Y-85770187D01*
X133188599Y-85736623D01*
X133149222Y-85678718D01*
X133167904Y-85630797D01*
X133253382Y-85585014D01*
X133414392Y-85533526D01*
X133414958Y-85533366D01*
X133548823Y-85486369D01*
X133713012Y-85415580D01*
X133886771Y-85331648D01*
X134049346Y-85245222D01*
X134179985Y-85166950D01*
X134257934Y-85107480D01*
X134267230Y-85096066D01*
X134291176Y-85024348D01*
X134248744Y-84998264D01*
X134146826Y-85019624D01*
X134079791Y-85046814D01*
X133931664Y-85095376D01*
X133771324Y-85102831D01*
X133684114Y-85094399D01*
X133495912Y-85060185D01*
X133386536Y-85016468D01*
X133357552Y-84966519D01*
X133410529Y-84913605D01*
X133547035Y-84860998D01*
X133569217Y-84854830D01*
X133952385Y-84716761D01*
X134304971Y-84521796D01*
X134603161Y-84283324D01*
X134626276Y-84260427D01*
X134780331Y-84092205D01*
X134868963Y-83968721D01*
X134894381Y-83893980D01*
X134858793Y-83871987D01*
X134764409Y-83906747D01*
X134613436Y-84002264D01*
X134521664Y-84070755D01*
X134377981Y-84177918D01*
X134242241Y-84271686D01*
X134143316Y-84332132D01*
X134141672Y-84332988D01*
X134029123Y-84369828D01*
X133880981Y-84391724D01*
X133726721Y-84397599D01*
X133595821Y-84386374D01*
X133517757Y-84356974D01*
X133516573Y-84355834D01*
X133517935Y-84299348D01*
X133587054Y-84200081D01*
X133720399Y-84062229D01*
X133894393Y-83906947D01*
X133975052Y-83821728D01*
X134010881Y-83749344D01*
X134009484Y-83732133D01*
X134027427Y-83675493D01*
X134097055Y-83576376D01*
X134207174Y-83450059D01*
X134245231Y-83410371D01*
X134371387Y-83266773D01*
X134497410Y-83098599D01*
X134610980Y-82925377D01*
X134699781Y-82766634D01*
X134751494Y-82641898D01*
X134759664Y-82594831D01*
X134736242Y-82548915D01*
X134677499Y-82561235D01*
X134600718Y-82622782D01*
X134529056Y-82715057D01*
X134453819Y-82808667D01*
X134342228Y-82919029D01*
X134214825Y-83029078D01*
X134092148Y-83121743D01*
X133994738Y-83179956D01*
X133955987Y-83191261D01*
X133904950Y-83214287D01*
X133808183Y-83274042D01*
X133710760Y-83340673D01*
X133564459Y-83437878D01*
X133468737Y-83481155D01*
X133410413Y-83473353D01*
X133376306Y-83417324D01*
X133374994Y-83413292D01*
X133379266Y-83343874D01*
X133408433Y-83218736D01*
X133454813Y-83061081D01*
X133510727Y-82894109D01*
X133568492Y-82741021D01*
X133620428Y-82625018D01*
X133652720Y-82574404D01*
X133682873Y-82503989D01*
X133692437Y-82420936D01*
X133723554Y-82305766D01*
X133777815Y-82230757D01*
X133841738Y-82156757D01*
X133863194Y-82105831D01*
X133890226Y-82054493D01*
X133962387Y-81958354D01*
X134066273Y-81834771D01*
X134113270Y-81782025D01*
X134235311Y-81650138D01*
X134316205Y-81573712D01*
X134370285Y-81543312D01*
X134411890Y-81549509D01*
G37*
G36*
X134721057Y-101998322D02*
G01*
X134757409Y-102043085D01*
X134822398Y-102141236D01*
X134903235Y-102271507D01*
X134987128Y-102412632D01*
X135061288Y-102543346D01*
X135112923Y-102642380D01*
X135125046Y-102670011D01*
X135106592Y-102730959D01*
X135016935Y-102785076D01*
X134920844Y-102845436D01*
X134905606Y-102908572D01*
X134923487Y-102985863D01*
X134948447Y-103111671D01*
X134975238Y-103257000D01*
X134998609Y-103392855D01*
X135013310Y-103490243D01*
X135015799Y-103517167D01*
X135014234Y-103529260D01*
X135002408Y-103539934D01*
X134969620Y-103551255D01*
X134905172Y-103565291D01*
X134798364Y-103584111D01*
X134638496Y-103609782D01*
X134414869Y-103644373D01*
X134140673Y-103686302D01*
X133925586Y-103719805D01*
X133742937Y-103749496D01*
X133608203Y-103772761D01*
X133536859Y-103786990D01*
X133529671Y-103789400D01*
X133530143Y-103833322D01*
X133542947Y-103935650D01*
X133563931Y-104071018D01*
X133588944Y-104214059D01*
X133613836Y-104339408D01*
X133631651Y-104412595D01*
X133646802Y-104438824D01*
X133682238Y-104452676D01*
X133751182Y-104453420D01*
X133866856Y-104440325D01*
X134042484Y-104412660D01*
X134237756Y-104379071D01*
X134474669Y-104336219D01*
X134702775Y-104292414D01*
X134898087Y-104252423D01*
X135036617Y-104221016D01*
X135050447Y-104217488D01*
X135153772Y-104189781D01*
X135224256Y-104178985D01*
X135271665Y-104197308D01*
X135305768Y-104256961D01*
X135336333Y-104370153D01*
X135373127Y-104549095D01*
X135392410Y-104644935D01*
X135470942Y-105031551D01*
X134699085Y-105152459D01*
X134449428Y-105192226D01*
X134227020Y-105228897D01*
X134046408Y-105259973D01*
X133922142Y-105282956D01*
X133869930Y-105294862D01*
X133835718Y-105335290D01*
X133831039Y-105430606D01*
X133840280Y-105513053D01*
X133860531Y-105628288D01*
X133895744Y-105801923D01*
X133940442Y-106009462D01*
X133989148Y-106226408D01*
X134036387Y-106428264D01*
X134076681Y-106590535D01*
X134099885Y-106674256D01*
X134096066Y-106707975D01*
X134052616Y-106736530D01*
X133956486Y-106764393D01*
X133794623Y-106796040D01*
X133695126Y-106812995D01*
X133509741Y-106842913D01*
X133353269Y-106866556D01*
X133246618Y-106880851D01*
X133214114Y-106883675D01*
X133185639Y-106849418D01*
X133151719Y-106743983D01*
X133111377Y-106563341D01*
X133063636Y-106303463D01*
X133041575Y-106172336D01*
X133002271Y-105937102D01*
X132967221Y-105733348D01*
X132938918Y-105575096D01*
X132919856Y-105476371D01*
X132913064Y-105449759D01*
X132869155Y-105452760D01*
X132756816Y-105469022D01*
X132591480Y-105495779D01*
X132388577Y-105530265D01*
X132163539Y-105569714D01*
X131931797Y-105611361D01*
X131708783Y-105652439D01*
X131509927Y-105690183D01*
X131350661Y-105721828D01*
X131246417Y-105744607D01*
X131213272Y-105754415D01*
X131177204Y-105737351D01*
X131153719Y-105679477D01*
X131094234Y-105419832D01*
X131052083Y-105230767D01*
X131024688Y-105099842D01*
X131009471Y-105014612D01*
X131003855Y-104962635D01*
X131003657Y-104955089D01*
X131023784Y-104910090D01*
X131095887Y-104878834D01*
X131236120Y-104854586D01*
X131248488Y-104853029D01*
X131440155Y-104827693D01*
X131661187Y-104795965D01*
X131895963Y-104760388D01*
X132128861Y-104723506D01*
X132344257Y-104687863D01*
X132526530Y-104656002D01*
X132660058Y-104630467D01*
X132729218Y-104613802D01*
X132734998Y-104610997D01*
X132739666Y-104560067D01*
X132729222Y-104452182D01*
X132708226Y-104313470D01*
X132681238Y-104170058D01*
X132652819Y-104048071D01*
X132627529Y-103973637D01*
X132622357Y-103965666D01*
X132568780Y-103957537D01*
X132447258Y-103964776D01*
X132273387Y-103985134D01*
X132062764Y-104016365D01*
X131830986Y-104056220D01*
X131593649Y-104102451D01*
X131435570Y-104136718D01*
X131294344Y-104165829D01*
X131190040Y-104181743D01*
X131146559Y-104181293D01*
X131131242Y-104134132D01*
X131105829Y-104024148D01*
X131075120Y-103872587D01*
X131066491Y-103827011D01*
X131033899Y-103655072D01*
X131004783Y-103506358D01*
X130984593Y-103408599D01*
X130982205Y-103398031D01*
X130977773Y-103347131D01*
X131005869Y-103315915D01*
X131084129Y-103295778D01*
X131227375Y-103278408D01*
X131384188Y-103260322D01*
X131593690Y-103233752D01*
X131824127Y-103202809D01*
X131974202Y-103181710D01*
X132193220Y-103150162D01*
X132338873Y-103119612D01*
X132421562Y-103074554D01*
X132451690Y-102999483D01*
X132439661Y-102878894D01*
X132395875Y-102697281D01*
X132369018Y-102593218D01*
X132330774Y-102436992D01*
X132304542Y-102316632D01*
X132294648Y-102252480D01*
X132295470Y-102247276D01*
X132341783Y-102234298D01*
X132450212Y-102213711D01*
X132599269Y-102188758D01*
X132767467Y-102162677D01*
X132933318Y-102138712D01*
X133075336Y-102120102D01*
X133172032Y-102110088D01*
X133202363Y-102110486D01*
X133215201Y-102156421D01*
X133237329Y-102267429D01*
X133265050Y-102424195D01*
X133281521Y-102524042D01*
X133311785Y-102699328D01*
X133340077Y-102840920D01*
X133362217Y-102928881D01*
X133370204Y-102947123D01*
X133417510Y-102948304D01*
X133529356Y-102936760D01*
X133686386Y-102915614D01*
X133869244Y-102887989D01*
X134058576Y-102857009D01*
X134235026Y-102825796D01*
X134379239Y-102797474D01*
X134471860Y-102775167D01*
X134495002Y-102765615D01*
X134484506Y-102722480D01*
X134440076Y-102624967D01*
X134370724Y-102492490D01*
X134355134Y-102464362D01*
X134281638Y-102328520D01*
X134230465Y-102225314D01*
X134210824Y-102173553D01*
X134211487Y-102171030D01*
X134282756Y-102134291D01*
X134395973Y-102089103D01*
X134523428Y-102044859D01*
X134637413Y-102010948D01*
X134710218Y-101996763D01*
X134721057Y-101998322D01*
G37*
G36*
X83067306Y-131589436D02*
G01*
X83094712Y-131636912D01*
X83092303Y-131713563D01*
X83058656Y-131842268D01*
X83049823Y-131870667D01*
X82987130Y-132155954D01*
X82994263Y-132393606D01*
X83061315Y-132569530D01*
X83208826Y-132739606D01*
X83393901Y-132841797D01*
X83600065Y-132870382D01*
X83797918Y-132825216D01*
X83898148Y-132786722D01*
X83946891Y-132788502D01*
X83971156Y-132837260D01*
X83979791Y-132870345D01*
X83987321Y-132960416D01*
X83968530Y-133005363D01*
X83896915Y-133091753D01*
X83851575Y-133216215D01*
X83849187Y-133329818D01*
X83893927Y-133411086D01*
X83983697Y-133518119D01*
X84067675Y-133599275D01*
X84261314Y-133769723D01*
X84187308Y-134083265D01*
X84150904Y-134281073D01*
X84122120Y-134518266D01*
X84106321Y-134748879D01*
X84105280Y-134785717D01*
X84093243Y-134996378D01*
X84068458Y-135208428D01*
X84035712Y-135383400D01*
X84026663Y-135417461D01*
X83975604Y-135566415D01*
X83913573Y-135665213D01*
X83815612Y-135747926D01*
X83755654Y-135787395D01*
X83608230Y-135866272D01*
X83457521Y-135924646D01*
X83391261Y-135940715D01*
X83258361Y-135982470D01*
X83192384Y-136058736D01*
X83192019Y-136059687D01*
X83119771Y-136142063D01*
X82987627Y-136203110D01*
X82822480Y-136242197D01*
X82689560Y-136240366D01*
X82544834Y-136195085D01*
X82497781Y-136174976D01*
X82397227Y-136115994D01*
X82341587Y-136055059D01*
X82337697Y-136039163D01*
X82314165Y-135953879D01*
X82278556Y-135889751D01*
X82237339Y-135796786D01*
X82202659Y-135661412D01*
X82193177Y-135602774D01*
X82170212Y-135427789D01*
X82146279Y-135246929D01*
X82141080Y-135207900D01*
X82132018Y-135078644D01*
X82150615Y-135020981D01*
X82166897Y-135015799D01*
X82231301Y-134997714D01*
X82342720Y-134951139D01*
X82433713Y-134907632D01*
X82649069Y-134799464D01*
X82741488Y-134886287D01*
X82873721Y-134957432D01*
X82988720Y-134973110D01*
X83097819Y-134983863D01*
X83165222Y-135010293D01*
X83169916Y-135015799D01*
X83237392Y-135053138D01*
X83346080Y-135050349D01*
X83452958Y-135012822D01*
X83510213Y-134966741D01*
X83493631Y-134913660D01*
X83486814Y-134905135D01*
X83405724Y-134863961D01*
X83355990Y-134868300D01*
X83288694Y-134875006D01*
X83289079Y-134832656D01*
X83356907Y-134743923D01*
X83368283Y-134731650D01*
X83427434Y-134654366D01*
X83425730Y-134597546D01*
X83405745Y-134568815D01*
X83327582Y-134510510D01*
X83262424Y-134518373D01*
X83233989Y-134589099D01*
X83233950Y-134592738D01*
X83197827Y-134691152D01*
X83110162Y-134782453D01*
X83002016Y-134837922D01*
X82962615Y-134843622D01*
X82881800Y-134813149D01*
X82799432Y-134738320D01*
X82702273Y-134656593D01*
X82567742Y-134631065D01*
X82558499Y-134630968D01*
X82420241Y-134615315D01*
X82299783Y-134578248D01*
X82294790Y-134575777D01*
X82223257Y-134523807D01*
X82199058Y-134447409D01*
X82202085Y-134362904D01*
X82191313Y-134237348D01*
X82140554Y-134172104D01*
X82062666Y-134176651D01*
X82006422Y-134218645D01*
X81961192Y-134273353D01*
X81981469Y-134302502D01*
X82009732Y-134314428D01*
X82066822Y-134374366D01*
X82081345Y-134437447D01*
X82121246Y-134556331D01*
X82230904Y-134650993D01*
X82351522Y-134697778D01*
X82472287Y-134727923D01*
X82354463Y-134805214D01*
X82209980Y-134861160D01*
X82121946Y-134859566D01*
X82037773Y-134855635D01*
X81988558Y-134902134D01*
X81961141Y-134968902D01*
X81937446Y-135126626D01*
X81961834Y-135235439D01*
X81986684Y-135379468D01*
X81957359Y-135511512D01*
X81927913Y-135637372D01*
X81950011Y-135735059D01*
X81954653Y-135744083D01*
X81985048Y-135846982D01*
X81977277Y-135944171D01*
X81938767Y-136009610D01*
X81876940Y-136017258D01*
X81876784Y-136017192D01*
X81790363Y-135987880D01*
X81663704Y-135952459D01*
X81622254Y-135942043D01*
X81493005Y-135896095D01*
X81401848Y-135817724D01*
X81335559Y-135718489D01*
X81222106Y-135573276D01*
X81088276Y-135471860D01*
X81079607Y-135467586D01*
X80986763Y-135421276D01*
X80943087Y-135378813D01*
X80940436Y-135313862D01*
X80970667Y-135200086D01*
X80983574Y-135157032D01*
X81070761Y-134993436D01*
X81217097Y-134845415D01*
X81396682Y-134736026D01*
X81494701Y-134702041D01*
X81589467Y-134652654D01*
X81605038Y-134579743D01*
X81545982Y-134502078D01*
X81494875Y-134477326D01*
X81435577Y-134499766D01*
X81345169Y-134578367D01*
X81341177Y-134582229D01*
X81220144Y-134676371D01*
X81116094Y-134715921D01*
X81043512Y-134699152D01*
X81016881Y-134624334D01*
X81016951Y-134620925D01*
X81036681Y-134535529D01*
X81085774Y-134402931D01*
X81153723Y-134251423D01*
X81155691Y-134247395D01*
X81236994Y-134093387D01*
X81311974Y-133992349D01*
X81405442Y-133917755D01*
X81526387Y-133851047D01*
X81670177Y-133784593D01*
X81767123Y-133759189D01*
X81841923Y-133769289D01*
X81859236Y-133776341D01*
X81995980Y-133814748D01*
X82127639Y-133814356D01*
X82238592Y-133782909D01*
X82313221Y-133728150D01*
X82335909Y-133657821D01*
X82291036Y-133579668D01*
X82278431Y-133568508D01*
X82223607Y-133545293D01*
X82192276Y-133590142D01*
X82154743Y-133634655D01*
X82074706Y-133645479D01*
X81990021Y-133637289D01*
X81850047Y-133610184D01*
X81778629Y-133563248D01*
X81758949Y-133475683D01*
X81768956Y-133363870D01*
X81795147Y-133243265D01*
X81839459Y-133185754D01*
X81883888Y-133171769D01*
X81942716Y-133149792D01*
X81966566Y-133090121D01*
X81967697Y-132988068D01*
X81970517Y-132904312D01*
X81992296Y-132823217D01*
X82041950Y-132727377D01*
X82128397Y-132599384D01*
X82252000Y-132433110D01*
X82400123Y-132242936D01*
X82559996Y-132046097D01*
X82707548Y-131871897D01*
X82778005Y-131792774D01*
X82900330Y-131664640D01*
X82981959Y-131594737D01*
X83035237Y-131574389D01*
X83067306Y-131589436D01*
G37*
G36*
X80817787Y-138184979D02*
G01*
X80888857Y-138218981D01*
X80955894Y-138296890D01*
X80971429Y-138370334D01*
X80999302Y-138465070D01*
X81067010Y-138569261D01*
X81150685Y-138653168D01*
X81225623Y-138687059D01*
X81258928Y-138723644D01*
X81270252Y-138795902D01*
X81290197Y-138912357D01*
X81336031Y-139031945D01*
X81373707Y-139130608D01*
X81376718Y-139199202D01*
X81375045Y-139202452D01*
X81376392Y-139266994D01*
X81401031Y-139309318D01*
X81452881Y-139344846D01*
X81542577Y-139356212D01*
X81691944Y-139345903D01*
X81707118Y-139344217D01*
X81960454Y-139315555D01*
X81947654Y-139523709D01*
X81944263Y-139651335D01*
X81964423Y-139726176D01*
X82023241Y-139780406D01*
X82085733Y-139817781D01*
X82207937Y-139900662D01*
X82344415Y-140012040D01*
X82401833Y-140065254D01*
X82502369Y-140151873D01*
X82584420Y-140202059D01*
X82617449Y-140207473D01*
X82684733Y-140214996D01*
X82783525Y-140258794D01*
X82798378Y-140267516D01*
X82937421Y-140332854D01*
X83079909Y-140375226D01*
X83192122Y-140407101D01*
X83266669Y-140447547D01*
X83271328Y-140452449D01*
X83290167Y-140514278D01*
X83306152Y-140635810D01*
X83318316Y-140793485D01*
X83325687Y-140963743D01*
X83327298Y-141123021D01*
X83322179Y-141247761D01*
X83309360Y-141314402D01*
X83306924Y-141317727D01*
X83301735Y-141371807D01*
X83314467Y-141393888D01*
X83342707Y-141456574D01*
X83381633Y-141576923D01*
X83423000Y-141729344D01*
X83424478Y-141735300D01*
X83486884Y-141937550D01*
X83566873Y-142125876D01*
X83653383Y-142278131D01*
X83735354Y-142372168D01*
X83746359Y-142379751D01*
X83813813Y-142380239D01*
X83854104Y-142357355D01*
X83903864Y-142335090D01*
X83941918Y-142379629D01*
X83958957Y-142420493D01*
X83985379Y-142533302D01*
X84000759Y-142682772D01*
X84002353Y-142742781D01*
X84009656Y-142868634D01*
X84028236Y-142955134D01*
X84041043Y-142974840D01*
X84068859Y-143027856D01*
X84096539Y-143136223D01*
X84108613Y-143208733D01*
X84146452Y-143365171D01*
X84205206Y-143477544D01*
X84220713Y-143494028D01*
X84299583Y-143581787D01*
X84382691Y-143697079D01*
X84392055Y-143711924D01*
X84487923Y-143827314D01*
X84603729Y-143917851D01*
X84614794Y-143923863D01*
X84723775Y-143994134D01*
X84802905Y-144069090D01*
X84805194Y-144072240D01*
X84895660Y-144135067D01*
X84991879Y-144151261D01*
X85098151Y-144171783D01*
X85242628Y-144225137D01*
X85370076Y-144287212D01*
X85504410Y-144358996D01*
X85592948Y-144393939D01*
X85664559Y-144396609D01*
X85748111Y-144371573D01*
X85793062Y-144354148D01*
X85988688Y-144307166D01*
X86122177Y-144310032D01*
X86238439Y-144316704D01*
X86302062Y-144283586D01*
X86315047Y-144264439D01*
X86394977Y-144208979D01*
X86523130Y-144193950D01*
X86691765Y-144193950D01*
X86691765Y-144468910D01*
X86697932Y-144614634D01*
X86714026Y-144723882D01*
X86734454Y-144770253D01*
X86763646Y-144752383D01*
X86776881Y-144665880D01*
X86777143Y-144647484D01*
X86801343Y-144446949D01*
X86875559Y-144312568D01*
X86982967Y-144245693D01*
X87072001Y-144221936D01*
X87113190Y-144248235D01*
X87135427Y-144331168D01*
X87157595Y-144488816D01*
X87148686Y-144625503D01*
X87103538Y-144776656D01*
X87052814Y-144898314D01*
X86999919Y-145029149D01*
X86969662Y-145126845D01*
X86967826Y-145167266D01*
X86960648Y-145212325D01*
X86914339Y-145279354D01*
X86796843Y-145476972D01*
X86755278Y-145706815D01*
X86778826Y-145908529D01*
X86806912Y-146107309D01*
X86807126Y-146317098D01*
X86803761Y-146351716D01*
X86797795Y-146513342D01*
X86819826Y-146600220D01*
X86859404Y-146613834D01*
X86906081Y-146555669D01*
X86949409Y-146427210D01*
X86967841Y-146328404D01*
X86963244Y-146073310D01*
X86931489Y-145956146D01*
X86896678Y-145774166D01*
X86914092Y-145597358D01*
X86977706Y-145450310D01*
X87077734Y-145359421D01*
X87157416Y-145290593D01*
X87239973Y-145175173D01*
X87273746Y-145111133D01*
X87364803Y-144914771D01*
X87452359Y-145055957D01*
X87584325Y-145228351D01*
X87751284Y-145388296D01*
X87932948Y-145520987D01*
X88109030Y-145611616D01*
X88259243Y-145645378D01*
X88259956Y-145645379D01*
X88335919Y-145657425D01*
X88358053Y-145677395D01*
X88340317Y-145727071D01*
X88291561Y-145833821D01*
X88220444Y-145979121D01*
X88176624Y-146065472D01*
X88060252Y-146271801D01*
X87930735Y-146453969D01*
X87766555Y-146640116D01*
X87637940Y-146769842D01*
X87282098Y-147118152D01*
X87308289Y-147384958D01*
X87317006Y-147521875D01*
X87313969Y-147616525D01*
X87301273Y-147647280D01*
X87249998Y-147631373D01*
X87136499Y-147591703D01*
X86978464Y-147534558D01*
X86824159Y-147477624D01*
X85978150Y-147117855D01*
X85169734Y-146683788D01*
X84404145Y-146179888D01*
X83686617Y-145610625D01*
X83022384Y-144980465D01*
X82416680Y-144293876D01*
X81874739Y-143555326D01*
X81485105Y-142920307D01*
X81393756Y-142751192D01*
X81293822Y-142554953D01*
X81192883Y-142347891D01*
X81098516Y-142146304D01*
X81018302Y-141966494D01*
X80959820Y-141824760D01*
X80930647Y-141737402D01*
X80928740Y-141723755D01*
X80963494Y-141686308D01*
X81049806Y-141633969D01*
X81078152Y-141619858D01*
X81174159Y-141560885D01*
X81225088Y-141503888D01*
X81227563Y-141492548D01*
X81258909Y-141430602D01*
X81342425Y-141333005D01*
X81462327Y-141215797D01*
X81602832Y-141095018D01*
X81670883Y-141042040D01*
X81737273Y-140999742D01*
X81814244Y-140972343D01*
X81921628Y-140956576D01*
X82079259Y-140949174D01*
X82247186Y-140947120D01*
X82561827Y-140940838D01*
X82791766Y-140926645D01*
X82937197Y-140905706D01*
X82998313Y-140879184D01*
X82975306Y-140848245D01*
X82868371Y-140814051D01*
X82677699Y-140777768D01*
X82403484Y-140740559D01*
X82209412Y-140719336D01*
X81906910Y-140690996D01*
X81673767Y-140675261D01*
X81494968Y-140671690D01*
X81355496Y-140679844D01*
X81275098Y-140691929D01*
X81089921Y-140718691D01*
X80892322Y-140734402D01*
X80821380Y-140736135D01*
X80597607Y-140736135D01*
X80529752Y-140466004D01*
X80437504Y-140032502D01*
X80363760Y-139550286D01*
X80313641Y-139054969D01*
X80302803Y-138888265D01*
X80275115Y-138385102D01*
X80445183Y-138412297D01*
X80597472Y-138409953D01*
X80706823Y-138355372D01*
X80756624Y-138257928D01*
X80757984Y-138235775D01*
X80769716Y-138183817D01*
X80817787Y-138184979D01*
G37*
G36*
X139745941Y-74948542D02*
G01*
X139966637Y-74999641D01*
X140151510Y-75096678D01*
X140313174Y-75248952D01*
X140464246Y-75465762D01*
X140617341Y-75756406D01*
X140630801Y-75784706D01*
X140786995Y-76155003D01*
X140891260Y-76491895D01*
X140941122Y-76785581D01*
X140937983Y-77000861D01*
X140880284Y-77220032D01*
X140776162Y-77426650D01*
X140642421Y-77590492D01*
X140584036Y-77637527D01*
X140465471Y-77752713D01*
X140334586Y-77940946D01*
X140255970Y-78079620D01*
X140152256Y-78260969D01*
X140039001Y-78437331D01*
X139936961Y-78576842D01*
X139915269Y-78602647D01*
X139832401Y-78700817D01*
X139770409Y-78790109D01*
X139726805Y-78884426D01*
X139699104Y-78997671D01*
X139684820Y-79143748D01*
X139681467Y-79336559D01*
X139686559Y-79590008D01*
X139694702Y-79836153D01*
X139704352Y-80302075D01*
X139695284Y-80691230D01*
X139664073Y-81010848D01*
X139607296Y-81268159D01*
X139521528Y-81470393D01*
X139403346Y-81624781D01*
X139249324Y-81738553D01*
X139056039Y-81818938D01*
X138820068Y-81873167D01*
X138723062Y-81887806D01*
X138524275Y-81914625D01*
X138723062Y-82098689D01*
X138837089Y-82196680D01*
X138999356Y-82326281D01*
X139187973Y-82470403D01*
X139375486Y-82607974D01*
X139665906Y-82825907D01*
X139888745Y-83019464D01*
X140052999Y-83202026D01*
X140167664Y-83386975D01*
X140241734Y-83587693D01*
X140284206Y-83817560D01*
X140298658Y-83981287D01*
X140301950Y-84256146D01*
X140269730Y-84471707D01*
X140197125Y-84648364D01*
X140109680Y-84771841D01*
X139998241Y-84862150D01*
X139874670Y-84900316D01*
X139765555Y-84881291D01*
X139722005Y-84845463D01*
X139699319Y-84779642D01*
X139677581Y-84653110D01*
X139660780Y-84490478D01*
X139658036Y-84450589D01*
X139618826Y-84146317D01*
X139543013Y-83829952D01*
X139439423Y-83529335D01*
X139316881Y-83272304D01*
X139252032Y-83169916D01*
X139115064Y-82991345D01*
X138930007Y-82770467D01*
X138711389Y-82523022D01*
X138473735Y-82264746D01*
X138231571Y-82011376D01*
X137999422Y-81778649D01*
X137791816Y-81582302D01*
X137760912Y-81554479D01*
X137585435Y-81397190D01*
X137416083Y-81244221D01*
X137272024Y-81112956D01*
X137172426Y-81020780D01*
X137171597Y-81019999D01*
X137026084Y-80898315D01*
X136859954Y-80780634D01*
X136798068Y-80742712D01*
X136685763Y-80670541D01*
X136612128Y-80608439D01*
X136595294Y-80580583D01*
X136606674Y-80558447D01*
X136648322Y-80551618D01*
X136731503Y-80561908D01*
X136867482Y-80591132D01*
X137067524Y-80641106D01*
X137221791Y-80681488D01*
X137411364Y-80734352D01*
X137540469Y-80780739D01*
X137631990Y-80832664D01*
X137708810Y-80902142D01*
X137765542Y-80966998D01*
X137905137Y-81118815D01*
X138062022Y-81265563D01*
X138216831Y-81391215D01*
X138350197Y-81479741D01*
X138424120Y-81512034D01*
X138584395Y-81512733D01*
X138767832Y-81447414D01*
X138954991Y-81324051D01*
X139017899Y-81268520D01*
X139137376Y-81143410D01*
X139190440Y-81051758D01*
X139181927Y-80979981D01*
X139138038Y-80931017D01*
X139065801Y-80821478D01*
X139046567Y-80679539D01*
X139084459Y-80542802D01*
X139093794Y-80527370D01*
X139127968Y-80466898D01*
X139142402Y-80404376D01*
X139136953Y-80316707D01*
X139111480Y-80180794D01*
X139091085Y-80087055D01*
X139016026Y-79772211D01*
X138947500Y-79537874D01*
X138883822Y-79379569D01*
X138823306Y-79292820D01*
X138784225Y-79272584D01*
X138700526Y-79299703D01*
X138651042Y-79372993D01*
X138601629Y-79451337D01*
X138534782Y-79464503D01*
X138483215Y-79452244D01*
X138346414Y-79427927D01*
X138181837Y-79419366D01*
X138025695Y-79426564D01*
X137914197Y-79449526D01*
X137907984Y-79452184D01*
X137847204Y-79461496D01*
X137833278Y-79419062D01*
X137816749Y-79345165D01*
X137774021Y-79224078D01*
X137730437Y-79119138D01*
X137627596Y-78886597D01*
X137865274Y-78728788D01*
X138102951Y-78570979D01*
X138179767Y-78671960D01*
X138249689Y-78739435D01*
X138309973Y-78734329D01*
X138316023Y-78730253D01*
X138522690Y-78589102D01*
X138673475Y-78503439D01*
X138774513Y-78470067D01*
X138810432Y-78472628D01*
X138899830Y-78460559D01*
X138963992Y-78410688D01*
X139047618Y-78338069D01*
X139100049Y-78334435D01*
X139113950Y-78381888D01*
X139151025Y-78440645D01*
X139241707Y-78496119D01*
X139355180Y-78532287D01*
X139414514Y-78538152D01*
X139489344Y-78502677D01*
X139585165Y-78408931D01*
X139686694Y-78275930D01*
X139778646Y-78122693D01*
X139821882Y-78031289D01*
X139860510Y-77911423D01*
X139899348Y-77746459D01*
X139924785Y-77604398D01*
X139954809Y-77429730D01*
X139989495Y-77264918D01*
X140015278Y-77166567D01*
X140031297Y-76984576D01*
X139983893Y-76767729D01*
X139878152Y-76532122D01*
X139753994Y-76339614D01*
X139636289Y-76186857D01*
X139538491Y-76088692D01*
X139434210Y-76030242D01*
X139297056Y-75996634D01*
X139104206Y-75973352D01*
X138900946Y-75957457D01*
X138731972Y-75959437D01*
X138580169Y-75985407D01*
X138428424Y-76041480D01*
X138259626Y-76133773D01*
X138056659Y-76268398D01*
X137837065Y-76426107D01*
X137741196Y-76490405D01*
X137682108Y-76505685D01*
X137630743Y-76477284D01*
X137618242Y-76466292D01*
X137528248Y-76416004D01*
X137401837Y-76378197D01*
X137379665Y-76374275D01*
X137234865Y-76334214D01*
X137104101Y-76271226D01*
X137094634Y-76264863D01*
X136961638Y-76204514D01*
X136838500Y-76208675D01*
X136734159Y-76227381D01*
X136573982Y-76253518D01*
X136386655Y-76282456D01*
X136316561Y-76292895D01*
X135976238Y-76363272D01*
X135714445Y-76462428D01*
X135532190Y-76589966D01*
X135513979Y-76609065D01*
X135407883Y-76674879D01*
X135238577Y-76721658D01*
X135026381Y-76748053D01*
X134791612Y-76752713D01*
X134554587Y-76734289D01*
X134335625Y-76691431D01*
X134323791Y-76688134D01*
X133982544Y-76605656D01*
X133576372Y-76531322D01*
X133125533Y-76467499D01*
X132650284Y-76416556D01*
X132170885Y-76380861D01*
X131707591Y-76362780D01*
X131525123Y-76361009D01*
X131236577Y-76359737D01*
X131024528Y-76355512D01*
X130880127Y-76347718D01*
X130794525Y-76335741D01*
X130758872Y-76318965D01*
X130757289Y-76307647D01*
X130807506Y-76278189D01*
X130935728Y-76244627D01*
X131134775Y-76208561D01*
X131326477Y-76180798D01*
X131493684Y-76160572D01*
X131666255Y-76144505D01*
X131855517Y-76132260D01*
X132072797Y-76123502D01*
X132329422Y-76117893D01*
X132636717Y-76115095D01*
X133006011Y-76114773D01*
X133448630Y-76116588D01*
X133478992Y-76116765D01*
X133891158Y-76119077D01*
X134227164Y-76120367D01*
X134496225Y-76120197D01*
X134707557Y-76118126D01*
X134870377Y-76113718D01*
X134993898Y-76106532D01*
X135087339Y-76096131D01*
X135159913Y-76082075D01*
X135220837Y-76063926D01*
X135279327Y-76041246D01*
X135306550Y-76029766D01*
X135707822Y-75894731D01*
X136166259Y-75803717D01*
X136664137Y-75759750D01*
X136910242Y-75756229D01*
X137207995Y-75755550D01*
X137440307Y-75743851D01*
X137626919Y-75715929D01*
X137787568Y-75666583D01*
X137941995Y-75590609D01*
X138109939Y-75482805D01*
X138206001Y-75414727D01*
X138575051Y-75181056D01*
X138928429Y-75026123D01*
X139274536Y-74946751D01*
X139476807Y-74934081D01*
X139745941Y-74948542D01*
G37*
G36*
X131643362Y-76936324D02*
G01*
X131862849Y-76978595D01*
X132071534Y-77022380D01*
X132287606Y-77072053D01*
X132529253Y-77131984D01*
X132814663Y-77206545D01*
X133162025Y-77300110D01*
X133201513Y-77310855D01*
X133341192Y-77354146D01*
X133511044Y-77413835D01*
X133607059Y-77450492D01*
X133750135Y-77506681D01*
X133871406Y-77553327D01*
X133926031Y-77573607D01*
X133982444Y-77607234D01*
X133963409Y-77636870D01*
X133878847Y-77659747D01*
X133738680Y-77673098D01*
X133564370Y-77674472D01*
X133340872Y-77677742D01*
X133189487Y-77704555D01*
X133098890Y-77760354D01*
X133057756Y-77850580D01*
X133052101Y-77920662D01*
X133056777Y-78013384D01*
X133086735Y-78055961D01*
X133165874Y-78067848D01*
X133233530Y-78068361D01*
X133355871Y-78079669D01*
X133499507Y-78108991D01*
X133640169Y-78149061D01*
X133753589Y-78192614D01*
X133815497Y-78232385D01*
X133820505Y-78244087D01*
X133785960Y-78278172D01*
X133694733Y-78340041D01*
X133565436Y-78417223D01*
X133544411Y-78429069D01*
X133403854Y-78513810D01*
X133292195Y-78592415D01*
X133231874Y-78648960D01*
X133229772Y-78652348D01*
X133170780Y-78696987D01*
X133052395Y-78748171D01*
X132898890Y-78795459D01*
X132894409Y-78796603D01*
X132714639Y-78849153D01*
X132525740Y-78915687D01*
X132345209Y-78988570D01*
X132190547Y-79060166D01*
X132079253Y-79122841D01*
X132028826Y-79168959D01*
X132027563Y-79174826D01*
X132059936Y-79227060D01*
X132138063Y-79291600D01*
X132140540Y-79293234D01*
X132224231Y-79332892D01*
X132337311Y-79353678D01*
X132502335Y-79358709D01*
X132599448Y-79356667D01*
X132779274Y-79348763D01*
X132939676Y-79337511D01*
X133050413Y-79325113D01*
X133062773Y-79322923D01*
X133137823Y-79314161D01*
X133171305Y-79341881D01*
X133179930Y-79427102D01*
X133180168Y-79470593D01*
X133170945Y-79579915D01*
X133131872Y-79664658D01*
X133045844Y-79755590D01*
X132998740Y-79796919D01*
X132727576Y-79984652D01*
X132374883Y-80153385D01*
X131942571Y-80302211D01*
X131921403Y-80308389D01*
X131710683Y-80372201D01*
X131575203Y-80421626D01*
X131507089Y-80461826D01*
X131498471Y-80497963D01*
X131541478Y-80535197D01*
X131559798Y-80545509D01*
X131690431Y-80576435D01*
X131869044Y-80566053D01*
X132070729Y-80517512D01*
X132210764Y-80463215D01*
X132341734Y-80412977D01*
X132449459Y-80403894D01*
X132572835Y-80428636D01*
X132682354Y-80467229D01*
X132746405Y-80507906D01*
X132753278Y-80522103D01*
X132727693Y-80585198D01*
X132656909Y-80701873D01*
X132549881Y-80859701D01*
X132415562Y-81046255D01*
X132262908Y-81249109D01*
X132100873Y-81455837D01*
X131938411Y-81654012D01*
X131932942Y-81660504D01*
X131838313Y-81769072D01*
X131778241Y-81820937D01*
X131733796Y-81825946D01*
X131686047Y-81793943D01*
X131682375Y-81790813D01*
X131618301Y-81699833D01*
X131600673Y-81626142D01*
X131580652Y-81531049D01*
X131531554Y-81505849D01*
X131469827Y-81557928D01*
X131465088Y-81565249D01*
X131411427Y-81621691D01*
X131355620Y-81603247D01*
X131355160Y-81602866D01*
X131286157Y-81581689D01*
X131234178Y-81639336D01*
X131209413Y-81736489D01*
X131181472Y-81809519D01*
X131134457Y-81863078D01*
X131092547Y-81873416D01*
X131082876Y-81860785D01*
X131074298Y-81814815D01*
X131056636Y-81706164D01*
X131033410Y-81556592D01*
X131028816Y-81526387D01*
X131001889Y-81363524D01*
X130977332Y-81268556D01*
X130947421Y-81224598D01*
X130904431Y-81214766D01*
X130886848Y-81216048D01*
X130830420Y-81209770D01*
X130788180Y-81164835D01*
X130747698Y-81063450D01*
X130722854Y-80981259D01*
X130660099Y-80780984D01*
X130608396Y-80661570D01*
X130563402Y-80619895D01*
X130520771Y-80652843D01*
X130476161Y-80757292D01*
X130463854Y-80795286D01*
X130412271Y-80941768D01*
X130349886Y-81092190D01*
X130286715Y-81225405D01*
X130232773Y-81320263D01*
X130198473Y-81355631D01*
X130142799Y-81329162D01*
X130120913Y-81310224D01*
X130074994Y-81304459D01*
X130013656Y-81372302D01*
X129985748Y-81416947D01*
X129900754Y-81530035D01*
X129829448Y-81565383D01*
X129778607Y-81522593D01*
X129757075Y-81430337D01*
X129730026Y-81323535D01*
X129681810Y-81295038D01*
X129619383Y-81342535D01*
X129549702Y-81463717D01*
X129532050Y-81505042D01*
X129476557Y-81636115D01*
X129428237Y-81719493D01*
X129377536Y-81751646D01*
X129314902Y-81729046D01*
X129230780Y-81648161D01*
X129115619Y-81505463D01*
X128959863Y-81297421D01*
X128955993Y-81292197D01*
X128765465Y-81034485D01*
X128621849Y-80836232D01*
X128521350Y-80688206D01*
X128460172Y-80581176D01*
X128434521Y-80505910D01*
X128440602Y-80453177D01*
X128474620Y-80413745D01*
X128532780Y-80378384D01*
X128572037Y-80358166D01*
X128655814Y-80299244D01*
X128655410Y-80251768D01*
X128571369Y-80216649D01*
X128478542Y-80201601D01*
X128342830Y-80175277D01*
X128235054Y-80135930D01*
X128208900Y-80119315D01*
X128131110Y-80033439D01*
X128031555Y-79894853D01*
X127925180Y-79727929D01*
X127826927Y-79557041D01*
X127751737Y-79406564D01*
X127719064Y-79320317D01*
X127683128Y-79176231D01*
X127684122Y-79095443D01*
X127733783Y-79059675D01*
X127843848Y-79050647D01*
X127892357Y-79050421D01*
X128116302Y-79022076D01*
X128261788Y-78957498D01*
X128348218Y-78908776D01*
X128423405Y-78886903D01*
X128516963Y-78889341D01*
X128658504Y-78913555D01*
X128693717Y-78920498D01*
X128908838Y-78957230D01*
X129126219Y-78984152D01*
X129324612Y-78999633D01*
X129482767Y-79002040D01*
X129579436Y-78989743D01*
X129582240Y-78988726D01*
X129628270Y-78952581D01*
X129599676Y-78914556D01*
X129506877Y-78880326D01*
X129360293Y-78855565D01*
X129332792Y-78852883D01*
X129174173Y-78832503D01*
X129029613Y-78803617D01*
X128975294Y-78787974D01*
X128868889Y-78761113D01*
X128710831Y-78732834D01*
X128534528Y-78709079D01*
X128527059Y-78708251D01*
X128368111Y-78682280D01*
X128168449Y-78636878D01*
X127942416Y-78576749D01*
X127704351Y-78506597D01*
X127468596Y-78431125D01*
X127249491Y-78355036D01*
X127061378Y-78283034D01*
X126918597Y-78219823D01*
X126835490Y-78170105D01*
X126820225Y-78148457D01*
X126852869Y-78117216D01*
X126955730Y-78072579D01*
X127134141Y-78012407D01*
X127241975Y-77979246D01*
X127378854Y-77927742D01*
X127493790Y-77867438D01*
X127519454Y-77848982D01*
X127579931Y-77790778D01*
X127575769Y-77745540D01*
X127535225Y-77700007D01*
X127448257Y-77649518D01*
X127301232Y-77621726D01*
X127193712Y-77614882D01*
X127038266Y-77609145D01*
X126908264Y-77604351D01*
X126844398Y-77601999D01*
X126784154Y-77590609D01*
X126801847Y-77565669D01*
X126891593Y-77529870D01*
X127047509Y-77485904D01*
X127153836Y-77460466D01*
X127582342Y-77375656D01*
X128052123Y-77304665D01*
X128519410Y-77253735D01*
X128697815Y-77240250D01*
X129121614Y-77212001D01*
X129468138Y-77186530D01*
X129745408Y-77162801D01*
X129961442Y-77139779D01*
X130124260Y-77116429D01*
X130241881Y-77091717D01*
X130322325Y-77064606D01*
X130373609Y-77034062D01*
X130386204Y-77022316D01*
X130440057Y-76977889D01*
X130514151Y-76947293D01*
X130627393Y-76926135D01*
X130798690Y-76910027D01*
X130898473Y-76903335D01*
X131298672Y-76897958D01*
X131643362Y-76936324D01*
G37*
G36*
X122272481Y-74663507D02*
G01*
X122647714Y-74733600D01*
X123032568Y-74833363D01*
X123405889Y-74957968D01*
X123746529Y-75102585D01*
X123788572Y-75123234D01*
X124411594Y-75408239D01*
X125058564Y-75649934D01*
X125743394Y-75852376D01*
X126479997Y-76019621D01*
X127282284Y-76155726D01*
X127374454Y-76168874D01*
X127933995Y-76251938D01*
X128411597Y-76332727D01*
X128806631Y-76411097D01*
X129118471Y-76486907D01*
X129346489Y-76560013D01*
X129490058Y-76630274D01*
X129523266Y-76657114D01*
X129549802Y-76695430D01*
X129533340Y-76720063D01*
X129465636Y-76731397D01*
X129338441Y-76729820D01*
X129143511Y-76715715D01*
X128872600Y-76689469D01*
X128859710Y-76688136D01*
X128373426Y-76640995D01*
X127960762Y-76608581D01*
X127611290Y-76590626D01*
X127314577Y-76586862D01*
X127060196Y-76597021D01*
X126837715Y-76620836D01*
X126755462Y-76634100D01*
X126444404Y-76680009D01*
X126162708Y-76698254D01*
X125877214Y-76688832D01*
X125554758Y-76651740D01*
X125437987Y-76633969D01*
X125209612Y-76592583D01*
X125048962Y-76550077D01*
X124938491Y-76501061D01*
X124887281Y-76464853D01*
X124687430Y-76349493D01*
X124429884Y-76286752D01*
X124250356Y-76275869D01*
X124120829Y-76268303D01*
X124052316Y-76240221D01*
X124024055Y-76192436D01*
X123959570Y-76107778D01*
X123832303Y-76071248D01*
X123637603Y-76081553D01*
X123629640Y-76082726D01*
X123466545Y-76102988D01*
X123279492Y-76120445D01*
X123205481Y-76125635D01*
X123065337Y-76141561D01*
X122956720Y-76167256D01*
X122919341Y-76185360D01*
X122850925Y-76192967D01*
X122736168Y-76160059D01*
X122596793Y-76097660D01*
X122454528Y-76016792D01*
X122331095Y-75928481D01*
X122249404Y-75845424D01*
X122085466Y-75678162D01*
X121878422Y-75580816D01*
X121626344Y-75549916D01*
X121498940Y-75552949D01*
X121404130Y-75569496D01*
X121316206Y-75610733D01*
X121209457Y-75687836D01*
X121096263Y-75780332D01*
X120858601Y-76009783D01*
X120694864Y-76239722D01*
X120607186Y-76464600D01*
X120597700Y-76678871D01*
X120668541Y-76876987D01*
X120672110Y-76882918D01*
X120742249Y-77072476D01*
X120760735Y-77257479D01*
X120779636Y-77484532D01*
X120826290Y-77659142D01*
X120896487Y-77769974D01*
X120964010Y-77804734D01*
X121032985Y-77798364D01*
X121055674Y-77735985D01*
X121056471Y-77707344D01*
X121078740Y-77603689D01*
X121142279Y-77571881D01*
X121242187Y-77611951D01*
X121355018Y-77705445D01*
X121465496Y-77802337D01*
X121548559Y-77842827D01*
X121625385Y-77839451D01*
X121704489Y-77833649D01*
X121751916Y-77881608D01*
X121776060Y-77941283D01*
X121846525Y-78062165D01*
X121945093Y-78102636D01*
X122057481Y-78069740D01*
X122208515Y-78032184D01*
X122359744Y-78071099D01*
X122497846Y-78178658D01*
X122609500Y-78347030D01*
X122636558Y-78410084D01*
X122697255Y-78523490D01*
X122794815Y-78661376D01*
X122878257Y-78760440D01*
X122975047Y-78878054D01*
X123041885Y-78982700D01*
X123062857Y-79043365D01*
X123034721Y-79140238D01*
X122967141Y-79190181D01*
X122890669Y-79177104D01*
X122817969Y-79160722D01*
X122689332Y-79156307D01*
X122543313Y-79164016D01*
X122258558Y-79190117D01*
X122244489Y-79066907D01*
X122214670Y-78972118D01*
X122147589Y-78943699D01*
X122147068Y-78943698D01*
X122072838Y-78983511D01*
X122010470Y-79091982D01*
X121965092Y-79252654D01*
X121941828Y-79449072D01*
X121941639Y-79603172D01*
X121944100Y-79765380D01*
X121930248Y-79861617D01*
X121897030Y-79910255D01*
X121889819Y-79914789D01*
X121831962Y-79987409D01*
X121841038Y-80085992D01*
X121910782Y-80182160D01*
X121963023Y-80245949D01*
X121980502Y-80328500D01*
X121969923Y-80461677D01*
X121969794Y-80462650D01*
X121971788Y-80640612D01*
X122026546Y-80766488D01*
X122127296Y-80830863D01*
X122235520Y-80831939D01*
X122355275Y-80837188D01*
X122413229Y-80870660D01*
X122487358Y-80902582D01*
X122553078Y-80864990D01*
X122590516Y-80772975D01*
X122593278Y-80733931D01*
X122608947Y-80646229D01*
X122633825Y-80609896D01*
X122681210Y-80621168D01*
X122728267Y-80689081D01*
X122759360Y-80786280D01*
X122764034Y-80837679D01*
X122798753Y-80916944D01*
X122889078Y-80958534D01*
X123014263Y-80962978D01*
X123153561Y-80930806D01*
X123286226Y-80862548D01*
X123335138Y-80823097D01*
X123417832Y-80716553D01*
X123446335Y-80582733D01*
X123447059Y-80548079D01*
X123470721Y-80400335D01*
X123543778Y-80320893D01*
X123669336Y-80307752D01*
X123779990Y-80333629D01*
X123914993Y-80383887D01*
X123969661Y-80429981D01*
X123947505Y-80483868D01*
X123852030Y-80557508D01*
X123846706Y-80561053D01*
X123756495Y-80633682D01*
X123621916Y-80758288D01*
X123454787Y-80922559D01*
X123266927Y-81114186D01*
X123070153Y-81320859D01*
X122876282Y-81530267D01*
X122697132Y-81730100D01*
X122544521Y-81908048D01*
X122492263Y-81971950D01*
X122399913Y-82104714D01*
X122282527Y-82300160D01*
X122148215Y-82542288D01*
X122005084Y-82815099D01*
X121861243Y-83102592D01*
X121724801Y-83388767D01*
X121603866Y-83657624D01*
X121506548Y-83893164D01*
X121472782Y-83983570D01*
X121348359Y-84398781D01*
X121289258Y-84769926D01*
X121294780Y-85107071D01*
X121364224Y-85420281D01*
X121371328Y-85441187D01*
X121438558Y-85676914D01*
X121457385Y-85855021D01*
X121427391Y-85970099D01*
X121413544Y-85987081D01*
X121352908Y-86037376D01*
X121296236Y-86042211D01*
X121215790Y-85998104D01*
X121155341Y-85954660D01*
X121027795Y-85841143D01*
X120877833Y-85678861D01*
X120725959Y-85492856D01*
X120592679Y-85308170D01*
X120501948Y-85156721D01*
X120453881Y-85050484D01*
X120427479Y-84950053D01*
X120419013Y-84827494D01*
X120424757Y-84654872D01*
X120427905Y-84601763D01*
X120478173Y-84240269D01*
X120587591Y-83879205D01*
X120762568Y-83498541D01*
X120807603Y-83415388D01*
X120909068Y-83252623D01*
X121050636Y-83052218D01*
X121216157Y-82834552D01*
X121389480Y-82620003D01*
X121554453Y-82428950D01*
X121694926Y-82281770D01*
X121736522Y-82243333D01*
X121833493Y-82152687D01*
X121968073Y-82019518D01*
X122120032Y-81864101D01*
X122226723Y-81752063D01*
X122556526Y-81401437D01*
X122436162Y-81377248D01*
X122206090Y-81320098D01*
X121971018Y-81243330D01*
X121759813Y-81157567D01*
X121601342Y-81073431D01*
X121590084Y-81065913D01*
X121409535Y-80895025D01*
X121289069Y-80681460D01*
X121234829Y-80444937D01*
X121252958Y-80205178D01*
X121288246Y-80096933D01*
X121322424Y-79975142D01*
X121348680Y-79808613D01*
X121359467Y-79669504D01*
X121369668Y-79388114D01*
X121173895Y-79187251D01*
X120999083Y-78964027D01*
X120833633Y-78661497D01*
X120803851Y-78596547D01*
X120730097Y-78428084D01*
X120671780Y-78288263D01*
X120636479Y-78195639D01*
X120629465Y-78169656D01*
X120595325Y-78128060D01*
X120509986Y-78068551D01*
X120472839Y-78047227D01*
X120322875Y-77946458D01*
X120223700Y-77825685D01*
X120163629Y-77663847D01*
X120130974Y-77439886D01*
X120130099Y-77429646D01*
X120111431Y-77256794D01*
X120083670Y-77139649D01*
X120036218Y-77048554D01*
X119961086Y-76956736D01*
X119884965Y-76865664D01*
X119842158Y-76784678D01*
X119823176Y-76683534D01*
X119818534Y-76531988D01*
X119818488Y-76502179D01*
X119840076Y-76208984D01*
X119911806Y-75957360D01*
X120044121Y-75719829D01*
X120183991Y-75540682D01*
X120434724Y-75260488D01*
X120654854Y-75044400D01*
X120858325Y-74883683D01*
X121059078Y-74769607D01*
X121271058Y-74693439D01*
X121508207Y-74646446D01*
X121635476Y-74631650D01*
X121928018Y-74627915D01*
X122272481Y-74663507D01*
G37*
G36*
X100354511Y-135671095D02*
G01*
X100393309Y-135820340D01*
X100429952Y-135960624D01*
X100435473Y-135981666D01*
X100470522Y-136115095D01*
X100203792Y-136093685D01*
X100026903Y-136087133D01*
X99931627Y-136102813D01*
X99917984Y-136141311D01*
X99985995Y-136203210D01*
X100135680Y-136289093D01*
X100211861Y-136327112D01*
X100544370Y-136488572D01*
X100598800Y-136787395D01*
X100616828Y-136923197D01*
X100635019Y-137125705D01*
X100652120Y-137376260D01*
X100666878Y-137656201D01*
X100678038Y-137946869D01*
X100679108Y-137982690D01*
X100685158Y-138561178D01*
X100666366Y-139079457D01*
X100620660Y-139559602D01*
X100545966Y-140023687D01*
X100445238Y-140473909D01*
X100330925Y-140928236D01*
X100074790Y-140922579D01*
X99941130Y-140918659D01*
X99744455Y-140911651D01*
X99507036Y-140902403D01*
X99251144Y-140891768D01*
X99133005Y-140886627D01*
X98864127Y-140876057D01*
X98664968Y-140872110D01*
X98520073Y-140875488D01*
X98413988Y-140886894D01*
X98331259Y-140907031D01*
X98282338Y-140925280D01*
X98178636Y-140982134D01*
X98159156Y-141031028D01*
X98224122Y-141072139D01*
X98373760Y-141105643D01*
X98538463Y-141125579D01*
X98769626Y-141157518D01*
X98950217Y-141202508D01*
X99068852Y-141256713D01*
X99114148Y-141316291D01*
X99114286Y-141319760D01*
X99151000Y-141396337D01*
X99240118Y-141469139D01*
X99350099Y-141518798D01*
X99449406Y-141525944D01*
X99449842Y-141525835D01*
X99550748Y-141522349D01*
X99663480Y-141547171D01*
X99756231Y-141589679D01*
X99797193Y-141639251D01*
X99797311Y-141641867D01*
X99820202Y-141701574D01*
X99876446Y-141794259D01*
X99887925Y-141810715D01*
X99978539Y-141937970D01*
X99801929Y-142325701D01*
X99575496Y-142777409D01*
X99296820Y-143258205D01*
X98980438Y-143743981D01*
X98762503Y-144049569D01*
X98491101Y-144389859D01*
X98166839Y-144752784D01*
X97806046Y-145122890D01*
X97425049Y-145484727D01*
X97040177Y-145822843D01*
X96667756Y-146121784D01*
X96324117Y-146366098D01*
X96294122Y-146385546D01*
X96184715Y-146455823D01*
X96132450Y-146253374D01*
X96100114Y-146146808D01*
X96043224Y-145978238D01*
X95967990Y-145765303D01*
X95880620Y-145525644D01*
X95806760Y-145328114D01*
X95709880Y-145070081D01*
X95641088Y-144880010D01*
X95597393Y-144746339D01*
X95575806Y-144657508D01*
X95573336Y-144601959D01*
X95586992Y-144568131D01*
X95605575Y-144550396D01*
X95697005Y-144497959D01*
X95767547Y-144505509D01*
X95826923Y-144580655D01*
X95884857Y-144731006D01*
X95900162Y-144780925D01*
X95951837Y-144938513D01*
X95997181Y-145030108D01*
X96046878Y-145073380D01*
X96083123Y-145083483D01*
X96181686Y-145071500D01*
X96221261Y-144998509D01*
X96201293Y-144865753D01*
X96192350Y-144838511D01*
X96135590Y-144634165D01*
X96108104Y-144443493D01*
X96108291Y-144279582D01*
X96134553Y-144155517D01*
X96185290Y-144084382D01*
X96258903Y-144079263D01*
X96283635Y-144091587D01*
X96350740Y-144169241D01*
X96375603Y-144240999D01*
X96401367Y-144339179D01*
X96426448Y-144387392D01*
X96453851Y-144446098D01*
X96496530Y-144565738D01*
X96547086Y-144724935D01*
X96569978Y-144802206D01*
X96658323Y-145085205D01*
X96745725Y-145324619D01*
X96827292Y-145508657D01*
X96898135Y-145625530D01*
X96921837Y-145650390D01*
X96952263Y-145671857D01*
X96961592Y-145662147D01*
X96946491Y-145609346D01*
X96903627Y-145501536D01*
X96834442Y-145337984D01*
X96797035Y-145231466D01*
X96748308Y-145066198D01*
X96695221Y-144866829D01*
X96655176Y-144703130D01*
X96605963Y-144481390D01*
X96579765Y-144330474D01*
X96575263Y-144239369D01*
X96591138Y-144197063D01*
X96594280Y-144194785D01*
X96618909Y-144153828D01*
X96612240Y-144068413D01*
X96577729Y-143936092D01*
X96533878Y-143783008D01*
X96515425Y-143694055D01*
X96521949Y-143651982D01*
X96553027Y-143639540D01*
X96570459Y-143638992D01*
X96622968Y-143674743D01*
X96704674Y-143772692D01*
X96806171Y-143918884D01*
X96918053Y-144099366D01*
X97030915Y-144300180D01*
X97081170Y-144396723D01*
X97148814Y-144516828D01*
X97207628Y-144598166D01*
X97238057Y-144620841D01*
X97302952Y-144605479D01*
X97408485Y-144567496D01*
X97434095Y-144557040D01*
X97532354Y-144506544D01*
X97562370Y-144458143D01*
X97551759Y-144418300D01*
X97531574Y-144334902D01*
X97517462Y-144201468D01*
X97513572Y-144104183D01*
X97506451Y-143965681D01*
X97480097Y-143864927D01*
X97420358Y-143767969D01*
X97327017Y-143656648D01*
X97202762Y-143500627D01*
X97081810Y-143323240D01*
X96975787Y-143144602D01*
X96896321Y-142984830D01*
X96855041Y-142864038D01*
X96851765Y-142834469D01*
X96879257Y-142758246D01*
X96933652Y-142742521D01*
X97066120Y-142722758D01*
X97133995Y-142655830D01*
X97150589Y-142550763D01*
X97176181Y-142423879D01*
X97257311Y-142340901D01*
X97344129Y-142238146D01*
X97360774Y-142088892D01*
X97307352Y-141891959D01*
X97300000Y-141873980D01*
X97255807Y-141724071D01*
X97236040Y-141569759D01*
X97235967Y-141561956D01*
X97235967Y-141403187D01*
X97355698Y-141517896D01*
X97470956Y-141611764D01*
X97544768Y-141640327D01*
X97575845Y-141613622D01*
X97562898Y-141541689D01*
X97504639Y-141434567D01*
X97399779Y-141302294D01*
X97385378Y-141286677D01*
X97281926Y-141171656D01*
X97224438Y-141083822D01*
X97199426Y-140989086D01*
X97193400Y-140853358D01*
X97193278Y-140801213D01*
X97205712Y-140608383D01*
X97238072Y-140387066D01*
X97276588Y-140212409D01*
X97349984Y-139949372D01*
X97411316Y-139760265D01*
X97467680Y-139635815D01*
X97526172Y-139566751D01*
X97593888Y-139543801D01*
X97677924Y-139557695D01*
X97755584Y-139586573D01*
X97842319Y-139632347D01*
X97865650Y-139690532D01*
X97850795Y-139771782D01*
X97815270Y-139998037D01*
X97827614Y-140191358D01*
X97886066Y-140333947D01*
X97908974Y-140360888D01*
X97985726Y-140421588D01*
X98039773Y-140416908D01*
X98053943Y-140404814D01*
X98078433Y-140350065D01*
X98054262Y-140264686D01*
X98026723Y-140209937D01*
X97977562Y-140095166D01*
X97977093Y-139996733D01*
X97998020Y-139924908D01*
X98033312Y-139781207D01*
X98047059Y-139646103D01*
X98034006Y-139556740D01*
X97986350Y-139479713D01*
X97891346Y-139403655D01*
X97736251Y-139317199D01*
X97609496Y-139255816D01*
X97492119Y-139188829D01*
X97419549Y-139124017D01*
X97406723Y-139094271D01*
X97418792Y-139060197D01*
X97466487Y-139044415D01*
X97567045Y-139044690D01*
X97704568Y-139055658D01*
X97889907Y-139066517D01*
X98013949Y-139050746D01*
X98099179Y-138998134D01*
X98168086Y-138898470D01*
X98202647Y-138829486D01*
X98281960Y-138713635D01*
X98397145Y-138599147D01*
X98437065Y-138568560D01*
X98542415Y-138478892D01*
X98614407Y-138388626D01*
X98628083Y-138357501D01*
X98627043Y-138268252D01*
X98598620Y-138129684D01*
X98554386Y-137986879D01*
X98503372Y-137840164D01*
X98480633Y-137750079D01*
X98484892Y-137693155D01*
X98514869Y-137645921D01*
X98534596Y-137623575D01*
X98630968Y-137556913D01*
X98758154Y-137513165D01*
X98767962Y-137511450D01*
X98892334Y-137481270D01*
X99053701Y-137428878D01*
X99175643Y-137382293D01*
X99335558Y-137324602D01*
X99432624Y-137315939D01*
X99477498Y-137361905D01*
X99480837Y-137468099D01*
X99471516Y-137537735D01*
X99464747Y-137645467D01*
X99498397Y-137723075D01*
X99582867Y-137804542D01*
X99701634Y-137884381D01*
X99826191Y-137915267D01*
X99987856Y-137903104D01*
X100047417Y-137892114D01*
X100138235Y-137858962D01*
X100149687Y-137821826D01*
X100085785Y-137795082D01*
X100018909Y-137790006D01*
X99865732Y-137782291D01*
X99776682Y-137749227D01*
X99735456Y-137673026D01*
X99725749Y-137535904D01*
X99726755Y-137471301D01*
X99711928Y-137254369D01*
X99653840Y-137109568D01*
X99550518Y-137035900D01*
X99399992Y-137032365D01*
X99200289Y-137097964D01*
X99092941Y-137150253D01*
X98894512Y-137237602D01*
X98713259Y-137274841D01*
X98627186Y-137278320D01*
X98485588Y-137288211D01*
X98372007Y-137313421D01*
X98334400Y-137331681D01*
X98267228Y-137426287D01*
X98223148Y-137572609D01*
X98208013Y-137738746D01*
X98227678Y-137892795D01*
X98229991Y-137900628D01*
X98251101Y-137982483D01*
X98246876Y-138045591D01*
X98206944Y-138112629D01*
X98120928Y-138206272D01*
X98063909Y-138263647D01*
X97851579Y-138475977D01*
X97620432Y-138314491D01*
X97389286Y-138153005D01*
X97401698Y-137918436D01*
X97415142Y-137764622D01*
X97447096Y-137661936D01*
X97514907Y-137583227D01*
X97635920Y-137501342D01*
X97687824Y-137470555D01*
X97825196Y-137364462D01*
X97877254Y-137257259D01*
X97843976Y-137149062D01*
X97764737Y-137068692D01*
X97687921Y-136976037D01*
X97687974Y-136889997D01*
X97764529Y-136826204D01*
X97770493Y-136823827D01*
X97838983Y-136827002D01*
X97962945Y-136857866D01*
X98119449Y-136910311D01*
X98174848Y-136931518D01*
X98428226Y-137019020D01*
X98631167Y-137056854D01*
X98802241Y-137045625D01*
X98960019Y-136985939D01*
X99007563Y-136958657D01*
X99162308Y-136870020D01*
X99328117Y-136783934D01*
X99359748Y-136768775D01*
X99484381Y-136696979D01*
X99533077Y-136621304D01*
X99512883Y-136519295D01*
X99466471Y-136428783D01*
X99424308Y-136346419D01*
X99416359Y-136281289D01*
X99445210Y-136199686D01*
X99490882Y-136110558D01*
X99668027Y-135856070D01*
X99895965Y-135669392D01*
X100084972Y-135578216D01*
X100308598Y-135493954D01*
X100354511Y-135671095D01*
G37*
G36*
X132630000Y-141680000D02*
G01*
X132710000Y-141710000D01*
X132830000Y-141800000D01*
X132960000Y-141850000D01*
X133000000Y-141870000D01*
X133080000Y-141920000D01*
X133130000Y-141960000D01*
X133170000Y-141980000D01*
X133210000Y-142010000D01*
X133270000Y-142050000D01*
X133320000Y-142090000D01*
X133420000Y-142160000D01*
X133570000Y-142260000D01*
X133740000Y-142420000D01*
X133940000Y-142610000D01*
X134120000Y-142770000D01*
X134300000Y-142940000D01*
X134440000Y-143091312D01*
X134520000Y-143200000D01*
X134550000Y-143260000D01*
X134710000Y-143600000D01*
X134820000Y-143972019D01*
X134850000Y-144330000D01*
X134810000Y-144680000D01*
X134800000Y-144720000D01*
X134760000Y-144820000D01*
X134710000Y-144920000D01*
X134630000Y-145020000D01*
X134550000Y-145120000D01*
X134410000Y-145260000D01*
X134300000Y-145360000D01*
X134150000Y-145500000D01*
X134020000Y-145620000D01*
X133918584Y-145710000D01*
X133850000Y-145760000D01*
X133810000Y-145770000D01*
X133710000Y-145760000D01*
X133590000Y-145680000D01*
X133450000Y-145550000D01*
X133300000Y-145410000D01*
X133170000Y-145210000D01*
X133140000Y-145050000D01*
X133160000Y-144830000D01*
X133200000Y-144650000D01*
X133240000Y-144500000D01*
X133270000Y-144380000D01*
X133221962Y-144350000D01*
X133150000Y-144360000D01*
X133040000Y-144420000D01*
X132930000Y-144510000D01*
X132820000Y-144630000D01*
X132740000Y-144760000D01*
X132720000Y-144840000D01*
X132690000Y-144935042D01*
X132640000Y-145098463D01*
X132580000Y-145290000D01*
X132530000Y-145512420D01*
X132480000Y-145710000D01*
X132450000Y-145870000D01*
X132460000Y-145996219D01*
X132470000Y-146030000D01*
X132510000Y-146070000D01*
X132560000Y-146116996D01*
X132590000Y-146150000D01*
X132650000Y-146240000D01*
X132670000Y-146360000D01*
X132640000Y-146430000D01*
X132610000Y-146460000D01*
X132560000Y-146480000D01*
X132480000Y-146480000D01*
X132385223Y-146450000D01*
X132245487Y-146380000D01*
X132140000Y-146320000D01*
X132080000Y-146290000D01*
X131980000Y-146230000D01*
X131900000Y-146220000D01*
X131850000Y-146270000D01*
X131860000Y-146400000D01*
X131910000Y-146520000D01*
X131950000Y-146590000D01*
X132040000Y-146710000D01*
X132180000Y-146850000D01*
X132360000Y-146990000D01*
X132510000Y-147100000D01*
X132630000Y-147150000D01*
X132710000Y-147170000D01*
X132800000Y-147200000D01*
X132910000Y-147240000D01*
X132990000Y-147280000D01*
X133103993Y-147330000D01*
X133260000Y-147350000D01*
X133420000Y-147340000D01*
X133530000Y-147270000D01*
X133610000Y-147220000D01*
X133690000Y-147190000D01*
X133820000Y-147160000D01*
X134010000Y-147130000D01*
X134230000Y-147100000D01*
X134520000Y-147090000D01*
X134670000Y-147100000D01*
X134950000Y-147090000D01*
X135160000Y-147060000D01*
X135360000Y-147030000D01*
X135580000Y-146990000D01*
X135750000Y-146950000D01*
X135930000Y-146890000D01*
X136120000Y-146830000D01*
X136247377Y-146800000D01*
X136360000Y-146760000D01*
X136490000Y-146720000D01*
X136610000Y-146680000D01*
X136780000Y-146610000D01*
X136930000Y-146550000D01*
X137090000Y-146480000D01*
X137190000Y-146440000D01*
X137310000Y-146390000D01*
X137430000Y-146330000D01*
X137530000Y-146290000D01*
X137620000Y-146250000D01*
X137730000Y-146200000D01*
X137780000Y-146170000D01*
X137850000Y-146130000D01*
X137900000Y-146100000D01*
X137920000Y-146090000D01*
X137930000Y-146100000D01*
X137894986Y-146163311D01*
X137787048Y-146316946D01*
X137718070Y-146409982D01*
X137510634Y-146666762D01*
X137254042Y-146954139D01*
X136967902Y-147252096D01*
X136671817Y-147540620D01*
X136385395Y-147799693D01*
X136227398Y-147931819D01*
X135517743Y-148449328D01*
X134764548Y-148895612D01*
X133974298Y-149267899D01*
X133153478Y-149563415D01*
X132308571Y-149779388D01*
X131650117Y-149889165D01*
X131291986Y-149923589D01*
X130878507Y-149944180D01*
X130437087Y-149950982D01*
X129995130Y-149944039D01*
X129580043Y-149923397D01*
X129219232Y-149889101D01*
X129188740Y-149885130D01*
X128352879Y-149730804D01*
X127528534Y-149495013D01*
X126724662Y-149181632D01*
X125950224Y-148794535D01*
X125214176Y-148337596D01*
X124663476Y-147927966D01*
X124476632Y-147770606D01*
X124279854Y-147592404D01*
X124078668Y-147399764D01*
X123878596Y-147199089D01*
X123685163Y-146996782D01*
X123503893Y-146799248D01*
X123340308Y-146612891D01*
X123199934Y-146444112D01*
X123088294Y-146299317D01*
X123010912Y-146184909D01*
X122973312Y-146107292D01*
X123000000Y-146110000D01*
X123039552Y-146130000D01*
X123100000Y-146160000D01*
X123180000Y-146200000D01*
X123340000Y-146260000D01*
X123470000Y-146310000D01*
X123650000Y-146350000D01*
X123840000Y-146410000D01*
X124070000Y-146480000D01*
X124130000Y-146500000D01*
X124330000Y-146560000D01*
X124540000Y-146610000D01*
X124720000Y-146660000D01*
X124810000Y-146670000D01*
X125000000Y-146720000D01*
X125210000Y-146770000D01*
X125368068Y-146800000D01*
X125690000Y-146880000D01*
X126059179Y-146950000D01*
X126480000Y-147010000D01*
X126960000Y-147070000D01*
X127080000Y-147090000D01*
X127230000Y-147110000D01*
X127350000Y-147130000D01*
X127420000Y-147130000D01*
X127540000Y-147140000D01*
X127660000Y-147140000D01*
X127860000Y-147160000D01*
X128050000Y-147210000D01*
X128160000Y-147280000D01*
X128250000Y-147320000D01*
X128430000Y-147430000D01*
X128640000Y-147470000D01*
X128840000Y-147430000D01*
X128950000Y-147390000D01*
X129090000Y-147330000D01*
X129270000Y-147280000D01*
X129330000Y-147250000D01*
X129480000Y-147200000D01*
X129680000Y-147110000D01*
X129840000Y-146980000D01*
X129990000Y-146820000D01*
X130100000Y-146680000D01*
X130180000Y-146510000D01*
X130200000Y-146380000D01*
X130170000Y-146280000D01*
X130090000Y-146250000D01*
X130010000Y-146300000D01*
X129940000Y-146370000D01*
X129730000Y-146540000D01*
X129490000Y-146670000D01*
X129300000Y-146720000D01*
X129200000Y-146740000D01*
X129120000Y-146740000D01*
X129110000Y-146700000D01*
X129180000Y-146630000D01*
X129280000Y-146560000D01*
X129410000Y-146420000D01*
X129470000Y-146320000D01*
X129480000Y-146240000D01*
X129490000Y-146100000D01*
X129490000Y-145920000D01*
X129470000Y-145720000D01*
X129420000Y-145540000D01*
X129360000Y-145381679D01*
X129320000Y-145290000D01*
X129210000Y-145080000D01*
X129070000Y-144850000D01*
X129000000Y-144710000D01*
X128910000Y-144580000D01*
X128830000Y-144540000D01*
X128780000Y-144560000D01*
X128750000Y-144660000D01*
X128750000Y-144760000D01*
X128780000Y-144900000D01*
X128820000Y-145010000D01*
X128870000Y-145240000D01*
X128880000Y-145400000D01*
X128860000Y-145500000D01*
X128810000Y-145590000D01*
X128780000Y-145630000D01*
X128700000Y-145690000D01*
X128640000Y-145730000D01*
X128610000Y-145750000D01*
X128560000Y-145780000D01*
X128480000Y-145850000D01*
X128380000Y-145950000D01*
X128320000Y-146000000D01*
X128220000Y-146100000D01*
X128150000Y-146160000D01*
X128100000Y-146180000D01*
X128070000Y-146180000D01*
X128030000Y-146170000D01*
X127950000Y-146110000D01*
X127880000Y-146040000D01*
X127780000Y-145960000D01*
X127720000Y-145900000D01*
X127680000Y-145870000D01*
X127650000Y-145830000D01*
X127560000Y-145750000D01*
X127440000Y-145620000D01*
X127300000Y-145500000D01*
X127260000Y-145460000D01*
X127080000Y-145270000D01*
X126930000Y-145090000D01*
X126840000Y-144940000D01*
X126780000Y-144786821D01*
X126750000Y-144620000D01*
X126740000Y-144420000D01*
X126740000Y-144370000D01*
X126780000Y-143960000D01*
X126930000Y-143570000D01*
X127090000Y-143290000D01*
X127210000Y-143120000D01*
X127330000Y-142950000D01*
X127450000Y-142780000D01*
X127530000Y-142680000D01*
X127640000Y-142540000D01*
X127760000Y-142410000D01*
X127900000Y-142260000D01*
X128090000Y-142110000D01*
X128230000Y-142000000D01*
X128340000Y-141930000D01*
X128400000Y-141890000D01*
X128440000Y-141880000D01*
X128500000Y-141870000D01*
X128600000Y-141870000D01*
X128660000Y-141880000D01*
X128690000Y-141920000D01*
X128690000Y-142010000D01*
X128680000Y-142100000D01*
X128680000Y-142239462D01*
X128700000Y-142330000D01*
X128740000Y-142360000D01*
X128810000Y-142390000D01*
X128870000Y-142380000D01*
X128910000Y-142360000D01*
X128940000Y-142340000D01*
X128980000Y-142300000D01*
X129010000Y-142310000D01*
X129020000Y-142350000D01*
X129010000Y-142399391D01*
X129000000Y-142550000D01*
X128990000Y-142730000D01*
X128980000Y-142960000D01*
X129000000Y-143120000D01*
X129010000Y-143190000D01*
X129010000Y-143229714D01*
X129040000Y-143300000D01*
X129070000Y-143360000D01*
X129110000Y-143460000D01*
X129160000Y-143560000D01*
X129210000Y-143650000D01*
X129240000Y-143700000D01*
X129250000Y-143730000D01*
X129260000Y-143760000D01*
X129270000Y-143790000D01*
X129290000Y-143850000D01*
X129320000Y-143910000D01*
X129370000Y-144000000D01*
X129450000Y-144120000D01*
X129550000Y-144240000D01*
X129670000Y-144370000D01*
X129780000Y-144450000D01*
X129870000Y-144510000D01*
X129960000Y-144530000D01*
X129980000Y-144470000D01*
X129940000Y-144370000D01*
X129910000Y-144250000D01*
X129810000Y-144020000D01*
X129710000Y-143830000D01*
X129610000Y-143630000D01*
X129570000Y-143420000D01*
X129560000Y-143200000D01*
X129550000Y-143010000D01*
X129550000Y-142910000D01*
X129550000Y-142850000D01*
X129570000Y-142830000D01*
X129600000Y-142840000D01*
X129640000Y-142860000D01*
X129670000Y-142880000D01*
X129740000Y-142930000D01*
X129820000Y-142980000D01*
X129870000Y-143010000D01*
X129910000Y-143040000D01*
X129940000Y-143080000D01*
X129960000Y-143130000D01*
X130000000Y-143210000D01*
X130070000Y-143323639D01*
X130140000Y-143430000D01*
X130230943Y-143500000D01*
X130260000Y-143500000D01*
X130340000Y-143450000D01*
X130410000Y-143340000D01*
X130450000Y-143170000D01*
X130480000Y-143060000D01*
X130530000Y-143020000D01*
X130590000Y-142981559D01*
X130650000Y-142940000D01*
X130700000Y-142890000D01*
X130740000Y-142850000D01*
X130780000Y-142860000D01*
X130800000Y-142890000D01*
X130830000Y-142990000D01*
X130840000Y-143070000D01*
X130860000Y-143330000D01*
X130800000Y-143630000D01*
X130690000Y-143940000D01*
X130610000Y-144160000D01*
X130570000Y-144297372D01*
X130510000Y-144470000D01*
X130640000Y-144490000D01*
X130720000Y-144450000D01*
X130800000Y-144370000D01*
X130900000Y-144270000D01*
X130980000Y-144160000D01*
X131150000Y-143800000D01*
X131260000Y-143404485D01*
X131350000Y-143020000D01*
X131350000Y-142770000D01*
X131340000Y-142670000D01*
X131320000Y-142530000D01*
X131300000Y-142430000D01*
X131320000Y-142390000D01*
X131350000Y-142360483D01*
X131390000Y-142290000D01*
X131410000Y-142250000D01*
X131430000Y-142220000D01*
X131470000Y-142210000D01*
X131560000Y-142220000D01*
X131630000Y-142240000D01*
X131776507Y-142240000D01*
X131910000Y-142230000D01*
X131920000Y-142190000D01*
X131900000Y-142140000D01*
X131830000Y-142100000D01*
X131790000Y-142060000D01*
X131760000Y-142020000D01*
X131740000Y-141980000D01*
X131740000Y-141942101D01*
X131760000Y-141910000D01*
X131790000Y-141890000D01*
X131870000Y-141870000D01*
X131940000Y-141830000D01*
X132020000Y-141750000D01*
X132070000Y-141730000D01*
X132120000Y-141710000D01*
X132220000Y-141700000D01*
X132340000Y-141680000D01*
X132460000Y-141670000D01*
X132550000Y-141660000D01*
X132630000Y-141680000D01*
G37*
G36*
X85300889Y-81961951D02*
G01*
X85456848Y-82115445D01*
X85610125Y-82251162D01*
X85741290Y-82352676D01*
X85816639Y-82397951D01*
X85935664Y-82456482D01*
X86097274Y-82542156D01*
X86270639Y-82638533D01*
X86307563Y-82659695D01*
X86507395Y-82762603D01*
X86732088Y-82859709D01*
X86935274Y-82931098D01*
X86947899Y-82934732D01*
X87149888Y-82991648D01*
X87386891Y-83058279D01*
X87611700Y-83121354D01*
X87637693Y-83128636D01*
X87960730Y-83200633D01*
X88324097Y-83250918D01*
X88702014Y-83278194D01*
X89068698Y-83281162D01*
X89398368Y-83258525D01*
X89592145Y-83227003D01*
X89776414Y-83190013D01*
X89893864Y-83175200D01*
X89959855Y-83181590D01*
X89986366Y-83202002D01*
X90011301Y-83292601D01*
X90018950Y-83440016D01*
X90010148Y-83617630D01*
X89985731Y-83798827D01*
X89964599Y-83895631D01*
X89909332Y-84109076D01*
X89497683Y-84243196D01*
X89302854Y-84311217D01*
X89121367Y-84382537D01*
X88980292Y-84446174D01*
X88931247Y-84472980D01*
X88823648Y-84531521D01*
X88736957Y-84546110D01*
X88625215Y-84522485D01*
X88598566Y-84514518D01*
X88444402Y-84468416D01*
X88293870Y-84424595D01*
X88271261Y-84418168D01*
X88160040Y-84383287D01*
X87999574Y-84328796D01*
X87820523Y-84265167D01*
X87780336Y-84250489D01*
X87590827Y-84182313D01*
X87402821Y-84117056D01*
X87252575Y-84067265D01*
X87234185Y-84061486D01*
X87074044Y-84000444D01*
X86897297Y-83916799D01*
X86816087Y-83872078D01*
X86695623Y-83804004D01*
X86605152Y-83758302D01*
X86571306Y-83746219D01*
X86506634Y-83708585D01*
X86440813Y-83612704D01*
X86389155Y-83484101D01*
X86373615Y-83416653D01*
X86313946Y-83205068D01*
X86220905Y-83056067D01*
X86101509Y-82976535D01*
X85962772Y-82973357D01*
X85931821Y-82983041D01*
X85843058Y-83037186D01*
X85791779Y-83127780D01*
X85775611Y-83267242D01*
X85792176Y-83467995D01*
X85813299Y-83602817D01*
X85843912Y-83779582D01*
X85647168Y-83854720D01*
X85485400Y-83941364D01*
X85365858Y-84053485D01*
X85297289Y-84175552D01*
X85288443Y-84292032D01*
X85347404Y-84386841D01*
X85426246Y-84416631D01*
X85561650Y-84417202D01*
X85761704Y-84387955D01*
X85987395Y-84339493D01*
X86252031Y-84299215D01*
X86463675Y-84313724D01*
X86592011Y-84365851D01*
X86691544Y-84414254D01*
X86760835Y-84429244D01*
X86833623Y-84446747D01*
X86956798Y-84492761D01*
X87104419Y-84557541D01*
X87112491Y-84561340D01*
X87291895Y-84643239D01*
X87477442Y-84723453D01*
X87607549Y-84776189D01*
X87764550Y-84841276D01*
X87951063Y-84925327D01*
X88090899Y-84992534D01*
X88244585Y-85076276D01*
X88342307Y-85152974D01*
X88408344Y-85244745D01*
X88440585Y-85311075D01*
X88519563Y-85444569D01*
X88611183Y-85534494D01*
X88631619Y-85545789D01*
X88710919Y-85590500D01*
X88740841Y-85622869D01*
X88714653Y-85666061D01*
X88645631Y-85754457D01*
X88548088Y-85869829D01*
X88536724Y-85882823D01*
X88422583Y-86017486D01*
X88321844Y-86144273D01*
X88258055Y-86233172D01*
X88201590Y-86306851D01*
X88136974Y-86334460D01*
X88029782Y-86328356D01*
X88003264Y-86324624D01*
X87825428Y-86292903D01*
X87601721Y-86244503D01*
X87353595Y-86184989D01*
X87102502Y-86119927D01*
X86869895Y-86054885D01*
X86677226Y-85995428D01*
X86545946Y-85947124D01*
X86542353Y-85945537D01*
X86377530Y-85878235D01*
X86207105Y-85817915D01*
X86142459Y-85798260D01*
X85985063Y-85730909D01*
X85854323Y-85632841D01*
X85771214Y-85522809D01*
X85752605Y-85449748D01*
X85724977Y-85368415D01*
X85657320Y-85270430D01*
X85645883Y-85257647D01*
X85575445Y-85171072D01*
X85540120Y-85106949D01*
X85539160Y-85100259D01*
X85510463Y-85045364D01*
X85440203Y-84966552D01*
X85428491Y-84955462D01*
X85358556Y-84868350D01*
X85340264Y-84795397D01*
X85341773Y-84790483D01*
X85334770Y-84736541D01*
X85307760Y-84728068D01*
X85234499Y-84702891D01*
X85151295Y-84648307D01*
X85085928Y-84600694D01*
X85044228Y-84603806D01*
X84999919Y-84667748D01*
X84973380Y-84716720D01*
X84916633Y-84883138D01*
X84922417Y-84994442D01*
X84967167Y-85140127D01*
X85036730Y-85306841D01*
X85116306Y-85463440D01*
X85191093Y-85578781D01*
X85210690Y-85600991D01*
X85268475Y-85691728D01*
X85283026Y-85755655D01*
X85269425Y-85807289D01*
X85214377Y-85831677D01*
X85096512Y-85837978D01*
X85090925Y-85837984D01*
X84976336Y-85844475D01*
X84907620Y-85860900D01*
X84898824Y-85870653D01*
X84862142Y-85901963D01*
X84767954Y-85947272D01*
X84686073Y-85978884D01*
X84510209Y-86065238D01*
X84415374Y-86172150D01*
X84398990Y-86302868D01*
X84405083Y-86332884D01*
X84428594Y-86384552D01*
X84476072Y-86418081D01*
X84558772Y-86433906D01*
X84687951Y-86432463D01*
X84874865Y-86414187D01*
X85130772Y-86379513D01*
X85230469Y-86364817D01*
X85711525Y-86293011D01*
X86062906Y-86405400D01*
X86244923Y-86461287D01*
X86414655Y-86509387D01*
X86541662Y-86541175D01*
X86563698Y-86545673D01*
X86700526Y-86582619D01*
X86819776Y-86632311D01*
X86819832Y-86632341D01*
X86914590Y-86672813D01*
X87064192Y-86724314D01*
X87244331Y-86779854D01*
X87430702Y-86832443D01*
X87598996Y-86875091D01*
X87724906Y-86900807D01*
X87768686Y-86905211D01*
X87817287Y-86912889D01*
X87838225Y-86949718D01*
X87836733Y-87036392D01*
X87825927Y-87131559D01*
X87820534Y-87304017D01*
X87864478Y-87415721D01*
X87969907Y-87482769D01*
X88116466Y-87516601D01*
X88227435Y-87537855D01*
X88296525Y-87559050D01*
X88303483Y-87563539D01*
X88300402Y-87611694D01*
X88266685Y-87706346D01*
X88248932Y-87745751D01*
X88187768Y-87885893D01*
X88121989Y-88052906D01*
X88097278Y-88120807D01*
X88021819Y-88335295D01*
X87516876Y-88347674D01*
X87193156Y-88347493D01*
X86930226Y-88328119D01*
X86713110Y-88289763D01*
X86530327Y-88242691D01*
X86323524Y-88183003D01*
X86111481Y-88116898D01*
X85912976Y-88050577D01*
X85746791Y-87990240D01*
X85631705Y-87942087D01*
X85592715Y-87919873D01*
X85548379Y-87864202D01*
X85477209Y-87753893D01*
X85392387Y-87609731D01*
X85365607Y-87561825D01*
X85281659Y-87418104D01*
X85209001Y-87308750D01*
X85159642Y-87251313D01*
X85150028Y-87246723D01*
X85078272Y-87280584D01*
X84995953Y-87362191D01*
X84927873Y-87461584D01*
X84898836Y-87548799D01*
X84898824Y-87550176D01*
X84919062Y-87633404D01*
X84972171Y-87762056D01*
X85046740Y-87908558D01*
X85048236Y-87911238D01*
X85121961Y-88048467D01*
X85175341Y-88158120D01*
X85197541Y-88217832D01*
X85197647Y-88219579D01*
X85161246Y-88258528D01*
X85069370Y-88311524D01*
X84948012Y-88367070D01*
X84823166Y-88413668D01*
X84720825Y-88439821D01*
X84694753Y-88442017D01*
X84587325Y-88479965D01*
X84508085Y-88575477D01*
X84477852Y-88701060D01*
X84479406Y-88726393D01*
X84491979Y-88795568D01*
X84524020Y-88830414D01*
X84597804Y-88840906D01*
X84727303Y-88837378D01*
X84897532Y-88818129D01*
X85097763Y-88778753D01*
X85243784Y-88739774D01*
X85526238Y-88652355D01*
X86034296Y-88766246D01*
X86246691Y-88811134D01*
X86434372Y-88842986D01*
X86621276Y-88864098D01*
X86831342Y-88876766D01*
X87088505Y-88883285D01*
X87274593Y-88885194D01*
X88006832Y-88890253D01*
X88073076Y-89036203D01*
X88111452Y-89138742D01*
X88122124Y-89206705D01*
X88119862Y-89213636D01*
X88045139Y-89267322D01*
X87896891Y-89317515D01*
X87686942Y-89363057D01*
X87427115Y-89402790D01*
X87129230Y-89435557D01*
X86805111Y-89460198D01*
X86466580Y-89475556D01*
X86125460Y-89480474D01*
X85793573Y-89473793D01*
X85581849Y-89462222D01*
X85424973Y-89449363D01*
X85304101Y-89431085D01*
X85196555Y-89399107D01*
X85079657Y-89345147D01*
X84930729Y-89260924D01*
X84776488Y-89168136D01*
X84333985Y-88899726D01*
X83905776Y-88923322D01*
X83477566Y-88946918D01*
X83069611Y-88705140D01*
X82890439Y-88589137D01*
X82700552Y-88449713D01*
X82512834Y-88298343D01*
X82340169Y-88146501D01*
X82195441Y-88005661D01*
X82091534Y-87887298D01*
X82041333Y-87802888D01*
X82038656Y-87786969D01*
X82004185Y-87719205D01*
X81974622Y-87700865D01*
X81920932Y-87642263D01*
X81917129Y-87552219D01*
X81964055Y-87469175D01*
X81969453Y-87464459D01*
X81998744Y-87449161D01*
X82044992Y-87445249D01*
X82118597Y-87455243D01*
X82229956Y-87481667D01*
X82389468Y-87527041D01*
X82607531Y-87593889D01*
X82894543Y-87684731D01*
X82947899Y-87701770D01*
X83115334Y-87774117D01*
X83254623Y-87882480D01*
X83382551Y-88043239D01*
X83497447Y-88238054D01*
X83608871Y-88412257D01*
X83711595Y-88502871D01*
X83807305Y-88511052D01*
X83854990Y-88483006D01*
X83907310Y-88392612D01*
X83905444Y-88249546D01*
X83848963Y-88048619D01*
X83811068Y-87951093D01*
X83756277Y-87811509D01*
X83717763Y-87700865D01*
X83704543Y-87647315D01*
X83741361Y-87611547D01*
X83840072Y-87558742D01*
X83981531Y-87498740D01*
X84026134Y-87482012D01*
X84247358Y-87387680D01*
X84384775Y-87296761D01*
X84418857Y-87257335D01*
X84463197Y-87177593D01*
X84452140Y-87126226D01*
X84396670Y-87075573D01*
X84348190Y-87041313D01*
X84296863Y-87026519D01*
X84222751Y-87032713D01*
X84105914Y-87061416D01*
X83938410Y-87110553D01*
X83755171Y-87163044D01*
X83625602Y-87190876D01*
X83522485Y-87196716D01*
X83418602Y-87183229D01*
X83349843Y-87168204D01*
X83127753Y-87115671D01*
X82967403Y-87075740D01*
X82847219Y-87042350D01*
X82745628Y-87009436D01*
X82641056Y-86970938D01*
X82622377Y-86963766D01*
X82502544Y-86914170D01*
X82446203Y-86872921D01*
X82436458Y-86819606D01*
X82450457Y-86756057D01*
X82489082Y-86449127D01*
X82447526Y-86138610D01*
X82328837Y-85839963D01*
X82242492Y-85701292D01*
X82209292Y-85637712D01*
X82210922Y-85615471D01*
X82253267Y-85583961D01*
X82340463Y-85517351D01*
X82409682Y-85464012D01*
X82529249Y-85384591D01*
X82636883Y-85334577D01*
X82680709Y-85325715D01*
X82824809Y-85352735D01*
X82961570Y-85421718D01*
X83061289Y-85514548D01*
X83091517Y-85576260D01*
X83142521Y-85731029D01*
X83218049Y-85898496D01*
X83304151Y-86052659D01*
X83386878Y-86167517D01*
X83430152Y-86207454D01*
X83540637Y-86251534D01*
X83626356Y-86257495D01*
X83676943Y-86244458D01*
X83706412Y-86210612D01*
X83720428Y-86137047D01*
X83724655Y-86004852D01*
X83724874Y-85928603D01*
X83720432Y-85754422D01*
X83705137Y-85649648D01*
X83676036Y-85598677D01*
X83660841Y-85590204D01*
X83565408Y-85517012D01*
X83533428Y-85388259D01*
X83533427Y-85388135D01*
X83548666Y-85335805D01*
X83606173Y-85291730D01*
X83722290Y-85245969D01*
X83814030Y-85217378D01*
X83978266Y-85153648D01*
X84136943Y-85067141D01*
X84270654Y-84971445D01*
X84359995Y-84880144D01*
X84386555Y-84816570D01*
X84351453Y-84777060D01*
X84266972Y-84731582D01*
X84266257Y-84731286D01*
X84202750Y-84709825D01*
X84134616Y-84702495D01*
X84044437Y-84711624D01*
X83914794Y-84739537D01*
X83728270Y-84788558D01*
X83625997Y-84816774D01*
X83466478Y-84846059D01*
X83321225Y-84830454D01*
X83269101Y-84816231D01*
X83161233Y-84778661D01*
X83116771Y-84737345D01*
X83116229Y-84668087D01*
X83122516Y-84634228D01*
X83140376Y-84499678D01*
X83148522Y-84348995D01*
X83148572Y-84338530D01*
X83148572Y-84173110D01*
X83381227Y-84173110D01*
X83529833Y-84162124D01*
X83689444Y-84124655D01*
X83884896Y-84053930D01*
X84007580Y-84002353D01*
X84175633Y-83930572D01*
X84313160Y-83873908D01*
X84402283Y-83839609D01*
X84425933Y-83832745D01*
X84460971Y-83866467D01*
X84521389Y-83950529D01*
X84553830Y-84001301D01*
X84671144Y-84142171D01*
X84804092Y-84225172D01*
X84936102Y-84246661D01*
X85050600Y-84202995D01*
X85115320Y-84124721D01*
X85134068Y-84055755D01*
X85115014Y-83966518D01*
X85052772Y-83832514D01*
X85049864Y-83826940D01*
X84992739Y-83704584D01*
X84961960Y-83611908D01*
X84961349Y-83577904D01*
X85012865Y-83547631D01*
X85119320Y-83510839D01*
X85193987Y-83490963D01*
X85386677Y-83422469D01*
X85498417Y-83329075D01*
X85528766Y-83211207D01*
X85522225Y-83172287D01*
X85467988Y-83080854D01*
X85358208Y-83034768D01*
X85185991Y-83032551D01*
X85001735Y-83060753D01*
X84834727Y-83085715D01*
X84712229Y-83087665D01*
X84667953Y-83076484D01*
X84608653Y-83020919D01*
X84527926Y-82918265D01*
X84473260Y-82837372D01*
X84357140Y-82690077D01*
X84228961Y-82582689D01*
X84195174Y-82564015D01*
X84099011Y-82506394D01*
X84047683Y-82452715D01*
X84045042Y-82442053D01*
X84076987Y-82351759D01*
X84162352Y-82227739D01*
X84285440Y-82086380D01*
X84430548Y-81944070D01*
X84581978Y-81817200D01*
X84724028Y-81722156D01*
X84745931Y-81710436D01*
X84955896Y-81603039D01*
X85300889Y-81961951D01*
G37*
D10*
X77875000Y-85500000D03*
D11*
X77875000Y-88040000D03*
D12*
X73200000Y-114100000D03*
X73200000Y-105900000D03*
D13*
X106000000Y-100000000D03*
X98380000Y-100000000D03*
D12*
X105800000Y-114100000D03*
D10*
X142100000Y-80500000D03*
D11*
X142100000Y-83040000D03*
D14*
X92000000Y-122480000D03*
D15*
X92000000Y-119940000D03*
D16*
X89460000Y-122480000D03*
X89460000Y-119940000D03*
D15*
X86920000Y-122480000D03*
X86920000Y-119940000D03*
D13*
X80610000Y-123250000D03*
X72990000Y-123250000D03*
D12*
X146900000Y-114100000D03*
D14*
X128060000Y-97520000D03*
D15*
X128060000Y-100060000D03*
D16*
X130600000Y-97520000D03*
X130600000Y-100060000D03*
D15*
X133140000Y-97520000D03*
X133140000Y-100060000D03*
D17*
X75770000Y-109250000D03*
X75770000Y-110750000D03*
X76520000Y-109250000D03*
X76520000Y-110750000D03*
X77270000Y-109250000D03*
X77270000Y-110750000D03*
X101670000Y-109250000D03*
X101670000Y-110750000D03*
X102420000Y-109250000D03*
X102420000Y-110750000D03*
X103170000Y-109250000D03*
X103170000Y-110750000D03*
X109260000Y-101980000D03*
X109260000Y-102730000D03*
X109260000Y-103480000D03*
X109310000Y-116520000D03*
X109310000Y-117270000D03*
X109310000Y-118020000D03*
X110760000Y-101980000D03*
X110760000Y-102730000D03*
X110760000Y-103480000D03*
X110810000Y-116520000D03*
X110810000Y-117270000D03*
X110810000Y-118020000D03*
X116850000Y-109250000D03*
X116850000Y-110750000D03*
X117600000Y-109250000D03*
X117600000Y-110750000D03*
X118350000Y-109250000D03*
X118350000Y-110750000D03*
X142750000Y-109250000D03*
X142750000Y-110750000D03*
X143500000Y-109250000D03*
X143500000Y-110750000D03*
X144250000Y-109250000D03*
X144250000Y-110750000D03*
D13*
X106000000Y-120000000D03*
X98380000Y-120000000D03*
X147000000Y-100000000D03*
X139380000Y-100000000D03*
X139370000Y-96790000D03*
X146990000Y-96790000D03*
D18*
X93598439Y-75098439D03*
D11*
X95394490Y-76894490D03*
D13*
X121650000Y-123250000D03*
X114030000Y-123250000D03*
D14*
X86990000Y-97520000D03*
D15*
X86990000Y-100060000D03*
D16*
X89530000Y-97520000D03*
X89530000Y-100060000D03*
D15*
X92070000Y-97520000D03*
X92070000Y-100060000D03*
D12*
X147750000Y-104650000D03*
D10*
X118200000Y-80500000D03*
D11*
X118200000Y-83040000D03*
D19*
X120573439Y-134976561D03*
D11*
X122369490Y-133180510D03*
D13*
X114000000Y-100000000D03*
X121620000Y-100000000D03*
D12*
X113350000Y-104650000D03*
D10*
X102625000Y-134815000D03*
D11*
X102625000Y-132275000D03*
D20*
X140201561Y-134825000D03*
D11*
X138405510Y-133028949D03*
D13*
X114000000Y-120000000D03*
X121620000Y-120000000D03*
D14*
X133080000Y-122480000D03*
D15*
X133080000Y-119940000D03*
D16*
X130540000Y-122480000D03*
X130540000Y-119940000D03*
D15*
X128000000Y-122480000D03*
X128000000Y-119940000D03*
D13*
X147000000Y-120000000D03*
X139380000Y-120000000D03*
D10*
X78050000Y-140600000D03*
D11*
X78050000Y-138060000D03*
D12*
X114300000Y-114100000D03*
D13*
X98375000Y-96790000D03*
X105995000Y-96790000D03*
D12*
X105800000Y-105900000D03*
D13*
X73000000Y-120000000D03*
X80620000Y-120000000D03*
X72000000Y-102000000D03*
X79620000Y-102000000D03*
M02*
