G04 #@! TF.GenerationSoftware,KiCad,Pcbnew,7.0.10*
G04 #@! TF.CreationDate,2024-06-20T08:36:21-05:00*
G04 #@! TF.ProjectId,g0dzilla_vs_sao1,6730647a-696c-46c6-915f-76735f73616f,1*
G04 #@! TF.SameCoordinates,Original*
G04 #@! TF.FileFunction,Copper,L2,Bot*
G04 #@! TF.FilePolarity,Positive*
%FSLAX46Y46*%
G04 Gerber Fmt 4.6, Leading zero omitted, Abs format (unit mm)*
G04 Created by KiCad (PCBNEW 7.0.10) date 2024-06-20 08:36:21*
%MOMM*%
%LPD*%
G01*
G04 APERTURE LIST*
G04 Aperture macros list*
%AMRotRect*
0 Rectangle, with rotation*
0 The origin of the aperture is its center*
0 $1 length*
0 $2 width*
0 $3 Rotation angle, in degrees counterclockwise*
0 Add horizontal line*
21,1,$1,$2,0,0,$3*%
G04 Aperture macros list end*
G04 #@! TA.AperFunction,ComponentPad*
%ADD10R,1.800000X1.800000*%
G04 #@! TD*
G04 #@! TA.AperFunction,ComponentPad*
%ADD11C,1.800000*%
G04 #@! TD*
G04 #@! TA.AperFunction,ComponentPad*
%ADD12C,1.400000*%
G04 #@! TD*
G04 #@! TA.AperFunction,ComponentPad*
%ADD13R,1.727200X1.727200*%
G04 #@! TD*
G04 #@! TA.AperFunction,ComponentPad*
%ADD14C,1.727200*%
G04 #@! TD*
G04 #@! TA.AperFunction,ComponentPad*
%ADD15O,1.727200X1.727200*%
G04 #@! TD*
G04 #@! TA.AperFunction,ComponentPad*
%ADD16RotRect,1.800000X1.800000X315.000000*%
G04 #@! TD*
G04 #@! TA.AperFunction,ComponentPad*
%ADD17RotRect,1.800000X1.800000X45.000000*%
G04 #@! TD*
G04 #@! TA.AperFunction,ComponentPad*
%ADD18RotRect,1.800000X1.800000X135.000000*%
G04 #@! TD*
G04 #@! TA.AperFunction,Conductor*
%ADD19C,0.300000*%
G04 #@! TD*
G04 #@! TA.AperFunction,Conductor*
%ADD20C,0.400000*%
G04 #@! TD*
G04 APERTURE END LIST*
D10*
X77875000Y-85500000D03*
D11*
X77875000Y-88040000D03*
D12*
X106000000Y-100000000D03*
X98380000Y-100000000D03*
D10*
X142100000Y-80500000D03*
D11*
X142100000Y-83040000D03*
D13*
X92000000Y-122480000D03*
D14*
X92000000Y-119940000D03*
D15*
X89460000Y-122480000D03*
X89460000Y-119940000D03*
D14*
X86920000Y-122480000D03*
X86920000Y-119940000D03*
D12*
X80610000Y-123250000D03*
X72990000Y-123250000D03*
D13*
X128060000Y-97520000D03*
D14*
X128060000Y-100060000D03*
D15*
X130600000Y-97520000D03*
X130600000Y-100060000D03*
D14*
X133140000Y-97520000D03*
X133140000Y-100060000D03*
D12*
X106000000Y-120000000D03*
X98380000Y-120000000D03*
X147000000Y-100000000D03*
X139380000Y-100000000D03*
X139370000Y-96790000D03*
X146990000Y-96790000D03*
D16*
X93598439Y-75098439D03*
D11*
X95394490Y-76894490D03*
D12*
X121650000Y-123250000D03*
X114030000Y-123250000D03*
D13*
X86990000Y-97520000D03*
D14*
X86990000Y-100060000D03*
D15*
X89530000Y-97520000D03*
X89530000Y-100060000D03*
D14*
X92070000Y-97520000D03*
X92070000Y-100060000D03*
D10*
X118200000Y-80500000D03*
D11*
X118200000Y-83040000D03*
D17*
X120573439Y-134976561D03*
D11*
X122369490Y-133180510D03*
D12*
X114000000Y-100000000D03*
X121620000Y-100000000D03*
D10*
X102625000Y-134815000D03*
D11*
X102625000Y-132275000D03*
D18*
X140201561Y-134825000D03*
D11*
X138405510Y-133028949D03*
D12*
X114000000Y-120000000D03*
X121620000Y-120000000D03*
D13*
X133080000Y-122480000D03*
D14*
X133080000Y-119940000D03*
D15*
X130540000Y-122480000D03*
X130540000Y-119940000D03*
D14*
X128000000Y-122480000D03*
X128000000Y-119940000D03*
D12*
X147000000Y-120000000D03*
X139380000Y-120000000D03*
D10*
X78050000Y-140600000D03*
D11*
X78050000Y-138060000D03*
D12*
X98375000Y-96790000D03*
X105995000Y-96790000D03*
X73000000Y-120000000D03*
X80620000Y-120000000D03*
X72000000Y-102000000D03*
X79620000Y-102000000D03*
D19*
X86990000Y-92335000D02*
X88275000Y-91050000D01*
X102600000Y-91050000D02*
X105995000Y-94445000D01*
X102275000Y-86625000D02*
X102275000Y-82450000D01*
X88275000Y-91050000D02*
X97850000Y-91050000D01*
X96719490Y-76894490D02*
X95394490Y-76894490D01*
X77875000Y-90225000D02*
X77875000Y-88040000D01*
X86990000Y-97520000D02*
X86990000Y-93465000D01*
X85650000Y-92125000D02*
X79775000Y-92125000D01*
X86990000Y-93465000D02*
X86990000Y-92335000D01*
X97850000Y-91050000D02*
X102600000Y-91050000D01*
X102275000Y-82450000D02*
X96719490Y-76894490D01*
X105995000Y-94445000D02*
X105995000Y-96790000D01*
X79775000Y-92125000D02*
X77875000Y-90225000D01*
X97850000Y-91050000D02*
X102275000Y-86625000D01*
X86990000Y-93465000D02*
X85650000Y-92125000D01*
D20*
X86990000Y-100060000D02*
X86990000Y-101465000D01*
X80590000Y-100060000D02*
X86990000Y-100060000D01*
X79620000Y-101030000D02*
X80590000Y-100060000D01*
X96230000Y-102150000D02*
X98380000Y-100000000D01*
X79620000Y-102000000D02*
X79620000Y-101030000D01*
X86990000Y-101465000D02*
X87675000Y-102150000D01*
X87675000Y-102150000D02*
X96230000Y-102150000D01*
X86930000Y-100000000D02*
X86990000Y-100060000D01*
D19*
X92070000Y-100060000D02*
X95340000Y-96790000D01*
X95340000Y-96790000D02*
X98375000Y-96790000D01*
X120500000Y-88000000D02*
X118200000Y-85700000D01*
X128060000Y-93400000D02*
X131000000Y-90460000D01*
X128060000Y-93400000D02*
X122660000Y-88000000D01*
X118200000Y-85700000D02*
X118200000Y-83040000D01*
X142100000Y-85000000D02*
X142100000Y-83040000D01*
X131000000Y-90460000D02*
X136640000Y-90460000D01*
X128060000Y-97520000D02*
X128060000Y-93400000D01*
X146990000Y-95050000D02*
X146990000Y-96790000D01*
X136640000Y-90460000D02*
X142100000Y-85000000D01*
X142400000Y-90460000D02*
X146990000Y-95050000D01*
X122660000Y-88000000D02*
X120500000Y-88000000D01*
X136640000Y-90460000D02*
X142400000Y-90460000D01*
D20*
X121680000Y-100060000D02*
X121620000Y-100000000D01*
X128060000Y-100060000D02*
X128060000Y-101290000D01*
X128060000Y-100060000D02*
X121680000Y-100060000D01*
X128060000Y-101290000D02*
X128990000Y-102220000D01*
X128990000Y-102220000D02*
X137160000Y-102220000D01*
X137160000Y-102220000D02*
X139380000Y-100000000D01*
D19*
X133140000Y-100060000D02*
X136410000Y-96790000D01*
X136410000Y-96790000D02*
X139370000Y-96790000D01*
X72990000Y-124515000D02*
X72990000Y-123250000D01*
X92000000Y-125325000D02*
X94000000Y-127325000D01*
X102625000Y-130750000D02*
X102625000Y-132275000D01*
X99200000Y-127325000D02*
X102625000Y-130750000D01*
X86100000Y-125325000D02*
X78050000Y-133375000D01*
X92000000Y-122480000D02*
X92000000Y-125325000D01*
X94000000Y-127325000D02*
X99200000Y-127325000D01*
X73800000Y-125325000D02*
X72990000Y-124515000D01*
X86100000Y-125325000D02*
X73800000Y-125325000D01*
X92000000Y-125325000D02*
X86100000Y-125325000D01*
X78050000Y-133375000D02*
X78050000Y-138060000D01*
D20*
X98320000Y-119940000D02*
X98380000Y-120000000D01*
X90975000Y-117600000D02*
X83020000Y-117600000D01*
X92000000Y-118625000D02*
X90975000Y-117600000D01*
X92000000Y-119940000D02*
X92000000Y-118625000D01*
X83020000Y-117600000D02*
X80620000Y-120000000D01*
X92000000Y-119940000D02*
X98320000Y-119940000D01*
D19*
X83610000Y-123250000D02*
X80610000Y-123250000D01*
X86920000Y-119940000D02*
X83610000Y-123250000D01*
X133080000Y-127703439D02*
X138405510Y-133028949D01*
X114030000Y-125180000D02*
X114030000Y-123250000D01*
X116553439Y-127703439D02*
X114030000Y-125180000D01*
X133080000Y-122480000D02*
X133080000Y-127703439D01*
X127846561Y-127703439D02*
X116553439Y-127703439D01*
X133080000Y-127703439D02*
X127846561Y-127703439D01*
X127846561Y-127703439D02*
X122369490Y-133180510D01*
D20*
X123695000Y-117925000D02*
X121620000Y-120000000D01*
X132175000Y-117925000D02*
X123695000Y-117925000D01*
X139380000Y-120000000D02*
X133140000Y-120000000D01*
X133080000Y-119940000D02*
X133080000Y-118830000D01*
X133140000Y-120000000D02*
X133080000Y-119940000D01*
X133080000Y-118830000D02*
X132175000Y-117925000D01*
D19*
X124690000Y-123250000D02*
X121650000Y-123250000D01*
X128000000Y-119940000D02*
X124690000Y-123250000D01*
X72000000Y-102000000D02*
X72000000Y-90475000D01*
X72000000Y-90475000D02*
X76975000Y-85500000D01*
X76975000Y-85500000D02*
X77875000Y-85500000D01*
X103425000Y-89875000D02*
X103425000Y-81875000D01*
X107375000Y-93825000D02*
X103425000Y-89875000D01*
X94421878Y-74275000D02*
X93598439Y-75098439D01*
X107375000Y-98625000D02*
X107375000Y-93825000D01*
X106000000Y-100000000D02*
X107375000Y-98625000D01*
X95825000Y-74275000D02*
X94421878Y-74275000D01*
X103425000Y-81875000D02*
X95825000Y-74275000D01*
X114000000Y-88730000D02*
X116350000Y-86380000D01*
X114000000Y-100000000D02*
X114000000Y-88730000D01*
X117010000Y-80500000D02*
X118200000Y-80500000D01*
X116350000Y-81160000D02*
X117010000Y-80500000D01*
X116350000Y-86380000D02*
X116350000Y-81160000D01*
X143310000Y-80500000D02*
X142100000Y-80500000D01*
X148750000Y-93580000D02*
X144250000Y-89080000D01*
X144250000Y-81440000D02*
X143310000Y-80500000D01*
X147000000Y-100000000D02*
X148750000Y-98250000D01*
X148750000Y-98250000D02*
X148750000Y-93580000D01*
X144250000Y-89080000D02*
X144250000Y-81440000D01*
X106000000Y-120000000D02*
X106000000Y-124000000D01*
X106000000Y-124000000D02*
X104350000Y-125650000D01*
X104350000Y-134325000D02*
X103860000Y-134815000D01*
X104350000Y-125650000D02*
X104350000Y-134325000D01*
X103860000Y-134815000D02*
X102625000Y-134815000D01*
X75675000Y-129750000D02*
X75675000Y-138225000D01*
X71400000Y-125475000D02*
X75675000Y-129750000D01*
X73000000Y-120000000D02*
X71400000Y-121600000D01*
X75675000Y-138225000D02*
X78050000Y-140600000D01*
X71400000Y-121600000D02*
X71400000Y-125475000D01*
X147000000Y-120000000D02*
X147000000Y-128026561D01*
X147000000Y-128026561D02*
X140201561Y-134825000D01*
X112575000Y-126978122D02*
X120573439Y-134976561D01*
X114000000Y-120000000D02*
X112575000Y-121425000D01*
X112575000Y-121425000D02*
X112575000Y-126978122D01*
M02*
