M48
INCH,TZ
T1C0.0197
T2C0.0787
%
G90
G05
T1
X29831Y-43012
X29831Y-43602
X30126Y-43012
X30126Y-43602
X30421Y-43012
X30421Y-43602
X40028Y-43012
X40028Y-43602
X40323Y-43012
X40323Y-43602
X40618Y-43012
X40618Y-43602
X43016Y-40150
X43016Y-40445
X43016Y-40740
X43035Y-45874
X43035Y-46169
X43035Y-46465
X43606Y-40150
X43606Y-40445
X43606Y-40740
X43626Y-45874
X43626Y-46169
X43626Y-46465
X46004Y-43012
X46004Y-43602
X46299Y-43012
X46299Y-43602
X46594Y-43012
X46594Y-43602
X56201Y-43012
X56201Y-43602
X56496Y-43012
X56496Y-43602
X56791Y-43012
X56791Y-43602
T2
X28819Y-41693
X28819Y-44921
X41654Y-41693
X41654Y-44921
X44626Y-41201
X45000Y-44921
X57835Y-44921
X58169Y-41201
M30
