M48
INCH,TZ
T1C0.0276
T2C0.0354
T3C0.0400
%
G90
G05
T1
X28346Y-40157
X28736Y-48524
X28740Y-47244
X31346Y-40157
X31736Y-48524
X31740Y-47244
X38730Y-38106
X38732Y-39370
X38732Y-47244
X41730Y-38106
X41732Y-39370
X41732Y-47244
X44882Y-39370
X44882Y-47244
X44894Y-48524
X47882Y-39370
X47882Y-47244
X47894Y-48524
X54870Y-38106
X54874Y-39370
X54874Y-47244
X57870Y-38106
X57874Y-39370
X57874Y-47244
T2
X30659Y-33661
X30659Y-34661
X30728Y-54354
X30728Y-55354
X36850Y-29566
X37557Y-30273
X40404Y-52077
X40404Y-53077
X46535Y-31693
X46535Y-32693
X47470Y-53140
X48177Y-52433
X54490Y-52374
X55197Y-53081
X55945Y-31693
X55945Y-32693
T3
X34220Y-47220
X34220Y-48220
X34248Y-38394
X34248Y-39394
X35220Y-47220
X35220Y-48220
X35248Y-38394
X35248Y-39394
X36220Y-47220
X36220Y-48220
X36248Y-38394
X36248Y-39394
X50394Y-47220
X50394Y-48220
X50417Y-38394
X50417Y-39394
X51394Y-47220
X51394Y-48220
X51417Y-38394
X51417Y-39394
X52394Y-47220
X52394Y-48220
X52417Y-38394
X52417Y-39394
M30
