G04 #@! TF.GenerationSoftware,KiCad,Pcbnew,7.0.10*
G04 #@! TF.CreationDate,2024-06-20T09:05:48-05:00*
G04 #@! TF.ProjectId,g0dzilla_vs_rear,6730647a-696c-46c6-915f-76735f726561,1*
G04 #@! TF.SameCoordinates,Original*
G04 #@! TF.FileFunction,Copper,L2,Bot*
G04 #@! TF.FilePolarity,Positive*
%FSLAX46Y46*%
G04 Gerber Fmt 4.6, Leading zero omitted, Abs format (unit mm)*
G04 Created by KiCad (PCBNEW 7.0.10) date 2024-06-20 09:05:48*
%MOMM*%
%LPD*%
G01*
G04 APERTURE LIST*
G04 #@! TA.AperFunction,EtchedComponent*
%ADD10C,0.010000*%
G04 #@! TD*
G04 APERTURE END LIST*
D10*
X58495000Y-98387000D02*
X57944667Y-98387000D01*
X57944667Y-97074667D01*
X57944887Y-96920378D01*
X57946744Y-96608782D01*
X57950289Y-96330787D01*
X57955275Y-96096606D01*
X57961456Y-95916451D01*
X57968585Y-95800537D01*
X57976417Y-95759075D01*
X58012306Y-95756701D01*
X58114004Y-95751392D01*
X58251583Y-95744955D01*
X58495000Y-95734093D01*
X58495000Y-98387000D01*
G04 #@! TA.AperFunction,EtchedComponent*
G36*
X58495000Y-98387000D02*
G01*
X57944667Y-98387000D01*
X57944667Y-97074667D01*
X57944887Y-96920378D01*
X57946744Y-96608782D01*
X57950289Y-96330787D01*
X57955275Y-96096606D01*
X57961456Y-95916451D01*
X57968585Y-95800537D01*
X57976417Y-95759075D01*
X58012306Y-95756701D01*
X58114004Y-95751392D01*
X58251583Y-95744955D01*
X58495000Y-95734093D01*
X58495000Y-98387000D01*
G37*
G04 #@! TD.AperFunction*
X62275274Y-90885974D02*
X62333383Y-90902865D01*
X62350394Y-90936334D01*
X62351286Y-90997442D01*
X62351753Y-91121348D01*
X62351804Y-91284046D01*
X62351481Y-91462252D01*
X62350828Y-91632683D01*
X62349887Y-91772054D01*
X62348701Y-91857084D01*
X62320586Y-91886054D01*
X62223938Y-91904240D01*
X62051000Y-91910000D01*
X61754667Y-91910000D01*
X61754667Y-90900948D01*
X62051096Y-90886891D01*
X62159665Y-90882950D01*
X62275274Y-90885974D01*
G04 #@! TA.AperFunction,EtchedComponent*
G36*
X62275274Y-90885974D02*
G01*
X62333383Y-90902865D01*
X62350394Y-90936334D01*
X62351286Y-90997442D01*
X62351753Y-91121348D01*
X62351804Y-91284046D01*
X62351481Y-91462252D01*
X62350828Y-91632683D01*
X62349887Y-91772054D01*
X62348701Y-91857084D01*
X62320586Y-91886054D01*
X62223938Y-91904240D01*
X62051000Y-91910000D01*
X61754667Y-91910000D01*
X61754667Y-90900948D01*
X62051096Y-90886891D01*
X62159665Y-90882950D01*
X62275274Y-90885974D01*
G37*
G04 #@! TD.AperFunction*
X61416000Y-91952334D02*
X61087917Y-91955275D01*
X60894494Y-91958790D01*
X60700119Y-91965240D01*
X60548167Y-91973211D01*
X60517645Y-91975233D01*
X60375504Y-91983238D01*
X60177810Y-91993097D01*
X59946497Y-92003749D01*
X59703501Y-92014130D01*
X59594010Y-92018897D01*
X59384693Y-92029721D01*
X59214225Y-92040839D01*
X59097863Y-92051185D01*
X59050862Y-92059694D01*
X59050503Y-92060033D01*
X58997232Y-92073676D01*
X58898828Y-92079334D01*
X58766434Y-92079334D01*
X58783496Y-91539584D01*
X58784484Y-91508636D01*
X58791327Y-91309386D01*
X58797735Y-91146527D01*
X58803029Y-91036139D01*
X58806529Y-90994302D01*
X58813374Y-90993483D01*
X58884734Y-90989927D01*
X59023667Y-90984646D01*
X59217849Y-90978065D01*
X59454956Y-90970611D01*
X59722667Y-90962707D01*
X59759220Y-90961648D01*
X60059641Y-90952083D01*
X60356688Y-90941257D01*
X60630044Y-90930002D01*
X60859393Y-90919147D01*
X61024417Y-90909522D01*
X61416000Y-90882400D01*
X61416000Y-91952334D01*
G04 #@! TA.AperFunction,EtchedComponent*
G36*
X61416000Y-91952334D02*
G01*
X61087917Y-91955275D01*
X60894494Y-91958790D01*
X60700119Y-91965240D01*
X60548167Y-91973211D01*
X60517645Y-91975233D01*
X60375504Y-91983238D01*
X60177810Y-91993097D01*
X59946497Y-92003749D01*
X59703501Y-92014130D01*
X59594010Y-92018897D01*
X59384693Y-92029721D01*
X59214225Y-92040839D01*
X59097863Y-92051185D01*
X59050862Y-92059694D01*
X59050503Y-92060033D01*
X58997232Y-92073676D01*
X58898828Y-92079334D01*
X58766434Y-92079334D01*
X58783496Y-91539584D01*
X58784484Y-91508636D01*
X58791327Y-91309386D01*
X58797735Y-91146527D01*
X58803029Y-91036139D01*
X58806529Y-90994302D01*
X58813374Y-90993483D01*
X58884734Y-90989927D01*
X59023667Y-90984646D01*
X59217849Y-90978065D01*
X59454956Y-90970611D01*
X59722667Y-90962707D01*
X59759220Y-90961648D01*
X60059641Y-90952083D01*
X60356688Y-90941257D01*
X60630044Y-90930002D01*
X60859393Y-90919147D01*
X61024417Y-90909522D01*
X61416000Y-90882400D01*
X61416000Y-91952334D01*
G37*
G04 #@! TD.AperFunction*
X65584526Y-112873592D02*
X65582033Y-112957037D01*
X65526385Y-113059965D01*
X65464597Y-113173080D01*
X65434159Y-113344590D01*
X65460087Y-113514008D01*
X65541576Y-113650091D01*
X65610669Y-113702382D01*
X65774717Y-113758276D01*
X65962131Y-113759791D01*
X66143958Y-113704321D01*
X66178057Y-113683513D01*
X66264181Y-113581788D01*
X66308215Y-113449021D01*
X66308840Y-113310517D01*
X66264734Y-113191578D01*
X66174579Y-113117509D01*
X66110895Y-113077194D01*
X66072667Y-112993048D01*
X66072687Y-112989721D01*
X66086569Y-112937219D01*
X66141058Y-112913122D01*
X66257983Y-112907334D01*
X66323128Y-112910199D01*
X66447855Y-112939997D01*
X66509983Y-112996333D01*
X66498909Y-113071960D01*
X66496212Y-113077039D01*
X66487550Y-113158569D01*
X66507831Y-113269662D01*
X66523062Y-113414313D01*
X66483868Y-113597097D01*
X66395019Y-113764406D01*
X66268880Y-113884426D01*
X66257201Y-113891294D01*
X66098956Y-113947493D01*
X65882167Y-113965350D01*
X65720324Y-113954119D01*
X65505034Y-113887934D01*
X65350449Y-113762943D01*
X65257221Y-113579768D01*
X65226000Y-113339029D01*
X65226060Y-113330752D01*
X65250686Y-113161425D01*
X65311501Y-113005831D01*
X65396130Y-112887613D01*
X65492200Y-112830414D01*
X65536919Y-112830155D01*
X65584526Y-112873592D01*
G04 #@! TA.AperFunction,EtchedComponent*
G36*
X65584526Y-112873592D02*
G01*
X65582033Y-112957037D01*
X65526385Y-113059965D01*
X65464597Y-113173080D01*
X65434159Y-113344590D01*
X65460087Y-113514008D01*
X65541576Y-113650091D01*
X65610669Y-113702382D01*
X65774717Y-113758276D01*
X65962131Y-113759791D01*
X66143958Y-113704321D01*
X66178057Y-113683513D01*
X66264181Y-113581788D01*
X66308215Y-113449021D01*
X66308840Y-113310517D01*
X66264734Y-113191578D01*
X66174579Y-113117509D01*
X66110895Y-113077194D01*
X66072667Y-112993048D01*
X66072687Y-112989721D01*
X66086569Y-112937219D01*
X66141058Y-112913122D01*
X66257983Y-112907334D01*
X66323128Y-112910199D01*
X66447855Y-112939997D01*
X66509983Y-112996333D01*
X66498909Y-113071960D01*
X66496212Y-113077039D01*
X66487550Y-113158569D01*
X66507831Y-113269662D01*
X66523062Y-113414313D01*
X66483868Y-113597097D01*
X66395019Y-113764406D01*
X66268880Y-113884426D01*
X66257201Y-113891294D01*
X66098956Y-113947493D01*
X65882167Y-113965350D01*
X65720324Y-113954119D01*
X65505034Y-113887934D01*
X65350449Y-113762943D01*
X65257221Y-113579768D01*
X65226000Y-113339029D01*
X65226060Y-113330752D01*
X65250686Y-113161425D01*
X65311501Y-113005831D01*
X65396130Y-112887613D01*
X65492200Y-112830414D01*
X65536919Y-112830155D01*
X65584526Y-112873592D01*
G37*
G04 #@! TD.AperFunction*
X65818473Y-107725540D02*
X65822383Y-107729840D01*
X65836528Y-107800501D01*
X65798472Y-107924312D01*
X65764140Y-108021305D01*
X65736669Y-108173486D01*
X65748981Y-108290288D01*
X65800963Y-108351971D01*
X65831654Y-108359867D01*
X65939559Y-108372630D01*
X66076129Y-108377667D01*
X66284333Y-108377667D01*
X66284333Y-108190629D01*
X66285890Y-108108314D01*
X66303646Y-107967485D01*
X66345280Y-107892059D01*
X66415863Y-107869667D01*
X66453313Y-107875995D01*
X66480664Y-107911053D01*
X66493075Y-107993590D01*
X66496000Y-108142151D01*
X66496000Y-108414636D01*
X66633583Y-108427901D01*
X66669237Y-108432305D01*
X66749022Y-108462376D01*
X66771167Y-108525834D01*
X66765507Y-108564546D01*
X66720445Y-108604982D01*
X66612417Y-108623639D01*
X66540056Y-108632704D01*
X66471705Y-108662505D01*
X66453667Y-108721833D01*
X66453223Y-108731812D01*
X66419708Y-108788245D01*
X66354434Y-108796746D01*
X66287815Y-108762168D01*
X66250266Y-108689368D01*
X66237004Y-108645019D01*
X66196462Y-108612807D01*
X66110244Y-108593935D01*
X65958860Y-108581168D01*
X65949007Y-108580514D01*
X65746665Y-108549144D01*
X65614925Y-108482960D01*
X65544363Y-108373982D01*
X65525554Y-108214227D01*
X65529285Y-108149730D01*
X65559628Y-107986483D01*
X65612604Y-107847616D01*
X65679328Y-107747954D01*
X65750912Y-107702321D01*
X65818473Y-107725540D01*
G04 #@! TA.AperFunction,EtchedComponent*
G36*
X65818473Y-107725540D02*
G01*
X65822383Y-107729840D01*
X65836528Y-107800501D01*
X65798472Y-107924312D01*
X65764140Y-108021305D01*
X65736669Y-108173486D01*
X65748981Y-108290288D01*
X65800963Y-108351971D01*
X65831654Y-108359867D01*
X65939559Y-108372630D01*
X66076129Y-108377667D01*
X66284333Y-108377667D01*
X66284333Y-108190629D01*
X66285890Y-108108314D01*
X66303646Y-107967485D01*
X66345280Y-107892059D01*
X66415863Y-107869667D01*
X66453313Y-107875995D01*
X66480664Y-107911053D01*
X66493075Y-107993590D01*
X66496000Y-108142151D01*
X66496000Y-108414636D01*
X66633583Y-108427901D01*
X66669237Y-108432305D01*
X66749022Y-108462376D01*
X66771167Y-108525834D01*
X66765507Y-108564546D01*
X66720445Y-108604982D01*
X66612417Y-108623639D01*
X66540056Y-108632704D01*
X66471705Y-108662505D01*
X66453667Y-108721833D01*
X66453223Y-108731812D01*
X66419708Y-108788245D01*
X66354434Y-108796746D01*
X66287815Y-108762168D01*
X66250266Y-108689368D01*
X66237004Y-108645019D01*
X66196462Y-108612807D01*
X66110244Y-108593935D01*
X65958860Y-108581168D01*
X65949007Y-108580514D01*
X65746665Y-108549144D01*
X65614925Y-108482960D01*
X65544363Y-108373982D01*
X65525554Y-108214227D01*
X65529285Y-108149730D01*
X65559628Y-107986483D01*
X65612604Y-107847616D01*
X65679328Y-107747954D01*
X65750912Y-107702321D01*
X65818473Y-107725540D01*
G37*
G04 #@! TD.AperFunction*
X66581064Y-107086856D02*
X66550646Y-107272192D01*
X66469262Y-107433578D01*
X66336718Y-107549399D01*
X66213893Y-107598777D01*
X66029097Y-107611438D01*
X65862912Y-107554475D01*
X65728762Y-107436990D01*
X65640068Y-107268082D01*
X65610254Y-107056852D01*
X65623976Y-106877291D01*
X65666120Y-106697414D01*
X65731365Y-106574514D01*
X65814612Y-106521939D01*
X65878657Y-106519819D01*
X65899549Y-106554545D01*
X65886741Y-106648939D01*
X65867052Y-106756208D01*
X65834255Y-106995407D01*
X65831242Y-107164708D01*
X65857697Y-107270828D01*
X65896801Y-107328662D01*
X65941703Y-107361667D01*
X65953321Y-107343229D01*
X65972380Y-107256863D01*
X65991230Y-107115936D01*
X65993638Y-107088999D01*
X66199667Y-107088999D01*
X66201212Y-107170533D01*
X66216496Y-107303751D01*
X66247225Y-107355931D01*
X66292286Y-107326154D01*
X66350562Y-107213500D01*
X66384147Y-107119272D01*
X66387586Y-107027713D01*
X66349289Y-106914120D01*
X66320596Y-106853258D01*
X66270762Y-106793637D01*
X66232630Y-106814650D01*
X66208249Y-106913902D01*
X66199667Y-107088999D01*
X65993638Y-107088999D01*
X66007106Y-106938334D01*
X66017801Y-106802135D01*
X66039127Y-106637932D01*
X66072283Y-106543085D01*
X66125801Y-106508048D01*
X66208214Y-106523274D01*
X66328053Y-106579217D01*
X66368445Y-106603317D01*
X66489770Y-106730802D01*
X66560707Y-106899187D01*
X66574649Y-107027713D01*
X66581064Y-107086856D01*
G04 #@! TA.AperFunction,EtchedComponent*
G36*
X66581064Y-107086856D02*
G01*
X66550646Y-107272192D01*
X66469262Y-107433578D01*
X66336718Y-107549399D01*
X66213893Y-107598777D01*
X66029097Y-107611438D01*
X65862912Y-107554475D01*
X65728762Y-107436990D01*
X65640068Y-107268082D01*
X65610254Y-107056852D01*
X65623976Y-106877291D01*
X65666120Y-106697414D01*
X65731365Y-106574514D01*
X65814612Y-106521939D01*
X65878657Y-106519819D01*
X65899549Y-106554545D01*
X65886741Y-106648939D01*
X65867052Y-106756208D01*
X65834255Y-106995407D01*
X65831242Y-107164708D01*
X65857697Y-107270828D01*
X65896801Y-107328662D01*
X65941703Y-107361667D01*
X65953321Y-107343229D01*
X65972380Y-107256863D01*
X65991230Y-107115936D01*
X65993638Y-107088999D01*
X66199667Y-107088999D01*
X66201212Y-107170533D01*
X66216496Y-107303751D01*
X66247225Y-107355931D01*
X66292286Y-107326154D01*
X66350562Y-107213500D01*
X66384147Y-107119272D01*
X66387586Y-107027713D01*
X66349289Y-106914120D01*
X66320596Y-106853258D01*
X66270762Y-106793637D01*
X66232630Y-106814650D01*
X66208249Y-106913902D01*
X66199667Y-107088999D01*
X65993638Y-107088999D01*
X66007106Y-106938334D01*
X66017801Y-106802135D01*
X66039127Y-106637932D01*
X66072283Y-106543085D01*
X66125801Y-106508048D01*
X66208214Y-106523274D01*
X66328053Y-106579217D01*
X66368445Y-106603317D01*
X66489770Y-106730802D01*
X66560707Y-106899187D01*
X66574649Y-107027713D01*
X66581064Y-107086856D01*
G37*
G04 #@! TD.AperFunction*
X66164363Y-111606654D02*
X66245441Y-111675844D01*
X66283988Y-111788685D01*
X66274851Y-111923642D01*
X66212878Y-112059179D01*
X66210336Y-112062830D01*
X66169752Y-112142212D01*
X66191711Y-112177959D01*
X66214656Y-112209457D01*
X66234695Y-112299379D01*
X66242446Y-112413903D01*
X66236082Y-112519535D01*
X66213778Y-112582778D01*
X66188438Y-112597179D01*
X66107945Y-112611000D01*
X66051660Y-112589730D01*
X66030333Y-112505167D01*
X66028102Y-112464606D01*
X65996926Y-112411933D01*
X65908625Y-112399334D01*
X65800040Y-112393331D01*
X65660731Y-112374096D01*
X65584818Y-112364173D01*
X65535161Y-112390511D01*
X65508331Y-112479930D01*
X65506742Y-112487602D01*
X65467011Y-112582695D01*
X65396392Y-112611000D01*
X65393227Y-112610984D01*
X65348823Y-112601916D01*
X65324007Y-112563566D01*
X65313278Y-112477492D01*
X65311133Y-112325250D01*
X65311722Y-112246057D01*
X65322014Y-112007449D01*
X65346097Y-111844718D01*
X65385310Y-111751643D01*
X65440994Y-111722000D01*
X65450608Y-111722355D01*
X65493631Y-111743529D01*
X65517762Y-111811134D01*
X65530705Y-111944250D01*
X65543500Y-112166500D01*
X65698325Y-112179405D01*
X65804568Y-112178076D01*
X65882340Y-112139421D01*
X65965440Y-112045090D01*
X66022887Y-111961311D01*
X66057647Y-111862116D01*
X66049320Y-111746435D01*
X66036650Y-111656451D01*
X66050089Y-111606497D01*
X66101822Y-111595000D01*
X66164363Y-111606654D01*
G04 #@! TA.AperFunction,EtchedComponent*
G36*
X66164363Y-111606654D02*
G01*
X66245441Y-111675844D01*
X66283988Y-111788685D01*
X66274851Y-111923642D01*
X66212878Y-112059179D01*
X66210336Y-112062830D01*
X66169752Y-112142212D01*
X66191711Y-112177959D01*
X66214656Y-112209457D01*
X66234695Y-112299379D01*
X66242446Y-112413903D01*
X66236082Y-112519535D01*
X66213778Y-112582778D01*
X66188438Y-112597179D01*
X66107945Y-112611000D01*
X66051660Y-112589730D01*
X66030333Y-112505167D01*
X66028102Y-112464606D01*
X65996926Y-112411933D01*
X65908625Y-112399334D01*
X65800040Y-112393331D01*
X65660731Y-112374096D01*
X65584818Y-112364173D01*
X65535161Y-112390511D01*
X65508331Y-112479930D01*
X65506742Y-112487602D01*
X65467011Y-112582695D01*
X65396392Y-112611000D01*
X65393227Y-112610984D01*
X65348823Y-112601916D01*
X65324007Y-112563566D01*
X65313278Y-112477492D01*
X65311133Y-112325250D01*
X65311722Y-112246057D01*
X65322014Y-112007449D01*
X65346097Y-111844718D01*
X65385310Y-111751643D01*
X65440994Y-111722000D01*
X65450608Y-111722355D01*
X65493631Y-111743529D01*
X65517762Y-111811134D01*
X65530705Y-111944250D01*
X65543500Y-112166500D01*
X65698325Y-112179405D01*
X65804568Y-112178076D01*
X65882340Y-112139421D01*
X65965440Y-112045090D01*
X66022887Y-111961311D01*
X66057647Y-111862116D01*
X66049320Y-111746435D01*
X66036650Y-111656451D01*
X66050089Y-111606497D01*
X66101822Y-111595000D01*
X66164363Y-111606654D01*
G37*
G04 #@! TD.AperFunction*
X60988223Y-85303202D02*
X61152167Y-85307924D01*
X61299594Y-85314483D01*
X61407789Y-85322081D01*
X61454034Y-85329923D01*
X61455927Y-85332166D01*
X61470241Y-85397455D01*
X61471130Y-85513198D01*
X61460795Y-85649223D01*
X61441438Y-85775354D01*
X61415260Y-85861418D01*
X61411958Y-85867655D01*
X61343480Y-85971086D01*
X61254741Y-86078584D01*
X61146160Y-86195000D01*
X61416000Y-86195000D01*
X61416072Y-87189834D01*
X60982119Y-87189834D01*
X60804507Y-87191590D01*
X60582782Y-87196591D01*
X60333955Y-87204211D01*
X60071992Y-87213825D01*
X59810862Y-87224807D01*
X59564530Y-87236532D01*
X59346964Y-87248373D01*
X59172131Y-87259705D01*
X59053996Y-87269902D01*
X59006528Y-87278339D01*
X58974124Y-87289091D01*
X58890111Y-87295667D01*
X58814008Y-87275872D01*
X58788633Y-87200417D01*
X58787586Y-87157471D01*
X58784988Y-87034429D01*
X58781654Y-86864615D01*
X58778050Y-86671294D01*
X58770167Y-86237421D01*
X59307833Y-86237377D01*
X59590299Y-86233759D01*
X59853601Y-86218691D01*
X60057927Y-86189064D01*
X60216863Y-86141854D01*
X60343998Y-86074040D01*
X60452917Y-85982596D01*
X60536530Y-85893634D01*
X60586831Y-85812373D01*
X60607598Y-85714080D01*
X60611667Y-85564981D01*
X60612593Y-85478883D01*
X60621480Y-85370248D01*
X60644120Y-85317799D01*
X60685750Y-85303010D01*
X60701647Y-85302446D01*
X60830478Y-85301110D01*
X60988223Y-85303202D01*
G04 #@! TA.AperFunction,EtchedComponent*
G36*
X60988223Y-85303202D02*
G01*
X61152167Y-85307924D01*
X61299594Y-85314483D01*
X61407789Y-85322081D01*
X61454034Y-85329923D01*
X61455927Y-85332166D01*
X61470241Y-85397455D01*
X61471130Y-85513198D01*
X61460795Y-85649223D01*
X61441438Y-85775354D01*
X61415260Y-85861418D01*
X61411958Y-85867655D01*
X61343480Y-85971086D01*
X61254741Y-86078584D01*
X61146160Y-86195000D01*
X61416000Y-86195000D01*
X61416072Y-87189834D01*
X60982119Y-87189834D01*
X60804507Y-87191590D01*
X60582782Y-87196591D01*
X60333955Y-87204211D01*
X60071992Y-87213825D01*
X59810862Y-87224807D01*
X59564530Y-87236532D01*
X59346964Y-87248373D01*
X59172131Y-87259705D01*
X59053996Y-87269902D01*
X59006528Y-87278339D01*
X58974124Y-87289091D01*
X58890111Y-87295667D01*
X58814008Y-87275872D01*
X58788633Y-87200417D01*
X58787586Y-87157471D01*
X58784988Y-87034429D01*
X58781654Y-86864615D01*
X58778050Y-86671294D01*
X58770167Y-86237421D01*
X59307833Y-86237377D01*
X59590299Y-86233759D01*
X59853601Y-86218691D01*
X60057927Y-86189064D01*
X60216863Y-86141854D01*
X60343998Y-86074040D01*
X60452917Y-85982596D01*
X60536530Y-85893634D01*
X60586831Y-85812373D01*
X60607598Y-85714080D01*
X60611667Y-85564981D01*
X60612593Y-85478883D01*
X60621480Y-85370248D01*
X60644120Y-85317799D01*
X60685750Y-85303010D01*
X60701647Y-85302446D01*
X60830478Y-85301110D01*
X60988223Y-85303202D01*
G37*
G04 #@! TD.AperFunction*
X62258972Y-100834046D02*
X62272023Y-100851861D01*
X62290111Y-100947289D01*
X62301220Y-101120827D01*
X62305000Y-101368426D01*
X62305000Y-101887463D01*
X61361183Y-101916461D01*
X61241622Y-101920236D01*
X60969646Y-101929602D01*
X60727017Y-101939009D01*
X60527557Y-101947863D01*
X60385089Y-101955569D01*
X60313433Y-101961532D01*
X60300153Y-101963269D01*
X60201841Y-101971820D01*
X60042748Y-101982450D01*
X59841768Y-101993973D01*
X59617793Y-102005204D01*
X59543244Y-102008774D01*
X59338462Y-102019613D01*
X59171588Y-102029961D01*
X59058184Y-102038793D01*
X59013809Y-102045080D01*
X58978211Y-102052120D01*
X58891859Y-102053095D01*
X58782186Y-102048834D01*
X58782224Y-101554713D01*
X58783992Y-101368973D01*
X58789243Y-101198960D01*
X58797136Y-101076782D01*
X58806823Y-101020852D01*
X58808853Y-101018757D01*
X58868120Y-101003350D01*
X58993000Y-100989730D01*
X59166661Y-100979309D01*
X59372276Y-100973494D01*
X59381866Y-100973357D01*
X59599180Y-100969202D01*
X59795479Y-100963617D01*
X59949546Y-100957316D01*
X60040167Y-100951014D01*
X60079469Y-100947438D01*
X60204885Y-100939051D01*
X60386935Y-100928811D01*
X60607806Y-100917695D01*
X60849682Y-100906678D01*
X60954088Y-100902011D01*
X61222407Y-100888757D01*
X61481729Y-100874365D01*
X61706851Y-100860282D01*
X61872571Y-100847954D01*
X61915887Y-100844386D01*
X62075203Y-100834019D01*
X62197425Y-100830289D01*
X62258972Y-100834046D01*
G04 #@! TA.AperFunction,EtchedComponent*
G36*
X62258972Y-100834046D02*
G01*
X62272023Y-100851861D01*
X62290111Y-100947289D01*
X62301220Y-101120827D01*
X62305000Y-101368426D01*
X62305000Y-101887463D01*
X61361183Y-101916461D01*
X61241622Y-101920236D01*
X60969646Y-101929602D01*
X60727017Y-101939009D01*
X60527557Y-101947863D01*
X60385089Y-101955569D01*
X60313433Y-101961532D01*
X60300153Y-101963269D01*
X60201841Y-101971820D01*
X60042748Y-101982450D01*
X59841768Y-101993973D01*
X59617793Y-102005204D01*
X59543244Y-102008774D01*
X59338462Y-102019613D01*
X59171588Y-102029961D01*
X59058184Y-102038793D01*
X59013809Y-102045080D01*
X58978211Y-102052120D01*
X58891859Y-102053095D01*
X58782186Y-102048834D01*
X58782224Y-101554713D01*
X58783992Y-101368973D01*
X58789243Y-101198960D01*
X58797136Y-101076782D01*
X58806823Y-101020852D01*
X58808853Y-101018757D01*
X58868120Y-101003350D01*
X58993000Y-100989730D01*
X59166661Y-100979309D01*
X59372276Y-100973494D01*
X59381866Y-100973357D01*
X59599180Y-100969202D01*
X59795479Y-100963617D01*
X59949546Y-100957316D01*
X60040167Y-100951014D01*
X60079469Y-100947438D01*
X60204885Y-100939051D01*
X60386935Y-100928811D01*
X60607806Y-100917695D01*
X60849682Y-100906678D01*
X60954088Y-100902011D01*
X61222407Y-100888757D01*
X61481729Y-100874365D01*
X61706851Y-100860282D01*
X61872571Y-100847954D01*
X61915887Y-100844386D01*
X62075203Y-100834019D01*
X62197425Y-100830289D01*
X62258972Y-100834046D01*
G37*
G04 #@! TD.AperFunction*
X66030333Y-110781692D02*
X66014081Y-110937798D01*
X65951569Y-111132898D01*
X65854632Y-111284279D01*
X65784441Y-111342335D01*
X65657666Y-111382540D01*
X65536765Y-111356443D01*
X65437918Y-111274172D01*
X65377306Y-111145854D01*
X65373924Y-111056264D01*
X65572873Y-111056264D01*
X65580106Y-111092424D01*
X65618524Y-111160559D01*
X65671484Y-111161402D01*
X65728045Y-111104349D01*
X65777266Y-110998798D01*
X65808208Y-110854144D01*
X65808750Y-110849310D01*
X65816401Y-110732497D01*
X65801440Y-110677455D01*
X65758512Y-110663667D01*
X65739639Y-110667795D01*
X65676953Y-110725483D01*
X65619162Y-110828703D01*
X65579919Y-110948586D01*
X65572873Y-111056264D01*
X65373924Y-111056264D01*
X65371107Y-110981617D01*
X65383273Y-110891620D01*
X65403439Y-110722107D01*
X65421852Y-110547250D01*
X65433482Y-110442299D01*
X65453680Y-110341291D01*
X65483715Y-110294242D01*
X65531228Y-110282667D01*
X65582520Y-110296641D01*
X65637067Y-110367334D01*
X65657568Y-110411393D01*
X65718253Y-110443534D01*
X65838454Y-110452000D01*
X65886924Y-110452852D01*
X66107053Y-110486902D01*
X66259886Y-110571596D01*
X66346334Y-110708229D01*
X66367310Y-110898100D01*
X66323726Y-111142507D01*
X66295922Y-111226246D01*
X66252294Y-111283733D01*
X66186379Y-111290653D01*
X66123784Y-111266027D01*
X66104592Y-111192813D01*
X66108174Y-111164987D01*
X66123125Y-111051196D01*
X66141469Y-110913580D01*
X66151998Y-110799452D01*
X66140244Y-110726576D01*
X66098961Y-110692659D01*
X66083549Y-110687652D01*
X66041704Y-110700930D01*
X66037259Y-110732497D01*
X66030333Y-110781692D01*
G04 #@! TA.AperFunction,EtchedComponent*
G36*
X66030333Y-110781692D02*
G01*
X66014081Y-110937798D01*
X65951569Y-111132898D01*
X65854632Y-111284279D01*
X65784441Y-111342335D01*
X65657666Y-111382540D01*
X65536765Y-111356443D01*
X65437918Y-111274172D01*
X65377306Y-111145854D01*
X65373924Y-111056264D01*
X65572873Y-111056264D01*
X65580106Y-111092424D01*
X65618524Y-111160559D01*
X65671484Y-111161402D01*
X65728045Y-111104349D01*
X65777266Y-110998798D01*
X65808208Y-110854144D01*
X65808750Y-110849310D01*
X65816401Y-110732497D01*
X65801440Y-110677455D01*
X65758512Y-110663667D01*
X65739639Y-110667795D01*
X65676953Y-110725483D01*
X65619162Y-110828703D01*
X65579919Y-110948586D01*
X65572873Y-111056264D01*
X65373924Y-111056264D01*
X65371107Y-110981617D01*
X65383273Y-110891620D01*
X65403439Y-110722107D01*
X65421852Y-110547250D01*
X65433482Y-110442299D01*
X65453680Y-110341291D01*
X65483715Y-110294242D01*
X65531228Y-110282667D01*
X65582520Y-110296641D01*
X65637067Y-110367334D01*
X65657568Y-110411393D01*
X65718253Y-110443534D01*
X65838454Y-110452000D01*
X65886924Y-110452852D01*
X66107053Y-110486902D01*
X66259886Y-110571596D01*
X66346334Y-110708229D01*
X66367310Y-110898100D01*
X66323726Y-111142507D01*
X66295922Y-111226246D01*
X66252294Y-111283733D01*
X66186379Y-111290653D01*
X66123784Y-111266027D01*
X66104592Y-111192813D01*
X66108174Y-111164987D01*
X66123125Y-111051196D01*
X66141469Y-110913580D01*
X66151998Y-110799452D01*
X66140244Y-110726576D01*
X66098961Y-110692659D01*
X66083549Y-110687652D01*
X66041704Y-110700930D01*
X66037259Y-110732497D01*
X66030333Y-110781692D01*
G37*
G04 #@! TD.AperFunction*
X66780946Y-109122616D02*
X66807540Y-109178334D01*
X66827639Y-109314444D01*
X66819411Y-109474594D01*
X66785720Y-109624949D01*
X66729427Y-109731677D01*
X66652072Y-109786597D01*
X66535136Y-109817000D01*
X66490526Y-109819477D01*
X66424571Y-109853184D01*
X66389649Y-109946357D01*
X66361786Y-110018730D01*
X66302699Y-110063537D01*
X66243409Y-110036538D01*
X66207987Y-109938744D01*
X66198544Y-109888966D01*
X66166661Y-109845982D01*
X66093274Y-109821443D01*
X65956866Y-109803786D01*
X65914875Y-109799592D01*
X65772550Y-109791121D01*
X65692474Y-109804660D01*
X65657213Y-109847101D01*
X65649333Y-109925332D01*
X65631622Y-110003197D01*
X65564667Y-110028667D01*
X65532063Y-110025223D01*
X65503841Y-110002029D01*
X65488177Y-109942739D01*
X65481439Y-109831167D01*
X65480000Y-109651129D01*
X65482948Y-109433074D01*
X65494049Y-109285103D01*
X65516608Y-109195592D01*
X65553929Y-109151470D01*
X65609317Y-109139667D01*
X65620409Y-109140118D01*
X65663289Y-109161547D01*
X65687211Y-109229060D01*
X65700038Y-109361917D01*
X65712833Y-109584167D01*
X65949976Y-109596676D01*
X66187118Y-109609184D01*
X66225142Y-109385009D01*
X66239986Y-109309222D01*
X66278637Y-109196966D01*
X66326667Y-109160834D01*
X66364200Y-109181496D01*
X66389088Y-109257834D01*
X66402863Y-109404250D01*
X66413352Y-109526819D01*
X66437106Y-109619339D01*
X66475457Y-109647667D01*
X66490886Y-109646228D01*
X66560924Y-109592768D01*
X66606641Y-109471028D01*
X66623000Y-109293115D01*
X66630201Y-109184924D01*
X66661986Y-109089956D01*
X66714080Y-109067194D01*
X66780946Y-109122616D01*
G04 #@! TA.AperFunction,EtchedComponent*
G36*
X66780946Y-109122616D02*
G01*
X66807540Y-109178334D01*
X66827639Y-109314444D01*
X66819411Y-109474594D01*
X66785720Y-109624949D01*
X66729427Y-109731677D01*
X66652072Y-109786597D01*
X66535136Y-109817000D01*
X66490526Y-109819477D01*
X66424571Y-109853184D01*
X66389649Y-109946357D01*
X66361786Y-110018730D01*
X66302699Y-110063537D01*
X66243409Y-110036538D01*
X66207987Y-109938744D01*
X66198544Y-109888966D01*
X66166661Y-109845982D01*
X66093274Y-109821443D01*
X65956866Y-109803786D01*
X65914875Y-109799592D01*
X65772550Y-109791121D01*
X65692474Y-109804660D01*
X65657213Y-109847101D01*
X65649333Y-109925332D01*
X65631622Y-110003197D01*
X65564667Y-110028667D01*
X65532063Y-110025223D01*
X65503841Y-110002029D01*
X65488177Y-109942739D01*
X65481439Y-109831167D01*
X65480000Y-109651129D01*
X65482948Y-109433074D01*
X65494049Y-109285103D01*
X65516608Y-109195592D01*
X65553929Y-109151470D01*
X65609317Y-109139667D01*
X65620409Y-109140118D01*
X65663289Y-109161547D01*
X65687211Y-109229060D01*
X65700038Y-109361917D01*
X65712833Y-109584167D01*
X65949976Y-109596676D01*
X66187118Y-109609184D01*
X66225142Y-109385009D01*
X66239986Y-109309222D01*
X66278637Y-109196966D01*
X66326667Y-109160834D01*
X66364200Y-109181496D01*
X66389088Y-109257834D01*
X66402863Y-109404250D01*
X66413352Y-109526819D01*
X66437106Y-109619339D01*
X66475457Y-109647667D01*
X66490886Y-109646228D01*
X66560924Y-109592768D01*
X66606641Y-109471028D01*
X66623000Y-109293115D01*
X66630201Y-109184924D01*
X66661986Y-109089956D01*
X66714080Y-109067194D01*
X66780946Y-109122616D01*
G37*
G04 #@! TD.AperFunction*
X66809879Y-103283467D02*
X66767249Y-103456417D01*
X66757650Y-103499163D01*
X66770315Y-103534553D01*
X66830487Y-103548944D01*
X66956729Y-103551667D01*
X67173333Y-103551667D01*
X67173333Y-103713945D01*
X67172935Y-103741520D01*
X67163391Y-103847278D01*
X67145111Y-103904445D01*
X67142751Y-103906728D01*
X67068566Y-103935423D01*
X66994996Y-103914115D01*
X66961667Y-103853754D01*
X66960374Y-103841694D01*
X66910295Y-103788027D01*
X66785387Y-103750406D01*
X66582777Y-103728256D01*
X66299592Y-103721000D01*
X66280895Y-103721045D01*
X66132642Y-103727210D01*
X66053648Y-103745861D01*
X66030333Y-103779971D01*
X66003376Y-103840397D01*
X65935372Y-103866208D01*
X65867696Y-103834901D01*
X65844823Y-103766746D01*
X65832622Y-103634824D01*
X65831812Y-103464649D01*
X65841174Y-103279594D01*
X65853844Y-103157450D01*
X66039346Y-103157450D01*
X66049201Y-103304988D01*
X66115000Y-103424667D01*
X66196331Y-103479825D01*
X66307424Y-103509334D01*
X66377239Y-103496280D01*
X66495239Y-103424188D01*
X66586426Y-103313382D01*
X66623000Y-103191834D01*
X66602857Y-103096448D01*
X66525784Y-102985795D01*
X66412939Y-102907303D01*
X66287902Y-102875955D01*
X66174254Y-102906732D01*
X66172717Y-102907768D01*
X66081748Y-103014296D01*
X66039346Y-103157450D01*
X65853844Y-103157450D01*
X65859488Y-103103033D01*
X65885534Y-102958339D01*
X65918094Y-102868885D01*
X66025726Y-102754922D01*
X66182779Y-102682394D01*
X66355635Y-102672184D01*
X66525141Y-102721619D01*
X66672139Y-102828028D01*
X66777477Y-102988739D01*
X66799600Y-103047702D01*
X66820437Y-103157569D01*
X66817563Y-103191834D01*
X66809879Y-103283467D01*
G04 #@! TA.AperFunction,EtchedComponent*
G36*
X66809879Y-103283467D02*
G01*
X66767249Y-103456417D01*
X66757650Y-103499163D01*
X66770315Y-103534553D01*
X66830487Y-103548944D01*
X66956729Y-103551667D01*
X67173333Y-103551667D01*
X67173333Y-103713945D01*
X67172935Y-103741520D01*
X67163391Y-103847278D01*
X67145111Y-103904445D01*
X67142751Y-103906728D01*
X67068566Y-103935423D01*
X66994996Y-103914115D01*
X66961667Y-103853754D01*
X66960374Y-103841694D01*
X66910295Y-103788027D01*
X66785387Y-103750406D01*
X66582777Y-103728256D01*
X66299592Y-103721000D01*
X66280895Y-103721045D01*
X66132642Y-103727210D01*
X66053648Y-103745861D01*
X66030333Y-103779971D01*
X66003376Y-103840397D01*
X65935372Y-103866208D01*
X65867696Y-103834901D01*
X65844823Y-103766746D01*
X65832622Y-103634824D01*
X65831812Y-103464649D01*
X65841174Y-103279594D01*
X65853844Y-103157450D01*
X66039346Y-103157450D01*
X66049201Y-103304988D01*
X66115000Y-103424667D01*
X66196331Y-103479825D01*
X66307424Y-103509334D01*
X66377239Y-103496280D01*
X66495239Y-103424188D01*
X66586426Y-103313382D01*
X66623000Y-103191834D01*
X66602857Y-103096448D01*
X66525784Y-102985795D01*
X66412939Y-102907303D01*
X66287902Y-102875955D01*
X66174254Y-102906732D01*
X66172717Y-102907768D01*
X66081748Y-103014296D01*
X66039346Y-103157450D01*
X65853844Y-103157450D01*
X65859488Y-103103033D01*
X65885534Y-102958339D01*
X65918094Y-102868885D01*
X66025726Y-102754922D01*
X66182779Y-102682394D01*
X66355635Y-102672184D01*
X66525141Y-102721619D01*
X66672139Y-102828028D01*
X66777477Y-102988739D01*
X66799600Y-103047702D01*
X66820437Y-103157569D01*
X66817563Y-103191834D01*
X66809879Y-103283467D01*
G37*
G04 #@! TD.AperFunction*
X66650209Y-105941347D02*
X66580088Y-106122691D01*
X66438456Y-106259060D01*
X66369480Y-106297681D01*
X66180194Y-106347333D01*
X65998499Y-106313794D01*
X65831665Y-106197798D01*
X65750793Y-106111789D01*
X65707961Y-106038096D01*
X65696666Y-105947419D01*
X65706154Y-105806215D01*
X65708006Y-105785205D01*
X65892771Y-105785205D01*
X65900243Y-105924747D01*
X65965060Y-106047374D01*
X65981250Y-106063833D01*
X66097055Y-106124660D01*
X66222549Y-106119275D01*
X66337381Y-106057718D01*
X66421204Y-105950033D01*
X66453667Y-105806261D01*
X66446344Y-105751488D01*
X66383282Y-105629756D01*
X66277635Y-105536324D01*
X66156314Y-105499000D01*
X66132389Y-105500332D01*
X66017049Y-105549473D01*
X65934442Y-105652272D01*
X65892771Y-105785205D01*
X65708006Y-105785205D01*
X65714017Y-105716997D01*
X65729714Y-105522007D01*
X65741839Y-105350834D01*
X65744848Y-105307965D01*
X65760606Y-105198777D01*
X65792176Y-105145509D01*
X65850417Y-105125639D01*
X65923161Y-105132360D01*
X65945667Y-105193511D01*
X65945786Y-105199745D01*
X65959040Y-105240132D01*
X66006141Y-105266897D01*
X66104007Y-105285722D01*
X66269554Y-105302288D01*
X66458467Y-105315782D01*
X66657960Y-105325828D01*
X66817389Y-105329667D01*
X66904121Y-105332078D01*
X67010275Y-105343598D01*
X67059100Y-105361417D01*
X67061623Y-105368293D01*
X67065618Y-105440674D01*
X67056967Y-105551917D01*
X67050667Y-105593739D01*
X67018482Y-105684017D01*
X66961973Y-105710667D01*
X66914313Y-105694884D01*
X66864734Y-105626000D01*
X66831577Y-105570085D01*
X66733607Y-105541334D01*
X66692519Y-105542443D01*
X66648518Y-105559299D01*
X66637841Y-105614519D01*
X66650577Y-105730712D01*
X66650445Y-105806261D01*
X66650209Y-105941347D01*
G04 #@! TA.AperFunction,EtchedComponent*
G36*
X66650209Y-105941347D02*
G01*
X66580088Y-106122691D01*
X66438456Y-106259060D01*
X66369480Y-106297681D01*
X66180194Y-106347333D01*
X65998499Y-106313794D01*
X65831665Y-106197798D01*
X65750793Y-106111789D01*
X65707961Y-106038096D01*
X65696666Y-105947419D01*
X65706154Y-105806215D01*
X65708006Y-105785205D01*
X65892771Y-105785205D01*
X65900243Y-105924747D01*
X65965060Y-106047374D01*
X65981250Y-106063833D01*
X66097055Y-106124660D01*
X66222549Y-106119275D01*
X66337381Y-106057718D01*
X66421204Y-105950033D01*
X66453667Y-105806261D01*
X66446344Y-105751488D01*
X66383282Y-105629756D01*
X66277635Y-105536324D01*
X66156314Y-105499000D01*
X66132389Y-105500332D01*
X66017049Y-105549473D01*
X65934442Y-105652272D01*
X65892771Y-105785205D01*
X65708006Y-105785205D01*
X65714017Y-105716997D01*
X65729714Y-105522007D01*
X65741839Y-105350834D01*
X65744848Y-105307965D01*
X65760606Y-105198777D01*
X65792176Y-105145509D01*
X65850417Y-105125639D01*
X65923161Y-105132360D01*
X65945667Y-105193511D01*
X65945786Y-105199745D01*
X65959040Y-105240132D01*
X66006141Y-105266897D01*
X66104007Y-105285722D01*
X66269554Y-105302288D01*
X66458467Y-105315782D01*
X66657960Y-105325828D01*
X66817389Y-105329667D01*
X66904121Y-105332078D01*
X67010275Y-105343598D01*
X67059100Y-105361417D01*
X67061623Y-105368293D01*
X67065618Y-105440674D01*
X67056967Y-105551917D01*
X67050667Y-105593739D01*
X67018482Y-105684017D01*
X66961973Y-105710667D01*
X66914313Y-105694884D01*
X66864734Y-105626000D01*
X66831577Y-105570085D01*
X66733607Y-105541334D01*
X66692519Y-105542443D01*
X66648518Y-105559299D01*
X66637841Y-105614519D01*
X66650577Y-105730712D01*
X66650445Y-105806261D01*
X66650209Y-105941347D01*
G37*
G04 #@! TD.AperFunction*
X66893600Y-101459531D02*
X66897365Y-101472374D01*
X66903772Y-101568232D01*
X66892719Y-101692364D01*
X66881390Y-101750895D01*
X66845396Y-101834375D01*
X66786923Y-101858334D01*
X66742874Y-101851144D01*
X66707667Y-101816000D01*
X66706055Y-101802828D01*
X66663604Y-101776338D01*
X66560120Y-101795941D01*
X66391052Y-101862304D01*
X66298883Y-101904788D01*
X66240765Y-101945596D01*
X66245874Y-101986980D01*
X66317766Y-102042527D01*
X66459993Y-102125823D01*
X66497048Y-102146647D01*
X66599208Y-102197014D01*
X66654386Y-102205143D01*
X66680915Y-102175123D01*
X66716226Y-102132011D01*
X66790785Y-102113743D01*
X66853126Y-102150286D01*
X66858834Y-102170071D01*
X66861160Y-102258896D01*
X66849870Y-102383119D01*
X66833474Y-102475762D01*
X66800187Y-102555231D01*
X66748775Y-102578000D01*
X66708241Y-102570127D01*
X66652402Y-102520696D01*
X66637647Y-102501632D01*
X66562046Y-102439853D01*
X66439253Y-102355816D01*
X66286928Y-102262021D01*
X66145108Y-102180241D01*
X66027335Y-102119197D01*
X65946531Y-102091520D01*
X65883704Y-102091103D01*
X65819861Y-102111839D01*
X65769081Y-102136637D01*
X65707304Y-102202644D01*
X65683390Y-102317597D01*
X65675088Y-102383512D01*
X65642697Y-102457837D01*
X65575250Y-102485694D01*
X65530650Y-102488537D01*
X65496835Y-102467567D01*
X65482790Y-102400765D01*
X65480000Y-102268736D01*
X65485537Y-102072033D01*
X65508236Y-101902296D01*
X65549956Y-101804830D01*
X65612292Y-101773667D01*
X65656726Y-101784623D01*
X65691667Y-101837167D01*
X65696725Y-101866416D01*
X65736376Y-101900667D01*
X65799987Y-101884638D01*
X65919468Y-101839721D01*
X66074637Y-101774594D01*
X66246481Y-101697958D01*
X66415987Y-101618513D01*
X66564143Y-101544962D01*
X66671936Y-101486005D01*
X66720354Y-101450343D01*
X66762365Y-101407290D01*
X66837038Y-101399983D01*
X66893600Y-101459531D01*
G04 #@! TA.AperFunction,EtchedComponent*
G36*
X66893600Y-101459531D02*
G01*
X66897365Y-101472374D01*
X66903772Y-101568232D01*
X66892719Y-101692364D01*
X66881390Y-101750895D01*
X66845396Y-101834375D01*
X66786923Y-101858334D01*
X66742874Y-101851144D01*
X66707667Y-101816000D01*
X66706055Y-101802828D01*
X66663604Y-101776338D01*
X66560120Y-101795941D01*
X66391052Y-101862304D01*
X66298883Y-101904788D01*
X66240765Y-101945596D01*
X66245874Y-101986980D01*
X66317766Y-102042527D01*
X66459993Y-102125823D01*
X66497048Y-102146647D01*
X66599208Y-102197014D01*
X66654386Y-102205143D01*
X66680915Y-102175123D01*
X66716226Y-102132011D01*
X66790785Y-102113743D01*
X66853126Y-102150286D01*
X66858834Y-102170071D01*
X66861160Y-102258896D01*
X66849870Y-102383119D01*
X66833474Y-102475762D01*
X66800187Y-102555231D01*
X66748775Y-102578000D01*
X66708241Y-102570127D01*
X66652402Y-102520696D01*
X66637647Y-102501632D01*
X66562046Y-102439853D01*
X66439253Y-102355816D01*
X66286928Y-102262021D01*
X66145108Y-102180241D01*
X66027335Y-102119197D01*
X65946531Y-102091520D01*
X65883704Y-102091103D01*
X65819861Y-102111839D01*
X65769081Y-102136637D01*
X65707304Y-102202644D01*
X65683390Y-102317597D01*
X65675088Y-102383512D01*
X65642697Y-102457837D01*
X65575250Y-102485694D01*
X65530650Y-102488537D01*
X65496835Y-102467567D01*
X65482790Y-102400765D01*
X65480000Y-102268736D01*
X65485537Y-102072033D01*
X65508236Y-101902296D01*
X65549956Y-101804830D01*
X65612292Y-101773667D01*
X65656726Y-101784623D01*
X65691667Y-101837167D01*
X65696725Y-101866416D01*
X65736376Y-101900667D01*
X65799987Y-101884638D01*
X65919468Y-101839721D01*
X66074637Y-101774594D01*
X66246481Y-101697958D01*
X66415987Y-101618513D01*
X66564143Y-101544962D01*
X66671936Y-101486005D01*
X66720354Y-101450343D01*
X66762365Y-101407290D01*
X66837038Y-101399983D01*
X66893600Y-101459531D01*
G37*
G04 #@! TD.AperFunction*
X61373667Y-99115203D02*
X61733500Y-99088598D01*
X61800883Y-99084200D01*
X61950526Y-99079259D01*
X62054532Y-99082943D01*
X62093573Y-99094914D01*
X62091068Y-99120506D01*
X62073830Y-99217400D01*
X62044373Y-99359599D01*
X62007598Y-99525736D01*
X61968410Y-99694443D01*
X61931709Y-99844352D01*
X61902399Y-99954094D01*
X61885383Y-100002302D01*
X61882350Y-100004944D01*
X61818754Y-100027555D01*
X61704968Y-100050911D01*
X61571223Y-100069730D01*
X61447750Y-100078735D01*
X61444298Y-100078853D01*
X61400466Y-100097561D01*
X61379218Y-100161263D01*
X61373667Y-100289566D01*
X61373667Y-100498799D01*
X61193750Y-100512041D01*
X61173400Y-100513467D01*
X61005784Y-100521783D01*
X60848720Y-100525058D01*
X60683607Y-100524834D01*
X60679387Y-100334334D01*
X60677760Y-100280564D01*
X60666509Y-100190104D01*
X60634728Y-100154038D01*
X60569333Y-100150514D01*
X60545646Y-100151865D01*
X60436826Y-100157322D01*
X60269001Y-100165235D01*
X60060211Y-100174764D01*
X59828500Y-100185067D01*
X59596995Y-100193375D01*
X59357344Y-100193396D01*
X59178230Y-100177262D01*
X59046222Y-100140848D01*
X58947888Y-100080028D01*
X58869798Y-99990676D01*
X58798521Y-99868667D01*
X58754676Y-99776327D01*
X58727026Y-99687994D01*
X58713924Y-99583217D01*
X58712574Y-99439330D01*
X58720179Y-99233667D01*
X58727526Y-99097301D01*
X58740460Y-98922891D01*
X58754525Y-98790761D01*
X58767752Y-98722081D01*
X58817126Y-98679824D01*
X58944053Y-98636064D01*
X59151491Y-98592832D01*
X59507960Y-98530669D01*
X59483539Y-98765751D01*
X59478079Y-98823056D01*
X59475049Y-98944006D01*
X59495354Y-99019558D01*
X59544477Y-99077784D01*
X59553266Y-99085411D01*
X59601203Y-99115467D01*
X59668896Y-99134390D01*
X59772543Y-99143873D01*
X59928345Y-99145607D01*
X60152502Y-99141284D01*
X60675167Y-99127834D01*
X60681345Y-98873834D01*
X60684445Y-98759021D01*
X60688578Y-98635650D01*
X60691928Y-98566917D01*
X60693245Y-98561131D01*
X60736937Y-98534087D01*
X60848067Y-98518807D01*
X61035000Y-98514000D01*
X61373667Y-98514000D01*
X61373667Y-99115203D01*
G04 #@! TA.AperFunction,EtchedComponent*
G36*
X61373667Y-99115203D02*
G01*
X61733500Y-99088598D01*
X61800883Y-99084200D01*
X61950526Y-99079259D01*
X62054532Y-99082943D01*
X62093573Y-99094914D01*
X62091068Y-99120506D01*
X62073830Y-99217400D01*
X62044373Y-99359599D01*
X62007598Y-99525736D01*
X61968410Y-99694443D01*
X61931709Y-99844352D01*
X61902399Y-99954094D01*
X61885383Y-100002302D01*
X61882350Y-100004944D01*
X61818754Y-100027555D01*
X61704968Y-100050911D01*
X61571223Y-100069730D01*
X61447750Y-100078735D01*
X61444298Y-100078853D01*
X61400466Y-100097561D01*
X61379218Y-100161263D01*
X61373667Y-100289566D01*
X61373667Y-100498799D01*
X61193750Y-100512041D01*
X61173400Y-100513467D01*
X61005784Y-100521783D01*
X60848720Y-100525058D01*
X60683607Y-100524834D01*
X60679387Y-100334334D01*
X60677760Y-100280564D01*
X60666509Y-100190104D01*
X60634728Y-100154038D01*
X60569333Y-100150514D01*
X60545646Y-100151865D01*
X60436826Y-100157322D01*
X60269001Y-100165235D01*
X60060211Y-100174764D01*
X59828500Y-100185067D01*
X59596995Y-100193375D01*
X59357344Y-100193396D01*
X59178230Y-100177262D01*
X59046222Y-100140848D01*
X58947888Y-100080028D01*
X58869798Y-99990676D01*
X58798521Y-99868667D01*
X58754676Y-99776327D01*
X58727026Y-99687994D01*
X58713924Y-99583217D01*
X58712574Y-99439330D01*
X58720179Y-99233667D01*
X58727526Y-99097301D01*
X58740460Y-98922891D01*
X58754525Y-98790761D01*
X58767752Y-98722081D01*
X58817126Y-98679824D01*
X58944053Y-98636064D01*
X59151491Y-98592832D01*
X59507960Y-98530669D01*
X59483539Y-98765751D01*
X59478079Y-98823056D01*
X59475049Y-98944006D01*
X59495354Y-99019558D01*
X59544477Y-99077784D01*
X59553266Y-99085411D01*
X59601203Y-99115467D01*
X59668896Y-99134390D01*
X59772543Y-99143873D01*
X59928345Y-99145607D01*
X60152502Y-99141284D01*
X60675167Y-99127834D01*
X60681345Y-98873834D01*
X60684445Y-98759021D01*
X60688578Y-98635650D01*
X60691928Y-98566917D01*
X60693245Y-98561131D01*
X60736937Y-98534087D01*
X60848067Y-98518807D01*
X61035000Y-98514000D01*
X61373667Y-98514000D01*
X61373667Y-99115203D01*
G37*
G04 #@! TD.AperFunction*
X61477474Y-89051761D02*
X61471346Y-89149408D01*
X61410618Y-89510304D01*
X61290953Y-89811838D01*
X61110182Y-90057167D01*
X60866134Y-90249448D01*
X60556640Y-90391838D01*
X60334270Y-90443982D01*
X60056683Y-90466798D01*
X59775036Y-90455046D01*
X59527418Y-90408121D01*
X59409376Y-90362795D01*
X59196213Y-90234235D01*
X59009388Y-90066046D01*
X58877905Y-89881733D01*
X58823808Y-89751716D01*
X58756965Y-89484116D01*
X58718213Y-89159960D01*
X58709899Y-88794441D01*
X58710477Y-88769105D01*
X58720105Y-88556466D01*
X58736764Y-88352980D01*
X58758199Y-88177520D01*
X58782158Y-88048958D01*
X58806388Y-87986168D01*
X58806675Y-87985913D01*
X58854255Y-87971784D01*
X58959930Y-87949330D01*
X59100180Y-87922701D01*
X59251483Y-87896044D01*
X59390319Y-87873509D01*
X59493167Y-87859243D01*
X59536506Y-87857395D01*
X59537092Y-87863213D01*
X59526912Y-87928337D01*
X59501748Y-88049253D01*
X59465653Y-88206017D01*
X59422494Y-88412764D01*
X59388393Y-88738240D01*
X59411005Y-89004618D01*
X59490716Y-89214665D01*
X59627912Y-89371152D01*
X59733107Y-89428109D01*
X59855376Y-89454667D01*
X59976667Y-89454667D01*
X59976667Y-88984471D01*
X60400000Y-88984471D01*
X60400031Y-89034563D01*
X60401704Y-89211375D01*
X60408247Y-89322253D01*
X60422841Y-89382501D01*
X60448665Y-89407426D01*
X60488900Y-89412334D01*
X60521800Y-89405821D01*
X60618062Y-89354359D01*
X60721733Y-89268400D01*
X60799127Y-89174663D01*
X60865585Y-89013176D01*
X60853410Y-88855016D01*
X60761758Y-88711909D01*
X60753925Y-88704245D01*
X60666122Y-88636020D01*
X60595887Y-88608000D01*
X60563749Y-88605624D01*
X60466963Y-88582304D01*
X60442421Y-88578300D01*
X60420455Y-88600637D01*
X60407577Y-88666683D01*
X60401516Y-88790080D01*
X60400000Y-88984471D01*
X59976667Y-88984471D01*
X59976667Y-87634334D01*
X60114250Y-87629434D01*
X60334768Y-87626702D01*
X60588212Y-87644986D01*
X60790446Y-87693565D01*
X60959348Y-87777303D01*
X61112793Y-87901062D01*
X61248747Y-88060371D01*
X61388105Y-88334677D01*
X61464370Y-88665211D01*
X61476166Y-89013176D01*
X61477474Y-89051761D01*
G04 #@! TA.AperFunction,EtchedComponent*
G36*
X61477474Y-89051761D02*
G01*
X61471346Y-89149408D01*
X61410618Y-89510304D01*
X61290953Y-89811838D01*
X61110182Y-90057167D01*
X60866134Y-90249448D01*
X60556640Y-90391838D01*
X60334270Y-90443982D01*
X60056683Y-90466798D01*
X59775036Y-90455046D01*
X59527418Y-90408121D01*
X59409376Y-90362795D01*
X59196213Y-90234235D01*
X59009388Y-90066046D01*
X58877905Y-89881733D01*
X58823808Y-89751716D01*
X58756965Y-89484116D01*
X58718213Y-89159960D01*
X58709899Y-88794441D01*
X58710477Y-88769105D01*
X58720105Y-88556466D01*
X58736764Y-88352980D01*
X58758199Y-88177520D01*
X58782158Y-88048958D01*
X58806388Y-87986168D01*
X58806675Y-87985913D01*
X58854255Y-87971784D01*
X58959930Y-87949330D01*
X59100180Y-87922701D01*
X59251483Y-87896044D01*
X59390319Y-87873509D01*
X59493167Y-87859243D01*
X59536506Y-87857395D01*
X59537092Y-87863213D01*
X59526912Y-87928337D01*
X59501748Y-88049253D01*
X59465653Y-88206017D01*
X59422494Y-88412764D01*
X59388393Y-88738240D01*
X59411005Y-89004618D01*
X59490716Y-89214665D01*
X59627912Y-89371152D01*
X59733107Y-89428109D01*
X59855376Y-89454667D01*
X59976667Y-89454667D01*
X59976667Y-88984471D01*
X60400000Y-88984471D01*
X60400031Y-89034563D01*
X60401704Y-89211375D01*
X60408247Y-89322253D01*
X60422841Y-89382501D01*
X60448665Y-89407426D01*
X60488900Y-89412334D01*
X60521800Y-89405821D01*
X60618062Y-89354359D01*
X60721733Y-89268400D01*
X60799127Y-89174663D01*
X60865585Y-89013176D01*
X60853410Y-88855016D01*
X60761758Y-88711909D01*
X60753925Y-88704245D01*
X60666122Y-88636020D01*
X60595887Y-88608000D01*
X60563749Y-88605624D01*
X60466963Y-88582304D01*
X60442421Y-88578300D01*
X60420455Y-88600637D01*
X60407577Y-88666683D01*
X60401516Y-88790080D01*
X60400000Y-88984471D01*
X59976667Y-88984471D01*
X59976667Y-87634334D01*
X60114250Y-87629434D01*
X60334768Y-87626702D01*
X60588212Y-87644986D01*
X60790446Y-87693565D01*
X60959348Y-87777303D01*
X61112793Y-87901062D01*
X61248747Y-88060371D01*
X61388105Y-88334677D01*
X61464370Y-88665211D01*
X61476166Y-89013176D01*
X61477474Y-89051761D01*
G37*
G04 #@! TD.AperFunction*
X61450531Y-94197362D02*
X61437436Y-94279820D01*
X61407525Y-94374059D01*
X61856263Y-94343473D01*
X62305000Y-94312887D01*
X62305000Y-95381334D01*
X61701750Y-95384572D01*
X61625620Y-95385078D01*
X61411145Y-95387573D01*
X61229753Y-95391229D01*
X61098640Y-95395636D01*
X61035000Y-95400388D01*
X61011452Y-95403286D01*
X60910703Y-95411060D01*
X60750240Y-95420992D01*
X60546354Y-95432109D01*
X60315333Y-95443434D01*
X60237262Y-95447177D01*
X59972770Y-95461355D01*
X59714365Y-95477209D01*
X59488218Y-95493060D01*
X59320500Y-95507231D01*
X59166064Y-95523041D01*
X58993161Y-95537708D01*
X58882148Y-95531471D01*
X58819327Y-95493425D01*
X58790996Y-95412666D01*
X58783457Y-95278288D01*
X58783009Y-95079386D01*
X58782948Y-95069006D01*
X58784490Y-94841559D01*
X58793636Y-94686480D01*
X58812694Y-94592079D01*
X58843972Y-94546669D01*
X58889776Y-94538560D01*
X58943281Y-94543091D01*
X59001932Y-94529528D01*
X58995292Y-94477137D01*
X58925561Y-94375917D01*
X58816157Y-94209329D01*
X58743004Y-94008983D01*
X59489833Y-94008983D01*
X59491788Y-94070479D01*
X59521580Y-94198781D01*
X59599343Y-94303586D01*
X59659736Y-94351113D01*
X59840084Y-94422808D01*
X60095680Y-94458614D01*
X60427311Y-94458679D01*
X60550215Y-94449707D01*
X60652951Y-94423214D01*
X60709150Y-94363825D01*
X60732850Y-94254319D01*
X60738089Y-94077481D01*
X60734084Y-93988844D01*
X60679759Y-93784938D01*
X60562916Y-93637808D01*
X60384821Y-93548652D01*
X60146743Y-93518667D01*
X60035877Y-93523284D01*
X59804258Y-93572319D01*
X59632811Y-93672028D01*
X59526386Y-93818789D01*
X59489833Y-94008983D01*
X58743004Y-94008983D01*
X58732445Y-93980065D01*
X58706667Y-93710391D01*
X58713386Y-93574499D01*
X58782339Y-93275277D01*
X58921868Y-93016201D01*
X59127003Y-92801734D01*
X59392778Y-92636341D01*
X59714222Y-92524487D01*
X60086368Y-92470636D01*
X60315867Y-92467286D01*
X60612634Y-92505724D01*
X60864432Y-92600012D01*
X61085708Y-92754251D01*
X61151805Y-92816020D01*
X61300006Y-92998597D01*
X61397738Y-93207902D01*
X61451485Y-93461287D01*
X61467736Y-93776104D01*
X61466796Y-93875475D01*
X61460804Y-94054497D01*
X61459151Y-94077481D01*
X61450531Y-94197362D01*
G04 #@! TA.AperFunction,EtchedComponent*
G36*
X61450531Y-94197362D02*
G01*
X61437436Y-94279820D01*
X61407525Y-94374059D01*
X61856263Y-94343473D01*
X62305000Y-94312887D01*
X62305000Y-95381334D01*
X61701750Y-95384572D01*
X61625620Y-95385078D01*
X61411145Y-95387573D01*
X61229753Y-95391229D01*
X61098640Y-95395636D01*
X61035000Y-95400388D01*
X61011452Y-95403286D01*
X60910703Y-95411060D01*
X60750240Y-95420992D01*
X60546354Y-95432109D01*
X60315333Y-95443434D01*
X60237262Y-95447177D01*
X59972770Y-95461355D01*
X59714365Y-95477209D01*
X59488218Y-95493060D01*
X59320500Y-95507231D01*
X59166064Y-95523041D01*
X58993161Y-95537708D01*
X58882148Y-95531471D01*
X58819327Y-95493425D01*
X58790996Y-95412666D01*
X58783457Y-95278288D01*
X58783009Y-95079386D01*
X58782948Y-95069006D01*
X58784490Y-94841559D01*
X58793636Y-94686480D01*
X58812694Y-94592079D01*
X58843972Y-94546669D01*
X58889776Y-94538560D01*
X58943281Y-94543091D01*
X59001932Y-94529528D01*
X58995292Y-94477137D01*
X58925561Y-94375917D01*
X58816157Y-94209329D01*
X58743004Y-94008983D01*
X59489833Y-94008983D01*
X59491788Y-94070479D01*
X59521580Y-94198781D01*
X59599343Y-94303586D01*
X59659736Y-94351113D01*
X59840084Y-94422808D01*
X60095680Y-94458614D01*
X60427311Y-94458679D01*
X60550215Y-94449707D01*
X60652951Y-94423214D01*
X60709150Y-94363825D01*
X60732850Y-94254319D01*
X60738089Y-94077481D01*
X60734084Y-93988844D01*
X60679759Y-93784938D01*
X60562916Y-93637808D01*
X60384821Y-93548652D01*
X60146743Y-93518667D01*
X60035877Y-93523284D01*
X59804258Y-93572319D01*
X59632811Y-93672028D01*
X59526386Y-93818789D01*
X59489833Y-94008983D01*
X58743004Y-94008983D01*
X58732445Y-93980065D01*
X58706667Y-93710391D01*
X58713386Y-93574499D01*
X58782339Y-93275277D01*
X58921868Y-93016201D01*
X59127003Y-92801734D01*
X59392778Y-92636341D01*
X59714222Y-92524487D01*
X60086368Y-92470636D01*
X60315867Y-92467286D01*
X60612634Y-92505724D01*
X60864432Y-92600012D01*
X61085708Y-92754251D01*
X61151805Y-92816020D01*
X61300006Y-92998597D01*
X61397738Y-93207902D01*
X61451485Y-93461287D01*
X61467736Y-93776104D01*
X61466796Y-93875475D01*
X61460804Y-94054497D01*
X61459151Y-94077481D01*
X61450531Y-94197362D01*
G37*
G04 #@! TD.AperFunction*
X60859143Y-102549548D02*
X60963132Y-102565330D01*
X61047899Y-102592984D01*
X61215555Y-102707981D01*
X61342430Y-102895337D01*
X61427352Y-103152760D01*
X61469889Y-103478265D01*
X61469607Y-103869867D01*
X61426073Y-104325582D01*
X61410837Y-104438085D01*
X61379984Y-104642322D01*
X61348797Y-104782003D01*
X61309742Y-104870684D01*
X61255286Y-104921924D01*
X61177896Y-104949280D01*
X61070037Y-104966311D01*
X60986341Y-104977885D01*
X60847129Y-104999864D01*
X60752552Y-105018294D01*
X60660604Y-105040855D01*
X60766967Y-104709011D01*
X60823240Y-104499952D01*
X60869733Y-104265860D01*
X60895715Y-104059667D01*
X60897507Y-104033804D01*
X60905123Y-103876044D01*
X60899094Y-103776920D01*
X60875749Y-103713853D01*
X60831417Y-103664268D01*
X60816656Y-103651883D01*
X60708126Y-103608973D01*
X60607953Y-103644670D01*
X60532168Y-103754158D01*
X60500616Y-103850029D01*
X60459962Y-103998791D01*
X60419993Y-104165500D01*
X60346162Y-104470286D01*
X60263826Y-104736798D01*
X60174244Y-104941642D01*
X60070867Y-105096795D01*
X59947146Y-105214240D01*
X59796532Y-105305954D01*
X59590108Y-105379461D01*
X59359604Y-105386020D01*
X59130994Y-105309014D01*
X58977601Y-105195272D01*
X58838475Y-105022967D01*
X58750863Y-104830936D01*
X58731917Y-104733087D01*
X58716413Y-104577898D01*
X58708998Y-104404992D01*
X58710051Y-104239830D01*
X58719947Y-104107871D01*
X58739065Y-104034573D01*
X58788026Y-104000759D01*
X58895738Y-103951384D01*
X59036778Y-103899080D01*
X59303389Y-103809849D01*
X59295629Y-103966508D01*
X59294399Y-103992381D01*
X59291743Y-104157715D01*
X59305909Y-104261528D01*
X59342497Y-104323819D01*
X59407108Y-104364587D01*
X59469372Y-104387359D01*
X59537415Y-104377913D01*
X59617374Y-104310763D01*
X59622458Y-104305412D01*
X59687173Y-104208553D01*
X59758300Y-104062190D01*
X59821340Y-103895821D01*
X59922816Y-103583809D01*
X59429826Y-103613233D01*
X59246890Y-103624353D01*
X59067656Y-103635684D01*
X58932809Y-103644693D01*
X58862417Y-103650079D01*
X58862360Y-103650084D01*
X58829019Y-103645397D01*
X58807295Y-103613774D01*
X58794696Y-103540785D01*
X58788729Y-103412004D01*
X58786900Y-103213000D01*
X58786699Y-103076639D01*
X58786870Y-102902563D01*
X58787516Y-102770950D01*
X58788568Y-102702903D01*
X58798179Y-102678171D01*
X58839383Y-102656736D01*
X58925473Y-102642395D01*
X59069709Y-102633120D01*
X59285348Y-102626880D01*
X59471841Y-102621936D01*
X59637685Y-102615485D01*
X59754284Y-102608598D01*
X59803932Y-102602120D01*
X59805375Y-102601510D01*
X59862378Y-102593483D01*
X59985266Y-102582677D01*
X60157092Y-102570433D01*
X60360909Y-102558091D01*
X60521947Y-102549970D01*
X60718044Y-102544731D01*
X60859143Y-102549548D01*
G04 #@! TA.AperFunction,EtchedComponent*
G36*
X60859143Y-102549548D02*
G01*
X60963132Y-102565330D01*
X61047899Y-102592984D01*
X61215555Y-102707981D01*
X61342430Y-102895337D01*
X61427352Y-103152760D01*
X61469889Y-103478265D01*
X61469607Y-103869867D01*
X61426073Y-104325582D01*
X61410837Y-104438085D01*
X61379984Y-104642322D01*
X61348797Y-104782003D01*
X61309742Y-104870684D01*
X61255286Y-104921924D01*
X61177896Y-104949280D01*
X61070037Y-104966311D01*
X60986341Y-104977885D01*
X60847129Y-104999864D01*
X60752552Y-105018294D01*
X60660604Y-105040855D01*
X60766967Y-104709011D01*
X60823240Y-104499952D01*
X60869733Y-104265860D01*
X60895715Y-104059667D01*
X60897507Y-104033804D01*
X60905123Y-103876044D01*
X60899094Y-103776920D01*
X60875749Y-103713853D01*
X60831417Y-103664268D01*
X60816656Y-103651883D01*
X60708126Y-103608973D01*
X60607953Y-103644670D01*
X60532168Y-103754158D01*
X60500616Y-103850029D01*
X60459962Y-103998791D01*
X60419993Y-104165500D01*
X60346162Y-104470286D01*
X60263826Y-104736798D01*
X60174244Y-104941642D01*
X60070867Y-105096795D01*
X59947146Y-105214240D01*
X59796532Y-105305954D01*
X59590108Y-105379461D01*
X59359604Y-105386020D01*
X59130994Y-105309014D01*
X58977601Y-105195272D01*
X58838475Y-105022967D01*
X58750863Y-104830936D01*
X58731917Y-104733087D01*
X58716413Y-104577898D01*
X58708998Y-104404992D01*
X58710051Y-104239830D01*
X58719947Y-104107871D01*
X58739065Y-104034573D01*
X58788026Y-104000759D01*
X58895738Y-103951384D01*
X59036778Y-103899080D01*
X59303389Y-103809849D01*
X59295629Y-103966508D01*
X59294399Y-103992381D01*
X59291743Y-104157715D01*
X59305909Y-104261528D01*
X59342497Y-104323819D01*
X59407108Y-104364587D01*
X59469372Y-104387359D01*
X59537415Y-104377913D01*
X59617374Y-104310763D01*
X59622458Y-104305412D01*
X59687173Y-104208553D01*
X59758300Y-104062190D01*
X59821340Y-103895821D01*
X59922816Y-103583809D01*
X59429826Y-103613233D01*
X59246890Y-103624353D01*
X59067656Y-103635684D01*
X58932809Y-103644693D01*
X58862417Y-103650079D01*
X58862360Y-103650084D01*
X58829019Y-103645397D01*
X58807295Y-103613774D01*
X58794696Y-103540785D01*
X58788729Y-103412004D01*
X58786900Y-103213000D01*
X58786699Y-103076639D01*
X58786870Y-102902563D01*
X58787516Y-102770950D01*
X58788568Y-102702903D01*
X58798179Y-102678171D01*
X58839383Y-102656736D01*
X58925473Y-102642395D01*
X59069709Y-102633120D01*
X59285348Y-102626880D01*
X59471841Y-102621936D01*
X59637685Y-102615485D01*
X59754284Y-102608598D01*
X59803932Y-102602120D01*
X59805375Y-102601510D01*
X59862378Y-102593483D01*
X59985266Y-102582677D01*
X60157092Y-102570433D01*
X60360909Y-102558091D01*
X60521947Y-102549970D01*
X60718044Y-102544731D01*
X60859143Y-102549548D01*
G37*
G04 #@! TD.AperFunction*
X61405363Y-107763107D02*
X61374472Y-107998947D01*
X61313180Y-108191065D01*
X61217307Y-108355073D01*
X61082672Y-108506582D01*
X61020720Y-108562486D01*
X60803763Y-108707217D01*
X60572595Y-108796699D01*
X60340811Y-108831591D01*
X60122008Y-108812553D01*
X59929782Y-108740245D01*
X59777727Y-108615327D01*
X59679440Y-108438460D01*
X59671230Y-108411031D01*
X59650195Y-108197427D01*
X59686910Y-107985869D01*
X60150822Y-107985869D01*
X60212524Y-108099476D01*
X60315471Y-108153770D01*
X60457828Y-108158451D01*
X60609709Y-108115760D01*
X60746043Y-108032956D01*
X60841761Y-107917298D01*
X60887484Y-107791457D01*
X60908000Y-107654649D01*
X60908000Y-107520093D01*
X60689713Y-107549049D01*
X60617644Y-107560789D01*
X60466080Y-107597302D01*
X60352302Y-107639608D01*
X60230780Y-107733010D01*
X60159043Y-107856690D01*
X60150822Y-107985869D01*
X59686910Y-107985869D01*
X59689193Y-107972715D01*
X59782610Y-107773103D01*
X59808774Y-107734145D01*
X59851589Y-107658694D01*
X59848854Y-107616361D01*
X59803429Y-107580720D01*
X59797627Y-107576853D01*
X59726581Y-107483956D01*
X59675742Y-107333905D01*
X59650880Y-107151258D01*
X59657762Y-106960574D01*
X59738821Y-106634909D01*
X59895373Y-106333816D01*
X60120026Y-106078480D01*
X60407035Y-105877206D01*
X60445668Y-105856438D01*
X60582945Y-105789489D01*
X60700159Y-105752268D01*
X60832168Y-105736554D01*
X61013833Y-105734128D01*
X61145277Y-105737036D01*
X61304489Y-105752484D01*
X61434603Y-105787334D01*
X61569389Y-105848540D01*
X61646948Y-105892851D01*
X61883280Y-106082112D01*
X62082676Y-106323737D01*
X62223801Y-106593440D01*
X62262012Y-106717917D01*
X62308823Y-106964042D01*
X62339083Y-107252337D01*
X62351283Y-107557671D01*
X62343912Y-107854912D01*
X62315460Y-108118930D01*
X62234632Y-108452734D01*
X62070487Y-108830209D01*
X61840935Y-109158872D01*
X61551162Y-109432941D01*
X61206359Y-109646638D01*
X60811713Y-109794181D01*
X60533270Y-109844421D01*
X60204539Y-109850654D01*
X59883021Y-109806246D01*
X59591048Y-109714492D01*
X59350954Y-109578687D01*
X59296724Y-109536657D01*
X59153981Y-109408844D01*
X59044324Y-109270878D01*
X58938169Y-109087561D01*
X58848711Y-108883111D01*
X58753576Y-108528066D01*
X58709248Y-108141194D01*
X58716276Y-107744605D01*
X58775210Y-107360408D01*
X58886597Y-107010715D01*
X58972558Y-106807929D01*
X59167696Y-106836222D01*
X59228191Y-106845610D01*
X59331485Y-106865179D01*
X59380041Y-106879826D01*
X59382142Y-106887816D01*
X59367376Y-106951871D01*
X59328085Y-107054319D01*
X59253275Y-107255257D01*
X59200506Y-107488077D01*
X59177649Y-107751954D01*
X59181055Y-108072157D01*
X59186096Y-108177552D01*
X59200641Y-108368748D01*
X59223254Y-108510461D01*
X59258699Y-108627166D01*
X59311742Y-108743336D01*
X59368230Y-108840882D01*
X59531789Y-109043768D01*
X59726056Y-109204396D01*
X59928341Y-109302203D01*
X60094913Y-109336748D01*
X60365017Y-109350669D01*
X60641963Y-109325581D01*
X60886709Y-109263078D01*
X60890304Y-109261724D01*
X61138820Y-109130915D01*
X61377282Y-108939631D01*
X61581762Y-108710531D01*
X61728326Y-108466271D01*
X61828081Y-108191559D01*
X61895995Y-107865578D01*
X61918342Y-107535924D01*
X61897087Y-107216149D01*
X61834192Y-106919803D01*
X61731624Y-106660440D01*
X61591345Y-106451608D01*
X61415321Y-106306861D01*
X61394197Y-106295479D01*
X61168503Y-106219196D01*
X60929014Y-106207115D01*
X60693819Y-106253589D01*
X60481007Y-106352970D01*
X60308665Y-106499612D01*
X60194881Y-106687867D01*
X60181005Y-106728065D01*
X60168077Y-106813801D01*
X60196654Y-106869059D01*
X60274722Y-106895303D01*
X60410270Y-106893998D01*
X60611283Y-106866609D01*
X60885748Y-106814602D01*
X61004022Y-106792181D01*
X61169778Y-106767195D01*
X61289349Y-106757599D01*
X61344606Y-106765339D01*
X61360322Y-106817499D01*
X61377057Y-106937064D01*
X61392415Y-107105606D01*
X61404395Y-107305065D01*
X61410033Y-107467933D01*
X61407078Y-107654649D01*
X61405363Y-107763107D01*
G04 #@! TA.AperFunction,EtchedComponent*
G36*
X61405363Y-107763107D02*
G01*
X61374472Y-107998947D01*
X61313180Y-108191065D01*
X61217307Y-108355073D01*
X61082672Y-108506582D01*
X61020720Y-108562486D01*
X60803763Y-108707217D01*
X60572595Y-108796699D01*
X60340811Y-108831591D01*
X60122008Y-108812553D01*
X59929782Y-108740245D01*
X59777727Y-108615327D01*
X59679440Y-108438460D01*
X59671230Y-108411031D01*
X59650195Y-108197427D01*
X59686910Y-107985869D01*
X60150822Y-107985869D01*
X60212524Y-108099476D01*
X60315471Y-108153770D01*
X60457828Y-108158451D01*
X60609709Y-108115760D01*
X60746043Y-108032956D01*
X60841761Y-107917298D01*
X60887484Y-107791457D01*
X60908000Y-107654649D01*
X60908000Y-107520093D01*
X60689713Y-107549049D01*
X60617644Y-107560789D01*
X60466080Y-107597302D01*
X60352302Y-107639608D01*
X60230780Y-107733010D01*
X60159043Y-107856690D01*
X60150822Y-107985869D01*
X59686910Y-107985869D01*
X59689193Y-107972715D01*
X59782610Y-107773103D01*
X59808774Y-107734145D01*
X59851589Y-107658694D01*
X59848854Y-107616361D01*
X59803429Y-107580720D01*
X59797627Y-107576853D01*
X59726581Y-107483956D01*
X59675742Y-107333905D01*
X59650880Y-107151258D01*
X59657762Y-106960574D01*
X59738821Y-106634909D01*
X59895373Y-106333816D01*
X60120026Y-106078480D01*
X60407035Y-105877206D01*
X60445668Y-105856438D01*
X60582945Y-105789489D01*
X60700159Y-105752268D01*
X60832168Y-105736554D01*
X61013833Y-105734128D01*
X61145277Y-105737036D01*
X61304489Y-105752484D01*
X61434603Y-105787334D01*
X61569389Y-105848540D01*
X61646948Y-105892851D01*
X61883280Y-106082112D01*
X62082676Y-106323737D01*
X62223801Y-106593440D01*
X62262012Y-106717917D01*
X62308823Y-106964042D01*
X62339083Y-107252337D01*
X62351283Y-107557671D01*
X62343912Y-107854912D01*
X62315460Y-108118930D01*
X62234632Y-108452734D01*
X62070487Y-108830209D01*
X61840935Y-109158872D01*
X61551162Y-109432941D01*
X61206359Y-109646638D01*
X60811713Y-109794181D01*
X60533270Y-109844421D01*
X60204539Y-109850654D01*
X59883021Y-109806246D01*
X59591048Y-109714492D01*
X59350954Y-109578687D01*
X59296724Y-109536657D01*
X59153981Y-109408844D01*
X59044324Y-109270878D01*
X58938169Y-109087561D01*
X58848711Y-108883111D01*
X58753576Y-108528066D01*
X58709248Y-108141194D01*
X58716276Y-107744605D01*
X58775210Y-107360408D01*
X58886597Y-107010715D01*
X58972558Y-106807929D01*
X59167696Y-106836222D01*
X59228191Y-106845610D01*
X59331485Y-106865179D01*
X59380041Y-106879826D01*
X59382142Y-106887816D01*
X59367376Y-106951871D01*
X59328085Y-107054319D01*
X59253275Y-107255257D01*
X59200506Y-107488077D01*
X59177649Y-107751954D01*
X59181055Y-108072157D01*
X59186096Y-108177552D01*
X59200641Y-108368748D01*
X59223254Y-108510461D01*
X59258699Y-108627166D01*
X59311742Y-108743336D01*
X59368230Y-108840882D01*
X59531789Y-109043768D01*
X59726056Y-109204396D01*
X59928341Y-109302203D01*
X60094913Y-109336748D01*
X60365017Y-109350669D01*
X60641963Y-109325581D01*
X60886709Y-109263078D01*
X60890304Y-109261724D01*
X61138820Y-109130915D01*
X61377282Y-108939631D01*
X61581762Y-108710531D01*
X61728326Y-108466271D01*
X61828081Y-108191559D01*
X61895995Y-107865578D01*
X61918342Y-107535924D01*
X61897087Y-107216149D01*
X61834192Y-106919803D01*
X61731624Y-106660440D01*
X61591345Y-106451608D01*
X61415321Y-106306861D01*
X61394197Y-106295479D01*
X61168503Y-106219196D01*
X60929014Y-106207115D01*
X60693819Y-106253589D01*
X60481007Y-106352970D01*
X60308665Y-106499612D01*
X60194881Y-106687867D01*
X60181005Y-106728065D01*
X60168077Y-106813801D01*
X60196654Y-106869059D01*
X60274722Y-106895303D01*
X60410270Y-106893998D01*
X60611283Y-106866609D01*
X60885748Y-106814602D01*
X61004022Y-106792181D01*
X61169778Y-106767195D01*
X61289349Y-106757599D01*
X61344606Y-106765339D01*
X61360322Y-106817499D01*
X61377057Y-106937064D01*
X61392415Y-107105606D01*
X61404395Y-107305065D01*
X61410033Y-107467933D01*
X61407078Y-107654649D01*
X61405363Y-107763107D01*
G37*
G04 #@! TD.AperFunction*
X67327307Y-83329435D02*
X67326259Y-83333498D01*
X67290695Y-83404986D01*
X67215131Y-83457389D01*
X67077657Y-83506221D01*
X67058951Y-83511607D01*
X66888225Y-83552704D01*
X66648465Y-83600947D01*
X66352820Y-83654370D01*
X66014440Y-83711011D01*
X65646476Y-83768903D01*
X65262077Y-83826085D01*
X64874395Y-83880590D01*
X64496579Y-83930455D01*
X64141780Y-83973715D01*
X63823148Y-84008407D01*
X63553833Y-84032566D01*
X63398092Y-84043208D01*
X63216908Y-84052426D01*
X63076934Y-84055908D01*
X62999738Y-84052862D01*
X62995461Y-84052369D01*
X62923899Y-84049608D01*
X62776492Y-84046810D01*
X62560706Y-84044035D01*
X62284005Y-84041341D01*
X61953855Y-84038787D01*
X61577722Y-84036432D01*
X61163070Y-84034334D01*
X60717364Y-84032554D01*
X60248072Y-84031149D01*
X60136280Y-84030856D01*
X59495012Y-84028512D01*
X58929565Y-84025088D01*
X58432332Y-84020367D01*
X57995705Y-84014133D01*
X57612079Y-84006167D01*
X57273845Y-83996254D01*
X56973398Y-83984177D01*
X56703130Y-83969717D01*
X56455435Y-83952658D01*
X56222705Y-83932784D01*
X55997333Y-83909876D01*
X55929491Y-83902509D01*
X55711394Y-83879300D01*
X55502855Y-83857710D01*
X55341167Y-83841618D01*
X55306870Y-83837889D01*
X55150913Y-83816042D01*
X54942349Y-83782079D01*
X54704259Y-83739882D01*
X54459721Y-83693335D01*
X54248468Y-83649870D01*
X53959360Y-83581122D01*
X53741351Y-83513299D01*
X53586175Y-83442247D01*
X53485568Y-83363810D01*
X53431265Y-83273835D01*
X53415195Y-83169436D01*
X53686250Y-83169436D01*
X53730199Y-83217209D01*
X53845994Y-83269859D01*
X54025641Y-83325811D01*
X54261146Y-83383490D01*
X54544514Y-83441323D01*
X54867751Y-83497734D01*
X55222863Y-83551150D01*
X55601855Y-83599995D01*
X55996732Y-83642695D01*
X56399500Y-83677675D01*
X56426228Y-83679740D01*
X56604871Y-83695392D01*
X56761615Y-83711976D01*
X56865167Y-83726229D01*
X56874519Y-83727291D01*
X56958898Y-83730984D01*
X57117792Y-83734646D01*
X57343317Y-83738244D01*
X57627587Y-83741747D01*
X57962719Y-83745120D01*
X58340827Y-83748333D01*
X58754026Y-83751351D01*
X59194432Y-83754143D01*
X59654159Y-83756675D01*
X60125322Y-83758916D01*
X60600036Y-83760832D01*
X61070418Y-83762390D01*
X61528581Y-83763559D01*
X61966640Y-83764306D01*
X62376712Y-83764598D01*
X62750910Y-83764402D01*
X63081350Y-83763685D01*
X63360148Y-83762416D01*
X63579417Y-83760561D01*
X63731274Y-83758088D01*
X63807833Y-83754963D01*
X63893216Y-83746039D01*
X64095741Y-83721508D01*
X64347124Y-83688035D01*
X64635300Y-83647498D01*
X64948206Y-83601776D01*
X65273776Y-83552746D01*
X65599945Y-83502286D01*
X65914650Y-83452273D01*
X66205826Y-83404586D01*
X66461408Y-83361102D01*
X66669331Y-83323698D01*
X66817531Y-83294252D01*
X66893943Y-83274643D01*
X66947268Y-83249515D01*
X66938306Y-83226537D01*
X66856691Y-83191043D01*
X66729518Y-83147938D01*
X66482137Y-83083126D01*
X66173848Y-83018013D01*
X65818686Y-82954848D01*
X65430685Y-82895882D01*
X65023880Y-82843364D01*
X64612307Y-82799546D01*
X64210000Y-82766678D01*
X63894844Y-82745127D01*
X63573954Y-82722582D01*
X63318162Y-82703742D01*
X63116748Y-82687785D01*
X62958990Y-82673889D01*
X62834167Y-82661232D01*
X62679937Y-82647641D01*
X62417557Y-82632034D01*
X62083942Y-82618024D01*
X61686532Y-82605775D01*
X61232770Y-82595449D01*
X60730095Y-82587213D01*
X60185947Y-82581230D01*
X59607769Y-82577664D01*
X59003000Y-82576680D01*
X58761001Y-82576973D01*
X58240256Y-82579075D01*
X57787246Y-82583692D01*
X57390060Y-82591491D01*
X57036786Y-82603140D01*
X56715515Y-82619306D01*
X56414334Y-82640656D01*
X56121334Y-82667858D01*
X55824603Y-82701577D01*
X55512231Y-82742482D01*
X55172308Y-82791239D01*
X55169691Y-82791627D01*
X54973013Y-82824650D01*
X54748065Y-82868503D01*
X54510766Y-82919367D01*
X54277034Y-82973426D01*
X54062788Y-83026860D01*
X53883947Y-83075853D01*
X53756430Y-83116587D01*
X53696155Y-83145245D01*
X53686250Y-83169436D01*
X53415195Y-83169436D01*
X53415000Y-83168167D01*
X53415786Y-83138682D01*
X53431678Y-83054559D01*
X53475126Y-82983509D01*
X53555432Y-82920902D01*
X53681902Y-82862105D01*
X53863839Y-82802489D01*
X54110546Y-82737420D01*
X54431329Y-82662270D01*
X54570281Y-82633079D01*
X54855782Y-82582463D01*
X55211824Y-82528949D01*
X55641904Y-82472058D01*
X56149519Y-82411312D01*
X56738167Y-82346229D01*
X56841253Y-82339834D01*
X57016404Y-82334335D01*
X57254364Y-82329718D01*
X57545918Y-82325968D01*
X57881847Y-82323069D01*
X58252935Y-82321005D01*
X58649965Y-82319760D01*
X59063720Y-82319318D01*
X59484981Y-82319663D01*
X59904533Y-82320779D01*
X60313158Y-82322649D01*
X60701639Y-82325259D01*
X61060758Y-82328591D01*
X61381299Y-82332630D01*
X61654044Y-82337360D01*
X61869776Y-82342765D01*
X62019278Y-82348828D01*
X62093333Y-82355534D01*
X62116809Y-82359263D01*
X62225454Y-82370005D01*
X62393148Y-82382233D01*
X62601831Y-82394710D01*
X62833439Y-82406200D01*
X62943840Y-82411300D01*
X63153611Y-82422021D01*
X63324698Y-82432143D01*
X63441798Y-82440720D01*
X63489606Y-82446805D01*
X63489683Y-82446847D01*
X63538715Y-82453862D01*
X63654883Y-82463839D01*
X63820905Y-82475455D01*
X64019500Y-82487387D01*
X64121132Y-82493452D01*
X64554844Y-82527213D01*
X65004522Y-82573455D01*
X65450041Y-82629471D01*
X65871276Y-82692554D01*
X66248100Y-82759998D01*
X66560390Y-82829096D01*
X66768631Y-82884953D01*
X67011640Y-82964523D01*
X67182021Y-83044196D01*
X67286765Y-83128531D01*
X67332864Y-83222090D01*
X67331444Y-83249515D01*
X67327307Y-83329435D01*
G04 #@! TA.AperFunction,EtchedComponent*
G36*
X67327307Y-83329435D02*
G01*
X67326259Y-83333498D01*
X67290695Y-83404986D01*
X67215131Y-83457389D01*
X67077657Y-83506221D01*
X67058951Y-83511607D01*
X66888225Y-83552704D01*
X66648465Y-83600947D01*
X66352820Y-83654370D01*
X66014440Y-83711011D01*
X65646476Y-83768903D01*
X65262077Y-83826085D01*
X64874395Y-83880590D01*
X64496579Y-83930455D01*
X64141780Y-83973715D01*
X63823148Y-84008407D01*
X63553833Y-84032566D01*
X63398092Y-84043208D01*
X63216908Y-84052426D01*
X63076934Y-84055908D01*
X62999738Y-84052862D01*
X62995461Y-84052369D01*
X62923899Y-84049608D01*
X62776492Y-84046810D01*
X62560706Y-84044035D01*
X62284005Y-84041341D01*
X61953855Y-84038787D01*
X61577722Y-84036432D01*
X61163070Y-84034334D01*
X60717364Y-84032554D01*
X60248072Y-84031149D01*
X60136280Y-84030856D01*
X59495012Y-84028512D01*
X58929565Y-84025088D01*
X58432332Y-84020367D01*
X57995705Y-84014133D01*
X57612079Y-84006167D01*
X57273845Y-83996254D01*
X56973398Y-83984177D01*
X56703130Y-83969717D01*
X56455435Y-83952658D01*
X56222705Y-83932784D01*
X55997333Y-83909876D01*
X55929491Y-83902509D01*
X55711394Y-83879300D01*
X55502855Y-83857710D01*
X55341167Y-83841618D01*
X55306870Y-83837889D01*
X55150913Y-83816042D01*
X54942349Y-83782079D01*
X54704259Y-83739882D01*
X54459721Y-83693335D01*
X54248468Y-83649870D01*
X53959360Y-83581122D01*
X53741351Y-83513299D01*
X53586175Y-83442247D01*
X53485568Y-83363810D01*
X53431265Y-83273835D01*
X53415195Y-83169436D01*
X53686250Y-83169436D01*
X53730199Y-83217209D01*
X53845994Y-83269859D01*
X54025641Y-83325811D01*
X54261146Y-83383490D01*
X54544514Y-83441323D01*
X54867751Y-83497734D01*
X55222863Y-83551150D01*
X55601855Y-83599995D01*
X55996732Y-83642695D01*
X56399500Y-83677675D01*
X56426228Y-83679740D01*
X56604871Y-83695392D01*
X56761615Y-83711976D01*
X56865167Y-83726229D01*
X56874519Y-83727291D01*
X56958898Y-83730984D01*
X57117792Y-83734646D01*
X57343317Y-83738244D01*
X57627587Y-83741747D01*
X57962719Y-83745120D01*
X58340827Y-83748333D01*
X58754026Y-83751351D01*
X59194432Y-83754143D01*
X59654159Y-83756675D01*
X60125322Y-83758916D01*
X60600036Y-83760832D01*
X61070418Y-83762390D01*
X61528581Y-83763559D01*
X61966640Y-83764306D01*
X62376712Y-83764598D01*
X62750910Y-83764402D01*
X63081350Y-83763685D01*
X63360148Y-83762416D01*
X63579417Y-83760561D01*
X63731274Y-83758088D01*
X63807833Y-83754963D01*
X63893216Y-83746039D01*
X64095741Y-83721508D01*
X64347124Y-83688035D01*
X64635300Y-83647498D01*
X64948206Y-83601776D01*
X65273776Y-83552746D01*
X65599945Y-83502286D01*
X65914650Y-83452273D01*
X66205826Y-83404586D01*
X66461408Y-83361102D01*
X66669331Y-83323698D01*
X66817531Y-83294252D01*
X66893943Y-83274643D01*
X66947268Y-83249515D01*
X66938306Y-83226537D01*
X66856691Y-83191043D01*
X66729518Y-83147938D01*
X66482137Y-83083126D01*
X66173848Y-83018013D01*
X65818686Y-82954848D01*
X65430685Y-82895882D01*
X65023880Y-82843364D01*
X64612307Y-82799546D01*
X64210000Y-82766678D01*
X63894844Y-82745127D01*
X63573954Y-82722582D01*
X63318162Y-82703742D01*
X63116748Y-82687785D01*
X62958990Y-82673889D01*
X62834167Y-82661232D01*
X62679937Y-82647641D01*
X62417557Y-82632034D01*
X62083942Y-82618024D01*
X61686532Y-82605775D01*
X61232770Y-82595449D01*
X60730095Y-82587213D01*
X60185947Y-82581230D01*
X59607769Y-82577664D01*
X59003000Y-82576680D01*
X58761001Y-82576973D01*
X58240256Y-82579075D01*
X57787246Y-82583692D01*
X57390060Y-82591491D01*
X57036786Y-82603140D01*
X56715515Y-82619306D01*
X56414334Y-82640656D01*
X56121334Y-82667858D01*
X55824603Y-82701577D01*
X55512231Y-82742482D01*
X55172308Y-82791239D01*
X55169691Y-82791627D01*
X54973013Y-82824650D01*
X54748065Y-82868503D01*
X54510766Y-82919367D01*
X54277034Y-82973426D01*
X54062788Y-83026860D01*
X53883947Y-83075853D01*
X53756430Y-83116587D01*
X53696155Y-83145245D01*
X53686250Y-83169436D01*
X53415195Y-83169436D01*
X53415000Y-83168167D01*
X53415786Y-83138682D01*
X53431678Y-83054559D01*
X53475126Y-82983509D01*
X53555432Y-82920902D01*
X53681902Y-82862105D01*
X53863839Y-82802489D01*
X54110546Y-82737420D01*
X54431329Y-82662270D01*
X54570281Y-82633079D01*
X54855782Y-82582463D01*
X55211824Y-82528949D01*
X55641904Y-82472058D01*
X56149519Y-82411312D01*
X56738167Y-82346229D01*
X56841253Y-82339834D01*
X57016404Y-82334335D01*
X57254364Y-82329718D01*
X57545918Y-82325968D01*
X57881847Y-82323069D01*
X58252935Y-82321005D01*
X58649965Y-82319760D01*
X59063720Y-82319318D01*
X59484981Y-82319663D01*
X59904533Y-82320779D01*
X60313158Y-82322649D01*
X60701639Y-82325259D01*
X61060758Y-82328591D01*
X61381299Y-82332630D01*
X61654044Y-82337360D01*
X61869776Y-82342765D01*
X62019278Y-82348828D01*
X62093333Y-82355534D01*
X62116809Y-82359263D01*
X62225454Y-82370005D01*
X62393148Y-82382233D01*
X62601831Y-82394710D01*
X62833439Y-82406200D01*
X62943840Y-82411300D01*
X63153611Y-82422021D01*
X63324698Y-82432143D01*
X63441798Y-82440720D01*
X63489606Y-82446805D01*
X63489683Y-82446847D01*
X63538715Y-82453862D01*
X63654883Y-82463839D01*
X63820905Y-82475455D01*
X64019500Y-82487387D01*
X64121132Y-82493452D01*
X64554844Y-82527213D01*
X65004522Y-82573455D01*
X65450041Y-82629471D01*
X65871276Y-82692554D01*
X66248100Y-82759998D01*
X66560390Y-82829096D01*
X66768631Y-82884953D01*
X67011640Y-82964523D01*
X67182021Y-83044196D01*
X67286765Y-83128531D01*
X67332864Y-83222090D01*
X67331444Y-83249515D01*
X67327307Y-83329435D01*
G37*
G04 #@! TD.AperFunction*
X68025286Y-83364482D02*
X67987234Y-83518959D01*
X67912220Y-83726940D01*
X67886650Y-83795483D01*
X67828931Y-83969794D01*
X67819778Y-83997436D01*
X67766887Y-84189133D01*
X67737648Y-84336787D01*
X67726563Y-84412411D01*
X67696917Y-84585268D01*
X67653264Y-84822435D01*
X67597805Y-85112942D01*
X67532746Y-85445820D01*
X67460288Y-85810100D01*
X67382637Y-86194813D01*
X67301994Y-86588989D01*
X67220563Y-86981661D01*
X67140549Y-87361858D01*
X67064153Y-87718612D01*
X66993580Y-88040953D01*
X66958080Y-88200923D01*
X66831071Y-88774669D01*
X66720738Y-89276324D01*
X66625470Y-89714230D01*
X66543652Y-90096731D01*
X66473672Y-90432168D01*
X66413917Y-90728884D01*
X66362775Y-90995221D01*
X66318632Y-91239522D01*
X66279875Y-91470128D01*
X66244891Y-91695381D01*
X66212069Y-91923625D01*
X66179793Y-92163202D01*
X66146453Y-92422453D01*
X66106536Y-92733392D01*
X66056326Y-93116881D01*
X66000394Y-93538108D01*
X65941882Y-93973564D01*
X65883932Y-94399738D01*
X65829684Y-94793120D01*
X65758601Y-95313285D01*
X65678551Y-95920599D01*
X65600844Y-96532107D01*
X65526583Y-97138035D01*
X65456873Y-97728609D01*
X65392818Y-98294056D01*
X65335522Y-98824601D01*
X65286090Y-99310471D01*
X65245625Y-99741891D01*
X65215232Y-100109087D01*
X65196015Y-100402287D01*
X65181894Y-100663996D01*
X65156994Y-101090938D01*
X65132542Y-101468124D01*
X65109635Y-101778120D01*
X65105231Y-101835597D01*
X65093079Y-102010551D01*
X65079597Y-102221350D01*
X65066975Y-102434287D01*
X65061598Y-102527105D01*
X65048234Y-102743255D01*
X65034912Y-102942274D01*
X65023848Y-103090453D01*
X64999456Y-103387578D01*
X64988092Y-103526019D01*
X64947322Y-104029950D01*
X64912600Y-104470202D01*
X64883116Y-104858482D01*
X64858061Y-105206496D01*
X64836628Y-105525949D01*
X64818008Y-105828549D01*
X64801392Y-106126001D01*
X64785972Y-106430011D01*
X64770939Y-106752287D01*
X64762506Y-106931523D01*
X64750542Y-107166536D01*
X64738844Y-107378024D01*
X64729048Y-107535453D01*
X64727496Y-107558695D01*
X64718164Y-107718784D01*
X64707152Y-107933242D01*
X64695705Y-108176867D01*
X64685070Y-108424453D01*
X64681916Y-108499926D01*
X64671502Y-108725778D01*
X64660944Y-108924794D01*
X64651317Y-109077716D01*
X64643697Y-109165287D01*
X64642949Y-109172519D01*
X64638543Y-109257569D01*
X64633384Y-109415306D01*
X64627694Y-109635701D01*
X64621698Y-109908725D01*
X64615617Y-110224349D01*
X64609676Y-110572546D01*
X64604098Y-110943287D01*
X64600934Y-111174466D01*
X64596280Y-111563086D01*
X64593796Y-111882764D01*
X64593757Y-112143853D01*
X64596438Y-112356711D01*
X64602112Y-112531691D01*
X64611055Y-112679150D01*
X64623542Y-112809443D01*
X64639848Y-112932926D01*
X64660246Y-113059953D01*
X64798531Y-113689962D01*
X64997394Y-114284523D01*
X65010102Y-114311515D01*
X65257949Y-114837953D01*
X65349617Y-115007413D01*
X65389813Y-115081723D01*
X65622010Y-115522221D01*
X65818799Y-115911679D01*
X65978245Y-116245971D01*
X66098416Y-116520970D01*
X66177379Y-116732550D01*
X66213199Y-116876587D01*
X66217018Y-116910492D01*
X66210195Y-117257499D01*
X66124760Y-117599010D01*
X66122898Y-117606455D01*
X65958216Y-117948608D01*
X65719243Y-118275204D01*
X65632320Y-118370969D01*
X65522201Y-118474615D01*
X65398684Y-118565084D01*
X65240207Y-118657678D01*
X65025205Y-118767697D01*
X64802853Y-118871726D01*
X64445307Y-119021216D01*
X64428709Y-119028156D01*
X64023486Y-119179721D01*
X63613415Y-119317281D01*
X63224725Y-119431699D01*
X62883647Y-119513834D01*
X62705922Y-119546853D01*
X62438388Y-119589533D01*
X62154657Y-119628821D01*
X61892538Y-119659170D01*
X61835948Y-119664562D01*
X61527099Y-119686611D01*
X61159509Y-119703421D01*
X60753629Y-119714820D01*
X60329913Y-119720634D01*
X59908810Y-119720694D01*
X59510773Y-119714826D01*
X59156255Y-119702858D01*
X58865705Y-119684619D01*
X58388098Y-119633796D01*
X57692594Y-119521708D01*
X57036276Y-119369587D01*
X56429277Y-119180310D01*
X55881728Y-118956753D01*
X55403764Y-118701793D01*
X55188486Y-118559111D01*
X55137475Y-118516311D01*
X55650585Y-118516311D01*
X55661365Y-118535137D01*
X55731818Y-118585021D01*
X55863336Y-118659442D01*
X56111832Y-118772637D01*
X56416439Y-118889095D01*
X56760825Y-119003807D01*
X57128660Y-119111764D01*
X57503612Y-119207956D01*
X57869348Y-119287374D01*
X58209538Y-119345009D01*
X58238217Y-119349032D01*
X58416164Y-119374350D01*
X58572144Y-119397078D01*
X58675205Y-119412717D01*
X58680363Y-119413436D01*
X58764968Y-119419440D01*
X58920497Y-119426039D01*
X59134792Y-119432882D01*
X59395696Y-119439615D01*
X59691053Y-119445886D01*
X60008705Y-119451344D01*
X60141108Y-119453139D01*
X60683764Y-119454889D01*
X61160234Y-119445746D01*
X61585148Y-119424789D01*
X61973139Y-119391094D01*
X62338836Y-119343739D01*
X62696872Y-119281802D01*
X62813556Y-119257844D01*
X63004557Y-119214146D01*
X63196047Y-119165996D01*
X63371410Y-119118010D01*
X63514030Y-119074806D01*
X63607292Y-119041002D01*
X63634579Y-119021216D01*
X63618881Y-119019884D01*
X63536561Y-119030546D01*
X63401161Y-119055416D01*
X63231715Y-119091189D01*
X63177300Y-119102862D01*
X62835334Y-119161398D01*
X62422321Y-119211300D01*
X61949463Y-119251744D01*
X61427966Y-119281904D01*
X60869034Y-119300957D01*
X60283872Y-119308078D01*
X59800012Y-119304231D01*
X59159232Y-119280930D01*
X58567972Y-119233663D01*
X58006662Y-119159093D01*
X57455733Y-119053882D01*
X56895616Y-118914693D01*
X56306741Y-118738186D01*
X55669538Y-118521025D01*
X55650585Y-118516311D01*
X55137475Y-118516311D01*
X54960753Y-118368035D01*
X54782485Y-118157350D01*
X54634379Y-117907120D01*
X54553229Y-117736714D01*
X54448170Y-117452891D01*
X54404526Y-117200567D01*
X54416619Y-117039287D01*
X55522815Y-117039287D01*
X55523486Y-117097215D01*
X55531305Y-117270286D01*
X55546235Y-117470274D01*
X55566204Y-117678610D01*
X55589139Y-117876723D01*
X55612969Y-118046045D01*
X55635622Y-118168006D01*
X55655024Y-118224038D01*
X55677180Y-118236329D01*
X55769789Y-118273219D01*
X55918116Y-118326052D01*
X56106246Y-118389663D01*
X56318259Y-118458887D01*
X56538240Y-118528559D01*
X56750269Y-118593514D01*
X56938431Y-118648588D01*
X57086807Y-118688616D01*
X57162841Y-118707265D01*
X57582236Y-118800110D01*
X58031868Y-118885437D01*
X58474931Y-118956685D01*
X58874620Y-119007293D01*
X59059585Y-119021382D01*
X59330798Y-119032869D01*
X59656330Y-119040139D01*
X60020290Y-119043311D01*
X60406789Y-119042504D01*
X60799937Y-119037838D01*
X61183845Y-119029431D01*
X61542624Y-119017403D01*
X61860384Y-119001873D01*
X62121235Y-118982959D01*
X62534502Y-118936156D01*
X63050028Y-118853542D01*
X63554475Y-118747605D01*
X64029494Y-118622762D01*
X64456734Y-118483428D01*
X64817847Y-118334018D01*
X64820077Y-118332958D01*
X64983139Y-118253603D01*
X65086540Y-118193946D01*
X65147345Y-118138470D01*
X65182620Y-118071660D01*
X65209430Y-117978002D01*
X65226780Y-117900500D01*
X65257695Y-117599010D01*
X65237769Y-117258560D01*
X65166049Y-116870318D01*
X65041578Y-116425453D01*
X64968000Y-116201425D01*
X64884605Y-115973915D01*
X64815185Y-115820914D01*
X64757526Y-115737717D01*
X64709414Y-115719623D01*
X64572079Y-115759327D01*
X63912151Y-115936668D01*
X63295087Y-116079803D01*
X62731300Y-116186482D01*
X62231205Y-116254459D01*
X62088677Y-116269132D01*
X61874406Y-116291160D01*
X61686494Y-116310445D01*
X61553872Y-116324016D01*
X61490189Y-116330948D01*
X61335514Y-116350664D01*
X61215205Y-116369643D01*
X61149214Y-116377279D01*
X60997492Y-116385976D01*
X60784560Y-116393055D01*
X60523762Y-116398479D01*
X60228441Y-116402210D01*
X59911940Y-116404211D01*
X59587603Y-116404445D01*
X59268771Y-116402874D01*
X58968790Y-116399460D01*
X58701000Y-116394167D01*
X58478747Y-116386955D01*
X58315372Y-116377789D01*
X57849258Y-116326041D01*
X57319710Y-116238067D01*
X56790993Y-116123260D01*
X56301559Y-115989043D01*
X56134479Y-115937433D01*
X55966412Y-115885760D01*
X55841375Y-115847592D01*
X55778285Y-115828723D01*
X55759074Y-115833424D01*
X55716224Y-115898319D01*
X55670999Y-116024634D01*
X55626643Y-116196991D01*
X55586402Y-116400012D01*
X55553520Y-116618320D01*
X55531242Y-116836537D01*
X55522815Y-117039287D01*
X54416619Y-117039287D01*
X54422402Y-116962163D01*
X54501907Y-116720105D01*
X54643144Y-116456816D01*
X54706911Y-116347366D01*
X54830947Y-116112755D01*
X54971672Y-115826027D01*
X55121517Y-115504307D01*
X55219691Y-115284091D01*
X56156372Y-115284091D01*
X56181229Y-115320148D01*
X56273539Y-115381843D01*
X56419773Y-115456371D01*
X56604802Y-115537547D01*
X56813495Y-115619183D01*
X57030723Y-115695093D01*
X57241358Y-115759092D01*
X57430269Y-115804991D01*
X57608603Y-115838077D01*
X57820087Y-115872190D01*
X57997872Y-115895858D01*
X58115926Y-115909061D01*
X58328707Y-115933686D01*
X58527038Y-115957456D01*
X58567226Y-115961489D01*
X58713894Y-115970440D01*
X58915939Y-115978038D01*
X59155863Y-115984095D01*
X59416165Y-115988424D01*
X59679346Y-115990839D01*
X59927907Y-115991152D01*
X60144348Y-115989175D01*
X60311170Y-115984722D01*
X60410872Y-115977605D01*
X60464008Y-115971139D01*
X60590647Y-115957195D01*
X60763488Y-115938979D01*
X60961205Y-115918771D01*
X61405062Y-115871537D01*
X61894416Y-115811351D01*
X62319614Y-115748098D01*
X62692066Y-115679636D01*
X63023182Y-115603820D01*
X63324369Y-115518506D01*
X63607038Y-115421550D01*
X63730694Y-115372523D01*
X63916661Y-115289499D01*
X64089917Y-115202541D01*
X64234025Y-115120585D01*
X64332545Y-115052564D01*
X64369038Y-115007413D01*
X64343616Y-115008666D01*
X64266993Y-115034292D01*
X64166808Y-115074819D01*
X64071424Y-115118671D01*
X64009205Y-115154272D01*
X63979938Y-115170342D01*
X63883788Y-115209691D01*
X63755205Y-115254103D01*
X63723553Y-115263834D01*
X63640767Y-115285865D01*
X63538499Y-115307774D01*
X63405985Y-115331265D01*
X63232462Y-115358041D01*
X63007167Y-115389803D01*
X62719336Y-115428255D01*
X62358205Y-115475100D01*
X62346116Y-115476439D01*
X62237947Y-115482905D01*
X62063968Y-115488472D01*
X61839952Y-115492817D01*
X61581674Y-115495620D01*
X61304911Y-115496560D01*
X61254946Y-115496614D01*
X60977725Y-115499456D01*
X60719827Y-115506106D01*
X60497585Y-115515877D01*
X60327335Y-115528079D01*
X60225411Y-115542026D01*
X60112552Y-115561625D01*
X59892181Y-115582365D01*
X59613685Y-115595342D01*
X59292348Y-115600824D01*
X58943453Y-115599077D01*
X58582284Y-115590368D01*
X58224125Y-115574965D01*
X57884258Y-115553135D01*
X57577968Y-115525144D01*
X57320538Y-115491260D01*
X57211895Y-115472285D01*
X56998253Y-115428675D01*
X56780138Y-115377680D01*
X56579502Y-115324887D01*
X56418298Y-115275882D01*
X56318476Y-115236251D01*
X56266619Y-115217090D01*
X56188670Y-115225889D01*
X56156372Y-115284091D01*
X55219691Y-115284091D01*
X55272910Y-115164716D01*
X55418282Y-114824379D01*
X55550061Y-114500418D01*
X55630318Y-114289674D01*
X57411851Y-114289674D01*
X57433115Y-114325337D01*
X57535022Y-114418319D01*
X57707422Y-114529634D01*
X57943038Y-114655255D01*
X58234596Y-114791157D01*
X58574821Y-114933314D01*
X59225538Y-115191962D01*
X59797038Y-115218018D01*
X59818193Y-115218985D01*
X60051538Y-115230060D01*
X60272329Y-115241189D01*
X60456555Y-115251129D01*
X60580205Y-115258633D01*
X60641218Y-115261183D01*
X60805191Y-115256028D01*
X60940038Y-115236936D01*
X60978860Y-115228677D01*
X61115389Y-115206358D01*
X61295374Y-115182431D01*
X61490372Y-115160829D01*
X61524081Y-115157410D01*
X61699254Y-115135244D01*
X61851256Y-115104429D01*
X62004805Y-115057646D01*
X62184616Y-114987576D01*
X62415407Y-114886899D01*
X62445046Y-114873609D01*
X62683158Y-114764277D01*
X62855305Y-114677929D01*
X62972833Y-114606711D01*
X63047091Y-114542769D01*
X63089425Y-114478247D01*
X63111183Y-114405291D01*
X63122762Y-114311515D01*
X63104847Y-114194583D01*
X63034464Y-114100202D01*
X62901210Y-114016550D01*
X62694684Y-113931799D01*
X62568005Y-113886548D01*
X62367725Y-113819313D01*
X62185422Y-113766706D01*
X62006434Y-113726649D01*
X61816097Y-113697067D01*
X61599747Y-113675883D01*
X61342720Y-113661021D01*
X61030354Y-113650403D01*
X60647985Y-113641954D01*
X60252860Y-113636469D01*
X59833965Y-113637313D01*
X59470997Y-113647449D01*
X59148324Y-113667927D01*
X58850314Y-113699797D01*
X58561337Y-113744108D01*
X58265760Y-113801909D01*
X58235664Y-113808412D01*
X57908379Y-113892321D01*
X57661257Y-113983029D01*
X57495395Y-114079909D01*
X57411894Y-114182333D01*
X57411851Y-114289674D01*
X55630318Y-114289674D01*
X55660677Y-114209957D01*
X55742560Y-113970120D01*
X55754594Y-113930563D01*
X55770927Y-113870131D01*
X55784493Y-113804694D01*
X55795458Y-113727012D01*
X55803990Y-113629843D01*
X55810257Y-113505944D01*
X55814426Y-113348076D01*
X55816665Y-113148995D01*
X55817142Y-112901460D01*
X55816024Y-112598230D01*
X55813479Y-112232063D01*
X55809674Y-111795718D01*
X55804777Y-111281953D01*
X55801487Y-110960472D01*
X55796493Y-110526522D01*
X55791189Y-110120302D01*
X55785715Y-109749946D01*
X55780212Y-109423587D01*
X55774818Y-109149358D01*
X55769675Y-108935392D01*
X55764922Y-108789824D01*
X55760699Y-108720787D01*
X55760054Y-108715852D01*
X55752251Y-108620967D01*
X55743102Y-108458739D01*
X55733337Y-108244963D01*
X55723681Y-107995435D01*
X55714865Y-107725953D01*
X55707168Y-107473402D01*
X55697156Y-107158833D01*
X55687030Y-106853547D01*
X55677628Y-106582659D01*
X55669784Y-106371287D01*
X55669116Y-106354217D01*
X55659580Y-106107084D01*
X55648439Y-105813521D01*
X55637024Y-105508823D01*
X55626666Y-105228287D01*
X55624406Y-105167362D01*
X55614207Y-104909136D01*
X55603378Y-104657018D01*
X55593080Y-104437178D01*
X55584472Y-104275787D01*
X55581870Y-104232177D01*
X55569396Y-104021738D01*
X55555264Y-103781773D01*
X55542057Y-103556120D01*
X55537627Y-103481978D01*
X55524207Y-103273786D01*
X55510640Y-103082639D01*
X55499278Y-102942287D01*
X55496444Y-102911250D01*
X55484347Y-102778578D01*
X55475016Y-102676170D01*
X55747179Y-102676170D01*
X55752431Y-102751787D01*
X55761859Y-102853347D01*
X55779317Y-103082486D01*
X55798595Y-103378731D01*
X55819072Y-103731174D01*
X55840127Y-104128908D01*
X55861138Y-104561025D01*
X55881483Y-105016620D01*
X55890456Y-105226080D01*
X55902427Y-105504087D01*
X55913981Y-105771086D01*
X55923530Y-105990287D01*
X55925344Y-106033125D01*
X55932701Y-106225364D01*
X55941488Y-106476637D01*
X55951049Y-106767206D01*
X55960730Y-107077335D01*
X55969877Y-107387287D01*
X55974196Y-107533227D01*
X55983160Y-107807706D01*
X55992213Y-108051887D01*
X56000797Y-108252184D01*
X56008352Y-108395012D01*
X56014319Y-108466787D01*
X56015461Y-108478448D01*
X56019343Y-108566738D01*
X56023804Y-108728526D01*
X56028699Y-108955442D01*
X56033880Y-109239114D01*
X56039202Y-109571172D01*
X56044520Y-109943245D01*
X56049686Y-110346962D01*
X56054556Y-110773953D01*
X56056253Y-110929515D01*
X56061089Y-111345766D01*
X56066019Y-111733787D01*
X56070914Y-112085517D01*
X56075646Y-112392892D01*
X56080085Y-112647852D01*
X56084104Y-112842334D01*
X56087573Y-112968278D01*
X56090364Y-113017620D01*
X56091895Y-113020285D01*
X56112064Y-112991150D01*
X56147384Y-112900079D01*
X56191279Y-112763620D01*
X56255926Y-112488797D01*
X56307253Y-112142427D01*
X56341210Y-111752371D01*
X56356055Y-111338859D01*
X56350042Y-110922120D01*
X56344941Y-110788165D01*
X56336583Y-110536254D01*
X56327542Y-110232726D01*
X56318370Y-109897099D01*
X56309613Y-109548891D01*
X56301822Y-109207620D01*
X56294967Y-108909412D01*
X56287463Y-108621225D01*
X56279960Y-108367373D01*
X56272859Y-108160435D01*
X56266558Y-108012991D01*
X56261458Y-107937620D01*
X56255279Y-107874886D01*
X56244400Y-107733433D01*
X56232157Y-107548841D01*
X56220212Y-107344953D01*
X56212658Y-107209604D01*
X56199483Y-106983601D01*
X56186888Y-106778164D01*
X56176801Y-106625287D01*
X56171087Y-106539308D01*
X56159673Y-106350313D01*
X56147234Y-106128415D01*
X56135604Y-105905620D01*
X56097686Y-105238758D01*
X56052229Y-104616456D01*
X56000776Y-104066180D01*
X55943658Y-103591058D01*
X55881209Y-103194217D01*
X55813761Y-102878787D01*
X55778869Y-102746767D01*
X55755442Y-102673359D01*
X55747179Y-102676170D01*
X55475016Y-102676170D01*
X55466552Y-102583270D01*
X55444485Y-102340985D01*
X55419573Y-102067382D01*
X55393241Y-101778120D01*
X55375524Y-101585220D01*
X55334174Y-101145445D01*
X55288114Y-100667380D01*
X55238492Y-100162168D01*
X55186457Y-99640954D01*
X55133160Y-99114882D01*
X55079750Y-98595097D01*
X55027376Y-98092741D01*
X54977187Y-97618959D01*
X54930333Y-97184895D01*
X54887963Y-96801694D01*
X54851226Y-96480498D01*
X54821272Y-96232453D01*
X54811728Y-96157173D01*
X54745674Y-95655328D01*
X54667994Y-95092865D01*
X54580328Y-94480106D01*
X54484318Y-93827374D01*
X54381607Y-93144992D01*
X54273835Y-92443282D01*
X54162644Y-91732569D01*
X54049676Y-91023174D01*
X53936572Y-90325420D01*
X53824973Y-89649631D01*
X53716522Y-89006129D01*
X53612859Y-88405238D01*
X53515626Y-87857279D01*
X53426465Y-87372577D01*
X53347018Y-86961453D01*
X53329189Y-86871896D01*
X53269293Y-86567598D01*
X53211622Y-86269825D01*
X53159826Y-85997689D01*
X53117553Y-85770305D01*
X53088451Y-85606787D01*
X53088364Y-85606275D01*
X53058197Y-85435378D01*
X53015577Y-85202654D01*
X52964458Y-84929250D01*
X52908794Y-84636317D01*
X52852538Y-84345002D01*
X52845589Y-84309138D01*
X52794740Y-84034023D01*
X52750655Y-83773841D01*
X52735957Y-83677201D01*
X52981453Y-83677201D01*
X52992732Y-83712662D01*
X52998246Y-83732308D01*
X53019425Y-83827863D01*
X53051958Y-83987584D01*
X53093319Y-84198683D01*
X53140983Y-84448370D01*
X53192424Y-84723856D01*
X53243951Y-85000675D01*
X53311320Y-85358785D01*
X53386707Y-85756490D01*
X53465819Y-86171219D01*
X53544363Y-86580398D01*
X53618044Y-86961453D01*
X53677017Y-87269962D01*
X53758391Y-87708166D01*
X53842107Y-88170959D01*
X53923371Y-88631448D01*
X53997391Y-89062744D01*
X54059376Y-89437953D01*
X54096440Y-89668299D01*
X54159741Y-90060945D01*
X54225551Y-90468381D01*
X54289894Y-90866009D01*
X54348791Y-91229232D01*
X54398264Y-91533453D01*
X54406102Y-91581624D01*
X54486921Y-92086453D01*
X54570582Y-92622592D01*
X54655234Y-93177279D01*
X54739025Y-93737755D01*
X54820104Y-94291260D01*
X54896620Y-94825034D01*
X54966721Y-95326317D01*
X55028556Y-95782349D01*
X55080272Y-96180370D01*
X55120019Y-96507620D01*
X55127591Y-96573112D01*
X55152988Y-96789693D01*
X55175418Y-96976521D01*
X55192684Y-97115473D01*
X55202586Y-97188425D01*
X55202656Y-97188865D01*
X55209739Y-97249531D01*
X55224162Y-97385657D01*
X55245057Y-97588637D01*
X55271554Y-97849863D01*
X55302786Y-98160729D01*
X55337883Y-98512626D01*
X55375977Y-98896950D01*
X55416199Y-99305091D01*
X55615546Y-101333620D01*
X55969313Y-102116787D01*
X55999401Y-102183605D01*
X56133330Y-102489552D01*
X56240206Y-102755535D01*
X56324414Y-102999349D01*
X56390343Y-103238785D01*
X56442377Y-103491637D01*
X56484905Y-103775699D01*
X56522312Y-104108762D01*
X56558985Y-104508620D01*
X56572785Y-104666076D01*
X56588712Y-104841840D01*
X56601274Y-104974287D01*
X56612857Y-105102152D01*
X56627314Y-105277439D01*
X56641415Y-105461120D01*
X56651010Y-105584234D01*
X56666960Y-105779540D01*
X56687854Y-106029969D01*
X56712448Y-106320717D01*
X56739497Y-106636979D01*
X56767758Y-106963953D01*
X56771712Y-107009508D01*
X56803637Y-107382495D01*
X56829926Y-107703516D01*
X56851837Y-107992083D01*
X56870628Y-108267705D01*
X56887557Y-108549892D01*
X56903884Y-108858156D01*
X56920865Y-109212006D01*
X56939760Y-109630953D01*
X56958214Y-110028647D01*
X56976792Y-110388190D01*
X56994196Y-110682407D01*
X57010044Y-110904863D01*
X57023954Y-111049120D01*
X57026295Y-111068934D01*
X57039123Y-111196652D01*
X57051618Y-111338859D01*
X57054345Y-111369907D01*
X57069152Y-111557120D01*
X57076208Y-111639462D01*
X57112008Y-111867086D01*
X57174065Y-112037712D01*
X57272043Y-112171774D01*
X57415604Y-112289702D01*
X57490462Y-112339245D01*
X57588605Y-112394167D01*
X57694029Y-112436399D01*
X57822167Y-112469710D01*
X57988451Y-112497868D01*
X58208314Y-112524642D01*
X58497187Y-112553800D01*
X58653111Y-112568992D01*
X58869300Y-112590747D01*
X59046507Y-112609417D01*
X59169627Y-112623395D01*
X59223554Y-112631076D01*
X59217118Y-112638364D01*
X59148690Y-112667559D01*
X59019810Y-112714436D01*
X58843027Y-112774502D01*
X58630888Y-112843265D01*
X58389310Y-112920242D01*
X58137752Y-113001975D01*
X57946087Y-113067439D01*
X57802435Y-113121538D01*
X57694914Y-113169176D01*
X57611644Y-113215260D01*
X57540743Y-113264694D01*
X57470332Y-113322382D01*
X57377005Y-113408894D01*
X57315741Y-113481145D01*
X57305173Y-113516337D01*
X57347236Y-113505806D01*
X57443865Y-113440885D01*
X57495620Y-113406651D01*
X57666030Y-113326013D01*
X57886228Y-113250562D01*
X58131936Y-113187959D01*
X58378872Y-113145866D01*
X58459347Y-113139178D01*
X58620308Y-113130502D01*
X58840044Y-113121397D01*
X59104601Y-113112379D01*
X59400028Y-113103961D01*
X59712372Y-113096660D01*
X59783061Y-113095258D01*
X60338061Y-113090022D01*
X60821350Y-113097386D01*
X61243816Y-113118359D01*
X61616347Y-113153948D01*
X61949834Y-113205159D01*
X62255165Y-113273000D01*
X62543229Y-113358477D01*
X62691329Y-113409764D01*
X62879402Y-113479888D01*
X63033719Y-113543025D01*
X63130788Y-113589921D01*
X63198233Y-113626263D01*
X63256625Y-113642704D01*
X63254159Y-113611308D01*
X63192550Y-113537023D01*
X63073515Y-113424796D01*
X62979996Y-113350532D01*
X62817346Y-113250897D01*
X62616589Y-113160003D01*
X62368465Y-113074797D01*
X62063711Y-112992224D01*
X61693066Y-112909233D01*
X61247267Y-112822769D01*
X61225228Y-112818717D01*
X61032635Y-112782338D01*
X60877172Y-112751287D01*
X60774248Y-112728744D01*
X60739267Y-112717890D01*
X60741484Y-112716517D01*
X60801848Y-112704248D01*
X60930025Y-112688566D01*
X61111375Y-112670915D01*
X61331259Y-112652740D01*
X61575038Y-112635482D01*
X61674106Y-112628901D01*
X62023599Y-112602591D01*
X62301821Y-112575318D01*
X62519496Y-112545378D01*
X62687349Y-112511068D01*
X62816105Y-112470688D01*
X62916487Y-112422533D01*
X63075249Y-112309479D01*
X63205833Y-112162049D01*
X63312302Y-111966790D01*
X63407257Y-111705287D01*
X63440727Y-111593236D01*
X63473075Y-111469832D01*
X63500262Y-111341235D01*
X63523267Y-111197516D01*
X63543066Y-111028746D01*
X63544031Y-111017557D01*
X64082086Y-111017557D01*
X64083474Y-111328210D01*
X64088283Y-111595327D01*
X64096701Y-111805229D01*
X64108920Y-111944237D01*
X64142989Y-112133403D01*
X64189037Y-112324625D01*
X64236594Y-112473403D01*
X64317911Y-112678953D01*
X64321289Y-111811120D01*
X64323018Y-111554459D01*
X64327031Y-111214923D01*
X64332675Y-110875191D01*
X64339467Y-110563549D01*
X64346923Y-110308287D01*
X64358290Y-109984938D01*
X64373048Y-109569256D01*
X64385554Y-109223543D01*
X64396150Y-108939040D01*
X64405182Y-108706989D01*
X64412993Y-108518630D01*
X64419926Y-108365205D01*
X64426327Y-108237955D01*
X64432538Y-108128120D01*
X64454454Y-107756542D01*
X64474190Y-107405689D01*
X64490710Y-107089390D01*
X64505372Y-106781520D01*
X64519537Y-106455953D01*
X64522864Y-106379902D01*
X64540545Y-106037260D01*
X64565722Y-105622605D01*
X64598597Y-105132877D01*
X64639374Y-104565013D01*
X64688257Y-103915953D01*
X64701278Y-103757930D01*
X64716742Y-103591563D01*
X64729828Y-103471453D01*
X64738738Y-103387578D01*
X64732863Y-103368649D01*
X64707678Y-103420433D01*
X64695002Y-103462982D01*
X64674986Y-103561237D01*
X64649319Y-103714937D01*
X64617315Y-103928859D01*
X64578291Y-104207779D01*
X64531561Y-104556473D01*
X64476442Y-104979716D01*
X64412249Y-105482287D01*
X64411282Y-105489966D01*
X64396740Y-105617945D01*
X64380508Y-105784373D01*
X64362073Y-105995829D01*
X64340922Y-106258891D01*
X64316540Y-106580139D01*
X64288413Y-106966151D01*
X64256029Y-107423508D01*
X64218873Y-107958787D01*
X64213201Y-108038168D01*
X64195304Y-108269641D01*
X64174109Y-108525396D01*
X64153077Y-108763120D01*
X64152180Y-108772946D01*
X64134944Y-109005358D01*
X64119799Y-109289983D01*
X64106935Y-109613143D01*
X64096542Y-109961159D01*
X64088809Y-110320352D01*
X64083927Y-110677044D01*
X64082086Y-111017557D01*
X63544031Y-111017557D01*
X63560639Y-110824996D01*
X63576962Y-110576338D01*
X63593013Y-110272842D01*
X63609771Y-109904579D01*
X63628213Y-109461620D01*
X63654406Y-108898663D01*
X63690789Y-108311040D01*
X63737476Y-107729371D01*
X63797459Y-107112120D01*
X63814134Y-106951218D01*
X63845490Y-106640370D01*
X63870230Y-106378963D01*
X63890460Y-106143020D01*
X63908289Y-105908565D01*
X63925823Y-105651620D01*
X63936591Y-105491932D01*
X63977554Y-104962282D01*
X64025697Y-104462354D01*
X64083303Y-103978339D01*
X64152656Y-103496429D01*
X64236041Y-103002813D01*
X64335741Y-102483684D01*
X64454041Y-101925231D01*
X64593225Y-101313646D01*
X64755576Y-100635120D01*
X64800316Y-100448350D01*
X64885923Y-100062069D01*
X64951985Y-99710386D01*
X65004111Y-99361628D01*
X65047909Y-98984120D01*
X65070487Y-98765558D01*
X65100758Y-98474925D01*
X65125629Y-98241081D01*
X65147025Y-98047153D01*
X65166874Y-97876266D01*
X65187102Y-97711548D01*
X65209634Y-97536124D01*
X65236398Y-97333120D01*
X65246650Y-97254699D01*
X65280400Y-96984423D01*
X65314400Y-96697478D01*
X65342645Y-96444120D01*
X65352293Y-96357287D01*
X65380266Y-96125877D01*
X65415695Y-95851000D01*
X65455018Y-95559933D01*
X65494672Y-95279953D01*
X65531987Y-95022717D01*
X65597956Y-94561531D01*
X65655431Y-94149137D01*
X65707566Y-93762342D01*
X65757516Y-93377956D01*
X65808434Y-92972787D01*
X65839875Y-92720249D01*
X65890345Y-92322637D01*
X65934910Y-91985647D01*
X65975918Y-91694165D01*
X66015719Y-91433079D01*
X66056662Y-91187277D01*
X66101095Y-90941647D01*
X66151368Y-90681077D01*
X66209829Y-90390453D01*
X66242882Y-90229998D01*
X66314895Y-89887770D01*
X66397570Y-89502157D01*
X66485439Y-89098386D01*
X66573034Y-88701687D01*
X66654884Y-88337287D01*
X66680791Y-88222774D01*
X66779021Y-87781638D01*
X66877200Y-87330531D01*
X66973815Y-86877177D01*
X67067353Y-86429294D01*
X67156299Y-85994606D01*
X67239141Y-85580832D01*
X67314366Y-85195695D01*
X67380458Y-84846915D01*
X67435907Y-84542214D01*
X67479197Y-84289312D01*
X67508815Y-84095932D01*
X67523248Y-83969794D01*
X67520983Y-83918620D01*
X67516380Y-83916325D01*
X67457507Y-83926219D01*
X67361412Y-83964673D01*
X67356343Y-83967050D01*
X67232880Y-84014409D01*
X67050282Y-84072605D01*
X66830932Y-84135482D01*
X66597209Y-84196885D01*
X66371497Y-84250658D01*
X66176176Y-84290645D01*
X66121800Y-84299505D01*
X65959220Y-84321752D01*
X65744494Y-84347624D01*
X65499180Y-84374588D01*
X65244843Y-84400108D01*
X65104220Y-84413586D01*
X64868698Y-84436572D01*
X64662499Y-84457197D01*
X64503949Y-84473617D01*
X64411372Y-84483988D01*
X64353218Y-84490811D01*
X64158363Y-84508400D01*
X63915025Y-84523551D01*
X63618682Y-84536364D01*
X63264815Y-84546935D01*
X62848902Y-84555364D01*
X62366422Y-84561748D01*
X61812854Y-84566187D01*
X61183678Y-84568778D01*
X60474372Y-84569620D01*
X60271536Y-84569585D01*
X59715348Y-84569003D01*
X59233363Y-84567560D01*
X58817733Y-84565066D01*
X58460608Y-84561333D01*
X58154139Y-84556172D01*
X57890476Y-84549395D01*
X57661771Y-84540813D01*
X57460174Y-84530236D01*
X57277836Y-84517478D01*
X57106907Y-84502348D01*
X56939538Y-84484658D01*
X56910685Y-84481405D01*
X56745028Y-84462966D01*
X56579705Y-84444853D01*
X56001407Y-84379029D01*
X55405903Y-84302703D01*
X54886159Y-84225452D01*
X54437394Y-84146337D01*
X54054829Y-84064420D01*
X53733685Y-83978762D01*
X53469181Y-83888425D01*
X53256538Y-83792471D01*
X53134813Y-83728734D01*
X53038543Y-83681017D01*
X52992073Y-83665246D01*
X52981453Y-83677201D01*
X52735957Y-83677201D01*
X52715939Y-83545584D01*
X52693198Y-83366245D01*
X52685038Y-83252816D01*
X52685042Y-83249607D01*
X52694468Y-83152777D01*
X52939038Y-83152777D01*
X52943811Y-83177514D01*
X53000593Y-83266389D01*
X53106978Y-83372548D01*
X53244651Y-83479254D01*
X53395299Y-83569770D01*
X53460521Y-83600657D01*
X53716351Y-83695180D01*
X54051627Y-83788029D01*
X54462410Y-83878531D01*
X54944760Y-83966013D01*
X55494738Y-84049804D01*
X56108403Y-84129230D01*
X56781817Y-84203620D01*
X57511038Y-84272300D01*
X57515787Y-84272711D01*
X57723014Y-84287940D01*
X57963536Y-84300459D01*
X58244691Y-84310398D01*
X58573814Y-84317889D01*
X58958241Y-84323062D01*
X59405308Y-84326049D01*
X59922351Y-84326981D01*
X60516705Y-84325988D01*
X60723933Y-84325321D01*
X61160597Y-84323630D01*
X61575218Y-84321649D01*
X61958848Y-84319441D01*
X62302543Y-84317073D01*
X62597355Y-84314608D01*
X62834339Y-84312112D01*
X63004549Y-84309650D01*
X63099038Y-84307285D01*
X63175175Y-84303570D01*
X63400572Y-84289720D01*
X63684188Y-84269572D01*
X64007956Y-84244623D01*
X64353807Y-84216371D01*
X64703676Y-84186313D01*
X65039493Y-84155947D01*
X65343192Y-84126770D01*
X65596705Y-84100278D01*
X65621456Y-84097494D01*
X66009171Y-84043163D01*
X66382486Y-83971847D01*
X66731400Y-83886900D01*
X67045909Y-83791674D01*
X67316011Y-83689523D01*
X67531704Y-83583800D01*
X67682985Y-83477860D01*
X67759850Y-83375056D01*
X67770000Y-83290000D01*
X67715078Y-83166240D01*
X67581338Y-83042908D01*
X67372160Y-82922864D01*
X67090921Y-82808965D01*
X67063301Y-82799639D01*
X66874445Y-82743937D01*
X66634767Y-82682456D01*
X66370684Y-82621108D01*
X66108613Y-82565800D01*
X65874969Y-82522443D01*
X65696171Y-82496947D01*
X65344322Y-82462287D01*
X64915433Y-82423576D01*
X64518110Y-82391550D01*
X64178538Y-82368427D01*
X64075569Y-82362123D01*
X63875775Y-82348914D01*
X63702948Y-82336301D01*
X63585872Y-82326326D01*
X63563657Y-82324310D01*
X63439162Y-82315555D01*
X63256935Y-82304945D01*
X63037831Y-82293642D01*
X62802705Y-82282802D01*
X62758212Y-82280868D01*
X62506361Y-82269623D01*
X62260711Y-82258218D01*
X62047394Y-82247887D01*
X61892538Y-82239862D01*
X61879312Y-82239202D01*
X61763481Y-82235329D01*
X61574240Y-82230753D01*
X61321008Y-82225637D01*
X61013201Y-82220142D01*
X60660236Y-82214429D01*
X60271532Y-82208659D01*
X59856505Y-82202994D01*
X59424572Y-82197594D01*
X59018926Y-82193374D01*
X58330466Y-82189628D01*
X57719058Y-82191255D01*
X57179861Y-82198365D01*
X56708034Y-82211069D01*
X56298737Y-82229477D01*
X55947130Y-82253701D01*
X55648372Y-82283850D01*
X55274801Y-82331353D01*
X54708551Y-82414186D01*
X54224435Y-82500137D01*
X53823076Y-82589076D01*
X53505098Y-82680876D01*
X53271123Y-82775407D01*
X53200051Y-82816420D01*
X53068269Y-82924278D01*
X52974652Y-83043911D01*
X52939038Y-83152777D01*
X52694468Y-83152777D01*
X52705984Y-83034488D01*
X52772925Y-82855837D01*
X52893597Y-82706574D01*
X53075733Y-82579618D01*
X53327064Y-82467889D01*
X53655324Y-82364305D01*
X53995193Y-82279799D01*
X54486731Y-82181337D01*
X55024865Y-82096042D01*
X55588458Y-82027178D01*
X56156372Y-81978010D01*
X56182127Y-81976355D01*
X56386768Y-81967090D01*
X56660906Y-81959595D01*
X56995473Y-81953805D01*
X57381402Y-81949656D01*
X57809623Y-81947082D01*
X58271069Y-81946020D01*
X58756670Y-81946404D01*
X59257359Y-81948170D01*
X59764068Y-81951253D01*
X60267727Y-81955588D01*
X60759270Y-81961110D01*
X61229626Y-81967755D01*
X61669728Y-81975458D01*
X62070508Y-81984154D01*
X62422898Y-81993779D01*
X62717828Y-82004267D01*
X62946231Y-82015554D01*
X63099038Y-82027575D01*
X63156718Y-82033101D01*
X63301673Y-82044684D01*
X63488705Y-82057976D01*
X63691705Y-82071060D01*
X63730142Y-82073427D01*
X64060617Y-82095312D01*
X64447451Y-82123477D01*
X64899942Y-82158620D01*
X65427386Y-82201440D01*
X65508925Y-82208639D01*
X65922358Y-82259104D01*
X66324957Y-82330158D01*
X66706182Y-82418431D01*
X67055493Y-82520549D01*
X67362350Y-82633138D01*
X67616214Y-82752827D01*
X67806544Y-82876242D01*
X67922802Y-83000010D01*
X67991809Y-83126006D01*
X68026701Y-83241001D01*
X68026139Y-83290000D01*
X68025286Y-83364482D01*
G04 #@! TA.AperFunction,EtchedComponent*
G36*
X68025286Y-83364482D02*
G01*
X67987234Y-83518959D01*
X67912220Y-83726940D01*
X67886650Y-83795483D01*
X67828931Y-83969794D01*
X67819778Y-83997436D01*
X67766887Y-84189133D01*
X67737648Y-84336787D01*
X67726563Y-84412411D01*
X67696917Y-84585268D01*
X67653264Y-84822435D01*
X67597805Y-85112942D01*
X67532746Y-85445820D01*
X67460288Y-85810100D01*
X67382637Y-86194813D01*
X67301994Y-86588989D01*
X67220563Y-86981661D01*
X67140549Y-87361858D01*
X67064153Y-87718612D01*
X66993580Y-88040953D01*
X66958080Y-88200923D01*
X66831071Y-88774669D01*
X66720738Y-89276324D01*
X66625470Y-89714230D01*
X66543652Y-90096731D01*
X66473672Y-90432168D01*
X66413917Y-90728884D01*
X66362775Y-90995221D01*
X66318632Y-91239522D01*
X66279875Y-91470128D01*
X66244891Y-91695381D01*
X66212069Y-91923625D01*
X66179793Y-92163202D01*
X66146453Y-92422453D01*
X66106536Y-92733392D01*
X66056326Y-93116881D01*
X66000394Y-93538108D01*
X65941882Y-93973564D01*
X65883932Y-94399738D01*
X65829684Y-94793120D01*
X65758601Y-95313285D01*
X65678551Y-95920599D01*
X65600844Y-96532107D01*
X65526583Y-97138035D01*
X65456873Y-97728609D01*
X65392818Y-98294056D01*
X65335522Y-98824601D01*
X65286090Y-99310471D01*
X65245625Y-99741891D01*
X65215232Y-100109087D01*
X65196015Y-100402287D01*
X65181894Y-100663996D01*
X65156994Y-101090938D01*
X65132542Y-101468124D01*
X65109635Y-101778120D01*
X65105231Y-101835597D01*
X65093079Y-102010551D01*
X65079597Y-102221350D01*
X65066975Y-102434287D01*
X65061598Y-102527105D01*
X65048234Y-102743255D01*
X65034912Y-102942274D01*
X65023848Y-103090453D01*
X64999456Y-103387578D01*
X64988092Y-103526019D01*
X64947322Y-104029950D01*
X64912600Y-104470202D01*
X64883116Y-104858482D01*
X64858061Y-105206496D01*
X64836628Y-105525949D01*
X64818008Y-105828549D01*
X64801392Y-106126001D01*
X64785972Y-106430011D01*
X64770939Y-106752287D01*
X64762506Y-106931523D01*
X64750542Y-107166536D01*
X64738844Y-107378024D01*
X64729048Y-107535453D01*
X64727496Y-107558695D01*
X64718164Y-107718784D01*
X64707152Y-107933242D01*
X64695705Y-108176867D01*
X64685070Y-108424453D01*
X64681916Y-108499926D01*
X64671502Y-108725778D01*
X64660944Y-108924794D01*
X64651317Y-109077716D01*
X64643697Y-109165287D01*
X64642949Y-109172519D01*
X64638543Y-109257569D01*
X64633384Y-109415306D01*
X64627694Y-109635701D01*
X64621698Y-109908725D01*
X64615617Y-110224349D01*
X64609676Y-110572546D01*
X64604098Y-110943287D01*
X64600934Y-111174466D01*
X64596280Y-111563086D01*
X64593796Y-111882764D01*
X64593757Y-112143853D01*
X64596438Y-112356711D01*
X64602112Y-112531691D01*
X64611055Y-112679150D01*
X64623542Y-112809443D01*
X64639848Y-112932926D01*
X64660246Y-113059953D01*
X64798531Y-113689962D01*
X64997394Y-114284523D01*
X65010102Y-114311515D01*
X65257949Y-114837953D01*
X65349617Y-115007413D01*
X65389813Y-115081723D01*
X65622010Y-115522221D01*
X65818799Y-115911679D01*
X65978245Y-116245971D01*
X66098416Y-116520970D01*
X66177379Y-116732550D01*
X66213199Y-116876587D01*
X66217018Y-116910492D01*
X66210195Y-117257499D01*
X66124760Y-117599010D01*
X66122898Y-117606455D01*
X65958216Y-117948608D01*
X65719243Y-118275204D01*
X65632320Y-118370969D01*
X65522201Y-118474615D01*
X65398684Y-118565084D01*
X65240207Y-118657678D01*
X65025205Y-118767697D01*
X64802853Y-118871726D01*
X64445307Y-119021216D01*
X64428709Y-119028156D01*
X64023486Y-119179721D01*
X63613415Y-119317281D01*
X63224725Y-119431699D01*
X62883647Y-119513834D01*
X62705922Y-119546853D01*
X62438388Y-119589533D01*
X62154657Y-119628821D01*
X61892538Y-119659170D01*
X61835948Y-119664562D01*
X61527099Y-119686611D01*
X61159509Y-119703421D01*
X60753629Y-119714820D01*
X60329913Y-119720634D01*
X59908810Y-119720694D01*
X59510773Y-119714826D01*
X59156255Y-119702858D01*
X58865705Y-119684619D01*
X58388098Y-119633796D01*
X57692594Y-119521708D01*
X57036276Y-119369587D01*
X56429277Y-119180310D01*
X55881728Y-118956753D01*
X55403764Y-118701793D01*
X55188486Y-118559111D01*
X55137475Y-118516311D01*
X55650585Y-118516311D01*
X55661365Y-118535137D01*
X55731818Y-118585021D01*
X55863336Y-118659442D01*
X56111832Y-118772637D01*
X56416439Y-118889095D01*
X56760825Y-119003807D01*
X57128660Y-119111764D01*
X57503612Y-119207956D01*
X57869348Y-119287374D01*
X58209538Y-119345009D01*
X58238217Y-119349032D01*
X58416164Y-119374350D01*
X58572144Y-119397078D01*
X58675205Y-119412717D01*
X58680363Y-119413436D01*
X58764968Y-119419440D01*
X58920497Y-119426039D01*
X59134792Y-119432882D01*
X59395696Y-119439615D01*
X59691053Y-119445886D01*
X60008705Y-119451344D01*
X60141108Y-119453139D01*
X60683764Y-119454889D01*
X61160234Y-119445746D01*
X61585148Y-119424789D01*
X61973139Y-119391094D01*
X62338836Y-119343739D01*
X62696872Y-119281802D01*
X62813556Y-119257844D01*
X63004557Y-119214146D01*
X63196047Y-119165996D01*
X63371410Y-119118010D01*
X63514030Y-119074806D01*
X63607292Y-119041002D01*
X63634579Y-119021216D01*
X63618881Y-119019884D01*
X63536561Y-119030546D01*
X63401161Y-119055416D01*
X63231715Y-119091189D01*
X63177300Y-119102862D01*
X62835334Y-119161398D01*
X62422321Y-119211300D01*
X61949463Y-119251744D01*
X61427966Y-119281904D01*
X60869034Y-119300957D01*
X60283872Y-119308078D01*
X59800012Y-119304231D01*
X59159232Y-119280930D01*
X58567972Y-119233663D01*
X58006662Y-119159093D01*
X57455733Y-119053882D01*
X56895616Y-118914693D01*
X56306741Y-118738186D01*
X55669538Y-118521025D01*
X55650585Y-118516311D01*
X55137475Y-118516311D01*
X54960753Y-118368035D01*
X54782485Y-118157350D01*
X54634379Y-117907120D01*
X54553229Y-117736714D01*
X54448170Y-117452891D01*
X54404526Y-117200567D01*
X54416619Y-117039287D01*
X55522815Y-117039287D01*
X55523486Y-117097215D01*
X55531305Y-117270286D01*
X55546235Y-117470274D01*
X55566204Y-117678610D01*
X55589139Y-117876723D01*
X55612969Y-118046045D01*
X55635622Y-118168006D01*
X55655024Y-118224038D01*
X55677180Y-118236329D01*
X55769789Y-118273219D01*
X55918116Y-118326052D01*
X56106246Y-118389663D01*
X56318259Y-118458887D01*
X56538240Y-118528559D01*
X56750269Y-118593514D01*
X56938431Y-118648588D01*
X57086807Y-118688616D01*
X57162841Y-118707265D01*
X57582236Y-118800110D01*
X58031868Y-118885437D01*
X58474931Y-118956685D01*
X58874620Y-119007293D01*
X59059585Y-119021382D01*
X59330798Y-119032869D01*
X59656330Y-119040139D01*
X60020290Y-119043311D01*
X60406789Y-119042504D01*
X60799937Y-119037838D01*
X61183845Y-119029431D01*
X61542624Y-119017403D01*
X61860384Y-119001873D01*
X62121235Y-118982959D01*
X62534502Y-118936156D01*
X63050028Y-118853542D01*
X63554475Y-118747605D01*
X64029494Y-118622762D01*
X64456734Y-118483428D01*
X64817847Y-118334018D01*
X64820077Y-118332958D01*
X64983139Y-118253603D01*
X65086540Y-118193946D01*
X65147345Y-118138470D01*
X65182620Y-118071660D01*
X65209430Y-117978002D01*
X65226780Y-117900500D01*
X65257695Y-117599010D01*
X65237769Y-117258560D01*
X65166049Y-116870318D01*
X65041578Y-116425453D01*
X64968000Y-116201425D01*
X64884605Y-115973915D01*
X64815185Y-115820914D01*
X64757526Y-115737717D01*
X64709414Y-115719623D01*
X64572079Y-115759327D01*
X63912151Y-115936668D01*
X63295087Y-116079803D01*
X62731300Y-116186482D01*
X62231205Y-116254459D01*
X62088677Y-116269132D01*
X61874406Y-116291160D01*
X61686494Y-116310445D01*
X61553872Y-116324016D01*
X61490189Y-116330948D01*
X61335514Y-116350664D01*
X61215205Y-116369643D01*
X61149214Y-116377279D01*
X60997492Y-116385976D01*
X60784560Y-116393055D01*
X60523762Y-116398479D01*
X60228441Y-116402210D01*
X59911940Y-116404211D01*
X59587603Y-116404445D01*
X59268771Y-116402874D01*
X58968790Y-116399460D01*
X58701000Y-116394167D01*
X58478747Y-116386955D01*
X58315372Y-116377789D01*
X57849258Y-116326041D01*
X57319710Y-116238067D01*
X56790993Y-116123260D01*
X56301559Y-115989043D01*
X56134479Y-115937433D01*
X55966412Y-115885760D01*
X55841375Y-115847592D01*
X55778285Y-115828723D01*
X55759074Y-115833424D01*
X55716224Y-115898319D01*
X55670999Y-116024634D01*
X55626643Y-116196991D01*
X55586402Y-116400012D01*
X55553520Y-116618320D01*
X55531242Y-116836537D01*
X55522815Y-117039287D01*
X54416619Y-117039287D01*
X54422402Y-116962163D01*
X54501907Y-116720105D01*
X54643144Y-116456816D01*
X54706911Y-116347366D01*
X54830947Y-116112755D01*
X54971672Y-115826027D01*
X55121517Y-115504307D01*
X55219691Y-115284091D01*
X56156372Y-115284091D01*
X56181229Y-115320148D01*
X56273539Y-115381843D01*
X56419773Y-115456371D01*
X56604802Y-115537547D01*
X56813495Y-115619183D01*
X57030723Y-115695093D01*
X57241358Y-115759092D01*
X57430269Y-115804991D01*
X57608603Y-115838077D01*
X57820087Y-115872190D01*
X57997872Y-115895858D01*
X58115926Y-115909061D01*
X58328707Y-115933686D01*
X58527038Y-115957456D01*
X58567226Y-115961489D01*
X58713894Y-115970440D01*
X58915939Y-115978038D01*
X59155863Y-115984095D01*
X59416165Y-115988424D01*
X59679346Y-115990839D01*
X59927907Y-115991152D01*
X60144348Y-115989175D01*
X60311170Y-115984722D01*
X60410872Y-115977605D01*
X60464008Y-115971139D01*
X60590647Y-115957195D01*
X60763488Y-115938979D01*
X60961205Y-115918771D01*
X61405062Y-115871537D01*
X61894416Y-115811351D01*
X62319614Y-115748098D01*
X62692066Y-115679636D01*
X63023182Y-115603820D01*
X63324369Y-115518506D01*
X63607038Y-115421550D01*
X63730694Y-115372523D01*
X63916661Y-115289499D01*
X64089917Y-115202541D01*
X64234025Y-115120585D01*
X64332545Y-115052564D01*
X64369038Y-115007413D01*
X64343616Y-115008666D01*
X64266993Y-115034292D01*
X64166808Y-115074819D01*
X64071424Y-115118671D01*
X64009205Y-115154272D01*
X63979938Y-115170342D01*
X63883788Y-115209691D01*
X63755205Y-115254103D01*
X63723553Y-115263834D01*
X63640767Y-115285865D01*
X63538499Y-115307774D01*
X63405985Y-115331265D01*
X63232462Y-115358041D01*
X63007167Y-115389803D01*
X62719336Y-115428255D01*
X62358205Y-115475100D01*
X62346116Y-115476439D01*
X62237947Y-115482905D01*
X62063968Y-115488472D01*
X61839952Y-115492817D01*
X61581674Y-115495620D01*
X61304911Y-115496560D01*
X61254946Y-115496614D01*
X60977725Y-115499456D01*
X60719827Y-115506106D01*
X60497585Y-115515877D01*
X60327335Y-115528079D01*
X60225411Y-115542026D01*
X60112552Y-115561625D01*
X59892181Y-115582365D01*
X59613685Y-115595342D01*
X59292348Y-115600824D01*
X58943453Y-115599077D01*
X58582284Y-115590368D01*
X58224125Y-115574965D01*
X57884258Y-115553135D01*
X57577968Y-115525144D01*
X57320538Y-115491260D01*
X57211895Y-115472285D01*
X56998253Y-115428675D01*
X56780138Y-115377680D01*
X56579502Y-115324887D01*
X56418298Y-115275882D01*
X56318476Y-115236251D01*
X56266619Y-115217090D01*
X56188670Y-115225889D01*
X56156372Y-115284091D01*
X55219691Y-115284091D01*
X55272910Y-115164716D01*
X55418282Y-114824379D01*
X55550061Y-114500418D01*
X55630318Y-114289674D01*
X57411851Y-114289674D01*
X57433115Y-114325337D01*
X57535022Y-114418319D01*
X57707422Y-114529634D01*
X57943038Y-114655255D01*
X58234596Y-114791157D01*
X58574821Y-114933314D01*
X59225538Y-115191962D01*
X59797038Y-115218018D01*
X59818193Y-115218985D01*
X60051538Y-115230060D01*
X60272329Y-115241189D01*
X60456555Y-115251129D01*
X60580205Y-115258633D01*
X60641218Y-115261183D01*
X60805191Y-115256028D01*
X60940038Y-115236936D01*
X60978860Y-115228677D01*
X61115389Y-115206358D01*
X61295374Y-115182431D01*
X61490372Y-115160829D01*
X61524081Y-115157410D01*
X61699254Y-115135244D01*
X61851256Y-115104429D01*
X62004805Y-115057646D01*
X62184616Y-114987576D01*
X62415407Y-114886899D01*
X62445046Y-114873609D01*
X62683158Y-114764277D01*
X62855305Y-114677929D01*
X62972833Y-114606711D01*
X63047091Y-114542769D01*
X63089425Y-114478247D01*
X63111183Y-114405291D01*
X63122762Y-114311515D01*
X63104847Y-114194583D01*
X63034464Y-114100202D01*
X62901210Y-114016550D01*
X62694684Y-113931799D01*
X62568005Y-113886548D01*
X62367725Y-113819313D01*
X62185422Y-113766706D01*
X62006434Y-113726649D01*
X61816097Y-113697067D01*
X61599747Y-113675883D01*
X61342720Y-113661021D01*
X61030354Y-113650403D01*
X60647985Y-113641954D01*
X60252860Y-113636469D01*
X59833965Y-113637313D01*
X59470997Y-113647449D01*
X59148324Y-113667927D01*
X58850314Y-113699797D01*
X58561337Y-113744108D01*
X58265760Y-113801909D01*
X58235664Y-113808412D01*
X57908379Y-113892321D01*
X57661257Y-113983029D01*
X57495395Y-114079909D01*
X57411894Y-114182333D01*
X57411851Y-114289674D01*
X55630318Y-114289674D01*
X55660677Y-114209957D01*
X55742560Y-113970120D01*
X55754594Y-113930563D01*
X55770927Y-113870131D01*
X55784493Y-113804694D01*
X55795458Y-113727012D01*
X55803990Y-113629843D01*
X55810257Y-113505944D01*
X55814426Y-113348076D01*
X55816665Y-113148995D01*
X55817142Y-112901460D01*
X55816024Y-112598230D01*
X55813479Y-112232063D01*
X55809674Y-111795718D01*
X55804777Y-111281953D01*
X55801487Y-110960472D01*
X55796493Y-110526522D01*
X55791189Y-110120302D01*
X55785715Y-109749946D01*
X55780212Y-109423587D01*
X55774818Y-109149358D01*
X55769675Y-108935392D01*
X55764922Y-108789824D01*
X55760699Y-108720787D01*
X55760054Y-108715852D01*
X55752251Y-108620967D01*
X55743102Y-108458739D01*
X55733337Y-108244963D01*
X55723681Y-107995435D01*
X55714865Y-107725953D01*
X55707168Y-107473402D01*
X55697156Y-107158833D01*
X55687030Y-106853547D01*
X55677628Y-106582659D01*
X55669784Y-106371287D01*
X55669116Y-106354217D01*
X55659580Y-106107084D01*
X55648439Y-105813521D01*
X55637024Y-105508823D01*
X55626666Y-105228287D01*
X55624406Y-105167362D01*
X55614207Y-104909136D01*
X55603378Y-104657018D01*
X55593080Y-104437178D01*
X55584472Y-104275787D01*
X55581870Y-104232177D01*
X55569396Y-104021738D01*
X55555264Y-103781773D01*
X55542057Y-103556120D01*
X55537627Y-103481978D01*
X55524207Y-103273786D01*
X55510640Y-103082639D01*
X55499278Y-102942287D01*
X55496444Y-102911250D01*
X55484347Y-102778578D01*
X55475016Y-102676170D01*
X55747179Y-102676170D01*
X55752431Y-102751787D01*
X55761859Y-102853347D01*
X55779317Y-103082486D01*
X55798595Y-103378731D01*
X55819072Y-103731174D01*
X55840127Y-104128908D01*
X55861138Y-104561025D01*
X55881483Y-105016620D01*
X55890456Y-105226080D01*
X55902427Y-105504087D01*
X55913981Y-105771086D01*
X55923530Y-105990287D01*
X55925344Y-106033125D01*
X55932701Y-106225364D01*
X55941488Y-106476637D01*
X55951049Y-106767206D01*
X55960730Y-107077335D01*
X55969877Y-107387287D01*
X55974196Y-107533227D01*
X55983160Y-107807706D01*
X55992213Y-108051887D01*
X56000797Y-108252184D01*
X56008352Y-108395012D01*
X56014319Y-108466787D01*
X56015461Y-108478448D01*
X56019343Y-108566738D01*
X56023804Y-108728526D01*
X56028699Y-108955442D01*
X56033880Y-109239114D01*
X56039202Y-109571172D01*
X56044520Y-109943245D01*
X56049686Y-110346962D01*
X56054556Y-110773953D01*
X56056253Y-110929515D01*
X56061089Y-111345766D01*
X56066019Y-111733787D01*
X56070914Y-112085517D01*
X56075646Y-112392892D01*
X56080085Y-112647852D01*
X56084104Y-112842334D01*
X56087573Y-112968278D01*
X56090364Y-113017620D01*
X56091895Y-113020285D01*
X56112064Y-112991150D01*
X56147384Y-112900079D01*
X56191279Y-112763620D01*
X56255926Y-112488797D01*
X56307253Y-112142427D01*
X56341210Y-111752371D01*
X56356055Y-111338859D01*
X56350042Y-110922120D01*
X56344941Y-110788165D01*
X56336583Y-110536254D01*
X56327542Y-110232726D01*
X56318370Y-109897099D01*
X56309613Y-109548891D01*
X56301822Y-109207620D01*
X56294967Y-108909412D01*
X56287463Y-108621225D01*
X56279960Y-108367373D01*
X56272859Y-108160435D01*
X56266558Y-108012991D01*
X56261458Y-107937620D01*
X56255279Y-107874886D01*
X56244400Y-107733433D01*
X56232157Y-107548841D01*
X56220212Y-107344953D01*
X56212658Y-107209604D01*
X56199483Y-106983601D01*
X56186888Y-106778164D01*
X56176801Y-106625287D01*
X56171087Y-106539308D01*
X56159673Y-106350313D01*
X56147234Y-106128415D01*
X56135604Y-105905620D01*
X56097686Y-105238758D01*
X56052229Y-104616456D01*
X56000776Y-104066180D01*
X55943658Y-103591058D01*
X55881209Y-103194217D01*
X55813761Y-102878787D01*
X55778869Y-102746767D01*
X55755442Y-102673359D01*
X55747179Y-102676170D01*
X55475016Y-102676170D01*
X55466552Y-102583270D01*
X55444485Y-102340985D01*
X55419573Y-102067382D01*
X55393241Y-101778120D01*
X55375524Y-101585220D01*
X55334174Y-101145445D01*
X55288114Y-100667380D01*
X55238492Y-100162168D01*
X55186457Y-99640954D01*
X55133160Y-99114882D01*
X55079750Y-98595097D01*
X55027376Y-98092741D01*
X54977187Y-97618959D01*
X54930333Y-97184895D01*
X54887963Y-96801694D01*
X54851226Y-96480498D01*
X54821272Y-96232453D01*
X54811728Y-96157173D01*
X54745674Y-95655328D01*
X54667994Y-95092865D01*
X54580328Y-94480106D01*
X54484318Y-93827374D01*
X54381607Y-93144992D01*
X54273835Y-92443282D01*
X54162644Y-91732569D01*
X54049676Y-91023174D01*
X53936572Y-90325420D01*
X53824973Y-89649631D01*
X53716522Y-89006129D01*
X53612859Y-88405238D01*
X53515626Y-87857279D01*
X53426465Y-87372577D01*
X53347018Y-86961453D01*
X53329189Y-86871896D01*
X53269293Y-86567598D01*
X53211622Y-86269825D01*
X53159826Y-85997689D01*
X53117553Y-85770305D01*
X53088451Y-85606787D01*
X53088364Y-85606275D01*
X53058197Y-85435378D01*
X53015577Y-85202654D01*
X52964458Y-84929250D01*
X52908794Y-84636317D01*
X52852538Y-84345002D01*
X52845589Y-84309138D01*
X52794740Y-84034023D01*
X52750655Y-83773841D01*
X52735957Y-83677201D01*
X52981453Y-83677201D01*
X52992732Y-83712662D01*
X52998246Y-83732308D01*
X53019425Y-83827863D01*
X53051958Y-83987584D01*
X53093319Y-84198683D01*
X53140983Y-84448370D01*
X53192424Y-84723856D01*
X53243951Y-85000675D01*
X53311320Y-85358785D01*
X53386707Y-85756490D01*
X53465819Y-86171219D01*
X53544363Y-86580398D01*
X53618044Y-86961453D01*
X53677017Y-87269962D01*
X53758391Y-87708166D01*
X53842107Y-88170959D01*
X53923371Y-88631448D01*
X53997391Y-89062744D01*
X54059376Y-89437953D01*
X54096440Y-89668299D01*
X54159741Y-90060945D01*
X54225551Y-90468381D01*
X54289894Y-90866009D01*
X54348791Y-91229232D01*
X54398264Y-91533453D01*
X54406102Y-91581624D01*
X54486921Y-92086453D01*
X54570582Y-92622592D01*
X54655234Y-93177279D01*
X54739025Y-93737755D01*
X54820104Y-94291260D01*
X54896620Y-94825034D01*
X54966721Y-95326317D01*
X55028556Y-95782349D01*
X55080272Y-96180370D01*
X55120019Y-96507620D01*
X55127591Y-96573112D01*
X55152988Y-96789693D01*
X55175418Y-96976521D01*
X55192684Y-97115473D01*
X55202586Y-97188425D01*
X55202656Y-97188865D01*
X55209739Y-97249531D01*
X55224162Y-97385657D01*
X55245057Y-97588637D01*
X55271554Y-97849863D01*
X55302786Y-98160729D01*
X55337883Y-98512626D01*
X55375977Y-98896950D01*
X55416199Y-99305091D01*
X55615546Y-101333620D01*
X55969313Y-102116787D01*
X55999401Y-102183605D01*
X56133330Y-102489552D01*
X56240206Y-102755535D01*
X56324414Y-102999349D01*
X56390343Y-103238785D01*
X56442377Y-103491637D01*
X56484905Y-103775699D01*
X56522312Y-104108762D01*
X56558985Y-104508620D01*
X56572785Y-104666076D01*
X56588712Y-104841840D01*
X56601274Y-104974287D01*
X56612857Y-105102152D01*
X56627314Y-105277439D01*
X56641415Y-105461120D01*
X56651010Y-105584234D01*
X56666960Y-105779540D01*
X56687854Y-106029969D01*
X56712448Y-106320717D01*
X56739497Y-106636979D01*
X56767758Y-106963953D01*
X56771712Y-107009508D01*
X56803637Y-107382495D01*
X56829926Y-107703516D01*
X56851837Y-107992083D01*
X56870628Y-108267705D01*
X56887557Y-108549892D01*
X56903884Y-108858156D01*
X56920865Y-109212006D01*
X56939760Y-109630953D01*
X56958214Y-110028647D01*
X56976792Y-110388190D01*
X56994196Y-110682407D01*
X57010044Y-110904863D01*
X57023954Y-111049120D01*
X57026295Y-111068934D01*
X57039123Y-111196652D01*
X57051618Y-111338859D01*
X57054345Y-111369907D01*
X57069152Y-111557120D01*
X57076208Y-111639462D01*
X57112008Y-111867086D01*
X57174065Y-112037712D01*
X57272043Y-112171774D01*
X57415604Y-112289702D01*
X57490462Y-112339245D01*
X57588605Y-112394167D01*
X57694029Y-112436399D01*
X57822167Y-112469710D01*
X57988451Y-112497868D01*
X58208314Y-112524642D01*
X58497187Y-112553800D01*
X58653111Y-112568992D01*
X58869300Y-112590747D01*
X59046507Y-112609417D01*
X59169627Y-112623395D01*
X59223554Y-112631076D01*
X59217118Y-112638364D01*
X59148690Y-112667559D01*
X59019810Y-112714436D01*
X58843027Y-112774502D01*
X58630888Y-112843265D01*
X58389310Y-112920242D01*
X58137752Y-113001975D01*
X57946087Y-113067439D01*
X57802435Y-113121538D01*
X57694914Y-113169176D01*
X57611644Y-113215260D01*
X57540743Y-113264694D01*
X57470332Y-113322382D01*
X57377005Y-113408894D01*
X57315741Y-113481145D01*
X57305173Y-113516337D01*
X57347236Y-113505806D01*
X57443865Y-113440885D01*
X57495620Y-113406651D01*
X57666030Y-113326013D01*
X57886228Y-113250562D01*
X58131936Y-113187959D01*
X58378872Y-113145866D01*
X58459347Y-113139178D01*
X58620308Y-113130502D01*
X58840044Y-113121397D01*
X59104601Y-113112379D01*
X59400028Y-113103961D01*
X59712372Y-113096660D01*
X59783061Y-113095258D01*
X60338061Y-113090022D01*
X60821350Y-113097386D01*
X61243816Y-113118359D01*
X61616347Y-113153948D01*
X61949834Y-113205159D01*
X62255165Y-113273000D01*
X62543229Y-113358477D01*
X62691329Y-113409764D01*
X62879402Y-113479888D01*
X63033719Y-113543025D01*
X63130788Y-113589921D01*
X63198233Y-113626263D01*
X63256625Y-113642704D01*
X63254159Y-113611308D01*
X63192550Y-113537023D01*
X63073515Y-113424796D01*
X62979996Y-113350532D01*
X62817346Y-113250897D01*
X62616589Y-113160003D01*
X62368465Y-113074797D01*
X62063711Y-112992224D01*
X61693066Y-112909233D01*
X61247267Y-112822769D01*
X61225228Y-112818717D01*
X61032635Y-112782338D01*
X60877172Y-112751287D01*
X60774248Y-112728744D01*
X60739267Y-112717890D01*
X60741484Y-112716517D01*
X60801848Y-112704248D01*
X60930025Y-112688566D01*
X61111375Y-112670915D01*
X61331259Y-112652740D01*
X61575038Y-112635482D01*
X61674106Y-112628901D01*
X62023599Y-112602591D01*
X62301821Y-112575318D01*
X62519496Y-112545378D01*
X62687349Y-112511068D01*
X62816105Y-112470688D01*
X62916487Y-112422533D01*
X63075249Y-112309479D01*
X63205833Y-112162049D01*
X63312302Y-111966790D01*
X63407257Y-111705287D01*
X63440727Y-111593236D01*
X63473075Y-111469832D01*
X63500262Y-111341235D01*
X63523267Y-111197516D01*
X63543066Y-111028746D01*
X63544031Y-111017557D01*
X64082086Y-111017557D01*
X64083474Y-111328210D01*
X64088283Y-111595327D01*
X64096701Y-111805229D01*
X64108920Y-111944237D01*
X64142989Y-112133403D01*
X64189037Y-112324625D01*
X64236594Y-112473403D01*
X64317911Y-112678953D01*
X64321289Y-111811120D01*
X64323018Y-111554459D01*
X64327031Y-111214923D01*
X64332675Y-110875191D01*
X64339467Y-110563549D01*
X64346923Y-110308287D01*
X64358290Y-109984938D01*
X64373048Y-109569256D01*
X64385554Y-109223543D01*
X64396150Y-108939040D01*
X64405182Y-108706989D01*
X64412993Y-108518630D01*
X64419926Y-108365205D01*
X64426327Y-108237955D01*
X64432538Y-108128120D01*
X64454454Y-107756542D01*
X64474190Y-107405689D01*
X64490710Y-107089390D01*
X64505372Y-106781520D01*
X64519537Y-106455953D01*
X64522864Y-106379902D01*
X64540545Y-106037260D01*
X64565722Y-105622605D01*
X64598597Y-105132877D01*
X64639374Y-104565013D01*
X64688257Y-103915953D01*
X64701278Y-103757930D01*
X64716742Y-103591563D01*
X64729828Y-103471453D01*
X64738738Y-103387578D01*
X64732863Y-103368649D01*
X64707678Y-103420433D01*
X64695002Y-103462982D01*
X64674986Y-103561237D01*
X64649319Y-103714937D01*
X64617315Y-103928859D01*
X64578291Y-104207779D01*
X64531561Y-104556473D01*
X64476442Y-104979716D01*
X64412249Y-105482287D01*
X64411282Y-105489966D01*
X64396740Y-105617945D01*
X64380508Y-105784373D01*
X64362073Y-105995829D01*
X64340922Y-106258891D01*
X64316540Y-106580139D01*
X64288413Y-106966151D01*
X64256029Y-107423508D01*
X64218873Y-107958787D01*
X64213201Y-108038168D01*
X64195304Y-108269641D01*
X64174109Y-108525396D01*
X64153077Y-108763120D01*
X64152180Y-108772946D01*
X64134944Y-109005358D01*
X64119799Y-109289983D01*
X64106935Y-109613143D01*
X64096542Y-109961159D01*
X64088809Y-110320352D01*
X64083927Y-110677044D01*
X64082086Y-111017557D01*
X63544031Y-111017557D01*
X63560639Y-110824996D01*
X63576962Y-110576338D01*
X63593013Y-110272842D01*
X63609771Y-109904579D01*
X63628213Y-109461620D01*
X63654406Y-108898663D01*
X63690789Y-108311040D01*
X63737476Y-107729371D01*
X63797459Y-107112120D01*
X63814134Y-106951218D01*
X63845490Y-106640370D01*
X63870230Y-106378963D01*
X63890460Y-106143020D01*
X63908289Y-105908565D01*
X63925823Y-105651620D01*
X63936591Y-105491932D01*
X63977554Y-104962282D01*
X64025697Y-104462354D01*
X64083303Y-103978339D01*
X64152656Y-103496429D01*
X64236041Y-103002813D01*
X64335741Y-102483684D01*
X64454041Y-101925231D01*
X64593225Y-101313646D01*
X64755576Y-100635120D01*
X64800316Y-100448350D01*
X64885923Y-100062069D01*
X64951985Y-99710386D01*
X65004111Y-99361628D01*
X65047909Y-98984120D01*
X65070487Y-98765558D01*
X65100758Y-98474925D01*
X65125629Y-98241081D01*
X65147025Y-98047153D01*
X65166874Y-97876266D01*
X65187102Y-97711548D01*
X65209634Y-97536124D01*
X65236398Y-97333120D01*
X65246650Y-97254699D01*
X65280400Y-96984423D01*
X65314400Y-96697478D01*
X65342645Y-96444120D01*
X65352293Y-96357287D01*
X65380266Y-96125877D01*
X65415695Y-95851000D01*
X65455018Y-95559933D01*
X65494672Y-95279953D01*
X65531987Y-95022717D01*
X65597956Y-94561531D01*
X65655431Y-94149137D01*
X65707566Y-93762342D01*
X65757516Y-93377956D01*
X65808434Y-92972787D01*
X65839875Y-92720249D01*
X65890345Y-92322637D01*
X65934910Y-91985647D01*
X65975918Y-91694165D01*
X66015719Y-91433079D01*
X66056662Y-91187277D01*
X66101095Y-90941647D01*
X66151368Y-90681077D01*
X66209829Y-90390453D01*
X66242882Y-90229998D01*
X66314895Y-89887770D01*
X66397570Y-89502157D01*
X66485439Y-89098386D01*
X66573034Y-88701687D01*
X66654884Y-88337287D01*
X66680791Y-88222774D01*
X66779021Y-87781638D01*
X66877200Y-87330531D01*
X66973815Y-86877177D01*
X67067353Y-86429294D01*
X67156299Y-85994606D01*
X67239141Y-85580832D01*
X67314366Y-85195695D01*
X67380458Y-84846915D01*
X67435907Y-84542214D01*
X67479197Y-84289312D01*
X67508815Y-84095932D01*
X67523248Y-83969794D01*
X67520983Y-83918620D01*
X67516380Y-83916325D01*
X67457507Y-83926219D01*
X67361412Y-83964673D01*
X67356343Y-83967050D01*
X67232880Y-84014409D01*
X67050282Y-84072605D01*
X66830932Y-84135482D01*
X66597209Y-84196885D01*
X66371497Y-84250658D01*
X66176176Y-84290645D01*
X66121800Y-84299505D01*
X65959220Y-84321752D01*
X65744494Y-84347624D01*
X65499180Y-84374588D01*
X65244843Y-84400108D01*
X65104220Y-84413586D01*
X64868698Y-84436572D01*
X64662499Y-84457197D01*
X64503949Y-84473617D01*
X64411372Y-84483988D01*
X64353218Y-84490811D01*
X64158363Y-84508400D01*
X63915025Y-84523551D01*
X63618682Y-84536364D01*
X63264815Y-84546935D01*
X62848902Y-84555364D01*
X62366422Y-84561748D01*
X61812854Y-84566187D01*
X61183678Y-84568778D01*
X60474372Y-84569620D01*
X60271536Y-84569585D01*
X59715348Y-84569003D01*
X59233363Y-84567560D01*
X58817733Y-84565066D01*
X58460608Y-84561333D01*
X58154139Y-84556172D01*
X57890476Y-84549395D01*
X57661771Y-84540813D01*
X57460174Y-84530236D01*
X57277836Y-84517478D01*
X57106907Y-84502348D01*
X56939538Y-84484658D01*
X56910685Y-84481405D01*
X56745028Y-84462966D01*
X56579705Y-84444853D01*
X56001407Y-84379029D01*
X55405903Y-84302703D01*
X54886159Y-84225452D01*
X54437394Y-84146337D01*
X54054829Y-84064420D01*
X53733685Y-83978762D01*
X53469181Y-83888425D01*
X53256538Y-83792471D01*
X53134813Y-83728734D01*
X53038543Y-83681017D01*
X52992073Y-83665246D01*
X52981453Y-83677201D01*
X52735957Y-83677201D01*
X52715939Y-83545584D01*
X52693198Y-83366245D01*
X52685038Y-83252816D01*
X52685042Y-83249607D01*
X52694468Y-83152777D01*
X52939038Y-83152777D01*
X52943811Y-83177514D01*
X53000593Y-83266389D01*
X53106978Y-83372548D01*
X53244651Y-83479254D01*
X53395299Y-83569770D01*
X53460521Y-83600657D01*
X53716351Y-83695180D01*
X54051627Y-83788029D01*
X54462410Y-83878531D01*
X54944760Y-83966013D01*
X55494738Y-84049804D01*
X56108403Y-84129230D01*
X56781817Y-84203620D01*
X57511038Y-84272300D01*
X57515787Y-84272711D01*
X57723014Y-84287940D01*
X57963536Y-84300459D01*
X58244691Y-84310398D01*
X58573814Y-84317889D01*
X58958241Y-84323062D01*
X59405308Y-84326049D01*
X59922351Y-84326981D01*
X60516705Y-84325988D01*
X60723933Y-84325321D01*
X61160597Y-84323630D01*
X61575218Y-84321649D01*
X61958848Y-84319441D01*
X62302543Y-84317073D01*
X62597355Y-84314608D01*
X62834339Y-84312112D01*
X63004549Y-84309650D01*
X63099038Y-84307285D01*
X63175175Y-84303570D01*
X63400572Y-84289720D01*
X63684188Y-84269572D01*
X64007956Y-84244623D01*
X64353807Y-84216371D01*
X64703676Y-84186313D01*
X65039493Y-84155947D01*
X65343192Y-84126770D01*
X65596705Y-84100278D01*
X65621456Y-84097494D01*
X66009171Y-84043163D01*
X66382486Y-83971847D01*
X66731400Y-83886900D01*
X67045909Y-83791674D01*
X67316011Y-83689523D01*
X67531704Y-83583800D01*
X67682985Y-83477860D01*
X67759850Y-83375056D01*
X67770000Y-83290000D01*
X67715078Y-83166240D01*
X67581338Y-83042908D01*
X67372160Y-82922864D01*
X67090921Y-82808965D01*
X67063301Y-82799639D01*
X66874445Y-82743937D01*
X66634767Y-82682456D01*
X66370684Y-82621108D01*
X66108613Y-82565800D01*
X65874969Y-82522443D01*
X65696171Y-82496947D01*
X65344322Y-82462287D01*
X64915433Y-82423576D01*
X64518110Y-82391550D01*
X64178538Y-82368427D01*
X64075569Y-82362123D01*
X63875775Y-82348914D01*
X63702948Y-82336301D01*
X63585872Y-82326326D01*
X63563657Y-82324310D01*
X63439162Y-82315555D01*
X63256935Y-82304945D01*
X63037831Y-82293642D01*
X62802705Y-82282802D01*
X62758212Y-82280868D01*
X62506361Y-82269623D01*
X62260711Y-82258218D01*
X62047394Y-82247887D01*
X61892538Y-82239862D01*
X61879312Y-82239202D01*
X61763481Y-82235329D01*
X61574240Y-82230753D01*
X61321008Y-82225637D01*
X61013201Y-82220142D01*
X60660236Y-82214429D01*
X60271532Y-82208659D01*
X59856505Y-82202994D01*
X59424572Y-82197594D01*
X59018926Y-82193374D01*
X58330466Y-82189628D01*
X57719058Y-82191255D01*
X57179861Y-82198365D01*
X56708034Y-82211069D01*
X56298737Y-82229477D01*
X55947130Y-82253701D01*
X55648372Y-82283850D01*
X55274801Y-82331353D01*
X54708551Y-82414186D01*
X54224435Y-82500137D01*
X53823076Y-82589076D01*
X53505098Y-82680876D01*
X53271123Y-82775407D01*
X53200051Y-82816420D01*
X53068269Y-82924278D01*
X52974652Y-83043911D01*
X52939038Y-83152777D01*
X52694468Y-83152777D01*
X52705984Y-83034488D01*
X52772925Y-82855837D01*
X52893597Y-82706574D01*
X53075733Y-82579618D01*
X53327064Y-82467889D01*
X53655324Y-82364305D01*
X53995193Y-82279799D01*
X54486731Y-82181337D01*
X55024865Y-82096042D01*
X55588458Y-82027178D01*
X56156372Y-81978010D01*
X56182127Y-81976355D01*
X56386768Y-81967090D01*
X56660906Y-81959595D01*
X56995473Y-81953805D01*
X57381402Y-81949656D01*
X57809623Y-81947082D01*
X58271069Y-81946020D01*
X58756670Y-81946404D01*
X59257359Y-81948170D01*
X59764068Y-81951253D01*
X60267727Y-81955588D01*
X60759270Y-81961110D01*
X61229626Y-81967755D01*
X61669728Y-81975458D01*
X62070508Y-81984154D01*
X62422898Y-81993779D01*
X62717828Y-82004267D01*
X62946231Y-82015554D01*
X63099038Y-82027575D01*
X63156718Y-82033101D01*
X63301673Y-82044684D01*
X63488705Y-82057976D01*
X63691705Y-82071060D01*
X63730142Y-82073427D01*
X64060617Y-82095312D01*
X64447451Y-82123477D01*
X64899942Y-82158620D01*
X65427386Y-82201440D01*
X65508925Y-82208639D01*
X65922358Y-82259104D01*
X66324957Y-82330158D01*
X66706182Y-82418431D01*
X67055493Y-82520549D01*
X67362350Y-82633138D01*
X67616214Y-82752827D01*
X67806544Y-82876242D01*
X67922802Y-83000010D01*
X67991809Y-83126006D01*
X68026701Y-83241001D01*
X68026139Y-83290000D01*
X68025286Y-83364482D01*
G37*
G04 #@! TD.AperFunction*
M02*
