G04 #@! TF.GenerationSoftware,KiCad,Pcbnew,7.0.10*
G04 #@! TF.CreationDate,2024-06-20T09:05:48-05:00*
G04 #@! TF.ProjectId,g0dzilla_vs_rear,6730647a-696c-46c6-915f-76735f726561,1*
G04 #@! TF.SameCoordinates,Original*
G04 #@! TF.FileFunction,Profile,NP*
%FSLAX46Y46*%
G04 Gerber Fmt 4.6, Leading zero omitted, Abs format (unit mm)*
G04 Created by KiCad (PCBNEW 7.0.10) date 2024-06-20 09:05:48*
%MOMM*%
%LPD*%
G01*
G04 APERTURE LIST*
G04 #@! TA.AperFunction,Profile*
%ADD10C,0.050000*%
G04 #@! TD*
G04 #@! TA.AperFunction,Profile*
%ADD11C,0.120000*%
G04 #@! TD*
G04 APERTURE END LIST*
D10*
X73169000Y-55716000D02*
X73296000Y-55081000D01*
X73169000Y-58789400D02*
X73169000Y-55716000D01*
X73296000Y-55081000D02*
X73550000Y-54700000D01*
X73550000Y-54700000D02*
X74058000Y-54192000D01*
X74058000Y-54192000D02*
X74693000Y-53938000D01*
X74693000Y-53938000D02*
X75201000Y-53811000D01*
X75201000Y-53811000D02*
X76217000Y-53684000D01*
X76979000Y-53684000D02*
X76217000Y-53684000D01*
X76979000Y-53684000D02*
X77741000Y-53684000D01*
X77741000Y-53684000D02*
X78630000Y-53811000D01*
X78630000Y-53811000D02*
X79265000Y-53938000D01*
X79265000Y-53938000D02*
X79900000Y-54192000D01*
X79900000Y-54192000D02*
X80408000Y-54700000D01*
X80408000Y-54700000D02*
X80662000Y-55081000D01*
X80662000Y-55081000D02*
X80789000Y-55716000D01*
X80789000Y-58789400D02*
X73169000Y-58789400D01*
X80789000Y-58789400D02*
X80789000Y-55716000D01*
D11*
X46370000Y-109830000D02*
X46920000Y-104140000D01*
X46570000Y-114160000D02*
X46370000Y-109830000D01*
X46920000Y-104140000D02*
X47680000Y-98340000D01*
X47130000Y-91870000D02*
X47000000Y-91220000D01*
X47230000Y-117460000D02*
X46570000Y-114160000D01*
X47680000Y-98340000D02*
X47910000Y-95390000D01*
X47910000Y-95390000D02*
X47130000Y-91870000D01*
X48420000Y-119820000D02*
X47230000Y-117460000D01*
X49020000Y-76910000D02*
X47000000Y-91220000D01*
X49020000Y-76910000D02*
X50520000Y-75120000D01*
X49740000Y-121940000D02*
X48420000Y-119820000D01*
X50440000Y-122820000D02*
X49740000Y-121940000D01*
X50520000Y-75120000D02*
X51290000Y-73270000D01*
X50910000Y-123310000D02*
X50440000Y-122820000D01*
X51190000Y-67090000D02*
X51510000Y-64310000D01*
X51250000Y-69100000D02*
X51190000Y-67090000D01*
X51290000Y-73270000D02*
X51250000Y-69100000D01*
X51510000Y-64310000D02*
X52500000Y-62450000D01*
X51740000Y-123810000D02*
X50910000Y-123310000D01*
X52500000Y-62450000D02*
X53670000Y-59690000D01*
X53040000Y-124320000D02*
X51740000Y-123810000D01*
X53670000Y-59690000D02*
X55200000Y-57790000D01*
X54350000Y-124580000D02*
X53040000Y-124320000D01*
X55200000Y-57790000D02*
X57000000Y-56020000D01*
X56340000Y-124790000D02*
X54350000Y-124580000D01*
X57000000Y-56020000D02*
X58560000Y-54660000D01*
X58560000Y-54660000D02*
X59290000Y-54050000D01*
X58670000Y-124910000D02*
X56340000Y-124790000D01*
X59290000Y-54050000D02*
X59920000Y-52360000D01*
X59920000Y-52360000D02*
X60810000Y-51640000D01*
X60810000Y-51640000D02*
X61770000Y-51440000D01*
X61620000Y-124880000D02*
X58670000Y-124910000D01*
X61770000Y-51440000D02*
X62980000Y-51730000D01*
X62980000Y-51730000D02*
X65510000Y-53270000D01*
X65100000Y-124790000D02*
X61620000Y-124880000D01*
X65510000Y-53270000D02*
X66570000Y-52960000D01*
X66570000Y-52960000D02*
X67360000Y-52040000D01*
X67360000Y-52040000D02*
X68540000Y-50980000D01*
X67530000Y-124990000D02*
X65100000Y-124790000D01*
X68540000Y-50980000D02*
X70350000Y-50020000D01*
X69150000Y-125890000D02*
X67530000Y-124990000D01*
X70350000Y-50020000D02*
X71900000Y-49830000D01*
X71900000Y-49830000D02*
X72890000Y-50070000D01*
X72890000Y-50070000D02*
X73910000Y-50560000D01*
X73910000Y-50560000D02*
X74340000Y-50840000D01*
X74300000Y-130360000D02*
X69150000Y-125890000D01*
X74340000Y-50840000D02*
X75420000Y-51020000D01*
X75420000Y-51020000D02*
X75570000Y-51000000D01*
X75570000Y-51000000D02*
X76590000Y-50120000D01*
X76590000Y-50120000D02*
X77020000Y-48960000D01*
X77020000Y-48960000D02*
X78660000Y-47290000D01*
X77620000Y-133940000D02*
X74300000Y-130360000D01*
X78660000Y-47290000D02*
X80420000Y-47060000D01*
X79620000Y-136180000D02*
X77620000Y-133940000D01*
X80420000Y-47060000D02*
X81770000Y-47540000D01*
X81770000Y-47540000D02*
X82150000Y-47680000D01*
X82150000Y-47680000D02*
X83170000Y-47690000D01*
X82650000Y-140920000D02*
X79620000Y-136180000D01*
X83170000Y-47690000D02*
X85050000Y-47230000D01*
X83480000Y-142320000D02*
X82650000Y-140920000D01*
X84050000Y-143480000D02*
X83480000Y-142320000D01*
X84390000Y-144340000D02*
X84050000Y-143480000D01*
X84500000Y-145020000D02*
X84390000Y-144340000D01*
X84650000Y-158490000D02*
X84500000Y-145020000D01*
X84920000Y-184630000D02*
X84650000Y-158490000D01*
X84990000Y-186420000D02*
X84920000Y-184630000D01*
X85050000Y-47230000D02*
X86160000Y-46290000D01*
X85600000Y-189570000D02*
X84990000Y-186420000D01*
X85870000Y-190480000D02*
X85600000Y-189570000D01*
X86160000Y-46290000D02*
X87930000Y-45660000D01*
X86310000Y-191340000D02*
X85870000Y-190480000D01*
X86950000Y-192060000D02*
X86310000Y-191340000D01*
X87750000Y-192760000D02*
X86950000Y-192060000D01*
X87930000Y-45660000D02*
X89120000Y-45700000D01*
X88710000Y-193340000D02*
X87750000Y-192760000D01*
X89120000Y-45700000D02*
X92190000Y-46790000D01*
X89550000Y-193710000D02*
X88710000Y-193340000D01*
X90870000Y-194160000D02*
X89550000Y-193710000D01*
X92190000Y-46790000D02*
X93650000Y-46650000D01*
X93650000Y-46650000D02*
X94690000Y-45780000D01*
X94690000Y-45780000D02*
X96000000Y-44500000D01*
X94970000Y-195080000D02*
X90870000Y-194160000D01*
X94970000Y-195080000D02*
X130015000Y-195080000D01*
X96000000Y-44500000D02*
X97460000Y-43830000D01*
X97460000Y-43830000D02*
X98980000Y-43930000D01*
X98980000Y-43930000D02*
X100400000Y-44280000D01*
X100400000Y-44280000D02*
X101650000Y-45210000D01*
X101650000Y-45210000D02*
X102440000Y-45770000D01*
X102440000Y-45770000D02*
X103280000Y-46000000D01*
X103280000Y-46000000D02*
X104510000Y-45630000D01*
X104510000Y-45630000D02*
X105520000Y-44970000D01*
X105520000Y-44970000D02*
X106190000Y-44120000D01*
X106190000Y-44120000D02*
X106630000Y-42040000D01*
X106630000Y-42040000D02*
X107500000Y-40180000D01*
X107500000Y-40180000D02*
X108980000Y-38930000D01*
X108980000Y-38930000D02*
X110610000Y-38270000D01*
X110610000Y-38270000D02*
X114375000Y-38270000D01*
X116005000Y-38930000D02*
X114375000Y-38270000D01*
X117485000Y-40180000D02*
X116005000Y-38930000D01*
X118355000Y-42040000D02*
X117485000Y-40180000D01*
X118795000Y-44120000D02*
X118355000Y-42040000D01*
X119465000Y-44970000D02*
X118795000Y-44120000D01*
X120475000Y-45630000D02*
X119465000Y-44970000D01*
X121705000Y-46000000D02*
X120475000Y-45630000D01*
X122545000Y-45770000D02*
X121705000Y-46000000D01*
X123335000Y-45210000D02*
X122545000Y-45770000D01*
X124585000Y-44280000D02*
X123335000Y-45210000D01*
X126005000Y-43930000D02*
X124585000Y-44280000D01*
X127525000Y-43830000D02*
X126005000Y-43930000D01*
X128985000Y-44500000D02*
X127525000Y-43830000D01*
X130015000Y-195080000D02*
X134115000Y-194160000D01*
X130295000Y-45780000D02*
X128985000Y-44500000D01*
X131335000Y-46650000D02*
X130295000Y-45780000D01*
X132795000Y-46790000D02*
X131335000Y-46650000D01*
X134115000Y-194160000D02*
X135435000Y-193710000D01*
X135435000Y-193710000D02*
X136275000Y-193340000D01*
X135865000Y-45700000D02*
X132795000Y-46790000D01*
X136275000Y-193340000D02*
X137235000Y-192760000D01*
X137055000Y-45660000D02*
X135865000Y-45700000D01*
X137235000Y-192760000D02*
X138035000Y-192060000D01*
X138035000Y-192060000D02*
X138675000Y-191340000D01*
X138675000Y-191340000D02*
X139115000Y-190480000D01*
X138825000Y-46290000D02*
X137055000Y-45660000D01*
X139115000Y-190480000D02*
X139385000Y-189570000D01*
X139385000Y-189570000D02*
X139995000Y-186420000D01*
X139935000Y-47230000D02*
X138825000Y-46290000D01*
X139995000Y-186420000D02*
X140065000Y-184630000D01*
X140065000Y-184630000D02*
X140335000Y-158490000D01*
X140335000Y-158490000D02*
X140485000Y-145020000D01*
X140485000Y-145020000D02*
X140595000Y-144340000D01*
X140595000Y-144340000D02*
X140935000Y-143480000D01*
X140935000Y-143480000D02*
X141505000Y-142320000D01*
X141505000Y-142320000D02*
X142335000Y-140920000D01*
X141815000Y-47690000D02*
X139935000Y-47230000D01*
X142335000Y-140920000D02*
X145365000Y-136180000D01*
X142835000Y-47680000D02*
X141815000Y-47690000D01*
X143215000Y-47540000D02*
X142835000Y-47680000D01*
X144565000Y-47060000D02*
X143215000Y-47540000D01*
X145365000Y-136180000D02*
X147365000Y-133940000D01*
X146325000Y-47290000D02*
X144565000Y-47060000D01*
X147365000Y-133940000D02*
X150685000Y-130360000D01*
X147965000Y-48960000D02*
X146325000Y-47290000D01*
X148395000Y-50120000D02*
X147965000Y-48960000D01*
X149415000Y-51000000D02*
X148395000Y-50120000D01*
X149565000Y-51020000D02*
X149415000Y-51000000D01*
X150645000Y-50840000D02*
X149565000Y-51020000D01*
X150685000Y-130360000D02*
X155835000Y-125890000D01*
X151075000Y-50560000D02*
X150645000Y-50840000D01*
X152095000Y-50070000D02*
X151075000Y-50560000D01*
X153085000Y-49830000D02*
X152095000Y-50070000D01*
X154635000Y-50020000D02*
X153085000Y-49830000D01*
X155835000Y-125890000D02*
X157455000Y-124990000D01*
X156445000Y-50980000D02*
X154635000Y-50020000D01*
X157455000Y-124990000D02*
X159885000Y-124790000D01*
X157625000Y-52040000D02*
X156445000Y-50980000D01*
X158415000Y-52960000D02*
X157625000Y-52040000D01*
X159475000Y-53270000D02*
X158415000Y-52960000D01*
X159885000Y-124790000D02*
X163365000Y-124880000D01*
X162005000Y-51730000D02*
X159475000Y-53270000D01*
X163215000Y-51440000D02*
X162005000Y-51730000D01*
X163365000Y-124880000D02*
X166315000Y-124910000D01*
X164175000Y-51640000D02*
X163215000Y-51440000D01*
X165065000Y-52360000D02*
X164175000Y-51640000D01*
X165695000Y-54050000D02*
X165065000Y-52360000D01*
X166315000Y-124910000D02*
X168645000Y-124790000D01*
X166425000Y-54660000D02*
X165695000Y-54050000D01*
X167985000Y-56020000D02*
X166425000Y-54660000D01*
X168645000Y-124790000D02*
X170635000Y-124580000D01*
X169785000Y-57790000D02*
X167985000Y-56020000D01*
X170635000Y-124580000D02*
X171945000Y-124320000D01*
X171315000Y-59690000D02*
X169785000Y-57790000D01*
X171945000Y-124320000D02*
X173245000Y-123810000D01*
X172485000Y-62450000D02*
X171315000Y-59690000D01*
X173245000Y-123810000D02*
X174075000Y-123310000D01*
X173475000Y-64310000D02*
X172485000Y-62450000D01*
X173695000Y-73270000D02*
X173735000Y-69100000D01*
X173735000Y-69100000D02*
X173795000Y-67090000D01*
X173795000Y-67090000D02*
X173475000Y-64310000D01*
X174075000Y-123310000D02*
X174545000Y-122820000D01*
X174465000Y-75120000D02*
X173695000Y-73270000D01*
X174545000Y-122820000D02*
X175245000Y-121940000D01*
X175245000Y-121940000D02*
X176565000Y-119820000D01*
X175965000Y-76910000D02*
X174465000Y-75120000D01*
X175965000Y-76910000D02*
X177985000Y-91220000D01*
X176565000Y-119820000D02*
X177755000Y-117460000D01*
X177075000Y-95390000D02*
X177855000Y-91870000D01*
X177305000Y-98340000D02*
X177075000Y-95390000D01*
X177755000Y-117460000D02*
X178415000Y-114160000D01*
X177855000Y-91870000D02*
X177985000Y-91220000D01*
X178065000Y-104140000D02*
X177305000Y-98340000D01*
X178415000Y-114160000D02*
X178615000Y-109830000D01*
X178615000Y-109830000D02*
X178065000Y-104140000D01*
D10*
X144169000Y-55716000D02*
X144296000Y-55081000D01*
X144169000Y-58789400D02*
X144169000Y-55716000D01*
X144296000Y-55081000D02*
X144550000Y-54700000D01*
X144550000Y-54700000D02*
X145058000Y-54192000D01*
X145058000Y-54192000D02*
X145693000Y-53938000D01*
X145693000Y-53938000D02*
X146201000Y-53811000D01*
X146201000Y-53811000D02*
X147217000Y-53684000D01*
X147979000Y-53684000D02*
X147217000Y-53684000D01*
X147979000Y-53684000D02*
X148741000Y-53684000D01*
X148741000Y-53684000D02*
X149630000Y-53811000D01*
X149630000Y-53811000D02*
X150265000Y-53938000D01*
X150265000Y-53938000D02*
X150900000Y-54192000D01*
X150900000Y-54192000D02*
X151408000Y-54700000D01*
X151408000Y-54700000D02*
X151662000Y-55081000D01*
X151662000Y-55081000D02*
X151789000Y-55716000D01*
X151789000Y-58789400D02*
X144169000Y-58789400D01*
X151789000Y-58789400D02*
X151789000Y-55716000D01*
M02*
