G04 #@! TF.GenerationSoftware,KiCad,Pcbnew,7.0.10*
G04 #@! TF.CreationDate,2024-07-07T16:54:11-05:00*
G04 #@! TF.ProjectId,g0dzilla_vs_sao2,6730647a-696c-46c6-915f-76735f73616f,1*
G04 #@! TF.SameCoordinates,Original*
G04 #@! TF.FileFunction,Soldermask,Top*
G04 #@! TF.FilePolarity,Negative*
%FSLAX46Y46*%
G04 Gerber Fmt 4.6, Leading zero omitted, Abs format (unit mm)*
G04 Created by KiCad (PCBNEW 7.0.10) date 2024-07-07 16:54:11*
%MOMM*%
%LPD*%
G01*
G04 APERTURE LIST*
G04 Aperture macros list*
%AMRotRect*
0 Rectangle, with rotation*
0 The origin of the aperture is its center*
0 $1 length*
0 $2 width*
0 $3 Rotation angle, in degrees counterclockwise*
0 Add horizontal line*
21,1,$1,$2,0,0,$3*%
G04 Aperture macros list end*
%ADD10RotRect,1.800000X1.800000X290.000000*%
%ADD11C,1.800000*%
%ADD12C,2.000000*%
%ADD13C,1.400000*%
%ADD14RotRect,1.800000X1.800000X250.000000*%
%ADD15R,1.727200X1.727200*%
%ADD16C,1.727200*%
%ADD17O,1.727200X1.727200*%
%ADD18C,0.500000*%
%ADD19RotRect,1.800000X1.800000X70.000000*%
%ADD20RotRect,1.800000X1.800000X110.000000*%
G04 APERTURE END LIST*
G36*
X82977815Y-90555126D02*
G01*
X82977815Y-90960673D01*
X81184874Y-90960673D01*
X79391933Y-90960673D01*
X79391933Y-90555126D01*
X79391933Y-90149580D01*
X81184874Y-90149580D01*
X82977815Y-90149580D01*
X82977815Y-90555126D01*
G37*
G36*
X99711933Y-129316807D02*
G01*
X99711933Y-129722353D01*
X97918992Y-129722353D01*
X96126051Y-129722353D01*
X96126051Y-129316807D01*
X96126051Y-128911261D01*
X97918992Y-128911261D01*
X99711933Y-128911261D01*
X99711933Y-129316807D01*
G37*
G36*
X102145210Y-125235300D02*
G01*
X103489916Y-125236850D01*
X103502384Y-125558593D01*
X103514852Y-125880337D01*
X102145210Y-125880337D01*
X100775569Y-125880337D01*
X100788037Y-125557043D01*
X100800505Y-125233750D01*
X102145210Y-125235300D01*
G37*
G36*
X124002017Y-90512437D02*
G01*
X124002017Y-90917984D01*
X122209076Y-90917984D01*
X120416135Y-90917984D01*
X120416135Y-90512437D01*
X120416135Y-90106891D01*
X122209076Y-90106891D01*
X124002017Y-90106891D01*
X124002017Y-90512437D01*
G37*
G36*
X140778824Y-129316807D02*
G01*
X140778824Y-129722353D01*
X138985883Y-129722353D01*
X137192941Y-129722353D01*
X137192941Y-129316807D01*
X137192941Y-128911261D01*
X138985883Y-128911261D01*
X140778824Y-128911261D01*
X140778824Y-129316807D01*
G37*
G36*
X143212101Y-125235300D02*
G01*
X144556807Y-125236850D01*
X144569275Y-125558593D01*
X144581743Y-125880337D01*
X143212101Y-125880337D01*
X141842459Y-125880337D01*
X141854927Y-125557043D01*
X141867395Y-125233750D01*
X143212101Y-125235300D01*
G37*
G36*
X78315830Y-94314851D02*
G01*
X78303362Y-94638106D01*
X76965790Y-94645692D01*
X76636630Y-94647009D01*
X76335751Y-94647158D01*
X76073543Y-94646216D01*
X75860399Y-94644263D01*
X75706711Y-94641375D01*
X75622868Y-94637633D01*
X75610412Y-94635491D01*
X75601765Y-94587207D01*
X75595435Y-94476282D01*
X75592644Y-94325448D01*
X75592605Y-94304650D01*
X75592605Y-93991597D01*
X76960451Y-93991597D01*
X78328298Y-93991597D01*
X78315830Y-94314851D01*
G37*
G36*
X119340031Y-94272162D02*
G01*
X119327563Y-94595417D01*
X117989992Y-94603003D01*
X117660832Y-94604320D01*
X117359953Y-94604469D01*
X117097745Y-94603527D01*
X116884601Y-94601574D01*
X116730912Y-94598686D01*
X116647070Y-94594944D01*
X116634614Y-94592802D01*
X116625967Y-94544518D01*
X116619637Y-94433593D01*
X116616846Y-94282759D01*
X116616807Y-94261961D01*
X116616807Y-93948908D01*
X117984653Y-93948908D01*
X119352499Y-93948908D01*
X119340031Y-94272162D01*
G37*
G36*
X83715626Y-130252574D02*
G01*
X83776761Y-130312031D01*
X83832639Y-130434681D01*
X83887219Y-130627269D01*
X83944458Y-130896540D01*
X83959003Y-130973176D01*
X84002536Y-131206577D01*
X84029453Y-131366405D01*
X84037468Y-131463255D01*
X84024291Y-131507722D01*
X83987635Y-131510402D01*
X83925211Y-131481888D01*
X83857150Y-131444802D01*
X83705029Y-131398134D01*
X83504965Y-131396662D01*
X83378598Y-131405551D01*
X83295681Y-131408334D01*
X83276639Y-131406146D01*
X83296572Y-131367617D01*
X83349490Y-131273747D01*
X83425069Y-131142775D01*
X83447395Y-131104487D01*
X83549416Y-130915741D01*
X83602307Y-130772412D01*
X83609703Y-130652795D01*
X83575234Y-130535183D01*
X83551084Y-130484889D01*
X83509818Y-130393624D01*
X83513814Y-130341429D01*
X83561756Y-130296266D01*
X83645277Y-130249567D01*
X83715626Y-130252574D01*
G37*
G36*
X124782517Y-130252574D02*
G01*
X124843652Y-130312031D01*
X124899530Y-130434681D01*
X124954110Y-130627269D01*
X125011349Y-130896540D01*
X125025894Y-130973176D01*
X125069427Y-131206577D01*
X125096344Y-131366405D01*
X125104359Y-131463255D01*
X125091182Y-131507722D01*
X125054525Y-131510402D01*
X124992102Y-131481888D01*
X124924041Y-131444802D01*
X124771920Y-131398134D01*
X124571856Y-131396662D01*
X124445489Y-131405551D01*
X124362572Y-131408334D01*
X124343530Y-131406146D01*
X124363463Y-131367617D01*
X124416381Y-131273747D01*
X124491959Y-131142775D01*
X124514286Y-131104487D01*
X124616306Y-130915741D01*
X124669198Y-130772412D01*
X124676593Y-130652795D01*
X124642125Y-130535183D01*
X124617975Y-130484889D01*
X124576709Y-130393624D01*
X124580705Y-130341429D01*
X124628647Y-130296266D01*
X124712168Y-130249567D01*
X124782517Y-130252574D01*
G37*
G36*
X134887355Y-138411167D02*
G01*
X134964491Y-138522269D01*
X135065550Y-138687863D01*
X135183649Y-138896885D01*
X135260601Y-139040014D01*
X135389945Y-139284506D01*
X135520738Y-139531067D01*
X135641337Y-139757794D01*
X135740100Y-139942786D01*
X135780455Y-140017989D01*
X135862826Y-140184908D01*
X135906652Y-140302202D01*
X135913280Y-140363743D01*
X135884062Y-140363404D01*
X135820346Y-140295056D01*
X135743749Y-140184662D01*
X135581905Y-139971570D01*
X135361677Y-139736923D01*
X135101554Y-139496319D01*
X134820022Y-139265353D01*
X134535570Y-139059622D01*
X134266685Y-138894721D01*
X134137193Y-138829387D01*
X133888090Y-138715344D01*
X134099759Y-138643348D01*
X134264990Y-138580077D01*
X134449293Y-138499383D01*
X134538165Y-138456404D01*
X134672967Y-138398100D01*
X134786789Y-138366354D01*
X134841021Y-138365615D01*
X134887355Y-138411167D01*
G37*
G36*
X93776132Y-138366250D02*
G01*
X93825856Y-138413613D01*
X93905165Y-138527986D01*
X94007568Y-138698999D01*
X94126573Y-138916282D01*
X94158158Y-138976615D01*
X94285737Y-139220179D01*
X94421071Y-139474756D01*
X94549667Y-139713308D01*
X94657029Y-139908796D01*
X94676223Y-139943094D01*
X94766538Y-140115953D01*
X94824536Y-140251010D01*
X94850058Y-140340833D01*
X94842949Y-140377992D01*
X94803052Y-140355055D01*
X94730210Y-140264593D01*
X94681470Y-140191848D01*
X94514140Y-139971074D01*
X94288210Y-139730037D01*
X94022436Y-139484601D01*
X93735577Y-139250628D01*
X93446390Y-139043979D01*
X93173635Y-138880518D01*
X93070302Y-138829387D01*
X92821199Y-138715344D01*
X93032869Y-138643348D01*
X93198099Y-138580077D01*
X93382402Y-138499383D01*
X93471274Y-138456404D01*
X93610573Y-138396332D01*
X93725513Y-138365660D01*
X93776132Y-138366250D01*
G37*
G36*
X84319122Y-79530784D02*
G01*
X84391574Y-79637129D01*
X84540951Y-79842125D01*
X84748444Y-80071236D01*
X84996417Y-80309192D01*
X85267235Y-80540723D01*
X85543263Y-80750557D01*
X85806865Y-80923424D01*
X85990917Y-81022033D01*
X86280230Y-81157418D01*
X86069779Y-81229000D01*
X85904097Y-81292437D01*
X85720451Y-81372902D01*
X85636630Y-81413484D01*
X85497133Y-81482133D01*
X85410412Y-81515714D01*
X85353943Y-81519394D01*
X85305199Y-81498343D01*
X85294846Y-81491907D01*
X85258340Y-81444651D01*
X85190299Y-81334805D01*
X85098418Y-81175609D01*
X84990390Y-80980304D01*
X84904520Y-80820208D01*
X84775728Y-80577305D01*
X84645311Y-80331898D01*
X84525137Y-80106281D01*
X84427073Y-79922748D01*
X84390157Y-79853945D01*
X84315270Y-79700956D01*
X84270782Y-79583116D01*
X84256634Y-79509454D01*
X84272767Y-79489000D01*
X84319122Y-79530784D01*
G37*
G36*
X95120199Y-88375118D02*
G01*
X95210839Y-88411362D01*
X95232596Y-88422232D01*
X95388424Y-88472106D01*
X95588327Y-88476109D01*
X95599420Y-88475229D01*
X95725623Y-88466357D01*
X95808348Y-88463597D01*
X95827227Y-88465788D01*
X95807294Y-88504317D01*
X95754376Y-88598187D01*
X95678798Y-88729159D01*
X95656471Y-88767446D01*
X95554451Y-88956193D01*
X95501559Y-89099521D01*
X95494164Y-89219139D01*
X95528632Y-89336751D01*
X95552782Y-89387044D01*
X95594048Y-89478310D01*
X95590052Y-89530505D01*
X95542110Y-89575668D01*
X95438323Y-89630095D01*
X95359903Y-89606185D01*
X95300356Y-89519916D01*
X95271619Y-89438972D01*
X95235333Y-89302383D01*
X95195264Y-89129152D01*
X95155179Y-88938279D01*
X95118843Y-88748767D01*
X95090021Y-88579614D01*
X95072479Y-88449824D01*
X95069983Y-88378397D01*
X95072703Y-88371220D01*
X95120199Y-88375118D01*
G37*
G36*
X136144401Y-88332429D02*
G01*
X136235041Y-88368673D01*
X136256797Y-88379543D01*
X136412626Y-88429417D01*
X136612529Y-88433420D01*
X136623622Y-88432540D01*
X136749824Y-88423668D01*
X136832550Y-88420908D01*
X136851429Y-88423099D01*
X136831495Y-88461628D01*
X136778578Y-88555497D01*
X136702999Y-88686470D01*
X136680673Y-88724757D01*
X136578652Y-88913504D01*
X136525761Y-89056832D01*
X136518365Y-89176450D01*
X136552834Y-89294062D01*
X136576984Y-89344355D01*
X136618250Y-89435621D01*
X136614254Y-89487816D01*
X136566312Y-89532978D01*
X136462525Y-89587405D01*
X136384105Y-89563495D01*
X136324558Y-89477227D01*
X136295820Y-89396283D01*
X136259534Y-89259694D01*
X136219466Y-89086463D01*
X136179381Y-88895590D01*
X136143044Y-88706077D01*
X136114222Y-88536925D01*
X136096681Y-88407135D01*
X136094185Y-88335708D01*
X136096904Y-88328531D01*
X136144401Y-88332429D01*
G37*
G36*
X117972179Y-95047623D02*
G01*
X119797143Y-95057766D01*
X119797143Y-95384440D01*
X119797143Y-95711113D01*
X119103446Y-95702497D01*
X118409748Y-95693881D01*
X118409748Y-95841436D01*
X118390670Y-96002834D01*
X118338954Y-96212999D01*
X118262876Y-96445759D01*
X118170715Y-96674946D01*
X118099609Y-96821995D01*
X117965397Y-97024162D01*
X117781657Y-97233006D01*
X117576476Y-97419629D01*
X117397908Y-97544010D01*
X117270233Y-97617263D01*
X116996881Y-97421012D01*
X116863084Y-97324187D01*
X116755602Y-97244992D01*
X116693975Y-97197858D01*
X116688660Y-97193360D01*
X116704081Y-97158275D01*
X116778727Y-97097697D01*
X116884862Y-97031550D01*
X117172578Y-96821715D01*
X117400742Y-96553663D01*
X117564372Y-96234838D01*
X117657915Y-95876421D01*
X117686376Y-95690826D01*
X116916780Y-95705665D01*
X116147185Y-95720505D01*
X116147200Y-95378992D01*
X116147214Y-95037479D01*
X117972179Y-95047623D01*
G37*
G36*
X76947972Y-95090699D02*
G01*
X78772941Y-95101229D01*
X78772941Y-95427516D01*
X78772941Y-95753802D01*
X78079244Y-95745186D01*
X77385547Y-95736570D01*
X77385547Y-95884125D01*
X77367999Y-96032811D01*
X77320780Y-96231324D01*
X77252022Y-96452938D01*
X77169859Y-96670929D01*
X77098240Y-96828130D01*
X76996574Y-96987175D01*
X76848795Y-97167863D01*
X76678100Y-97345804D01*
X76507689Y-97496607D01*
X76375565Y-97587952D01*
X76241790Y-97662457D01*
X75970559Y-97465241D01*
X75837541Y-97367757D01*
X75730711Y-97288054D01*
X75669584Y-97240725D01*
X75664458Y-97236336D01*
X75679882Y-97201100D01*
X75754536Y-97140414D01*
X75860660Y-97074239D01*
X76148376Y-96864405D01*
X76376540Y-96596352D01*
X76540170Y-96277528D01*
X76633713Y-95919110D01*
X76662174Y-95733515D01*
X75892579Y-95748354D01*
X75122983Y-95763194D01*
X75122993Y-95421681D01*
X75123003Y-95080169D01*
X76947972Y-95090699D01*
G37*
G36*
X108086995Y-127746403D02*
G01*
X108457856Y-127899268D01*
X108295562Y-128138458D01*
X108041884Y-128566323D01*
X107816867Y-129052976D01*
X107629990Y-129574008D01*
X107490733Y-130105011D01*
X107450591Y-130314131D01*
X107416114Y-130516260D01*
X107384192Y-130646728D01*
X107338297Y-130717094D01*
X107261904Y-130738916D01*
X107138485Y-130723750D01*
X106951512Y-130683156D01*
X106929749Y-130678376D01*
X106787325Y-130645302D01*
X106682083Y-130617244D01*
X106638135Y-130600936D01*
X106637398Y-130550789D01*
X106655888Y-130433599D01*
X106689998Y-130264594D01*
X106736124Y-130059001D01*
X106790661Y-129832047D01*
X106850005Y-129598959D01*
X106910550Y-129374963D01*
X106968693Y-129175288D01*
X106996657Y-129086500D01*
X107075477Y-128865085D01*
X107174030Y-128618655D01*
X107283728Y-128365853D01*
X107395979Y-128125320D01*
X107502196Y-127915699D01*
X107593788Y-127755633D01*
X107641591Y-127686769D01*
X107716135Y-127593537D01*
X108086995Y-127746403D01*
G37*
G36*
X148922873Y-127655279D02*
G01*
X149073453Y-127717857D01*
X149233268Y-127782258D01*
X149252605Y-127789876D01*
X149367725Y-127839320D01*
X149448834Y-127881839D01*
X149462418Y-127891644D01*
X149461474Y-127943680D01*
X149416045Y-128045297D01*
X149348614Y-128156638D01*
X149090629Y-128600880D01*
X148863861Y-129102380D01*
X148678091Y-129635752D01*
X148543095Y-130175609D01*
X148517481Y-130314131D01*
X148483004Y-130516260D01*
X148451082Y-130646728D01*
X148405188Y-130717094D01*
X148328795Y-130738916D01*
X148205375Y-130723750D01*
X148018403Y-130683156D01*
X147996640Y-130678376D01*
X147854380Y-130645429D01*
X147749450Y-130617676D01*
X147705839Y-130601749D01*
X147705972Y-130555132D01*
X147721127Y-130446106D01*
X147748223Y-130295702D01*
X147757384Y-130249760D01*
X147889485Y-129682009D01*
X148047992Y-129139771D01*
X148227326Y-128639056D01*
X148421906Y-128195874D01*
X148569929Y-127918630D01*
X148763896Y-127587679D01*
X148922873Y-127655279D01*
G37*
G36*
X71846971Y-89133426D02*
G01*
X71966352Y-89155023D01*
X72111927Y-89184499D01*
X72258722Y-89216522D01*
X72381769Y-89245760D01*
X72456094Y-89266879D01*
X72466688Y-89271954D01*
X72467035Y-89321671D01*
X72448272Y-89438469D01*
X72414003Y-89607128D01*
X72367828Y-89812428D01*
X72313350Y-90039148D01*
X72254172Y-90272068D01*
X72193894Y-90495967D01*
X72136120Y-90695625D01*
X72109716Y-90780308D01*
X72031337Y-91002459D01*
X71932853Y-91249705D01*
X71822888Y-91503347D01*
X71710066Y-91744686D01*
X71603010Y-91955022D01*
X71510346Y-92115656D01*
X71462275Y-92184115D01*
X71387731Y-92276298D01*
X71017358Y-92123765D01*
X70646984Y-91971232D01*
X70808791Y-91732759D01*
X71061784Y-91306054D01*
X71286362Y-90820512D01*
X71473044Y-90300546D01*
X71612352Y-89770571D01*
X71653275Y-89557803D01*
X71693813Y-89348933D01*
X71732541Y-89203938D01*
X71766902Y-89131635D01*
X71778754Y-89125042D01*
X71846971Y-89133426D01*
G37*
G36*
X125311498Y-79466683D02*
G01*
X125375856Y-79536080D01*
X125452841Y-79647126D01*
X125564336Y-79794285D01*
X125727101Y-79975158D01*
X125923601Y-80172911D01*
X126136299Y-80370711D01*
X126347659Y-80551724D01*
X126540146Y-80699117D01*
X126570938Y-80720440D01*
X126743956Y-80829732D01*
X126932819Y-80936704D01*
X127066667Y-81003933D01*
X127306869Y-81113901D01*
X127095199Y-81185896D01*
X126928675Y-81249629D01*
X126744475Y-81330304D01*
X126660831Y-81370795D01*
X126521334Y-81439444D01*
X126434614Y-81473025D01*
X126378145Y-81476705D01*
X126329401Y-81455654D01*
X126319048Y-81449218D01*
X126282542Y-81401962D01*
X126214501Y-81292116D01*
X126122619Y-81132920D01*
X126014591Y-80937615D01*
X125928722Y-80777518D01*
X125799929Y-80534616D01*
X125669512Y-80289209D01*
X125549338Y-80063592D01*
X125451275Y-79880059D01*
X125414359Y-79811256D01*
X125331782Y-79643807D01*
X125288052Y-79526556D01*
X125281760Y-79465511D01*
X125311498Y-79466683D01*
G37*
G36*
X76926778Y-89119788D02*
G01*
X78581118Y-89124829D01*
X78588470Y-90715104D01*
X78595821Y-92305379D01*
X78236146Y-92305379D01*
X77876471Y-92305379D01*
X77862963Y-92187984D01*
X77849455Y-92070589D01*
X76937311Y-92070589D01*
X76025167Y-92070589D01*
X76011659Y-92187984D01*
X76001802Y-92245569D01*
X75976640Y-92281086D01*
X75918380Y-92300840D01*
X75809226Y-92311136D01*
X75645294Y-92317788D01*
X75454354Y-92320223D01*
X75336235Y-92310354D01*
X75279087Y-92286823D01*
X75271221Y-92274912D01*
X75266657Y-92220810D01*
X75263038Y-92091267D01*
X75260425Y-91896213D01*
X75258881Y-91645580D01*
X75258467Y-91349301D01*
X75259245Y-91017307D01*
X75261221Y-90667187D01*
X75267428Y-89808068D01*
X75976807Y-89808068D01*
X75976807Y-90597816D01*
X75976807Y-91387563D01*
X76915967Y-91387563D01*
X77855126Y-91387563D01*
X77855126Y-90597816D01*
X77855126Y-89808068D01*
X76915967Y-89808068D01*
X75976807Y-89808068D01*
X75267428Y-89808068D01*
X75272437Y-89114747D01*
X76926778Y-89119788D01*
G37*
G36*
X105243648Y-127669440D02*
G01*
X105278926Y-127775072D01*
X105323494Y-127931106D01*
X105369803Y-128110841D01*
X105546543Y-128741670D01*
X105766232Y-129383317D01*
X106013084Y-129990049D01*
X106036284Y-130041802D01*
X106120456Y-130228040D01*
X106192342Y-130387223D01*
X106244304Y-130502426D01*
X106268680Y-130556675D01*
X106240813Y-130589735D01*
X106149133Y-130637134D01*
X106011931Y-130689792D01*
X105977750Y-130701086D01*
X105822455Y-130751319D01*
X105697113Y-130792468D01*
X105625533Y-130816706D01*
X105620711Y-130818472D01*
X105585466Y-130789262D01*
X105524897Y-130696671D01*
X105447841Y-130555563D01*
X105372186Y-130400424D01*
X105050104Y-129659013D01*
X104774255Y-128916576D01*
X104672410Y-128608052D01*
X104589094Y-128349174D01*
X104531000Y-128159554D01*
X104500569Y-128026166D01*
X104500239Y-127935984D01*
X104532450Y-127875985D01*
X104599642Y-127833143D01*
X104704254Y-127794432D01*
X104832691Y-127752267D01*
X104996506Y-127698072D01*
X105128597Y-127656300D01*
X105208892Y-127633214D01*
X105222678Y-127630589D01*
X105243648Y-127669440D01*
G37*
G36*
X117950979Y-89077099D02*
G01*
X119605320Y-89082140D01*
X119612671Y-90672415D01*
X119620023Y-92262690D01*
X119260348Y-92262690D01*
X118900673Y-92262690D01*
X118887165Y-92145295D01*
X118873657Y-92027900D01*
X117961513Y-92027900D01*
X117049369Y-92027900D01*
X117035861Y-92145295D01*
X117026003Y-92202880D01*
X117000842Y-92238397D01*
X116942582Y-92258151D01*
X116833428Y-92268447D01*
X116669495Y-92275099D01*
X116478555Y-92277534D01*
X116360437Y-92267665D01*
X116303289Y-92244134D01*
X116295422Y-92232223D01*
X116290858Y-92178121D01*
X116287239Y-92048577D01*
X116284627Y-91853523D01*
X116283083Y-91602891D01*
X116282669Y-91306612D01*
X116283447Y-90974618D01*
X116285423Y-90624498D01*
X116291630Y-89765379D01*
X117001009Y-89765379D01*
X117001009Y-90555126D01*
X117001009Y-91344874D01*
X117940168Y-91344874D01*
X118879328Y-91344874D01*
X118879328Y-90555126D01*
X118879328Y-89765379D01*
X117940168Y-89765379D01*
X117001009Y-89765379D01*
X116291630Y-89765379D01*
X116296639Y-89072058D01*
X117950979Y-89077099D01*
G37*
G36*
X146310539Y-127669440D02*
G01*
X146345817Y-127775072D01*
X146390385Y-127931106D01*
X146436694Y-128110841D01*
X146636055Y-128813635D01*
X146888037Y-129525948D01*
X147121314Y-130082288D01*
X147206024Y-130271807D01*
X147275144Y-130430570D01*
X147322441Y-130543941D01*
X147341681Y-130597283D01*
X147341604Y-130599468D01*
X147299211Y-130615471D01*
X147196524Y-130650548D01*
X147054505Y-130697561D01*
X147032773Y-130704657D01*
X146880469Y-130754549D01*
X146758206Y-130795040D01*
X146690383Y-130818045D01*
X146687602Y-130819047D01*
X146652351Y-130789600D01*
X146591771Y-130696802D01*
X146514701Y-130555543D01*
X146439077Y-130400424D01*
X146116995Y-129659013D01*
X145841146Y-128916576D01*
X145739300Y-128608052D01*
X145655985Y-128349174D01*
X145597891Y-128159554D01*
X145567460Y-128026166D01*
X145567130Y-127935984D01*
X145599341Y-127875985D01*
X145666533Y-127833143D01*
X145771145Y-127794432D01*
X145899582Y-127752267D01*
X146063397Y-127698072D01*
X146195488Y-127656300D01*
X146275783Y-127633214D01*
X146289569Y-127630589D01*
X146310539Y-127669440D01*
G37*
G36*
X101240903Y-127683950D02*
G01*
X101254411Y-127801345D01*
X102166555Y-127801345D01*
X103078699Y-127801345D01*
X103092207Y-127683950D01*
X103105715Y-127566555D01*
X103468572Y-127566555D01*
X103831429Y-127566555D01*
X103831429Y-129161858D01*
X103831429Y-130757161D01*
X102177259Y-130762699D01*
X101810905Y-130763925D01*
X101472701Y-130765057D01*
X101171830Y-130766064D01*
X100917474Y-130766915D01*
X100718813Y-130767580D01*
X100585031Y-130768028D01*
X100525308Y-130768228D01*
X100523013Y-130768236D01*
X100522804Y-130727103D01*
X100522243Y-130609925D01*
X100521374Y-130426036D01*
X100520240Y-130184768D01*
X100518885Y-129895454D01*
X100517353Y-129567427D01*
X100515689Y-129210020D01*
X100515490Y-129167395D01*
X100512313Y-128484370D01*
X101248740Y-128484370D01*
X101248740Y-129274118D01*
X101248740Y-130063866D01*
X102187899Y-130063866D01*
X103127059Y-130063866D01*
X103127059Y-129274118D01*
X103127059Y-128484370D01*
X102187899Y-128484370D01*
X101248740Y-128484370D01*
X100512313Y-128484370D01*
X100508045Y-127566555D01*
X100867720Y-127566555D01*
X101227395Y-127566555D01*
X101240903Y-127683950D01*
G37*
G36*
X112870044Y-89090670D02*
G01*
X112988606Y-89112091D01*
X113133690Y-89141322D01*
X113280348Y-89173067D01*
X113403626Y-89202033D01*
X113478576Y-89222925D01*
X113489706Y-89228081D01*
X113495592Y-89285045D01*
X113478424Y-89409900D01*
X113441789Y-89589423D01*
X113389275Y-89810393D01*
X113324470Y-90059584D01*
X113250963Y-90323775D01*
X113172342Y-90589742D01*
X113092194Y-90844263D01*
X113014107Y-91074114D01*
X112941671Y-91266072D01*
X112927192Y-91301092D01*
X112863723Y-91441723D01*
X112782554Y-91607690D01*
X112692607Y-91782458D01*
X112602807Y-91949493D01*
X112522077Y-92092261D01*
X112459342Y-92194227D01*
X112423525Y-92238857D01*
X112420699Y-92239542D01*
X112380174Y-92223520D01*
X112278570Y-92181982D01*
X112133634Y-92122206D01*
X112041073Y-92083857D01*
X111670212Y-91929976D01*
X111832506Y-91690787D01*
X112086184Y-91262921D01*
X112311201Y-90776269D01*
X112498077Y-90255237D01*
X112637334Y-89724234D01*
X112677477Y-89515114D01*
X112718015Y-89306244D01*
X112756743Y-89161249D01*
X112791104Y-89088946D01*
X112802956Y-89082353D01*
X112870044Y-89090670D01*
G37*
G36*
X142307794Y-127683950D02*
G01*
X142321302Y-127801345D01*
X143233446Y-127801345D01*
X144145590Y-127801345D01*
X144159098Y-127683950D01*
X144172605Y-127566555D01*
X144535462Y-127566555D01*
X144898320Y-127566555D01*
X144898320Y-129161858D01*
X144898320Y-130757161D01*
X143244150Y-130762699D01*
X142877796Y-130763925D01*
X142539592Y-130765057D01*
X142238721Y-130766064D01*
X141984364Y-130766915D01*
X141785704Y-130767580D01*
X141651922Y-130768028D01*
X141592199Y-130768228D01*
X141589903Y-130768236D01*
X141589695Y-130727103D01*
X141589134Y-130609925D01*
X141588264Y-130426036D01*
X141587130Y-130184768D01*
X141585776Y-129895454D01*
X141584244Y-129567427D01*
X141582579Y-129210020D01*
X141582381Y-129167395D01*
X141579204Y-128484370D01*
X142315631Y-128484370D01*
X142315631Y-129274118D01*
X142315631Y-130063866D01*
X143254790Y-130063866D01*
X144193950Y-130063866D01*
X144193950Y-129274118D01*
X144193950Y-128484370D01*
X143254790Y-128484370D01*
X142315631Y-128484370D01*
X141579204Y-128484370D01*
X141574936Y-127566555D01*
X141934611Y-127566555D01*
X142294286Y-127566555D01*
X142307794Y-127683950D01*
G37*
G36*
X103131186Y-122408232D02*
G01*
X103264984Y-122505057D01*
X103372466Y-122584253D01*
X103434093Y-122631386D01*
X103439408Y-122635885D01*
X103423987Y-122670970D01*
X103349341Y-122731547D01*
X103243206Y-122797695D01*
X102955490Y-123007529D01*
X102727326Y-123275581D01*
X102563696Y-123594406D01*
X102470153Y-123952823D01*
X102441692Y-124138419D01*
X103211287Y-124123579D01*
X103980883Y-124108740D01*
X103980868Y-124450253D01*
X103980853Y-124791765D01*
X102161134Y-124791765D01*
X101669986Y-124790954D01*
X101260814Y-124788465D01*
X100930229Y-124784209D01*
X100674846Y-124778102D01*
X100491277Y-124770056D01*
X100376133Y-124759985D01*
X100326028Y-124747802D01*
X100323401Y-124744841D01*
X100316039Y-124680687D01*
X100314208Y-124558149D01*
X100318155Y-124407883D01*
X100330925Y-124117851D01*
X101024622Y-124126607D01*
X101718320Y-124135363D01*
X101718826Y-123993984D01*
X101744055Y-123779767D01*
X101813933Y-123519687D01*
X101921725Y-123236067D01*
X101995824Y-123075918D01*
X102178059Y-122787100D01*
X102419455Y-122522183D01*
X102693895Y-122309173D01*
X102733217Y-122285235D01*
X102857835Y-122211981D01*
X103131186Y-122408232D01*
G37*
G36*
X73557681Y-89103345D02*
G01*
X73612809Y-89215879D01*
X73687201Y-89375314D01*
X73773742Y-89565833D01*
X73865317Y-89771621D01*
X73954811Y-89976860D01*
X74035109Y-90165735D01*
X74094126Y-90309895D01*
X74167504Y-90502124D01*
X74249887Y-90730667D01*
X74335660Y-90978472D01*
X74419208Y-91228484D01*
X74494915Y-91463649D01*
X74557165Y-91666912D01*
X74600344Y-91821220D01*
X74617680Y-91899934D01*
X74616910Y-91949543D01*
X74587859Y-91989889D01*
X74515726Y-92030359D01*
X74385710Y-92080339D01*
X74271175Y-92119667D01*
X74107360Y-92173861D01*
X73975269Y-92215633D01*
X73894974Y-92238720D01*
X73881188Y-92241345D01*
X73860218Y-92202494D01*
X73824940Y-92096861D01*
X73780372Y-91940828D01*
X73734063Y-91761093D01*
X73534702Y-91058298D01*
X73282720Y-90345986D01*
X73049443Y-89789646D01*
X72964737Y-89600154D01*
X72895618Y-89441448D01*
X72848320Y-89328153D01*
X72829077Y-89274897D01*
X72829152Y-89272730D01*
X72878460Y-89252043D01*
X72983008Y-89215824D01*
X73119788Y-89171279D01*
X73265791Y-89125616D01*
X73398007Y-89086042D01*
X73493428Y-89059766D01*
X73528934Y-89053528D01*
X73557681Y-89103345D01*
G37*
G36*
X144200198Y-122406693D02*
G01*
X144333216Y-122504177D01*
X144440045Y-122583880D01*
X144501172Y-122631208D01*
X144506298Y-122635597D01*
X144490875Y-122670834D01*
X144416221Y-122731520D01*
X144310096Y-122797695D01*
X144022381Y-123007529D01*
X143794217Y-123275581D01*
X143630587Y-123594406D01*
X143537044Y-123952823D01*
X143508583Y-124138419D01*
X144278178Y-124123579D01*
X145047774Y-124108740D01*
X145047759Y-124450253D01*
X145047744Y-124791765D01*
X143228025Y-124791765D01*
X142736877Y-124790954D01*
X142327704Y-124788465D01*
X141997120Y-124784209D01*
X141741737Y-124778102D01*
X141558167Y-124770056D01*
X141443024Y-124759985D01*
X141392919Y-124747802D01*
X141390291Y-124744841D01*
X141382930Y-124680687D01*
X141381099Y-124558149D01*
X141385046Y-124407883D01*
X141397815Y-124117851D01*
X142091513Y-124126607D01*
X142785210Y-124135363D01*
X142785210Y-123987809D01*
X142802808Y-123838738D01*
X142850185Y-123639823D01*
X142919217Y-123417723D01*
X143001779Y-123199097D01*
X143073443Y-123041977D01*
X143175576Y-122883112D01*
X143325123Y-122701831D01*
X143498370Y-122522943D01*
X143671600Y-122371258D01*
X143798042Y-122283982D01*
X143928967Y-122209476D01*
X144200198Y-122406693D01*
G37*
G36*
X82288679Y-94754884D02*
G01*
X82442518Y-94884908D01*
X82534843Y-94976638D01*
X82568135Y-95048293D01*
X82544876Y-95118094D01*
X82467548Y-95204262D01*
X82363204Y-95302079D01*
X82204230Y-95441432D01*
X82029758Y-95581258D01*
X81881078Y-95688846D01*
X81648739Y-95843109D01*
X81662269Y-96795714D01*
X81675799Y-97748319D01*
X81291597Y-97748320D01*
X80907395Y-97748321D01*
X80921667Y-96996462D01*
X80924356Y-96755197D01*
X80923047Y-96547794D01*
X80918123Y-96387492D01*
X80909967Y-96287531D01*
X80900322Y-96260033D01*
X80719090Y-96335802D01*
X80518961Y-96415070D01*
X80317921Y-96491241D01*
X80133959Y-96557723D01*
X79985060Y-96607922D01*
X79889211Y-96635244D01*
X79868404Y-96638320D01*
X79801627Y-96608316D01*
X79720824Y-96512888D01*
X79630397Y-96364577D01*
X79556087Y-96228908D01*
X79501671Y-96124239D01*
X79477653Y-96070869D01*
X79477311Y-96068782D01*
X79514844Y-96046591D01*
X79612315Y-96011305D01*
X79722773Y-95978004D01*
X80230304Y-95809296D01*
X80717219Y-95596072D01*
X81167775Y-95347114D01*
X81566226Y-95071206D01*
X81896829Y-94777131D01*
X81921468Y-94751397D01*
X82081759Y-94581641D01*
X82288679Y-94754884D01*
G37*
G36*
X114583240Y-89062473D02*
G01*
X114639447Y-89177601D01*
X114714963Y-89340928D01*
X114802997Y-89537160D01*
X114896756Y-89751005D01*
X114989448Y-89967168D01*
X115074280Y-90170355D01*
X115134703Y-90320337D01*
X115213655Y-90528820D01*
X115299677Y-90768982D01*
X115387068Y-91023428D01*
X115470130Y-91274764D01*
X115543162Y-91505596D01*
X115600466Y-91698530D01*
X115636340Y-91836172D01*
X115643716Y-91873750D01*
X115636186Y-91917904D01*
X115589406Y-91959508D01*
X115489614Y-92006574D01*
X115323049Y-92067112D01*
X115295376Y-92076524D01*
X115131650Y-92130905D01*
X114999692Y-92172827D01*
X114919535Y-92196010D01*
X114905787Y-92198656D01*
X114885357Y-92159706D01*
X114849800Y-92053148D01*
X114803805Y-91894422D01*
X114752062Y-91698969D01*
X114742311Y-91660325D01*
X114610496Y-91188114D01*
X114446619Y-90686462D01*
X114263187Y-90190777D01*
X114072710Y-89736471D01*
X114029028Y-89641149D01*
X113952567Y-89474532D01*
X113893338Y-89339947D01*
X113858423Y-89253836D01*
X113852409Y-89230986D01*
X113901505Y-89210170D01*
X114005932Y-89173791D01*
X114142697Y-89129072D01*
X114288807Y-89083236D01*
X114421267Y-89043509D01*
X114517085Y-89017113D01*
X114553135Y-89010839D01*
X114583240Y-89062473D01*
G37*
G36*
X98182200Y-122875471D02*
G01*
X98179510Y-123116736D01*
X98180819Y-123324140D01*
X98185743Y-123484442D01*
X98193899Y-123584403D01*
X98203544Y-123611900D01*
X98384776Y-123536131D01*
X98584906Y-123456864D01*
X98785945Y-123380693D01*
X98969907Y-123314210D01*
X99118806Y-123264011D01*
X99214655Y-123236689D01*
X99235462Y-123233614D01*
X99301199Y-123262967D01*
X99381016Y-123356587D01*
X99477361Y-123514316D01*
X99550033Y-123650926D01*
X99599229Y-123756510D01*
X99615981Y-123811488D01*
X99614847Y-123814510D01*
X99566808Y-123835277D01*
X99459721Y-123870905D01*
X99318266Y-123913242D01*
X98971522Y-124027014D01*
X98612411Y-124170378D01*
X98273378Y-124329303D01*
X97990564Y-124487442D01*
X97835889Y-124590333D01*
X97665418Y-124713710D01*
X97493138Y-124846165D01*
X97333036Y-124976292D01*
X97199099Y-125092684D01*
X97105313Y-125183936D01*
X97065667Y-125238641D01*
X97065210Y-125242069D01*
X97053430Y-125275855D01*
X97012049Y-125267321D01*
X96932009Y-125210977D01*
X96804250Y-125101335D01*
X96745559Y-125048422D01*
X96489942Y-124816165D01*
X96660181Y-124640008D01*
X96777983Y-124530519D01*
X96936872Y-124398989D01*
X97106566Y-124270238D01*
X97142755Y-124244460D01*
X97455090Y-124025069D01*
X97441579Y-123074342D01*
X97428068Y-122123615D01*
X97812269Y-122123614D01*
X98196471Y-122123613D01*
X98182200Y-122875471D01*
G37*
G36*
X123313019Y-94712311D02*
G01*
X123464173Y-94840605D01*
X123555415Y-94930186D01*
X123592051Y-94997444D01*
X123579384Y-95058768D01*
X123522719Y-95130548D01*
X123467067Y-95188261D01*
X123353227Y-95293406D01*
X123197697Y-95422330D01*
X123029611Y-95551133D01*
X122988036Y-95581232D01*
X122673366Y-95805883D01*
X122686683Y-96755756D01*
X122700000Y-97705630D01*
X122315799Y-97705631D01*
X121931597Y-97705632D01*
X121945868Y-96953773D01*
X121948558Y-96712508D01*
X121947249Y-96505105D01*
X121942325Y-96344803D01*
X121934169Y-96244842D01*
X121924524Y-96217344D01*
X121743292Y-96293113D01*
X121543162Y-96372380D01*
X121342123Y-96448552D01*
X121158160Y-96515034D01*
X121009261Y-96565233D01*
X120913413Y-96592555D01*
X120892606Y-96595631D01*
X120825829Y-96565627D01*
X120745025Y-96470199D01*
X120654599Y-96321888D01*
X120580289Y-96186218D01*
X120525872Y-96081550D01*
X120501855Y-96028180D01*
X120501513Y-96026093D01*
X120539046Y-96003902D01*
X120636516Y-95968616D01*
X120746975Y-95935315D01*
X121046602Y-95840506D01*
X121367688Y-95720628D01*
X121675565Y-95589544D01*
X121935565Y-95461117D01*
X121942833Y-95457136D01*
X122128216Y-95346110D01*
X122336133Y-95207045D01*
X122547051Y-95054535D01*
X122741439Y-94903176D01*
X122899767Y-94767563D01*
X122996118Y-94670053D01*
X123106237Y-94539183D01*
X123313019Y-94712311D01*
G37*
G36*
X139249090Y-122875471D02*
G01*
X139246401Y-123116736D01*
X139247710Y-123324140D01*
X139252634Y-123484442D01*
X139260790Y-123584403D01*
X139270435Y-123611900D01*
X139451667Y-123536131D01*
X139651796Y-123456864D01*
X139852836Y-123380693D01*
X140036798Y-123314210D01*
X140185697Y-123264011D01*
X140281545Y-123236689D01*
X140302353Y-123233614D01*
X140368090Y-123262967D01*
X140447907Y-123356587D01*
X140544252Y-123514316D01*
X140616924Y-123650926D01*
X140666120Y-123756510D01*
X140682872Y-123811488D01*
X140681737Y-123814510D01*
X140633699Y-123835277D01*
X140526611Y-123870905D01*
X140385156Y-123913242D01*
X140038413Y-124027014D01*
X139679302Y-124170378D01*
X139340268Y-124329303D01*
X139057454Y-124487442D01*
X138902780Y-124590333D01*
X138732309Y-124713710D01*
X138560029Y-124846165D01*
X138399927Y-124976292D01*
X138265989Y-125092684D01*
X138172204Y-125183936D01*
X138132557Y-125238641D01*
X138132101Y-125242069D01*
X138120555Y-125275329D01*
X138079761Y-125267065D01*
X138000486Y-125211696D01*
X137873498Y-125103645D01*
X137811933Y-125048623D01*
X137555799Y-124817885D01*
X137747899Y-124621036D01*
X137882221Y-124496588D01*
X138052930Y-124356324D01*
X138224051Y-124229741D01*
X138230994Y-124224969D01*
X138521988Y-124025752D01*
X138508473Y-123074683D01*
X138494958Y-122123615D01*
X138879160Y-122123614D01*
X139263362Y-122123613D01*
X139249090Y-122875471D01*
G37*
G36*
X147564687Y-122272059D02*
G01*
X147598424Y-122331475D01*
X147609076Y-122409081D01*
X147616157Y-122507793D01*
X147634911Y-122655192D01*
X147661605Y-122829723D01*
X147692504Y-123009828D01*
X147723874Y-123173951D01*
X147751982Y-123300535D01*
X147773094Y-123368024D01*
X147775915Y-123372290D01*
X147826167Y-123376353D01*
X147944662Y-123366041D01*
X148115837Y-123343271D01*
X148324124Y-123309959D01*
X148422240Y-123292688D01*
X148645393Y-123252692D01*
X148841390Y-123218229D01*
X148993532Y-123192185D01*
X149085122Y-123177447D01*
X149101144Y-123175356D01*
X149135020Y-123188710D01*
X149167371Y-123242895D01*
X149201899Y-123349068D01*
X149242308Y-123518386D01*
X149287010Y-123735211D01*
X149298932Y-123829945D01*
X149274484Y-123867651D01*
X149219521Y-123873438D01*
X149144600Y-123879306D01*
X149003107Y-123895786D01*
X148812873Y-123920613D01*
X148591728Y-123951520D01*
X148500748Y-123964763D01*
X147876958Y-124056601D01*
X147914119Y-124232082D01*
X147951613Y-124411268D01*
X147980206Y-124522371D01*
X148012599Y-124579910D01*
X148061492Y-124598401D01*
X148139586Y-124592362D01*
X148219518Y-124581172D01*
X148370648Y-124558365D01*
X148554193Y-124526197D01*
X148745988Y-124489451D01*
X148921867Y-124452911D01*
X149057664Y-124421361D01*
X149122551Y-124402419D01*
X149152977Y-124405118D01*
X149181229Y-124445766D01*
X149210858Y-124535551D01*
X149245419Y-124685659D01*
X149288464Y-124907275D01*
X149296192Y-124949120D01*
X149308313Y-125010203D01*
X149311238Y-125055094D01*
X149293716Y-125087890D01*
X149244492Y-125112687D01*
X149152314Y-125133582D01*
X149005929Y-125154673D01*
X148794085Y-125180056D01*
X148599701Y-125202704D01*
X148415347Y-125227139D01*
X148264854Y-125252350D01*
X148167016Y-125274875D01*
X148139742Y-125287458D01*
X148138628Y-125342513D01*
X148154691Y-125456988D01*
X148184535Y-125607443D01*
X148188953Y-125627120D01*
X148225304Y-125800283D01*
X148229653Y-125908561D01*
X148189389Y-125970217D01*
X148091902Y-126003513D01*
X147924582Y-126026712D01*
X147912013Y-126028185D01*
X147766022Y-126047428D01*
X147647346Y-126066834D01*
X147600739Y-126077109D01*
X147548826Y-126071788D01*
X147516302Y-126007010D01*
X147501811Y-125935834D01*
X147468912Y-125736860D01*
X147445887Y-125603636D01*
X147429339Y-125517574D01*
X147415867Y-125460082D01*
X147412676Y-125448332D01*
X147397231Y-125418504D01*
X147361372Y-125403935D01*
X147289594Y-125404984D01*
X147166391Y-125422011D01*
X146976258Y-125455376D01*
X146956955Y-125458896D01*
X146754888Y-125495583D01*
X146567273Y-125529265D01*
X146420908Y-125555149D01*
X146364446Y-125564872D01*
X146208388Y-125591138D01*
X146158103Y-125340863D01*
X146127164Y-125189132D01*
X146100129Y-125060402D01*
X146087141Y-125001409D01*
X146083708Y-124964522D01*
X146101718Y-124936345D01*
X146154012Y-124912856D01*
X146253431Y-124890035D01*
X146412815Y-124863862D01*
X146624179Y-124833261D01*
X146835633Y-124801678D01*
X147017842Y-124771382D01*
X147153372Y-124745496D01*
X147224794Y-124727139D01*
X147229455Y-124724901D01*
X147250207Y-124669704D01*
X147253650Y-124561599D01*
X147242337Y-124430714D01*
X147218818Y-124307174D01*
X147186975Y-124223213D01*
X147153536Y-124204853D01*
X147077640Y-124201855D01*
X146948243Y-124215207D01*
X146754303Y-124245897D01*
X146576321Y-124277838D01*
X146359733Y-124318751D01*
X146170089Y-124356272D01*
X146024921Y-124386810D01*
X145941760Y-124406772D01*
X145932549Y-124409751D01*
X145899476Y-124410975D01*
X145870580Y-124378848D01*
X145841932Y-124301657D01*
X145809602Y-124167690D01*
X145769660Y-123965234D01*
X145752774Y-123873950D01*
X145725420Y-123724538D01*
X146377943Y-123626084D01*
X146603091Y-123591478D01*
X146796231Y-123560584D01*
X146942618Y-123535856D01*
X147027506Y-123519750D01*
X147042674Y-123515422D01*
X147041969Y-123469043D01*
X147026221Y-123359623D01*
X146999354Y-123207369D01*
X146965292Y-123032483D01*
X146927961Y-122855172D01*
X146891284Y-122695638D01*
X146861107Y-122580610D01*
X146828907Y-122450984D01*
X146828748Y-122382515D01*
X146853053Y-122359252D01*
X146954805Y-122334736D01*
X147097176Y-122310142D01*
X147254826Y-122288577D01*
X147402410Y-122273145D01*
X147514585Y-122266952D01*
X147564687Y-122272059D01*
G37*
G36*
X106497796Y-122272059D02*
G01*
X106531533Y-122331475D01*
X106542185Y-122409081D01*
X106549241Y-122507176D01*
X106567928Y-122654120D01*
X106594523Y-122828361D01*
X106625303Y-123008345D01*
X106656545Y-123172519D01*
X106684528Y-123299329D01*
X106705528Y-123367223D01*
X106708451Y-123371717D01*
X106756660Y-123374169D01*
X106871415Y-123363394D01*
X107035384Y-123342104D01*
X107231235Y-123313008D01*
X107441638Y-123278818D01*
X107649260Y-123242245D01*
X107836770Y-123205999D01*
X107986836Y-123172791D01*
X107997960Y-123170032D01*
X108054356Y-123160189D01*
X108091204Y-123176248D01*
X108117874Y-123234413D01*
X108143732Y-123350892D01*
X108162654Y-123454945D01*
X108192071Y-123613237D01*
X108217901Y-123740259D01*
X108235021Y-123810971D01*
X108236170Y-123814283D01*
X108207742Y-123846300D01*
X108103707Y-123873829D01*
X108000299Y-123887860D01*
X107846777Y-123906190D01*
X107641409Y-123933794D01*
X107416613Y-123966216D01*
X107289089Y-123985631D01*
X106831624Y-124056880D01*
X106859200Y-124264758D01*
X106884433Y-124435342D01*
X106913999Y-124536577D01*
X106962427Y-124583882D01*
X107044249Y-124592675D01*
X107156859Y-124580611D01*
X107306364Y-124558012D01*
X107488738Y-124525982D01*
X107679740Y-124489327D01*
X107855134Y-124452853D01*
X107990681Y-124421365D01*
X108055660Y-124402419D01*
X108086087Y-124405118D01*
X108114338Y-124445766D01*
X108143968Y-124535551D01*
X108178528Y-124685659D01*
X108221573Y-124907275D01*
X108229301Y-124949120D01*
X108241650Y-125010658D01*
X108244849Y-125055540D01*
X108227448Y-125088066D01*
X108177995Y-125112538D01*
X108085039Y-125133258D01*
X107937130Y-125154527D01*
X107722816Y-125180646D01*
X107561526Y-125199960D01*
X107379334Y-125224412D01*
X107227229Y-125249383D01*
X107126581Y-125271135D01*
X107100545Y-125280587D01*
X107078176Y-125320453D01*
X107079859Y-125407612D01*
X107106468Y-125556632D01*
X107121040Y-125622625D01*
X107157794Y-125797088D01*
X107162928Y-125906509D01*
X107124108Y-125969019D01*
X107029000Y-126002746D01*
X106865270Y-126025821D01*
X106845122Y-126028185D01*
X106699477Y-126047335D01*
X106581465Y-126066531D01*
X106535274Y-126076656D01*
X106475915Y-126065604D01*
X106441554Y-125981621D01*
X106440841Y-125978070D01*
X106420960Y-125863216D01*
X106398067Y-125711643D01*
X106388951Y-125645547D01*
X106369928Y-125517963D01*
X106352832Y-125428723D01*
X106345961Y-125406290D01*
X106311283Y-125401216D01*
X106216842Y-125409521D01*
X106057515Y-125431976D01*
X105828180Y-125469350D01*
X105523711Y-125522412D01*
X105276235Y-125566924D01*
X105200926Y-125577125D01*
X105156026Y-125561220D01*
X105126935Y-125501379D01*
X105099055Y-125379773D01*
X105091237Y-125340979D01*
X105060292Y-125189221D01*
X105033252Y-125060466D01*
X105020250Y-125001409D01*
X105016817Y-124964522D01*
X105034828Y-124936345D01*
X105087121Y-124912856D01*
X105186540Y-124890035D01*
X105345924Y-124863862D01*
X105557288Y-124833261D01*
X105768743Y-124801678D01*
X105950951Y-124771382D01*
X106086482Y-124745496D01*
X106157903Y-124727139D01*
X106162564Y-124724901D01*
X106183316Y-124669704D01*
X106186760Y-124561599D01*
X106175446Y-124430714D01*
X106151927Y-124307174D01*
X106120084Y-124223213D01*
X106086646Y-124204853D01*
X106010749Y-124201855D01*
X105881352Y-124215207D01*
X105687412Y-124245897D01*
X105509430Y-124277838D01*
X105292842Y-124318751D01*
X105103199Y-124356272D01*
X104958030Y-124386810D01*
X104874869Y-124406772D01*
X104865659Y-124409751D01*
X104832585Y-124410975D01*
X104803690Y-124378848D01*
X104775042Y-124301657D01*
X104742711Y-124167690D01*
X104702769Y-123965234D01*
X104685883Y-123873950D01*
X104658529Y-123724538D01*
X105311052Y-123626084D01*
X105536200Y-123591478D01*
X105729340Y-123560584D01*
X105875727Y-123535856D01*
X105960616Y-123519750D01*
X105975784Y-123515422D01*
X105975078Y-123469043D01*
X105959330Y-123359623D01*
X105932463Y-123207369D01*
X105898402Y-123032483D01*
X105861070Y-122855172D01*
X105824394Y-122695638D01*
X105794216Y-122580610D01*
X105762017Y-122450984D01*
X105761857Y-122382515D01*
X105786162Y-122359252D01*
X105887914Y-122334736D01*
X106030286Y-122310142D01*
X106187935Y-122288577D01*
X106335519Y-122273145D01*
X106447694Y-122266952D01*
X106497796Y-122272059D01*
G37*
G36*
X72638425Y-93798653D02*
G01*
X72650476Y-93843676D01*
X72670096Y-93950580D01*
X72693138Y-94096674D01*
X72694205Y-94103915D01*
X72717970Y-94257920D01*
X72738939Y-94380267D01*
X72752590Y-94444567D01*
X72752627Y-94444683D01*
X72768704Y-94459019D01*
X72811252Y-94464648D01*
X72889464Y-94460378D01*
X73012534Y-94445011D01*
X73189655Y-94417354D01*
X73430020Y-94376211D01*
X73742824Y-94320387D01*
X73829552Y-94304698D01*
X73892350Y-94292968D01*
X73934650Y-94294601D01*
X73964279Y-94323695D01*
X73989065Y-94394351D01*
X74016833Y-94520667D01*
X74053829Y-94708740D01*
X74078615Y-94836457D01*
X74094831Y-94924167D01*
X74098488Y-94947743D01*
X74058797Y-94958099D01*
X73950147Y-94977425D01*
X73788174Y-95003148D01*
X73588513Y-95032693D01*
X73543675Y-95039083D01*
X73332544Y-95070700D01*
X73150460Y-95101191D01*
X73014990Y-95127383D01*
X72943702Y-95146104D01*
X72939328Y-95148253D01*
X72914142Y-95189476D01*
X72914501Y-95277848D01*
X72939182Y-95424782D01*
X72967989Y-95558927D01*
X72991967Y-95654230D01*
X73003466Y-95685595D01*
X73048064Y-95683558D01*
X73158247Y-95668123D01*
X73315869Y-95642575D01*
X73502783Y-95610196D01*
X73700840Y-95574271D01*
X73891896Y-95538082D01*
X74057801Y-95504914D01*
X74180409Y-95478050D01*
X74238208Y-95462182D01*
X74271281Y-95460958D01*
X74300176Y-95493085D01*
X74328825Y-95570277D01*
X74361155Y-95704244D01*
X74401097Y-95906700D01*
X74417983Y-95997984D01*
X74445337Y-96147395D01*
X73792814Y-96245849D01*
X73567666Y-96280456D01*
X73374526Y-96311350D01*
X73228139Y-96336078D01*
X73143251Y-96352184D01*
X73128083Y-96356512D01*
X73128788Y-96402891D01*
X73144536Y-96512310D01*
X73171403Y-96664565D01*
X73205464Y-96839450D01*
X73242796Y-97016762D01*
X73279473Y-97176296D01*
X73309650Y-97291324D01*
X73339549Y-97394764D01*
X73346963Y-97461262D01*
X73318512Y-97502486D01*
X73240818Y-97530107D01*
X73100500Y-97555793D01*
X72985075Y-97574415D01*
X72804778Y-97602676D01*
X72691594Y-97615757D01*
X72628564Y-97613331D01*
X72598725Y-97595076D01*
X72586772Y-97566807D01*
X72574768Y-97505515D01*
X72553225Y-97378537D01*
X72525233Y-97204623D01*
X72494956Y-97009561D01*
X72462783Y-96812306D01*
X72432097Y-96648143D01*
X72406380Y-96534246D01*
X72389164Y-96487820D01*
X72338900Y-96488588D01*
X72220664Y-96502936D01*
X72050380Y-96528581D01*
X71843967Y-96563246D01*
X71767279Y-96576880D01*
X71546132Y-96616360D01*
X71349978Y-96650648D01*
X71196707Y-96676670D01*
X71104213Y-96691351D01*
X71091072Y-96693075D01*
X71036813Y-96682599D01*
X70997746Y-96624512D01*
X70962270Y-96500807D01*
X70959549Y-96488908D01*
X70912799Y-96280529D01*
X70884514Y-96141462D01*
X70874455Y-96057718D01*
X70882386Y-96015303D01*
X70908070Y-96000226D01*
X70951236Y-95998496D01*
X71026157Y-95992627D01*
X71167650Y-95976147D01*
X71357884Y-95951321D01*
X71579029Y-95920414D01*
X71670009Y-95907171D01*
X72293799Y-95815333D01*
X72256638Y-95639852D01*
X72219144Y-95460666D01*
X72190551Y-95349562D01*
X72158158Y-95292024D01*
X72109265Y-95273533D01*
X72031171Y-95279571D01*
X71951239Y-95290762D01*
X71800109Y-95313569D01*
X71616564Y-95345737D01*
X71424769Y-95382483D01*
X71248890Y-95419022D01*
X71113093Y-95450572D01*
X71048206Y-95469515D01*
X71017779Y-95466816D01*
X70989528Y-95426167D01*
X70959898Y-95336382D01*
X70925338Y-95186275D01*
X70882293Y-94964659D01*
X70874565Y-94922814D01*
X70862216Y-94861276D01*
X70859017Y-94816394D01*
X70876418Y-94783868D01*
X70925871Y-94759396D01*
X71018827Y-94738676D01*
X71166736Y-94717407D01*
X71381050Y-94691288D01*
X71542340Y-94671974D01*
X71724532Y-94647521D01*
X71876637Y-94622550D01*
X71977285Y-94600798D01*
X72003321Y-94591347D01*
X72025771Y-94551457D01*
X72024092Y-94464325D01*
X71997423Y-94315295D01*
X71983346Y-94251594D01*
X71952664Y-94099118D01*
X71936340Y-93980939D01*
X71937368Y-93919698D01*
X71939104Y-93916920D01*
X71988861Y-93899629D01*
X72096539Y-93875647D01*
X72237392Y-93849157D01*
X72386677Y-93824345D01*
X72519648Y-93805395D01*
X72611561Y-93796492D01*
X72638425Y-93798653D01*
G37*
G36*
X113662626Y-93755963D02*
G01*
X113674678Y-93800987D01*
X113694298Y-93907890D01*
X113717340Y-94053985D01*
X113718407Y-94061226D01*
X113742171Y-94215231D01*
X113763141Y-94337578D01*
X113776792Y-94401878D01*
X113776829Y-94401994D01*
X113792906Y-94416330D01*
X113835454Y-94421959D01*
X113913666Y-94417688D01*
X114036736Y-94402322D01*
X114213857Y-94374665D01*
X114454222Y-94333522D01*
X114767026Y-94277698D01*
X114853754Y-94262009D01*
X114916276Y-94250275D01*
X114958471Y-94251711D01*
X114988084Y-94280355D01*
X115012858Y-94350242D01*
X115040535Y-94475411D01*
X115078860Y-94669898D01*
X115078916Y-94670180D01*
X115102014Y-94798044D01*
X115113629Y-94885258D01*
X115112902Y-94908847D01*
X115068856Y-94918075D01*
X114956217Y-94937555D01*
X114790794Y-94964656D01*
X114588393Y-94996745D01*
X114532487Y-95005453D01*
X114321893Y-95039474D01*
X114143093Y-95070885D01*
X114012314Y-95096648D01*
X113945784Y-95113722D01*
X113941130Y-95116238D01*
X113932889Y-95169735D01*
X113939362Y-95275716D01*
X113956348Y-95403406D01*
X113979647Y-95522033D01*
X114005058Y-95600823D01*
X114007983Y-95606032D01*
X114041422Y-95624392D01*
X114117319Y-95627390D01*
X114246716Y-95614038D01*
X114440656Y-95583348D01*
X114618638Y-95551407D01*
X114835225Y-95510494D01*
X115024869Y-95472972D01*
X115170038Y-95442434D01*
X115253199Y-95422473D01*
X115262409Y-95419493D01*
X115295482Y-95418269D01*
X115324378Y-95450396D01*
X115353026Y-95527587D01*
X115385357Y-95661555D01*
X115425299Y-95864011D01*
X115442185Y-95955295D01*
X115469538Y-96104706D01*
X114817016Y-96203160D01*
X114591868Y-96237766D01*
X114398728Y-96268661D01*
X114252341Y-96293389D01*
X114167452Y-96309495D01*
X114152284Y-96313823D01*
X114152990Y-96360202D01*
X114168738Y-96469621D01*
X114195605Y-96621876D01*
X114229666Y-96796761D01*
X114266997Y-96974073D01*
X114303674Y-97133606D01*
X114333852Y-97248634D01*
X114364226Y-97353290D01*
X114371442Y-97419369D01*
X114341848Y-97459874D01*
X114261796Y-97487809D01*
X114117636Y-97516179D01*
X114037670Y-97530800D01*
X113843784Y-97563306D01*
X113718156Y-97574607D01*
X113646286Y-97564477D01*
X113613670Y-97532687D01*
X113610696Y-97524118D01*
X113598776Y-97462759D01*
X113577699Y-97335706D01*
X113550486Y-97161771D01*
X113521440Y-96968455D01*
X113490094Y-96771256D01*
X113459698Y-96607018D01*
X113433751Y-96493037D01*
X113415927Y-96446714D01*
X113364705Y-96446916D01*
X113245610Y-96460798D01*
X113074648Y-96486118D01*
X112867827Y-96520633D01*
X112791481Y-96534191D01*
X112570394Y-96573667D01*
X112374359Y-96607952D01*
X112221247Y-96633974D01*
X112128930Y-96648659D01*
X112115828Y-96650386D01*
X112070343Y-96642798D01*
X112033847Y-96597732D01*
X111998332Y-96499466D01*
X111957494Y-96339496D01*
X111915040Y-96159097D01*
X111891873Y-96046261D01*
X111888685Y-95985224D01*
X111906170Y-95960222D01*
X111945021Y-95955489D01*
X111974370Y-95955807D01*
X112049693Y-95949936D01*
X112191550Y-95933450D01*
X112382074Y-95908615D01*
X112603397Y-95877699D01*
X112694210Y-95864482D01*
X113318000Y-95772644D01*
X113280840Y-95597163D01*
X113243346Y-95417977D01*
X113214752Y-95306873D01*
X113182359Y-95249335D01*
X113133466Y-95230844D01*
X113055372Y-95236882D01*
X112975440Y-95248073D01*
X112824311Y-95270880D01*
X112640765Y-95303048D01*
X112448971Y-95339794D01*
X112273092Y-95376333D01*
X112137294Y-95407883D01*
X112072407Y-95426826D01*
X112041981Y-95424127D01*
X112013730Y-95383478D01*
X111984100Y-95293693D01*
X111949540Y-95143586D01*
X111906495Y-94921969D01*
X111898766Y-94880125D01*
X111886646Y-94819041D01*
X111883720Y-94774150D01*
X111901243Y-94741355D01*
X111950467Y-94716558D01*
X112042645Y-94695662D01*
X112189029Y-94674572D01*
X112400873Y-94649188D01*
X112595258Y-94626541D01*
X112779612Y-94602106D01*
X112930104Y-94576894D01*
X113027943Y-94554369D01*
X113055217Y-94541786D01*
X113056366Y-94486685D01*
X113040329Y-94372276D01*
X113010504Y-94222111D01*
X113006525Y-94204409D01*
X112976162Y-94053084D01*
X112960261Y-93936152D01*
X112961812Y-93876456D01*
X112963305Y-93874230D01*
X113013063Y-93856940D01*
X113120741Y-93832958D01*
X113261594Y-93806468D01*
X113410878Y-93781656D01*
X113543850Y-93762706D01*
X113635763Y-93753803D01*
X113662626Y-93755963D01*
G37*
G36*
X130951664Y-69770418D02*
G01*
X131255557Y-69772142D01*
X131501555Y-69776004D01*
X131703398Y-69782812D01*
X131874827Y-69793378D01*
X132029583Y-69808508D01*
X132181406Y-69829013D01*
X132344037Y-69855702D01*
X132497143Y-69883143D01*
X133483906Y-70102191D01*
X134422142Y-70390400D01*
X135315452Y-70749311D01*
X136167435Y-71180468D01*
X136981694Y-71685413D01*
X137398250Y-71982777D01*
X138139395Y-72588365D01*
X138817612Y-73248390D01*
X139430446Y-73958665D01*
X139975441Y-74715001D01*
X140450141Y-75513211D01*
X140852090Y-76349104D01*
X141178835Y-77218494D01*
X141427918Y-78117192D01*
X141596884Y-79041009D01*
X141614226Y-79173880D01*
X141643345Y-79486664D01*
X141662607Y-79859702D01*
X141672012Y-80268441D01*
X141671558Y-80688327D01*
X141661247Y-81094806D01*
X141641078Y-81463326D01*
X141614226Y-81744440D01*
X141456645Y-82671664D01*
X141217500Y-83577898D01*
X140898910Y-84457502D01*
X140502997Y-85304835D01*
X140031880Y-86114258D01*
X139892341Y-86325156D01*
X139745161Y-86537698D01*
X139634263Y-86684219D01*
X139550776Y-86771160D01*
X139485828Y-86804963D01*
X139430549Y-86792068D01*
X139376066Y-86738915D01*
X139356923Y-86713874D01*
X139239320Y-86558094D01*
X139150726Y-86459347D01*
X139071484Y-86404515D01*
X138981935Y-86380484D01*
X138862419Y-86374137D01*
X138847453Y-86373964D01*
X138718258Y-86376674D01*
X138625505Y-86396766D01*
X138539421Y-86447437D01*
X138430233Y-86541883D01*
X138395314Y-86574370D01*
X138255903Y-86695404D01*
X138147584Y-86761556D01*
X138047106Y-86783798D01*
X137963203Y-86778306D01*
X137892747Y-86745394D01*
X137833592Y-86661333D01*
X137779830Y-86514405D01*
X137730949Y-86317727D01*
X137636332Y-85986165D01*
X137510516Y-85727311D01*
X137345975Y-85531843D01*
X137135183Y-85390438D01*
X136913977Y-85305775D01*
X136761147Y-85250358D01*
X136654862Y-85175633D01*
X136556680Y-85054125D01*
X136551633Y-85046823D01*
X136452361Y-84868025D01*
X136373078Y-84660673D01*
X136322530Y-84454595D01*
X136309462Y-84279620D01*
X136314248Y-84237143D01*
X136316831Y-84054418D01*
X136272381Y-83865280D01*
X136191306Y-83709361D01*
X136168503Y-83682291D01*
X136107340Y-83585508D01*
X136063346Y-83435708D01*
X136037225Y-83270199D01*
X135948671Y-82819703D01*
X135801393Y-82396114D01*
X135602316Y-82013905D01*
X135358365Y-81687550D01*
X135208369Y-81537815D01*
X134970052Y-81325407D01*
X135131665Y-81203831D01*
X135455583Y-80943266D01*
X135725529Y-80691056D01*
X135920458Y-80469832D01*
X136012417Y-80357017D01*
X136092733Y-80286451D01*
X136181025Y-80254406D01*
X136296911Y-80257152D01*
X136460012Y-80290961D01*
X136628211Y-80335296D01*
X136989822Y-80435728D01*
X137283962Y-80524083D01*
X137526405Y-80607257D01*
X137732924Y-80692142D01*
X137919292Y-80785631D01*
X138101284Y-80894620D01*
X138294672Y-81026001D01*
X138426565Y-81121250D01*
X138580261Y-81208175D01*
X138700242Y-81223078D01*
X138780335Y-81167635D01*
X138814366Y-81043520D01*
X138815126Y-81015797D01*
X138783645Y-80950126D01*
X138698357Y-80845357D01*
X138572994Y-80714619D01*
X138421287Y-80571044D01*
X138256968Y-80427763D01*
X138093770Y-80297906D01*
X137979112Y-80216387D01*
X137831021Y-80133632D01*
X137620351Y-80037377D01*
X137366996Y-79936195D01*
X137142957Y-79856107D01*
X136930697Y-79783172D01*
X136748347Y-79718732D01*
X136610693Y-79668151D01*
X136532522Y-79636793D01*
X136520655Y-79630347D01*
X136519062Y-79578434D01*
X136547738Y-79490673D01*
X136591031Y-79403188D01*
X136633286Y-79352108D01*
X136642461Y-79349244D01*
X136695314Y-79352908D01*
X136818354Y-79363051D01*
X136996742Y-79378402D01*
X137215641Y-79397689D01*
X137395013Y-79413750D01*
X137901574Y-79465858D01*
X138325148Y-79523566D01*
X138667974Y-79587332D01*
X138932287Y-79657614D01*
X139120326Y-79734868D01*
X139193218Y-79781403D01*
X139287447Y-79832923D01*
X139370133Y-79818738D01*
X139374647Y-79816382D01*
X139449105Y-79738037D01*
X139449783Y-79628125D01*
X139378624Y-79494513D01*
X139264100Y-79369107D01*
X139030180Y-79198207D01*
X138730722Y-79061717D01*
X138362091Y-78958598D01*
X137920650Y-78887813D01*
X137444966Y-78850256D01*
X136907244Y-78824415D01*
X136980468Y-78587753D01*
X137041323Y-78432954D01*
X137106554Y-78337919D01*
X137133989Y-78319554D01*
X137255548Y-78293909D01*
X137443307Y-78280917D01*
X137679222Y-78279353D01*
X137945252Y-78287991D01*
X138223352Y-78305606D01*
X138495481Y-78330974D01*
X138743596Y-78362868D01*
X138949653Y-78400063D01*
X139095609Y-78441335D01*
X139125937Y-78454820D01*
X139296137Y-78524938D01*
X139417936Y-78536719D01*
X139485716Y-78490517D01*
X139498152Y-78431429D01*
X139456017Y-78295257D01*
X139330408Y-78170631D01*
X139122515Y-78058087D01*
X138833528Y-77958164D01*
X138464638Y-77871399D01*
X138132101Y-77814666D01*
X137918691Y-77788251D01*
X137685720Y-77767366D01*
X137513110Y-77757767D01*
X137214286Y-77748404D01*
X137201853Y-77468593D01*
X137189421Y-77188783D01*
X137716719Y-76632579D01*
X137912607Y-76423753D01*
X138057500Y-76262632D01*
X138160892Y-76136665D01*
X138232279Y-76033304D01*
X138281156Y-75939999D01*
X138317016Y-75844203D01*
X138319758Y-75835578D01*
X138361308Y-75664073D01*
X138373774Y-75519512D01*
X138368626Y-75472439D01*
X138298035Y-75322842D01*
X138165969Y-75180343D01*
X137995404Y-75064608D01*
X137811933Y-74995869D01*
X137633760Y-74952317D01*
X137447714Y-74899776D01*
X137396507Y-74883691D01*
X137310357Y-74853156D01*
X137245966Y-74817300D01*
X137197340Y-74762929D01*
X137158485Y-74676849D01*
X137123407Y-74545866D01*
X137086111Y-74356786D01*
X137041679Y-74102681D01*
X136977897Y-73767047D01*
X136912086Y-73502323D01*
X136838791Y-73294111D01*
X136752555Y-73128012D01*
X136647919Y-72989627D01*
X136601110Y-72940224D01*
X136468189Y-72819832D01*
X136346510Y-72747071D01*
X136197218Y-72700438D01*
X136148712Y-72689862D01*
X135889687Y-72668070D01*
X135590245Y-72694641D01*
X135276858Y-72764883D01*
X134975999Y-72874104D01*
X134895754Y-72911959D01*
X134626297Y-73046725D01*
X134395114Y-72804203D01*
X134238539Y-72655218D01*
X134111125Y-72576655D01*
X133997363Y-72566174D01*
X133881743Y-72621438D01*
X133777765Y-72711142D01*
X133624703Y-72860604D01*
X133204317Y-72628333D01*
X132832896Y-72446262D01*
X132428387Y-72287782D01*
X132023922Y-72164568D01*
X131686051Y-72093280D01*
X131492455Y-72072678D01*
X131234612Y-72058988D01*
X130933367Y-72052170D01*
X130609567Y-72052184D01*
X130284059Y-72058994D01*
X129977690Y-72072558D01*
X129711306Y-72092839D01*
X129670666Y-72097041D01*
X129445828Y-72128903D01*
X129215704Y-72173872D01*
X129017182Y-72224303D01*
X128947603Y-72246880D01*
X128663777Y-72349089D01*
X128297399Y-71986813D01*
X128120948Y-71817832D01*
X127970087Y-71690352D01*
X127817266Y-71584943D01*
X127634931Y-71482171D01*
X127449965Y-71389119D01*
X127123304Y-71242432D01*
X126807572Y-71125397D01*
X126517854Y-71042338D01*
X126269236Y-70997579D01*
X126076804Y-70995443D01*
X126076437Y-70995491D01*
X125914272Y-71055981D01*
X125744947Y-71189583D01*
X125576514Y-71385395D01*
X125417028Y-71632517D01*
X125274544Y-71920049D01*
X125157117Y-72237090D01*
X125155742Y-72241513D01*
X125097984Y-72483987D01*
X125051703Y-72790373D01*
X125018144Y-73139821D01*
X124998553Y-73511482D01*
X124994175Y-73884503D01*
X125006255Y-74238036D01*
X125023817Y-74450268D01*
X125050742Y-74706446D01*
X125067503Y-74896735D01*
X125072773Y-75040164D01*
X125065226Y-75155765D01*
X125043536Y-75262567D01*
X125006376Y-75379602D01*
X124952421Y-75525898D01*
X124948048Y-75537547D01*
X124882604Y-75731043D01*
X124828185Y-75926702D01*
X124794748Y-76087905D01*
X124791336Y-76113850D01*
X124766460Y-76328755D01*
X124745757Y-76472363D01*
X124724821Y-76558324D01*
X124699252Y-76600286D01*
X124664646Y-76611900D01*
X124631581Y-76609121D01*
X124580426Y-76589134D01*
X124543201Y-76534849D01*
X124511359Y-76428086D01*
X124484813Y-76296975D01*
X124450555Y-76090119D01*
X124417686Y-75855062D01*
X124397103Y-75677984D01*
X124377826Y-75513166D01*
X124357009Y-75416363D01*
X124328395Y-75370346D01*
X124285730Y-75357881D01*
X124280864Y-75357816D01*
X124205222Y-75399330D01*
X124148640Y-75523909D01*
X124111106Y-75731602D01*
X124092607Y-76022461D01*
X124090676Y-76136891D01*
X124087395Y-76574454D01*
X123789864Y-76574454D01*
X123565168Y-76583907D01*
X123284611Y-76609884D01*
X122975313Y-76648818D01*
X122664393Y-76697140D01*
X122378971Y-76751279D01*
X122281365Y-76772980D01*
X122065300Y-76841471D01*
X121931625Y-76927311D01*
X121878838Y-77031986D01*
X121901718Y-77149074D01*
X121933171Y-77207814D01*
X121973206Y-77229723D01*
X122047610Y-77218768D01*
X122153236Y-77187775D01*
X122311423Y-77154591D01*
X122531913Y-77128623D01*
X122791880Y-77110553D01*
X123068498Y-77101059D01*
X123338943Y-77100824D01*
X123580389Y-77110528D01*
X123770011Y-77130852D01*
X123809916Y-77138367D01*
X124066051Y-77193446D01*
X124066051Y-77534958D01*
X124066051Y-77876471D01*
X123712238Y-77905799D01*
X123133676Y-77989136D01*
X122543052Y-78140454D01*
X121967425Y-78351849D01*
X121609700Y-78520012D01*
X121366490Y-78655562D01*
X121201087Y-78772111D01*
X121109136Y-78873880D01*
X121086284Y-78965086D01*
X121101602Y-79012294D01*
X121141536Y-79064079D01*
X121200310Y-79085937D01*
X121292786Y-79076447D01*
X121433828Y-79034183D01*
X121627530Y-78961917D01*
X122077905Y-78808381D01*
X122582580Y-78674069D01*
X123111310Y-78566320D01*
X123496101Y-78508527D01*
X123758783Y-78477823D01*
X123948814Y-78463902D01*
X124077776Y-78469622D01*
X124157252Y-78497844D01*
X124198827Y-78551427D01*
X124214084Y-78633229D01*
X124215462Y-78686094D01*
X124226552Y-78767883D01*
X124257519Y-78917220D01*
X124304913Y-79119525D01*
X124365280Y-79360218D01*
X124435171Y-79624717D01*
X124454242Y-79694733D01*
X124690613Y-80458606D01*
X124969003Y-81184371D01*
X125282004Y-81853359D01*
X125393722Y-82062271D01*
X125536775Y-82320676D01*
X125439899Y-82467817D01*
X125328122Y-82680176D01*
X125252608Y-82929309D01*
X125210097Y-83230192D01*
X125197311Y-83582282D01*
X125204623Y-83882225D01*
X125227432Y-84111060D01*
X125267045Y-84281871D01*
X125267387Y-84282900D01*
X125344182Y-84456069D01*
X125466891Y-84666916D01*
X125620759Y-84893046D01*
X125791030Y-85112065D01*
X125884145Y-85218992D01*
X126039897Y-85389748D01*
X125839346Y-85738124D01*
X125668036Y-86070195D01*
X125491646Y-86477486D01*
X125313553Y-86950256D01*
X125137134Y-87478768D01*
X124965766Y-88053282D01*
X124802826Y-88664059D01*
X124748651Y-88883609D01*
X124696428Y-89096185D01*
X124650324Y-89277262D01*
X124614362Y-89411528D01*
X124592566Y-89483670D01*
X124588907Y-89491542D01*
X124549185Y-89475800D01*
X124454400Y-89420174D01*
X124319403Y-89333789D01*
X124182758Y-89242051D01*
X123736985Y-88924475D01*
X123340006Y-88612435D01*
X122961078Y-88280425D01*
X122573266Y-87906751D01*
X121937331Y-87213580D01*
X121367209Y-86474326D01*
X120866551Y-85695259D01*
X120439009Y-84882645D01*
X120088235Y-84042752D01*
X119817881Y-83181849D01*
X119815666Y-83173423D01*
X119723430Y-82809425D01*
X119650552Y-82487498D01*
X119594877Y-82189158D01*
X119554248Y-81895922D01*
X119526509Y-81589306D01*
X119509504Y-81250828D01*
X119501077Y-80862004D01*
X119499044Y-80459160D01*
X119501656Y-80010065D01*
X119510930Y-79627746D01*
X119529021Y-79293720D01*
X119558085Y-78989503D01*
X119600279Y-78696612D01*
X119657759Y-78396564D01*
X119732680Y-78070876D01*
X119815666Y-77744897D01*
X120075110Y-76916508D01*
X120413330Y-76099150D01*
X120823725Y-75303434D01*
X121299693Y-74539974D01*
X121834634Y-73819380D01*
X122421945Y-73152266D01*
X123038831Y-72563334D01*
X123806251Y-71945362D01*
X124603524Y-71405074D01*
X125435043Y-70940372D01*
X126305202Y-70549161D01*
X127218394Y-70229344D01*
X128179014Y-69978824D01*
X128655126Y-69883143D01*
X128837173Y-69850704D01*
X128997003Y-69825122D01*
X129148356Y-69805585D01*
X129304972Y-69791286D01*
X129480593Y-69781415D01*
X129688959Y-69775163D01*
X129943810Y-69771721D01*
X130258888Y-69770280D01*
X130576135Y-69770023D01*
X130951664Y-69770418D01*
G37*
G36*
X89927462Y-69813107D02*
G01*
X90231355Y-69814831D01*
X90477353Y-69818693D01*
X90679197Y-69825502D01*
X90850626Y-69836067D01*
X91005381Y-69851197D01*
X91157204Y-69871703D01*
X91319835Y-69898391D01*
X91472941Y-69925832D01*
X92459704Y-70144880D01*
X93397940Y-70433089D01*
X94291250Y-70792001D01*
X95143234Y-71223157D01*
X95957492Y-71728102D01*
X96374048Y-72025466D01*
X97115193Y-72631054D01*
X97793411Y-73291079D01*
X98406244Y-74001354D01*
X98951239Y-74757690D01*
X99425939Y-75555900D01*
X99827889Y-76391793D01*
X100154633Y-77261183D01*
X100403716Y-78159881D01*
X100572682Y-79083698D01*
X100590024Y-79216569D01*
X100610634Y-79429459D01*
X100628273Y-79700865D01*
X100641667Y-80003942D01*
X100649540Y-80311846D01*
X100651093Y-80501849D01*
X100647492Y-80798495D01*
X100637542Y-81107763D01*
X100622517Y-81402808D01*
X100603692Y-81656786D01*
X100590024Y-81787129D01*
X100432443Y-82714353D01*
X100193298Y-83620587D01*
X99874709Y-84500191D01*
X99478796Y-85347524D01*
X99007679Y-86156947D01*
X98868140Y-86367845D01*
X98720959Y-86580387D01*
X98610061Y-86726908D01*
X98526574Y-86813850D01*
X98461627Y-86847652D01*
X98406347Y-86834757D01*
X98351865Y-86781604D01*
X98332721Y-86756563D01*
X98215212Y-86600857D01*
X98126679Y-86502138D01*
X98047351Y-86447302D01*
X97957455Y-86423242D01*
X97837220Y-86416854D01*
X97819903Y-86416653D01*
X97679567Y-86420151D01*
X97582747Y-86443948D01*
X97493626Y-86502821D01*
X97397952Y-86590729D01*
X97237563Y-86733570D01*
X97113051Y-86814911D01*
X97010289Y-86842456D01*
X96949334Y-86835389D01*
X96878244Y-86798714D01*
X96819715Y-86721230D01*
X96766974Y-86589278D01*
X96713249Y-86389201D01*
X96700267Y-86333111D01*
X96603471Y-86006004D01*
X96474161Y-85751277D01*
X96304683Y-85559630D01*
X96087382Y-85421767D01*
X95889775Y-85348464D01*
X95736945Y-85293048D01*
X95630660Y-85218322D01*
X95532478Y-85096814D01*
X95527432Y-85089512D01*
X95385242Y-84810577D01*
X95303888Y-84480137D01*
X95284665Y-84183612D01*
X95279677Y-84021029D01*
X95254416Y-83904596D01*
X95197527Y-83795550D01*
X95151317Y-83728398D01*
X95053074Y-83559243D01*
X95016945Y-83402197D01*
X95016135Y-83372539D01*
X94996054Y-83168275D01*
X94941226Y-82918100D01*
X94859771Y-82649940D01*
X94759811Y-82391720D01*
X94685908Y-82236999D01*
X94529625Y-81988591D01*
X94327597Y-81738643D01*
X94240120Y-81646514D01*
X93955029Y-81361095D01*
X94112053Y-81243020D01*
X94429904Y-80987306D01*
X94697168Y-80737940D01*
X94896256Y-80512521D01*
X94988215Y-80399706D01*
X95068531Y-80329140D01*
X95156823Y-80297095D01*
X95272709Y-80299841D01*
X95435810Y-80333650D01*
X95604010Y-80377985D01*
X95965620Y-80478417D01*
X96259760Y-80566772D01*
X96502203Y-80649946D01*
X96708722Y-80734831D01*
X96895091Y-80828320D01*
X97077082Y-80937309D01*
X97270470Y-81068690D01*
X97402364Y-81163939D01*
X97556059Y-81250864D01*
X97676040Y-81265767D01*
X97756133Y-81210324D01*
X97790164Y-81086209D01*
X97790925Y-81058487D01*
X97759582Y-80993434D01*
X97674800Y-80889181D01*
X97550450Y-80759054D01*
X97400400Y-80616376D01*
X97238522Y-80474475D01*
X97078685Y-80346674D01*
X96967617Y-80267513D01*
X96854340Y-80203841D01*
X96688193Y-80124818D01*
X96487599Y-80037680D01*
X96270977Y-79949663D01*
X96056749Y-79868005D01*
X95863336Y-79799942D01*
X95709159Y-79752712D01*
X95612638Y-79733550D01*
X95608164Y-79733446D01*
X95528928Y-79710427D01*
X95505467Y-79688180D01*
X95500226Y-79619116D01*
X95528366Y-79522998D01*
X95574848Y-79435647D01*
X95624633Y-79392883D01*
X95629633Y-79392439D01*
X95726533Y-79397707D01*
X95889477Y-79411011D01*
X96099718Y-79430411D01*
X96338506Y-79453970D01*
X96587094Y-79479749D01*
X96826731Y-79505810D01*
X97038671Y-79530216D01*
X97204163Y-79551027D01*
X97295460Y-79564646D01*
X97618868Y-79629366D01*
X97879363Y-79697177D01*
X98069015Y-79765742D01*
X98166434Y-79821149D01*
X98278569Y-79872071D01*
X98371294Y-79849205D01*
X98425022Y-79761213D01*
X98431261Y-79704042D01*
X98395507Y-79598775D01*
X98299872Y-79474073D01*
X98161795Y-79346708D01*
X97998715Y-79233450D01*
X97876303Y-79170356D01*
X97558545Y-79060177D01*
X97174280Y-78974374D01*
X96739690Y-78916060D01*
X96442116Y-78894576D01*
X95883056Y-78867058D01*
X95956873Y-78628483D01*
X95996443Y-78512157D01*
X96041004Y-78431319D01*
X96105830Y-78379314D01*
X96206200Y-78349487D01*
X96357389Y-78335183D01*
X96574673Y-78329749D01*
X96644469Y-78328962D01*
X96963166Y-78332876D01*
X97275082Y-78349887D01*
X97563678Y-78378083D01*
X97812416Y-78415551D01*
X98004758Y-78460377D01*
X98101735Y-78497509D01*
X98271935Y-78567627D01*
X98393735Y-78579408D01*
X98461514Y-78533207D01*
X98473950Y-78474118D01*
X98432443Y-78341954D01*
X98312045Y-78219188D01*
X98118945Y-78108056D01*
X97859329Y-78010791D01*
X97539383Y-77929626D01*
X97165296Y-77866795D01*
X96743253Y-77824533D01*
X96659664Y-77819102D01*
X96190084Y-77791093D01*
X96177652Y-77511282D01*
X96165219Y-77231472D01*
X96692518Y-76675268D01*
X96888406Y-76466442D01*
X97033298Y-76305321D01*
X97136691Y-76179354D01*
X97208078Y-76075993D01*
X97256954Y-75982688D01*
X97292815Y-75886892D01*
X97295556Y-75878267D01*
X97339375Y-75694525D01*
X97348344Y-75544996D01*
X97343450Y-75510690D01*
X97286115Y-75392778D01*
X97177213Y-75263805D01*
X97042752Y-75148364D01*
X96908741Y-75071053D01*
X96863514Y-75056825D01*
X96761520Y-75031741D01*
X96611475Y-74991445D01*
X96458323Y-74948225D01*
X96342091Y-74913906D01*
X96256534Y-74879640D01*
X96194392Y-74832205D01*
X96148408Y-74758383D01*
X96111322Y-74644953D01*
X96075875Y-74478696D01*
X96034808Y-74246393D01*
X96017477Y-74145370D01*
X95953695Y-73809736D01*
X95887885Y-73545012D01*
X95814590Y-73336800D01*
X95728353Y-73170701D01*
X95623717Y-73032316D01*
X95576908Y-72982913D01*
X95443987Y-72862521D01*
X95322308Y-72789760D01*
X95173016Y-72743127D01*
X95124510Y-72732551D01*
X94865486Y-72710759D01*
X94566043Y-72737330D01*
X94252656Y-72807572D01*
X93951798Y-72916793D01*
X93871552Y-72954648D01*
X93602095Y-73089414D01*
X93370912Y-72846892D01*
X93214337Y-72697907D01*
X93086924Y-72619344D01*
X92973162Y-72608863D01*
X92857541Y-72664127D01*
X92753563Y-72753831D01*
X92600501Y-72903293D01*
X92180115Y-72671022D01*
X91808695Y-72488952D01*
X91404185Y-72330471D01*
X90999720Y-72207257D01*
X90661849Y-72135969D01*
X90463128Y-72114800D01*
X90200115Y-72101013D01*
X89893573Y-72094578D01*
X89564266Y-72095463D01*
X89232958Y-72103640D01*
X88920411Y-72119079D01*
X88675564Y-72138831D01*
X88406384Y-72174791D01*
X88151166Y-72224845D01*
X87943766Y-72282232D01*
X87925416Y-72288669D01*
X87639575Y-72391778D01*
X87273198Y-72029502D01*
X87096746Y-71860521D01*
X86945886Y-71733042D01*
X86793064Y-71627632D01*
X86610729Y-71524860D01*
X86425763Y-71431808D01*
X86102930Y-71286748D01*
X85790136Y-71170403D01*
X85502591Y-71087142D01*
X85255502Y-71041334D01*
X85064080Y-71037348D01*
X85055998Y-71038358D01*
X84888442Y-71100448D01*
X84715346Y-71236085D01*
X84544831Y-71434538D01*
X84385020Y-71685076D01*
X84244033Y-71976968D01*
X84149098Y-72236697D01*
X84083361Y-72504819D01*
X84031617Y-72836464D01*
X83994647Y-73210807D01*
X83973231Y-73607023D01*
X83968149Y-74004284D01*
X83980180Y-74381766D01*
X84010105Y-74718642D01*
X84047625Y-74945716D01*
X84071853Y-75109007D01*
X84062060Y-75207813D01*
X84054626Y-75220694D01*
X84014036Y-75299424D01*
X83961586Y-75438377D01*
X83904248Y-75614498D01*
X83848992Y-75804734D01*
X83802789Y-75986032D01*
X83772610Y-76135338D01*
X83767904Y-76168908D01*
X83741872Y-76380472D01*
X83720669Y-76521020D01*
X83699643Y-76604383D01*
X83674138Y-76644395D01*
X83639503Y-76654889D01*
X83605444Y-76651811D01*
X83553656Y-76632747D01*
X83516635Y-76581040D01*
X83485709Y-76478302D01*
X83458194Y-76339664D01*
X83424777Y-76132802D01*
X83392625Y-75897740D01*
X83372420Y-75720673D01*
X83353402Y-75555870D01*
X83332759Y-75459079D01*
X83304258Y-75413061D01*
X83261665Y-75400573D01*
X83256662Y-75400505D01*
X83181020Y-75442020D01*
X83124439Y-75566598D01*
X83086904Y-75774291D01*
X83068405Y-76065150D01*
X83066474Y-76179580D01*
X83063194Y-76617143D01*
X82765662Y-76617143D01*
X82540966Y-76626596D01*
X82260409Y-76652573D01*
X81951111Y-76691507D01*
X81640192Y-76739829D01*
X81354770Y-76793968D01*
X81257163Y-76815669D01*
X81041098Y-76884161D01*
X80907423Y-76970000D01*
X80854637Y-77074675D01*
X80877516Y-77191763D01*
X80908969Y-77250503D01*
X80949004Y-77272412D01*
X81023408Y-77261457D01*
X81129034Y-77230464D01*
X81287221Y-77197280D01*
X81507711Y-77171313D01*
X81767678Y-77153242D01*
X82044297Y-77143749D01*
X82314741Y-77143513D01*
X82556187Y-77153217D01*
X82745809Y-77173541D01*
X82785715Y-77181056D01*
X83041849Y-77236135D01*
X83041849Y-77577647D01*
X83041849Y-77919160D01*
X82672770Y-77947299D01*
X82156731Y-78018779D01*
X81615385Y-78152953D01*
X81072624Y-78342739D01*
X80576048Y-78568816D01*
X80334160Y-78703400D01*
X80170719Y-78819873D01*
X80081692Y-78922167D01*
X80063042Y-79014217D01*
X80077400Y-79054983D01*
X80117699Y-79107036D01*
X80177115Y-79128770D01*
X80270606Y-79118803D01*
X80413125Y-79075753D01*
X80597307Y-79006944D01*
X80971265Y-78878271D01*
X81401445Y-78758451D01*
X81858712Y-78654529D01*
X82313931Y-78573548D01*
X82492688Y-78548679D01*
X82751085Y-78518568D01*
X82937026Y-78505788D01*
X83062224Y-78513360D01*
X83138393Y-78544302D01*
X83177247Y-78601636D01*
X83190500Y-78688381D01*
X83191261Y-78728784D01*
X83202350Y-78810572D01*
X83233318Y-78959909D01*
X83280711Y-79162214D01*
X83341079Y-79402907D01*
X83410969Y-79667406D01*
X83430040Y-79737422D01*
X83666411Y-80501295D01*
X83944801Y-81227060D01*
X84257802Y-81896048D01*
X84369520Y-82104960D01*
X84512573Y-82363365D01*
X84415697Y-82510506D01*
X84303920Y-82722865D01*
X84228406Y-82971998D01*
X84185896Y-83272881D01*
X84173110Y-83624971D01*
X84180422Y-83924914D01*
X84203230Y-84153749D01*
X84242843Y-84324560D01*
X84243185Y-84325589D01*
X84319980Y-84498758D01*
X84442689Y-84709605D01*
X84596557Y-84935735D01*
X84766829Y-85154754D01*
X84859943Y-85261681D01*
X85015695Y-85432437D01*
X84815145Y-85780813D01*
X84651107Y-86098728D01*
X84480700Y-86490794D01*
X84307591Y-86946375D01*
X84135446Y-87454837D01*
X83967934Y-88005544D01*
X83808720Y-88587861D01*
X83708569Y-88990175D01*
X83659706Y-89190310D01*
X83616820Y-89358270D01*
X83584222Y-89477707D01*
X83566222Y-89532275D01*
X83565264Y-89533672D01*
X83525316Y-89518153D01*
X83430344Y-89462706D01*
X83295222Y-89376433D01*
X83158557Y-89284740D01*
X82712784Y-88967164D01*
X82315804Y-88655124D01*
X81936876Y-88323114D01*
X81549064Y-87949440D01*
X80913129Y-87256269D01*
X80343007Y-86517016D01*
X79842349Y-85737948D01*
X79414808Y-84925334D01*
X79064034Y-84085441D01*
X78793679Y-83224538D01*
X78791464Y-83216112D01*
X78699228Y-82852114D01*
X78626350Y-82530187D01*
X78570675Y-82231847D01*
X78530046Y-81938611D01*
X78502307Y-81631995D01*
X78485302Y-81293517D01*
X78476875Y-80904693D01*
X78474843Y-80501849D01*
X78477455Y-80052754D01*
X78486728Y-79670435D01*
X78504819Y-79336409D01*
X78533883Y-79032192D01*
X78576077Y-78739301D01*
X78633557Y-78439254D01*
X78708479Y-78113565D01*
X78791464Y-77787586D01*
X79050909Y-76959197D01*
X79389129Y-76141839D01*
X79799524Y-75346123D01*
X80275492Y-74582663D01*
X80810432Y-73862069D01*
X81397744Y-73194955D01*
X82014629Y-72606023D01*
X82782049Y-71988051D01*
X83579322Y-71447763D01*
X84410841Y-70983061D01*
X85281000Y-70591850D01*
X86194193Y-70272033D01*
X87154812Y-70021513D01*
X87630925Y-69925832D01*
X87812972Y-69893394D01*
X87972801Y-69867811D01*
X88124154Y-69848274D01*
X88280770Y-69833975D01*
X88456391Y-69824104D01*
X88664757Y-69817852D01*
X88919609Y-69814410D01*
X89234686Y-69812969D01*
X89551933Y-69812712D01*
X89927462Y-69813107D01*
G37*
G36*
X136646990Y-130353030D02*
G01*
X136744339Y-130410471D01*
X136885106Y-130502008D01*
X137056857Y-130619062D01*
X137247159Y-130753057D01*
X137443579Y-130895415D01*
X137633683Y-131037558D01*
X137754756Y-131131093D01*
X138013090Y-131347704D01*
X138304034Y-131614640D01*
X138609485Y-131913543D01*
X138911335Y-132226056D01*
X139191480Y-132533820D01*
X139431816Y-132818478D01*
X139484078Y-132884550D01*
X140029488Y-133646101D01*
X140496661Y-134430799D01*
X140888845Y-135245983D01*
X141209292Y-136098992D01*
X141461248Y-136997163D01*
X141599657Y-137662497D01*
X141629350Y-137836149D01*
X141652329Y-137997420D01*
X141669426Y-138161086D01*
X141681474Y-138341920D01*
X141689306Y-138554695D01*
X141693755Y-138814184D01*
X141695653Y-139135163D01*
X141695914Y-139370084D01*
X141693302Y-139819179D01*
X141684029Y-140201498D01*
X141665938Y-140535525D01*
X141636874Y-140839742D01*
X141594680Y-141132632D01*
X141537200Y-141432680D01*
X141462278Y-141758368D01*
X141379293Y-142084348D01*
X141107634Y-142953777D01*
X140758862Y-143792941D01*
X140337140Y-144597715D01*
X139846633Y-145363977D01*
X139291504Y-146087602D01*
X138675917Y-146764467D01*
X138004036Y-147390449D01*
X137280026Y-147961423D01*
X136508050Y-148473266D01*
X135692272Y-148921855D01*
X134836856Y-149303065D01*
X133945965Y-149612773D01*
X133707985Y-149681367D01*
X133276213Y-149794886D01*
X132883175Y-149884343D01*
X132508144Y-149952471D01*
X132130391Y-150002005D01*
X131729189Y-150035677D01*
X131283809Y-150056220D01*
X130789580Y-150066194D01*
X130467084Y-150068130D01*
X130154748Y-150066959D01*
X129868269Y-150062972D01*
X129623344Y-150056457D01*
X129435672Y-150047705D01*
X129338152Y-150039393D01*
X128368165Y-149880353D01*
X127430637Y-149647716D01*
X126528857Y-149344646D01*
X125666114Y-148974306D01*
X124845699Y-148539860D01*
X124070902Y-148044474D01*
X123345013Y-147491311D01*
X122671321Y-146883535D01*
X122053118Y-146224309D01*
X121493692Y-145516800D01*
X120996334Y-144764169D01*
X120564333Y-143969582D01*
X120200981Y-143136203D01*
X119909566Y-142267195D01*
X119693379Y-141365723D01*
X119580733Y-140655365D01*
X119551613Y-140342580D01*
X119532351Y-139969542D01*
X119522947Y-139560804D01*
X119523400Y-139140918D01*
X119533712Y-138734439D01*
X119553881Y-138365919D01*
X119580733Y-138084804D01*
X119738314Y-137157580D01*
X119977459Y-136251346D01*
X120296048Y-135371743D01*
X120691961Y-134524409D01*
X121163078Y-133714987D01*
X121302617Y-133504089D01*
X121449798Y-133291547D01*
X121560696Y-133145026D01*
X121644183Y-133058084D01*
X121709130Y-133024281D01*
X121764410Y-133037177D01*
X121818892Y-133090330D01*
X121838035Y-133115371D01*
X121955639Y-133271150D01*
X122044232Y-133369898D01*
X122123474Y-133424729D01*
X122213024Y-133448760D01*
X122332540Y-133455107D01*
X122347506Y-133455280D01*
X122476700Y-133452571D01*
X122569454Y-133432479D01*
X122655538Y-133381807D01*
X122764725Y-133287362D01*
X122799644Y-133254874D01*
X122939055Y-133133841D01*
X123047375Y-133067689D01*
X123147852Y-133045447D01*
X123231756Y-133050939D01*
X123302212Y-133083851D01*
X123361366Y-133167912D01*
X123415129Y-133314840D01*
X123464009Y-133511517D01*
X123559401Y-133845637D01*
X123685842Y-134106149D01*
X123850049Y-134301284D01*
X124058742Y-134439274D01*
X124287834Y-134520819D01*
X124426005Y-134568834D01*
X124530019Y-134644599D01*
X124631955Y-134769216D01*
X124734935Y-134947444D01*
X124817557Y-135155612D01*
X124870862Y-135364086D01*
X124885893Y-135543236D01*
X124880711Y-135592101D01*
X124881027Y-135798757D01*
X124942317Y-136009079D01*
X125034828Y-136160654D01*
X125120507Y-136316306D01*
X125148326Y-136483041D01*
X125209268Y-136900876D01*
X125343293Y-137319444D01*
X125540938Y-137717670D01*
X125792741Y-138074479D01*
X125930637Y-138225420D01*
X126215727Y-138510839D01*
X126058704Y-138628914D01*
X125740852Y-138884628D01*
X125473589Y-139133994D01*
X125274501Y-139359412D01*
X125182541Y-139472228D01*
X125102226Y-139542794D01*
X125013934Y-139574839D01*
X124898048Y-139572092D01*
X124734947Y-139538284D01*
X124566747Y-139493948D01*
X124205137Y-139393517D01*
X123910997Y-139305161D01*
X123668554Y-139221988D01*
X123462035Y-139137103D01*
X123275666Y-139043613D01*
X123093675Y-138934625D01*
X122900286Y-138803244D01*
X122768393Y-138707994D01*
X122614698Y-138621069D01*
X122494717Y-138606166D01*
X122414624Y-138661610D01*
X122380593Y-138785725D01*
X122379832Y-138813447D01*
X122411207Y-138878643D01*
X122496105Y-138983015D01*
X122620688Y-139113282D01*
X122771118Y-139256165D01*
X122933555Y-139398382D01*
X123094161Y-139526653D01*
X123206045Y-139606350D01*
X123318938Y-139669617D01*
X123485182Y-139748312D01*
X123686196Y-139835168D01*
X123903401Y-139922923D01*
X124118215Y-140004311D01*
X124312057Y-140072069D01*
X124466348Y-140118933D01*
X124562507Y-140137637D01*
X124565128Y-140137699D01*
X124643372Y-140162218D01*
X124665290Y-140183753D01*
X124670531Y-140252818D01*
X124642391Y-140348936D01*
X124595909Y-140436287D01*
X124546124Y-140479050D01*
X124541124Y-140479495D01*
X124444224Y-140474226D01*
X124281280Y-140460923D01*
X124071039Y-140441523D01*
X123832251Y-140417964D01*
X123583663Y-140392185D01*
X123344026Y-140366124D01*
X123132086Y-140341718D01*
X122966594Y-140320907D01*
X122875297Y-140307287D01*
X122551889Y-140242567D01*
X122291394Y-140174757D01*
X122101742Y-140106192D01*
X122004323Y-140050784D01*
X121910096Y-139997283D01*
X121829127Y-140008379D01*
X121820312Y-140012862D01*
X121745466Y-140091031D01*
X121745312Y-140200188D01*
X121818043Y-140333405D01*
X121937236Y-140461679D01*
X122167939Y-140630338D01*
X122457847Y-140764812D01*
X122812282Y-140866619D01*
X123236567Y-140937277D01*
X123736024Y-140978307D01*
X123749992Y-140978989D01*
X124287715Y-141004830D01*
X124213891Y-141243428D01*
X124174319Y-141359763D01*
X124129758Y-141440607D01*
X124064933Y-141492616D01*
X123964567Y-141522446D01*
X123813384Y-141536750D01*
X123596106Y-141542184D01*
X123526288Y-141542972D01*
X123207591Y-141539058D01*
X122895675Y-141522047D01*
X122607079Y-141493851D01*
X122358341Y-141456383D01*
X122165998Y-141411557D01*
X122069022Y-141374424D01*
X121898822Y-141304307D01*
X121777022Y-141292525D01*
X121709243Y-141338727D01*
X121696807Y-141397816D01*
X121738314Y-141529980D01*
X121858712Y-141652745D01*
X122051812Y-141763877D01*
X122311428Y-141861143D01*
X122631374Y-141942307D01*
X123005461Y-142005138D01*
X123427504Y-142047401D01*
X123511093Y-142052832D01*
X123980673Y-142080841D01*
X123993147Y-142362492D01*
X124005622Y-142644144D01*
X123519061Y-143152240D01*
X123282693Y-143406127D01*
X123104432Y-143616011D01*
X122977241Y-143793076D01*
X122894085Y-143948511D01*
X122847927Y-144093501D01*
X122831733Y-144239231D01*
X122831609Y-144245195D01*
X122836962Y-144371675D01*
X122868978Y-144465506D01*
X122943399Y-144562530D01*
X122994741Y-144616600D01*
X123143224Y-144742541D01*
X123303102Y-144814314D01*
X123378943Y-144833164D01*
X123557481Y-144875890D01*
X123743373Y-144927879D01*
X123798452Y-144945178D01*
X123884612Y-144975882D01*
X123949011Y-145011875D01*
X123997645Y-145066360D01*
X124036509Y-145152540D01*
X124071598Y-145283617D01*
X124108907Y-145472794D01*
X124153279Y-145726564D01*
X124217062Y-146062198D01*
X124282872Y-146326921D01*
X124356167Y-146535133D01*
X124442404Y-146701233D01*
X124547040Y-146839618D01*
X124593849Y-146889021D01*
X124727452Y-147009867D01*
X124850423Y-147083158D01*
X125001986Y-147130646D01*
X125047899Y-147140815D01*
X125192975Y-147166148D01*
X125322190Y-147172377D01*
X125468184Y-147158574D01*
X125663595Y-147123805D01*
X125666891Y-147123154D01*
X125878400Y-147070971D01*
X126098476Y-147000090D01*
X126282975Y-146924905D01*
X126299205Y-146916989D01*
X126568661Y-146782520D01*
X126799844Y-147025042D01*
X126956420Y-147174026D01*
X127083833Y-147252590D01*
X127197595Y-147263071D01*
X127313216Y-147207806D01*
X127417194Y-147118102D01*
X127570256Y-146968641D01*
X127990642Y-147200912D01*
X128362062Y-147382982D01*
X128766572Y-147541463D01*
X129171037Y-147664677D01*
X129508908Y-147735965D01*
X129702503Y-147756566D01*
X129960347Y-147770257D01*
X130261592Y-147777075D01*
X130585392Y-147777060D01*
X130910899Y-147770251D01*
X131217269Y-147756687D01*
X131483652Y-147736406D01*
X131524292Y-147732203D01*
X131749130Y-147700341D01*
X131979254Y-147655373D01*
X132177777Y-147604942D01*
X132247356Y-147582365D01*
X132531182Y-147480156D01*
X132897559Y-147842432D01*
X133074011Y-148011413D01*
X133224871Y-148138892D01*
X133377693Y-148244302D01*
X133560028Y-148347074D01*
X133744994Y-148440125D01*
X134067827Y-148585186D01*
X134380621Y-148701531D01*
X134668166Y-148784792D01*
X134915255Y-148830599D01*
X135106677Y-148834586D01*
X135114759Y-148833576D01*
X135282806Y-148771334D01*
X135456212Y-148635266D01*
X135627033Y-148435882D01*
X135787329Y-148183692D01*
X135929157Y-147889206D01*
X136023924Y-147630421D01*
X136092034Y-147355566D01*
X136145127Y-147017768D01*
X136181809Y-146638367D01*
X136200683Y-146238704D01*
X136200355Y-145840121D01*
X136179428Y-145463958D01*
X136171142Y-145378976D01*
X136144216Y-145122798D01*
X136127455Y-144932510D01*
X136122185Y-144789080D01*
X136129733Y-144673480D01*
X136151423Y-144566677D01*
X136188583Y-144449643D01*
X136242538Y-144303347D01*
X136246911Y-144291697D01*
X136312354Y-144098202D01*
X136366774Y-143902543D01*
X136400210Y-143741340D01*
X136403623Y-143715395D01*
X136428498Y-143500490D01*
X136449202Y-143356882D01*
X136470137Y-143270921D01*
X136495706Y-143228958D01*
X136530312Y-143217344D01*
X136563377Y-143220123D01*
X136614533Y-143240110D01*
X136651758Y-143294396D01*
X136683600Y-143401159D01*
X136710145Y-143532269D01*
X136744404Y-143739126D01*
X136777273Y-143974183D01*
X136797855Y-144151261D01*
X136817132Y-144316079D01*
X136837950Y-144412881D01*
X136866563Y-144458899D01*
X136909229Y-144471364D01*
X136914095Y-144471429D01*
X136989736Y-144429914D01*
X137046318Y-144305335D01*
X137083853Y-144097642D01*
X137102352Y-143806784D01*
X137104283Y-143692353D01*
X137107563Y-143254790D01*
X137405095Y-143254790D01*
X137629791Y-143245338D01*
X137910348Y-143219360D01*
X138219646Y-143180426D01*
X138530565Y-143132105D01*
X138815987Y-143077965D01*
X138913594Y-143056265D01*
X139129659Y-142987773D01*
X139263334Y-142901934D01*
X139316120Y-142797259D01*
X139293241Y-142680171D01*
X139262182Y-142621531D01*
X139223261Y-142599731D01*
X139150910Y-142611225D01*
X139041723Y-142645271D01*
X138922414Y-142669252D01*
X138738767Y-142688536D01*
X138509782Y-142702842D01*
X138254462Y-142711887D01*
X137991808Y-142715391D01*
X137740820Y-142713073D01*
X137520501Y-142704652D01*
X137349851Y-142689846D01*
X137256975Y-142671683D01*
X137193243Y-142647826D01*
X137155195Y-142614840D01*
X137136207Y-142553042D01*
X137129652Y-142442750D01*
X137128908Y-142291215D01*
X137128908Y-141952774D01*
X137497987Y-141924635D01*
X138014025Y-141853155D01*
X138555372Y-141718981D01*
X139098133Y-141529195D01*
X139594709Y-141303118D01*
X139836597Y-141168533D01*
X140000038Y-141052061D01*
X140089065Y-140949766D01*
X140107714Y-140857716D01*
X140093357Y-140816951D01*
X140053058Y-140764897D01*
X139993641Y-140743163D01*
X139900151Y-140753130D01*
X139757632Y-140796181D01*
X139573449Y-140864990D01*
X139199492Y-140993663D01*
X138769312Y-141113483D01*
X138312045Y-141217405D01*
X137856826Y-141298386D01*
X137678068Y-141323254D01*
X137419672Y-141353365D01*
X137233731Y-141366145D01*
X137108533Y-141358574D01*
X137032364Y-141327631D01*
X136993510Y-141270297D01*
X136980257Y-141183552D01*
X136979496Y-141143150D01*
X136968407Y-141061362D01*
X136937439Y-140912024D01*
X136890046Y-140709719D01*
X136829678Y-140469027D01*
X136759788Y-140204527D01*
X136740716Y-140134512D01*
X136504345Y-139370639D01*
X136225955Y-138644874D01*
X135912955Y-137975886D01*
X135801237Y-137766974D01*
X135658184Y-137508569D01*
X135755060Y-137361428D01*
X135866837Y-137149069D01*
X135942351Y-136899936D01*
X135984861Y-136599053D01*
X135997647Y-136246962D01*
X135990335Y-135947020D01*
X135967527Y-135718185D01*
X135927914Y-135547374D01*
X135927572Y-135546345D01*
X135850777Y-135373176D01*
X135728068Y-135162329D01*
X135574200Y-134936199D01*
X135403928Y-134717180D01*
X135310814Y-134610253D01*
X135155062Y-134439496D01*
X135355612Y-134091120D01*
X135519650Y-133773206D01*
X135690057Y-133381140D01*
X135863166Y-132925558D01*
X136035311Y-132417096D01*
X136202823Y-131866389D01*
X136362037Y-131284072D01*
X136462188Y-130881758D01*
X136511051Y-130681623D01*
X136553937Y-130513663D01*
X136586535Y-130394226D01*
X136604535Y-130339658D01*
X136605493Y-130338261D01*
X136646990Y-130353030D01*
G37*
G36*
X95580099Y-130353030D02*
G01*
X95677448Y-130410471D01*
X95818215Y-130502008D01*
X95989966Y-130619062D01*
X96180269Y-130753057D01*
X96376689Y-130895415D01*
X96566793Y-131037558D01*
X96687865Y-131131093D01*
X96946199Y-131347704D01*
X97237144Y-131614640D01*
X97542594Y-131913543D01*
X97844444Y-132226056D01*
X98124589Y-132533820D01*
X98364925Y-132818478D01*
X98417187Y-132884550D01*
X98962597Y-133646101D01*
X99429770Y-134430799D01*
X99821955Y-135245983D01*
X100142401Y-136098992D01*
X100394358Y-136997163D01*
X100532766Y-137662497D01*
X100562459Y-137836149D01*
X100585438Y-137997420D01*
X100602535Y-138161086D01*
X100614583Y-138341920D01*
X100622415Y-138554695D01*
X100626864Y-138814184D01*
X100628762Y-139135163D01*
X100629024Y-139370084D01*
X100626412Y-139819179D01*
X100617138Y-140201498D01*
X100599047Y-140535525D01*
X100569983Y-140839742D01*
X100527789Y-141132632D01*
X100470309Y-141432680D01*
X100395387Y-141758368D01*
X100312402Y-142084348D01*
X100040743Y-142953777D01*
X99691971Y-143792941D01*
X99270249Y-144597715D01*
X98779742Y-145363977D01*
X98224613Y-146087602D01*
X97609026Y-146764467D01*
X96937146Y-147390449D01*
X96213135Y-147961423D01*
X95441159Y-148473266D01*
X94625381Y-148921855D01*
X93769965Y-149303065D01*
X92879075Y-149612773D01*
X92641094Y-149681367D01*
X92209322Y-149794886D01*
X91816284Y-149884343D01*
X91441253Y-149952471D01*
X91063500Y-150002005D01*
X90662298Y-150035677D01*
X90216919Y-150056220D01*
X89722689Y-150066194D01*
X89400194Y-150068130D01*
X89087858Y-150066959D01*
X88801378Y-150062972D01*
X88556454Y-150056457D01*
X88368781Y-150047705D01*
X88271261Y-150039393D01*
X87301275Y-149880353D01*
X86363746Y-149647716D01*
X85461966Y-149344646D01*
X84599223Y-148974306D01*
X83778808Y-148539860D01*
X83004011Y-148044474D01*
X82278122Y-147491311D01*
X81604431Y-146883535D01*
X80986227Y-146224309D01*
X80426801Y-145516800D01*
X79929443Y-144764169D01*
X79497442Y-143969582D01*
X79134090Y-143136203D01*
X78842675Y-142267195D01*
X78626488Y-141365723D01*
X78513842Y-140655365D01*
X78484722Y-140342580D01*
X78465460Y-139969542D01*
X78456056Y-139560804D01*
X78456510Y-139140918D01*
X78466821Y-138734439D01*
X78486990Y-138365919D01*
X78513842Y-138084804D01*
X78671423Y-137157580D01*
X78910568Y-136251346D01*
X79229157Y-135371743D01*
X79625071Y-134524409D01*
X80096188Y-133714987D01*
X80235727Y-133504089D01*
X80382907Y-133291547D01*
X80493805Y-133145026D01*
X80577292Y-133058084D01*
X80642239Y-133024281D01*
X80697519Y-133037177D01*
X80752002Y-133090330D01*
X80771145Y-133115371D01*
X80888654Y-133271077D01*
X80977187Y-133369796D01*
X81056515Y-133424632D01*
X81146411Y-133448692D01*
X81266646Y-133455080D01*
X81283963Y-133455280D01*
X81424299Y-133451783D01*
X81521119Y-133427985D01*
X81610240Y-133369113D01*
X81705914Y-133281205D01*
X81866303Y-133138363D01*
X81990815Y-133057022D01*
X82093578Y-133029478D01*
X82154532Y-133036544D01*
X82225622Y-133073219D01*
X82284151Y-133150704D01*
X82336892Y-133282655D01*
X82390617Y-133482732D01*
X82403599Y-133538822D01*
X82500395Y-133865930D01*
X82629705Y-134120657D01*
X82799183Y-134312303D01*
X83016484Y-134450167D01*
X83214091Y-134523470D01*
X83366921Y-134578886D01*
X83473206Y-134653612D01*
X83571388Y-134775119D01*
X83576434Y-134782422D01*
X83675707Y-134961219D01*
X83754990Y-135168572D01*
X83805538Y-135374650D01*
X83818606Y-135549624D01*
X83813820Y-135592101D01*
X83814614Y-135802750D01*
X83879834Y-136016550D01*
X83976256Y-136170541D01*
X84061914Y-136311774D01*
X84087709Y-136478734D01*
X84087731Y-136485019D01*
X84108585Y-136702515D01*
X84165685Y-136964379D01*
X84250835Y-137242080D01*
X84355844Y-137507085D01*
X84417958Y-137634935D01*
X84574241Y-137883342D01*
X84776269Y-138133290D01*
X84863746Y-138225420D01*
X85148837Y-138510839D01*
X84991813Y-138628914D01*
X84673962Y-138884628D01*
X84406698Y-139133994D01*
X84207610Y-139359412D01*
X84115651Y-139472228D01*
X84035335Y-139542794D01*
X83947043Y-139574839D01*
X83831157Y-139572092D01*
X83668056Y-139538284D01*
X83499857Y-139493948D01*
X83138246Y-139393517D01*
X82844106Y-139305161D01*
X82601663Y-139221988D01*
X82395144Y-139137103D01*
X82208776Y-139043613D01*
X82026784Y-138934625D01*
X81833396Y-138803244D01*
X81701502Y-138707994D01*
X81547807Y-138621069D01*
X81427826Y-138606166D01*
X81347733Y-138661610D01*
X81313702Y-138785725D01*
X81312941Y-138813447D01*
X81344284Y-138878499D01*
X81429066Y-138982752D01*
X81553417Y-139112880D01*
X81703466Y-139255557D01*
X81865344Y-139397459D01*
X82025181Y-139525260D01*
X82136249Y-139604421D01*
X82249526Y-139668092D01*
X82415673Y-139747116D01*
X82616267Y-139834254D01*
X82832889Y-139922271D01*
X83047117Y-140003929D01*
X83240530Y-140071991D01*
X83394707Y-140119222D01*
X83491228Y-140138384D01*
X83495702Y-140138488D01*
X83572245Y-140157507D01*
X83593776Y-140176273D01*
X83597664Y-140239401D01*
X83574183Y-140334475D01*
X83535950Y-140425742D01*
X83495580Y-140477446D01*
X83486609Y-140480000D01*
X83433410Y-140476336D01*
X83310051Y-140466189D01*
X83131396Y-140450834D01*
X82912312Y-140431543D01*
X82733054Y-140415495D01*
X82226494Y-140363387D01*
X81802919Y-140305678D01*
X81460094Y-140241912D01*
X81195781Y-140171631D01*
X81007742Y-140094377D01*
X80934850Y-140047841D01*
X80823421Y-139999089D01*
X80731102Y-140024253D01*
X80678193Y-140114040D01*
X80672605Y-140167892D01*
X80708359Y-140273159D01*
X80803995Y-140397860D01*
X80942072Y-140525226D01*
X81105151Y-140638484D01*
X81227563Y-140701577D01*
X81545321Y-140811757D01*
X81929586Y-140897559D01*
X82364176Y-140955874D01*
X82661750Y-140977357D01*
X83220810Y-141004875D01*
X83147593Y-141241515D01*
X83086741Y-141396300D01*
X83021511Y-141491329D01*
X82994079Y-141509690D01*
X82872520Y-141535335D01*
X82684761Y-141548327D01*
X82448846Y-141549892D01*
X82182816Y-141541253D01*
X81904715Y-141523638D01*
X81632586Y-141498271D01*
X81384472Y-141466377D01*
X81178415Y-141429181D01*
X81032459Y-141387909D01*
X81002131Y-141374424D01*
X80831931Y-141304307D01*
X80710132Y-141292525D01*
X80642352Y-141338727D01*
X80629916Y-141397816D01*
X80672051Y-141533987D01*
X80797660Y-141658614D01*
X81005553Y-141771157D01*
X81294540Y-141871081D01*
X81663430Y-141957846D01*
X81995967Y-142014579D01*
X82209377Y-142040994D01*
X82442348Y-142061879D01*
X82614958Y-142071477D01*
X82913782Y-142080841D01*
X82926214Y-142360651D01*
X82938647Y-142640462D01*
X82411348Y-143196666D01*
X82215460Y-143405491D01*
X82070568Y-143566613D01*
X81967176Y-143692580D01*
X81895789Y-143795941D01*
X81846912Y-143889245D01*
X81811052Y-143985041D01*
X81808310Y-143993666D01*
X81764491Y-144177408D01*
X81755522Y-144326938D01*
X81760416Y-144361244D01*
X81817751Y-144479155D01*
X81926654Y-144608129D01*
X82061114Y-144723569D01*
X82195125Y-144800881D01*
X82240353Y-144815109D01*
X82342346Y-144840193D01*
X82492391Y-144880489D01*
X82645543Y-144923709D01*
X82761775Y-144958027D01*
X82847333Y-144992294D01*
X82909474Y-145039729D01*
X82955458Y-145113551D01*
X82992545Y-145226981D01*
X83027992Y-145393238D01*
X83069058Y-145625541D01*
X83086389Y-145726564D01*
X83150171Y-146062198D01*
X83215982Y-146326921D01*
X83289276Y-146535133D01*
X83375513Y-146701233D01*
X83480149Y-146839618D01*
X83526958Y-146889021D01*
X83659879Y-147009413D01*
X83781558Y-147082174D01*
X83930850Y-147128807D01*
X83979356Y-147139382D01*
X84238182Y-147161168D01*
X84537432Y-147134668D01*
X84850581Y-147064581D01*
X85151101Y-146955603D01*
X85231642Y-146917627D01*
X85500427Y-146783202D01*
X85736883Y-147025383D01*
X85894245Y-147172413D01*
X86020812Y-147250368D01*
X86132483Y-147261650D01*
X86245155Y-147208663D01*
X86350303Y-147118102D01*
X86503365Y-146968641D01*
X86923751Y-147200912D01*
X87295171Y-147382982D01*
X87699681Y-147541463D01*
X88104146Y-147664677D01*
X88442017Y-147735965D01*
X88640738Y-147757133D01*
X88903751Y-147770920D01*
X89210293Y-147777356D01*
X89539600Y-147776470D01*
X89870908Y-147768293D01*
X90183455Y-147752854D01*
X90428302Y-147733103D01*
X90697482Y-147697143D01*
X90952700Y-147647088D01*
X91160100Y-147589701D01*
X91178450Y-147583264D01*
X91464291Y-147480156D01*
X91830668Y-147842432D01*
X92007120Y-148011413D01*
X92157980Y-148138892D01*
X92310802Y-148244302D01*
X92493137Y-148347074D01*
X92678103Y-148440125D01*
X93000936Y-148585186D01*
X93313730Y-148701531D01*
X93601276Y-148784792D01*
X93848364Y-148830599D01*
X94039786Y-148834586D01*
X94047868Y-148833576D01*
X94215905Y-148771339D01*
X94389294Y-148635296D01*
X94560083Y-148435973D01*
X94720316Y-148183898D01*
X94862040Y-147889599D01*
X94956879Y-147630421D01*
X95023677Y-147360298D01*
X95076105Y-147027039D01*
X95112783Y-146651891D01*
X95132329Y-146256102D01*
X95133361Y-145860919D01*
X95114498Y-145487591D01*
X95103670Y-145372802D01*
X95076858Y-145117861D01*
X95060274Y-144928639D01*
X95055275Y-144785939D01*
X95063217Y-144670566D01*
X95085455Y-144563321D01*
X95123345Y-144445009D01*
X95178243Y-144296432D01*
X95180020Y-144291697D01*
X95245464Y-144098202D01*
X95299883Y-143902543D01*
X95333320Y-143741340D01*
X95336732Y-143715395D01*
X95361607Y-143500490D01*
X95382311Y-143356882D01*
X95403246Y-143270921D01*
X95428816Y-143228958D01*
X95463422Y-143217344D01*
X95496487Y-143220123D01*
X95547642Y-143240110D01*
X95584867Y-143294396D01*
X95616709Y-143401159D01*
X95643254Y-143532269D01*
X95677513Y-143739126D01*
X95710382Y-143974183D01*
X95730964Y-144151261D01*
X95750242Y-144316079D01*
X95771059Y-144412881D01*
X95799673Y-144458899D01*
X95842338Y-144471364D01*
X95847204Y-144471429D01*
X95922846Y-144429914D01*
X95979428Y-144305335D01*
X96016962Y-144097642D01*
X96035461Y-143806784D01*
X96037392Y-143692353D01*
X96040673Y-143254790D01*
X96338204Y-143254790D01*
X96562900Y-143245338D01*
X96843457Y-143219360D01*
X97152755Y-143180426D01*
X97463675Y-143132105D01*
X97749096Y-143077965D01*
X97846703Y-143056265D01*
X98062768Y-142987773D01*
X98196443Y-142901934D01*
X98249229Y-142797259D01*
X98226350Y-142680171D01*
X98194897Y-142621431D01*
X98154862Y-142599522D01*
X98080458Y-142610477D01*
X97974832Y-142641470D01*
X97816645Y-142674654D01*
X97596155Y-142700621D01*
X97336188Y-142718692D01*
X97059570Y-142728185D01*
X96789125Y-142728420D01*
X96547679Y-142718716D01*
X96358057Y-142698393D01*
X96318152Y-142690877D01*
X96062017Y-142635799D01*
X96062017Y-142294286D01*
X96062017Y-141952774D01*
X96415830Y-141923445D01*
X96994392Y-141840109D01*
X97585016Y-141688790D01*
X98160643Y-141477395D01*
X98518368Y-141309232D01*
X98761578Y-141173683D01*
X98926981Y-141057133D01*
X99018932Y-140955365D01*
X99041784Y-140864159D01*
X99026466Y-140816951D01*
X98986167Y-140764897D01*
X98926751Y-140743163D01*
X98833260Y-140753130D01*
X98690741Y-140796181D01*
X98506559Y-140864990D01*
X98132602Y-140993663D01*
X97702421Y-141113483D01*
X97245154Y-141217405D01*
X96789936Y-141298386D01*
X96611178Y-141323254D01*
X96352781Y-141353365D01*
X96166840Y-141366145D01*
X96041642Y-141358574D01*
X95965473Y-141327631D01*
X95926619Y-141270297D01*
X95913366Y-141183552D01*
X95912605Y-141143150D01*
X95899817Y-141038185D01*
X95864290Y-140867101D01*
X95810281Y-140644775D01*
X95742046Y-140386086D01*
X95663843Y-140105912D01*
X95579928Y-139819133D01*
X95494558Y-139540625D01*
X95411989Y-139285268D01*
X95336478Y-139067940D01*
X95272282Y-138903519D01*
X95270984Y-138900505D01*
X95178373Y-138692658D01*
X95062880Y-138443145D01*
X94940572Y-138186273D01*
X94847417Y-137996120D01*
X94598963Y-137497282D01*
X94692004Y-137355784D01*
X94802918Y-137142756D01*
X94877638Y-136889755D01*
X94919198Y-136582700D01*
X94930757Y-136246962D01*
X94923445Y-135947020D01*
X94900636Y-135718185D01*
X94861023Y-135547374D01*
X94860681Y-135546345D01*
X94783886Y-135373176D01*
X94661177Y-135162329D01*
X94507309Y-134936199D01*
X94337037Y-134717180D01*
X94243923Y-134610253D01*
X94088171Y-134439496D01*
X94288722Y-134091120D01*
X94452759Y-133773206D01*
X94623166Y-133381140D01*
X94796275Y-132925558D01*
X94968420Y-132417096D01*
X95135933Y-131866389D01*
X95295147Y-131284072D01*
X95395297Y-130881758D01*
X95444161Y-130681623D01*
X95487046Y-130513663D01*
X95519644Y-130394226D01*
X95537644Y-130339658D01*
X95538602Y-130338261D01*
X95580099Y-130353030D01*
G37*
D10*
X76000000Y-83000000D03*
D11*
X76868731Y-85386819D03*
D12*
X73200000Y-114100000D03*
X73200000Y-105900000D03*
D13*
X106000000Y-100000000D03*
X98380000Y-100000000D03*
D12*
X105800000Y-114100000D03*
D14*
X144000000Y-83000000D03*
D11*
X143131269Y-85386819D03*
D15*
X92000000Y-122480000D03*
D16*
X92000000Y-119940000D03*
D17*
X89460000Y-122480000D03*
X89460000Y-119940000D03*
D16*
X86920000Y-122480000D03*
X86920000Y-119940000D03*
D13*
X80610000Y-123250000D03*
X72990000Y-123250000D03*
D12*
X146900000Y-114100000D03*
D15*
X128060000Y-97520000D03*
D16*
X128060000Y-100060000D03*
D17*
X130600000Y-97520000D03*
X130600000Y-100060000D03*
D16*
X133140000Y-97520000D03*
X133140000Y-100060000D03*
D18*
X75770000Y-109250000D03*
X75770000Y-110750000D03*
X76520000Y-109250000D03*
X76520000Y-110750000D03*
X77270000Y-109250000D03*
X77270000Y-110750000D03*
X101670000Y-109250000D03*
X101670000Y-110750000D03*
X102420000Y-109250000D03*
X102420000Y-110750000D03*
X103170000Y-109250000D03*
X103170000Y-110750000D03*
X109260000Y-101980000D03*
X109260000Y-102730000D03*
X109260000Y-103480000D03*
X109310000Y-116520000D03*
X109310000Y-117270000D03*
X109310000Y-118020000D03*
X110760000Y-101980000D03*
X110760000Y-102730000D03*
X110760000Y-103480000D03*
X110810000Y-116520000D03*
X110810000Y-117270000D03*
X110810000Y-118020000D03*
X116850000Y-109250000D03*
X116850000Y-110750000D03*
X117600000Y-109250000D03*
X117600000Y-110750000D03*
X118350000Y-109250000D03*
X118350000Y-110750000D03*
X142750000Y-109250000D03*
X142750000Y-110750000D03*
X143500000Y-109250000D03*
X143500000Y-110750000D03*
X144250000Y-109250000D03*
X144250000Y-110750000D03*
D13*
X106000000Y-120000000D03*
X98380000Y-120000000D03*
X147000000Y-100000000D03*
X139380000Y-100000000D03*
X139370000Y-96790000D03*
X146990000Y-96790000D03*
D14*
X103000000Y-83000000D03*
D11*
X102131269Y-85386819D03*
D13*
X121650000Y-123250000D03*
X114030000Y-123250000D03*
D15*
X86990000Y-97520000D03*
D16*
X86990000Y-100060000D03*
D17*
X89530000Y-97520000D03*
X89530000Y-100060000D03*
D16*
X92070000Y-97520000D03*
X92070000Y-100060000D03*
D12*
X146900000Y-105900000D03*
D10*
X117000000Y-83000000D03*
D11*
X117868731Y-85386819D03*
D19*
X117100000Y-137000000D03*
D11*
X117968731Y-134613181D03*
D13*
X114000000Y-100000000D03*
X121620000Y-100000000D03*
D12*
X114300000Y-105900000D03*
D20*
X103100000Y-137000000D03*
D11*
X102231269Y-134613181D03*
D20*
X144100000Y-137000000D03*
D11*
X143231269Y-134613181D03*
D13*
X114000000Y-120000000D03*
X121620000Y-120000000D03*
D15*
X133080000Y-122480000D03*
D16*
X133080000Y-119940000D03*
D17*
X130540000Y-122480000D03*
X130540000Y-119940000D03*
D16*
X128000000Y-122480000D03*
X128000000Y-119940000D03*
D13*
X147000000Y-120000000D03*
X139380000Y-120000000D03*
D19*
X76100000Y-137000000D03*
D11*
X76968731Y-134613181D03*
D12*
X114300000Y-114100000D03*
D13*
X98375000Y-96790000D03*
X105995000Y-96790000D03*
D12*
X105800000Y-105900000D03*
D13*
X73000000Y-120000000D03*
X80620000Y-120000000D03*
X73000000Y-100000000D03*
X80620000Y-100000000D03*
M02*
