M48
INCH,TZ
T1C0.0276
T2C0.0354
T3C0.0400
%
G90
G05
T1
X28736Y-48524
X28740Y-39370
X28740Y-47244
X31736Y-48524
X31740Y-39370
X31740Y-47244
X38730Y-38106
X38732Y-39370
X38732Y-47244
X41730Y-38106
X41732Y-39370
X41732Y-47244
X44882Y-39370
X44882Y-47244
X44894Y-48524
X47882Y-39370
X47882Y-47244
X47894Y-48524
X54870Y-38106
X54874Y-39370
X54874Y-47244
X57870Y-38106
X57874Y-39370
X57874Y-47244
T2
X29921Y-32677
X29961Y-53937
X30263Y-33617
X30303Y-52997
X40209Y-33617
X40249Y-52997
X40551Y-32677
X40591Y-53937
X46063Y-32677
X46102Y-53937
X46405Y-33617
X46444Y-52997
X56351Y-33617
X56390Y-52997
X56693Y-32677
X56732Y-53937
T3
X34220Y-47220
X34220Y-48220
X34248Y-38394
X34248Y-39394
X35220Y-47220
X35220Y-48220
X35248Y-38394
X35248Y-39394
X36220Y-47220
X36220Y-48220
X36248Y-38394
X36248Y-39394
X50394Y-47220
X50394Y-48220
X50417Y-38394
X50417Y-39394
X51394Y-47220
X51394Y-48220
X51417Y-38394
X51417Y-39394
X52394Y-47220
X52394Y-48220
X52417Y-38394
X52417Y-39394
M30
