G04 #@! TF.GenerationSoftware,KiCad,Pcbnew,7.0.10*
G04 #@! TF.CreationDate,2024-07-07T16:54:10-05:00*
G04 #@! TF.ProjectId,g0dzilla_vs_sao2,6730647a-696c-46c6-915f-76735f73616f,1*
G04 #@! TF.SameCoordinates,Original*
G04 #@! TF.FileFunction,Copper,L2,Bot*
G04 #@! TF.FilePolarity,Positive*
%FSLAX46Y46*%
G04 Gerber Fmt 4.6, Leading zero omitted, Abs format (unit mm)*
G04 Created by KiCad (PCBNEW 7.0.10) date 2024-07-07 16:54:10*
%MOMM*%
%LPD*%
G01*
G04 APERTURE LIST*
G04 Aperture macros list*
%AMRotRect*
0 Rectangle, with rotation*
0 The origin of the aperture is its center*
0 $1 length*
0 $2 width*
0 $3 Rotation angle, in degrees counterclockwise*
0 Add horizontal line*
21,1,$1,$2,0,0,$3*%
G04 Aperture macros list end*
G04 #@! TA.AperFunction,ComponentPad*
%ADD10RotRect,1.800000X1.800000X290.000000*%
G04 #@! TD*
G04 #@! TA.AperFunction,ComponentPad*
%ADD11C,1.800000*%
G04 #@! TD*
G04 #@! TA.AperFunction,ComponentPad*
%ADD12C,1.400000*%
G04 #@! TD*
G04 #@! TA.AperFunction,ComponentPad*
%ADD13RotRect,1.800000X1.800000X250.000000*%
G04 #@! TD*
G04 #@! TA.AperFunction,ComponentPad*
%ADD14R,1.727200X1.727200*%
G04 #@! TD*
G04 #@! TA.AperFunction,ComponentPad*
%ADD15C,1.727200*%
G04 #@! TD*
G04 #@! TA.AperFunction,ComponentPad*
%ADD16O,1.727200X1.727200*%
G04 #@! TD*
G04 #@! TA.AperFunction,ComponentPad*
%ADD17RotRect,1.800000X1.800000X70.000000*%
G04 #@! TD*
G04 #@! TA.AperFunction,ComponentPad*
%ADD18RotRect,1.800000X1.800000X110.000000*%
G04 #@! TD*
G04 #@! TA.AperFunction,Conductor*
%ADD19C,0.300000*%
G04 #@! TD*
G04 #@! TA.AperFunction,Conductor*
%ADD20C,0.400000*%
G04 #@! TD*
G04 APERTURE END LIST*
D10*
X76000000Y-83000000D03*
D11*
X76868731Y-85386819D03*
D12*
X106000000Y-100000000D03*
X98380000Y-100000000D03*
D13*
X144000000Y-83000000D03*
D11*
X143131269Y-85386819D03*
D14*
X92000000Y-122480000D03*
D15*
X92000000Y-119940000D03*
D16*
X89460000Y-122480000D03*
X89460000Y-119940000D03*
D15*
X86920000Y-122480000D03*
X86920000Y-119940000D03*
D12*
X80610000Y-123250000D03*
X72990000Y-123250000D03*
D14*
X128060000Y-97520000D03*
D15*
X128060000Y-100060000D03*
D16*
X130600000Y-97520000D03*
X130600000Y-100060000D03*
D15*
X133140000Y-97520000D03*
X133140000Y-100060000D03*
D12*
X106000000Y-120000000D03*
X98380000Y-120000000D03*
X147000000Y-100000000D03*
X139380000Y-100000000D03*
X139370000Y-96790000D03*
X146990000Y-96790000D03*
D13*
X103000000Y-83000000D03*
D11*
X102131269Y-85386819D03*
D12*
X121650000Y-123250000D03*
X114030000Y-123250000D03*
D14*
X86990000Y-97520000D03*
D15*
X86990000Y-100060000D03*
D16*
X89530000Y-97520000D03*
X89530000Y-100060000D03*
D15*
X92070000Y-97520000D03*
X92070000Y-100060000D03*
D10*
X117000000Y-83000000D03*
D11*
X117868731Y-85386819D03*
D17*
X117100000Y-137000000D03*
D11*
X117968731Y-134613181D03*
D12*
X114000000Y-100000000D03*
X121620000Y-100000000D03*
D18*
X103100000Y-137000000D03*
D11*
X102231269Y-134613181D03*
D18*
X144100000Y-137000000D03*
D11*
X143231269Y-134613181D03*
D12*
X114000000Y-120000000D03*
X121620000Y-120000000D03*
D14*
X133080000Y-122480000D03*
D15*
X133080000Y-119940000D03*
D16*
X130540000Y-122480000D03*
X130540000Y-119940000D03*
D15*
X128000000Y-122480000D03*
X128000000Y-119940000D03*
D12*
X147000000Y-120000000D03*
X139380000Y-120000000D03*
D17*
X76100000Y-137000000D03*
D11*
X76968731Y-134613181D03*
D12*
X98375000Y-96790000D03*
X105995000Y-96790000D03*
X73000000Y-120000000D03*
X80620000Y-120000000D03*
X73000000Y-100000000D03*
X80620000Y-100000000D03*
D19*
X71670000Y-121445000D02*
X73045000Y-120070000D01*
X73625000Y-134650000D02*
X73625000Y-128200000D01*
X104525000Y-135590000D02*
X104525000Y-121590000D01*
X88385000Y-126220000D02*
X92055000Y-122550000D01*
X76045000Y-137070000D02*
X73625000Y-134650000D01*
X75990000Y-126220000D02*
X73050000Y-123280000D01*
X81025000Y-126220000D02*
X88385000Y-126220000D01*
X76913731Y-134683181D02*
X76913731Y-130331269D01*
X76913731Y-130331269D02*
X81025000Y-126220000D01*
X102176269Y-132671269D02*
X92055000Y-122550000D01*
X104525000Y-121590000D02*
X106045000Y-120070000D01*
X73625000Y-128200000D02*
X71670000Y-126245000D01*
X71670000Y-126245000D02*
X71670000Y-121445000D01*
X103045000Y-137070000D02*
X104525000Y-135590000D01*
X81025000Y-126220000D02*
X75990000Y-126220000D01*
X102176269Y-134683181D02*
X102176269Y-132671269D01*
X145545000Y-135590000D02*
X145545000Y-121590000D01*
X144065000Y-137070000D02*
X145545000Y-135590000D01*
X112690000Y-126245000D02*
X112690000Y-121445000D01*
X112690000Y-121445000D02*
X114065000Y-120070000D01*
X114645000Y-134650000D02*
X114645000Y-128200000D01*
X114645000Y-128200000D02*
X112690000Y-126245000D01*
X129405000Y-126220000D02*
X133075000Y-122550000D01*
X117065000Y-137070000D02*
X114645000Y-134650000D01*
X122045000Y-126220000D02*
X117010000Y-126220000D01*
X117010000Y-126220000D02*
X114070000Y-123280000D01*
X117933731Y-134683181D02*
X117933731Y-130331269D01*
X117933731Y-130331269D02*
X122045000Y-126220000D01*
X143196269Y-132671269D02*
X133075000Y-122550000D01*
X145545000Y-121590000D02*
X147065000Y-120070000D01*
X122045000Y-126220000D02*
X129405000Y-126220000D01*
X143196269Y-134683181D02*
X143196269Y-132671269D01*
X115500000Y-98475000D02*
X113980000Y-99995000D01*
X115500000Y-84475000D02*
X115500000Y-98475000D01*
X116980000Y-82995000D02*
X115500000Y-84475000D01*
X148355000Y-93820000D02*
X148355000Y-98620000D01*
X148355000Y-98620000D02*
X146980000Y-99995000D01*
X146400000Y-85415000D02*
X146400000Y-91865000D01*
X146400000Y-91865000D02*
X148355000Y-93820000D01*
X143980000Y-82995000D02*
X146400000Y-85415000D01*
X139000000Y-93845000D02*
X144035000Y-93845000D01*
X144035000Y-93845000D02*
X146975000Y-96785000D01*
X139000000Y-93845000D02*
X131640000Y-93845000D01*
X131640000Y-93845000D02*
X127970000Y-97515000D01*
X143111269Y-89733731D02*
X139000000Y-93845000D01*
X143111269Y-85381819D02*
X143111269Y-89733731D01*
X117848731Y-87393731D02*
X127970000Y-97515000D01*
X117848731Y-85381819D02*
X117848731Y-87393731D01*
X74520000Y-98480000D02*
X73000000Y-100000000D01*
X76000000Y-83000000D02*
X74520000Y-84480000D01*
X74520000Y-84480000D02*
X74520000Y-98480000D01*
D20*
X87010000Y-100090000D02*
X80630000Y-100090000D01*
D19*
X107375000Y-93825000D02*
X107375000Y-98625000D01*
X107375000Y-98625000D02*
X106000000Y-100000000D01*
X105420000Y-91870000D02*
X107375000Y-93825000D01*
X103000000Y-83000000D02*
X105420000Y-85420000D01*
X105420000Y-85420000D02*
X105420000Y-91870000D01*
X98020000Y-93850000D02*
X103055000Y-93850000D01*
X103055000Y-93850000D02*
X105995000Y-96790000D01*
X98020000Y-93850000D02*
X90660000Y-93850000D01*
X102131269Y-89738731D02*
X98020000Y-93850000D01*
X90660000Y-93850000D02*
X86990000Y-97520000D01*
X102131269Y-85386819D02*
X102131269Y-89738731D01*
X76868731Y-87398731D02*
X86990000Y-97520000D01*
X76868731Y-85386819D02*
X76868731Y-87398731D01*
D20*
X86990000Y-100060000D02*
X86990000Y-101465000D01*
X96230000Y-102150000D02*
X98380000Y-100000000D01*
X86990000Y-101465000D02*
X87675000Y-102150000D01*
X87675000Y-102150000D02*
X96230000Y-102150000D01*
X86930000Y-100000000D02*
X86990000Y-100060000D01*
D19*
X92070000Y-100060000D02*
X95340000Y-96790000D01*
X95340000Y-96790000D02*
X98375000Y-96790000D01*
D20*
X121680000Y-100060000D02*
X121620000Y-100000000D01*
X128060000Y-100060000D02*
X128060000Y-101290000D01*
X128060000Y-100060000D02*
X121680000Y-100060000D01*
X128060000Y-101290000D02*
X128990000Y-102220000D01*
X128990000Y-102220000D02*
X137160000Y-102220000D01*
X137160000Y-102220000D02*
X139380000Y-100000000D01*
D19*
X133140000Y-100060000D02*
X136410000Y-96790000D01*
X136410000Y-96790000D02*
X139370000Y-96790000D01*
D20*
X98320000Y-119940000D02*
X98380000Y-120000000D01*
X90975000Y-117600000D02*
X83020000Y-117600000D01*
X92000000Y-118625000D02*
X90975000Y-117600000D01*
X92000000Y-119940000D02*
X92000000Y-118625000D01*
X83020000Y-117600000D02*
X80620000Y-120000000D01*
X92000000Y-119940000D02*
X98320000Y-119940000D01*
D19*
X83610000Y-123250000D02*
X80610000Y-123250000D01*
X86920000Y-119940000D02*
X83610000Y-123250000D01*
D20*
X123695000Y-117925000D02*
X121620000Y-120000000D01*
X132175000Y-117925000D02*
X123695000Y-117925000D01*
X139380000Y-120000000D02*
X133140000Y-120000000D01*
X133080000Y-119940000D02*
X133080000Y-118830000D01*
X133140000Y-120000000D02*
X133080000Y-119940000D01*
X133080000Y-118830000D02*
X132175000Y-117925000D01*
D19*
X124690000Y-123250000D02*
X121650000Y-123250000D01*
X128000000Y-119940000D02*
X124690000Y-123250000D01*
M02*
