G04 #@! TF.GenerationSoftware,KiCad,Pcbnew,7.0.10*
G04 #@! TF.CreationDate,2024-07-07T16:54:11-05:00*
G04 #@! TF.ProjectId,g0dzilla_vs_sao2,6730647a-696c-46c6-915f-76735f73616f,1*
G04 #@! TF.SameCoordinates,Original*
G04 #@! TF.FileFunction,Soldermask,Bot*
G04 #@! TF.FilePolarity,Negative*
%FSLAX46Y46*%
G04 Gerber Fmt 4.6, Leading zero omitted, Abs format (unit mm)*
G04 Created by KiCad (PCBNEW 7.0.10) date 2024-07-07 16:54:11*
%MOMM*%
%LPD*%
G01*
G04 APERTURE LIST*
G04 Aperture macros list*
%AMRotRect*
0 Rectangle, with rotation*
0 The origin of the aperture is its center*
0 $1 length*
0 $2 width*
0 $3 Rotation angle, in degrees counterclockwise*
0 Add horizontal line*
21,1,$1,$2,0,0,$3*%
G04 Aperture macros list end*
%ADD10RotRect,1.800000X1.800000X290.000000*%
%ADD11C,1.800000*%
%ADD12C,2.000000*%
%ADD13C,1.400000*%
%ADD14RotRect,1.800000X1.800000X250.000000*%
%ADD15R,1.727200X1.727200*%
%ADD16C,1.727200*%
%ADD17O,1.727200X1.727200*%
%ADD18C,0.500000*%
%ADD19RotRect,1.800000X1.800000X70.000000*%
%ADD20RotRect,1.800000X1.800000X110.000000*%
G04 APERTURE END LIST*
G36*
X130976924Y-128667798D02*
G01*
X131720823Y-128708307D01*
X132414568Y-128788467D01*
X133085971Y-128913132D01*
X133762845Y-129087155D01*
X134247395Y-129238472D01*
X135137170Y-129577356D01*
X135987661Y-129987423D01*
X136794962Y-130464548D01*
X137555165Y-131004611D01*
X138264363Y-131603487D01*
X138918650Y-132257054D01*
X139514116Y-132961189D01*
X140046856Y-133711769D01*
X140512962Y-134504672D01*
X140908527Y-135335776D01*
X141229643Y-136200956D01*
X141397404Y-136782800D01*
X141490063Y-137160554D01*
X141562153Y-137497949D01*
X141616031Y-137815364D01*
X141654054Y-138133181D01*
X141678578Y-138471779D01*
X141691962Y-138851538D01*
X141696561Y-139292837D01*
X141696639Y-139370084D01*
X141693220Y-139823055D01*
X141681392Y-140211243D01*
X141658798Y-140555027D01*
X141623081Y-140874787D01*
X141571884Y-141190903D01*
X141502850Y-141523755D01*
X141413621Y-141893724D01*
X141397404Y-141957369D01*
X141131253Y-142828157D01*
X140785488Y-143680418D01*
X140365651Y-144501758D01*
X139976930Y-145133110D01*
X139402001Y-145920572D01*
X138769481Y-146645734D01*
X138081659Y-147307162D01*
X137340820Y-147903416D01*
X136549252Y-148433061D01*
X135709242Y-148894660D01*
X134823077Y-149286776D01*
X133893043Y-149607972D01*
X132921427Y-149856811D01*
X132262353Y-149980090D01*
X132099494Y-149999472D01*
X131868967Y-150017623D01*
X131587697Y-150034044D01*
X131272607Y-150048235D01*
X130940619Y-150059696D01*
X130608657Y-150067930D01*
X130293645Y-150072435D01*
X130012505Y-150072713D01*
X129782160Y-150068264D01*
X129619535Y-150058590D01*
X129615631Y-150058188D01*
X128605121Y-149912126D01*
X127629958Y-149690289D01*
X126692334Y-149393668D01*
X125794443Y-149023253D01*
X124938476Y-148580036D01*
X124126627Y-148065007D01*
X123361088Y-147479156D01*
X122805381Y-146981199D01*
X122135197Y-146281847D01*
X121538179Y-145538617D01*
X121014857Y-144752502D01*
X120565759Y-143924493D01*
X120191415Y-143055583D01*
X119892352Y-142146762D01*
X119669102Y-141199022D01*
X119641403Y-141049179D01*
X119599194Y-140744281D01*
X119567441Y-140374781D01*
X119546291Y-139960829D01*
X119535893Y-139522576D01*
X119536394Y-139080173D01*
X119547941Y-138653771D01*
X119570683Y-138263522D01*
X119604767Y-137929575D01*
X119617876Y-137839262D01*
X119808186Y-136904396D01*
X120077675Y-135996812D01*
X120424448Y-135121393D01*
X120846610Y-134283020D01*
X121260717Y-133607059D01*
X121833916Y-132822777D01*
X122466741Y-132098344D01*
X123155821Y-131435985D01*
X123897783Y-130837925D01*
X124689258Y-130306387D01*
X125526873Y-129843595D01*
X126407256Y-129451775D01*
X127327037Y-129133150D01*
X128282843Y-128889944D01*
X128467698Y-128852550D01*
X129004616Y-128761250D01*
X129529626Y-128700260D01*
X130069455Y-128667611D01*
X130650833Y-128661335D01*
X130976924Y-128667798D01*
G37*
G36*
X131149393Y-69768772D02*
G01*
X131528586Y-69783361D01*
X131863222Y-69805602D01*
X132134791Y-69835494D01*
X132176975Y-69841917D01*
X133170281Y-70038302D01*
X134111081Y-70300001D01*
X135004092Y-70628964D01*
X135854031Y-71027140D01*
X136665614Y-71496481D01*
X137385710Y-71995247D01*
X138118397Y-72596473D01*
X138792827Y-73255051D01*
X139405367Y-73965603D01*
X139952383Y-74722750D01*
X140430245Y-75521114D01*
X140835319Y-76355317D01*
X141163973Y-77219980D01*
X141354715Y-77871876D01*
X141444955Y-78238704D01*
X141515637Y-78565877D01*
X141568948Y-78872712D01*
X141607076Y-79178527D01*
X141632210Y-79502639D01*
X141646536Y-79864365D01*
X141652242Y-80283023D01*
X141652573Y-80501849D01*
X141651190Y-80858669D01*
X141647390Y-81146324D01*
X141640193Y-81381014D01*
X141628619Y-81578940D01*
X141611687Y-81756303D01*
X141588418Y-81929304D01*
X141557830Y-82114143D01*
X141553556Y-82138255D01*
X141342064Y-83091832D01*
X141054640Y-84006773D01*
X140691851Y-84882011D01*
X140254264Y-85716483D01*
X139742447Y-86509125D01*
X139156969Y-87258871D01*
X138498395Y-87964658D01*
X138391138Y-88068779D01*
X137660403Y-88710849D01*
X136883021Y-89281521D01*
X136059643Y-89780480D01*
X135190916Y-90207412D01*
X134277490Y-90562000D01*
X133320015Y-90843928D01*
X132319139Y-91052881D01*
X132219664Y-91069272D01*
X131987492Y-91097788D01*
X131688590Y-91121133D01*
X131341468Y-91139034D01*
X130964634Y-91151217D01*
X130576597Y-91157407D01*
X130195865Y-91157331D01*
X129840947Y-91150716D01*
X129530351Y-91137287D01*
X129282586Y-91116771D01*
X129252773Y-91113166D01*
X128262269Y-90946171D01*
X127303651Y-90702267D01*
X126380144Y-90382966D01*
X125494972Y-89989778D01*
X124651362Y-89524216D01*
X123852538Y-88987792D01*
X123101724Y-88382016D01*
X122764292Y-88071808D01*
X122093634Y-87372062D01*
X121496303Y-86628692D01*
X120972789Y-85842614D01*
X120523583Y-85014745D01*
X120149171Y-84146004D01*
X119850045Y-83237307D01*
X119626694Y-82289570D01*
X119598714Y-82138255D01*
X119556309Y-81831950D01*
X119524472Y-81461072D01*
X119503346Y-81045789D01*
X119493075Y-80606267D01*
X119493801Y-80162673D01*
X119505669Y-79735173D01*
X119528822Y-79343936D01*
X119563403Y-79009127D01*
X119575841Y-78923875D01*
X119764983Y-77995875D01*
X120033619Y-77091686D01*
X120379150Y-76218001D01*
X120798975Y-75381511D01*
X121218028Y-74696135D01*
X121789068Y-73913009D01*
X122416378Y-73193400D01*
X123103054Y-72534028D01*
X123766560Y-71995247D01*
X124546887Y-71458398D01*
X125361210Y-70994516D01*
X126214246Y-70601650D01*
X127110712Y-70277850D01*
X128055324Y-70021166D01*
X128975294Y-69841917D01*
X129233050Y-69810597D01*
X129557326Y-69786930D01*
X129929612Y-69770913D01*
X130331394Y-69762548D01*
X130744158Y-69761835D01*
X131149393Y-69768772D01*
G37*
G36*
X90123360Y-128680463D02*
G01*
X90502482Y-128694911D01*
X90837153Y-128716952D01*
X91108876Y-128746585D01*
X91152773Y-128753220D01*
X92145923Y-128949002D01*
X93087209Y-129210692D01*
X93981317Y-129540232D01*
X94832936Y-129939564D01*
X95646752Y-130410632D01*
X96381440Y-130920567D01*
X97110104Y-131520667D01*
X97781389Y-132178868D01*
X98391487Y-132889519D01*
X98936589Y-133646965D01*
X99412888Y-134445554D01*
X99816575Y-135279633D01*
X100143842Y-136143548D01*
X100330513Y-136782800D01*
X100420753Y-137149628D01*
X100491435Y-137476801D01*
X100544746Y-137783637D01*
X100582875Y-138089451D01*
X100608008Y-138413563D01*
X100622334Y-138775289D01*
X100628041Y-139193947D01*
X100628371Y-139412774D01*
X100624051Y-139876150D01*
X100610628Y-140274914D01*
X100585509Y-140629583D01*
X100546095Y-140960675D01*
X100489791Y-141288707D01*
X100414001Y-141634198D01*
X100316128Y-142017664D01*
X100283559Y-142137751D01*
X99999309Y-143015747D01*
X99638362Y-143861576D01*
X99204638Y-144671180D01*
X98702059Y-145440503D01*
X98134545Y-146165490D01*
X97506016Y-146842084D01*
X96820392Y-147466229D01*
X96081595Y-148033868D01*
X95293545Y-148540947D01*
X94460162Y-148983409D01*
X93585366Y-149357197D01*
X93159160Y-149508620D01*
X92428961Y-149723166D01*
X91645782Y-149900076D01*
X91195462Y-149980090D01*
X91032603Y-149999472D01*
X90802077Y-150017623D01*
X90520807Y-150034044D01*
X90205716Y-150048235D01*
X89873728Y-150059696D01*
X89541766Y-150067930D01*
X89226754Y-150072435D01*
X88945614Y-150072713D01*
X88715270Y-150068264D01*
X88552644Y-150058590D01*
X88548740Y-150058188D01*
X87538230Y-149912126D01*
X86563067Y-149690289D01*
X85625443Y-149393668D01*
X84727552Y-149023253D01*
X83871585Y-148580036D01*
X83059736Y-148065007D01*
X82294198Y-147479156D01*
X81738491Y-146981199D01*
X81068306Y-146281847D01*
X80471288Y-145538617D01*
X79947966Y-144752502D01*
X79498868Y-143924493D01*
X79124524Y-143055583D01*
X78825462Y-142146762D01*
X78602211Y-141199022D01*
X78574512Y-141049179D01*
X78532108Y-140742874D01*
X78500271Y-140371996D01*
X78479145Y-139956713D01*
X78468873Y-139517191D01*
X78469599Y-139073597D01*
X78481467Y-138646098D01*
X78504620Y-138254860D01*
X78539201Y-137920051D01*
X78551640Y-137834800D01*
X78726665Y-136955503D01*
X78969568Y-136112009D01*
X79286536Y-135284772D01*
X79518304Y-134781009D01*
X79959639Y-133973429D01*
X80475095Y-133202208D01*
X81058931Y-132473518D01*
X81705404Y-131793528D01*
X82408772Y-131168410D01*
X83163294Y-130604336D01*
X83755298Y-130227420D01*
X84558460Y-129794730D01*
X85392212Y-129430756D01*
X86265215Y-129132453D01*
X87186129Y-128896780D01*
X87951093Y-128753220D01*
X88208446Y-128722112D01*
X88532341Y-128698597D01*
X88904278Y-128682675D01*
X89305760Y-128674345D01*
X89718287Y-128673608D01*
X90123360Y-128680463D01*
G37*
G36*
X90123360Y-69812228D02*
G01*
X90502482Y-69826676D01*
X90837153Y-69848716D01*
X91108876Y-69878350D01*
X91152773Y-69884984D01*
X92165057Y-70086357D01*
X93130063Y-70358731D01*
X94048282Y-70702345D01*
X94920202Y-71117435D01*
X95746315Y-71604239D01*
X96527109Y-72162992D01*
X97263075Y-72793934D01*
X97366936Y-72892230D01*
X98036702Y-73591156D01*
X98633272Y-74333932D01*
X99156205Y-75119736D01*
X99605064Y-75947744D01*
X99979409Y-76817131D01*
X100278800Y-77727076D01*
X100502798Y-78676753D01*
X100529899Y-78822755D01*
X100560774Y-79004243D01*
X100584518Y-79171322D01*
X100602034Y-79339476D01*
X100614229Y-79524192D01*
X100622009Y-79740955D01*
X100626278Y-80005251D01*
X100627943Y-80332565D01*
X100628084Y-80501849D01*
X100627284Y-80862051D01*
X100624281Y-81152371D01*
X100618169Y-81388293D01*
X100608043Y-81585304D01*
X100592997Y-81758889D01*
X100572126Y-81924534D01*
X100544523Y-82097724D01*
X100529899Y-82180944D01*
X100317261Y-83136517D01*
X100029165Y-84052480D01*
X99666048Y-84928011D01*
X99228352Y-85762286D01*
X98716515Y-86554481D01*
X98130976Y-87303772D01*
X97472175Y-88009335D01*
X97366936Y-88111468D01*
X96636260Y-88753462D01*
X95858845Y-89324136D01*
X95035421Y-89823133D01*
X94166719Y-90250100D01*
X93253469Y-90604682D01*
X92296401Y-90886522D01*
X91296245Y-91095267D01*
X91195462Y-91111855D01*
X91032603Y-91131237D01*
X90802077Y-91149388D01*
X90520807Y-91165809D01*
X90205716Y-91179999D01*
X89873728Y-91191461D01*
X89541766Y-91199694D01*
X89226754Y-91204200D01*
X88945614Y-91204478D01*
X88715270Y-91200029D01*
X88552644Y-91190355D01*
X88548740Y-91189952D01*
X87538230Y-91043890D01*
X86563067Y-90822053D01*
X85625443Y-90525432D01*
X84727552Y-90155018D01*
X83871585Y-89711801D01*
X83059736Y-89196771D01*
X82294198Y-88610921D01*
X81738491Y-88112964D01*
X81068266Y-87413659D01*
X80471394Y-86670750D01*
X79948276Y-85884988D01*
X79499312Y-85057124D01*
X79124903Y-84187909D01*
X78825450Y-83278093D01*
X78601352Y-82328427D01*
X78573967Y-82180944D01*
X78543092Y-81999455D01*
X78519349Y-81832376D01*
X78501832Y-81664222D01*
X78489637Y-81479506D01*
X78481857Y-81262743D01*
X78477588Y-80998448D01*
X78475923Y-80671134D01*
X78475782Y-80501849D01*
X78479054Y-80041650D01*
X78490488Y-79647140D01*
X78512511Y-79298822D01*
X78547550Y-78977199D01*
X78598031Y-78662776D01*
X78666382Y-78336055D01*
X78755031Y-77977540D01*
X78820307Y-77734183D01*
X79104557Y-76856186D01*
X79465505Y-76010358D01*
X79899228Y-75200754D01*
X80401807Y-74431431D01*
X80969321Y-73706444D01*
X81597851Y-73029850D01*
X82283474Y-72405705D01*
X83022271Y-71838065D01*
X83810321Y-71330986D01*
X84643704Y-70888525D01*
X85518500Y-70514737D01*
X85944706Y-70363314D01*
X86760019Y-70126940D01*
X87644814Y-69937187D01*
X87951093Y-69884984D01*
X88208446Y-69853877D01*
X88532341Y-69830362D01*
X88904278Y-69814440D01*
X89305760Y-69806110D01*
X89718287Y-69805373D01*
X90123360Y-69812228D01*
G37*
D10*
X76000000Y-83000000D03*
D11*
X76868731Y-85386819D03*
D12*
X73200000Y-114100000D03*
X73200000Y-105900000D03*
D13*
X106000000Y-100000000D03*
X98380000Y-100000000D03*
D12*
X105800000Y-114100000D03*
D14*
X144000000Y-83000000D03*
D11*
X143131269Y-85386819D03*
D15*
X92000000Y-122480000D03*
D16*
X92000000Y-119940000D03*
D17*
X89460000Y-122480000D03*
X89460000Y-119940000D03*
D16*
X86920000Y-122480000D03*
X86920000Y-119940000D03*
D13*
X80610000Y-123250000D03*
X72990000Y-123250000D03*
D12*
X146900000Y-114100000D03*
D15*
X128060000Y-97520000D03*
D16*
X128060000Y-100060000D03*
D17*
X130600000Y-97520000D03*
X130600000Y-100060000D03*
D16*
X133140000Y-97520000D03*
X133140000Y-100060000D03*
D18*
X75770000Y-109250000D03*
X75770000Y-110750000D03*
X76520000Y-109250000D03*
X76520000Y-110750000D03*
X77270000Y-109250000D03*
X77270000Y-110750000D03*
X101670000Y-109250000D03*
X101670000Y-110750000D03*
X102420000Y-109250000D03*
X102420000Y-110750000D03*
X103170000Y-109250000D03*
X103170000Y-110750000D03*
X109260000Y-101980000D03*
X109260000Y-102730000D03*
X109260000Y-103480000D03*
X109310000Y-116520000D03*
X109310000Y-117270000D03*
X109310000Y-118020000D03*
X110760000Y-101980000D03*
X110760000Y-102730000D03*
X110760000Y-103480000D03*
X110810000Y-116520000D03*
X110810000Y-117270000D03*
X110810000Y-118020000D03*
X116850000Y-109250000D03*
X116850000Y-110750000D03*
X117600000Y-109250000D03*
X117600000Y-110750000D03*
X118350000Y-109250000D03*
X118350000Y-110750000D03*
X142750000Y-109250000D03*
X142750000Y-110750000D03*
X143500000Y-109250000D03*
X143500000Y-110750000D03*
X144250000Y-109250000D03*
X144250000Y-110750000D03*
D13*
X106000000Y-120000000D03*
X98380000Y-120000000D03*
X147000000Y-100000000D03*
X139380000Y-100000000D03*
X139370000Y-96790000D03*
X146990000Y-96790000D03*
D14*
X103000000Y-83000000D03*
D11*
X102131269Y-85386819D03*
D13*
X121650000Y-123250000D03*
X114030000Y-123250000D03*
D15*
X86990000Y-97520000D03*
D16*
X86990000Y-100060000D03*
D17*
X89530000Y-97520000D03*
X89530000Y-100060000D03*
D16*
X92070000Y-97520000D03*
X92070000Y-100060000D03*
D12*
X146900000Y-105900000D03*
D10*
X117000000Y-83000000D03*
D11*
X117868731Y-85386819D03*
D19*
X117100000Y-137000000D03*
D11*
X117968731Y-134613181D03*
D13*
X114000000Y-100000000D03*
X121620000Y-100000000D03*
D12*
X114300000Y-105900000D03*
D20*
X103100000Y-137000000D03*
D11*
X102231269Y-134613181D03*
D20*
X144100000Y-137000000D03*
D11*
X143231269Y-134613181D03*
D13*
X114000000Y-120000000D03*
X121620000Y-120000000D03*
D15*
X133080000Y-122480000D03*
D16*
X133080000Y-119940000D03*
D17*
X130540000Y-122480000D03*
X130540000Y-119940000D03*
D16*
X128000000Y-122480000D03*
X128000000Y-119940000D03*
D13*
X147000000Y-120000000D03*
X139380000Y-120000000D03*
D19*
X76100000Y-137000000D03*
D11*
X76968731Y-134613181D03*
D12*
X114300000Y-114100000D03*
D13*
X98375000Y-96790000D03*
X105995000Y-96790000D03*
D12*
X105800000Y-105900000D03*
D13*
X73000000Y-120000000D03*
X80620000Y-120000000D03*
X73000000Y-100000000D03*
X80620000Y-100000000D03*
M02*
