G04 #@! TF.GenerationSoftware,KiCad,Pcbnew,7.0.10*
G04 #@! TF.CreationDate,2024-07-07T16:54:11-05:00*
G04 #@! TF.ProjectId,g0dzilla_vs_sao2,6730647a-696c-46c6-915f-76735f73616f,1*
G04 #@! TF.SameCoordinates,Original*
G04 #@! TF.FileFunction,Profile,NP*
%FSLAX46Y46*%
G04 Gerber Fmt 4.6, Leading zero omitted, Abs format (unit mm)*
G04 Created by KiCad (PCBNEW 7.0.10) date 2024-07-07 16:54:11*
%MOMM*%
%LPD*%
G01*
G04 APERTURE LIST*
G04 #@! TA.AperFunction,Profile*
%ADD10C,0.120000*%
G04 #@! TD*
G04 APERTURE END LIST*
D10*
X69930000Y-100730000D02*
X70020000Y-88400000D01*
X69930000Y-104730000D02*
X69930000Y-100730000D01*
X69930000Y-105020000D02*
X69930000Y-104730000D01*
X69980000Y-114980000D02*
X69980000Y-115270000D01*
X69980000Y-115270000D02*
X69980000Y-119270000D01*
X69980000Y-119270000D02*
X70070000Y-131600000D01*
X70020000Y-88400000D02*
X70120000Y-87600000D01*
X70070000Y-131600000D02*
X70170000Y-132400000D01*
X70120000Y-87600000D02*
X70220000Y-87300000D01*
X70130000Y-105620000D02*
X69930000Y-105020000D01*
X70170000Y-132400000D02*
X70270000Y-132700000D01*
X70180000Y-114380000D02*
X69980000Y-114980000D01*
X70220000Y-87300000D02*
X70420000Y-86800000D01*
X70270000Y-132700000D02*
X70470000Y-133200000D01*
X70330000Y-106120000D02*
X70130000Y-105620000D01*
X70380000Y-113880000D02*
X70180000Y-114380000D01*
X70420000Y-86800000D02*
X70620000Y-86400000D01*
X70470000Y-133200000D02*
X70670000Y-133600000D01*
X70620000Y-86400000D02*
X71220000Y-85400000D01*
X70670000Y-133600000D02*
X71270000Y-134600000D01*
X70730000Y-106720000D02*
X70330000Y-106120000D01*
X70780000Y-113280000D02*
X70380000Y-113880000D01*
X70920000Y-107000000D02*
X70730000Y-106720000D01*
X70970000Y-113000000D02*
X70780000Y-113280000D01*
X71220000Y-85400000D02*
X71720000Y-84600000D01*
X71220000Y-107300000D02*
X70920000Y-107000000D01*
X71270000Y-112700000D02*
X70970000Y-113000000D01*
X71270000Y-134600000D02*
X71770000Y-135400000D01*
X71520000Y-107600000D02*
X71220000Y-107300000D01*
X71570000Y-112400000D02*
X71270000Y-112700000D01*
X71720000Y-84600000D02*
X73220000Y-82200000D01*
X71770000Y-135400000D02*
X73270000Y-137800000D01*
X71920000Y-107900000D02*
X71520000Y-107600000D01*
X71970000Y-112100000D02*
X71570000Y-112400000D01*
X72420000Y-108200000D02*
X71920000Y-107900000D01*
X72470000Y-111800000D02*
X71970000Y-112100000D01*
X73120000Y-108500000D02*
X72420000Y-108200000D01*
X73170000Y-111500000D02*
X72470000Y-111800000D01*
X73220000Y-82200000D02*
X74220000Y-80600000D01*
X73270000Y-137800000D02*
X74270000Y-139400000D01*
X74220000Y-80600000D02*
X74620000Y-80000000D01*
X74270000Y-139400000D02*
X74670000Y-140000000D01*
X74520000Y-109000000D02*
X73120000Y-108500000D01*
X74520000Y-111000000D02*
X73170000Y-111500000D01*
X74620000Y-80000000D02*
X75020000Y-79400000D01*
X74670000Y-140000000D02*
X75070000Y-140600000D01*
X75020000Y-79400000D02*
X75520000Y-78800000D01*
X75070000Y-140600000D02*
X75570000Y-141200000D01*
X75520000Y-78800000D02*
X76120000Y-78100000D01*
X75570000Y-141200000D02*
X76170000Y-141900000D01*
X76120000Y-78100000D02*
X76720000Y-77400000D01*
X76170000Y-141900000D02*
X76770000Y-142600000D01*
X76720000Y-77400000D02*
X77520000Y-76500000D01*
X76770000Y-142600000D02*
X77570000Y-143500000D01*
X77520000Y-76500000D02*
X79220000Y-74800000D01*
X77570000Y-143500000D02*
X79270000Y-145200000D01*
X78520000Y-109000000D02*
X100420000Y-109000000D01*
X79220000Y-74800000D02*
X80120000Y-73800000D01*
X79270000Y-145200000D02*
X80170000Y-146200000D01*
X80120000Y-73800000D02*
X80520000Y-73400000D01*
X80170000Y-146200000D02*
X80570000Y-146600000D01*
X80520000Y-73400000D02*
X81220000Y-72800000D01*
X80570000Y-146600000D02*
X81270000Y-147200000D01*
X81220000Y-72800000D02*
X82520000Y-71700000D01*
X81270000Y-147200000D02*
X82570000Y-148300000D01*
X82520000Y-71700000D02*
X83620000Y-70800000D01*
X82570000Y-148300000D02*
X83670000Y-149200000D01*
X83620000Y-70800000D02*
X84120000Y-70300000D01*
X83670000Y-149200000D02*
X84170000Y-149700000D01*
X84120000Y-70300000D02*
X85020000Y-69500000D01*
X84170000Y-149700000D02*
X85070000Y-150500000D01*
X85020000Y-69500000D02*
X85720000Y-68900000D01*
X85070000Y-150500000D02*
X85770000Y-151100000D01*
X85720000Y-68900000D02*
X86020000Y-68700000D01*
X85770000Y-151100000D02*
X86070000Y-151300000D01*
X86020000Y-68700000D02*
X86420000Y-68500000D01*
X86070000Y-151300000D02*
X86470000Y-151500000D01*
X86420000Y-68500000D02*
X86720000Y-68400000D01*
X86470000Y-151500000D02*
X86770000Y-151600000D01*
X86720000Y-68400000D02*
X87120000Y-68300000D01*
X86770000Y-151600000D02*
X87170000Y-151700000D01*
X87120000Y-68300000D02*
X88920000Y-68200000D01*
X87170000Y-151700000D02*
X88970000Y-151800000D01*
X88920000Y-68200000D02*
X90020000Y-68200000D01*
X90070000Y-151800000D02*
X88970000Y-151800000D01*
X91820000Y-68300000D02*
X90020000Y-68200000D01*
X91870000Y-151700000D02*
X90070000Y-151800000D01*
X92220000Y-68400000D02*
X91820000Y-68300000D01*
X92270000Y-151600000D02*
X91870000Y-151700000D01*
X92520000Y-68500000D02*
X92220000Y-68400000D01*
X92570000Y-151500000D02*
X92270000Y-151600000D01*
X92920000Y-68700000D02*
X92520000Y-68500000D01*
X92970000Y-151300000D02*
X92570000Y-151500000D01*
X93220000Y-68900000D02*
X92920000Y-68700000D01*
X93270000Y-151100000D02*
X92970000Y-151300000D01*
X93920000Y-69500000D02*
X93220000Y-68900000D01*
X93970000Y-150500000D02*
X93270000Y-151100000D01*
X94820000Y-70300000D02*
X93920000Y-69500000D01*
X94870000Y-149700000D02*
X93970000Y-150500000D01*
X95320000Y-70800000D02*
X94820000Y-70300000D01*
X95370000Y-149200000D02*
X94870000Y-149700000D01*
X96420000Y-71700000D02*
X95320000Y-70800000D01*
X96470000Y-148300000D02*
X95370000Y-149200000D01*
X97720000Y-72800000D02*
X96420000Y-71700000D01*
X97770000Y-147200000D02*
X96470000Y-148300000D01*
X98420000Y-73400000D02*
X97720000Y-72800000D01*
X98470000Y-146600000D02*
X97770000Y-147200000D01*
X98820000Y-73800000D02*
X98420000Y-73400000D01*
X98870000Y-146200000D02*
X98470000Y-146600000D01*
X99720000Y-74800000D02*
X98820000Y-73800000D01*
X99770000Y-145200000D02*
X98870000Y-146200000D01*
X100420000Y-111000000D02*
X78520000Y-111000000D01*
X101420000Y-76500000D02*
X99720000Y-74800000D01*
X101470000Y-143500000D02*
X99770000Y-145200000D01*
X102220000Y-77400000D02*
X101420000Y-76500000D01*
X102270000Y-142600000D02*
X101470000Y-143500000D01*
X102820000Y-78100000D02*
X102220000Y-77400000D01*
X102870000Y-141900000D02*
X102270000Y-142600000D01*
X103420000Y-78800000D02*
X102820000Y-78100000D01*
X103470000Y-141200000D02*
X102870000Y-141900000D01*
X103920000Y-79400000D02*
X103420000Y-78800000D01*
X103970000Y-140600000D02*
X103470000Y-141200000D01*
X104320000Y-80000000D02*
X103920000Y-79400000D01*
X104370000Y-140000000D02*
X103970000Y-140600000D01*
X104420000Y-109000000D02*
X105820000Y-108500000D01*
X104420000Y-111000000D02*
X105870000Y-111500000D01*
X104720000Y-80600000D02*
X104320000Y-80000000D01*
X104770000Y-139400000D02*
X104370000Y-140000000D01*
X105720000Y-82200000D02*
X104720000Y-80600000D01*
X105770000Y-137800000D02*
X104770000Y-139400000D01*
X105820000Y-108500000D02*
X106520000Y-108200000D01*
X105870000Y-111500000D02*
X106570000Y-111800000D01*
X106520000Y-108200000D02*
X107020000Y-107900000D01*
X106570000Y-111800000D02*
X107070000Y-112100000D01*
X107020000Y-107900000D02*
X107420000Y-107600000D01*
X107070000Y-112100000D02*
X107470000Y-112400000D01*
X107220000Y-84600000D02*
X105720000Y-82200000D01*
X107270000Y-135400000D02*
X105770000Y-137800000D01*
X107420000Y-107600000D02*
X107720000Y-107300000D01*
X107470000Y-112400000D02*
X107770000Y-112700000D01*
X107720000Y-85400000D02*
X107220000Y-84600000D01*
X107720000Y-107300000D02*
X108020000Y-107000000D01*
X107770000Y-112700000D02*
X108070000Y-113000000D01*
X107770000Y-134600000D02*
X107270000Y-135400000D01*
X108020000Y-107000000D02*
X108210000Y-106720000D01*
X108070000Y-113000000D02*
X108260000Y-113280000D01*
X108210000Y-106720000D02*
X108610000Y-106120000D01*
X108260000Y-113280000D02*
X108660000Y-113880000D01*
X108320000Y-86400000D02*
X107720000Y-85400000D01*
X108370000Y-133600000D02*
X107770000Y-134600000D01*
X108520000Y-86800000D02*
X108320000Y-86400000D01*
X108570000Y-133200000D02*
X108370000Y-133600000D01*
X108610000Y-106120000D02*
X108810000Y-105620000D01*
X108660000Y-113880000D02*
X108860000Y-114380000D01*
X108720000Y-87300000D02*
X108520000Y-86800000D01*
X108770000Y-132700000D02*
X108570000Y-133200000D01*
X108810000Y-105620000D02*
X109010000Y-105020000D01*
X108820000Y-87600000D02*
X108720000Y-87300000D01*
X108860000Y-114380000D02*
X109060000Y-114980000D01*
X108870000Y-132400000D02*
X108770000Y-132700000D01*
X108920000Y-88400000D02*
X108820000Y-87600000D01*
X108970000Y-131600000D02*
X108870000Y-132400000D01*
X109010000Y-100730000D02*
X108920000Y-88400000D01*
X109010000Y-105020000D02*
X109010000Y-104730000D01*
X109060000Y-114980000D02*
X109060000Y-115270000D01*
X109060000Y-119270000D02*
X108970000Y-131600000D01*
X111010000Y-100730000D02*
X111100000Y-88400000D01*
X111010000Y-105020000D02*
X111010000Y-104730000D01*
X111060000Y-114980000D02*
X111060000Y-115270000D01*
X111060000Y-119270000D02*
X111150000Y-131600000D01*
X111100000Y-88400000D02*
X111200000Y-87600000D01*
X111150000Y-131600000D02*
X111250000Y-132400000D01*
X111200000Y-87600000D02*
X111300000Y-87300000D01*
X111210000Y-105620000D02*
X111010000Y-105020000D01*
X111250000Y-132400000D02*
X111350000Y-132700000D01*
X111260000Y-114380000D02*
X111060000Y-114980000D01*
X111300000Y-87300000D02*
X111500000Y-86800000D01*
X111350000Y-132700000D02*
X111550000Y-133200000D01*
X111410000Y-106120000D02*
X111210000Y-105620000D01*
X111460000Y-113880000D02*
X111260000Y-114380000D01*
X111500000Y-86800000D02*
X111700000Y-86400000D01*
X111550000Y-133200000D02*
X111750000Y-133600000D01*
X111700000Y-86400000D02*
X112300000Y-85400000D01*
X111750000Y-133600000D02*
X112350000Y-134600000D01*
X111810000Y-106720000D02*
X111410000Y-106120000D01*
X111860000Y-113280000D02*
X111460000Y-113880000D01*
X112000000Y-107000000D02*
X111810000Y-106720000D01*
X112050000Y-113000000D02*
X111860000Y-113280000D01*
X112300000Y-85400000D02*
X112800000Y-84600000D01*
X112300000Y-107300000D02*
X112000000Y-107000000D01*
X112350000Y-112700000D02*
X112050000Y-113000000D01*
X112350000Y-134600000D02*
X112850000Y-135400000D01*
X112600000Y-107600000D02*
X112300000Y-107300000D01*
X112650000Y-112400000D02*
X112350000Y-112700000D01*
X112800000Y-84600000D02*
X114300000Y-82200000D01*
X112850000Y-135400000D02*
X114350000Y-137800000D01*
X113000000Y-107900000D02*
X112600000Y-107600000D01*
X113050000Y-112100000D02*
X112650000Y-112400000D01*
X113500000Y-108200000D02*
X113000000Y-107900000D01*
X113550000Y-111800000D02*
X113050000Y-112100000D01*
X114200000Y-108500000D02*
X113500000Y-108200000D01*
X114250000Y-111500000D02*
X113550000Y-111800000D01*
X114300000Y-82200000D02*
X115300000Y-80600000D01*
X114350000Y-137800000D02*
X115350000Y-139400000D01*
X115300000Y-80600000D02*
X115700000Y-80000000D01*
X115350000Y-139400000D02*
X115750000Y-140000000D01*
X115600000Y-109000000D02*
X114200000Y-108500000D01*
X115600000Y-111000000D02*
X114250000Y-111500000D01*
X115700000Y-80000000D02*
X116100000Y-79400000D01*
X115750000Y-140000000D02*
X116150000Y-140600000D01*
X116100000Y-79400000D02*
X116600000Y-78800000D01*
X116150000Y-140600000D02*
X116650000Y-141200000D01*
X116600000Y-78800000D02*
X117200000Y-78100000D01*
X116650000Y-141200000D02*
X117250000Y-141900000D01*
X117200000Y-78100000D02*
X117800000Y-77400000D01*
X117250000Y-141900000D02*
X117850000Y-142600000D01*
X117800000Y-77400000D02*
X118600000Y-76500000D01*
X117850000Y-142600000D02*
X118650000Y-143500000D01*
X118600000Y-76500000D02*
X120300000Y-74800000D01*
X118650000Y-143500000D02*
X120350000Y-145200000D01*
X119600000Y-109000000D02*
X141500000Y-109000000D01*
X120300000Y-74800000D02*
X121200000Y-73800000D01*
X120350000Y-145200000D02*
X121250000Y-146200000D01*
X121200000Y-73800000D02*
X121600000Y-73400000D01*
X121250000Y-146200000D02*
X121650000Y-146600000D01*
X121600000Y-73400000D02*
X122300000Y-72800000D01*
X121650000Y-146600000D02*
X122350000Y-147200000D01*
X122300000Y-72800000D02*
X123600000Y-71700000D01*
X122350000Y-147200000D02*
X123650000Y-148300000D01*
X123600000Y-71700000D02*
X124700000Y-70800000D01*
X123650000Y-148300000D02*
X124750000Y-149200000D01*
X124700000Y-70800000D02*
X125200000Y-70300000D01*
X124750000Y-149200000D02*
X125250000Y-149700000D01*
X125200000Y-70300000D02*
X126100000Y-69500000D01*
X125250000Y-149700000D02*
X126150000Y-150500000D01*
X126100000Y-69500000D02*
X126800000Y-68900000D01*
X126150000Y-150500000D02*
X126850000Y-151100000D01*
X126800000Y-68900000D02*
X127100000Y-68700000D01*
X126850000Y-151100000D02*
X127150000Y-151300000D01*
X127100000Y-68700000D02*
X127500000Y-68500000D01*
X127150000Y-151300000D02*
X127550000Y-151500000D01*
X127500000Y-68500000D02*
X127800000Y-68400000D01*
X127550000Y-151500000D02*
X127850000Y-151600000D01*
X127800000Y-68400000D02*
X128200000Y-68300000D01*
X127850000Y-151600000D02*
X128250000Y-151700000D01*
X128200000Y-68300000D02*
X130000000Y-68200000D01*
X128250000Y-151700000D02*
X130050000Y-151800000D01*
X130000000Y-68200000D02*
X131100000Y-68200000D01*
X131150000Y-151800000D02*
X130050000Y-151800000D01*
X132900000Y-68300000D02*
X131100000Y-68200000D01*
X132950000Y-151700000D02*
X131150000Y-151800000D01*
X133300000Y-68400000D02*
X132900000Y-68300000D01*
X133350000Y-151600000D02*
X132950000Y-151700000D01*
X133600000Y-68500000D02*
X133300000Y-68400000D01*
X133650000Y-151500000D02*
X133350000Y-151600000D01*
X134000000Y-68700000D02*
X133600000Y-68500000D01*
X134050000Y-151300000D02*
X133650000Y-151500000D01*
X134300000Y-68900000D02*
X134000000Y-68700000D01*
X134350000Y-151100000D02*
X134050000Y-151300000D01*
X135000000Y-69500000D02*
X134300000Y-68900000D01*
X135050000Y-150500000D02*
X134350000Y-151100000D01*
X135900000Y-70300000D02*
X135000000Y-69500000D01*
X135950000Y-149700000D02*
X135050000Y-150500000D01*
X136400000Y-70800000D02*
X135900000Y-70300000D01*
X136450000Y-149200000D02*
X135950000Y-149700000D01*
X137500000Y-71700000D02*
X136400000Y-70800000D01*
X137550000Y-148300000D02*
X136450000Y-149200000D01*
X138800000Y-72800000D02*
X137500000Y-71700000D01*
X138850000Y-147200000D02*
X137550000Y-148300000D01*
X139500000Y-73400000D02*
X138800000Y-72800000D01*
X139550000Y-146600000D02*
X138850000Y-147200000D01*
X139900000Y-73800000D02*
X139500000Y-73400000D01*
X139950000Y-146200000D02*
X139550000Y-146600000D01*
X140800000Y-74800000D02*
X139900000Y-73800000D01*
X140850000Y-145200000D02*
X139950000Y-146200000D01*
X141500000Y-111000000D02*
X119600000Y-111000000D01*
X142500000Y-76500000D02*
X140800000Y-74800000D01*
X142550000Y-143500000D02*
X140850000Y-145200000D01*
X143300000Y-77400000D02*
X142500000Y-76500000D01*
X143350000Y-142600000D02*
X142550000Y-143500000D01*
X143900000Y-78100000D02*
X143300000Y-77400000D01*
X143950000Y-141900000D02*
X143350000Y-142600000D01*
X144500000Y-78800000D02*
X143900000Y-78100000D01*
X144550000Y-141200000D02*
X143950000Y-141900000D01*
X145000000Y-79400000D02*
X144500000Y-78800000D01*
X145050000Y-140600000D02*
X144550000Y-141200000D01*
X145400000Y-80000000D02*
X145000000Y-79400000D01*
X145450000Y-140000000D02*
X145050000Y-140600000D01*
X145500000Y-109000000D02*
X146900000Y-108500000D01*
X145500000Y-111000000D02*
X146950000Y-111500000D01*
X145800000Y-80600000D02*
X145400000Y-80000000D01*
X145850000Y-139400000D02*
X145450000Y-140000000D01*
X146800000Y-82200000D02*
X145800000Y-80600000D01*
X146850000Y-137800000D02*
X145850000Y-139400000D01*
X146900000Y-108500000D02*
X147600000Y-108200000D01*
X146950000Y-111500000D02*
X147650000Y-111800000D01*
X147600000Y-108200000D02*
X148100000Y-107900000D01*
X147650000Y-111800000D02*
X148150000Y-112100000D01*
X148100000Y-107900000D02*
X148500000Y-107600000D01*
X148150000Y-112100000D02*
X148550000Y-112400000D01*
X148300000Y-84600000D02*
X146800000Y-82200000D01*
X148350000Y-135400000D02*
X146850000Y-137800000D01*
X148500000Y-107600000D02*
X148800000Y-107300000D01*
X148550000Y-112400000D02*
X148850000Y-112700000D01*
X148800000Y-85400000D02*
X148300000Y-84600000D01*
X148800000Y-107300000D02*
X149100000Y-107000000D01*
X148850000Y-112700000D02*
X149150000Y-113000000D01*
X148850000Y-134600000D02*
X148350000Y-135400000D01*
X149100000Y-107000000D02*
X149290000Y-106720000D01*
X149150000Y-113000000D02*
X149340000Y-113280000D01*
X149290000Y-106720000D02*
X149690000Y-106120000D01*
X149340000Y-113280000D02*
X149740000Y-113880000D01*
X149400000Y-86400000D02*
X148800000Y-85400000D01*
X149450000Y-133600000D02*
X148850000Y-134600000D01*
X149600000Y-86800000D02*
X149400000Y-86400000D01*
X149650000Y-133200000D02*
X149450000Y-133600000D01*
X149690000Y-106120000D02*
X149890000Y-105620000D01*
X149740000Y-113880000D02*
X149940000Y-114380000D01*
X149800000Y-87300000D02*
X149600000Y-86800000D01*
X149850000Y-132700000D02*
X149650000Y-133200000D01*
X149890000Y-105620000D02*
X150090000Y-105020000D01*
X149900000Y-87600000D02*
X149800000Y-87300000D01*
X149940000Y-114380000D02*
X150140000Y-114980000D01*
X149950000Y-132400000D02*
X149850000Y-132700000D01*
X150000000Y-88400000D02*
X149900000Y-87600000D01*
X150050000Y-131600000D02*
X149950000Y-132400000D01*
X150090000Y-100730000D02*
X150000000Y-88400000D01*
X150090000Y-104730000D02*
X150090000Y-100730000D01*
X150090000Y-105020000D02*
X150090000Y-104730000D01*
X150140000Y-114980000D02*
X150140000Y-115270000D01*
X150140000Y-115270000D02*
X150140000Y-119270000D01*
X150140000Y-119270000D02*
X150050000Y-131600000D01*
X74520000Y-111000000D02*
G75*
G03*
X74520000Y-109000000I0J1000000D01*
G01*
X78520000Y-109000000D02*
G75*
G03*
X78520000Y-111000000I0J-1000000D01*
G01*
X100420000Y-111000000D02*
G75*
G03*
X100420000Y-109000000I0J1000000D01*
G01*
X104420000Y-109000000D02*
G75*
G03*
X104420000Y-111000000I0J-1000000D01*
G01*
X111010000Y-104730000D02*
G75*
G03*
X109010000Y-104730000I-1000000J0D01*
G01*
X111060000Y-119270000D02*
G75*
G03*
X109060000Y-119270000I-1000000J0D01*
G01*
X109010000Y-100730000D02*
G75*
G03*
X111010000Y-100730000I1000000J0D01*
G01*
X109060000Y-115270000D02*
G75*
G03*
X111060000Y-115270000I1000000J0D01*
G01*
X115600000Y-111000000D02*
G75*
G03*
X115600000Y-109000000I0J1000000D01*
G01*
X119600000Y-109000000D02*
G75*
G03*
X119600000Y-111000000I0J-1000000D01*
G01*
X141500000Y-111000000D02*
G75*
G03*
X141500000Y-109000000I0J1000000D01*
G01*
X145500000Y-109000000D02*
G75*
G03*
X145500000Y-111000000I0J-1000000D01*
G01*
M02*
